<svg width="21" height="13" viewBox="0 0 21 13" fill="none" xmlns="http://www.w3.org/2000/svg">
<path fill-rule="evenodd" clip-rule="evenodd" d="M0.5 2.5C0.5 1.83696 0.763392 1.20107 1.23223 0.732233C1.70107 0.263392 2.33696 1.7314e-08 3 1.7314e-08H12.375C12.9814 -7.131e-05 13.5671 0.220241 14.0231 0.61991C14.4791 1.01958 14.7743 1.57136 14.8538 2.1725L18.7413 0.445C18.9315 0.360214 19.14 0.32433 19.3477 0.340607C19.5554 0.356884 19.7557 0.424808 19.9304 0.538203C20.1052 0.651599 20.2488 0.80687 20.3483 0.989905C20.4478 1.17294 20.4999 1.37793 20.5 1.58625V10.9137C20.4998 11.1219 20.4477 11.3267 20.3483 11.5096C20.2488 11.6925 20.1053 11.8477 19.9308 11.961C19.7562 12.0744 19.5561 12.1424 19.3486 12.1588C19.141 12.1752 18.9327 12.1395 18.7425 12.055L14.8538 10.3275C14.7743 10.9286 14.4791 11.4804 14.0231 11.8801C13.5671 12.2798 12.9814 12.5001 12.375 12.5H3C2.33696 12.5 1.70107 12.2366 1.23223 11.7678C0.763392 11.2989 0.5 10.663 0.5 10V2.5ZM14.875 8.96875L19.25 10.9137V1.58625L14.875 3.53125V8.96875ZM3 1.25C2.66848 1.25 2.35054 1.3817 2.11612 1.61612C1.8817 1.85054 1.75 2.16848 1.75 2.5V10C1.75 10.3315 1.8817 10.6495 2.11612 10.8839C2.35054 11.1183 2.66848 11.25 3 11.25H12.375C12.7065 11.25 13.0245 11.1183 13.2589 10.8839C13.4933 10.6495 13.625 10.3315 13.625 10V2.5C13.625 2.16848 13.4933 1.85054 13.2589 1.61612C13.0245 1.3817 12.7065 1.25 12.375 1.25H3Z" fill="white"/>
</svg>
