<svg version="1.1" id="Layer_1" xmlns="http://www.w3.org/2000/svg" xmlns:xlink="http://www.w3.org/1999/xlink" x="0px" y="0px"
	 width="100%" viewBox="0 0 850 850" enable-background="new 0 0 850 850" xml:space="preserve">
<path fill="#000000" opacity="1.000000" stroke="none" 
	d="
M534.000000,851.000000 
	C356.000061,851.000000 178.500107,851.000000 1.000119,851.000000 
	C1.000079,567.666809 1.000079,284.333618 1.000040,1.000309 
	C284.333099,1.000206 567.666199,1.000206 850.999512,1.000103 
	C850.999634,284.333038 850.999634,567.666077 850.999817,850.999512 
	C745.500000,851.000000 640.000000,851.000000 534.000000,851.000000 
M804.000000,449.500000 
	C803.666931,431.239532 803.056274,412.978302 803.104126,394.718842 
	C803.133301,383.618469 799.183716,373.550629 795.510193,363.600708 
	C792.143921,354.483276 787.175720,345.757874 781.729370,337.655640 
	C774.017700,326.183228 765.764587,314.970306 756.736755,304.515289 
	C746.938843,293.168427 735.305176,283.710266 722.870789,275.131561 
	C709.399658,265.837677 695.312439,257.901855 680.094543,252.018250 
	C671.182190,248.572540 661.645325,246.517059 653.121704,242.341431 
	C638.986328,235.416595 624.185120,230.759216 609.031433,227.104858 
	C600.499817,225.047485 591.633484,224.402451 583.064148,222.472137 
	C568.953796,219.293686 555.262207,214.663895 540.555054,213.776566 
	C520.593323,212.572220 500.750000,209.435989 480.789825,208.167267 
	C463.077759,207.041428 445.276520,207.127899 427.512939,207.045135 
	C395.741943,206.897079 363.945221,206.251099 332.357666,210.956100 
	C323.453827,212.282333 314.254303,212.148239 305.557007,214.221634 
	C290.099335,217.906693 273.979889,218.210587 258.899292,223.849747 
	C255.184464,225.238861 250.585602,224.120819 246.708313,225.243698 
	C231.767624,229.570587 216.807861,233.920303 202.138596,239.068954 
	C189.438583,243.526443 176.893265,248.588837 164.710571,254.302780 
	C155.383331,258.677460 146.590744,264.264313 137.816589,269.723877 
	C130.298294,274.401978 122.625916,279.063171 115.950485,284.810608 
	C106.172791,293.229004 96.664391,302.111053 88.085640,311.727264 
	C80.073578,320.708282 72.507744,330.368378 66.445465,340.724701 
	C60.956646,350.101318 58.186951,361.025421 53.439110,370.892242 
	C48.521046,381.112793 47.379852,392.128174 47.264168,402.861389 
	C46.891430,437.444672 47.759476,472.039795 47.940826,506.631470 
	C47.995270,517.016663 51.304771,526.616089 55.192142,535.811768 
	C59.982182,547.142883 65.371780,558.454712 72.220695,568.616760 
	C79.413368,579.288818 88.231964,588.972961 97.081017,598.392761 
	C107.508400,609.492737 119.956085,618.268188 133.573410,625.056946 
	C143.855042,630.182739 154.222229,636.207153 165.246185,638.520325 
	C181.364304,641.902527 198.088562,643.509644 214.583527,643.733459 
	C242.594757,644.113525 270.687927,645.520874 298.650208,642.024902 
	C309.734375,640.639160 320.278931,637.379822 329.713959,631.593872 
	C339.830261,625.390076 349.475922,618.382629 359.075897,611.381653 
	C373.304810,601.005005 384.563751,587.748352 395.110352,573.754639 
	C407.395477,557.454102 428.875763,551.812805 445.396973,564.407227 
	C454.370148,571.247620 460.970642,581.155334 468.875061,589.457031 
	C475.398834,596.308655 481.970886,603.169617 489.070404,609.401123 
	C495.250000,614.825195 501.870087,619.913452 508.887665,624.174988 
	C517.712646,629.533936 526.794312,634.808044 536.394531,638.468079 
	C548.706970,643.162231 562.069397,643.920898 575.129578,643.844177 
	C605.657532,643.664917 636.186401,642.842896 666.701416,641.862549 
	C673.479614,641.644836 680.531189,640.627808 686.888000,638.374023 
	C704.962830,631.965576 722.816467,624.773621 737.597961,612.024597 
	C747.565796,603.427368 757.973022,595.105652 766.645813,585.300476 
	C777.306030,573.248474 785.646118,559.408081 792.290100,544.542358 
	C799.588135,528.213440 804.214905,511.477570 804.029846,493.490967 
	C803.882385,479.162079 804.000000,464.830414 804.000000,449.500000 
z"/>
<path fill="#3DC9B0" opacity="1.000000" stroke="none" 
	d="
M804.000000,450.000000 
	C804.000000,464.830414 803.882385,479.162079 804.029846,493.490967 
	C804.214905,511.477570 799.588135,528.213440 792.290100,544.542358 
	C785.646118,559.408081 777.306030,573.248474 766.645813,585.300476 
	C757.973022,595.105652 747.565796,603.427368 737.597961,612.024597 
	C722.816467,624.773621 704.962830,631.965576 686.888000,638.374023 
	C680.531189,640.627808 673.479614,641.644836 666.701416,641.862549 
	C636.186401,642.842896 605.657532,643.664917 575.129578,643.844177 
	C562.069397,643.920898 548.706970,643.162231 536.394531,638.468079 
	C526.794312,634.808044 517.712646,629.533936 508.887665,624.174988 
	C501.870087,619.913452 495.250000,614.825195 489.070404,609.401123 
	C481.970886,603.169617 475.398834,596.308655 468.875061,589.457031 
	C460.970642,581.155334 454.370148,571.247620 445.396973,564.407227 
	C428.875763,551.812805 407.395477,557.454102 395.110352,573.754639 
	C384.563751,587.748352 373.304810,601.005005 359.075897,611.381653 
	C349.475922,618.382629 339.830261,625.390076 329.713959,631.593872 
	C320.278931,637.379822 309.734375,640.639160 298.650208,642.024902 
	C270.687927,645.520874 242.594757,644.113525 214.583527,643.733459 
	C198.088562,643.509644 181.364304,641.902527 165.246185,638.520325 
	C154.222229,636.207153 143.855042,630.182739 133.573410,625.056946 
	C119.956085,618.268188 107.508400,609.492737 97.081017,598.392761 
	C88.231964,588.972961 79.413368,579.288818 72.220695,568.616760 
	C65.371780,558.454712 59.982182,547.142883 55.192142,535.811768 
	C51.304771,526.616089 47.995270,517.016663 47.940826,506.631470 
	C47.759476,472.039795 46.891430,437.444672 47.264168,402.861389 
	C47.379852,392.128174 48.521046,381.112793 53.439110,370.892242 
	C58.186951,361.025421 60.956646,350.101318 66.445465,340.724701 
	C72.507744,330.368378 80.073578,320.708282 88.085640,311.727264 
	C96.664391,302.111053 106.172791,293.229004 115.950485,284.810608 
	C122.625916,279.063171 130.298294,274.401978 137.816589,269.723877 
	C146.590744,264.264313 155.383331,258.677460 164.710571,254.302780 
	C176.893265,248.588837 189.438583,243.526443 202.138596,239.068954 
	C216.807861,233.920303 231.767624,229.570587 246.708313,225.243698 
	C250.585602,224.120819 255.184464,225.238861 258.899292,223.849747 
	C273.979889,218.210587 290.099335,217.906693 305.557007,214.221634 
	C314.254303,212.148239 323.453827,212.282333 332.357666,210.956100 
	C363.945221,206.251099 395.741943,206.897079 427.512939,207.045135 
	C445.276520,207.127899 463.077759,207.041428 480.789825,208.167267 
	C500.750000,209.435989 520.593323,212.572220 540.555054,213.776566 
	C555.262207,214.663895 568.953796,219.293686 583.064148,222.472137 
	C591.633484,224.402451 600.499817,225.047485 609.031433,227.104858 
	C624.185120,230.759216 638.986328,235.416595 653.121704,242.341431 
	C661.645325,246.517059 671.182190,248.572540 680.094543,252.018250 
	C695.312439,257.901855 709.399658,265.837677 722.870789,275.131561 
	C735.305176,283.710266 746.938843,293.168427 756.736755,304.515289 
	C765.764587,314.970306 774.017700,326.183228 781.729370,337.655640 
	C787.175720,345.757874 792.143921,354.483276 795.510193,363.600708 
	C799.183716,373.550629 803.133301,383.618469 803.104126,394.718842 
	C803.056274,412.978302 803.666931,431.239532 804.000000,450.000000 
M769.078186,484.854980 
	C769.385437,482.922638 769.915100,480.995270 769.958618,479.057007 
	C770.093201,473.061432 770.130554,467.060455 770.045959,461.063843 
	C769.851196,447.248505 769.617981,433.433197 769.283203,419.620667 
	C769.155334,414.344025 769.219177,408.982147 768.281982,403.825165 
	C766.982178,396.673035 765.446228,389.440460 762.880615,382.670868 
	C759.130005,372.774719 755.405945,362.608765 749.804626,353.735687 
	C741.722412,340.932587 732.202087,328.959503 720.020691,319.555817 
	C712.011841,313.373169 704.203857,306.821564 695.655151,301.475861 
	C686.028015,295.455811 675.873169,290.169250 665.574951,285.362549 
	C654.436829,280.163879 643.107239,275.143036 631.428467,271.391937 
	C615.709961,266.343292 599.694885,262.065247 583.589783,258.415344 
	C567.090393,254.676071 550.387939,251.708557 533.661255,249.139786 
	C522.483643,247.423218 511.107758,247.000534 499.821686,245.986893 
	C485.096802,244.664398 470.381836,242.335312 455.646881,242.203903 
	C423.010620,241.912857 390.315186,240.703461 357.773682,244.938004 
	C342.504791,246.924911 327.087524,247.844391 311.868439,250.122391 
	C294.973175,252.651291 278.054474,255.462982 261.464935,259.471588 
	C244.963287,263.458954 228.567932,268.304688 212.659088,274.210266 
	C196.439545,280.231140 180.626877,287.511475 165.109619,295.196564 
	C156.462234,299.479279 148.212158,305.031036 140.800522,311.227875 
	C130.791794,319.596100 121.146973,328.588715 112.491585,338.331177 
	C104.463829,347.367218 98.125610,357.725342 93.157288,369.030731 
	C87.879898,381.039398 83.466919,393.233124 82.179100,406.176605 
	C80.757584,420.463959 80.189911,434.882446 80.145714,449.246582 
	C80.107697,461.606995 81.730865,473.966522 81.877037,486.335236 
	C82.014168,497.939270 84.057495,508.922272 87.760994,519.955261 
	C93.716064,537.695740 102.823746,553.340332 115.500748,566.943359 
	C124.502060,576.602173 134.481766,585.312927 146.191208,591.412720 
	C156.218765,596.636292 166.587448,602.195862 177.466599,604.547791 
	C191.641434,607.612244 206.445099,608.176636 221.022903,608.853149 
	C235.488678,609.524475 250.010056,608.975464 264.506805,609.027710 
	C266.571625,609.035156 268.675079,609.777466 270.691803,609.555176 
	C276.915283,608.869080 283.101410,607.850403 289.309814,607.019165 
	C294.387146,606.339233 299.851166,606.716492 304.488892,604.927490 
	C318.549927,599.503296 330.658905,590.857300 341.864380,580.751770 
	C357.782532,566.396179 367.912170,546.495178 386.163513,534.506409 
	C391.917847,530.726501 398.253937,527.591187 404.710815,525.210876 
	C408.687653,523.744751 413.402466,524.320557 417.775513,523.876770 
	C421.533478,523.495483 425.361908,522.230286 429.009430,522.651794 
	C437.900726,523.679321 446.479065,525.550171 454.881775,529.487671 
	C460.671448,532.200745 466.119293,535.166321 470.563171,539.339722 
	C477.826691,546.161072 484.161804,553.960510 491.069031,561.174500 
	C498.676849,569.120117 506.313385,577.053345 514.254333,584.661194 
	C524.744812,594.711548 536.690369,602.589661 551.290466,605.003723 
	C562.418579,606.843750 573.694458,608.629700 584.929871,608.802979 
	C606.847351,609.140930 628.803040,608.784790 650.700989,607.791687 
	C660.375427,607.352966 670.138489,605.352295 679.505615,602.770264 
	C686.916443,600.727356 694.238831,597.450073 700.786377,593.403625 
	C710.606079,587.334900 720.279602,580.767029 728.988892,573.226013 
	C741.840759,562.098145 751.217590,548.194580 758.256042,532.583130 
	C765.000183,517.624390 769.667236,502.371887 769.078186,484.854980 
z"/>
<path fill="#000000" opacity="1.000000" stroke="none" 
	d="
M769.045166,485.327271 
	C769.667236,502.371887 765.000183,517.624390 758.256042,532.583130 
	C751.217590,548.194580 741.840759,562.098145 728.988892,573.226013 
	C720.279602,580.767029 710.606079,587.334900 700.786377,593.403625 
	C694.238831,597.450073 686.916443,600.727356 679.505615,602.770264 
	C670.138489,605.352295 660.375427,607.352966 650.700989,607.791687 
	C628.803040,608.784790 606.847351,609.140930 584.929871,608.802979 
	C573.694458,608.629700 562.418579,606.843750 551.290466,605.003723 
	C536.690369,602.589661 524.744812,594.711548 514.254333,584.661194 
	C506.313385,577.053345 498.676849,569.120117 491.069031,561.174500 
	C484.161804,553.960510 477.826691,546.161072 470.563171,539.339722 
	C466.119293,535.166321 460.671448,532.200745 454.881775,529.487671 
	C446.479065,525.550171 437.900726,523.679321 429.009430,522.651794 
	C425.361908,522.230286 421.533478,523.495483 417.775513,523.876770 
	C413.402466,524.320557 408.687653,523.744751 404.710815,525.210876 
	C398.253937,527.591187 391.917847,530.726501 386.163513,534.506409 
	C367.912170,546.495178 357.782532,566.396179 341.864380,580.751770 
	C330.658905,590.857300 318.549927,599.503296 304.488892,604.927490 
	C299.851166,606.716492 294.387146,606.339233 289.309814,607.019165 
	C283.101410,607.850403 276.915283,608.869080 270.691803,609.555176 
	C268.675079,609.777466 266.571625,609.035156 264.506805,609.027710 
	C250.010056,608.975464 235.488678,609.524475 221.022903,608.853149 
	C206.445099,608.176636 191.641434,607.612244 177.466599,604.547791 
	C166.587448,602.195862 156.218765,596.636292 146.191208,591.412720 
	C134.481766,585.312927 124.502060,576.602173 115.500748,566.943359 
	C102.823746,553.340332 93.716064,537.695740 87.760994,519.955261 
	C84.057495,508.922272 82.014168,497.939270 81.877037,486.335236 
	C81.730865,473.966522 80.107697,461.606995 80.145714,449.246582 
	C80.189911,434.882446 80.757584,420.463959 82.179100,406.176605 
	C83.466919,393.233124 87.879898,381.039398 93.157288,369.030731 
	C98.125610,357.725342 104.463829,347.367218 112.491585,338.331177 
	C121.146973,328.588715 130.791794,319.596100 140.800522,311.227875 
	C148.212158,305.031036 156.462234,299.479279 165.109619,295.196564 
	C180.626877,287.511475 196.439545,280.231140 212.659088,274.210266 
	C228.567932,268.304688 244.963287,263.458954 261.464935,259.471588 
	C278.054474,255.462982 294.973175,252.651291 311.868439,250.122391 
	C327.087524,247.844391 342.504791,246.924911 357.773682,244.938004 
	C390.315186,240.703461 423.010620,241.912857 455.646881,242.203903 
	C470.381836,242.335312 485.096802,244.664398 499.821686,245.986893 
	C511.107758,247.000534 522.483643,247.423218 533.661255,249.139786 
	C550.387939,251.708557 567.090393,254.676071 583.589783,258.415344 
	C599.694885,262.065247 615.709961,266.343292 631.428467,271.391937 
	C643.107239,275.143036 654.436829,280.163879 665.574951,285.362549 
	C675.873169,290.169250 686.028015,295.455811 695.655151,301.475861 
	C704.203857,306.821564 712.011841,313.373169 720.020691,319.555817 
	C732.202087,328.959503 741.722412,340.932587 749.804626,353.735687 
	C755.405945,362.608765 759.130005,372.774719 762.880615,382.670868 
	C765.446228,389.440460 766.982178,396.673035 768.281982,403.825165 
	C769.219177,408.982147 769.155334,414.344025 769.283203,419.620667 
	C769.617981,433.433197 769.851196,447.248505 770.045959,461.063843 
	C770.130554,467.060455 770.093201,473.061432 769.958618,479.057007 
	C769.915100,480.995270 769.385437,482.922638 769.045166,485.327271 
M705.031860,531.028259 
	C705.031860,531.028259 705.060303,531.094666 705.685791,530.812256 
	C707.510742,528.318481 709.659912,525.997375 711.097778,523.297485 
	C714.885193,516.186096 719.962402,509.251343 721.590698,501.619965 
	C724.039673,490.141968 724.618958,478.143250 724.858093,466.342926 
	C725.256287,446.691315 725.336792,427.061981 722.230408,407.457306 
	C720.128784,394.193939 715.561523,382.321747 707.330750,372.076050 
	C701.563538,364.896912 694.769043,358.471985 687.971130,352.212219 
	C681.526428,346.277649 675.124390,340.356842 666.728149,336.713989 
	C658.991760,333.357391 652.311279,327.585236 644.597290,324.155426 
	C622.016724,314.115662 598.416626,306.923492 574.211853,302.095001 
	C557.447937,298.750824 540.461304,296.472107 523.526245,294.052948 
	C509.917969,292.109039 496.276978,290.115875 482.579590,289.144104 
	C465.094025,287.903625 447.537323,287.152466 430.010956,287.146515 
	C412.818268,287.140656 395.616119,288.159180 378.435059,289.053894 
	C364.134460,289.798584 349.800293,290.514221 335.587616,292.162109 
	C320.863434,293.869263 306.226685,296.456055 291.628662,299.085419 
	C280.118378,301.158600 268.482300,303.087646 257.336212,306.498962 
	C240.482819,311.657043 223.758011,317.441681 207.457535,324.127808 
	C196.456299,328.640259 185.758224,334.382080 175.867340,340.986053 
	C163.767532,349.064850 153.023575,358.976959 144.455627,371.000061 
	C137.171265,381.222015 131.107986,392.045227 127.025688,404.927856 
	C127.017128,418.582062 126.875648,432.237793 127.034897,445.890045 
	C127.218643,461.643250 127.455330,477.402496 128.129868,493.139374 
	C128.334335,497.909607 129.143478,503.091431 131.290329,507.251495 
	C136.038483,516.452332 141.811600,525.124207 147.108459,534.520813 
	C147.398346,534.625000 147.688217,534.729187 148.612427,535.126892 
	C151.720047,538.230591 154.437607,541.915771 158.016815,544.316406 
	C165.379776,549.254944 173.011993,553.876465 180.883636,557.951965 
	C191.956390,563.684814 204.409073,562.287354 216.182373,562.694885 
	C237.562607,563.434998 259.008514,562.427551 280.423126,561.968018 
	C292.311584,561.713013 301.429810,555.781921 309.736633,547.005310 
	C310.862762,545.684204 311.988892,544.363098 313.647034,542.848022 
	C314.112061,542.270264 314.577118,541.692566 315.736603,541.005310 
	C316.862732,539.684204 317.988861,538.363098 319.647095,536.847900 
	C320.112213,536.270020 320.577332,535.692200 321.657928,534.837036 
	C322.810272,533.238708 323.962616,531.640320 325.696167,529.803223 
	C326.811615,528.573608 327.927063,527.343994 329.657959,525.837036 
	C330.810303,524.238708 331.962646,522.640381 333.678711,520.819458 
	C334.466644,519.917786 335.254578,519.016113 336.657898,517.837036 
	C337.810242,516.238647 338.962616,514.640320 340.724182,512.776794 
	C345.922455,508.246887 350.746124,503.165741 356.408081,499.318298 
	C364.584961,493.761932 372.926849,488.018311 381.996796,484.304840 
	C396.391876,478.411194 411.805603,477.677185 427.399902,477.784332 
	C444.855042,477.904205 461.294708,480.587219 477.107513,488.367249 
	C487.500336,493.480621 496.987885,499.694977 505.028137,507.766357 
	C513.243835,516.013855 520.493896,525.223450 528.108459,534.520874 
	C528.398499,534.625061 528.688477,534.729187 529.614563,535.128601 
	C534.291260,539.802124 539.022522,544.422485 543.633118,549.160339 
	C552.670715,558.447510 563.915283,562.999939 576.578613,562.876404 
	C603.216125,562.616516 629.861755,562.013916 656.474976,560.873352 
	C672.327209,560.193970 684.942261,551.896362 696.736267,541.005188 
	C697.529175,540.017456 698.322083,539.029724 699.647034,537.847961 
	C700.112183,537.270142 700.577332,536.692261 701.657104,535.837830 
	C702.804138,534.244263 703.951111,532.650696 705.031860,531.028259 
z"/>
<path fill="#3DC9B0" opacity="1.000000" stroke="none" 
	d="
M701.042480,536.114380 
	C700.577332,536.692261 700.112183,537.270142 699.052368,538.023438 
	C697.652466,539.170837 696.847290,540.142822 696.042114,541.114807 
	C684.942261,551.896362 672.327209,560.193970 656.474976,560.873352 
	C629.861755,562.013916 603.216125,562.616516 576.578613,562.876404 
	C563.915283,562.999939 552.670715,558.447510 543.633118,549.160339 
	C539.022522,544.422485 534.291260,539.802124 529.172974,534.832764 
	C528.557922,534.346008 528.369629,534.170959 528.166626,534.011841 
	C520.493896,525.223450 513.243835,516.013855 505.028137,507.766357 
	C496.987885,499.694977 487.500336,493.480621 477.107513,488.367249 
	C461.294708,480.587219 444.855042,477.904205 427.399902,477.784332 
	C411.805603,477.677185 396.391876,478.411194 381.996796,484.304840 
	C372.926849,488.018311 364.584961,493.761932 356.408081,499.318298 
	C350.746124,503.165741 345.922455,508.246887 340.072754,512.989136 
	C338.295013,514.839172 337.168732,516.476746 336.042480,518.114380 
	C335.254578,519.016113 334.466644,519.917786 333.049988,521.010498 
	C331.295013,522.839172 330.168762,524.476746 329.042480,526.114380 
	C327.927063,527.343994 326.811615,528.573608 325.058716,530.002380 
	C323.294983,531.839111 322.168701,533.476746 321.042450,535.114380 
	C320.577332,535.692200 320.112213,536.270020 319.043457,537.019958 
	C317.307251,538.499634 316.174713,539.807251 315.042145,541.114807 
	C314.577118,541.692566 314.112061,542.270264 313.043396,543.020020 
	C311.307220,544.499634 310.174683,545.807190 309.042145,547.114807 
	C301.429810,555.781921 292.311584,561.713013 280.423126,561.968018 
	C259.008514,562.427551 237.562607,563.434998 216.182373,562.694885 
	C204.409073,562.287354 191.956390,563.684814 180.883636,557.951965 
	C173.011993,553.876465 165.379776,549.254944 158.016815,544.316406 
	C154.437607,541.915771 151.720047,538.230591 148.171158,534.832458 
	C147.556198,534.347595 147.368454,534.172241 147.166656,534.011841 
	C141.811600,525.124207 136.038483,516.452332 131.290329,507.251495 
	C129.143478,503.091431 128.334335,497.909607 128.129868,493.139374 
	C127.455330,477.402496 127.218643,461.643250 127.034897,445.890045 
	C126.875648,432.237793 127.017128,418.582062 127.399872,404.321838 
	C128.628479,402.335571 129.563736,400.998199 130.322998,399.567444 
	C133.276001,394.002686 135.861481,388.216583 139.154526,382.863983 
	C146.521896,370.889008 155.572403,360.180756 166.894318,351.856049 
	C176.364807,344.892609 186.221741,338.205414 196.666077,332.884888 
	C207.413528,327.409851 218.995758,323.509216 230.369431,319.348022 
	C239.576630,315.979492 248.839783,312.405457 258.388428,310.400665 
	C280.660675,305.724548 303.015625,301.204773 325.533844,298.007507 
	C346.230103,295.068878 367.151367,293.357819 388.034180,292.202881 
	C404.761322,291.277771 421.584595,291.736176 438.355713,292.064392 
	C453.807495,292.366730 469.297516,292.744843 484.678711,294.119049 
	C504.360168,295.877472 524.020691,298.198242 543.556030,301.161346 
	C559.150208,303.526733 574.649963,306.775330 589.988708,310.473267 
	C600.146851,312.922211 609.984009,316.748352 619.899414,320.148804 
	C646.747314,329.356140 671.445435,342.302216 691.846924,362.448242 
	C701.939880,372.414764 710.596008,383.480865 715.048645,397.194550 
	C719.714050,411.563354 720.758545,426.519714 720.904053,441.476776 
	C721.031860,454.609802 719.958557,467.755005 720.102295,480.887299 
	C720.278870,497.023407 716.371765,511.751312 707.319824,525.147217 
	C706.164062,526.857605 705.794189,529.099121 705.060303,531.094666 
	C705.060303,531.094666 705.031860,531.028259 704.718933,531.120239 
	C703.284851,532.846252 702.163696,534.480347 701.042480,536.114380 
M168.421173,399.201294 
	C167.295181,400.838745 166.169174,402.476196 164.907990,404.569885 
	C164.723862,404.861633 164.459686,405.018860 163.433960,405.195557 
	C159.781769,406.680237 159.392258,408.817719 162.158707,411.582611 
	C165.561874,414.983826 169.008911,418.342468 172.356812,421.797241 
	C174.684570,424.199280 177.382919,424.690948 179.963882,422.777924 
	C182.584290,420.835632 184.854050,418.395325 187.157516,416.055145 
	C193.698105,409.410187 200.097855,402.624969 206.703659,396.046204 
	C213.194748,389.581604 219.928925,383.360474 226.385025,376.862213 
	C227.118454,376.123962 226.745071,374.286102 226.980621,372.227661 
	C223.878311,368.544159 220.618271,364.979767 217.720261,361.141998 
	C215.082489,357.648895 212.360031,357.462372 208.457413,360.198639 
	C207.652328,361.170685 206.847229,362.142761 205.778107,363.722839 
	C201.223663,367.829285 196.669235,371.935730 191.439651,376.191864 
	C190.307159,377.499512 189.174652,378.807159 187.848145,380.646912 
	C187.270355,381.112000 186.692581,381.577087 185.439651,382.191864 
	C184.307159,383.499512 183.174652,384.807159 181.907227,386.570923 
	C181.722946,386.862274 181.458801,387.019379 180.437454,387.192993 
	C179.291443,388.739777 178.145432,390.286560 176.473312,392.054993 
	C176.020477,392.384064 175.567642,392.713135 174.437439,393.192993 
	C173.291428,394.739777 172.145432,396.286560 170.473297,398.054993 
	C170.020462,398.384033 169.567627,398.713104 168.421173,399.201294 
M231.054550,428.459656 
	C231.644730,428.179901 232.367508,428.034210 232.805740,427.600830 
	C244.272141,416.261047 255.716919,404.899261 267.148529,393.524353 
	C276.329254,384.389160 285.525116,375.268585 294.631836,366.060028 
	C297.122101,363.541931 301.125702,361.094391 298.107544,356.809753 
	C295.526825,353.146118 292.328979,349.851654 289.016602,346.816803 
	C288.223969,346.090607 285.425934,346.465973 284.349701,347.330292 
	C280.309540,350.574646 276.462189,354.092499 272.788910,357.754883 
	C245.438202,385.024353 218.180634,412.387360 190.788025,439.614563 
	C187.768692,442.615662 186.160583,444.708374 190.895752,447.526306 
	C193.537659,449.098541 195.552658,451.689636 198.089737,453.482635 
	C200.472473,455.166504 202.792603,455.825470 205.485748,453.123566 
	C213.675003,444.907776 222.171448,436.998230 231.054550,428.459656 
z"/>
<path fill="#3DC9B0" opacity="1.000000" stroke="none" 
	d="
M705.373047,530.953491 
	C705.794189,529.099121 706.164062,526.857605 707.319824,525.147217 
	C716.371765,511.751312 720.278870,497.023407 720.102295,480.887299 
	C719.958557,467.755005 721.031860,454.609802 720.904053,441.476776 
	C720.758545,426.519714 719.714050,411.563354 715.048645,397.194550 
	C710.596008,383.480865 701.939880,372.414764 691.846924,362.448242 
	C671.445435,342.302216 646.747314,329.356140 619.899414,320.148804 
	C609.984009,316.748352 600.146851,312.922211 589.988708,310.473267 
	C574.649963,306.775330 559.150208,303.526733 543.556030,301.161346 
	C524.020691,298.198242 504.360168,295.877472 484.678711,294.119049 
	C469.297516,292.744843 453.807495,292.366730 438.355713,292.064392 
	C421.584595,291.736176 404.761322,291.277771 388.034180,292.202881 
	C367.151367,293.357819 346.230103,295.068878 325.533844,298.007507 
	C303.015625,301.204773 280.660675,305.724548 258.388428,310.400665 
	C248.839783,312.405457 239.576630,315.979492 230.369431,319.348022 
	C218.995758,323.509216 207.413528,327.409851 196.666077,332.884888 
	C186.221741,338.205414 176.364807,344.892609 166.894318,351.856049 
	C155.572403,360.180756 146.521896,370.889008 139.154526,382.863983 
	C135.861481,388.216583 133.276001,394.002686 130.322998,399.567444 
	C129.563736,400.998199 128.628479,402.335571 127.470367,403.857849 
	C131.107986,392.045227 137.171265,381.222015 144.455627,371.000061 
	C153.023575,358.976959 163.767532,349.064850 175.867340,340.986053 
	C185.758224,334.382080 196.456299,328.640259 207.457535,324.127808 
	C223.758011,317.441681 240.482819,311.657043 257.336212,306.498962 
	C268.482300,303.087646 280.118378,301.158600 291.628662,299.085419 
	C306.226685,296.456055 320.863434,293.869263 335.587616,292.162109 
	C349.800293,290.514221 364.134460,289.798584 378.435059,289.053894 
	C395.616119,288.159180 412.818268,287.140656 430.010956,287.146515 
	C447.537323,287.152466 465.094025,287.903625 482.579590,289.144104 
	C496.276978,290.115875 509.917969,292.109039 523.526245,294.052948 
	C540.461304,296.472107 557.447937,298.750824 574.211853,302.095001 
	C598.416626,306.923492 622.016724,314.115662 644.597290,324.155426 
	C652.311279,327.585236 658.991760,333.357391 666.728149,336.713989 
	C675.124390,340.356842 681.526428,346.277649 687.971130,352.212219 
	C694.769043,358.471985 701.563538,364.896912 707.330750,372.076050 
	C715.561523,382.321747 720.128784,394.193939 722.230408,407.457306 
	C725.336792,427.061981 725.256287,446.691315 724.858093,466.342926 
	C724.618958,478.143250 724.039673,490.141968 721.590698,501.619965 
	C719.962402,509.251343 714.885193,516.186096 711.097778,523.297485 
	C709.659912,525.997375 707.510742,528.318481 705.373047,530.953491 
z"/>
<path fill="#3DC9B0" opacity="1.000000" stroke="none" 
	d="
M336.350189,517.975708 
	C337.168732,516.476746 338.295013,514.839172 339.768127,513.121765 
	C338.962616,514.640320 337.810242,516.238647 336.350189,517.975708 
z"/>
<path fill="#3DC9B0" opacity="1.000000" stroke="none" 
	d="
M701.349792,535.976074 
	C702.163696,534.480347 703.284851,532.846252 704.752075,531.134644 
	C703.951111,532.650696 702.804138,534.244263 701.349792,535.976074 
z"/>
<path fill="#3DC9B0" opacity="1.000000" stroke="none" 
	d="
M321.350189,534.975708 
	C322.168701,533.476746 323.294983,531.839111 324.768127,530.121765 
	C323.962616,531.640320 322.810272,533.238708 321.350189,534.975708 
z"/>
<path fill="#3DC9B0" opacity="1.000000" stroke="none" 
	d="
M329.350220,525.975708 
	C330.168762,524.476746 331.295013,522.839172 332.768158,521.121765 
	C331.962646,522.640381 330.810303,524.238708 329.350220,525.975708 
z"/>
<path fill="#3DC9B0" opacity="1.000000" stroke="none" 
	d="
M315.389374,541.060059 
	C316.174713,539.807251 317.307251,538.499634 318.777405,537.117004 
	C317.988861,538.363098 316.862732,539.684204 315.389374,541.060059 
z"/>
<path fill="#3DC9B0" opacity="1.000000" stroke="none" 
	d="
M309.389404,547.060059 
	C310.174683,545.807190 311.307220,544.499634 312.777405,543.117004 
	C311.988892,544.363098 310.862762,545.684204 309.389404,547.060059 
z"/>
<path fill="#3DC9B0" opacity="1.000000" stroke="none" 
	d="
M696.389160,541.059998 
	C696.847290,540.142822 697.652466,539.170837 698.786377,538.120483 
	C698.322083,539.029724 697.529175,540.017456 696.389160,541.059998 
z"/>
<path fill="#3DC9B0" opacity="1.000000" stroke="none" 
	d="
M147.137558,534.266357 
	C147.368454,534.172241 147.556198,534.347595 147.853989,534.685669 
	C147.688217,534.729187 147.398346,534.625000 147.137558,534.266357 
z"/>
<path fill="#3DC9B0" opacity="1.000000" stroke="none" 
	d="
M528.137573,534.266357 
	C528.369629,534.170959 528.557922,534.346008 528.854980,534.685120 
	C528.688477,534.729187 528.398499,534.625061 528.137573,534.266357 
z"/>
<path fill="#000000" opacity="1.000000" stroke="none" 
	d="
M230.801422,428.714539 
	C222.171448,436.998230 213.675003,444.907776 205.485748,453.123566 
	C202.792603,455.825470 200.472473,455.166504 198.089737,453.482635 
	C195.552658,451.689636 193.537659,449.098541 190.895752,447.526306 
	C186.160583,444.708374 187.768692,442.615662 190.788025,439.614563 
	C218.180634,412.387360 245.438202,385.024353 272.788910,357.754883 
	C276.462189,354.092499 280.309540,350.574646 284.349701,347.330292 
	C285.425934,346.465973 288.223969,346.090607 289.016602,346.816803 
	C292.328979,349.851654 295.526825,353.146118 298.107544,356.809753 
	C301.125702,361.094391 297.122101,363.541931 294.631836,366.060028 
	C285.525116,375.268585 276.329254,384.389160 267.148529,393.524353 
	C255.716919,404.899261 244.272141,416.261047 232.805740,427.600830 
	C232.367508,428.034210 231.644730,428.179901 230.801422,428.714539 
z"/>
<path fill="#000000" opacity="1.000000" stroke="none" 
	d="
M209.114792,360.042175 
	C212.360031,357.462372 215.082489,357.648895 217.720261,361.141998 
	C220.618271,364.979767 223.878311,368.544159 226.622833,372.730896 
	C222.034683,377.419739 217.847504,381.650146 213.562683,385.779205 
	C208.583038,390.577789 203.403870,395.173798 198.518799,400.064941 
	C192.520248,406.070953 186.802063,412.357849 180.765686,418.323975 
	C180.107422,418.974609 177.615829,418.867920 176.882721,418.165161 
	C172.479614,413.944366 168.341995,409.446594 164.115448,405.041595 
	C164.459686,405.018860 164.723862,404.861633 165.283295,404.203186 
	C166.810654,402.238403 167.962723,400.640289 169.114777,399.042175 
	C169.567627,398.713104 170.020462,398.384033 171.069214,397.918396 
	C172.815002,396.201904 173.964905,394.622040 175.114792,393.042175 
	C175.567642,392.713135 176.020477,392.384064 177.069214,391.918396 
	C178.815002,390.201904 179.964890,388.622040 181.114777,387.042175 
	C181.458801,387.019379 181.722946,386.862274 182.321884,386.288116 
	C183.862625,384.684265 184.988708,383.363220 186.114807,382.042175 
	C186.692581,381.577087 187.270355,381.112000 188.292358,380.326111 
	C189.862640,378.684265 190.988724,377.363220 192.114807,376.042175 
	C196.669235,371.935730 201.223663,367.829285 206.257156,363.364014 
	C207.529068,362.017517 208.321930,361.029846 209.114792,360.042175 
z"/>
<path fill="#3DC9B0" opacity="1.000000" stroke="none" 
	d="
M163.774689,405.118591 
	C168.341995,409.446594 172.479614,413.944366 176.882721,418.165161 
	C177.615829,418.867920 180.107422,418.974609 180.765686,418.323975 
	C186.802063,412.357849 192.520248,406.070953 198.518799,400.064941 
	C203.403870,395.173798 208.583038,390.577789 213.562683,385.779205 
	C217.847504,381.650146 222.034683,377.419739 226.574966,373.096130 
	C226.745071,374.286102 227.118454,376.123962 226.385025,376.862213 
	C219.928925,383.360474 213.194748,389.581604 206.703659,396.046204 
	C200.097855,402.624969 193.698105,409.410187 187.157516,416.055145 
	C184.854050,418.395325 182.584290,420.835632 179.963882,422.777924 
	C177.382919,424.690948 174.684570,424.199280 172.356812,421.797241 
	C169.008911,418.342468 165.561874,414.983826 162.158707,411.582611 
	C159.392258,408.817719 159.781769,406.680237 163.774689,405.118591 
z"/>
<path fill="#3DC9B0" opacity="1.000000" stroke="none" 
	d="
M168.767975,399.121735 
	C167.962723,400.640289 166.810654,402.238403 165.350876,403.975098 
	C166.169174,402.476196 167.295181,400.838745 168.767975,399.121735 
z"/>
<path fill="#3DC9B0" opacity="1.000000" stroke="none" 
	d="
M174.776123,393.117584 
	C173.964905,394.622040 172.815002,396.201904 171.332275,397.807556 
	C172.145432,396.286560 173.291428,394.739777 174.776123,393.117584 
z"/>
<path fill="#3DC9B0" opacity="1.000000" stroke="none" 
	d="
M180.776123,387.117584 
	C179.964890,388.622040 178.815002,390.201904 177.332275,391.807556 
	C178.145432,390.286560 179.291443,388.739777 180.776123,387.117584 
z"/>
<path fill="#3DC9B0" opacity="1.000000" stroke="none" 
	d="
M185.777222,382.117004 
	C184.988708,383.363220 183.862625,384.684265 182.389343,386.060059 
	C183.174652,384.807159 184.307159,383.499512 185.777222,382.117004 
z"/>
<path fill="#3DC9B0" opacity="1.000000" stroke="none" 
	d="
M191.777222,376.117004 
	C190.988724,377.363220 189.862640,378.684265 188.389343,380.060059 
	C189.174652,378.807159 190.307159,377.499512 191.777222,376.117004 
z"/>
<path fill="#3DC9B0" opacity="1.000000" stroke="none" 
	d="
M208.786102,360.120422 
	C208.321930,361.029846 207.529068,362.017517 206.389175,363.059998 
	C206.847229,362.142761 207.652328,361.170685 208.786102,360.120422 
z"/>
</svg>