<svg xmlns:xlink="http://www.w3.org/1999/xlink" xmlns="http://www.w3.org/2000/svg" xml:space="preserve" xmlns:vectornator="http://vectornator.io" viewBox="0 0 144 56" clip-rule="evenodd" stroke-linecap="round" stroke-linejoin="round">
  <g fill-rule="evenodd" fill="#00205b" vectornator:layerName="g16">
    <path d="M49.412 24.856c0-3.623-2.376-6.376-7.274-6.376h-9.854v19.04h4.638V22.595h5.245c1.942 0 2.637 1.102 2.637 2.376 0 1.305-.725 2.377-2.666 2.377h-4.492L44.02 37.52h5.275s-4.347-6.84-4.318-6.84c2.695-.637 4.434-2.52 4.434-5.824M24.518 18.48h4.637v19.04h-4.637V18.48ZM12.665 30.333H8.761l2.888-5.854h.058L18.2 37.52h5.332l-9.708-19.04H9.709L0 37.52h5.216l1.573-3.188h7.817l-1.941-4ZM66.338 27.638c1.478-.812 2.26-2.116 2.26-4.029 0-3.072-2.289-5.13-6.143-5.13h-10.84V37.52H62.89c3.942 0 6.521-2.116 6.521-5.332 0-2.232-1.246-3.913-3.072-4.55m-10.085-5.13h6.202c.927 0 1.652.725 1.652 1.681 0 .956-.725 1.68-1.682 1.68h-6.172v-3.36Zm6.317 11.013h-6.318v-3.884h6.318c1.13 0 2 .812 2 1.913 0 1.13-.87 1.97-2 1.97M84.045 29.116c0 2.89-1.333 4.492-3.97 4.492-2.608 0-3.942-1.602-3.942-4.492V18.48h-4.752v10.288c0 5.883 3.1 9.158 8.694 9.158 5.593 0 8.723-3.275 8.723-9.158V18.48h-4.753v10.636ZM101.173 26.044c-4.402-1.072-5.362-1.174-5.362-2.435 0-.975 1.102-1.449 2.956-1.449 2.464 0 5.087.618 6.579 1.536l1.478-3.883c-1.912-1.014-4.724-1.74-7.999-1.74-4.898 0-7.65 2.436-7.65 5.71 0 3.524 2.056 4.955 6.78 5.97 3.679.811 4.463 1.317 4.463 2.347 0 1.12-1.014 1.623-3.013 1.623-2.898 0-5.521-.703-7.622-1.854l-1.42 4.057c2.29 1.217 5.709 2 9.157 2 4.811 0 7.68-2.232 7.68-5.97.001-3-1.94-4.927-6.027-5.912"/>
  </g>
</svg>
