<svg width="102" height="20" viewBox="0 0 102 20" fill="none" xmlns="http://www.w3.org/2000/svg">
<g clip-path="url(#clip0_103_2)">
<path fill-rule="evenodd" clip-rule="evenodd" d="M0 0.428009V2.49401H101.013V0.428009H0ZM74.442 3.94701C72.034 3.94001 69.968 3.94701 69.847 3.96101C68.216 4.18101 67.097 4.80801 66.613 5.78401C66.185 6.63101 66.143 7.01701 66.143 9.93801C66.143 12.26 66.157 12.638 66.279 13.143C66.542 14.283 67.004 14.903 67.966 15.381C69.042 15.922 69.042 15.921 74.264 15.921C78.83 15.921 78.9 15.915 79.448 15.766C81.016 15.316 81.736 14.639 82.113 13.25C82.227 12.844 82.243 12.445 82.243 9.93801C82.243 6.81801 82.227 6.66201 81.799 5.79301C81.4 4.98801 80.617 4.43901 79.406 4.11901C78.844 3.96901 78.688 3.96101 74.442 3.94701ZM74.442 6.93901C76.935 6.95301 77.056 6.96101 77.44 7.11001C77.91 7.29601 78.153 7.53001 78.373 8.01401C78.516 8.33401 78.536 8.51201 78.558 9.65901C78.593 11.091 78.516 11.776 78.267 12.211C77.861 12.931 77.568 12.979 73.992 12.943C70.844 12.914 70.75 12.909 70.33 12.489C69.938 12.089 69.847 11.647 69.847 10.044C69.847 8.49201 69.91 8.07901 70.252 7.61601C70.487 7.28801 70.872 7.08801 71.456 6.98801C71.67 6.95201 73.01 6.92501 74.442 6.93901V6.93901ZM0 4.05401V15.815H5.755C9.167 15.815 11.768 15.786 12.145 15.743C13.891 15.543 14.882 14.995 15.38 13.94C15.75 13.15 15.779 12.887 15.779 9.90201C15.779 7.49401 15.764 7.10201 15.649 6.69601C15.272 5.31401 14.489 4.60101 12.936 4.25201C12.316 4.11701 12.023 4.10401 6.146 4.08301L0 4.05401ZM3.633 7.04601L7.322 7.06601L11.012 7.08801L11.362 7.26601C11.662 7.41601 11.754 7.51601 11.932 7.87201L12.146 8.29901V9.90201C12.146 11.384 12.132 11.526 11.996 11.832C11.9044 12.0227 11.7844 12.1984 11.64 12.353C11.227 12.738 11.047 12.751 7.18 12.751H3.632V7.04601H3.633ZM49.01 4.05401V15.815H52.644V12.745L55.798 12.765C58.811 12.786 58.962 12.795 59.198 12.93C59.632 13.186 59.73 13.484 59.752 14.724L59.781 15.814H63.414L63.384 14.332C63.349 12.751 63.294 12.468 62.931 11.99C62.717 11.705 62.231 11.412 61.775 11.291L61.441 11.207L61.726 11.127C61.883 11.084 62.189 10.943 62.403 10.815C62.873 10.53 63.194 10.038 63.323 9.43201C63.415 8.94101 63.428 6.99601 63.336 6.51201C63.094 5.25101 62.494 4.58201 61.283 4.22501C60.913 4.11901 60.25 4.10201 54.943 4.07501L49.011 4.05401H49.01ZM55.513 7.03901C58.626 7.01801 59.111 7.03901 59.467 7.22401C59.823 7.40901 59.923 7.72201 59.894 8.55501C59.873 9.21101 59.859 9.26901 59.674 9.46101C59.5287 9.59733 59.3533 9.69738 59.162 9.75301C58.955 9.80301 57.758 9.83101 55.749 9.83101H52.644V7.05301L55.514 7.03901H55.513ZM23.314 4.06001L20.154 9.87301C19.0876 11.8296 18.0256 13.7886 16.968 15.75C16.953 15.786 17.822 15.815 18.962 15.815H20.979L21.498 14.782L22.012 13.749L25.687 13.762L29.369 13.784L29.913 14.795L30.453 15.815H34.485L34.265 15.401C34.144 15.18 32.689 12.545 31.037 9.54601L28.025 4.09601L25.674 4.07401L23.314 4.06101V4.06001ZM25.645 6.83901C25.666 6.83901 26.185 7.79401 26.805 8.96901C27.418 10.138 27.925 11.114 27.925 11.142C27.925 11.163 26.913 11.184 25.674 11.184C24.221 11.184 23.436 11.156 23.45 11.114C23.507 10.935 25.617 6.83901 25.645 6.83901ZM32.84 4.06001V6.91001H37.898V15.815H41.602L41.615 11.375L41.638 6.94501L44.151 6.92401L46.66 6.91001V4.06001H32.84V4.06001ZM85.056 4.11401L85.07 9.96901L85.092 15.833L86.892 15.855L88.689 15.868V11.616C88.689 7.63401 88.696 7.36901 88.809 7.47601C88.874 7.54601 90.392 9.44901 92.179 11.714L95.427 15.833L98.219 15.855L101.013 15.868V4.11401H97.451V8.35901C97.451 10.796 97.422 12.592 97.386 12.578C97.351 12.564 95.827 10.653 93.996 8.33001L90.662 4.11401H85.056V4.11401ZM0 17.507V19.572H101.013V17.506H0V17.507Z" fill="white"/>
</g>
<defs>
<clipPath id="clip0_103_2">
<rect width="102" height="20" fill="white"/>
</clipPath>
</defs>
</svg>
