<svg id="svg" version="1.1" xmlns="http://www.w3.org/2000/svg" xmlns:xlink="http://www.w3.org/1999/xlink" width="400" height="400" viewBox="0, 0, 400,400"><g id="svgg"><path id="path0" d="M171.200 97.078 C 166.515 97.236,155.575 98.358,154.600 98.780 C 153.836 99.111,149.127 99.695,142.900 100.231 C 141.305 100.369,140.000 100.663,140.000 100.884 C 140.000 101.110,139.382 101.215,138.600 101.124 C 137.830 101.034,137.200 101.076,137.200 101.217 C 137.200 101.358,134.995 101.779,132.300 102.152 C 125.608 103.078,122.674 103.615,122.200 104.000 C 121.980 104.179,120.630 104.529,119.200 104.778 C 114.069 105.672,112.181 106.089,111.000 106.590 C 109.399 107.270,106.687 107.999,105.754 108.002 C 105.339 108.004,104.486 108.273,103.858 108.600 C 103.230 108.928,102.571 109.106,102.393 108.995 C 102.214 108.885,102.008 108.972,101.934 109.187 C 101.860 109.403,100.270 109.957,98.400 110.418 C 96.530 110.879,94.628 111.497,94.173 111.790 C 93.718 112.083,92.008 112.718,90.373 113.201 C 88.738 113.684,87.130 114.309,86.800 114.589 C 86.470 114.868,85.210 115.417,84.000 115.808 C 82.790 116.198,81.668 116.716,81.506 116.959 C 81.336 117.215,81.207 117.232,81.200 117.000 C 81.193 116.780,81.044 116.827,80.868 117.104 C 80.692 117.381,79.594 117.943,78.428 118.354 C 77.263 118.765,76.012 119.348,75.649 119.650 C 74.762 120.389,72.115 121.600,71.386 121.600 C 71.064 121.600,70.800 121.780,70.800 122.000 C 70.800 122.220,70.530 122.400,70.200 122.400 C 69.870 122.400,69.600 122.572,69.600 122.781 C 69.600 123.155,66.196 124.841,65.764 124.681 C 65.643 124.637,65.366 124.917,65.150 125.304 C 64.933 125.691,64.120 126.273,63.343 126.598 C 62.565 126.923,61.270 127.707,60.465 128.341 C 59.659 128.975,58.595 129.619,58.100 129.774 C 57.605 129.928,57.200 130.316,57.200 130.637 C 57.200 130.957,56.787 131.377,56.281 131.569 C 55.376 131.913,54.334 132.766,50.266 136.492 C 49.130 137.533,47.975 138.388,47.700 138.392 C 47.425 138.396,47.200 138.557,47.200 138.750 C 47.200 139.085,46.435 139.940,41.208 145.449 C 39.931 146.796,38.552 148.416,38.144 149.049 C 37.737 149.682,36.998 150.528,36.502 150.929 C 36.006 151.330,35.600 151.913,35.600 152.226 C 35.600 152.538,35.233 153.020,34.785 153.297 C 34.337 153.573,33.540 154.705,33.016 155.810 C 32.491 156.916,31.688 158.159,31.231 158.572 C 30.774 158.986,30.400 159.656,30.400 160.062 C 30.400 160.468,30.055 161.145,29.633 161.567 C 29.212 161.988,28.963 162.430,29.081 162.548 C 29.199 162.665,29.009 163.049,28.658 163.399 C 28.308 163.749,27.829 164.748,27.595 165.618 C 27.361 166.488,26.996 167.200,26.785 167.200 C 26.573 167.200,26.399 167.425,26.398 167.700 C 26.396 167.975,26.124 168.719,25.794 169.353 C 25.463 169.987,25.083 171.247,24.949 172.153 C 24.815 173.059,24.469 174.180,24.180 174.644 C 21.953 178.222,21.493 185.800,21.693 215.600 C 21.855 239.590,22.075 244.000,23.220 246.095 C 23.429 246.477,23.600 247.152,23.600 247.595 C 23.600 248.038,23.772 248.400,23.982 248.400 C 24.192 248.400,24.487 249.055,24.637 249.856 C 24.993 251.753,26.286 255.278,26.733 255.571 C 26.925 255.697,27.393 256.744,27.772 257.898 C 28.152 259.051,28.676 260.131,28.936 260.298 C 29.196 260.464,29.848 261.590,30.385 262.800 C 30.922 264.010,31.650 265.270,32.004 265.600 C 32.357 265.930,32.857 266.695,33.114 267.300 C 33.372 267.905,33.767 268.400,33.991 268.400 C 34.216 268.400,34.400 268.670,34.400 269.000 C 34.400 269.330,34.715 269.932,35.100 270.337 C 36.521 271.834,38.608 274.550,38.887 275.264 C 39.045 275.669,39.444 276.000,39.773 276.000 C 40.102 276.000,40.583 276.405,40.840 276.900 C 41.249 277.686,41.841 278.355,44.343 280.857 C 44.642 281.156,45.464 281.985,46.171 282.700 C 46.878 283.415,47.624 284.000,47.828 284.000 C 48.032 284.000,48.740 284.549,49.400 285.219 C 51.222 287.070,54.026 289.140,55.700 289.868 C 56.525 290.228,57.200 290.746,57.200 291.021 C 57.200 291.295,58.096 291.842,59.191 292.236 C 60.286 292.629,61.097 293.036,60.993 293.140 C 60.805 293.328,62.065 294.162,63.200 294.600 C 63.530 294.728,64.845 295.377,66.121 296.043 C 67.398 296.710,69.462 297.520,70.708 297.845 C 71.955 298.170,73.090 298.623,73.232 298.852 C 73.374 299.081,73.605 299.251,73.747 299.230 C 73.888 299.208,74.594 299.437,75.314 299.738 C 76.035 300.040,77.699 300.420,79.012 300.584 C 80.326 300.747,81.490 301.026,81.601 301.204 C 82.810 303.146,142.779 303.173,143.981 301.231 C 144.101 301.037,145.265 300.680,146.567 300.440 C 147.869 300.199,149.253 299.714,149.642 299.362 C 150.031 299.010,150.541 298.840,150.775 298.984 C 151.009 299.129,151.200 299.074,151.200 298.863 C 151.200 298.651,151.780 298.276,152.488 298.029 C 154.707 297.256,156.800 296.257,156.800 295.972 C 156.800 295.822,157.700 295.311,158.800 294.838 C 159.900 294.365,160.800 293.794,160.800 293.568 C 160.800 293.343,161.420 292.900,162.178 292.583 C 162.936 292.267,163.701 291.779,163.878 291.500 C 164.055 291.221,164.942 290.512,165.849 289.924 C 166.756 289.336,167.957 288.438,168.516 287.928 C 169.076 287.418,170.463 286.190,171.599 285.200 C 173.742 283.332,178.460 278.576,180.674 276.052 C 181.375 275.253,182.477 274.024,183.124 273.320 C 183.770 272.615,184.419 271.805,184.565 271.520 C 185.290 270.104,185.954 269.243,187.664 267.500 C 188.690 266.455,189.622 265.600,189.736 265.600 C 189.850 265.600,191.012 264.963,192.319 264.184 C 199.753 259.756,208.809 262.803,215.600 272.017 C 216.590 273.360,217.985 275.015,218.700 275.694 C 219.415 276.373,220.000 277.096,220.000 277.300 C 220.000 277.805,226.699 284.400,227.212 284.400 C 227.436 284.400,227.791 284.850,228.000 285.400 C 228.209 285.950,228.610 286.400,228.890 286.401 C 229.171 286.401,230.210 287.122,231.200 288.003 C 232.190 288.884,233.315 289.706,233.700 289.829 C 234.085 289.953,234.400 290.306,234.400 290.614 C 234.400 290.925,234.645 291.081,234.948 290.964 C 235.250 290.849,235.602 291.029,235.731 291.364 C 235.860 291.700,236.603 292.241,237.383 292.567 C 238.162 292.893,238.800 293.318,238.800 293.511 C 238.800 293.705,239.737 294.299,240.882 294.832 C 242.027 295.364,243.355 296.160,243.833 296.600 C 244.312 297.040,245.535 297.645,246.551 297.944 C 247.568 298.243,248.400 298.659,248.400 298.868 C 248.400 299.076,248.592 299.129,248.827 298.984 C 249.061 298.839,249.466 298.996,249.727 299.333 C 249.987 299.671,251.270 300.139,252.577 300.374 C 253.884 300.609,255.057 300.969,255.183 301.173 C 255.310 301.378,257.030 301.782,259.007 302.071 C 265.630 303.040,315.658 302.665,315.032 301.652 C 314.941 301.505,315.572 301.452,316.434 301.535 C 317.317 301.619,318.000 301.508,318.000 301.281 C 318.000 301.060,319.064 300.755,320.365 300.604 C 323.224 300.272,325.720 299.465,325.304 299.007 C 325.137 298.823,325.315 298.786,325.700 298.924 C 326.085 299.062,326.400 299.022,326.400 298.835 C 326.400 298.648,327.255 298.280,328.300 298.018 C 330.615 297.436,338.400 293.707,338.400 293.180 C 338.400 292.971,338.590 292.800,338.822 292.800 C 339.596 292.800,342.800 291.186,342.800 290.795 C 342.800 290.584,343.433 290.146,344.206 289.823 C 344.979 289.500,345.714 288.968,345.840 288.641 C 345.965 288.313,346.732 287.699,347.543 287.277 C 348.354 286.854,350.274 285.315,351.809 283.857 C 353.344 282.399,354.825 281.205,355.100 281.203 C 355.375 281.202,355.600 280.960,355.600 280.666 C 355.600 280.372,356.275 279.471,357.100 278.665 C 360.497 275.343,363.537 271.688,364.555 269.700 C 364.921 268.985,365.405 268.400,365.631 268.400 C 365.856 268.400,366.285 267.815,366.584 267.100 C 366.883 266.385,367.502 265.324,367.960 264.741 C 368.418 264.159,369.148 262.854,369.582 261.841 C 370.016 260.829,370.569 260.000,370.809 260.000 C 371.050 260.000,371.136 259.820,371.000 259.600 C 370.864 259.380,370.924 259.200,371.133 259.200 C 371.342 259.200,371.635 258.705,371.784 258.100 C 371.932 257.495,372.644 255.740,373.364 254.200 C 374.085 252.660,374.912 250.365,375.201 249.100 C 375.491 247.835,375.872 246.800,376.048 246.800 C 377.862 246.800,378.923 188.499,377.253 180.600 C 377.021 179.500,376.707 177.976,376.557 177.213 C 376.407 176.451,376.053 175.596,375.770 175.313 C 375.488 175.031,375.044 173.775,374.784 172.524 C 374.363 170.493,373.782 168.982,373.200 168.400 C 372.657 167.857,372.000 166.321,372.000 165.593 C 372.000 165.143,371.731 164.672,371.402 164.546 C 371.074 164.419,370.904 164.155,371.026 163.958 C 371.148 163.761,371.095 163.600,370.908 163.600 C 370.721 163.600,370.133 162.610,369.600 161.400 C 369.067 160.190,368.489 159.200,368.315 159.200 C 368.141 159.200,367.466 158.075,366.815 156.700 C 366.163 155.325,365.264 153.973,364.815 153.697 C 364.367 153.420,364.000 152.958,364.000 152.671 C 364.000 152.384,363.460 151.632,362.800 151.000 C 362.140 150.368,361.600 149.627,361.600 149.354 C 361.600 149.081,361.150 148.504,360.600 148.071 C 360.050 147.639,359.600 147.151,359.600 146.988 C 359.600 146.825,359.150 146.275,358.600 145.765 C 358.050 145.255,357.600 144.723,357.600 144.581 C 357.600 144.277,348.739 135.475,346.883 133.936 C 346.177 133.351,345.600 132.986,345.600 133.125 C 345.600 133.264,345.320 132.978,344.977 132.489 C 344.635 132.000,344.099 131.600,343.787 131.600 C 343.474 131.600,342.924 131.150,342.563 130.600 C 342.203 130.050,341.676 129.600,341.392 129.600 C 341.108 129.600,340.136 128.982,339.231 128.226 C 338.326 127.470,336.869 126.536,335.993 126.149 C 335.117 125.762,334.400 125.323,334.400 125.172 C 334.400 125.022,333.500 124.511,332.400 124.038 C 331.300 123.565,330.400 123.003,330.400 122.789 C 330.400 122.575,330.225 122.400,330.011 122.400 C 329.466 122.400,325.093 120.319,324.566 119.809 C 324.327 119.578,322.842 118.966,321.266 118.450 C 319.690 117.933,318.400 117.367,318.400 117.192 C 318.400 117.018,318.022 116.974,317.559 117.095 C 317.097 117.216,316.602 117.151,316.459 116.951 C 316.317 116.751,314.941 116.260,313.402 115.859 C 311.863 115.457,310.488 114.942,310.346 114.713 C 310.205 114.485,309.862 114.438,309.583 114.611 C 309.253 114.814,309.176 114.762,309.362 114.462 C 309.528 114.192,309.401 114.000,309.057 114.000 C 308.324 114.000,304.692 112.464,304.408 112.034 C 304.294 111.861,302.456 111.141,300.325 110.435 C 298.194 109.729,296.394 109.015,296.325 108.850 C 296.256 108.684,294.584 108.235,292.609 107.851 C 290.634 107.467,288.924 107.019,288.809 106.855 C 288.435 106.320,282.949 105.201,278.524 104.756 C 276.146 104.517,274.110 104.204,274.000 104.061 C 273.766 103.755,267.365 102.136,264.900 101.758 C 263.965 101.615,263.200 101.372,263.200 101.218 C 263.200 101.064,262.660 101.018,262.000 101.115 C 261.327 101.213,260.800 101.109,260.800 100.877 C 260.800 100.650,259.585 100.354,258.100 100.219 C 251.120 99.588,247.333 99.119,246.600 98.794 C 243.798 97.551,192.051 96.374,171.200 97.078 M220.100 114.022 C 224.555 114.254,228.470 114.546,228.800 114.670 C 229.130 114.795,230.345 114.862,231.500 114.819 C 232.655 114.777,233.600 114.910,233.600 115.115 C 233.600 115.320,235.085 115.598,236.900 115.732 C 238.715 115.867,242.673 116.160,245.695 116.382 C 248.718 116.605,251.508 116.957,251.895 117.165 C 252.580 117.532,257.137 118.270,264.700 119.239 C 266.735 119.500,268.400 119.835,268.400 119.983 C 268.400 120.132,270.155 120.564,272.300 120.944 C 278.890 122.110,280.800 122.551,280.800 122.906 C 280.800 123.094,280.988 123.131,281.218 122.989 C 281.447 122.847,281.852 122.894,282.118 123.094 C 282.716 123.543,285.274 124.281,287.400 124.618 C 288.280 124.757,289.217 125.051,289.482 125.270 C 289.748 125.489,290.181 125.536,290.444 125.373 C 290.715 125.205,290.819 125.245,290.684 125.464 C 290.549 125.683,292.027 126.245,294.080 126.755 C 296.080 127.251,298.095 127.901,298.558 128.198 C 299.021 128.496,300.795 129.140,302.500 129.631 C 304.205 130.122,305.600 130.670,305.600 130.849 C 305.600 131.028,305.900 131.060,306.266 130.919 C 306.675 130.762,306.832 130.824,306.674 131.080 C 306.522 131.326,307.354 131.791,308.705 132.215 C 309.963 132.611,311.224 133.167,311.507 133.450 C 311.790 133.733,313.094 134.356,314.405 134.834 C 315.715 135.312,316.977 135.931,317.209 136.211 C 317.441 136.491,318.614 137.119,319.816 137.606 C 321.017 138.094,322.000 138.646,322.000 138.834 C 322.000 139.021,322.270 139.071,322.600 138.945 C 322.930 138.818,323.200 138.923,323.200 139.178 C 323.200 139.432,323.818 139.899,324.573 140.214 C 325.328 140.530,326.051 140.960,326.181 141.169 C 326.311 141.379,327.416 142.123,328.637 142.821 C 329.859 143.520,331.321 144.521,331.887 145.046 C 332.454 145.571,333.043 146.000,333.197 146.000 C 333.351 146.000,334.118 146.585,334.900 147.300 C 335.683 148.015,337.089 149.230,338.026 150.000 C 339.584 151.280,343.532 155.151,346.433 158.243 C 347.075 158.927,347.600 159.682,347.600 159.920 C 347.600 160.159,348.000 160.635,348.489 160.977 C 348.978 161.320,349.203 161.605,348.989 161.612 C 348.775 161.619,348.915 161.808,349.300 162.032 C 349.685 162.256,350.000 162.701,350.000 163.020 C 350.000 163.339,350.180 163.600,350.400 163.600 C 350.620 163.600,350.800 163.863,350.800 164.184 C 350.800 164.506,351.178 165.121,351.639 165.551 C 352.101 165.981,352.903 167.248,353.421 168.366 C 353.939 169.485,354.530 170.400,354.734 170.400 C 354.938 170.400,355.306 171.196,355.551 172.170 C 355.796 173.143,356.258 174.201,356.579 174.522 C 356.900 174.842,357.050 175.216,356.914 175.352 C 356.778 175.489,356.837 175.600,357.046 175.600 C 357.255 175.600,357.652 176.455,357.929 177.500 C 358.205 178.545,358.605 179.953,358.816 180.628 C 359.027 181.304,359.201 182.114,359.202 182.428 C 359.204 182.743,359.483 183.533,359.822 184.184 C 362.242 188.823,362.409 236.498,360.016 239.381 C 359.810 239.629,359.452 240.589,359.221 241.516 C 358.989 242.442,358.614 243.943,358.386 244.852 C 358.159 245.760,357.761 246.885,357.501 247.352 C 357.242 247.818,357.068 248.335,357.115 248.500 C 357.162 248.665,357.029 248.800,356.820 248.800 C 356.612 248.800,356.129 249.788,355.749 250.995 C 355.368 252.202,354.969 253.102,354.861 252.994 C 354.753 252.886,354.175 253.810,353.577 255.048 C 352.979 256.285,352.334 257.410,352.144 257.549 C 351.649 257.908,349.600 260.981,349.600 261.364 C 349.600 261.540,349.150 262.039,348.600 262.471 C 348.050 262.904,347.600 263.433,347.600 263.648 C 347.600 264.134,341.342 270.400,340.857 270.400 C 340.661 270.400,339.984 270.998,339.351 271.728 C 338.718 272.459,337.930 273.177,337.600 273.326 C 336.705 273.728,335.610 274.492,334.486 275.500 C 333.935 275.995,333.239 276.400,332.942 276.400 C 332.644 276.400,332.400 276.610,332.400 276.867 C 332.400 277.123,332.283 277.216,332.140 277.073 C 331.996 276.930,331.681 277.051,331.440 277.343 C 331.198 277.635,330.024 278.281,328.830 278.778 C 327.637 279.275,326.436 279.907,326.162 280.181 C 325.888 280.455,324.389 281.089,322.832 281.590 C 321.274 282.091,320.000 282.629,320.000 282.787 C 320.000 283.100,316.944 283.813,313.800 284.234 C 312.700 284.381,311.619 284.644,311.397 284.819 C 309.986 285.932,266.482 286.445,266.117 285.352 C 266.052 285.155,265.189 285.059,264.199 285.137 C 263.168 285.219,262.400 285.109,262.400 284.880 C 262.400 284.659,261.292 284.350,259.937 284.193 C 257.711 283.934,256.097 283.424,254.400 282.440 C 253.637 281.998,252.110 281.329,250.700 280.818 C 250.095 280.599,249.600 280.266,249.600 280.078 C 249.600 279.890,248.700 279.315,247.600 278.800 C 246.500 278.285,245.600 277.630,245.600 277.344 C 245.600 277.047,245.343 276.924,245.000 277.055 C 244.627 277.199,244.400 277.053,244.400 276.670 C 244.400 276.331,243.995 275.934,243.500 275.787 C 242.490 275.487,242.109 275.151,236.869 269.922 C 231.197 264.264,230.799 263.834,230.800 263.360 C 230.800 263.118,230.260 262.506,229.600 262.000 C 228.940 261.494,228.400 260.847,228.400 260.563 C 228.400 260.278,228.041 259.794,227.603 259.487 C 227.164 259.180,226.924 258.809,227.069 258.664 C 227.214 258.519,227.033 258.400,226.667 258.400 C 226.300 258.400,226.000 258.240,226.000 258.045 C 226.000 257.563,222.460 254.000,221.981 254.000 C 221.772 254.000,221.600 253.700,221.600 253.333 C 221.600 252.967,221.481 252.786,221.336 252.931 C 221.191 253.076,220.820 252.836,220.513 252.397 C 220.206 251.959,219.716 251.600,219.423 251.600 C 219.131 251.600,218.597 251.150,218.237 250.600 C 217.876 250.050,217.374 249.600,217.121 249.600 C 216.867 249.600,215.386 248.983,213.830 248.228 C 211.025 246.868,205.971 245.600,203.357 245.600 C 202.611 245.600,202.000 245.465,202.001 245.300 C 202.002 244.960,196.708 244.882,196.400 245.218 C 196.290 245.338,194.654 245.654,192.765 245.920 C 189.073 246.440,185.600 247.459,185.600 248.022 C 185.600 248.213,184.871 248.566,183.979 248.806 C 183.088 249.046,182.259 249.502,182.137 249.821 C 182.014 250.139,181.682 250.400,181.398 250.400 C 180.759 250.400,179.004 251.892,176.060 254.939 C 174.817 256.226,173.035 258.072,172.100 259.042 C 171.165 260.011,170.400 261.003,170.400 261.245 C 170.400 261.487,169.950 262.039,169.400 262.471 C 168.850 262.904,168.400 263.437,168.400 263.655 C 168.400 263.873,167.860 264.506,167.200 265.061 C 166.540 265.617,166.000 266.225,166.000 266.413 C 166.000 266.955,159.839 273.200,159.305 273.200 C 159.040 273.200,158.435 273.726,157.959 274.370 C 157.483 275.013,156.668 275.647,156.147 275.778 C 155.626 275.908,155.200 276.301,155.200 276.650 C 155.200 277.034,154.976 277.199,154.633 277.068 C 154.321 276.948,153.964 277.117,153.839 277.443 C 153.714 277.769,152.934 278.313,152.106 278.652 C 151.278 278.990,150.330 279.591,150.000 279.986 C 149.670 280.382,148.453 281.012,147.295 281.387 C 146.137 281.761,144.967 282.285,144.695 282.551 C 143.907 283.320,141.982 283.941,139.500 284.227 C 138.235 284.373,137.200 284.670,137.200 284.886 C 137.200 285.108,136.413 285.218,135.401 285.137 C 134.411 285.059,133.541 285.176,133.468 285.397 C 133.283 285.950,92.718 285.953,92.534 285.400 C 92.460 285.179,91.507 285.062,90.400 285.139 C 89.295 285.215,88.400 285.106,88.400 284.894 C 88.400 284.683,87.204 284.388,85.742 284.238 C 82.686 283.925,79.600 283.171,79.600 282.737 C 79.600 282.574,78.565 282.142,77.300 281.777 C 76.035 281.411,74.550 280.851,74.000 280.531 C 73.450 280.211,71.875 279.418,70.500 278.770 C 69.125 278.122,68.000 277.403,68.000 277.172 C 68.000 276.942,67.820 276.864,67.600 277.000 C 67.380 277.136,67.198 277.102,67.195 276.924 C 67.193 276.746,66.473 276.256,65.595 275.836 C 64.718 275.415,64.000 274.920,64.000 274.736 C 64.000 274.551,63.749 274.400,63.443 274.400 C 63.136 274.400,62.782 274.130,62.655 273.800 C 62.529 273.470,62.171 273.200,61.860 273.200 C 61.549 273.200,60.814 272.570,60.227 271.800 C 59.640 271.030,58.939 270.400,58.669 270.400 C 58.082 270.400,52.000 264.261,52.000 263.668 C 52.000 263.441,51.460 262.870,50.800 262.400 C 50.140 261.930,49.600 261.288,49.600 260.973 C 49.600 260.658,49.285 260.082,48.900 259.693 C 47.954 258.739,46.800 256.927,46.800 256.397 C 46.800 256.159,46.346 255.478,45.792 254.883 C 45.237 254.287,44.484 252.855,44.119 251.700 C 43.753 250.545,43.296 249.600,43.103 249.600 C 42.911 249.600,42.864 249.420,43.000 249.200 C 43.136 248.980,43.071 248.800,42.856 248.800 C 42.481 248.800,41.566 246.331,41.005 243.800 C 40.858 243.140,40.493 242.060,40.193 241.400 C 37.173 234.759,37.040 186.865,40.031 182.991 C 40.205 182.766,40.740 181.146,41.220 179.391 C 41.700 177.636,42.183 175.885,42.293 175.500 C 42.403 175.115,42.663 174.800,42.870 174.800 C 43.078 174.800,43.149 174.640,43.028 174.445 C 42.907 174.250,43.058 173.884,43.363 173.631 C 43.667 173.378,44.030 172.566,44.169 171.826 C 44.308 171.086,44.716 170.237,45.076 169.940 C 45.436 169.643,46.054 168.680,46.451 167.800 C 46.847 166.920,47.718 165.570,48.385 164.800 C 49.052 164.030,49.599 163.199,49.599 162.952 C 49.601 162.184,52.811 158.378,57.231 153.904 C 59.565 151.542,61.368 149.488,61.238 149.340 C 61.107 149.193,61.203 149.188,61.451 149.329 C 61.699 149.471,62.596 148.932,63.444 148.132 C 64.292 147.332,65.844 146.150,66.893 145.505 C 67.942 144.859,68.800 144.179,68.800 143.993 C 68.800 143.806,69.185 143.532,69.655 143.383 C 70.125 143.234,71.277 142.525,72.216 141.809 C 73.154 141.092,74.384 140.390,74.949 140.248 C 75.515 140.107,76.165 139.639,76.395 139.209 C 76.625 138.779,77.576 138.224,78.507 137.977 C 79.438 137.729,80.740 137.121,81.400 136.625 C 82.060 136.129,83.567 135.404,84.748 135.013 C 85.930 134.623,87.209 133.991,87.590 133.610 C 87.972 133.228,88.805 132.794,89.442 132.644 C 91.334 132.200,92.800 131.530,92.800 131.109 C 92.800 130.892,93.070 130.818,93.400 130.945 C 93.730 131.071,94.000 131.042,94.000 130.879 C 94.000 130.717,95.342 130.167,96.981 129.658 C 98.621 129.149,100.639 128.388,101.466 127.966 C 102.293 127.545,103.379 127.200,103.880 127.200 C 104.381 127.200,105.738 126.840,106.896 126.400 C 108.053 125.960,109.315 125.600,109.700 125.600 C 110.085 125.600,110.400 125.428,110.400 125.218 C 110.400 125.008,111.075 124.725,111.900 124.589 C 115.743 123.957,117.555 123.451,117.324 123.076 C 117.172 122.831,117.412 122.762,117.937 122.900 C 118.412 123.024,118.800 122.995,118.800 122.836 C 118.800 122.677,120.015 122.321,121.500 122.045 C 128.676 120.710,130.631 120.293,131.000 120.017 C 131.417 119.704,134.007 119.276,142.400 118.132 C 145.150 117.757,147.497 117.309,147.616 117.137 C 147.735 116.964,150.165 116.639,153.016 116.413 C 162.243 115.682,164.000 115.489,164.000 115.204 C 164.000 115.051,167.465 114.711,171.700 114.450 C 175.935 114.188,180.120 113.921,181.000 113.855 C 185.301 113.532,212.965 113.650,220.100 114.022 M178.238 135.023 C 170.999 135.302,164.699 135.714,164.238 135.936 C 163.777 136.159,160.340 136.628,156.600 136.979 C 148.046 137.781,143.680 138.360,142.849 138.803 C 142.040 139.235,135.322 140.400,133.643 140.400 C 132.959 140.400,132.400 140.601,132.400 140.847 C 132.400 141.106,131.986 141.214,131.414 141.105 C 130.872 141.001,130.377 141.034,130.314 141.178 C 130.181 141.483,122.587 143.206,121.389 143.202 C 120.943 143.201,120.223 143.445,119.789 143.745 C 119.355 144.045,116.930 144.802,114.400 145.428 C 111.870 146.054,109.710 146.687,109.600 146.836 C 109.282 147.265,105.668 148.400,104.619 148.400 C 104.095 148.400,103.607 148.579,103.533 148.798 C 103.395 149.212,100.166 150.553,97.404 151.343 C 96.526 151.594,95.503 152.103,95.130 152.474 C 94.528 153.072,92.079 153.980,91.000 154.005 C 90.780 154.010,90.174 154.462,89.654 155.011 C 89.134 155.559,88.279 156.115,87.754 156.247 C 87.229 156.379,86.800 156.658,86.800 156.867 C 86.800 157.076,86.620 157.136,86.400 157.000 C 86.180 156.864,86.000 156.943,86.000 157.176 C 86.000 157.409,85.724 157.600,85.387 157.600 C 85.051 157.600,84.676 157.859,84.554 158.176 C 84.433 158.492,83.821 158.864,83.196 159.001 C 82.571 159.138,81.771 159.689,81.420 160.225 C 81.069 160.761,80.593 161.200,80.362 161.200 C 80.132 161.200,79.710 161.425,79.425 161.700 C 79.140 161.975,78.035 162.920,76.968 163.800 C 74.129 166.144,70.000 170.233,70.000 170.702 C 70.000 170.925,69.550 171.403,69.000 171.763 C 68.450 172.124,68.000 172.651,68.000 172.934 C 68.000 173.218,67.460 173.968,66.800 174.600 C 66.140 175.232,65.600 175.909,65.600 176.103 C 65.600 176.297,65.061 177.240,64.402 178.198 C 63.742 179.156,63.014 180.448,62.782 181.070 C 61.928 183.360,61.397 184.400,61.079 184.400 C 60.899 184.400,60.864 184.580,61.000 184.800 C 61.136 185.020,61.077 185.200,60.870 185.200 C 58.739 185.200,58.404 233.587,60.509 237.370 C 60.762 237.827,60.932 238.335,60.885 238.500 C 60.838 238.665,60.962 238.800,61.161 238.800 C 61.359 238.800,61.697 239.295,61.912 239.900 C 62.728 242.201,63.801 244.400,64.109 244.400 C 64.284 244.400,64.759 245.165,65.164 246.100 C 65.569 247.035,66.462 248.383,67.150 249.096 C 67.837 249.809,68.400 250.622,68.400 250.902 C 68.400 251.181,68.805 251.588,69.300 251.805 C 69.795 252.022,70.378 252.605,70.595 253.100 C 70.812 253.595,71.151 254.000,71.348 254.000 C 71.544 254.000,72.267 254.591,72.953 255.312 C 73.639 256.034,74.920 257.059,75.800 257.590 C 76.680 258.121,77.536 258.776,77.702 259.046 C 77.868 259.315,78.813 259.844,79.802 260.222 C 80.791 260.600,81.600 261.042,81.600 261.206 C 81.600 261.842,87.570 263.600,89.728 263.600 C 90.501 263.600,91.208 263.825,91.300 264.100 C 91.526 264.777,133.875 264.836,134.314 264.160 C 134.471 263.917,135.050 263.617,135.600 263.492 C 138.295 262.880,140.103 261.870,142.900 259.415 C 143.285 259.077,143.600 258.890,143.600 259.000 C 143.600 259.109,144.365 258.453,145.300 257.541 C 146.235 256.629,146.964 255.758,146.921 255.604 C 146.877 255.450,147.552 254.925,148.421 254.436 C 149.289 253.948,150.000 253.334,150.000 253.071 C 150.000 252.595,152.807 249.297,155.167 247.000 C 155.845 246.340,156.400 245.587,156.400 245.327 C 156.400 245.067,156.901 244.497,157.514 244.061 C 158.127 243.625,158.878 242.802,159.182 242.234 C 159.486 241.665,159.975 241.200,160.268 241.200 C 160.560 241.200,160.800 240.961,160.800 240.670 C 160.800 240.117,162.428 238.400,162.953 238.400 C 163.118 238.400,163.859 237.815,164.600 237.100 C 167.279 234.512,168.094 233.897,170.400 232.722 C 170.950 232.442,171.613 231.927,171.873 231.578 C 172.132 231.229,173.167 230.604,174.173 230.190 C 175.178 229.775,176.000 229.322,176.000 229.183 C 176.000 229.044,177.035 228.586,178.300 228.167 C 179.565 227.747,180.717 227.241,180.860 227.043 C 181.002 226.845,181.396 226.790,181.734 226.919 C 182.072 227.049,182.405 226.984,182.475 226.775 C 183.326 224.223,216.800 224.239,216.800 226.791 C 216.800 226.955,217.277 226.998,217.859 226.887 C 218.543 226.756,218.826 226.834,218.658 227.107 C 218.499 227.363,219.021 227.635,219.987 227.798 C 220.861 227.945,222.002 228.401,222.521 228.810 C 223.041 229.219,224.262 229.861,225.233 230.237 C 226.205 230.614,227.360 231.224,227.800 231.594 C 228.240 231.964,229.455 232.755,230.500 233.350 C 231.545 233.946,232.400 234.636,232.400 234.884 C 232.400 235.131,232.502 235.232,232.626 235.107 C 232.881 234.852,233.288 235.198,237.900 239.600 C 239.715 241.332,241.200 242.928,241.200 243.147 C 241.200 243.366,241.740 243.930,242.400 244.400 C 243.060 244.870,243.600 245.499,243.600 245.798 C 243.600 246.097,244.050 246.696,244.600 247.129 C 245.150 247.561,245.600 248.083,245.600 248.288 C 245.600 248.493,246.050 249.083,246.600 249.600 C 247.150 250.117,247.600 250.757,247.600 251.023 C 247.600 251.289,247.959 251.601,248.398 251.715 C 248.837 251.830,249.322 252.256,249.476 252.662 C 249.825 253.583,250.366 254.140,251.508 254.751 C 251.999 255.013,252.400 255.492,252.400 255.814 C 252.400 256.136,252.552 256.400,252.738 256.400 C 253.026 256.400,256.470 259.179,258.400 260.968 C 259.204 261.713,263.517 263.600,264.416 263.600 C 264.811 263.600,265.209 263.825,265.300 264.100 C 265.541 264.821,307.264 264.809,307.504 264.088 C 307.593 263.820,308.315 263.600,309.108 263.600 C 310.784 263.600,315.624 262.474,316.180 261.955 C 316.389 261.760,316.794 261.600,317.080 261.600 C 317.366 261.600,317.960 261.240,318.400 260.800 C 318.840 260.360,319.551 260.000,319.980 260.000 C 320.409 260.000,320.944 259.685,321.168 259.300 C 321.392 258.915,321.581 258.726,321.588 258.881 C 321.595 259.035,322.076 258.720,322.658 258.181 C 323.241 257.641,323.956 257.200,324.249 257.200 C 324.541 257.200,325.354 256.570,326.055 255.800 C 326.755 255.030,327.574 254.400,327.874 254.400 C 328.174 254.400,328.580 253.995,328.777 253.500 C 328.973 253.005,329.692 251.970,330.374 251.200 C 332.998 248.239,333.415 247.740,333.901 246.982 C 334.176 246.552,334.593 245.752,334.827 245.205 C 335.061 244.658,335.569 243.916,335.956 243.556 C 336.342 243.195,336.982 241.874,337.376 240.620 C 337.771 239.365,338.331 238.248,338.622 238.136 C 338.912 238.025,339.045 237.661,338.916 237.327 C 338.788 236.993,338.856 236.602,339.067 236.460 C 340.361 235.583,341.356 208.054,340.435 198.600 C 340.178 195.960,339.859 192.495,339.726 190.900 C 339.593 189.305,339.310 188.000,339.096 188.000 C 338.882 188.000,338.799 187.649,338.911 187.219 C 339.023 186.790,338.987 186.385,338.830 186.319 C 338.530 186.194,337.393 183.123,336.815 180.879 C 336.628 180.153,336.133 179.253,335.715 178.879 C 335.298 178.506,334.703 177.570,334.393 176.800 C 334.084 176.030,333.419 175.072,332.915 174.671 C 332.412 174.270,332.000 173.695,332.000 173.394 C 332.000 173.092,331.684 172.610,331.297 172.323 C 330.910 172.035,329.110 170.238,327.297 168.329 C 325.484 166.420,324.000 164.922,324.000 164.999 C 324.000 165.189,322.111 163.613,321.003 162.500 C 320.511 162.005,319.920 161.600,319.690 161.600 C 319.459 161.600,318.817 161.060,318.261 160.400 C 317.706 159.740,316.981 159.200,316.649 159.200 C 316.318 159.200,315.931 159.012,315.790 158.783 C 315.648 158.554,314.827 158.084,313.966 157.740 C 313.105 157.395,312.400 156.972,312.400 156.800 C 312.400 156.628,311.955 156.375,311.411 156.239 C 310.867 156.102,310.102 155.647,309.711 155.227 C 309.320 154.807,307.965 154.076,306.700 153.603 C 305.435 153.130,304.173 152.516,303.896 152.239 C 303.619 151.962,302.860 151.601,302.210 151.438 C 301.560 151.275,300.295 150.808,299.400 150.400 C 298.505 149.992,297.283 149.536,296.686 149.386 C 296.089 149.236,295.600 148.981,295.600 148.820 C 295.600 148.659,294.565 148.302,293.300 148.026 C 292.035 147.750,290.589 147.263,290.086 146.944 C 289.583 146.624,287.333 145.900,285.086 145.333 C 282.839 144.767,280.645 144.055,280.211 143.752 C 279.777 143.448,278.911 143.200,278.286 143.200 C 276.802 143.200,269.600 141.543,269.600 141.202 C 269.600 141.057,269.060 141.018,268.400 141.115 C 267.680 141.220,267.200 141.113,267.200 140.845 C 267.200 140.600,266.615 140.401,265.900 140.401 C 263.801 140.403,256.223 139.090,255.944 138.676 C 255.804 138.467,255.138 138.377,254.465 138.476 C 253.793 138.574,253.324 138.522,253.425 138.360 C 253.525 138.197,252.391 137.962,250.904 137.836 C 249.417 137.711,245.410 137.336,242.000 137.002 C 238.590 136.669,235.251 136.397,234.580 136.398 C 233.909 136.399,233.178 136.218,232.955 135.995 C 231.801 134.841,198.327 134.246,178.238 135.023 M137.624 165.300 C 140.514 168.308,140.818 169.126,139.298 169.795 C 138.804 170.012,138.400 170.409,138.400 170.677 C 138.400 170.945,137.950 171.614,137.400 172.164 C 136.850 172.714,136.400 173.074,136.400 172.965 C 136.400 172.716,133.269 175.991,133.253 176.257 C 133.232 176.600,131.291 178.000,130.837 178.000 C 130.597 178.000,130.400 178.262,130.400 178.582 C 130.400 178.902,129.950 179.614,129.400 180.164 C 128.850 180.714,128.400 181.074,128.400 180.965 C 128.400 180.758,125.297 183.940,125.223 184.222 C 125.090 184.735,123.070 186.400,122.582 186.400 C 122.262 186.400,122.000 186.597,122.000 186.837 C 122.000 187.077,121.640 187.731,121.200 188.291 C 120.760 188.850,120.400 189.186,120.400 189.037 C 120.400 188.756,117.164 192.047,117.094 192.400 C 117.019 192.772,115.277 194.000,114.824 194.000 C 114.577 194.000,114.260 194.315,114.119 194.700 C 113.818 195.526,112.721 197.015,112.317 197.145 C 111.853 197.295,107.386 201.531,103.294 205.700 C 101.190 207.845,99.313 209.600,99.125 209.600 C 98.936 209.600,97.924 210.500,96.874 211.600 C 95.051 213.512,94.000 214.088,94.000 213.176 C 94.000 212.943,93.813 212.868,93.584 213.010 C 93.355 213.151,92.802 212.802,92.355 212.234 C 91.908 211.665,91.389 211.200,91.202 211.200 C 90.681 211.200,88.398 208.801,88.413 208.269 C 88.430 207.608,90.263 205.600,90.847 205.600 C 91.115 205.600,91.234 205.501,91.113 205.380 C 90.823 205.090,92.911 202.918,93.300 203.104 C 93.465 203.183,93.605 203.012,93.611 202.724 C 93.617 202.436,94.213 201.761,94.936 201.225 C 95.659 200.689,96.689 199.659,97.225 198.936 C 97.761 198.213,98.455 197.617,98.767 197.611 C 99.078 197.605,99.234 197.501,99.113 197.380 C 98.823 197.090,100.911 194.918,101.300 195.104 C 101.465 195.183,101.605 195.012,101.611 194.724 C 101.617 194.436,102.213 193.761,102.936 193.225 C 103.659 192.689,104.689 191.659,105.225 190.936 C 105.761 190.213,106.455 189.617,106.767 189.611 C 107.078 189.605,107.234 189.501,107.113 189.380 C 106.823 189.090,108.911 186.918,109.300 187.104 C 109.465 187.183,109.605 187.012,109.611 186.724 C 109.617 186.436,110.213 185.761,110.936 185.225 C 111.659 184.689,112.689 183.659,113.225 182.936 C 113.761 182.213,114.455 181.617,114.767 181.611 C 115.078 181.605,115.234 181.501,115.113 181.380 C 114.823 181.090,116.911 178.918,117.300 179.104 C 117.465 179.183,117.605 179.012,117.611 178.724 C 117.617 178.436,118.213 177.761,118.936 177.225 C 119.659 176.689,120.689 175.659,121.225 174.936 C 121.761 174.213,122.455 173.617,122.767 173.611 C 123.078 173.605,123.234 173.501,123.113 173.380 C 122.823 173.090,124.911 170.918,125.300 171.104 C 125.465 171.183,125.600 170.967,125.600 170.624 C 125.600 170.281,125.751 170.000,125.935 170.000 C 126.119 170.000,127.064 169.190,128.035 168.200 C 129.006 167.210,130.106 166.301,130.480 166.180 C 130.871 166.053,131.065 165.714,130.937 165.380 C 130.809 165.047,130.948 164.800,131.263 164.800 C 131.565 164.800,132.349 164.279,133.006 163.643 C 134.622 162.078,134.480 162.027,137.624 165.300 M103.334 171.161 C 104.800 172.680,106.000 174.015,106.000 174.128 C 106.000 174.707,105.466 175.600,105.121 175.600 C 104.649 175.600,100.000 180.331,100.000 180.811 C 100.000 180.995,99.629 181.264,99.176 181.408 C 98.722 181.552,98.153 182.104,97.911 182.635 C 97.670 183.166,97.296 183.600,97.082 183.600 C 96.596 183.600,94.800 185.505,94.800 186.021 C 94.800 186.229,94.610 186.400,94.377 186.400 C 93.933 186.400,91.600 188.788,91.600 189.242 C 91.600 189.388,91.227 189.604,90.770 189.724 C 90.314 189.843,89.843 190.314,89.724 190.770 C 89.604 191.227,89.323 191.600,89.099 191.600 C 88.600 191.600,86.800 193.495,86.800 194.021 C 86.800 194.229,86.611 194.400,86.381 194.400 C 86.150 194.400,85.545 194.850,85.035 195.400 C 83.733 196.805,83.593 196.747,80.246 193.433 L 77.250 190.466 78.228 189.333 C 78.765 188.710,79.306 187.885,79.429 187.500 C 79.553 187.115,79.906 186.800,80.215 186.800 C 80.524 186.800,81.175 186.260,81.663 185.600 C 82.151 184.940,82.787 184.400,83.075 184.400 C 83.364 184.400,83.600 184.263,83.600 184.096 C 83.600 183.929,84.039 183.318,84.576 182.739 C 85.113 182.160,85.434 181.567,85.289 181.422 C 85.143 181.277,85.334 181.276,85.712 181.422 C 86.097 181.569,86.400 181.498,86.400 181.261 C 86.400 180.853,90.536 176.400,90.915 176.400 C 91.016 176.400,92.918 174.600,95.141 172.400 C 99.948 167.644,99.940 167.645,103.334 171.161 " stroke="none" fill="#3cccb4" fill-rule="evenodd"></path><path id="path1" d="M138.100 101.076 C 138.485 101.176,139.115 101.176,139.500 101.076 C 139.885 100.975,139.570 100.893,138.800 100.893 C 138.030 100.893,137.715 100.975,138.100 101.076 M165.091 115.089 C 165.801 115.177,167.061 115.179,167.891 115.092 C 168.721 115.005,168.140 114.933,166.600 114.931 C 165.060 114.929,164.381 115.000,165.091 115.089 M230.500 115.087 C 231.105 115.178,232.095 115.178,232.700 115.087 C 233.305 114.995,232.810 114.920,231.600 114.920 C 230.390 114.920,229.895 114.995,230.500 115.087 M197.900 245.089 C 198.615 245.178,199.785 245.178,200.500 245.089 C 201.215 245.001,200.630 244.928,199.200 244.928 C 197.770 244.928,197.185 245.001,197.900 245.089 M309.200 284.800 L 307.000 285.070 309.076 285.135 C 310.218 285.171,311.264 285.020,311.400 284.800 C 311.536 284.580,311.592 284.429,311.524 284.465 C 311.456 284.501,310.410 284.652,309.200 284.800 M89.305 285.087 C 89.914 285.179,90.814 285.177,91.305 285.082 C 91.797 284.987,91.300 284.911,90.200 284.914 C 89.100 284.917,88.697 284.995,89.305 285.087 M134.700 285.082 C 135.195 285.178,136.005 285.178,136.500 285.082 C 136.995 284.987,136.590 284.909,135.600 284.909 C 134.610 284.909,134.205 284.987,134.700 285.082 M263.100 285.082 C 263.595 285.178,264.405 285.178,264.900 285.082 C 265.395 284.987,264.990 284.909,264.000 284.909 C 263.010 284.909,262.605 284.987,263.100 285.082 " stroke="none" fill="#40ccb4" fill-rule="evenodd"></path><path id="path2" d="M138.100 101.076 C 138.485 101.176,139.115 101.176,139.500 101.076 C 139.885 100.975,139.570 100.893,138.800 100.893 C 138.030 100.893,137.715 100.975,138.100 101.076 M165.091 115.089 C 165.801 115.177,167.061 115.179,167.891 115.092 C 168.721 115.005,168.140 114.933,166.600 114.931 C 165.060 114.929,164.381 115.000,165.091 115.089 M230.500 115.087 C 231.105 115.178,232.095 115.178,232.700 115.087 C 233.305 114.995,232.810 114.920,231.600 114.920 C 230.390 114.920,229.895 114.995,230.500 115.087 M197.900 245.089 C 198.615 245.178,199.785 245.178,200.500 245.089 C 201.215 245.001,200.630 244.928,199.200 244.928 C 197.770 244.928,197.185 245.001,197.900 245.089 M309.200 284.800 L 307.000 285.070 309.076 285.135 C 310.218 285.171,311.264 285.020,311.400 284.800 C 311.536 284.580,311.592 284.429,311.524 284.465 C 311.456 284.501,310.410 284.652,309.200 284.800 M89.305 285.087 C 89.914 285.179,90.814 285.177,91.305 285.082 C 91.797 284.987,91.300 284.911,90.200 284.914 C 89.100 284.917,88.697 284.995,89.305 285.087 M134.700 285.082 C 135.195 285.178,136.005 285.178,136.500 285.082 C 136.995 284.987,136.590 284.909,135.600 284.909 C 134.610 284.909,134.205 284.987,134.700 285.082 M263.100 285.082 C 263.595 285.178,264.405 285.178,264.900 285.082 C 265.395 284.987,264.990 284.909,264.000 284.909 C 263.010 284.909,262.605 284.987,263.100 285.082 " stroke="none" fill="#40ccb4" fill-rule="evenodd"></path><path id="path3" d="M138.100 101.076 C 138.485 101.176,139.115 101.176,139.500 101.076 C 139.885 100.975,139.570 100.893,138.800 100.893 C 138.030 100.893,137.715 100.975,138.100 101.076 M165.091 115.089 C 165.801 115.177,167.061 115.179,167.891 115.092 C 168.721 115.005,168.140 114.933,166.600 114.931 C 165.060 114.929,164.381 115.000,165.091 115.089 M230.500 115.087 C 231.105 115.178,232.095 115.178,232.700 115.087 C 233.305 114.995,232.810 114.920,231.600 114.920 C 230.390 114.920,229.895 114.995,230.500 115.087 M197.900 245.089 C 198.615 245.178,199.785 245.178,200.500 245.089 C 201.215 245.001,200.630 244.928,199.200 244.928 C 197.770 244.928,197.185 245.001,197.900 245.089 M309.200 284.800 L 307.000 285.070 309.076 285.135 C 310.218 285.171,311.264 285.020,311.400 284.800 C 311.536 284.580,311.592 284.429,311.524 284.465 C 311.456 284.501,310.410 284.652,309.200 284.800 M89.305 285.087 C 89.914 285.179,90.814 285.177,91.305 285.082 C 91.797 284.987,91.300 284.911,90.200 284.914 C 89.100 284.917,88.697 284.995,89.305 285.087 M134.700 285.082 C 135.195 285.178,136.005 285.178,136.500 285.082 C 136.995 284.987,136.590 284.909,135.600 284.909 C 134.610 284.909,134.205 284.987,134.700 285.082 M263.100 285.082 C 263.595 285.178,264.405 285.178,264.900 285.082 C 265.395 284.987,264.990 284.909,264.000 284.909 C 263.010 284.909,262.605 284.987,263.100 285.082 " stroke="none" fill="#40ccb4" fill-rule="evenodd"></path><path id="path4" d="M138.100 101.076 C 138.485 101.176,139.115 101.176,139.500 101.076 C 139.885 100.975,139.570 100.893,138.800 100.893 C 138.030 100.893,137.715 100.975,138.100 101.076 M165.091 115.089 C 165.801 115.177,167.061 115.179,167.891 115.092 C 168.721 115.005,168.140 114.933,166.600 114.931 C 165.060 114.929,164.381 115.000,165.091 115.089 M230.500 115.087 C 231.105 115.178,232.095 115.178,232.700 115.087 C 233.305 114.995,232.810 114.920,231.600 114.920 C 230.390 114.920,229.895 114.995,230.500 115.087 M197.900 245.089 C 198.615 245.178,199.785 245.178,200.500 245.089 C 201.215 245.001,200.630 244.928,199.200 244.928 C 197.770 244.928,197.185 245.001,197.900 245.089 M309.200 284.800 L 307.000 285.070 309.076 285.135 C 310.218 285.171,311.264 285.020,311.400 284.800 C 311.536 284.580,311.592 284.429,311.524 284.465 C 311.456 284.501,310.410 284.652,309.200 284.800 M89.305 285.087 C 89.914 285.179,90.814 285.177,91.305 285.082 C 91.797 284.987,91.300 284.911,90.200 284.914 C 89.100 284.917,88.697 284.995,89.305 285.087 M134.700 285.082 C 135.195 285.178,136.005 285.178,136.500 285.082 C 136.995 284.987,136.590 284.909,135.600 284.909 C 134.610 284.909,134.205 284.987,134.700 285.082 M263.100 285.082 C 263.595 285.178,264.405 285.178,264.900 285.082 C 265.395 284.987,264.990 284.909,264.000 284.909 C 263.010 284.909,262.605 284.987,263.100 285.082 " stroke="none" fill="#40ccb4" fill-rule="evenodd"></path></g></svg>