<svg xmlns="http://www.w3.org/2000/svg" width="605" height="50">
    <defs>
        <style type="text/css">
            @namespace "http://www.w3.org/2000/svg";
                .line                 {fill: none; stroke: #636273;}
                .bold-line            {stroke: #636273; shape-rendering: crispEdges; stroke-width: 2; }
                .thin-line            {stroke: #636273; shape-rendering: crispEdges}
                .filled               {fill: #636273; stroke: none;}
                text.terminal         {font-family: -apple-system, BlinkMacSystemFont, "Segoe UI", Roboto, Ubuntu, Cantarell, Helvetica, sans-serif;
                font-size: 12px;
                fill: #ffffff;
                font-weight: bold;
                }
                text.nonterminal      {font-family: -apple-system, BlinkMacSystemFont, "Segoe UI", Roboto, Ubuntu, Cantarell, Helvetica, sans-serif;
                font-size: 12px;
                fill: #e289a4;
                font-weight: normal;
                }
                text.regexp           {font-family: -apple-system, BlinkMacSystemFont, "Segoe UI", Roboto, Ubuntu, Cantarell, Helvetica, sans-serif;
                font-size: 12px;
                fill: #00141F;
                font-weight: normal;
                }
                rect, circle, polygon {fill: none; stroke: none;}
                rect.terminal         {fill: none; stroke: #be2f5b;}
                rect.nonterminal      {fill: rgba(255,255,255,0.1); stroke: none;}
                rect.text             {fill: none; stroke: none;}
                polygon.regexp        {fill: #C7ECFF; stroke: #038cbc;}
        </style>
            </defs>
         <polygon points="9 17 1 13 1 21"/>
         <polygon points="17 17 9 13 9 21"/>
         <rect x="31" y="3" width="44" height="32" rx="10"/>
         <rect x="29" y="1" width="44" height="32" class="terminal" rx="10"/>
         <text class="terminal" x="39" y="21">SET</text>
         <rect x="95" y="3" width="68" height="32" rx="10"/>
         <rect x="93" y="1" width="68" height="32" class="terminal" rx="10"/>
         <text class="terminal" x="103" y="21">PARAM</text>
         <rect x="183" y="3" width="176" height="32" rx="10"/>
         <rect x="181" y="1" width="176" height="32" class="terminal" rx="10"/>
         <text class="terminal" x="191" y="21">maxUncommittedRows</text>
         <rect x="379" y="3" width="30" height="32" rx="10"/>
         <rect x="377" y="1" width="30" height="32" class="terminal" rx="10"/>
         <text class="terminal" x="387" y="21">=</text><a xmlns:xlink="http://www.w3.org/1999/xlink" xlink:href="#n" xlink:title="n">
            <rect x="429" y="3" width="28" height="32"/>
            <rect x="427" y="1" width="28" height="32" class="nonterminal"/>
            <text class="nonterminal" x="437" y="21">n</text></a><path xmlns:svg="http://www.w3.org/2000/svg" class="line" d="m17 17 h2 m0 0 h10 m44 0 h10 m0 0 h10 m68 0 h10 m0 0 h10 m176 0 h10 m0 0 h10 m30 0 h10 m0 0 h10 m28 0 h10 m3 0 h-3"/>
         <polygon points="475 17 483 13 483 21"/>
         <polygon points="475 17 467 13 467 21"/></svg>