<svg xmlns="http://www.w3.org/2000/svg" width="861" height="81">
    <defs>
        <style type="text/css">
            @namespace "http://www.w3.org/2000/svg";
                .line                 {fill: none; stroke: #636273;}
                .bold-line            {stroke: #636273; shape-rendering: crispEdges; stroke-width: 2; }
                .thin-line            {stroke: #636273; shape-rendering: crispEdges}
                .filled               {fill: #636273; stroke: none;}
                text.terminal         {font-family: -apple-system, BlinkMacSystemFont, "Segoe UI", Roboto, Ubuntu, Cantarell, Helvetica, sans-serif;
                font-size: 12px;
                fill: #ffffff;
                font-weight: bold;
                }
                text.nonterminal      {font-family: -apple-system, BlinkMacSystemFont, "Segoe UI", Roboto, Ubuntu, Cantarell, Helvetica, sans-serif;
                font-size: 12px;
                fill: #e289a4;
                font-weight: normal;
                }
                text.regexp           {font-family: -apple-system, BlinkMacSystemFont, "Segoe UI", Roboto, Ubuntu, Cantarell, Helvetica, sans-serif;
                font-size: 12px;
                fill: #00141F;
                font-weight: normal;
                }
                rect, circle, polygon {fill: none; stroke: none;}
                rect.terminal         {fill: none; stroke: #be2f5b;}
                rect.nonterminal      {fill: rgba(255,255,255,0.1); stroke: none;}
                rect.text             {fill: none; stroke: none;}
                polygon.regexp        {fill: #C7ECFF; stroke: #038cbc;}
        </style>
    </defs>
     <polygon points="17 17 9 13 9 21"/>
     <rect x="31" y="3" width="62" height="32" rx="10"/>
     <rect x="29" y="1" width="62" height="32" class="terminal" rx="10"/>
     <text class="terminal" x="39" y="21">ALTER</text>
     <rect x="113" y="3" width="62" height="32" rx="10"/>
     <rect x="111" y="1" width="62" height="32" class="terminal" rx="10"/>
     <text class="terminal" x="121" y="21">TABLE</text><a xmlns:xlink="http://www.w3.org/1999/xlink" xlink:href="#tableName" xlink:title="tableName">
        <rect x="195" y="3" width="88" height="32"/>
        <rect x="193" y="1" width="88" height="32" class="nonterminal"/>
        <text class="nonterminal" x="203" y="21">tableName</text></a><rect x="303" y="3" width="76" height="32" rx="10"/>
     <rect x="301" y="1" width="76" height="32" class="terminal" rx="10"/>
     <text class="terminal" x="311" y="21">RENAME</text>
     <rect x="399" y="3" width="78" height="32" rx="10"/>
     <rect x="397" y="1" width="78" height="32" class="terminal" rx="10"/>
     <text class="terminal" x="407" y="21">COLUMN</text><a xmlns:xlink="http://www.w3.org/1999/xlink" xlink:href="#columnName" xlink:title="columnName">
        <rect x="497" y="3" width="102" height="32"/>
        <rect x="495" y="1" width="102" height="32" class="nonterminal"/>
        <text class="nonterminal" x="505" y="21">columnName</text></a><rect x="619" y="3" width="38" height="32" rx="10"/>
     <rect x="617" y="1" width="38" height="32" class="terminal" rx="10"/>
     <text class="terminal" x="627" y="21">TO</text><a xmlns:xlink="http://www.w3.org/1999/xlink" xlink:href="#columnName" xlink:title="columnName">
        <rect x="677" y="3" width="102" height="32"/>
        <rect x="675" y="1" width="102" height="32" class="nonterminal"/>
        <text class="nonterminal" x="685" y="21">columnName</text></a><svg:path xmlns:svg="http://www.w3.org/2000/svg" class="line" d="m17 17 h2 m0 0 h10 m62 0 h10 m0 0 h10 m62 0 h10 m0 0 h10 m88 0 h10 m0 0 h10 m76 0 h10 m0 0 h10 m78 0 h10 m0 0 h10 m102 0 h10 m0 0 h10 m38 0 h10 m0 0 h10 m102 0 h10 m3 0 h-3"/>
     <polygon points="797 17 805 13 805 21"/>
     <polygon points="797 17 789 13 789 21"/></svg>


         