<svg xmlns="http://www.w3.org/2000/svg" width="1000" height="400">
    <defs>
        <style type="text/css">
            @namespace "http://www.w3.org/2000/svg";
                .line                 {fill: none; stroke: #636273;}
                .bold-line            {stroke: #636273; shape-rendering: crispEdges; stroke-width: 2; }
                .thin-line            {stroke: #636273; shape-rendering: crispEdges}
                .filled               {fill: #636273; stroke: none;}
                text.terminal         {font-family: -apple-system, BlinkMacSystemFont, "Segoe UI", Roboto, Ubuntu, Cantarell, Helvetica, sans-serif;
                font-size: 12px;
                fill: #ffffff;
                font-weight: bold;
                }
                text.nonterminal      {font-family: -apple-system, BlinkMacSystemFont, "Segoe UI", Roboto, Ubuntu, Cantarell, Helvetica, sans-serif;
                font-size: 12px;
                fill: #e289a4;
                font-weight: normal;
                }
                text.regexp           {font-family: -apple-system, BlinkMacSystemFont, "Segoe UI", Roboto, Ubuntu, Cantarell, Helvetica, sans-serif;
                font-size: 12px;
                fill: #00141F;
                font-weight: normal;
                }
                rect, circle, polygon {fill: none; stroke: none;}
                rect.terminal         {fill: none; stroke: #be2f5b;}
                rect.nonterminal      {fill: rgba(255,255,255,0.1); stroke: none;}
                rect.text             {fill: none; stroke: none;}
                polygon.regexp        {fill: #C7ECFF; stroke: #038cbc;}
        </style>
         </defs>
         <polygon points="9 51 1 47 1 55"/>
         <polygon points="17 51 9 47 9 55"/><a xmlns:xlink="http://www.w3.org/1999/xlink" xlink:href="#functionName" xlink:title="functionName">
            <rect x="31" y="37" width="106" height="32"/>
            <rect x="29" y="35" width="106" height="32" class="nonterminal"/>
            <text class="nonterminal" x="39" y="55">functionName</text></a><rect x="157" y="37" width="58" height="32" rx="10"/>
         <rect x="155" y="35" width="58" height="32" class="terminal" rx="10"/>
         <text class="terminal" x="165" y="55">OVER</text>
         <rect x="235" y="37" width="26" height="32" rx="10"/>
         <rect x="233" y="35" width="26" height="32" class="terminal" rx="10"/>
         <text class="terminal" x="243" y="55">(</text>
         <rect x="301" y="37" width="98" height="32" rx="10"/>
         <rect x="299" y="35" width="98" height="32" class="terminal" rx="10"/>
         <text class="terminal" x="309" y="55">PARTITION</text>
         <rect x="419" y="37" width="38" height="32" rx="10"/>
         <rect x="417" y="35" width="38" height="32" class="terminal" rx="10"/>
         <text class="terminal" x="427" y="55">BY</text><a xmlns:xlink="http://www.w3.org/1999/xlink" xlink:href="#columnName" xlink:title="columnName">
            <rect x="517" y="69" width="102" height="32"/>
            <rect x="515" y="67" width="102" height="32" class="nonterminal"/>
            <text class="nonterminal" x="525" y="87">columnName</text></a><rect x="497" y="3" width="24" height="32" rx="10"/>
         <rect x="495" y="1" width="24" height="32" class="terminal" rx="10"/>
         <text class="terminal" x="505" y="21">,</text>
         <rect x="205" y="195" width="68" height="32" rx="10"/>
         <rect x="203" y="193" width="68" height="32" class="terminal" rx="10"/>
         <text class="terminal" x="213" y="213">ORDER</text>
         <rect x="293" y="195" width="38" height="32" rx="10"/>
         <rect x="291" y="193" width="38" height="32" class="terminal" rx="10"/>
         <text class="terminal" x="301" y="213">BY</text><a xmlns:xlink="http://www.w3.org/1999/xlink" xlink:href="#columnName" xlink:title="columnName">
            <rect x="371" y="195" width="102" height="32"/>
            <rect x="369" y="193" width="102" height="32" class="nonterminal"/>
            <text class="nonterminal" x="379" y="213">columnName</text></a><a xmlns:xlink="http://www.w3.org/1999/xlink" xlink:href="#ASC" xlink:title="ASC">
            <rect x="513" y="227" width="44" height="32"/>
            <rect x="511" y="225" width="44" height="32" class="nonterminal"/>
            <text class="nonterminal" x="521" y="245">ASC</text></a><a xmlns:xlink="http://www.w3.org/1999/xlink" xlink:href="#DESC" xlink:title="DESC">
            <rect x="513" y="271" width="54" height="32"/>
            <rect x="511" y="269" width="54" height="32" class="nonterminal"/>
            <text class="nonterminal" x="521" y="289">DESC</text></a><rect x="371" y="151" width="24" height="32" rx="10"/>
         <rect x="369" y="149" width="24" height="32" class="terminal" rx="10"/>
         <text class="terminal" x="379" y="169">,</text>
         <rect x="647" y="195" width="26" height="32" rx="10"/>
         <rect x="645" y="193" width="26" height="32" class="terminal" rx="10"/>
         <text class="terminal" x="655" y="213">)</text>
         <path xmlns:svg="http://www.w3.org/2000/svg" class="line" d="m17 51 h2 m0 0 h10 m106 0 h10 m0 0 h10 m58 0 h10 m0 0 h10 m26 0 h10 m20 0 h10 m98 0 h10 m0 0 h10 m38 0 h10 m40 0 h10 m0 0 h112 m-142 0 h20 m122 0 h20 m-162 0 q10 0 10 10 m142 0 q0 -10 10 -10 m-152 10 v12 m142 0 v-12 m-142 12 q0 10 10 10 m122 0 q10 0 10 -10 m-132 10 h10 m102 0 h10 m-162 -32 l20 0 m-1 0 q-9 0 -9 -10 l0 -14 q0 -10 10 -10 m162 34 l20 0 m-20 0 q10 0 10 -10 l0 -14 q0 -10 -10 -10 m-162 0 h10 m24 0 h10 m0 0 h118 m-378 34 h20 m378 0 h20 m-418 0 q10 0 10 10 m398 0 q0 -10 10 -10 m-408 10 v46 m398 0 v-46 m-398 46 q0 10 10 10 m378 0 q10 0 10 -10 m-388 10 h10 m0 0 h368 m22 -66 l2 0 m2 0 l2 0 m2 0 l2 0 m-538 158 l2 0 m2 0 l2 0 m2 0 l2 0 m22 0 h10 m68 0 h10 m0 0 h10 m38 0 h10 m20 0 h10 m102 0 h10 m20 0 h10 m0 0 h64 m-94 0 h20 m74 0 h20 m-114 0 q10 0 10 10 m94 0 q0 -10 10 -10 m-104 10 v12 m94 0 v-12 m-94 12 q0 10 10 10 m74 0 q10 0 10 -10 m-84 10 h10 m44 0 h10 m0 0 h10 m-84 -10 v20 m94 0 v-20 m-94 20 v24 m94 0 v-24 m-94 24 q0 10 10 10 m74 0 q10 0 10 -10 m-84 10 h10 m54 0 h10 m-236 -76 l20 0 m-1 0 q-9 0 -9 -10 l0 -24 q0 -10 10 -10 m236 44 l20 0 m-20 0 q10 0 10 -10 l0 -24 q0 -10 -10 -10 m-236 0 h10 m24 0 h10 m0 0 h192 m-422 44 h20 m422 0 h20 m-462 0 q10 0 10 10 m442 0 q0 -10 10 -10 m-452 10 v90 m442 0 v-90 m-442 90 q0 10 10 10 m422 0 q10 0 10 -10 m-432 10 h10 m0 0 h412 m20 -110 h10 m26 0 h10 m3 0 h-3"/>
         <polygon points="691 209 699 205 699 213"/>
         <polygon points="691 209 683 205 683 213"/></svg>