<svg xmlns="http://www.w3.org/2000/svg" width="741" height="49">
    <defs>
        <style type="text/css">
            @namespace "http://www.w3.org/2000/svg";
            .line                 {fill: none; stroke: #636273;}
            .bold-line            {stroke: #636273; shape-rendering: crispEdges; stroke-width: 2; }
            .thin-line            {stroke: #636273; shape-rendering: crispEdges}
            .filled               {fill: #636273; stroke: none;}
            text.terminal         {font-family: -apple-system, BlinkMacSystemFont, "Segoe UI", Roboto, Ubuntu, Cantarell, Helvetica, sans-serif;
            font-size: 12px;
            fill: #ffffff;
            font-weight: bold;
            }
            text.nonterminal      {font-family: -apple-system, BlinkMacSystemFont, "Segoe UI", Roboto, Ubuntu, Cantarell, Helvetica, sans-serif;
            font-size: 12px;
            fill: #e289a4;
            font-weight: normal;
            }
            text.regexp           {font-family: -apple-system, BlinkMacSystemFont, "Segoe UI", Roboto, Ubuntu, Cantarell, Helvetica, sans-serif;
            font-size: 12px;
            fill: #00141F;
            font-weight: normal;
            }
            rect, circle, polygon {fill: none; stroke: none;}
            rect.terminal         {fill: none; stroke: #be2f5b;}
            rect.nonterminal      {fill: rgba(255,255,255,0.1); stroke: none;}
            rect.text             {fill: none; stroke: none;}
            polygon.regexp        {fill: #C7ECFF; stroke: #038cbc;}
        </style>
    </defs>
    <polygon points="9 17 1 13 1 21"/>
         <polygon points="17 17 9 13 9 21"/>
         <rect x="31" y="3" width="58" height="32" rx="10"/>
         <rect x="29" y="1" width="58" height="32" class="terminal" rx="10"/>
         <text class="terminal" x="39" y="21">WITH</text><a xmlns:xlink="http://www.w3.org/1999/xlink" xlink:href="#maxUncommittedRows" xlink:title="maxUncommittedRows">
            <rect x="109" y="3" width="164" height="32"/>
            <rect x="107" y="1" width="164" height="32" class="nonterminal"/>
            <text class="nonterminal" x="117" y="21">maxUncommittedRows</text></a><rect x="293" y="3" width="30" height="32" rx="10"/>
         <rect x="291" y="1" width="30" height="32" class="terminal" rx="10"/>
         <text class="terminal" x="301" y="21">=</text><a xmlns:xlink="http://www.w3.org/1999/xlink" xlink:href="#rowCount" xlink:title="rowCount">
            <rect x="343" y="3" width="80" height="32"/>
            <rect x="341" y="1" width="80" height="32" class="nonterminal"/>
            <text class="nonterminal" x="351" y="21">rowCount</text></a><rect x="443" y="3" width="24" height="32" rx="10"/>
         <rect x="441" y="1" width="24" height="32" class="terminal" rx="10"/>
         <text class="terminal" x="451" y="21">,</text><a xmlns:xlink="http://www.w3.org/1999/xlink" xlink:href="#commitLag" xlink:title="commitLag">
            <rect x="487" y="3" width="88" height="32"/>
            <rect x="485" y="1" width="88" height="32" class="nonterminal"/>
            <text class="nonterminal" x="495" y="21">commitLag</text></a><rect x="595" y="3" width="30" height="32" rx="10"/>
         <rect x="593" y="1" width="30" height="32" class="terminal" rx="10"/>
         <text class="terminal" x="603" y="21">=</text><a xmlns:xlink="http://www.w3.org/1999/xlink" xlink:href="#lag" xlink:title="lag">
            <rect x="645" y="3" width="38" height="32"/>
            <rect x="643" y="1" width="38" height="32" class="nonterminal"/>
            <text class="nonterminal" x="653" y="21">lag</text></a><svg:path xmlns:svg="http://www.w3.org/2000/svg" class="line" d="m17 17 h2 m0 0 h10 m58 0 h10 m0 0 h10 m164 0 h10 m0 0 h10 m30 0 h10 m0 0 h10 m80 0 h10 m0 0 h10 m24 0 h10 m0 0 h10 m88 0 h10 m0 0 h10 m30 0 h10 m0 0 h10 m38 0 h10 m3 0 h-3"/>
         <polygon points="701 17 709 13 709 21"/>
         <polygon points="701 17 693 13 693 21"/></svg>
