<svg xmlns="http://www.w3.org/2000/svg" width="741" height="579">
    <defs>
        <style type="text/css">
            @namespace "http://www.w3.org/2000/svg";
            .line                 {fill: none; stroke: #636273;}
            .bold-line            {stroke: #636273; shape-rendering: crispEdges; stroke-width: 2; }
            .thin-line            {stroke: #636273; shape-rendering: crispEdges}
            .filled               {fill: #636273; stroke: none;}
            text.terminal         {font-family: -apple-system, BlinkMacSystemFont, "Segoe UI", Roboto, Ubuntu, Cantarell, Helvetica, sans-serif;
            font-size: 12px;
            fill: #ffffff;
            font-weight: bold;
            }
            text.nonterminal      {font-family: -apple-system, BlinkMacSystemFont, "Segoe UI", Roboto, Ubuntu, Cantarell, Helvetica, sans-serif;
            font-size: 12px;
            fill: #e289a4;
            font-weight: normal;
            }
            text.regexp           {font-family: -apple-system, BlinkMacSystemFont, "Segoe UI", Roboto, Ubuntu, Cantarell, Helvetica, sans-serif;
            font-size: 12px;
            fill: #00141F;
            font-weight: normal;
            }
            rect, circle, polygon {fill: none; stroke: none;}
            rect.terminal         {fill: none; stroke: #be2f5b;}
            rect.nonterminal      {fill: rgba(255,255,255,0.1); stroke: none;}
            rect.text             {fill: none; stroke: none;}
            polygon.regexp        {fill: #C7ECFF; stroke: #038cbc;}
        </style>
    </defs>
    <polygon points="9 17 1 13 1 21"/>
         <polygon points="17 17 9 13 9 21"/>
         <rect x="31" y="3" width="72" height="32" rx="10"/>
         <rect x="29" y="1" width="72" height="32" class="terminal" rx="10"/>
         <text class="terminal" x="39" y="21">CREATE</text>
         <rect x="123" y="3" width="62" height="32" rx="10"/>
         <rect x="121" y="1" width="62" height="32" class="terminal" rx="10"/>
         <text class="terminal" x="131" y="21">TABLE</text>
         <rect x="225" y="35" width="34" height="32" rx="10"/>
         <rect x="223" y="33" width="34" height="32" class="terminal" rx="10"/>
         <text class="terminal" x="233" y="53">IF</text>
         <rect x="279" y="35" width="48" height="32" rx="10"/>
         <rect x="277" y="33" width="48" height="32" class="terminal" rx="10"/>
         <text class="terminal" x="287" y="53">NOT</text>
         <rect x="347" y="35" width="70" height="32" rx="10"/>
         <rect x="345" y="33" width="70" height="32" class="terminal" rx="10"/>
         <text class="terminal" x="355" y="53">EXISTS</text><a xmlns:xlink="http://www.w3.org/1999/xlink" xlink:href="#tableName" xlink:title="tableName">
            <rect x="457" y="3" width="88" height="32"/>
            <rect x="455" y="1" width="88" height="32" class="nonterminal"/>
            <text class="nonterminal" x="465" y="21">tableName</text></a><rect x="45" y="145" width="26" height="32" rx="10"/>
         <rect x="43" y="143" width="26" height="32" class="terminal" rx="10"/>
         <text class="terminal" x="53" y="163">(</text><a xmlns:xlink="http://www.w3.org/1999/xlink" xlink:href="#columnName" xlink:title="columnName">
            <rect x="111" y="145" width="102" height="32"/>
            <rect x="109" y="143" width="102" height="32" class="nonterminal"/>
            <text class="nonterminal" x="119" y="163">columnName</text></a><a xmlns:xlink="http://www.w3.org/1999/xlink" xlink:href="#typeDef" xlink:title="typeDef">
            <rect x="233" y="145" width="70" height="32"/>
            <rect x="231" y="143" width="70" height="32" class="nonterminal"/>
            <text class="nonterminal" x="241" y="163">typeDef</text></a><rect x="111" y="101" width="24" height="32" rx="10"/>
         <rect x="109" y="99" width="24" height="32" class="terminal" rx="10"/>
         <text class="terminal" x="119" y="119">,</text>
         <rect x="343" y="145" width="26" height="32" rx="10"/>
         <rect x="341" y="143" width="26" height="32" class="terminal" rx="10"/>
         <text class="terminal" x="351" y="163">)</text>
         <rect x="45" y="211" width="34" height="32" rx="10"/>
         <rect x="43" y="209" width="34" height="32" class="terminal" rx="10"/>
         <text class="terminal" x="53" y="229">as</text>
         <rect x="99" y="211" width="26" height="32" rx="10"/>
         <rect x="97" y="209" width="26" height="32" class="terminal" rx="10"/>
         <text class="terminal" x="107" y="229">(</text><a xmlns:xlink="http://www.w3.org/1999/xlink" xlink:href="#selectSql" xlink:title="selectSql">
            <rect x="145" y="211" width="76" height="32"/>
            <rect x="143" y="209" width="76" height="32" class="nonterminal"/>
            <text class="nonterminal" x="153" y="229">selectSql</text></a><rect x="241" y="211" width="26" height="32" rx="10"/>
         <rect x="239" y="209" width="26" height="32" class="terminal" rx="10"/>
         <text class="terminal" x="249" y="229">)</text>
         <rect x="327" y="211" width="24" height="32" rx="10"/>
         <rect x="325" y="209" width="24" height="32" class="terminal" rx="10"/>
         <text class="terminal" x="335" y="229">,</text><a xmlns:xlink="http://www.w3.org/1999/xlink" xlink:href="#castDef" xlink:title="castDef">
            <rect x="371" y="211" width="68" height="32"/>
            <rect x="369" y="209" width="68" height="32" class="nonterminal"/>
            <text class="nonterminal" x="379" y="229">castDef</text></a><rect x="539" y="211" width="24" height="32" rx="10"/>
         <rect x="537" y="209" width="24" height="32" class="terminal" rx="10"/>
         <text class="terminal" x="547" y="229">,</text><a xmlns:xlink="http://www.w3.org/1999/xlink" xlink:href="#indexDef" xlink:title="indexDef">
            <rect x="583" y="211" width="76" height="32"/>
            <rect x="581" y="209" width="76" height="32" class="nonterminal"/>
            <text class="nonterminal" x="591" y="229">indexDef</text></a><rect x="171" y="313" width="92" height="32" rx="10"/>
         <rect x="169" y="311" width="92" height="32" class="terminal" rx="10"/>
         <text class="terminal" x="179" y="331">timestamp</text><a xmlns:xlink="http://www.w3.org/1999/xlink" xlink:href="#columnRef" xlink:title="columnRef">
            <rect x="283" y="313" width="86" height="32"/>
            <rect x="281" y="311" width="86" height="32" class="nonterminal"/>
            <text class="nonterminal" x="291" y="331">columnRef</text></a><rect x="409" y="345" width="78" height="32" rx="10"/>
         <rect x="407" y="343" width="78" height="32" class="terminal" rx="10"/>
         <text class="terminal" x="417" y="363">partition</text>
         <rect x="507" y="345" width="36" height="32" rx="10"/>
         <rect x="505" y="343" width="36" height="32" class="terminal" rx="10"/>
         <text class="terminal" x="515" y="363">by</text>
         <rect x="583" y="345" width="58" height="32" rx="10"/>
         <rect x="581" y="343" width="58" height="32" class="terminal" rx="10"/>
         <text class="terminal" x="591" y="363">NONE</text>
         <rect x="583" y="389" width="48" height="32" rx="10"/>
         <rect x="581" y="387" width="48" height="32" class="terminal" rx="10"/>
         <text class="terminal" x="591" y="407">DAY</text>
         <rect x="583" y="433" width="70" height="32" rx="10"/>
         <rect x="581" y="431" width="70" height="32" class="terminal" rx="10"/>
         <text class="terminal" x="591" y="451">MONTH</text>
         <rect x="583" y="477" width="56" height="32" rx="10"/>
         <rect x="581" y="475" width="56" height="32" class="terminal" rx="10"/>
         <text class="terminal" x="591" y="495">YEAR</text>
         <svg:path xmlns:svg="http://www.w3.org/2000/svg" class="line" d="m17 17 h2 m0 0 h10 m72 0 h10 m0 0 h10 m62 0 h10 m20 0 h10 m0 0 h202 m-232 0 h20 m212 0 h20 m-252 0 q10 0 10 10 m232 0 q0 -10 10 -10 m-242 10 v12 m232 0 v-12 m-232 12 q0 10 10 10 m212 0 q10 0 10 -10 m-222 10 h10 m34 0 h10 m0 0 h10 m48 0 h10 m0 0 h10 m70 0 h10 m20 -32 h10 m88 0 h10 m2 0 l2 0 m2 0 l2 0 m2 0 l2 0 m-564 142 l2 0 m2 0 l2 0 m2 0 l2 0 m22 0 h10 m26 0 h10 m20 0 h10 m102 0 h10 m0 0 h10 m70 0 h10 m-232 0 l20 0 m-1 0 q-9 0 -9 -10 l0 -24 q0 -10 10 -10 m212 44 l20 0 m-20 0 q10 0 10 -10 l0 -24 q0 -10 -10 -10 m-212 0 h10 m24 0 h10 m0 0 h168 m20 44 h10 m26 0 h10 m0 0 h330 m-694 0 h20 m674 0 h20 m-714 0 q10 0 10 10 m694 0 q0 -10 10 -10 m-704 10 v46 m694 0 v-46 m-694 46 q0 10 10 10 m674 0 q10 0 10 -10 m-684 10 h10 m34 0 h10 m0 0 h10 m26 0 h10 m0 0 h10 m76 0 h10 m0 0 h10 m26 0 h10 m40 0 h10 m24 0 h10 m0 0 h10 m68 0 h10 m-152 0 l20 0 m-1 0 q-9 0 -9 -10 l0 -12 q0 -10 10 -10 m132 32 l20 0 m-20 0 q10 0 10 -10 l0 -12 q0 -10 -10 -10 m-132 0 h10 m0 0 h122 m-172 32 h20 m172 0 h20 m-212 0 q10 0 10 10 m192 0 q0 -10 10 -10 m-202 10 v14 m192 0 v-14 m-192 14 q0 10 10 10 m172 0 q10 0 10 -10 m-182 10 h10 m0 0 h162 m60 -34 h10 m24 0 h10 m0 0 h10 m76 0 h10 m-160 0 l20 0 m-1 0 q-9 0 -9 -10 l0 -12 q0 -10 10 -10 m140 32 l20 0 m-20 0 q10 0 10 -10 l0 -12 q0 -10 -10 -10 m-140 0 h10 m0 0 h130 m-180 32 h20 m180 0 h20 m-220 0 q10 0 10 10 m200 0 q0 -10 10 -10 m-210 10 v14 m200 0 v-14 m-200 14 q0 10 10 10 m180 0 q10 0 10 -10 m-190 10 h10 m0 0 h170 m42 -100 l2 0 m2 0 l2 0 m2 0 l2 0 m-612 136 l2 0 m2 0 l2 0 m2 0 l2 0 m22 0 h10 m0 0 h532 m-562 0 h20 m542 0 h20 m-582 0 q10 0 10 10 m562 0 q0 -10 10 -10 m-572 10 v12 m562 0 v-12 m-562 12 q0 10 10 10 m542 0 q10 0 10 -10 m-552 10 h10 m92 0 h10 m0 0 h10 m86 0 h10 m20 0 h10 m0 0 h274 m-304 0 h20 m284 0 h20 m-324 0 q10 0 10 10 m304 0 q0 -10 10 -10 m-314 10 v12 m304 0 v-12 m-304 12 q0 10 10 10 m284 0 q10 0 10 -10 m-294 10 h10 m78 0 h10 m0 0 h10 m36 0 h10 m20 0 h10 m58 0 h10 m0 0 h12 m-110 0 h20 m90 0 h20 m-130 0 q10 0 10 10 m110 0 q0 -10 10 -10 m-120 10 v24 m110 0 v-24 m-110 24 q0 10 10 10 m90 0 q10 0 10 -10 m-100 10 h10 m48 0 h10 m0 0 h22 m-100 -10 v20 m110 0 v-20 m-110 20 v24 m110 0 v-24 m-110 24 q0 10 10 10 m90 0 q10 0 10 -10 m-100 10 h10 m70 0 h10 m-100 -10 v20 m110 0 v-20 m-110 20 v24 m110 0 v-24 m-110 24 q0 10 10 10 m90 0 q10 0 10 -10 m-100 10 h10 m56 0 h10 m0 0 h14 m63 -196 h-3"/>
         <polygon points="731 295 739 291 739 299"/>
         <polygon points="731 295 723 291 723 299"/></svg>
