<svg xmlns="http://www.w3.org/2000/svg" width="980" height="475">
        <defs>
            <style type="text/css">
                @namespace "http://www.w3.org/2000/svg";
                .line                 {fill: none; stroke: #636273;}
                .bold-line            {stroke: #636273; shape-rendering: crispEdges; stroke-width: 2; }
                .thin-line            {stroke: #636273; shape-rendering: crispEdges}
                .filled               {fill: #636273; stroke: none;}
                text.terminal         {font-family: -apple-system, BlinkMacSystemFont, "Segoe UI", Roboto, Ubuntu, Cantarell, Helvetica, sans-serif;
                font-size: 12px;
                fill: #ffffff;
                font-weight: bold;
                }
                text.nonterminal      {font-family: -apple-system, BlinkMacSystemFont, "Segoe UI", Roboto, Ubuntu, Cantarell, Helvetica, sans-serif;
                font-size: 12px;
                fill: #e289a4;
                font-weight: normal;
                }
                text.regexp           {font-family: -apple-system, BlinkMacSystemFont, "Segoe UI", Roboto, Ubuntu, Cantarell, Helvetica, sans-serif;
                font-size: 12px;
                fill: #00141F;
                font-weight: normal;
                }
                rect, circle, polygon {fill: none; stroke: none;}
                rect.terminal         {fill: none; stroke: #be2f5b;}
                rect.nonterminal      {fill: rgba(255,255,255,0.1); stroke: none;}
                rect.text             {fill: none; stroke: none;}
                polygon.regexp        {fill: #C7ECFF; stroke: #038cbc;}
            </style>
        </defs>
        <polygon points="9 17 1 13 1 21"/>
         <polygon points="17 17 9 13 9 21"/>
         <rect x="31" y="3" width="70" height="32" rx="10"/>
         <rect x="29" y="1" width="70" height="32" class="terminal" rx="10"/>
         <text class="terminal" x="39" y="21">INSERT</text>
         <rect x="141" y="35" width="56" height="32" rx="10"/>
         <rect x="139" y="33" width="56" height="32" class="terminal" rx="10"/>
         <text class="terminal" x="149" y="53">batch</text><a xmlns:xlink="http://www.w3.org/1999/xlink" xlink:href="#batchCount" xlink:title="batchCount">
            <rect x="217" y="35" width="92" height="32"/>
            <rect x="215" y="33" width="92" height="32" class="nonterminal"/>
            <text class="nonterminal" x="225" y="53">batchCount</text></a><rect x="329" y="35" width="94" height="32" rx="10"/>
         <rect x="327" y="33" width="94" height="32" class="terminal" rx="10"/>
         <text class="terminal" x="337" y="53">commitLag</text><a xmlns:xlink="http://www.w3.org/1999/xlink" xlink:href="#n" xlink:title="n">
            <rect x="443" y="35" width="28" height="32"/>
            <rect x="441" y="33" width="28" height="32" class="nonterminal"/>
            <text class="nonterminal" x="451" y="53">n</text></a><rect x="511" y="35" width="36" height="32" rx="10"/>
         <rect x="509" y="33" width="36" height="32" class="terminal" rx="10"/>
         <text class="terminal" x="519" y="53">us</text>
         <rect x="511" y="79" width="26" height="32" rx="10"/>
         <rect x="509" y="77" width="26" height="32" class="terminal" rx="10"/>
         <text class="terminal" x="519" y="97">s</text>
         <rect x="511" y="123" width="32" height="32" rx="10"/>
         <rect x="509" y="121" width="32" height="32" class="terminal" rx="10"/>
         <text class="terminal" x="519" y="141">m</text>
         <rect x="511" y="167" width="28" height="32" rx="10"/>
         <rect x="509" y="165" width="28" height="32" class="terminal" rx="10"/>
         <text class="terminal" x="519" y="185">h</text>
         <rect x="511" y="211" width="28" height="32" rx="10"/>
         <rect x="509" y="209" width="28" height="32" class="terminal" rx="10"/>
         <text class="terminal" x="519" y="229">d</text>
         <rect x="607" y="3" width="56" height="32" rx="10"/>
         <rect x="605" y="1" width="56" height="32" class="terminal" rx="10"/>
         <text class="terminal" x="615" y="21">INTO</text><a xmlns:xlink="http://www.w3.org/1999/xlink" xlink:href="#tableName" xlink:title="tableName">
            <rect x="683" y="3" width="88" height="32"/>
            <rect x="681" y="1" width="88" height="32" class="nonterminal"/>
            <text class="nonterminal" x="691" y="21">tableName</text></a><rect x="89" y="365" width="26" height="32" rx="10"/>
         <rect x="87" y="363" width="26" height="32" class="terminal" rx="10"/>
         <text class="terminal" x="97" y="383">(</text><a xmlns:xlink="http://www.w3.org/1999/xlink" xlink:href="#columnName" xlink:title="columnName">
            <rect x="155" y="365" width="102" height="32"/>
            <rect x="153" y="363" width="102" height="32" class="nonterminal"/>
            <text class="nonterminal" x="163" y="383">columnName</text></a><rect x="155" y="321" width="24" height="32" rx="10"/>
         <rect x="153" y="319" width="24" height="32" class="terminal" rx="10"/>
         <text class="terminal" x="163" y="339">,</text>
         <rect x="297" y="365" width="26" height="32" rx="10"/>
         <rect x="295" y="363" width="26" height="32" class="terminal" rx="10"/>
         <text class="terminal" x="305" y="383">)</text>
         <rect x="383" y="365" width="72" height="32" rx="10"/>
         <rect x="381" y="363" width="72" height="32" class="terminal" rx="10"/>
         <text class="terminal" x="391" y="383">VALUES</text>
         <rect x="495" y="365" width="26" height="32" rx="10"/>
         <rect x="493" y="363" width="26" height="32" class="terminal" rx="10"/>
         <text class="terminal" x="503" y="383">(</text><a xmlns:xlink="http://www.w3.org/1999/xlink" xlink:href="#value" xlink:title="value">
            <rect x="561" y="365" width="54" height="32"/>
            <rect x="559" y="363" width="54" height="32" class="nonterminal"/>
            <text class="nonterminal" x="569" y="383">value</text></a><rect x="561" y="321" width="24" height="32" rx="10"/>
         <rect x="559" y="319" width="24" height="32" class="terminal" rx="10"/>
         <text class="terminal" x="569" y="339">,</text>
         <rect x="655" y="365" width="26" height="32" rx="10"/>
         <rect x="653" y="363" width="26" height="32" class="terminal" rx="10"/>
         <text class="terminal" x="663" y="383">)</text>
         <rect x="495" y="277" width="24" height="32" rx="10"/>
         <rect x="493" y="275" width="24" height="32" class="terminal" rx="10"/>
         <text class="terminal" x="503" y="295">,</text>
         <rect x="383" y="409" width="70" height="32" rx="10"/>
         <rect x="381" y="407" width="70" height="32" class="terminal" rx="10"/>
         <text class="terminal" x="391" y="427">SELECT</text><a xmlns:xlink="http://www.w3.org/1999/xlink" xlink:href="#queryDef" xlink:title="queryDef">
            <rect x="473" y="409" width="78" height="32"/>
            <rect x="471" y="407" width="78" height="32" class="nonterminal"/>
            <text class="nonterminal" x="481" y="427">queryDef</text></a><rect x="741" y="365" width="24" height="32" rx="10"/>
         <rect x="739" y="363" width="24" height="32" class="terminal" rx="10"/>
         <text class="terminal" x="749" y="383">;</text>
         <svg:path xmlns:svg="http://www.w3.org/2000/svg" class="line" d="m17 17 h2 m0 0 h10 m70 0 h10 m20 0 h10 m0 0 h436 m-466 0 h20 m446 0 h20 m-486 0 q10 0 10 10 m466 0 q0 -10 10 -10 m-476 10 v12 m466 0 v-12 m-466 12 q0 10 10 10 m446 0 q10 0 10 -10 m-456 10 h10 m56 0 h10 m0 0 h10 m92 0 h10 m0 0 h10 m94 0 h10 m0 0 h10 m28 0 h10 m20 0 h10 m36 0 h10 m-76 0 h20 m56 0 h20 m-96 0 q10 0 10 10 m76 0 q0 -10 10 -10 m-86 10 v24 m76 0 v-24 m-76 24 q0 10 10 10 m56 0 q10 0 10 -10 m-66 10 h10 m26 0 h10 m0 0 h10 m-66 -10 v20 m76 0 v-20 m-76 20 v24 m76 0 v-24 m-76 24 q0 10 10 10 m56 0 q10 0 10 -10 m-66 10 h10 m32 0 h10 m0 0 h4 m-66 -10 v20 m76 0 v-20 m-76 20 v24 m76 0 v-24 m-76 24 q0 10 10 10 m56 0 q10 0 10 -10 m-66 10 h10 m28 0 h10 m0 0 h8 m-66 -10 v20 m76 0 v-20 m-76 20 v24 m76 0 v-24 m-76 24 q0 10 10 10 m56 0 q10 0 10 -10 m-66 10 h10 m28 0 h10 m0 0 h8 m40 -208 h10 m56 0 h10 m0 0 h10 m88 0 h10 m2 0 l2 0 m2 0 l2 0 m2 0 l2 0 m-746 362 l2 0 m2 0 l2 0 m2 0 l2 0 m22 0 h10 m26 0 h10 m20 0 h10 m102 0 h10 m-142 0 l20 0 m-1 0 q-9 0 -9 -10 l0 -24 q0 -10 10 -10 m122 44 l20 0 m-20 0 q10 0 10 -10 l0 -24 q0 -10 -10 -10 m-122 0 h10 m24 0 h10 m0 0 h78 m20 44 h10 m26 0 h10 m-274 0 h20 m254 0 h20 m-294 0 q10 0 10 10 m274 0 q0 -10 10 -10 m-284 10 v14 m274 0 v-14 m-274 14 q0 10 10 10 m254 0 q10 0 10 -10 m-264 10 h10 m0 0 h244 m40 -34 h10 m72 0 h10 m20 0 h10 m26 0 h10 m20 0 h10 m54 0 h10 m-94 0 l20 0 m-1 0 q-9 0 -9 -10 l0 -24 q0 -10 10 -10 m74 44 l20 0 m-20 0 q10 0 10 -10 l0 -24 q0 -10 -10 -10 m-74 0 h10 m24 0 h10 m0 0 h30 m20 44 h10 m26 0 h10 m-226 0 l20 0 m-1 0 q-9 0 -9 -10 l0 -68 q0 -10 10 -10 m206 88 l20 0 m-20 0 q10 0 10 -10 l0 -68 q0 -10 -10 -10 m-206 0 h10 m24 0 h10 m0 0 h162 m-338 88 h20 m338 0 h20 m-378 0 q10 0 10 10 m358 0 q0 -10 10 -10 m-368 10 v24 m358 0 v-24 m-358 24 q0 10 10 10 m338 0 q10 0 10 -10 m-348 10 h10 m70 0 h10 m0 0 h10 m78 0 h10 m0 0 h150 m20 -44 h10 m24 0 h10 m3 0 h-3"/>
         <polygon points="783 379 791 375 791 383"/>
         <polygon points="783 379 775 375 775 383"/></svg>
