<svg xmlns="http://www.w3.org/2000/svg" width="980" height="125">
        <defs>
            <style type="text/css">
                @namespace "http://www.w3.org/2000/svg";
                .line                 {fill: none; stroke: #636273;}
                .bold-line            {stroke: #636273; shape-rendering: crispEdges; stroke-width: 2; }
                .thin-line            {stroke: #636273; shape-rendering: crispEdges}
                .filled               {fill: #636273; stroke: none;}
                text.terminal         {font-family: -apple-system, BlinkMacSystemFont, "Segoe UI", Roboto, Ubuntu, Cantarell, Helvetica, sans-serif;
                font-size: 12px;
                fill: #ffffff;
                font-weight: bold;
                }
                text.nonterminal      {font-family: -apple-system, BlinkMacSystemFont, "Segoe UI", Roboto, Ubuntu, Cantarell, Helvetica, sans-serif;
                font-size: 12px;
                fill: #e289a4;
                font-weight: normal;
                }
                text.regexp           {font-family: -apple-system, BlinkMacSystemFont, "Segoe UI", Roboto, Ubuntu, Cantarell, Helvetica, sans-serif;
                font-size: 12px;
                fill: #00141F;
                font-weight: normal;
                }
                rect, circle, polygon {fill: none; stroke: none;}
                rect.terminal         {fill: none; stroke: #be2f5b;}
                rect.nonterminal      {fill: rgba(255,255,255,0.1); stroke: none;}
                rect.text             {fill: none; stroke: none;}
                polygon.regexp        {fill: #C7ECFF; stroke: #038cbc;}
            </style>
        </defs>
        <polygon points="9 61 1 57 1 65"/>
         <polygon points="17 61 9 57 9 65"/>
         <rect x="31" y="47" width="70" height="32" rx="10"/>
         <rect x="29" y="45" width="70" height="32" class="terminal" rx="10"/>
         <text class="terminal" x="39" y="65">INSERT</text><a xmlns:xlink="http://www.w3.org/1999/xlink" xlink:href="#batch" xlink:title="batch">
            <rect x="141" y="79" width="54" height="32"/>
            <rect x="139" y="77" width="54" height="32" class="nonterminal"/>
            <text class="nonterminal" x="149" y="97">batch</text></a><a xmlns:xlink="http://www.w3.org/1999/xlink" xlink:href="#batchCount" xlink:title="batchCount">
            <rect x="215" y="79" width="92" height="32"/>
            <rect x="213" y="77" width="92" height="32" class="nonterminal"/>
            <text class="nonterminal" x="223" y="97">batchCount</text></a><a xmlns:xlink="http://www.w3.org/1999/xlink" xlink:href="#lag" xlink:title="lag">
            <rect x="327" y="79" width="38" height="32"/>
            <rect x="325" y="77" width="38" height="32" class="nonterminal"/>
            <text class="nonterminal" x="335" y="97">lag</text></a><a xmlns:xlink="http://www.w3.org/1999/xlink" xlink:href="#lagAmount" xlink:title="lagAmount">
            <rect x="385" y="79" width="88" height="32"/>
            <rect x="383" y="77" width="88" height="32" class="nonterminal"/>
            <text class="nonterminal" x="393" y="97">lagAmount</text></a><rect x="513" y="47" width="56" height="32" rx="10"/>
         <rect x="511" y="45" width="56" height="32" class="terminal" rx="10"/>
         <text class="terminal" x="521" y="65">INTO</text><a xmlns:xlink="http://www.w3.org/1999/xlink" xlink:href="#tableName" xlink:title="tableName">
            <rect x="589" y="47" width="88" height="32"/>
            <rect x="587" y="45" width="88" height="32" class="nonterminal"/>
            <text class="nonterminal" x="597" y="65">tableName</text></a><rect x="717" y="47" width="26" height="32" rx="10"/>
         <rect x="715" y="45" width="26" height="32" class="terminal" rx="10"/>
         <text class="terminal" x="725" y="65">(</text><a xmlns:xlink="http://www.w3.org/1999/xlink" xlink:href="#columnName" xlink:title="columnName">
            <rect x="783" y="47" width="102" height="32"/>
            <rect x="781" y="45" width="102" height="32" class="nonterminal"/>
            <text class="nonterminal" x="791" y="65">columnName</text></a><rect x="783" y="3" width="24" height="32" rx="10"/>
         <rect x="781" y="1" width="24" height="32" class="terminal" rx="10"/>
         <text class="terminal" x="791" y="21">,</text>
         <rect x="925" y="47" width="26" height="32" rx="10"/>
         <rect x="923" y="45" width="26" height="32" class="terminal" rx="10"/>
         <text class="terminal" x="933" y="65">)</text>
         <rect x="667" y="189" width="72" height="32" rx="10"/>
         <rect x="665" y="187" width="72" height="32" class="terminal" rx="10"/>
         <text class="terminal" x="675" y="207">VALUES</text>
         <rect x="759" y="189" width="26" height="32" rx="10"/>
         <rect x="757" y="187" width="26" height="32" class="terminal" rx="10"/>
         <text class="terminal" x="767" y="207">(</text><a xmlns:xlink="http://www.w3.org/1999/xlink" xlink:href="#value" xlink:title="value">
            <rect x="825" y="189" width="54" height="32"/>
            <rect x="823" y="187" width="54" height="32" class="nonterminal"/>
            <text class="nonterminal" x="833" y="207">value</text></a><rect x="825" y="145" width="24" height="32" rx="10"/>
         <rect x="823" y="143" width="24" height="32" class="terminal" rx="10"/>
         <text class="terminal" x="833" y="163">,</text>
         <rect x="919" y="189" width="26" height="32" rx="10"/>
         <rect x="917" y="187" width="26" height="32" class="terminal" rx="10"/>
         <text class="terminal" x="927" y="207">)</text>
         <rect x="667" y="233" width="70" height="32" rx="10"/>
         <rect x="665" y="231" width="70" height="32" class="terminal" rx="10"/>
         <text class="terminal" x="675" y="251">SELECT</text><a xmlns:xlink="http://www.w3.org/1999/xlink" xlink:href="#queryDef" xlink:title="queryDef">
            <rect x="757" y="233" width="78" height="32"/>
            <rect x="755" y="231" width="78" height="32" class="nonterminal"/>
            <text class="nonterminal" x="765" y="251">queryDef</text></a><svg:path xmlns:svg="http://www.w3.org/2000/svg" class="line" d="m17 61 h2 m0 0 h10 m70 0 h10 m20 0 h10 m0 0 h342 m-372 0 h20 m352 0 h20 m-392 0 q10 0 10 10 m372 0 q0 -10 10 -10 m-382 10 v12 m372 0 v-12 m-372 12 q0 10 10 10 m352 0 q10 0 10 -10 m-362 10 h10 m54 0 h10 m0 0 h10 m92 0 h10 m0 0 h10 m38 0 h10 m0 0 h10 m88 0 h10 m20 -32 h10 m56 0 h10 m0 0 h10 m88 0 h10 m20 0 h10 m26 0 h10 m20 0 h10 m102 0 h10 m-142 0 l20 0 m-1 0 q-9 0 -9 -10 l0 -24 q0 -10 10 -10 m122 44 l20 0 m-20 0 q10 0 10 -10 l0 -24 q0 -10 -10 -10 m-122 0 h10 m24 0 h10 m0 0 h78 m20 44 h10 m26 0 h10 m-274 0 h20 m254 0 h20 m-294 0 q10 0 10 10 m274 0 q0 -10 10 -10 m-284 10 v14 m274 0 v-14 m-274 14 q0 10 10 10 m254 0 q10 0 10 -10 m-264 10 h10 m0 0 h244 m22 -34 l2 0 m2 0 l2 0 m2 0 l2 0 m-368 142 l2 0 m2 0 l2 0 m2 0 l2 0 m22 0 h10 m72 0 h10 m0 0 h10 m26 0 h10 m20 0 h10 m54 0 h10 m-94 0 l20 0 m-1 0 q-9 0 -9 -10 l0 -24 q0 -10 10 -10 m74 44 l20 0 m-20 0 q10 0 10 -10 l0 -24 q0 -10 -10 -10 m-74 0 h10 m24 0 h10 m0 0 h30 m20 44 h10 m26 0 h10 m-318 0 h20 m298 0 h20 m-338 0 q10 0 10 10 m318 0 q0 -10 10 -10 m-328 10 v24 m318 0 v-24 m-318 24 q0 10 10 10 m298 0 q10 0 10 -10 m-308 10 h10 m70 0 h10 m0 0 h10 m78 0 h10 m0 0 h110 m23 -44 h-3"/>
         <polygon points="983 203 991 199 991 207"/>
         <polygon points="983 203 975 199 975 207"/></svg>
