<svg xmlns="http://www.w3.org/2000/svg" width="980" height="350">
        <defs>
            <style type="text/css">
                @namespace "http://www.w3.org/2000/svg";
                .line                 {fill: none; stroke: #636273;}
                .bold-line            {stroke: #636273; shape-rendering: crispEdges; stroke-width: 2; }
                .thin-line            {stroke: #636273; shape-rendering: crispEdges}
                .filled               {fill: #636273; stroke: none;}
                text.terminal         {font-family: -apple-system, BlinkMacSystemFont, "Segoe UI", Roboto, Ubuntu, Cantarell, Helvetica, sans-serif;
                font-size: 12px;
                fill: #ffffff;
                font-weight: bold;
                }
                text.nonterminal      {font-family: -apple-system, BlinkMacSystemFont, "Segoe UI", Roboto, Ubuntu, Cantarell, Helvetica, sans-serif;
                font-size: 12px;
                fill: #e289a4;
                font-weight: normal;
                }
                text.regexp           {font-family: -apple-system, BlinkMacSystemFont, "Segoe UI", Roboto, Ubuntu, Cantarell, Helvetica, sans-serif;
                font-size: 12px;
                fill: #00141F;
                font-weight: normal;
                }
                rect, circle, polygon {fill: none; stroke: none;}
                rect.terminal         {fill: none; stroke: #be2f5b;}
                rect.nonterminal      {fill: rgba(255,255,255,0.1); stroke: none;}
                rect.text             {fill: none; stroke: none;}
                polygon.regexp        {fill: #C7ECFF; stroke: #038cbc;}
            </style>
           </defs>
         <polygon points="9 61 1 57 1 65"/>
         <polygon points="17 61 9 57 9 65"/>
         <rect x="31" y="47" width="70" height="32" rx="10"/>
         <rect x="29" y="45" width="70" height="32" class="terminal" rx="10"/>
         <text class="terminal" x="39" y="65">INSERT</text>
         <rect x="141" y="79" width="56" height="32" rx="10"/>
         <rect x="139" y="77" width="56" height="32" class="terminal" rx="10"/>
         <text class="terminal" x="149" y="97">batch</text><a xmlns:xlink="http://www.w3.org/1999/xlink" xlink:href="#batchCount" xlink:title="batchCount">
            <rect x="217" y="79" width="92" height="32"/>
            <rect x="215" y="77" width="92" height="32" class="nonterminal"/>
            <text class="nonterminal" x="225" y="97">batchCount</text></a><rect x="349" y="47" width="56" height="32" rx="10"/>
         <rect x="347" y="45" width="56" height="32" class="terminal" rx="10"/>
         <text class="terminal" x="357" y="65">INTO</text><a xmlns:xlink="http://www.w3.org/1999/xlink" xlink:href="#tableName" xlink:title="tableName">
            <rect x="425" y="47" width="88" height="32"/>
            <rect x="423" y="45" width="88" height="32" class="nonterminal"/>
            <text class="nonterminal" x="433" y="65">tableName</text></a><rect x="553" y="47" width="26" height="32" rx="10"/>
         <rect x="551" y="45" width="26" height="32" class="terminal" rx="10"/>
         <text class="terminal" x="561" y="65">(</text><a xmlns:xlink="http://www.w3.org/1999/xlink" xlink:href="#columnName" xlink:title="columnName">
            <rect x="619" y="47" width="102" height="32"/>
            <rect x="617" y="45" width="102" height="32" class="nonterminal"/>
            <text class="nonterminal" x="627" y="65">columnName</text></a><rect x="619" y="3" width="24" height="32" rx="10"/>
         <rect x="617" y="1" width="24" height="32" class="terminal" rx="10"/>
         <text class="terminal" x="627" y="21">,</text>
         <rect x="761" y="47" width="26" height="32" rx="10"/>
         <rect x="759" y="45" width="26" height="32" class="terminal" rx="10"/>
         <text class="terminal" x="769" y="65">)</text>
         <rect x="419" y="233" width="72" height="32" rx="10"/>
         <rect x="417" y="231" width="72" height="32" class="terminal" rx="10"/>
         <text class="terminal" x="427" y="251">VALUES</text>
         <rect x="531" y="233" width="26" height="32" rx="10"/>
         <rect x="529" y="231" width="26" height="32" class="terminal" rx="10"/>
         <text class="terminal" x="539" y="251">(</text><a xmlns:xlink="http://www.w3.org/1999/xlink" xlink:href="#value" xlink:title="value">
            <rect x="597" y="233" width="54" height="32"/>
            <rect x="595" y="231" width="54" height="32" class="nonterminal"/>
            <text class="nonterminal" x="605" y="251">value</text></a><rect x="597" y="189" width="24" height="32" rx="10"/>
         <rect x="595" y="187" width="24" height="32" class="terminal" rx="10"/>
         <text class="terminal" x="605" y="207">,</text>
         <rect x="691" y="233" width="26" height="32" rx="10"/>
         <rect x="689" y="231" width="26" height="32" class="terminal" rx="10"/>
         <text class="terminal" x="699" y="251">)</text>
         <rect x="531" y="145" width="24" height="32" rx="10"/>
         <rect x="529" y="143" width="24" height="32" class="terminal" rx="10"/>
         <text class="terminal" x="539" y="163">,</text>
         <rect x="419" y="277" width="70" height="32" rx="10"/>
         <rect x="417" y="275" width="70" height="32" class="terminal" rx="10"/>
         <text class="terminal" x="427" y="295">SELECT</text><a xmlns:xlink="http://www.w3.org/1999/xlink" xlink:href="#queryDef" xlink:title="queryDef">
            <rect x="509" y="277" width="78" height="32"/>
            <rect x="507" y="275" width="78" height="32" class="nonterminal"/>
            <text class="nonterminal" x="517" y="295">queryDef</text></a><a xmlns:xlink="http://www.w3.org/1999/xlink" xlink:href="#mainQuery" xlink:title="mainQuery">
            <rect x="607" y="277" width="88" height="32"/>
            <rect x="605" y="275" width="88" height="32" class="nonterminal"/>
            <text class="nonterminal" x="615" y="295">mainQuery</text></a><rect x="777" y="233" width="24" height="32" rx="10"/>
         <rect x="775" y="231" width="24" height="32" class="terminal" rx="10"/>
         <text class="terminal" x="785" y="251">;</text>
         <path xmlns:svg="http://www.w3.org/2000/svg" class="line" d="m17 61 h2 m0 0 h10 m70 0 h10 m20 0 h10 m0 0 h178 m-208 0 h20 m188 0 h20 m-228 0 q10 0 10 10 m208 0 q0 -10 10 -10 m-218 10 v12 m208 0 v-12 m-208 12 q0 10 10 10 m188 0 q10 0 10 -10 m-198 10 h10 m56 0 h10 m0 0 h10 m92 0 h10 m20 -32 h10 m56 0 h10 m0 0 h10 m88 0 h10 m20 0 h10 m26 0 h10 m20 0 h10 m102 0 h10 m-142 0 l20 0 m-1 0 q-9 0 -9 -10 l0 -24 q0 -10 10 -10 m122 44 l20 0 m-20 0 q10 0 10 -10 l0 -24 q0 -10 -10 -10 m-122 0 h10 m24 0 h10 m0 0 h78 m20 44 h10 m26 0 h10 m-274 0 h20 m254 0 h20 m-294 0 q10 0 10 10 m274 0 q0 -10 10 -10 m-284 10 v14 m274 0 v-14 m-274 14 q0 10 10 10 m254 0 q10 0 10 -10 m-264 10 h10 m0 0 h244 m22 -34 l2 0 m2 0 l2 0 m2 0 l2 0 m-452 186 l2 0 m2 0 l2 0 m2 0 l2 0 m22 0 h10 m72 0 h10 m20 0 h10 m26 0 h10 m20 0 h10 m54 0 h10 m-94 0 l20 0 m-1 0 q-9 0 -9 -10 l0 -24 q0 -10 10 -10 m74 44 l20 0 m-20 0 q10 0 10 -10 l0 -24 q0 -10 -10 -10 m-74 0 h10 m24 0 h10 m0 0 h30 m20 44 h10 m26 0 h10 m-226 0 l20 0 m-1 0 q-9 0 -9 -10 l0 -68 q0 -10 10 -10 m206 88 l20 0 m-20 0 q10 0 10 -10 l0 -68 q0 -10 -10 -10 m-206 0 h10 m24 0 h10 m0 0 h162 m-338 88 h20 m338 0 h20 m-378 0 q10 0 10 10 m358 0 q0 -10 10 -10 m-368 10 v24 m358 0 v-24 m-358 24 q0 10 10 10 m338 0 q10 0 10 -10 m-348 10 h10 m70 0 h10 m0 0 h10 m78 0 h10 m0 0 h10 m88 0 h10 m0 0 h42 m20 -44 h10 m24 0 h10 m3 0 h-3"/>
         <polygon points="819 247 827 243 827 251"/>
         <polygon points="819 247 811 243 811 251"/></svg>