<svg xmlns="http://www.w3.org/2000/svg" width="1000
" height="240">
    <defs>
        <style type="text/css">
            @namespace "http://www.w3.org/2000/svg";
                .line                 {fill: none; stroke: #636273;}
                .bold-line            {stroke: #636273; shape-rendering: crispEdges; stroke-width: 2; }
                .thin-line            {stroke: #636273; shape-rendering: crispEdges}
                .filled               {fill: #636273; stroke: none;}
                text.terminal         {font-family: -apple-system, BlinkMacSystemFont, "Segoe UI", Roboto, Ubuntu, Cantarell, Helvetica, sans-serif;
                font-size: 12px;
                fill: #ffffff;
                font-weight: bold;
                }
                text.nonterminal      {font-family: -apple-system, BlinkMacSystemFont, "Segoe UI", Roboto, Ubuntu, Cantarell, Helvetica, sans-serif;
                font-size: 12px;
                fill: #e289a4;
                font-weight: normal;
                }
                text.regexp           {font-family: -apple-system, BlinkMacSystemFont, "Segoe UI", Roboto, Ubuntu, Cantarell, Helvetica, sans-serif;
                font-size: 12px;
                fill: #00141F;
                font-weight: normal;
                }
                rect, circle, polygon {fill: none; stroke: none;}
                rect.terminal         {fill: none; stroke: #be2f5b;}
                rect.nonterminal      {fill: rgba(255,255,255,0.1); stroke: none;}
                rect.text             {fill: none; stroke: none;}
                polygon.regexp        {fill: #C7ECFF; stroke: #038cbc;}
        </style>
        </defs>
         <polygon points="9 33 1 29 1 37"/>
         <polygon points="17 33 9 29 9 37"/>
         <rect x="31" y="19" width="80" height="32" rx="10"/>
         <rect x="29" y="17" width="80" height="32" class="terminal" rx="10"/>
         <text class="terminal" x="39" y="37">REINDEX</text>
         <rect x="131" y="19" width="62" height="32" rx="10"/>
         <rect x="129" y="17" width="62" height="32" class="terminal" rx="10"/>
         <text class="terminal" x="139" y="37">TABLE</text><a xmlns:xlink="http://www.w3.org/1999/xlink" xlink:href="#tableName" xlink:title="tableName">
            <rect x="213" y="19" width="88" height="32"/>
            <rect x="211" y="17" width="88" height="32" class="nonterminal"/>
            <text class="nonterminal" x="221" y="37">tableName</text></a><rect x="361" y="19" width="76" height="32" rx="10"/>
         <rect x="359" y="17" width="76" height="32" class="terminal" rx="10"/>
         <text class="terminal" x="369" y="37">COLUMN</text><a xmlns:xlink="http://www.w3.org/1999/xlink" xlink:href="#columnName" xlink:title="columnName">
            <rect x="457" y="19" width="102" height="32"/>
            <rect x="455" y="17" width="102" height="32" class="nonterminal"/>
            <text class="nonterminal" x="465" y="37">columnName</text></a><rect x="659" y="19" width="98" height="32" rx="10"/>
         <rect x="657" y="17" width="98" height="32" class="terminal" rx="10"/>
         <text class="terminal" x="667" y="37">PARTITION</text><a xmlns:xlink="http://www.w3.org/1999/xlink" xlink:href="#partitionName" xlink:title="partitionName">
            <rect x="777" y="19" width="110" height="32"/>
            <rect x="775" y="17" width="110" height="32" class="nonterminal"/>
            <text class="nonterminal" x="785" y="37">partitionName</text></a><rect x="749" y="101" width="56" height="32" rx="10"/>
         <rect x="747" y="99" width="56" height="32" class="terminal" rx="10"/>
         <text class="terminal" x="757" y="119">LOCK</text>
         <rect x="825" y="101" width="96" height="32" rx="10"/>
         <rect x="823" y="99" width="96" height="32" class="terminal" rx="10"/>
         <text class="terminal" x="833" y="119">EXCLUSIVE</text>
         <path xmlns:svg="http://www.w3.org/2000/svg" class="line" d="m17 33 h2 m0 0 h10 m80 0 h10 m0 0 h10 m62 0 h10 m0 0 h10 m88 0 h10 m40 0 h10 m76 0 h10 m0 0 h10 m102 0 h10 m-238 0 l20 0 m-1 0 q-9 0 -9 -10 l0 -12 q0 -10 10 -10 m218 32 l20 0 m-20 0 q10 0 10 -10 l0 -12 q0 -10 -10 -10 m-218 0 h10 m0 0 h208 m-258 32 h20 m258 0 h20 m-298 0 q10 0 10 10 m278 0 q0 -10 10 -10 m-288 10 v14 m278 0 v-14 m-278 14 q0 10 10 10 m258 0 q10 0 10 -10 m-268 10 h10 m0 0 h248 m60 -34 h10 m98 0 h10 m0 0 h10 m110 0 h10 m-268 0 l20 0 m-1 0 q-9 0 -9 -10 l0 -12 q0 -10 10 -10 m248 32 l20 0 m-20 0 q10 0 10 -10 l0 -12 q0 -10 -10 -10 m-248 0 h10 m0 0 h238 m-288 32 h20 m288 0 h20 m-328 0 q10 0 10 10 m308 0 q0 -10 10 -10 m-318 10 v14 m308 0 v-14 m-308 14 q0 10 10 10 m288 0 q10 0 10 -10 m-298 10 h10 m0 0 h278 m22 -34 l2 0 m2 0 l2 0 m2 0 l2 0 m-222 82 l2 0 m2 0 l2 0 m2 0 l2 0 m2 0 h10 m56 0 h10 m0 0 h10 m96 0 h10 m3 0 h-3"/>
         <polygon points="939 115 947 111 947 119"/>
         <polygon points="939 115 931 111 931 119"/></svg>