<svg xmlns="http://www.w3.org/2000/svg" width="631" height="220">
    <defs>
        <style type="text/css">
            @namespace "http://www.w3.org/2000/svg";
                .line                 {fill: none; stroke: #636273;}
                .bold-line            {stroke: #636273; shape-rendering: crispEdges; stroke-width: 2; }
                .thin-line            {stroke: #636273; shape-rendering: crispEdges}
                .filled               {fill: #636273; stroke: none;}
                text.terminal         {font-family: -apple-system, BlinkMacSystemFont, "Segoe UI", Roboto, Ubuntu, Cantarell, Helvetica, sans-serif;
                font-size: 12px;
                fill: #ffffff;
                font-weight: bold;
                }
                text.nonterminal      {font-family: -apple-system, BlinkMacSystemFont, "Segoe UI", Roboto, Ubuntu, Cantarell, Helvetica, sans-serif;
                font-size: 12px;
                fill: #e289a4;
                font-weight: normal;
                }
                text.regexp           {font-family: -apple-system, BlinkMacSystemFont, "Segoe UI", Roboto, Ubuntu, Cantarell, Helvetica, sans-serif;
                font-size: 12px;
                fill: #00141F;
                font-weight: normal;
                }
                rect, circle, polygon {fill: none; stroke: none;}
                rect.terminal         {fill: none; stroke: #be2f5b;}
                rect.nonterminal      {fill: rgba(255,255,255,0.1); stroke: none;}
                rect.text             {fill: none; stroke: none;}
                polygon.regexp        {fill: #C7ECFF; stroke: #038cbc;}
        </style>
    </defs>
        <polygon points="9 51 1 47 1 55"/>
         <polygon points="17 51 9 47 9 55"/><a xmlns:xlink="http://www.w3.org/1999/xlink" xlink:href="#query_1" xlink:title="query_1">
            <rect x="31" y="37" width="72" height="32"/>
            <rect x="29" y="35" width="72" height="32" class="nonterminal"/>
            <text class="nonterminal" x="39" y="55">query_1</text></a><a xmlns:xlink="http://www.w3.org/1999/xlink" xlink:href="#UNION" xlink:title="UNION">
            <rect x="143" y="37" width="60" height="32"/>
            <rect x="141" y="35" width="60" height="32" class="nonterminal"/>
            <text class="nonterminal" x="151" y="55">UNION</text></a><a xmlns:xlink="http://www.w3.org/1999/xlink" xlink:href="#ALL" xlink:title="ALL">
            <rect x="243" y="3" width="42" height="32"/>
            <rect x="241" y="1" width="42" height="32" class="nonterminal"/>
            <text class="nonterminal" x="251" y="21">ALL</text></a><a xmlns:xlink="http://www.w3.org/1999/xlink" xlink:href="#EXCEPT" xlink:title="EXCEPT">
            <rect x="143" y="81" width="68" height="32"/>
            <rect x="141" y="79" width="68" height="32" class="nonterminal"/>
            <text class="nonterminal" x="151" y="99">EXCEPT</text></a><a xmlns:xlink="http://www.w3.org/1999/xlink" xlink:href="#INTERSECT" xlink:title="INTERSECT">
            <rect x="143" y="125" width="88" height="32"/>
            <rect x="141" y="123" width="88" height="32" class="nonterminal"/>
            <text class="nonterminal" x="151" y="143">INTERSECT</text></a><a xmlns:xlink="http://www.w3.org/1999/xlink" xlink:href="#query_2" xlink:title="query_2">
            <rect x="345" y="37" width="72" height="32"/>
            <rect x="343" y="35" width="72" height="32" class="nonterminal"/>
            <text class="nonterminal" x="353" y="55">query_2</text></a><path xmlns:svg="http://www.w3.org/2000/svg" class="line" d="m17 51 h2 m0 0 h10 m72 0 h10 m20 0 h10 m60 0 h10 m20 0 h10 m0 0 h52 m-82 0 l20 0 m-1 0 q-9 0 -9 -10 l0 -14 q0 -10 10 -10 m62 34 l20 0 m-20 0 q10 0 10 -10 l0 -14 q0 -10 -10 -10 m-62 0 h10 m42 0 h10 m-182 34 h20 m182 0 h20 m-222 0 q10 0 10 10 m202 0 q0 -10 10 -10 m-212 10 v24 m202 0 v-24 m-202 24 q0 10 10 10 m182 0 q10 0 10 -10 m-192 10 h10 m68 0 h10 m0 0 h94 m-192 -10 v20 m202 0 v-20 m-202 20 v24 m202 0 v-24 m-202 24 q0 10 10 10 m182 0 q10 0 10 -10 m-192 10 h10 m88 0 h10 m0 0 h74 m20 -88 h10 m72 0 h10 m3 0 h-3"/>
         <polygon points="435 51 443 47 443 55"/>
         <polygon points="435 51 427 47 427 55"/></svg>