<svg xmlns="http://www.w3.org/2000/svg" width="800" height="290">
        <defs>
            <style type="text/css">
                @namespace "http://www.w3.org/2000/svg";
                .line                 {fill: none; stroke: #636273;}
                .bold-line            {stroke: #636273; shape-rendering: crispEdges; stroke-width: 2; }
                .thin-line            {stroke: #636273; shape-rendering: crispEdges}
                .filled               {fill: #636273; stroke: none;}
                text.terminal         {font-family: -apple-system, BlinkMacSystemFont, "Segoe UI", Roboto, Ubuntu, Cantarell, Helvetica, sans-serif;
                font-size: 12px;
                fill: #ffffff;
                font-weight: bold;
                }
                text.nonterminal      {font-family: -apple-system, BlinkMacSystemFont, "Segoe UI", Roboto, Ubuntu, Cantarell, Helvetica, sans-serif;
                font-size: 12px;
                fill: #e289a4;
                font-weight: normal;
                }
                text.regexp           {font-family: -apple-system, BlinkMacSystemFont, "Segoe UI", Roboto, Ubuntu, Cantarell, Helvetica, sans-serif;
                font-size: 12px;
                fill: #00141F;
                font-weight: normal;
                }
                rect, circle, polygon {fill: none; stroke: none;}
                rect.terminal         {fill: none; stroke: #be2f5b;}
                rect.nonterminal      {fill: rgba(255,255,255,0.1); stroke: none;}
                rect.text             {fill: none; stroke: none;}
                polygon.regexp        {fill: #C7ECFF; stroke: #038cbc;}
            </style>
        </defs>
    <polygon points="9 61 1 57 1 65"/>
         <polygon points="17 61 9 57 9 65"/><a xmlns:xlink="http://www.w3.org/1999/xlink" xlink:href="#UPDATE" xlink:title="UPDATE">
            <rect x="31" y="47" width="68" height="32"/>
            <rect x="29" y="45" width="68" height="32" class="nonterminal"/>
            <text class="nonterminal" x="39" y="65">UPDATE</text></a><rect x="119" y="47" width="92" height="32" rx="10"/>
         <rect x="117" y="45" width="92" height="32" class="terminal" rx="10"/>
         <text class="terminal" x="127" y="65">tableName</text><a xmlns:xlink="http://www.w3.org/1999/xlink" xlink:href="#SET" xlink:title="SET">
            <rect x="231" y="47" width="42" height="32"/>
            <rect x="229" y="45" width="42" height="32" class="nonterminal"/>
            <text class="nonterminal" x="239" y="65">SET</text></a><a xmlns:xlink="http://www.w3.org/1999/xlink" xlink:href="#columnName" xlink:title="columnName">
            <rect x="313" y="47" width="102" height="32"/>
            <rect x="311" y="45" width="102" height="32" class="nonterminal"/>
            <text class="nonterminal" x="321" y="65">columnName</text></a><rect x="435" y="47" width="30" height="32" rx="10"/>
         <rect x="433" y="45" width="30" height="32" class="terminal" rx="10"/>
         <text class="terminal" x="443" y="65">=</text>
         <rect x="485" y="47" width="92" height="32" rx="10"/>
         <rect x="483" y="45" width="92" height="32" class="terminal" rx="10"/>
         <text class="terminal" x="493" y="65">expression</text>
         <rect x="313" y="3" width="24" height="32" rx="10"/>
         <rect x="311" y="1" width="24" height="32" class="terminal" rx="10"/>
         <text class="terminal" x="321" y="21">,</text><a xmlns:xlink="http://www.w3.org/1999/xlink" xlink:href="#FROM" xlink:title="FROM">
            <rect x="45" y="129" width="54" height="32"/>
            <rect x="43" y="127" width="54" height="32" class="nonterminal"/>
            <text class="nonterminal" x="53" y="147">FROM</text></a><rect x="119" y="129" width="92" height="32" rx="10"/>
         <rect x="117" y="127" width="92" height="32" class="terminal" rx="10"/>
         <text class="terminal" x="127" y="147">joinTable1</text><a xmlns:xlink="http://www.w3.org/1999/xlink" xlink:href="#JOIN" xlink:title="JOIN">
            <rect x="251" y="161" width="48" height="32"/>
            <rect x="249" y="159" width="48" height="32" class="nonterminal"/>
            <text class="nonterminal" x="259" y="179">JOIN</text></a><rect x="319" y="161" width="92" height="32" rx="10"/>
         <rect x="317" y="159" width="92" height="32" class="terminal" rx="10"/>
         <text class="terminal" x="327" y="179">joinTable2</text><a xmlns:xlink="http://www.w3.org/1999/xlink" xlink:href="#ON" xlink:title="ON">
            <rect x="431" y="161" width="38" height="32"/>
            <rect x="429" y="159" width="38" height="32" class="nonterminal"/>
            <text class="nonterminal" x="439" y="179">ON</text></a><rect x="489" y="161" width="118" height="32" rx="10"/>
         <rect x="487" y="159" width="118" height="32" class="terminal" rx="10"/>
         <text class="terminal" x="497" y="179">joinCondition2</text><a xmlns:xlink="http://www.w3.org/1999/xlink" xlink:href="#WHERE" xlink:title="WHERE">
            <rect x="483" y="247" width="66" height="32"/>
            <rect x="481" y="245" width="66" height="32" class="nonterminal"/>
            <text class="nonterminal" x="491" y="265">WHERE</text></a><rect x="569" y="247" width="52" height="32" rx="10"/>
         <rect x="567" y="245" width="52" height="32" class="terminal" rx="10"/>
         <text class="terminal" x="577" y="265">filter</text>
         <path xmlns:svg="http://www.w3.org/2000/svg" class="line" d="m17 61 h2 m0 0 h10 m68 0 h10 m0 0 h10 m92 0 h10 m0 0 h10 m42 0 h10 m20 0 h10 m102 0 h10 m0 0 h10 m30 0 h10 m0 0 h10 m92 0 h10 m-304 0 l20 0 m-1 0 q-9 0 -9 -10 l0 -24 q0 -10 10 -10 m284 44 l20 0 m-20 0 q10 0 10 -10 l0 -24 q0 -10 -10 -10 m-284 0 h10 m24 0 h10 m0 0 h240 m22 44 l2 0 m2 0 l2 0 m2 0 l2 0 m-616 50 l2 0 m2 0 l2 0 m2 0 l2 0 m22 0 h10 m0 0 h592 m-622 0 h20 m602 0 h20 m-642 0 q10 0 10 10 m622 0 q0 -10 10 -10 m-632 10 v12 m622 0 v-12 m-622 12 q0 10 10 10 m602 0 q10 0 10 -10 m-612 10 h10 m54 0 h10 m0 0 h10 m92 0 h10 m20 0 h10 m0 0 h366 m-396 0 h20 m376 0 h20 m-416 0 q10 0 10 10 m396 0 q0 -10 10 -10 m-406 10 v12 m396 0 v-12 m-396 12 q0 10 10 10 m376 0 q10 0 10 -10 m-386 10 h10 m48 0 h10 m0 0 h10 m92 0 h10 m0 0 h10 m38 0 h10 m0 0 h10 m118 0 h10 m42 -64 l2 0 m2 0 l2 0 m2 0 l2 0 m-228 118 l2 0 m2 0 l2 0 m2 0 l2 0 m22 0 h10 m0 0 h148 m-178 0 h20 m158 0 h20 m-198 0 q10 0 10 10 m178 0 q0 -10 10 -10 m-188 10 v12 m178 0 v-12 m-178 12 q0 10 10 10 m158 0 q10 0 10 -10 m-168 10 h10 m66 0 h10 m0 0 h10 m52 0 h10 m23 -32 h-3"/>
         <polygon points="659 229 667 225 667 233"/>
         <polygon points="659 229 651 225 651 233"/>
</svg>
