<svg xmlns="http://www.w3.org/2000/svg" width="980" height="180">
        <defs>
            <style type="text/css">
                @namespace "http://www.w3.org/2000/svg";
                .line                 {fill: none; stroke: #636273;}
                .bold-line            {stroke: #636273; shape-rendering: crispEdges; stroke-width: 2; }
                .thin-line            {stroke: #636273; shape-rendering: crispEdges}
                .filled               {fill: #636273; stroke: none;}
                text.terminal         {font-family: -apple-system, BlinkMacSystemFont, "Segoe UI", Roboto, Ubuntu, Cantarell, Helvetica, sans-serif;
                font-size: 12px;
                fill: #ffffff;
                font-weight: bold;
                }
                text.nonterminal      {font-family: -apple-system, BlinkMacSystemFont, "Segoe UI", Roboto, Ubuntu, Cantarell, Helvetica, sans-serif;
                font-size: 12px;
                fill: #e289a4;
                font-weight: normal;
                }
                text.regexp           {font-family: -apple-system, BlinkMacSystemFont, "Segoe UI", Roboto, Ubuntu, Cantarell, Helvetica, sans-serif;
                font-size: 12px;
                fill: #00141F;
                font-weight: normal;
                }
                rect, circle, polygon {fill: none; stroke: none;}
                rect.terminal         {fill: none; stroke: #be2f5b;}
                rect.nonterminal      {fill: rgba(255,255,255,0.1); stroke: none;}
                rect.text             {fill: none; stroke: none;}
                polygon.regexp        {fill: #C7ECFF; stroke: #038cbc;}
            </style>
         </defs>
         <polygon points="9 61 1 57 1 65"/>
         <polygon points="17 61 9 57 9 65"/>
         <rect x="51" y="47" width="58" height="32" rx="10"/>
         <rect x="49" y="45" width="58" height="32" class="terminal" rx="10"/>
         <text class="terminal" x="59" y="65">WITH</text><a xmlns:xlink="http://www.w3.org/1999/xlink" xlink:href="#subQueryName" xlink:title="subQueryName">
            <rect x="149" y="47" width="116" height="32"/>
            <rect x="147" y="45" width="116" height="32" class="nonterminal"/>
            <text class="nonterminal" x="157" y="65">subQueryName</text></a><rect x="285" y="47" width="38" height="32" rx="10"/>
         <rect x="283" y="45" width="38" height="32" class="terminal" rx="10"/>
         <text class="terminal" x="293" y="65">AS</text>
         <rect x="343" y="47" width="26" height="32" rx="10"/>
         <rect x="341" y="45" width="26" height="32" class="terminal" rx="10"/>
         <text class="terminal" x="351" y="65">(</text><a xmlns:xlink="http://www.w3.org/1999/xlink" xlink:href="#subQuery" xlink:title="subQuery">
            <rect x="389" y="47" width="80" height="32"/>
            <rect x="387" y="45" width="80" height="32" class="nonterminal"/>
            <text class="nonterminal" x="397" y="65">subQuery</text></a><rect x="489" y="47" width="26" height="32" rx="10"/>
         <rect x="487" y="45" width="26" height="32" class="terminal" rx="10"/>
         <text class="terminal" x="497" y="65">)</text>
         <rect x="149" y="3" width="24" height="32" rx="10"/>
         <rect x="147" y="1" width="24" height="32" class="terminal" rx="10"/>
         <text class="terminal" x="157" y="21">,</text>
         <rect x="575" y="47" width="70" height="32" rx="10"/>
         <rect x="573" y="45" width="70" height="32" class="terminal" rx="10"/>
         <text class="terminal" x="583" y="65">INSERT</text>
         <rect x="685" y="79" width="56" height="32" rx="10"/>
         <rect x="683" y="77" width="56" height="32" class="terminal" rx="10"/>
         <text class="terminal" x="693" y="97">batch</text><a xmlns:xlink="http://www.w3.org/1999/xlink" xlink:href="#batchCount" xlink:title="batchCount">
            <rect x="761" y="79" width="92" height="32"/>
            <rect x="759" y="77" width="92" height="32" class="nonterminal"/>
            <text class="nonterminal" x="769" y="97">batchCount</text></a><rect x="893" y="47" width="56" height="32" rx="10"/>
         <rect x="891" y="45" width="56" height="32" class="terminal" rx="10"/>
         <text class="terminal" x="901" y="65">INTO</text><a xmlns:xlink="http://www.w3.org/1999/xlink" xlink:href="#tableName" xlink:title="tableName">
            <rect x="487" y="145" width="88" height="32"/>
            <rect x="485" y="143" width="88" height="32" class="nonterminal"/>
            <text class="nonterminal" x="495" y="163">tableName</text></a><rect x="595" y="145" width="70" height="32" rx="10"/>
         <rect x="593" y="143" width="70" height="32" class="terminal" rx="10"/>
         <text class="terminal" x="603" y="163">SELECT</text><a xmlns:xlink="http://www.w3.org/1999/xlink" xlink:href="#queryDef" xlink:title="queryDef">
            <rect x="685" y="145" width="78" height="32"/>
            <rect x="683" y="143" width="78" height="32" class="nonterminal"/>
            <text class="nonterminal" x="693" y="163">queryDef</text></a><a xmlns:xlink="http://www.w3.org/1999/xlink" xlink:href="#subQueryName" xlink:title="subQueryName">
            <rect x="783" y="145" width="116" height="32"/>
            <rect x="781" y="143" width="116" height="32" class="nonterminal"/>
            <text class="nonterminal" x="791" y="163">subQueryName</text></a><rect x="919" y="145" width="24" height="32" rx="10"/>
         <rect x="917" y="143" width="24" height="32" class="terminal" rx="10"/>
         <text class="terminal" x="927" y="163">;</text>
         <path xmlns:svg="http://www.w3.org/2000/svg" class="line" d="m17 61 h2 m20 0 h10 m58 0 h10 m20 0 h10 m116 0 h10 m0 0 h10 m38 0 h10 m0 0 h10 m26 0 h10 m0 0 h10 m80 0 h10 m0 0 h10 m26 0 h10 m-406 0 l20 0 m-1 0 q-9 0 -9 -10 l0 -24 q0 -10 10 -10 m386 44 l20 0 m-20 0 q10 0 10 -10 l0 -24 q0 -10 -10 -10 m-386 0 h10 m24 0 h10 m0 0 h342 m-504 44 h20 m504 0 h20 m-544 0 q10 0 10 10 m524 0 q0 -10 10 -10 m-534 10 v14 m524 0 v-14 m-524 14 q0 10 10 10 m504 0 q10 0 10 -10 m-514 10 h10 m0 0 h494 m20 -34 h10 m70 0 h10 m20 0 h10 m0 0 h178 m-208 0 h20 m188 0 h20 m-228 0 q10 0 10 10 m208 0 q0 -10 10 -10 m-218 10 v12 m208 0 v-12 m-208 12 q0 10 10 10 m188 0 q10 0 10 -10 m-198 10 h10 m56 0 h10 m0 0 h10 m92 0 h10 m20 -32 h10 m56 0 h10 m2 0 l2 0 m2 0 l2 0 m2 0 l2 0 m-506 98 l2 0 m2 0 l2 0 m2 0 l2 0 m2 0 h10 m88 0 h10 m0 0 h10 m70 0 h10 m0 0 h10 m78 0 h10 m0 0 h10 m116 0 h10 m0 0 h10 m24 0 h10 m3 0 h-3"/>
         <polygon points="961 159 969 155 969 163"/>
         <polygon points="961 159 953 155 953 163"/></svg>