<svg xmlns="http://www.w3.org/2000/svg" width="980" height="400">
        <defs>
            <style type="text/css">
                @namespace "http://www.w3.org/2000/svg";
                .line                 {fill: none; stroke: #636273;}
                .bold-line            {stroke: #636273; shape-rendering: crispEdges; stroke-width: 2; }
                .thin-line            {stroke: #636273; shape-rendering: crispEdges}
                .filled               {fill: #636273; stroke: none;}
                text.terminal         {font-family: -apple-system, BlinkMacSystemFont, "Segoe UI", Roboto, Ubuntu, Cantarell, Helvetica, sans-serif;
                font-size: 12px;
                fill: #ffffff;
                font-weight: bold;
                }
                text.nonterminal      {font-family: -apple-system, BlinkMacSystemFont, "Segoe UI", Roboto, Ubuntu, Cantarell, Helvetica, sans-serif;
                font-size: 12px;
                fill: #e289a4;
                font-weight: normal;
                }
                text.regexp           {font-family: -apple-system, BlinkMacSystemFont, "Segoe UI", Roboto, Ubuntu, Cantarell, Helvetica, sans-serif;
                font-size: 12px;
                fill: #00141F;
                font-weight: normal;
                }
                rect, circle, polygon {fill: none; stroke: none;}
                rect.terminal         {fill: none; stroke: #be2f5b;}
                rect.nonterminal      {fill: rgba(255,255,255,0.1); stroke: none;}
                rect.text             {fill: none; stroke: none;}
                polygon.regexp        {fill: #C7ECFF; stroke: #038cbc;}
            </style>
        </defs>
         <polygon points="9 61 1 57 1 65"/>
         <polygon points="17 61 9 57 9 65"/>
         <rect x="51" y="47" width="58" height="32" rx="10"/>
         <rect x="49" y="45" width="58" height="32" class="terminal" rx="10"/>
         <text class="terminal" x="59" y="65">WITH</text><a xmlns:xlink="http://www.w3.org/1999/xlink" xlink:href="#subQueryName" xlink:title="subQueryName">
            <rect x="149" y="47" width="116" height="32"/>
            <rect x="147" y="45" width="116" height="32" class="nonterminal"/>
            <text class="nonterminal" x="157" y="65">subQueryName</text></a><rect x="285" y="47" width="38" height="32" rx="10"/>
         <rect x="283" y="45" width="38" height="32" class="terminal" rx="10"/>
         <text class="terminal" x="293" y="65">AS</text>
         <rect x="343" y="47" width="26" height="32" rx="10"/>
         <rect x="341" y="45" width="26" height="32" class="terminal" rx="10"/>
         <text class="terminal" x="351" y="65">(</text><a xmlns:xlink="http://www.w3.org/1999/xlink" xlink:href="#subQuery" xlink:title="subQuery">
            <rect x="389" y="47" width="80" height="32"/>
            <rect x="387" y="45" width="80" height="32" class="nonterminal"/>
            <text class="nonterminal" x="397" y="65">subQuery</text></a><rect x="489" y="47" width="26" height="32" rx="10"/>
         <rect x="487" y="45" width="26" height="32" class="terminal" rx="10"/>
         <text class="terminal" x="497" y="65">)</text>
         <rect x="149" y="3" width="24" height="32" rx="10"/>
         <rect x="147" y="1" width="24" height="32" class="terminal" rx="10"/>
         <text class="terminal" x="157" y="21">,</text>
         <rect x="575" y="47" width="70" height="32" rx="10"/>
         <rect x="573" y="45" width="70" height="32" class="terminal" rx="10"/>
         <text class="terminal" x="583" y="65">INSERT</text>
         <rect x="45" y="161" width="56" height="32" rx="10"/>
         <rect x="43" y="159" width="56" height="32" class="terminal" rx="10"/>
         <text class="terminal" x="53" y="179">batch</text><a xmlns:xlink="http://www.w3.org/1999/xlink" xlink:href="#batchCount" xlink:title="batchCount">
            <rect x="121" y="161" width="92" height="32"/>
            <rect x="119" y="159" width="92" height="32" class="nonterminal"/>
            <text class="nonterminal" x="129" y="179">batchCount</text></a><rect x="233" y="161" width="94" height="32" rx="10"/>
         <rect x="231" y="159" width="94" height="32" class="terminal" rx="10"/>
         <text class="terminal" x="241" y="179">commitLag</text><a xmlns:xlink="http://www.w3.org/1999/xlink" xlink:href="#n" xlink:title="n">
            <rect x="347" y="161" width="28" height="32"/>
            <rect x="345" y="159" width="28" height="32" class="nonterminal"/>
            <text class="nonterminal" x="355" y="179">n</text></a><rect x="415" y="161" width="36" height="32" rx="10"/>
         <rect x="413" y="159" width="36" height="32" class="terminal" rx="10"/>
         <text class="terminal" x="423" y="179">us</text>
         <rect x="415" y="205" width="26" height="32" rx="10"/>
         <rect x="413" y="203" width="26" height="32" class="terminal" rx="10"/>
         <text class="terminal" x="423" y="223">s</text>
         <rect x="415" y="249" width="32" height="32" rx="10"/>
         <rect x="413" y="247" width="32" height="32" class="terminal" rx="10"/>
         <text class="terminal" x="423" y="267">m</text>
         <rect x="415" y="293" width="28" height="32" rx="10"/>
         <rect x="413" y="291" width="28" height="32" class="terminal" rx="10"/>
         <text class="terminal" x="423" y="311">h</text>
         <rect x="415" y="337" width="28" height="32" rx="10"/>
         <rect x="413" y="335" width="28" height="32" class="terminal" rx="10"/>
         <text class="terminal" x="423" y="355">d</text>
         <rect x="511" y="129" width="56" height="32" rx="10"/>
         <rect x="509" y="127" width="56" height="32" class="terminal" rx="10"/>
         <text class="terminal" x="519" y="147">INTO</text><a xmlns:xlink="http://www.w3.org/1999/xlink" xlink:href="#tableName" xlink:title="tableName">
            <rect x="587" y="129" width="88" height="32"/>
            <rect x="585" y="127" width="88" height="32" class="nonterminal"/>
            <text class="nonterminal" x="595" y="147">tableName</text></a><rect x="695" y="129" width="70" height="32" rx="10"/>
         <rect x="693" y="127" width="70" height="32" class="terminal" rx="10"/>
         <text class="terminal" x="703" y="147">SELECT</text><a xmlns:xlink="http://www.w3.org/1999/xlink" xlink:href="#queryDef" xlink:title="queryDef">
            <rect x="785" y="129" width="78" height="32"/>
            <rect x="783" y="127" width="78" height="32" class="nonterminal"/>
            <text class="nonterminal" x="793" y="147">queryDef</text></a><a xmlns:xlink="http://www.w3.org/1999/xlink" xlink:href="#subQueryName" xlink:title="subQueryName">
            <rect x="697" y="403" width="116" height="32"/>
            <rect x="695" y="401" width="116" height="32" class="nonterminal"/>
            <text class="nonterminal" x="705" y="421">subQueryName</text></a><rect x="833" y="403" width="24" height="32" rx="10"/>
         <rect x="831" y="401" width="24" height="32" class="terminal" rx="10"/>
         <text class="terminal" x="841" y="421">;</text>
         <path xmlns:svg="http://www.w3.org/2000/svg" class="line" d="m17 61 h2 m20 0 h10 m58 0 h10 m20 0 h10 m116 0 h10 m0 0 h10 m38 0 h10 m0 0 h10 m26 0 h10 m0 0 h10 m80 0 h10 m0 0 h10 m26 0 h10 m-406 0 l20 0 m-1 0 q-9 0 -9 -10 l0 -24 q0 -10 10 -10 m386 44 l20 0 m-20 0 q10 0 10 -10 l0 -24 q0 -10 -10 -10 m-386 0 h10 m24 0 h10 m0 0 h342 m-504 44 h20 m504 0 h20 m-544 0 q10 0 10 10 m524 0 q0 -10 10 -10 m-534 10 v14 m524 0 v-14 m-524 14 q0 10 10 10 m504 0 q10 0 10 -10 m-514 10 h10 m0 0 h494 m20 -34 h10 m70 0 h10 m2 0 l2 0 m2 0 l2 0 m2 0 l2 0 m-664 82 l2 0 m2 0 l2 0 m2 0 l2 0 m22 0 h10 m0 0 h436 m-466 0 h20 m446 0 h20 m-486 0 q10 0 10 10 m466 0 q0 -10 10 -10 m-476 10 v12 m466 0 v-12 m-466 12 q0 10 10 10 m446 0 q10 0 10 -10 m-456 10 h10 m56 0 h10 m0 0 h10 m92 0 h10 m0 0 h10 m94 0 h10 m0 0 h10 m28 0 h10 m20 0 h10 m36 0 h10 m-76 0 h20 m56 0 h20 m-96 0 q10 0 10 10 m76 0 q0 -10 10 -10 m-86 10 v24 m76 0 v-24 m-76 24 q0 10 10 10 m56 0 q10 0 10 -10 m-66 10 h10 m26 0 h10 m0 0 h10 m-66 -10 v20 m76 0 v-20 m-76 20 v24 m76 0 v-24 m-76 24 q0 10 10 10 m56 0 q10 0 10 -10 m-66 10 h10 m32 0 h10 m0 0 h4 m-66 -10 v20 m76 0 v-20 m-76 20 v24 m76 0 v-24 m-76 24 q0 10 10 10 m56 0 q10 0 10 -10 m-66 10 h10 m28 0 h10 m0 0 h8 m-66 -10 v20 m76 0 v-20 m-76 20 v24 m76 0 v-24 m-76 24 q0 10 10 10 m56 0 q10 0 10 -10 m-66 10 h10 m28 0 h10 m0 0 h8 m40 -208 h10 m56 0 h10 m0 0 h10 m88 0 h10 m0 0 h10 m70 0 h10 m0 0 h10 m78 0 h10 m2 0 l2 0 m2 0 l2 0 m2 0 l2 0 m-210 274 l2 0 m2 0 l2 0 m2 0 l2 0 m2 0 h10 m116 0 h10 m0 0 h10 m24 0 h10 m3 0 h-3"/>
         <polygon points="875 417 883 413 883 421"/>
         <polygon points="875 417 867 413 867 421"/></svg>