<svg xmlns="http://www.w3.org/2000/svg" width="651" height="170">
    <defs>
        <style type="text/css">
            @namespace "http://www.w3.org/2000/svg";
            .line                 {fill: none; stroke: #636273;}
            .bold-line            {stroke: #636273; shape-rendering: crispEdges; stroke-width: 2; }
            .thin-line            {stroke: #636273; shape-rendering: crispEdges}
            .filled               {fill: #636273; stroke: none;}
            text.terminal         {font-family: -apple-system, BlinkMacSystemFont, "Segoe UI", Roboto, Ubuntu, Cantarell, Helvetica, sans-serif;
            font-size: 12px;
            fill: #ffffff;
            font-weight: bold;
            }
            text.nonterminal      {font-family: -apple-system, BlinkMacSystemFont, "Segoe UI", Roboto, Ubuntu, Cantarell, Helvetica, sans-serif;
            font-size: 12px;
            fill: #e289a4;
            font-weight: normal;
            }
            text.regexp           {font-family: -apple-system, BlinkMacSystemFont, "Segoe UI", Roboto, Ubuntu, Cantarell, Helvetica, sans-serif;
            font-size: 12px;
            fill: #00141F;
            font-weight: normal;
            }
            rect, circle, polygon {fill: none; stroke: none;}
            rect.terminal         {fill: none; stroke: #be2f5b;}
            rect.nonterminal      {fill: rgba(255,255,255,0.1); stroke: none;}
            rect.text             {fill: none; stroke: none;}
            polygon.regexp        {fill: #C7ECFF; stroke: #038cbc;}
        </style>
        </defs>
         <polygon points="9 61 1 57 1 65"/>
         <polygon points="17 61 9 57 9 65"/>
         <rect x="31" y="47" width="58" height="32" rx="10"/>
         <rect x="29" y="45" width="58" height="32" class="terminal" rx="10"/>
         <text class="terminal" x="39" y="65">WITH</text><a xmlns:xlink="http://www.w3.org/1999/xlink" xlink:href="#alias" xlink:title="alias">
            <rect x="129" y="47" width="50" height="32"/>
            <rect x="127" y="45" width="50" height="32" class="nonterminal"/>
            <text class="nonterminal" x="137" y="65">alias</text></a><rect x="199" y="47" width="38" height="32" rx="10"/>
         <rect x="197" y="45" width="38" height="32" class="terminal" rx="10"/>
         <text class="terminal" x="207" y="65">AS</text>
         <rect x="257" y="47" width="26" height="32" rx="10"/>
         <rect x="255" y="45" width="26" height="32" class="terminal" rx="10"/>
         <text class="terminal" x="265" y="65">(</text><a xmlns:xlink="http://www.w3.org/1999/xlink" xlink:href="#subQuery" xlink:title="subQuery">
            <rect x="303" y="47" width="80" height="32"/>
            <rect x="301" y="45" width="80" height="32" class="nonterminal"/>
            <text class="nonterminal" x="311" y="65">subQuery</text></a><rect x="403" y="47" width="26" height="32" rx="10"/>
         <rect x="401" y="45" width="26" height="32" class="terminal" rx="10"/>
         <text class="terminal" x="411" y="65">)</text>
         <rect x="129" y="3" width="24" height="32" rx="10"/>
         <rect x="127" y="1" width="24" height="32" class="terminal" rx="10"/>
         <text class="terminal" x="137" y="21">,</text>
         <rect x="489" y="47" width="70" height="32" rx="10"/>
         <rect x="487" y="45" width="70" height="32" class="terminal" rx="10"/>
         <text class="terminal" x="497" y="65">SELECT</text>
         <rect x="489" y="91" width="74" height="32" rx="10"/>
         <rect x="487" y="89" width="74" height="32" class="terminal" rx="10"/>
         <text class="terminal" x="497" y="109">UPDATE</text>
         <rect x="489" y="135" width="70" height="32" rx="10"/>
         <rect x="487" y="133" width="70" height="32" class="terminal" rx="10"/>
         <text class="terminal" x="497" y="153">INSERT</text>
         <path xmlns:svg="http://www.w3.org/2000/svg" class="line" d="m17 61 h2 m0 0 h10 m58 0 h10 m20 0 h10 m50 0 h10 m0 0 h10 m38 0 h10 m0 0 h10 m26 0 h10 m0 0 h10 m80 0 h10 m0 0 h10 m26 0 h10 m-340 0 l20 0 m-1 0 q-9 0 -9 -10 l0 -24 q0 -10 10 -10 m320 44 l20 0 m-20 0 q10 0 10 -10 l0 -24 q0 -10 -10 -10 m-320 0 h10 m24 0 h10 m0 0 h276 m40 44 h10 m70 0 h10 m0 0 h4 m-114 0 h20 m94 0 h20 m-134 0 q10 0 10 10 m114 0 q0 -10 10 -10 m-124 10 v24 m114 0 v-24 m-114 24 q0 10 10 10 m94 0 q10 0 10 -10 m-104 10 h10 m74 0 h10 m-104 -10 v20 m114 0 v-20 m-114 20 v24 m114 0 v-24 m-114 24 q0 10 10 10 m94 0 q10 0 10 -10 m-104 10 h10 m70 0 h10 m0 0 h4 m23 -88 h-3"/>
         <polygon points="601 61 609 57 609 65"/>
         <polygon points="601 61 593 57 593 65"/></svg>