<?xml version="1.0" encoding="utf-8"?>
<svg xmlns="http://www.w3.org/2000/svg" xmlns:xlink="http://www.w3.org/1999/xlink" width="600" height="400" viewBox="0 0 2400 1600">
<defs>
  <clipPath id="clip290">
    <rect x="0" y="0" width="2400" height="1600"/>
  </clipPath>
</defs>
<path clip-path="url(#clip290)" d="
M0 1600 L2400 1600 L2400 0 L0 0  Z
  " fill="#282a36" fill-rule="evenodd" fill-opacity="1"/>
<defs>
  <clipPath id="clip291">
    <rect x="480" y="0" width="1681" height="1600"/>
  </clipPath>
</defs>
<path clip-path="url(#clip290)" d="
M277.431 1486.45 L1153.9 1486.45 L1153.9 47.2441 L277.431 47.2441  Z
  " fill="#30343b" fill-rule="evenodd" fill-opacity="1"/>
<defs>
  <clipPath id="clip292">
    <rect x="277" y="47" width="877" height="1440"/>
  </clipPath>
</defs>
<polyline clip-path="url(#clip292)" style="stroke:#f8f8f2; stroke-linecap:butt; stroke-linejoin:round; stroke-width:2; stroke-opacity:0.1; fill:none" points="
  302.237,1486.45 302.237,47.2441 
  "/>
<polyline clip-path="url(#clip292)" style="stroke:#f8f8f2; stroke-linecap:butt; stroke-linejoin:round; stroke-width:2; stroke-opacity:0.1; fill:none" points="
  689.828,1486.45 689.828,47.2441 
  "/>
<polyline clip-path="url(#clip292)" style="stroke:#f8f8f2; stroke-linecap:butt; stroke-linejoin:round; stroke-width:2; stroke-opacity:0.1; fill:none" points="
  1077.42,1486.45 1077.42,47.2441 
  "/>
<polyline clip-path="url(#clip290)" style="stroke:#f8f8f2; stroke-linecap:butt; stroke-linejoin:round; stroke-width:4; stroke-opacity:1; fill:none" points="
  277.431,1486.45 1153.9,1486.45 
  "/>
<polyline clip-path="url(#clip290)" style="stroke:#f8f8f2; stroke-linecap:butt; stroke-linejoin:round; stroke-width:4; stroke-opacity:1; fill:none" points="
  302.237,1486.45 302.237,1467.55 
  "/>
<polyline clip-path="url(#clip290)" style="stroke:#f8f8f2; stroke-linecap:butt; stroke-linejoin:round; stroke-width:4; stroke-opacity:1; fill:none" points="
  689.828,1486.45 689.828,1467.55 
  "/>
<polyline clip-path="url(#clip290)" style="stroke:#f8f8f2; stroke-linecap:butt; stroke-linejoin:round; stroke-width:4; stroke-opacity:1; fill:none" points="
  1077.42,1486.45 1077.42,1467.55 
  "/>
<path clip-path="url(#clip290)" d="M174.031 1544.91 L190.351 1544.91 L190.351 1548.85 L168.406 1548.85 L168.406 1544.91 Q171.068 1542.16 175.652 1537.53 Q180.258 1532.88 181.439 1531.53 Q183.684 1529.01 184.564 1527.27 Q185.467 1525.51 185.467 1523.82 Q185.467 1521.07 183.522 1519.33 Q181.601 1517.6 178.499 1517.6 Q176.3 1517.6 173.846 1518.36 Q171.416 1519.13 168.638 1520.68 L168.638 1515.95 Q171.462 1514.82 173.916 1514.24 Q176.369 1513.66 178.406 1513.66 Q183.777 1513.66 186.971 1516.35 Q190.166 1519.03 190.166 1523.52 Q190.166 1525.65 189.355 1527.57 Q188.568 1529.47 186.462 1532.07 Q185.883 1532.74 182.781 1535.95 Q179.68 1539.15 174.031 1544.91 Z" fill="#f8f8f2" fill-rule="evenodd" fill-opacity="1" /><path clip-path="url(#clip290)" d="M214.332 1530.21 Q217.689 1530.93 219.564 1533.2 Q221.462 1535.47 221.462 1538.8 Q221.462 1543.92 217.943 1546.72 Q214.425 1549.52 207.943 1549.52 Q205.767 1549.52 203.453 1549.08 Q201.161 1548.66 198.707 1547.81 L198.707 1543.29 Q200.652 1544.43 202.966 1545.01 Q205.281 1545.58 207.804 1545.58 Q212.202 1545.58 214.494 1543.85 Q216.809 1542.11 216.809 1538.8 Q216.809 1535.75 214.656 1534.03 Q212.527 1532.3 208.707 1532.3 L204.679 1532.3 L204.679 1528.45 L208.892 1528.45 Q212.341 1528.45 214.17 1527.09 Q215.999 1525.7 215.999 1523.11 Q215.999 1520.45 214.101 1519.03 Q212.226 1517.6 208.707 1517.6 Q206.786 1517.6 204.587 1518.01 Q202.388 1518.43 199.749 1519.31 L199.749 1515.14 Q202.411 1514.4 204.726 1514.03 Q207.064 1513.66 209.124 1513.66 Q214.448 1513.66 217.55 1516.09 Q220.652 1518.5 220.652 1522.62 Q220.652 1525.49 219.008 1527.48 Q217.365 1529.45 214.332 1530.21 Z" fill="#f8f8f2" fill-rule="evenodd" fill-opacity="1" /><path clip-path="url(#clip290)" d="M227.573 1533.96 L240.05 1533.96 L240.05 1537.76 L227.573 1537.76 L227.573 1533.96 Z" fill="#f8f8f2" fill-rule="evenodd" fill-opacity="1" /><path clip-path="url(#clip290)" d="M248.244 1544.91 L255.883 1544.91 L255.883 1518.55 L247.573 1520.21 L247.573 1515.95 L255.837 1514.29 L260.512 1514.29 L260.512 1544.91 L268.151 1544.91 L268.151 1548.85 L248.244 1548.85 L248.244 1544.91 Z" fill="#f8f8f2" fill-rule="evenodd" fill-opacity="1" /><path clip-path="url(#clip290)" d="M287.596 1517.37 Q283.985 1517.37 282.156 1520.93 Q280.35 1524.47 280.35 1531.6 Q280.35 1538.71 282.156 1542.27 Q283.985 1545.82 287.596 1545.82 Q291.23 1545.82 293.035 1542.27 Q294.864 1538.71 294.864 1531.6 Q294.864 1524.47 293.035 1520.93 Q291.23 1517.37 287.596 1517.37 M287.596 1513.66 Q293.406 1513.66 296.461 1518.27 Q299.54 1522.85 299.54 1531.6 Q299.54 1540.33 296.461 1544.94 Q293.406 1549.52 287.596 1549.52 Q281.785 1549.52 278.707 1544.94 Q275.651 1540.33 275.651 1531.6 Q275.651 1522.85 278.707 1518.27 Q281.785 1513.66 287.596 1513.66 Z" fill="#f8f8f2" fill-rule="evenodd" fill-opacity="1" /><path clip-path="url(#clip290)" d="M305.003 1533.96 L317.48 1533.96 L317.48 1537.76 L305.003 1537.76 L305.003 1533.96 Z" fill="#f8f8f2" fill-rule="evenodd" fill-opacity="1" /><path clip-path="url(#clip290)" d="M328.892 1544.91 L345.211 1544.91 L345.211 1548.85 L323.267 1548.85 L323.267 1544.91 Q325.929 1542.16 330.512 1537.53 Q335.119 1532.88 336.299 1531.53 Q338.544 1529.01 339.424 1527.27 Q340.327 1525.51 340.327 1523.82 Q340.327 1521.07 338.382 1519.33 Q336.461 1517.6 333.359 1517.6 Q331.16 1517.6 328.707 1518.36 Q326.276 1519.13 323.498 1520.68 L323.498 1515.95 Q326.322 1514.82 328.776 1514.24 Q331.23 1513.66 333.267 1513.66 Q338.637 1513.66 341.831 1516.35 Q345.026 1519.03 345.026 1523.52 Q345.026 1525.65 344.216 1527.57 Q343.429 1529.47 341.322 1532.07 Q340.743 1532.74 337.642 1535.95 Q334.54 1539.15 328.892 1544.91 Z" fill="#f8f8f2" fill-rule="evenodd" fill-opacity="1" /><path clip-path="url(#clip290)" d="M365.026 1517.37 Q361.415 1517.37 359.586 1520.93 Q357.78 1524.47 357.78 1531.6 Q357.78 1538.71 359.586 1542.27 Q361.415 1545.82 365.026 1545.82 Q368.66 1545.82 370.466 1542.27 Q372.294 1538.71 372.294 1531.6 Q372.294 1524.47 370.466 1520.93 Q368.66 1517.37 365.026 1517.37 M365.026 1513.66 Q370.836 1513.66 373.891 1518.27 Q376.97 1522.85 376.97 1531.6 Q376.97 1540.33 373.891 1544.94 Q370.836 1549.52 365.026 1549.52 Q359.216 1549.52 356.137 1544.94 Q353.081 1540.33 353.081 1531.6 Q353.081 1522.85 356.137 1518.27 Q359.216 1513.66 365.026 1513.66 Z" fill="#f8f8f2" fill-rule="evenodd" fill-opacity="1" /><path clip-path="url(#clip290)" d="M389.215 1544.91 L405.535 1544.91 L405.535 1548.85 L383.59 1548.85 L383.59 1544.91 Q386.252 1542.16 390.836 1537.53 Q395.442 1532.88 396.623 1531.53 Q398.868 1529.01 399.748 1527.27 Q400.651 1525.51 400.651 1523.82 Q400.651 1521.07 398.706 1519.33 Q396.785 1517.6 393.683 1517.6 Q391.484 1517.6 389.03 1518.36 Q386.6 1519.13 383.822 1520.68 L383.822 1515.95 Q386.646 1514.82 389.1 1514.24 Q391.553 1513.66 393.59 1513.66 Q398.961 1513.66 402.155 1516.35 Q405.35 1519.03 405.35 1523.52 Q405.35 1525.65 404.539 1527.57 Q403.752 1529.47 401.646 1532.07 Q401.067 1532.74 397.965 1535.95 Q394.864 1539.15 389.215 1544.91 Z" fill="#f8f8f2" fill-rule="evenodd" fill-opacity="1" /><path clip-path="url(#clip290)" d="M416.16 1544.91 L423.799 1544.91 L423.799 1518.55 L415.488 1520.21 L415.488 1515.95 L423.752 1514.29 L428.428 1514.29 L428.428 1544.91 L436.067 1544.91 L436.067 1548.85 L416.16 1548.85 L416.16 1544.91 Z" fill="#f8f8f2" fill-rule="evenodd" fill-opacity="1" /><path clip-path="url(#clip290)" d="M561.622 1544.91 L577.942 1544.91 L577.942 1548.85 L555.997 1548.85 L555.997 1544.91 Q558.659 1542.16 563.243 1537.53 Q567.849 1532.88 569.03 1531.53 Q571.275 1529.01 572.155 1527.27 Q573.057 1525.51 573.057 1523.82 Q573.057 1521.07 571.113 1519.33 Q569.192 1517.6 566.09 1517.6 Q563.891 1517.6 561.437 1518.36 Q559.007 1519.13 556.229 1520.68 L556.229 1515.95 Q559.053 1514.82 561.507 1514.24 Q563.96 1513.66 565.997 1513.66 Q571.368 1513.66 574.562 1516.35 Q577.756 1519.03 577.756 1523.52 Q577.756 1525.65 576.946 1527.57 Q576.159 1529.47 574.053 1532.07 Q573.474 1532.74 570.372 1535.95 Q567.27 1539.15 561.622 1544.91 Z" fill="#f8f8f2" fill-rule="evenodd" fill-opacity="1" /><path clip-path="url(#clip290)" d="M591.784 1544.91 L608.104 1544.91 L608.104 1548.85 L586.159 1548.85 L586.159 1544.91 Q588.821 1542.16 593.405 1537.53 Q598.011 1532.88 599.192 1531.53 Q601.437 1529.01 602.317 1527.27 Q603.219 1525.51 603.219 1523.82 Q603.219 1521.07 601.275 1519.33 Q599.354 1517.6 596.252 1517.6 Q594.053 1517.6 591.599 1518.36 Q589.168 1519.13 586.391 1520.68 L586.391 1515.95 Q589.215 1514.82 591.668 1514.24 Q594.122 1513.66 596.159 1513.66 Q601.53 1513.66 604.724 1516.35 Q607.918 1519.03 607.918 1523.52 Q607.918 1525.65 607.108 1527.57 Q606.321 1529.47 604.215 1532.07 Q603.636 1532.74 600.534 1535.95 Q597.432 1539.15 591.784 1544.91 Z" fill="#f8f8f2" fill-rule="evenodd" fill-opacity="1" /><path clip-path="url(#clip290)" d="M615.164 1533.96 L627.64 1533.96 L627.64 1537.76 L615.164 1537.76 L615.164 1533.96 Z" fill="#f8f8f2" fill-rule="evenodd" fill-opacity="1" /><path clip-path="url(#clip290)" d="M635.835 1544.91 L643.474 1544.91 L643.474 1518.55 L635.164 1520.21 L635.164 1515.95 L643.427 1514.29 L648.103 1514.29 L648.103 1544.91 L655.742 1544.91 L655.742 1548.85 L635.835 1548.85 L635.835 1544.91 Z" fill="#f8f8f2" fill-rule="evenodd" fill-opacity="1" /><path clip-path="url(#clip290)" d="M669.214 1544.91 L685.534 1544.91 L685.534 1548.85 L663.589 1548.85 L663.589 1544.91 Q666.251 1542.16 670.835 1537.53 Q675.441 1532.88 676.622 1531.53 Q678.867 1529.01 679.747 1527.27 Q680.649 1525.51 680.649 1523.82 Q680.649 1521.07 678.705 1519.33 Q676.784 1517.6 673.682 1517.6 Q671.483 1517.6 669.029 1518.36 Q666.599 1519.13 663.821 1520.68 L663.821 1515.95 Q666.645 1514.82 669.099 1514.24 Q671.552 1513.66 673.589 1513.66 Q678.96 1513.66 682.154 1516.35 Q685.349 1519.03 685.349 1523.52 Q685.349 1525.65 684.538 1527.57 Q683.751 1529.47 681.645 1532.07 Q681.066 1532.74 677.964 1535.95 Q674.862 1539.15 669.214 1544.91 Z" fill="#f8f8f2" fill-rule="evenodd" fill-opacity="1" /><path clip-path="url(#clip290)" d="M692.594 1533.96 L705.071 1533.96 L705.071 1537.76 L692.594 1537.76 L692.594 1533.96 Z" fill="#f8f8f2" fill-rule="evenodd" fill-opacity="1" /><path clip-path="url(#clip290)" d="M716.483 1544.91 L732.802 1544.91 L732.802 1548.85 L710.858 1548.85 L710.858 1544.91 Q713.52 1542.16 718.103 1537.53 Q722.709 1532.88 723.89 1531.53 Q726.135 1529.01 727.015 1527.27 Q727.918 1525.51 727.918 1523.82 Q727.918 1521.07 725.973 1519.33 Q724.052 1517.6 720.95 1517.6 Q718.751 1517.6 716.297 1518.36 Q713.867 1519.13 711.089 1520.68 L711.089 1515.95 Q713.913 1514.82 716.367 1514.24 Q718.821 1513.66 720.858 1513.66 Q726.228 1513.66 729.422 1516.35 Q732.617 1519.03 732.617 1523.52 Q732.617 1525.65 731.807 1527.57 Q731.02 1529.47 728.913 1532.07 Q728.334 1532.74 725.233 1535.95 Q722.131 1539.15 716.483 1544.91 Z" fill="#f8f8f2" fill-rule="evenodd" fill-opacity="1" /><path clip-path="url(#clip290)" d="M752.617 1517.37 Q749.006 1517.37 747.177 1520.93 Q745.371 1524.47 745.371 1531.6 Q745.371 1538.71 747.177 1542.27 Q749.006 1545.82 752.617 1545.82 Q756.251 1545.82 758.056 1542.27 Q759.885 1538.71 759.885 1531.6 Q759.885 1524.47 758.056 1520.93 Q756.251 1517.37 752.617 1517.37 M752.617 1513.66 Q758.427 1513.66 761.482 1518.27 Q764.561 1522.85 764.561 1531.6 Q764.561 1540.33 761.482 1544.94 Q758.427 1549.52 752.617 1549.52 Q746.807 1549.52 743.728 1544.94 Q740.672 1540.33 740.672 1531.6 Q740.672 1522.85 743.728 1518.27 Q746.807 1513.66 752.617 1513.66 Z" fill="#f8f8f2" fill-rule="evenodd" fill-opacity="1" /><path clip-path="url(#clip290)" d="M776.806 1544.91 L793.126 1544.91 L793.126 1548.85 L771.181 1548.85 L771.181 1544.91 Q773.843 1542.16 778.427 1537.53 Q783.033 1532.88 784.214 1531.53 Q786.459 1529.01 787.339 1527.27 Q788.241 1525.51 788.241 1523.82 Q788.241 1521.07 786.297 1519.33 Q784.376 1517.6 781.274 1517.6 Q779.075 1517.6 776.621 1518.36 Q774.191 1519.13 771.413 1520.68 L771.413 1515.95 Q774.237 1514.82 776.691 1514.24 Q779.144 1513.66 781.181 1513.66 Q786.552 1513.66 789.746 1516.35 Q792.941 1519.03 792.941 1523.52 Q792.941 1525.65 792.13 1527.57 Q791.343 1529.47 789.237 1532.07 Q788.658 1532.74 785.556 1535.95 Q782.454 1539.15 776.806 1544.91 Z" fill="#f8f8f2" fill-rule="evenodd" fill-opacity="1" /><path clip-path="url(#clip290)" d="M803.751 1544.91 L811.39 1544.91 L811.39 1518.55 L803.079 1520.21 L803.079 1515.95 L811.343 1514.29 L816.019 1514.29 L816.019 1544.91 L823.658 1544.91 L823.658 1548.85 L803.751 1548.85 L803.751 1544.91 Z" fill="#f8f8f2" fill-rule="evenodd" fill-opacity="1" /><path clip-path="url(#clip290)" d="M949.398 1544.91 L965.718 1544.91 L965.718 1548.85 L943.773 1548.85 L943.773 1544.91 Q946.435 1542.16 951.019 1537.53 Q955.625 1532.88 956.806 1531.53 Q959.051 1529.01 959.931 1527.27 Q960.834 1525.51 960.834 1523.82 Q960.834 1521.07 958.889 1519.33 Q956.968 1517.6 953.866 1517.6 Q951.667 1517.6 949.213 1518.36 Q946.783 1519.13 944.005 1520.68 L944.005 1515.95 Q946.829 1514.82 949.283 1514.24 Q951.736 1513.66 953.773 1513.66 Q959.144 1513.66 962.338 1516.35 Q965.533 1519.03 965.533 1523.52 Q965.533 1525.65 964.722 1527.57 Q963.935 1529.47 961.829 1532.07 Q961.25 1532.74 958.148 1535.95 Q955.047 1539.15 949.398 1544.91 Z" fill="#f8f8f2" fill-rule="evenodd" fill-opacity="1" /><path clip-path="url(#clip290)" d="M985.532 1517.37 Q981.921 1517.37 980.093 1520.93 Q978.287 1524.47 978.287 1531.6 Q978.287 1538.71 980.093 1542.27 Q981.921 1545.82 985.532 1545.82 Q989.167 1545.82 990.972 1542.27 Q992.801 1538.71 992.801 1531.6 Q992.801 1524.47 990.972 1520.93 Q989.167 1517.37 985.532 1517.37 M985.532 1513.66 Q991.343 1513.66 994.398 1518.27 Q997.477 1522.85 997.477 1531.6 Q997.477 1540.33 994.398 1544.94 Q991.343 1549.52 985.532 1549.52 Q979.722 1549.52 976.644 1544.94 Q973.588 1540.33 973.588 1531.6 Q973.588 1522.85 976.644 1518.27 Q979.722 1513.66 985.532 1513.66 Z" fill="#f8f8f2" fill-rule="evenodd" fill-opacity="1" /><path clip-path="url(#clip290)" d="M1002.94 1533.96 L1015.42 1533.96 L1015.42 1537.76 L1002.94 1537.76 L1002.94 1533.96 Z" fill="#f8f8f2" fill-rule="evenodd" fill-opacity="1" /><path clip-path="url(#clip290)" d="M1032.8 1517.37 Q1029.19 1517.37 1027.36 1520.93 Q1025.56 1524.47 1025.56 1531.6 Q1025.56 1538.71 1027.36 1542.27 Q1029.19 1545.82 1032.8 1545.82 Q1036.43 1545.82 1038.24 1542.27 Q1040.07 1538.71 1040.07 1531.6 Q1040.07 1524.47 1038.24 1520.93 Q1036.43 1517.37 1032.8 1517.37 M1032.8 1513.66 Q1038.61 1513.66 1041.67 1518.27 Q1044.75 1522.85 1044.75 1531.6 Q1044.75 1540.33 1041.67 1544.94 Q1038.61 1549.52 1032.8 1549.52 Q1026.99 1549.52 1023.91 1544.94 Q1020.86 1540.33 1020.86 1531.6 Q1020.86 1522.85 1023.91 1518.27 Q1026.99 1513.66 1032.8 1513.66 Z" fill="#f8f8f2" fill-rule="evenodd" fill-opacity="1" /><path clip-path="url(#clip290)" d="M1056.99 1544.91 L1073.31 1544.91 L1073.31 1548.85 L1051.37 1548.85 L1051.37 1544.91 Q1054.03 1542.16 1058.61 1537.53 Q1063.22 1532.88 1064.4 1531.53 Q1066.64 1529.01 1067.52 1527.27 Q1068.43 1525.51 1068.43 1523.82 Q1068.43 1521.07 1066.48 1519.33 Q1064.56 1517.6 1061.46 1517.6 Q1059.26 1517.6 1056.81 1518.36 Q1054.37 1519.13 1051.6 1520.68 L1051.6 1515.95 Q1054.42 1514.82 1056.87 1514.24 Q1059.33 1513.66 1061.37 1513.66 Q1066.74 1513.66 1069.93 1516.35 Q1073.12 1519.03 1073.12 1523.52 Q1073.12 1525.65 1072.31 1527.57 Q1071.53 1529.47 1069.42 1532.07 Q1068.84 1532.74 1065.74 1535.95 Q1062.64 1539.15 1056.99 1544.91 Z" fill="#f8f8f2" fill-rule="evenodd" fill-opacity="1" /><path clip-path="url(#clip290)" d="M1080.37 1533.96 L1092.85 1533.96 L1092.85 1537.76 L1080.37 1537.76 L1080.37 1533.96 Z" fill="#f8f8f2" fill-rule="evenodd" fill-opacity="1" /><path clip-path="url(#clip290)" d="M1104.26 1544.91 L1120.58 1544.91 L1120.58 1548.85 L1098.63 1548.85 L1098.63 1544.91 Q1101.3 1542.16 1105.88 1537.53 Q1110.49 1532.88 1111.67 1531.53 Q1113.91 1529.01 1114.79 1527.27 Q1115.69 1525.51 1115.69 1523.82 Q1115.69 1521.07 1113.75 1519.33 Q1111.83 1517.6 1108.73 1517.6 Q1106.53 1517.6 1104.07 1518.36 Q1101.64 1519.13 1098.87 1520.68 L1098.87 1515.95 Q1101.69 1514.82 1104.14 1514.24 Q1106.6 1513.66 1108.63 1513.66 Q1114 1513.66 1117.2 1516.35 Q1120.39 1519.03 1120.39 1523.52 Q1120.39 1525.65 1119.58 1527.57 Q1118.8 1529.47 1116.69 1532.07 Q1116.11 1532.74 1113.01 1535.95 Q1109.91 1539.15 1104.26 1544.91 Z" fill="#f8f8f2" fill-rule="evenodd" fill-opacity="1" /><path clip-path="url(#clip290)" d="M1140.39 1517.37 Q1136.78 1517.37 1134.95 1520.93 Q1133.15 1524.47 1133.15 1531.6 Q1133.15 1538.71 1134.95 1542.27 Q1136.78 1545.82 1140.39 1545.82 Q1144.03 1545.82 1145.83 1542.27 Q1147.66 1538.71 1147.66 1531.6 Q1147.66 1524.47 1145.83 1520.93 Q1144.03 1517.37 1140.39 1517.37 M1140.39 1513.66 Q1146.2 1513.66 1149.26 1518.27 Q1152.34 1522.85 1152.34 1531.6 Q1152.34 1540.33 1149.26 1544.94 Q1146.2 1549.52 1140.39 1549.52 Q1134.58 1549.52 1131.5 1544.94 Q1128.45 1540.33 1128.45 1531.6 Q1128.45 1522.85 1131.5 1518.27 Q1134.58 1513.66 1140.39 1513.66 Z" fill="#f8f8f2" fill-rule="evenodd" fill-opacity="1" /><path clip-path="url(#clip290)" d="M1164.58 1544.91 L1180.9 1544.91 L1180.9 1548.85 L1158.96 1548.85 L1158.96 1544.91 Q1161.62 1542.16 1166.2 1537.53 Q1170.81 1532.88 1171.99 1531.53 Q1174.24 1529.01 1175.11 1527.27 Q1176.02 1525.51 1176.02 1523.82 Q1176.02 1521.07 1174.07 1519.33 Q1172.15 1517.6 1169.05 1517.6 Q1166.85 1517.6 1164.4 1518.36 Q1161.97 1519.13 1159.19 1520.68 L1159.19 1515.95 Q1162.01 1514.82 1164.47 1514.24 Q1166.92 1513.66 1168.96 1513.66 Q1174.33 1513.66 1177.52 1516.35 Q1180.72 1519.03 1180.72 1523.52 Q1180.72 1525.65 1179.91 1527.57 Q1179.12 1529.47 1177.01 1532.07 Q1176.43 1532.74 1173.33 1535.95 Q1170.23 1539.15 1164.58 1544.91 Z" fill="#f8f8f2" fill-rule="evenodd" fill-opacity="1" /><path clip-path="url(#clip290)" d="M1194.74 1544.91 L1211.06 1544.91 L1211.06 1548.85 L1189.12 1548.85 L1189.12 1544.91 Q1191.78 1542.16 1196.36 1537.53 Q1200.97 1532.88 1202.15 1531.53 Q1204.4 1529.01 1205.28 1527.27 Q1206.18 1525.51 1206.18 1523.82 Q1206.18 1521.07 1204.24 1519.33 Q1202.31 1517.6 1199.21 1517.6 Q1197.01 1517.6 1194.56 1518.36 Q1192.13 1519.13 1189.35 1520.68 L1189.35 1515.95 Q1192.17 1514.82 1194.63 1514.24 Q1197.08 1513.66 1199.12 1513.66 Q1204.49 1513.66 1207.68 1516.35 Q1210.88 1519.03 1210.88 1523.52 Q1210.88 1525.65 1210.07 1527.57 Q1209.28 1529.47 1207.17 1532.07 Q1206.6 1532.74 1203.49 1535.95 Q1200.39 1539.15 1194.74 1544.91 Z" fill="#f8f8f2" fill-rule="evenodd" fill-opacity="1" /><polyline clip-path="url(#clip292)" style="stroke:#f8f8f2; stroke-linecap:butt; stroke-linejoin:round; stroke-width:2; stroke-opacity:0.1; fill:none" points="
  277.431,1281.05 1153.9,1281.05 
  "/>
<polyline clip-path="url(#clip292)" style="stroke:#f8f8f2; stroke-linecap:butt; stroke-linejoin:round; stroke-width:2; stroke-opacity:0.1; fill:none" points="
  277.431,984.158 1153.9,984.158 
  "/>
<polyline clip-path="url(#clip292)" style="stroke:#f8f8f2; stroke-linecap:butt; stroke-linejoin:round; stroke-width:2; stroke-opacity:0.1; fill:none" points="
  277.431,687.263 1153.9,687.263 
  "/>
<polyline clip-path="url(#clip292)" style="stroke:#f8f8f2; stroke-linecap:butt; stroke-linejoin:round; stroke-width:2; stroke-opacity:0.1; fill:none" points="
  277.431,390.368 1153.9,390.368 
  "/>
<polyline clip-path="url(#clip292)" style="stroke:#f8f8f2; stroke-linecap:butt; stroke-linejoin:round; stroke-width:2; stroke-opacity:0.1; fill:none" points="
  277.431,93.472 1153.9,93.472 
  "/>
<polyline clip-path="url(#clip290)" style="stroke:#f8f8f2; stroke-linecap:butt; stroke-linejoin:round; stroke-width:4; stroke-opacity:1; fill:none" points="
  277.431,1486.45 277.431,47.2441 
  "/>
<polyline clip-path="url(#clip290)" style="stroke:#f8f8f2; stroke-linecap:butt; stroke-linejoin:round; stroke-width:4; stroke-opacity:1; fill:none" points="
  277.431,1281.05 296.329,1281.05 
  "/>
<polyline clip-path="url(#clip290)" style="stroke:#f8f8f2; stroke-linecap:butt; stroke-linejoin:round; stroke-width:4; stroke-opacity:1; fill:none" points="
  277.431,984.158 296.329,984.158 
  "/>
<polyline clip-path="url(#clip290)" style="stroke:#f8f8f2; stroke-linecap:butt; stroke-linejoin:round; stroke-width:4; stroke-opacity:1; fill:none" points="
  277.431,687.263 296.329,687.263 
  "/>
<polyline clip-path="url(#clip290)" style="stroke:#f8f8f2; stroke-linecap:butt; stroke-linejoin:round; stroke-width:4; stroke-opacity:1; fill:none" points="
  277.431,390.368 296.329,390.368 
  "/>
<polyline clip-path="url(#clip290)" style="stroke:#f8f8f2; stroke-linecap:butt; stroke-linejoin:round; stroke-width:4; stroke-opacity:1; fill:none" points="
  277.431,93.472 296.329,93.472 
  "/>
<path clip-path="url(#clip290)" d="M54.5569 1300.85 L62.1958 1300.85 L62.1958 1274.48 L53.8856 1276.15 L53.8856 1271.89 L62.1495 1270.22 L66.8254 1270.22 L66.8254 1300.85 L74.4642 1300.85 L74.4642 1304.78 L54.5569 1304.78 L54.5569 1300.85 Z" fill="#f8f8f2" fill-rule="evenodd" fill-opacity="1" /><path clip-path="url(#clip290)" d="M83.9086 1298.9 L88.7928 1298.9 L88.7928 1304.78 L83.9086 1304.78 L83.9086 1298.9 Z" fill="#f8f8f2" fill-rule="evenodd" fill-opacity="1" /><path clip-path="url(#clip290)" d="M108.978 1273.3 Q105.367 1273.3 103.538 1276.86 Q101.733 1280.41 101.733 1287.54 Q101.733 1294.64 103.538 1298.21 Q105.367 1301.75 108.978 1301.75 Q112.612 1301.75 114.418 1298.21 Q116.246 1294.64 116.246 1287.54 Q116.246 1280.41 114.418 1276.86 Q112.612 1273.3 108.978 1273.3 M108.978 1269.6 Q114.788 1269.6 117.844 1274.2 Q120.922 1278.79 120.922 1287.54 Q120.922 1296.26 117.844 1300.87 Q114.788 1305.45 108.978 1305.45 Q103.168 1305.45 100.089 1300.87 Q97.0335 1296.26 97.0335 1287.54 Q97.0335 1278.79 100.089 1274.2 Q103.168 1269.6 108.978 1269.6 Z" fill="#f8f8f2" fill-rule="evenodd" fill-opacity="1" /><path clip-path="url(#clip290)" d="M157.311 1279.32 L146.732 1289.94 L157.311 1300.52 L154.556 1303.32 L143.931 1292.7 L133.306 1303.32 L130.575 1300.52 L141.131 1289.94 L130.575 1279.32 L133.306 1276.52 L143.931 1287.14 L154.556 1276.52 L157.311 1279.32 Z" fill="#f8f8f2" fill-rule="evenodd" fill-opacity="1" /><path clip-path="url(#clip290)" d="M169.672 1300.85 L177.311 1300.85 L177.311 1274.48 L169.001 1276.15 L169.001 1271.89 L177.265 1270.22 L181.94 1270.22 L181.94 1300.85 L189.579 1300.85 L189.579 1304.78 L169.672 1304.78 L169.672 1300.85 Z" fill="#f8f8f2" fill-rule="evenodd" fill-opacity="1" /><path clip-path="url(#clip290)" d="M209.024 1273.3 Q205.413 1273.3 203.584 1276.86 Q201.778 1280.41 201.778 1287.54 Q201.778 1294.64 203.584 1298.21 Q205.413 1301.75 209.024 1301.75 Q212.658 1301.75 214.463 1298.21 Q216.292 1294.64 216.292 1287.54 Q216.292 1280.41 214.463 1276.86 Q212.658 1273.3 209.024 1273.3 M209.024 1269.6 Q214.834 1269.6 217.889 1274.2 Q220.968 1278.79 220.968 1287.54 Q220.968 1296.26 217.889 1300.87 Q214.834 1305.45 209.024 1305.45 Q203.214 1305.45 200.135 1300.87 Q197.079 1296.26 197.079 1287.54 Q197.079 1278.79 200.135 1274.2 Q203.214 1269.6 209.024 1269.6 Z" fill="#f8f8f2" fill-rule="evenodd" fill-opacity="1" /><path clip-path="url(#clip290)" d="M233.645 1252.6 L224.053 1267.59 L233.645 1267.59 L233.645 1252.6 M232.648 1249.29 L237.425 1249.29 L237.425 1267.59 L241.431 1267.59 L241.431 1270.75 L237.425 1270.75 L237.425 1277.37 L233.645 1277.37 L233.645 1270.75 L220.968 1270.75 L220.968 1267.08 L232.648 1249.29 Z" fill="#f8f8f2" fill-rule="evenodd" fill-opacity="1" /><path clip-path="url(#clip290)" d="M57.7745 1003.95 L74.0939 1003.95 L74.0939 1007.89 L52.1495 1007.89 L52.1495 1003.95 Q54.8115 1001.2 59.3949 996.567 Q64.0013 991.914 65.1819 990.571 Q67.4272 988.048 68.3068 986.312 Q69.2096 984.553 69.2096 982.863 Q69.2096 980.108 67.2652 978.372 Q65.3439 976.636 62.2421 976.636 Q60.043 976.636 57.5893 977.4 Q55.1588 978.164 52.381 979.715 L52.381 974.993 Q55.2051 973.858 57.6588 973.28 Q60.1124 972.701 62.1495 972.701 Q67.5198 972.701 70.7142 975.386 Q73.9087 978.071 73.9087 982.562 Q73.9087 984.692 73.0985 986.613 Q72.3115 988.511 70.205 991.104 Q69.6263 991.775 66.5245 994.993 Q63.4226 998.187 57.7745 1003.95 Z" fill="#f8f8f2" fill-rule="evenodd" fill-opacity="1" /><path clip-path="url(#clip290)" d="M83.9086 1002.01 L88.7928 1002.01 L88.7928 1007.89 L83.9086 1007.89 L83.9086 1002.01 Z" fill="#f8f8f2" fill-rule="evenodd" fill-opacity="1" /><path clip-path="url(#clip290)" d="M108.978 976.405 Q105.367 976.405 103.538 979.97 Q101.733 983.511 101.733 990.641 Q101.733 997.747 103.538 1001.31 Q105.367 1004.85 108.978 1004.85 Q112.612 1004.85 114.418 1001.31 Q116.246 997.747 116.246 990.641 Q116.246 983.511 114.418 979.97 Q112.612 976.405 108.978 976.405 M108.978 972.701 Q114.788 972.701 117.844 977.308 Q120.922 981.891 120.922 990.641 Q120.922 999.368 117.844 1003.97 Q114.788 1008.56 108.978 1008.56 Q103.168 1008.56 100.089 1003.97 Q97.0335 999.368 97.0335 990.641 Q97.0335 981.891 100.089 977.308 Q103.168 972.701 108.978 972.701 Z" fill="#f8f8f2" fill-rule="evenodd" fill-opacity="1" /><path clip-path="url(#clip290)" d="M157.311 982.423 L146.732 993.048 L157.311 1003.63 L154.556 1006.43 L143.931 995.803 L133.306 1006.43 L130.575 1003.63 L141.131 993.048 L130.575 982.423 L133.306 979.622 L143.931 990.247 L154.556 979.622 L157.311 982.423 Z" fill="#f8f8f2" fill-rule="evenodd" fill-opacity="1" /><path clip-path="url(#clip290)" d="M169.672 1003.95 L177.311 1003.95 L177.311 977.585 L169.001 979.252 L169.001 974.993 L177.265 973.326 L181.94 973.326 L181.94 1003.95 L189.579 1003.95 L189.579 1007.89 L169.672 1007.89 L169.672 1003.95 Z" fill="#f8f8f2" fill-rule="evenodd" fill-opacity="1" /><path clip-path="url(#clip290)" d="M209.024 976.405 Q205.413 976.405 203.584 979.97 Q201.778 983.511 201.778 990.641 Q201.778 997.747 203.584 1001.31 Q205.413 1004.85 209.024 1004.85 Q212.658 1004.85 214.463 1001.31 Q216.292 997.747 216.292 990.641 Q216.292 983.511 214.463 979.97 Q212.658 976.405 209.024 976.405 M209.024 972.701 Q214.834 972.701 217.889 977.308 Q220.968 981.891 220.968 990.641 Q220.968 999.368 217.889 1003.97 Q214.834 1008.56 209.024 1008.56 Q203.214 1008.56 200.135 1003.97 Q197.079 999.368 197.079 990.641 Q197.079 981.891 200.135 977.308 Q203.214 972.701 209.024 972.701 Z" fill="#f8f8f2" fill-rule="evenodd" fill-opacity="1" /><path clip-path="url(#clip290)" d="M233.645 955.706 L224.053 970.696 L233.645 970.696 L233.645 955.706 M232.648 952.396 L237.425 952.396 L237.425 970.696 L241.431 970.696 L241.431 973.855 L237.425 973.855 L237.425 980.476 L233.645 980.476 L233.645 973.855 L220.968 973.855 L220.968 970.188 L232.648 952.396 Z" fill="#f8f8f2" fill-rule="evenodd" fill-opacity="1" /><path clip-path="url(#clip290)" d="M67.9133 692.356 Q71.2698 693.074 73.1448 695.343 Q75.0429 697.611 75.0429 700.944 Q75.0429 706.06 71.5244 708.861 Q68.0059 711.662 61.5245 711.662 Q59.3486 711.662 57.0338 711.222 Q54.7421 710.805 52.2884 709.949 L52.2884 705.435 Q54.2328 706.569 56.5477 707.148 Q58.8625 707.727 61.3856 707.727 Q65.7837 707.727 68.0754 705.991 Q70.3902 704.255 70.3902 700.944 Q70.3902 697.889 68.2374 696.176 Q66.1078 694.44 62.2884 694.44 L58.2606 694.44 L58.2606 690.597 L62.4735 690.597 Q65.9226 690.597 67.7513 689.231 Q69.58 687.843 69.58 685.25 Q69.58 682.588 67.6819 681.176 Q65.8069 679.741 62.2884 679.741 Q60.3671 679.741 58.168 680.157 Q55.969 680.574 53.3301 681.454 L53.3301 677.287 Q55.9921 676.546 58.3069 676.176 Q60.6449 675.806 62.705 675.806 Q68.0291 675.806 71.1309 678.236 Q74.2327 680.644 74.2327 684.764 Q74.2327 687.634 72.5892 689.625 Q70.9457 691.593 67.9133 692.356 Z" fill="#f8f8f2" fill-rule="evenodd" fill-opacity="1" /><path clip-path="url(#clip290)" d="M83.9086 705.111 L88.7928 705.111 L88.7928 710.991 L83.9086 710.991 L83.9086 705.111 Z" fill="#f8f8f2" fill-rule="evenodd" fill-opacity="1" /><path clip-path="url(#clip290)" d="M108.978 679.509 Q105.367 679.509 103.538 683.074 Q101.733 686.616 101.733 693.745 Q101.733 700.852 103.538 704.417 Q105.367 707.958 108.978 707.958 Q112.612 707.958 114.418 704.417 Q116.246 700.852 116.246 693.745 Q116.246 686.616 114.418 683.074 Q112.612 679.509 108.978 679.509 M108.978 675.806 Q114.788 675.806 117.844 680.412 Q120.922 684.995 120.922 693.745 Q120.922 702.472 117.844 707.079 Q114.788 711.662 108.978 711.662 Q103.168 711.662 100.089 707.079 Q97.0335 702.472 97.0335 693.745 Q97.0335 684.995 100.089 680.412 Q103.168 675.806 108.978 675.806 Z" fill="#f8f8f2" fill-rule="evenodd" fill-opacity="1" /><path clip-path="url(#clip290)" d="M157.311 685.528 L146.732 696.153 L157.311 706.731 L154.556 709.532 L143.931 698.907 L133.306 709.532 L130.575 706.731 L141.131 696.153 L130.575 685.528 L133.306 682.727 L143.931 693.352 L154.556 682.727 L157.311 685.528 Z" fill="#f8f8f2" fill-rule="evenodd" fill-opacity="1" /><path clip-path="url(#clip290)" d="M169.672 707.055 L177.311 707.055 L177.311 680.69 L169.001 682.356 L169.001 678.097 L177.265 676.431 L181.94 676.431 L181.94 707.055 L189.579 707.055 L189.579 710.991 L169.672 710.991 L169.672 707.055 Z" fill="#f8f8f2" fill-rule="evenodd" fill-opacity="1" /><path clip-path="url(#clip290)" d="M209.024 679.509 Q205.413 679.509 203.584 683.074 Q201.778 686.616 201.778 693.745 Q201.778 700.852 203.584 704.417 Q205.413 707.958 209.024 707.958 Q212.658 707.958 214.463 704.417 Q216.292 700.852 216.292 693.745 Q216.292 686.616 214.463 683.074 Q212.658 679.509 209.024 679.509 M209.024 675.806 Q214.834 675.806 217.889 680.412 Q220.968 684.995 220.968 693.745 Q220.968 702.472 217.889 707.079 Q214.834 711.662 209.024 711.662 Q203.214 711.662 200.135 707.079 Q197.079 702.472 197.079 693.745 Q197.079 684.995 200.135 680.412 Q203.214 675.806 209.024 675.806 Z" fill="#f8f8f2" fill-rule="evenodd" fill-opacity="1" /><path clip-path="url(#clip290)" d="M233.645 658.81 L224.053 673.8 L233.645 673.8 L233.645 658.81 M232.648 655.5 L237.425 655.5 L237.425 673.8 L241.431 673.8 L241.431 676.96 L237.425 676.96 L237.425 683.58 L233.645 683.58 L233.645 676.96 L220.968 676.96 L220.968 673.292 L232.648 655.5 Z" fill="#f8f8f2" fill-rule="evenodd" fill-opacity="1" /><path clip-path="url(#clip290)" d="M66.5939 383.609 L54.7884 402.058 L66.5939 402.058 L66.5939 383.609 M65.367 379.535 L71.2466 379.535 L71.2466 402.058 L76.1772 402.058 L76.1772 405.947 L71.2466 405.947 L71.2466 414.095 L66.5939 414.095 L66.5939 405.947 L50.9921 405.947 L50.9921 401.433 L65.367 379.535 Z" fill="#f8f8f2" fill-rule="evenodd" fill-opacity="1" /><path clip-path="url(#clip290)" d="M83.9086 408.216 L88.7928 408.216 L88.7928 414.095 L83.9086 414.095 L83.9086 408.216 Z" fill="#f8f8f2" fill-rule="evenodd" fill-opacity="1" /><path clip-path="url(#clip290)" d="M108.978 382.614 Q105.367 382.614 103.538 386.179 Q101.733 389.72 101.733 396.85 Q101.733 403.956 103.538 407.521 Q105.367 411.063 108.978 411.063 Q112.612 411.063 114.418 407.521 Q116.246 403.956 116.246 396.85 Q116.246 389.72 114.418 386.179 Q112.612 382.614 108.978 382.614 M108.978 378.91 Q114.788 378.91 117.844 383.517 Q120.922 388.1 120.922 396.85 Q120.922 405.577 117.844 410.183 Q114.788 414.766 108.978 414.766 Q103.168 414.766 100.089 410.183 Q97.0335 405.577 97.0335 396.85 Q97.0335 388.1 100.089 383.517 Q103.168 378.91 108.978 378.91 Z" fill="#f8f8f2" fill-rule="evenodd" fill-opacity="1" /><path clip-path="url(#clip290)" d="M157.311 388.632 L146.732 399.257 L157.311 409.836 L154.556 412.637 L143.931 402.012 L133.306 412.637 L130.575 409.836 L141.131 399.257 L130.575 388.632 L133.306 385.831 L143.931 396.456 L154.556 385.831 L157.311 388.632 Z" fill="#f8f8f2" fill-rule="evenodd" fill-opacity="1" /><path clip-path="url(#clip290)" d="M169.672 410.16 L177.311 410.16 L177.311 383.794 L169.001 385.461 L169.001 381.202 L177.265 379.535 L181.94 379.535 L181.94 410.16 L189.579 410.16 L189.579 414.095 L169.672 414.095 L169.672 410.16 Z" fill="#f8f8f2" fill-rule="evenodd" fill-opacity="1" /><path clip-path="url(#clip290)" d="M209.024 382.614 Q205.413 382.614 203.584 386.179 Q201.778 389.72 201.778 396.85 Q201.778 403.956 203.584 407.521 Q205.413 411.063 209.024 411.063 Q212.658 411.063 214.463 407.521 Q216.292 403.956 216.292 396.85 Q216.292 389.72 214.463 386.179 Q212.658 382.614 209.024 382.614 M209.024 378.91 Q214.834 378.91 217.889 383.517 Q220.968 388.1 220.968 396.85 Q220.968 405.577 217.889 410.183 Q214.834 414.766 209.024 414.766 Q203.214 414.766 200.135 410.183 Q197.079 405.577 197.079 396.85 Q197.079 388.1 200.135 383.517 Q203.214 378.91 209.024 378.91 Z" fill="#f8f8f2" fill-rule="evenodd" fill-opacity="1" /><path clip-path="url(#clip290)" d="M233.645 361.915 L224.053 376.905 L233.645 376.905 L233.645 361.915 M232.648 358.605 L237.425 358.605 L237.425 376.905 L241.431 376.905 L241.431 380.064 L237.425 380.064 L237.425 386.685 L233.645 386.685 L233.645 380.064 L220.968 380.064 L220.968 376.397 L232.648 358.605 Z" fill="#f8f8f2" fill-rule="evenodd" fill-opacity="1" /><path clip-path="url(#clip290)" d="M53.793 82.6396 L72.1494 82.6396 L72.1494 86.5748 L58.0754 86.5748 L58.0754 95.047 Q59.0939 94.6998 60.1124 94.5377 Q61.131 94.3525 62.1495 94.3525 Q67.9365 94.3525 71.3161 97.5238 Q74.6957 100.695 74.6957 106.112 Q74.6957 111.69 71.2235 114.792 Q67.7513 117.871 61.4319 117.871 Q59.256 117.871 56.9875 117.501 Q54.7421 117.13 52.3347 116.389 L52.3347 111.69 Q54.418 112.825 56.6402 113.38 Q58.8625 113.936 61.3393 113.936 Q65.3439 113.936 67.6819 111.829 Q70.0198 109.723 70.0198 106.112 Q70.0198 102.501 67.6819 100.394 Q65.3439 98.2877 61.3393 98.2877 Q59.4643 98.2877 57.5893 98.7044 Q55.7375 99.121 53.793 100.001 L53.793 82.6396 Z" fill="#f8f8f2" fill-rule="evenodd" fill-opacity="1" /><path clip-path="url(#clip290)" d="M83.9086 111.32 L88.7928 111.32 L88.7928 117.2 L83.9086 117.2 L83.9086 111.32 Z" fill="#f8f8f2" fill-rule="evenodd" fill-opacity="1" /><path clip-path="url(#clip290)" d="M108.978 85.7183 Q105.367 85.7183 103.538 89.2831 Q101.733 92.8248 101.733 99.9544 Q101.733 107.061 103.538 110.626 Q105.367 114.167 108.978 114.167 Q112.612 114.167 114.418 110.626 Q116.246 107.061 116.246 99.9544 Q116.246 92.8248 114.418 89.2831 Q112.612 85.7183 108.978 85.7183 M108.978 82.0146 Q114.788 82.0146 117.844 86.6211 Q120.922 91.2044 120.922 99.9544 Q120.922 108.681 117.844 113.288 Q114.788 117.871 108.978 117.871 Q103.168 117.871 100.089 113.288 Q97.0335 108.681 97.0335 99.9544 Q97.0335 91.2044 100.089 86.6211 Q103.168 82.0146 108.978 82.0146 Z" fill="#f8f8f2" fill-rule="evenodd" fill-opacity="1" /><path clip-path="url(#clip290)" d="M157.311 91.7368 L146.732 102.362 L157.311 112.94 L154.556 115.741 L143.931 105.116 L133.306 115.741 L130.575 112.94 L141.131 102.362 L130.575 91.7368 L133.306 88.9359 L143.931 99.5608 L154.556 88.9359 L157.311 91.7368 Z" fill="#f8f8f2" fill-rule="evenodd" fill-opacity="1" /><path clip-path="url(#clip290)" d="M169.672 113.264 L177.311 113.264 L177.311 86.8989 L169.001 88.5655 L169.001 84.3063 L177.265 82.6396 L181.94 82.6396 L181.94 113.264 L189.579 113.264 L189.579 117.2 L169.672 117.2 L169.672 113.264 Z" fill="#f8f8f2" fill-rule="evenodd" fill-opacity="1" /><path clip-path="url(#clip290)" d="M209.024 85.7183 Q205.413 85.7183 203.584 89.2831 Q201.778 92.8248 201.778 99.9544 Q201.778 107.061 203.584 110.626 Q205.413 114.167 209.024 114.167 Q212.658 114.167 214.463 110.626 Q216.292 107.061 216.292 99.9544 Q216.292 92.8248 214.463 89.2831 Q212.658 85.7183 209.024 85.7183 M209.024 82.0146 Q214.834 82.0146 217.889 86.6211 Q220.968 91.2044 220.968 99.9544 Q220.968 108.681 217.889 113.288 Q214.834 117.871 209.024 117.871 Q203.214 117.871 200.135 113.288 Q197.079 108.681 197.079 99.9544 Q197.079 91.2044 200.135 86.6211 Q203.214 82.0146 209.024 82.0146 Z" fill="#f8f8f2" fill-rule="evenodd" fill-opacity="1" /><path clip-path="url(#clip290)" d="M233.645 65.0194 L224.053 80.0092 L233.645 80.0092 L233.645 65.0194 M232.648 61.7092 L237.425 61.7092 L237.425 80.0092 L241.431 80.0092 L241.431 83.1689 L237.425 83.1689 L237.425 89.7892 L233.645 89.7892 L233.645 83.1689 L220.968 83.1689 L220.968 79.5014 L232.648 61.7092 Z" fill="#f8f8f2" fill-rule="evenodd" fill-opacity="1" /><polyline clip-path="url(#clip292)" style="stroke:#8be9fd; stroke-linecap:butt; stroke-linejoin:round; stroke-width:4; stroke-opacity:1; fill:none" points="
  302.237,1378.38 308.697,1327.94 315.156,1276.1 321.616,1277.43 328.076,1151.51 334.536,1105.62 340.996,1142.55 347.456,1388.03 353.916,1362.4 360.375,1266.71 
  366.835,1216.71 373.295,1269.75 379.755,1385.77 386.215,1365.36 392.675,1395.66 399.134,1417.37 405.594,1085.78 412.054,1142.16 418.514,1059.94 424.974,1306.44 
  431.434,1189.73 437.894,1402.47 444.353,1394.03 450.813,1271.43 457.273,935.18 463.733,1001.75 470.193,917.797 476.653,1065.19 483.113,1357.11 489.572,1369.27 
  496.032,1170.31 502.492,1179.01 508.952,1210.94 515.412,1265.39 521.872,882.547 528.331,1344.24 534.791,1323.96 541.251,1182.69 547.711,1051.75 554.171,1101.13 
  560.631,1196.91 567.091,980.042 573.55,496.949 580.01,975.671 586.47,974.509 592.93,1221.53 599.39,1328.24 605.85,1426.91 612.309,1204.31 618.769,1291.85 
  625.229,1297.37 631.689,1080.47 638.149,1143.64 644.609,1278.88 651.069,1279.86 657.528,1191.87 663.988,1383.64 670.448,1373.52 676.908,1228.24 683.368,1212.16 
  689.828,1319.67 696.288,1210.28 702.747,1296.64 709.207,1445.72 715.667,1421.18 722.127,1285.44 728.587,1131.5 735.047,1177.41 741.506,1029.73 747.966,1211.58 
  754.426,1359.36 760.886,1419.49 767.346,1337.54 773.806,1161 780.266,852.012 786.725,1030.95 793.185,826.547 799.645,1125.78 806.105,1253.74 812.565,988.993 
  819.025,1015.59 825.484,1119.92 831.944,1155.71 838.404,1190.6 844.864,1400.08 851.324,1383.62 857.784,1274.05 864.244,1187.58 870.703,1131.39 877.163,1038.63 
  883.623,87.9763 890.083,675.013 896.543,1055.16 903.003,423.412 909.463,954.926 915.922,764.108 922.382,881.161 928.842,899.026 935.302,1199.79 941.762,1262.97 
  948.222,1006.3 954.681,1086.39 961.141,1156.49 967.601,1188.09 974.061,905.923 980.521,1251.55 986.981,1383.18 993.441,982.972 999.9,958.925 1006.36,1196.73 
  1012.82,964.036 1019.28,979.671 1025.74,1301 1032.2,1397.17 1038.66,1152.78 1045.12,1156.33 1051.58,1286.42 1058.04,1007.14 1064.5,1077.23 1070.96,1392.42 
  1077.42,1242.24 1083.88,942.553 1090.34,911.436 1096.8,1114.02 1103.26,363.021 1109.72,953.311 1116.18,1328.14 1122.64,1152.76 1129.1,816.987 
  "/>
<path clip-path="url(#clip290)" d="
M645.591 198.898 L1124.69 198.898 L1124.69 95.2176 L645.591 95.2176  Z
  " fill="#282a36" fill-rule="evenodd" fill-opacity="1"/>
<polyline clip-path="url(#clip290)" style="stroke:#f8f8f2; stroke-linecap:butt; stroke-linejoin:round; stroke-width:4; stroke-opacity:1; fill:none" points="
  645.591,198.898 1124.69,198.898 1124.69,95.2176 645.591,95.2176 645.591,198.898 
  "/>
<polyline clip-path="url(#clip290)" style="stroke:#8be9fd; stroke-linecap:butt; stroke-linejoin:round; stroke-width:4; stroke-opacity:1; fill:none" points="
  655.329,147.058 713.761,147.058 
  "/>
<path clip-path="url(#clip290)" d="M723.499 129.778 L729.796 129.778 L745.12 158.689 L745.12 129.778 L749.657 129.778 L749.657 164.338 L743.36 164.338 L728.036 135.426 L728.036 164.338 L723.499 164.338 L723.499 129.778 Z" fill="#f8f8f2" fill-rule="evenodd" fill-opacity="1" /><path clip-path="url(#clip290)" d="M768.823 141.398 Q765.397 141.398 763.407 144.083 Q761.416 146.745 761.416 151.398 Q761.416 156.051 763.383 158.736 Q765.374 161.398 768.823 161.398 Q772.226 161.398 774.217 158.713 Q776.207 156.027 776.207 151.398 Q776.207 146.791 774.217 144.106 Q772.226 141.398 768.823 141.398 M768.823 137.787 Q774.379 137.787 777.55 141.398 Q780.721 145.009 780.721 151.398 Q780.721 157.764 777.55 161.398 Q774.379 165.009 768.823 165.009 Q763.245 165.009 760.073 161.398 Q756.925 157.764 756.925 151.398 Q756.925 145.009 760.073 141.398 Q763.245 137.787 768.823 137.787 Z" fill="#f8f8f2" fill-rule="evenodd" fill-opacity="1" /><path clip-path="url(#clip290)" d="M791.994 131.051 L791.994 138.412 L800.767 138.412 L800.767 141.722 L791.994 141.722 L791.994 155.796 Q791.994 158.967 792.851 159.87 Q793.73 160.773 796.392 160.773 L800.767 160.773 L800.767 164.338 L796.392 164.338 Q791.462 164.338 789.587 162.509 Q787.712 160.657 787.712 155.796 L787.712 141.722 L784.587 141.722 L784.587 138.412 L787.712 138.412 L787.712 131.051 L791.994 131.051 Z" fill="#f8f8f2" fill-rule="evenodd" fill-opacity="1" /><path clip-path="url(#clip290)" d="M806.369 138.412 L810.629 138.412 L810.629 164.338 L806.369 164.338 L806.369 138.412 M806.369 128.319 L810.629 128.319 L810.629 133.713 L806.369 133.713 L806.369 128.319 Z" fill="#f8f8f2" fill-rule="evenodd" fill-opacity="1" /><path clip-path="url(#clip290)" d="M829.587 141.398 Q826.161 141.398 824.17 144.083 Q822.179 146.745 822.179 151.398 Q822.179 156.051 824.147 158.736 Q826.138 161.398 829.587 161.398 Q832.99 161.398 834.98 158.713 Q836.971 156.027 836.971 151.398 Q836.971 146.791 834.98 144.106 Q832.99 141.398 829.587 141.398 M829.587 137.787 Q835.142 137.787 838.314 141.398 Q841.485 145.009 841.485 151.398 Q841.485 157.764 838.314 161.398 Q835.142 165.009 829.587 165.009 Q824.008 165.009 820.837 161.398 Q817.689 157.764 817.689 151.398 Q817.689 145.009 820.837 141.398 Q824.008 137.787 829.587 137.787 Z" fill="#f8f8f2" fill-rule="evenodd" fill-opacity="1" /><path clip-path="url(#clip290)" d="M870.096 148.689 L870.096 164.338 L865.837 164.338 L865.837 148.828 Q865.837 145.148 864.401 143.319 Q862.966 141.49 860.096 141.49 Q856.647 141.49 854.656 143.69 Q852.665 145.889 852.665 149.685 L852.665 164.338 L848.383 164.338 L848.383 138.412 L852.665 138.412 L852.665 142.44 Q854.193 140.102 856.253 138.944 Q858.337 137.787 861.045 137.787 Q865.512 137.787 867.804 140.565 Q870.096 143.319 870.096 148.689 Z" fill="#f8f8f2" fill-rule="evenodd" fill-opacity="1" /><path clip-path="url(#clip290)" d="M890.373 151.305 Q885.211 151.305 883.221 152.486 Q881.23 153.666 881.23 156.514 Q881.23 158.782 882.711 160.125 Q884.216 161.444 886.786 161.444 Q890.327 161.444 892.457 158.944 Q894.61 156.421 894.61 152.254 L894.61 151.305 L890.373 151.305 M898.869 149.546 L898.869 164.338 L894.61 164.338 L894.61 160.402 Q893.151 162.763 890.975 163.898 Q888.799 165.009 885.651 165.009 Q881.67 165.009 879.309 162.787 Q876.971 160.541 876.971 156.791 Q876.971 152.416 879.887 150.194 Q882.827 147.972 888.637 147.972 L894.61 147.972 L894.61 147.555 Q894.61 144.615 892.665 143.018 Q890.744 141.398 887.248 141.398 Q885.026 141.398 882.92 141.93 Q880.813 142.463 878.869 143.527 L878.869 139.592 Q881.207 138.69 883.406 138.25 Q885.605 137.787 887.688 137.787 Q893.313 137.787 896.091 140.703 Q898.869 143.62 898.869 149.546 Z" fill="#f8f8f2" fill-rule="evenodd" fill-opacity="1" /><path clip-path="url(#clip290)" d="M907.642 128.319 L911.901 128.319 L911.901 164.338 L907.642 164.338 L907.642 128.319 Z" fill="#f8f8f2" fill-rule="evenodd" fill-opacity="1" /><path clip-path="url(#clip290)" d="M944.98 164.338 L931.785 129.778 L936.67 129.778 L947.619 158.875 L958.591 129.778 L963.452 129.778 L950.281 164.338 L944.98 164.338 Z" fill="#f8f8f2" fill-rule="evenodd" fill-opacity="1" /><path clip-path="url(#clip290)" d="M974.679 141.398 Q971.253 141.398 969.262 144.083 Q967.271 146.745 967.271 151.398 Q967.271 156.051 969.239 158.736 Q971.23 161.398 974.679 161.398 Q978.081 161.398 980.072 158.713 Q982.063 156.027 982.063 151.398 Q982.063 146.791 980.072 144.106 Q978.081 141.398 974.679 141.398 M974.679 137.787 Q980.234 137.787 983.405 141.398 Q986.577 145.009 986.577 151.398 Q986.577 157.764 983.405 161.398 Q980.234 165.009 974.679 165.009 Q969.1 165.009 965.929 161.398 Q962.78 157.764 962.78 151.398 Q962.78 145.009 965.929 141.398 Q969.1 137.787 974.679 137.787 Z" fill="#f8f8f2" fill-rule="evenodd" fill-opacity="1" /><path clip-path="url(#clip290)" d="M993.637 128.319 L997.896 128.319 L997.896 164.338 L993.637 164.338 L993.637 128.319 Z" fill="#f8f8f2" fill-rule="evenodd" fill-opacity="1" /><path clip-path="url(#clip290)" d="M1006.37 154.106 L1006.37 138.412 L1010.63 138.412 L1010.63 153.944 Q1010.63 157.625 1012.06 159.476 Q1013.5 161.305 1016.37 161.305 Q1019.82 161.305 1021.81 159.106 Q1023.82 156.907 1023.82 153.111 L1023.82 138.412 L1028.08 138.412 L1028.08 164.338 L1023.82 164.338 L1023.82 160.356 Q1022.27 162.717 1020.21 163.875 Q1018.17 165.009 1015.47 165.009 Q1011 165.009 1008.68 162.231 Q1006.37 159.453 1006.37 154.106 M1017.09 137.787 L1017.09 137.787 Z" fill="#f8f8f2" fill-rule="evenodd" fill-opacity="1" /><path clip-path="url(#clip290)" d="M1057.04 143.389 Q1058.64 140.518 1060.86 139.153 Q1063.08 137.787 1066.09 137.787 Q1070.14 137.787 1072.34 140.634 Q1074.54 143.458 1074.54 148.689 L1074.54 164.338 L1070.26 164.338 L1070.26 148.828 Q1070.26 145.102 1068.94 143.296 Q1067.62 141.49 1064.91 141.49 Q1061.6 141.49 1059.68 143.69 Q1057.76 145.889 1057.76 149.685 L1057.76 164.338 L1053.47 164.338 L1053.47 148.828 Q1053.47 145.078 1052.16 143.296 Q1050.84 141.49 1048.08 141.49 Q1044.82 141.49 1042.9 143.713 Q1040.97 145.912 1040.97 149.685 L1040.97 164.338 L1036.69 164.338 L1036.69 138.412 L1040.97 138.412 L1040.97 142.44 Q1042.43 140.055 1044.47 138.921 Q1046.51 137.787 1049.31 137.787 Q1052.13 137.787 1054.1 139.222 Q1056.09 140.657 1057.04 143.389 Z" fill="#f8f8f2" fill-rule="evenodd" fill-opacity="1" /><path clip-path="url(#clip290)" d="M1105.21 150.31 L1105.21 152.393 L1085.63 152.393 Q1085.9 156.791 1088.27 159.106 Q1090.65 161.398 1094.89 161.398 Q1097.34 161.398 1099.63 160.796 Q1101.95 160.194 1104.21 158.99 L1104.21 163.018 Q1101.92 163.99 1099.52 164.5 Q1097.11 165.009 1094.63 165.009 Q1088.43 165.009 1084.79 161.398 Q1081.18 157.787 1081.18 151.629 Q1081.18 145.264 1084.61 141.537 Q1088.06 137.787 1093.89 137.787 Q1099.12 137.787 1102.15 141.166 Q1105.21 144.523 1105.21 150.31 M1100.95 149.06 Q1100.9 145.565 1098.98 143.481 Q1097.09 141.398 1093.94 141.398 Q1090.37 141.398 1088.22 143.412 Q1086.09 145.426 1085.77 149.083 L1100.95 149.06 Z" fill="#f8f8f2" fill-rule="evenodd" fill-opacity="1" /><path clip-path="url(#clip290)" d="
M1476.28 1486.45 L2352.76 1486.45 L2352.76 47.2441 L1476.28 47.2441  Z
  " fill="#30343b" fill-rule="evenodd" fill-opacity="1"/>
<defs>
  <clipPath id="clip293">
    <rect x="1476" y="47" width="877" height="1440"/>
  </clipPath>
</defs>
<polyline clip-path="url(#clip293)" style="stroke:#f8f8f2; stroke-linecap:butt; stroke-linejoin:round; stroke-width:2; stroke-opacity:0.1; fill:none" points="
  1501.09,1486.45 1501.09,47.2441 
  "/>
<polyline clip-path="url(#clip293)" style="stroke:#f8f8f2; stroke-linecap:butt; stroke-linejoin:round; stroke-width:2; stroke-opacity:0.1; fill:none" points="
  1888.68,1486.45 1888.68,47.2441 
  "/>
<polyline clip-path="url(#clip293)" style="stroke:#f8f8f2; stroke-linecap:butt; stroke-linejoin:round; stroke-width:2; stroke-opacity:0.1; fill:none" points="
  2276.27,1486.45 2276.27,47.2441 
  "/>
<polyline clip-path="url(#clip290)" style="stroke:#f8f8f2; stroke-linecap:butt; stroke-linejoin:round; stroke-width:4; stroke-opacity:1; fill:none" points="
  1476.28,1486.45 2352.76,1486.45 
  "/>
<polyline clip-path="url(#clip290)" style="stroke:#f8f8f2; stroke-linecap:butt; stroke-linejoin:round; stroke-width:4; stroke-opacity:1; fill:none" points="
  1501.09,1486.45 1501.09,1467.55 
  "/>
<polyline clip-path="url(#clip290)" style="stroke:#f8f8f2; stroke-linecap:butt; stroke-linejoin:round; stroke-width:4; stroke-opacity:1; fill:none" points="
  1888.68,1486.45 1888.68,1467.55 
  "/>
<polyline clip-path="url(#clip290)" style="stroke:#f8f8f2; stroke-linecap:butt; stroke-linejoin:round; stroke-width:4; stroke-opacity:1; fill:none" points="
  2276.27,1486.45 2276.27,1467.55 
  "/>
<path clip-path="url(#clip290)" d="M1372.88 1544.91 L1389.2 1544.91 L1389.2 1548.85 L1367.26 1548.85 L1367.26 1544.91 Q1369.92 1542.16 1374.5 1537.53 Q1379.11 1532.88 1380.29 1531.53 Q1382.54 1529.01 1383.42 1527.27 Q1384.32 1525.51 1384.32 1523.82 Q1384.32 1521.07 1382.37 1519.33 Q1380.45 1517.6 1377.35 1517.6 Q1375.15 1517.6 1372.7 1518.36 Q1370.27 1519.13 1367.49 1520.68 L1367.49 1515.95 Q1370.31 1514.82 1372.77 1514.24 Q1375.22 1513.66 1377.26 1513.66 Q1382.63 1513.66 1385.82 1516.35 Q1389.02 1519.03 1389.02 1523.52 Q1389.02 1525.65 1388.21 1527.57 Q1387.42 1529.47 1385.31 1532.07 Q1384.74 1532.74 1381.63 1535.95 Q1378.53 1539.15 1372.88 1544.91 Z" fill="#f8f8f2" fill-rule="evenodd" fill-opacity="1" /><path clip-path="url(#clip290)" d="M1413.18 1530.21 Q1416.54 1530.93 1418.42 1533.2 Q1420.31 1535.47 1420.31 1538.8 Q1420.31 1543.92 1416.8 1546.72 Q1413.28 1549.52 1406.8 1549.52 Q1404.62 1549.52 1402.31 1549.08 Q1400.01 1548.66 1397.56 1547.81 L1397.56 1543.29 Q1399.5 1544.43 1401.82 1545.01 Q1404.13 1545.58 1406.66 1545.58 Q1411.06 1545.58 1413.35 1543.85 Q1415.66 1542.11 1415.66 1538.8 Q1415.66 1535.75 1413.51 1534.03 Q1411.38 1532.3 1407.56 1532.3 L1403.53 1532.3 L1403.53 1528.45 L1407.75 1528.45 Q1411.19 1528.45 1413.02 1527.09 Q1414.85 1525.7 1414.85 1523.11 Q1414.85 1520.45 1412.95 1519.03 Q1411.08 1517.6 1407.56 1517.6 Q1405.64 1517.6 1403.44 1518.01 Q1401.24 1518.43 1398.6 1519.31 L1398.6 1515.14 Q1401.26 1514.4 1403.58 1514.03 Q1405.92 1513.66 1407.98 1513.66 Q1413.3 1513.66 1416.4 1516.09 Q1419.5 1518.5 1419.5 1522.62 Q1419.5 1525.49 1417.86 1527.48 Q1416.22 1529.45 1413.18 1530.21 Z" fill="#f8f8f2" fill-rule="evenodd" fill-opacity="1" /><path clip-path="url(#clip290)" d="M1426.43 1533.96 L1438.9 1533.96 L1438.9 1537.76 L1426.43 1537.76 L1426.43 1533.96 Z" fill="#f8f8f2" fill-rule="evenodd" fill-opacity="1" /><path clip-path="url(#clip290)" d="M1447.1 1544.91 L1454.74 1544.91 L1454.74 1518.55 L1446.43 1520.21 L1446.43 1515.95 L1454.69 1514.29 L1459.37 1514.29 L1459.37 1544.91 L1467 1544.91 L1467 1548.85 L1447.1 1548.85 L1447.1 1544.91 Z" fill="#f8f8f2" fill-rule="evenodd" fill-opacity="1" /><path clip-path="url(#clip290)" d="M1486.45 1517.37 Q1482.84 1517.37 1481.01 1520.93 Q1479.2 1524.47 1479.2 1531.6 Q1479.2 1538.71 1481.01 1542.27 Q1482.84 1545.82 1486.45 1545.82 Q1490.08 1545.82 1491.89 1542.27 Q1493.72 1538.71 1493.72 1531.6 Q1493.72 1524.47 1491.89 1520.93 Q1490.08 1517.37 1486.45 1517.37 M1486.45 1513.66 Q1492.26 1513.66 1495.31 1518.27 Q1498.39 1522.85 1498.39 1531.6 Q1498.39 1540.33 1495.31 1544.94 Q1492.26 1549.52 1486.45 1549.52 Q1480.64 1549.52 1477.56 1544.94 Q1474.5 1540.33 1474.5 1531.6 Q1474.5 1522.85 1477.56 1518.27 Q1480.64 1513.66 1486.45 1513.66 Z" fill="#f8f8f2" fill-rule="evenodd" fill-opacity="1" /><path clip-path="url(#clip290)" d="M1503.86 1533.96 L1516.33 1533.96 L1516.33 1537.76 L1503.86 1537.76 L1503.86 1533.96 Z" fill="#f8f8f2" fill-rule="evenodd" fill-opacity="1" /><path clip-path="url(#clip290)" d="M1527.74 1544.91 L1544.06 1544.91 L1544.06 1548.85 L1522.12 1548.85 L1522.12 1544.91 Q1524.78 1542.16 1529.36 1537.53 Q1533.97 1532.88 1535.15 1531.53 Q1537.4 1529.01 1538.28 1527.27 Q1539.18 1525.51 1539.18 1523.82 Q1539.18 1521.07 1537.24 1519.33 Q1535.31 1517.6 1532.21 1517.6 Q1530.01 1517.6 1527.56 1518.36 Q1525.13 1519.13 1522.35 1520.68 L1522.35 1515.95 Q1525.17 1514.82 1527.63 1514.24 Q1530.08 1513.66 1532.12 1513.66 Q1537.49 1513.66 1540.68 1516.35 Q1543.88 1519.03 1543.88 1523.52 Q1543.88 1525.65 1543.07 1527.57 Q1542.28 1529.47 1540.17 1532.07 Q1539.6 1532.74 1536.49 1535.95 Q1533.39 1539.15 1527.74 1544.91 Z" fill="#f8f8f2" fill-rule="evenodd" fill-opacity="1" /><path clip-path="url(#clip290)" d="M1563.88 1517.37 Q1560.27 1517.37 1558.44 1520.93 Q1556.63 1524.47 1556.63 1531.6 Q1556.63 1538.71 1558.44 1542.27 Q1560.27 1545.82 1563.88 1545.82 Q1567.51 1545.82 1569.32 1542.27 Q1571.15 1538.71 1571.15 1531.6 Q1571.15 1524.47 1569.32 1520.93 Q1567.51 1517.37 1563.88 1517.37 M1563.88 1513.66 Q1569.69 1513.66 1572.74 1518.27 Q1575.82 1522.85 1575.82 1531.6 Q1575.82 1540.33 1572.74 1544.94 Q1569.69 1549.52 1563.88 1549.52 Q1558.07 1549.52 1554.99 1544.94 Q1551.93 1540.33 1551.93 1531.6 Q1551.93 1522.85 1554.99 1518.27 Q1558.07 1513.66 1563.88 1513.66 Z" fill="#f8f8f2" fill-rule="evenodd" fill-opacity="1" /><path clip-path="url(#clip290)" d="M1588.07 1544.91 L1604.39 1544.91 L1604.39 1548.85 L1582.44 1548.85 L1582.44 1544.91 Q1585.11 1542.16 1589.69 1537.53 Q1594.29 1532.88 1595.48 1531.53 Q1597.72 1529.01 1598.6 1527.27 Q1599.5 1525.51 1599.5 1523.82 Q1599.5 1521.07 1597.56 1519.33 Q1595.64 1517.6 1592.54 1517.6 Q1590.34 1517.6 1587.88 1518.36 Q1585.45 1519.13 1582.67 1520.68 L1582.67 1515.95 Q1585.5 1514.82 1587.95 1514.24 Q1590.41 1513.66 1592.44 1513.66 Q1597.81 1513.66 1601.01 1516.35 Q1604.2 1519.03 1604.2 1523.52 Q1604.2 1525.65 1603.39 1527.57 Q1602.61 1529.47 1600.5 1532.07 Q1599.92 1532.74 1596.82 1535.95 Q1593.72 1539.15 1588.07 1544.91 Z" fill="#f8f8f2" fill-rule="evenodd" fill-opacity="1" /><path clip-path="url(#clip290)" d="M1615.01 1544.91 L1622.65 1544.91 L1622.65 1518.55 L1614.34 1520.21 L1614.34 1515.95 L1622.61 1514.29 L1627.28 1514.29 L1627.28 1544.91 L1634.92 1544.91 L1634.92 1548.85 L1615.01 1548.85 L1615.01 1544.91 Z" fill="#f8f8f2" fill-rule="evenodd" fill-opacity="1" /><path clip-path="url(#clip290)" d="M1760.48 1544.91 L1776.79 1544.91 L1776.79 1548.85 L1754.85 1548.85 L1754.85 1544.91 Q1757.51 1542.16 1762.1 1537.53 Q1766.7 1532.88 1767.88 1531.53 Q1770.13 1529.01 1771.01 1527.27 Q1771.91 1525.51 1771.91 1523.82 Q1771.91 1521.07 1769.97 1519.33 Q1768.04 1517.6 1764.94 1517.6 Q1762.74 1517.6 1760.29 1518.36 Q1757.86 1519.13 1755.08 1520.68 L1755.08 1515.95 Q1757.91 1514.82 1760.36 1514.24 Q1762.81 1513.66 1764.85 1513.66 Q1770.22 1513.66 1773.41 1516.35 Q1776.61 1519.03 1776.61 1523.52 Q1776.61 1525.65 1775.8 1527.57 Q1775.01 1529.47 1772.91 1532.07 Q1772.33 1532.74 1769.23 1535.95 Q1766.12 1539.15 1760.48 1544.91 Z" fill="#f8f8f2" fill-rule="evenodd" fill-opacity="1" /><path clip-path="url(#clip290)" d="M1790.64 1544.91 L1806.96 1544.91 L1806.96 1548.85 L1785.01 1548.85 L1785.01 1544.91 Q1787.67 1542.16 1792.26 1537.53 Q1796.86 1532.88 1798.04 1531.53 Q1800.29 1529.01 1801.17 1527.27 Q1802.07 1525.51 1802.07 1523.82 Q1802.07 1521.07 1800.13 1519.33 Q1798.21 1517.6 1795.1 1517.6 Q1792.91 1517.6 1790.45 1518.36 Q1788.02 1519.13 1785.24 1520.68 L1785.24 1515.95 Q1788.07 1514.82 1790.52 1514.24 Q1792.97 1513.66 1795.01 1513.66 Q1800.38 1513.66 1803.58 1516.35 Q1806.77 1519.03 1806.77 1523.52 Q1806.77 1525.65 1805.96 1527.57 Q1805.17 1529.47 1803.07 1532.07 Q1802.49 1532.74 1799.39 1535.95 Q1796.29 1539.15 1790.64 1544.91 Z" fill="#f8f8f2" fill-rule="evenodd" fill-opacity="1" /><path clip-path="url(#clip290)" d="M1814.02 1533.96 L1826.49 1533.96 L1826.49 1537.76 L1814.02 1537.76 L1814.02 1533.96 Z" fill="#f8f8f2" fill-rule="evenodd" fill-opacity="1" /><path clip-path="url(#clip290)" d="M1834.69 1544.91 L1842.33 1544.91 L1842.33 1518.55 L1834.02 1520.21 L1834.02 1515.95 L1842.28 1514.29 L1846.96 1514.29 L1846.96 1544.91 L1854.59 1544.91 L1854.59 1548.85 L1834.69 1548.85 L1834.69 1544.91 Z" fill="#f8f8f2" fill-rule="evenodd" fill-opacity="1" /><path clip-path="url(#clip290)" d="M1868.07 1544.91 L1884.39 1544.91 L1884.39 1548.85 L1862.44 1548.85 L1862.44 1544.91 Q1865.1 1542.16 1869.69 1537.53 Q1874.29 1532.88 1875.47 1531.53 Q1877.72 1529.01 1878.6 1527.27 Q1879.5 1525.51 1879.5 1523.82 Q1879.5 1521.07 1877.56 1519.33 Q1875.64 1517.6 1872.53 1517.6 Q1870.34 1517.6 1867.88 1518.36 Q1865.45 1519.13 1862.67 1520.68 L1862.67 1515.95 Q1865.5 1514.82 1867.95 1514.24 Q1870.41 1513.66 1872.44 1513.66 Q1877.81 1513.66 1881.01 1516.35 Q1884.2 1519.03 1884.2 1523.52 Q1884.2 1525.65 1883.39 1527.57 Q1882.6 1529.47 1880.5 1532.07 Q1879.92 1532.74 1876.82 1535.95 Q1873.72 1539.15 1868.07 1544.91 Z" fill="#f8f8f2" fill-rule="evenodd" fill-opacity="1" /><path clip-path="url(#clip290)" d="M1891.45 1533.96 L1903.92 1533.96 L1903.92 1537.76 L1891.45 1537.76 L1891.45 1533.96 Z" fill="#f8f8f2" fill-rule="evenodd" fill-opacity="1" /><path clip-path="url(#clip290)" d="M1915.34 1544.91 L1931.65 1544.91 L1931.65 1548.85 L1909.71 1548.85 L1909.71 1544.91 Q1912.37 1542.16 1916.96 1537.53 Q1921.56 1532.88 1922.74 1531.53 Q1924.99 1529.01 1925.87 1527.27 Q1926.77 1525.51 1926.77 1523.82 Q1926.77 1521.07 1924.83 1519.33 Q1922.9 1517.6 1919.8 1517.6 Q1917.6 1517.6 1915.15 1518.36 Q1912.72 1519.13 1909.94 1520.68 L1909.94 1515.95 Q1912.77 1514.82 1915.22 1514.24 Q1917.67 1513.66 1919.71 1513.66 Q1925.08 1513.66 1928.28 1516.35 Q1931.47 1519.03 1931.47 1523.52 Q1931.47 1525.65 1930.66 1527.57 Q1929.87 1529.47 1927.77 1532.07 Q1927.19 1532.74 1924.09 1535.95 Q1920.98 1539.15 1915.34 1544.91 Z" fill="#f8f8f2" fill-rule="evenodd" fill-opacity="1" /><path clip-path="url(#clip290)" d="M1951.47 1517.37 Q1947.86 1517.37 1946.03 1520.93 Q1944.22 1524.47 1944.22 1531.6 Q1944.22 1538.71 1946.03 1542.27 Q1947.86 1545.82 1951.47 1545.82 Q1955.1 1545.82 1956.91 1542.27 Q1958.74 1538.71 1958.74 1531.6 Q1958.74 1524.47 1956.91 1520.93 Q1955.1 1517.37 1951.47 1517.37 M1951.47 1513.66 Q1957.28 1513.66 1960.34 1518.27 Q1963.41 1522.85 1963.41 1531.6 Q1963.41 1540.33 1960.34 1544.94 Q1957.28 1549.52 1951.47 1549.52 Q1945.66 1549.52 1942.58 1544.94 Q1939.53 1540.33 1939.53 1531.6 Q1939.53 1522.85 1942.58 1518.27 Q1945.66 1513.66 1951.47 1513.66 Z" fill="#f8f8f2" fill-rule="evenodd" fill-opacity="1" /><path clip-path="url(#clip290)" d="M1975.66 1544.91 L1991.98 1544.91 L1991.98 1548.85 L1970.03 1548.85 L1970.03 1544.91 Q1972.7 1542.16 1977.28 1537.53 Q1981.89 1532.88 1983.07 1531.53 Q1985.31 1529.01 1986.19 1527.27 Q1987.09 1525.51 1987.09 1523.82 Q1987.09 1521.07 1985.15 1519.33 Q1983.23 1517.6 1980.13 1517.6 Q1977.93 1517.6 1975.47 1518.36 Q1973.04 1519.13 1970.27 1520.68 L1970.27 1515.95 Q1973.09 1514.82 1975.54 1514.24 Q1978 1513.66 1980.03 1513.66 Q1985.4 1513.66 1988.6 1516.35 Q1991.79 1519.03 1991.79 1523.52 Q1991.79 1525.65 1990.98 1527.57 Q1990.2 1529.47 1988.09 1532.07 Q1987.51 1532.74 1984.41 1535.95 Q1981.31 1539.15 1975.66 1544.91 Z" fill="#f8f8f2" fill-rule="evenodd" fill-opacity="1" /><path clip-path="url(#clip290)" d="M2002.6 1544.91 L2010.24 1544.91 L2010.24 1518.55 L2001.93 1520.21 L2001.93 1515.95 L2010.2 1514.29 L2014.87 1514.29 L2014.87 1544.91 L2022.51 1544.91 L2022.51 1548.85 L2002.6 1548.85 L2002.6 1544.91 Z" fill="#f8f8f2" fill-rule="evenodd" fill-opacity="1" /><path clip-path="url(#clip290)" d="M2148.25 1544.91 L2164.57 1544.91 L2164.57 1548.85 L2142.63 1548.85 L2142.63 1544.91 Q2145.29 1542.16 2149.87 1537.53 Q2154.48 1532.88 2155.66 1531.53 Q2157.9 1529.01 2158.78 1527.27 Q2159.69 1525.51 2159.69 1523.82 Q2159.69 1521.07 2157.74 1519.33 Q2155.82 1517.6 2152.72 1517.6 Q2150.52 1517.6 2148.07 1518.36 Q2145.64 1519.13 2142.86 1520.68 L2142.86 1515.95 Q2145.68 1514.82 2148.14 1514.24 Q2150.59 1513.66 2152.63 1513.66 Q2158 1513.66 2161.19 1516.35 Q2164.39 1519.03 2164.39 1523.52 Q2164.39 1525.65 2163.58 1527.57 Q2162.79 1529.47 2160.68 1532.07 Q2160.1 1532.74 2157 1535.95 Q2153.9 1539.15 2148.25 1544.91 Z" fill="#f8f8f2" fill-rule="evenodd" fill-opacity="1" /><path clip-path="url(#clip290)" d="M2184.39 1517.37 Q2180.77 1517.37 2178.95 1520.93 Q2177.14 1524.47 2177.14 1531.6 Q2177.14 1538.71 2178.95 1542.27 Q2180.77 1545.82 2184.39 1545.82 Q2188.02 1545.82 2189.83 1542.27 Q2191.65 1538.71 2191.65 1531.6 Q2191.65 1524.47 2189.83 1520.93 Q2188.02 1517.37 2184.39 1517.37 M2184.39 1513.66 Q2190.2 1513.66 2193.25 1518.27 Q2196.33 1522.85 2196.33 1531.6 Q2196.33 1540.33 2193.25 1544.94 Q2190.2 1549.52 2184.39 1549.52 Q2178.58 1549.52 2175.5 1544.94 Q2172.44 1540.33 2172.44 1531.6 Q2172.44 1522.85 2175.5 1518.27 Q2178.58 1513.66 2184.39 1513.66 Z" fill="#f8f8f2" fill-rule="evenodd" fill-opacity="1" /><path clip-path="url(#clip290)" d="M2201.79 1533.96 L2214.27 1533.96 L2214.27 1537.76 L2201.79 1537.76 L2201.79 1533.96 Z" fill="#f8f8f2" fill-rule="evenodd" fill-opacity="1" /><path clip-path="url(#clip290)" d="M2231.65 1517.37 Q2228.04 1517.37 2226.21 1520.93 Q2224.41 1524.47 2224.41 1531.6 Q2224.41 1538.71 2226.21 1542.27 Q2228.04 1545.82 2231.65 1545.82 Q2235.29 1545.82 2237.09 1542.27 Q2238.92 1538.71 2238.92 1531.6 Q2238.92 1524.47 2237.09 1520.93 Q2235.29 1517.37 2231.65 1517.37 M2231.65 1513.66 Q2237.46 1513.66 2240.52 1518.27 Q2243.6 1522.85 2243.6 1531.6 Q2243.6 1540.33 2240.52 1544.94 Q2237.46 1549.52 2231.65 1549.52 Q2225.84 1549.52 2222.76 1544.94 Q2219.71 1540.33 2219.71 1531.6 Q2219.71 1522.85 2222.76 1518.27 Q2225.84 1513.66 2231.65 1513.66 Z" fill="#f8f8f2" fill-rule="evenodd" fill-opacity="1" /><path clip-path="url(#clip290)" d="M2255.84 1544.91 L2272.16 1544.91 L2272.16 1548.85 L2250.22 1548.85 L2250.22 1544.91 Q2252.88 1542.16 2257.46 1537.53 Q2262.07 1532.88 2263.25 1531.53 Q2265.5 1529.01 2266.38 1527.27 Q2267.28 1525.51 2267.28 1523.82 Q2267.28 1521.07 2265.33 1519.33 Q2263.41 1517.6 2260.31 1517.6 Q2258.11 1517.6 2255.66 1518.36 Q2253.23 1519.13 2250.45 1520.68 L2250.45 1515.95 Q2253.27 1514.82 2255.73 1514.24 Q2258.18 1513.66 2260.22 1513.66 Q2265.59 1513.66 2268.78 1516.35 Q2271.98 1519.03 2271.98 1523.52 Q2271.98 1525.65 2271.17 1527.57 Q2270.38 1529.47 2268.27 1532.07 Q2267.69 1532.74 2264.59 1535.95 Q2261.49 1539.15 2255.84 1544.91 Z" fill="#f8f8f2" fill-rule="evenodd" fill-opacity="1" /><path clip-path="url(#clip290)" d="M2279.22 1533.96 L2291.7 1533.96 L2291.7 1537.76 L2279.22 1537.76 L2279.22 1533.96 Z" fill="#f8f8f2" fill-rule="evenodd" fill-opacity="1" /><path clip-path="url(#clip290)" d="M2303.11 1544.91 L2319.43 1544.91 L2319.43 1548.85 L2297.49 1548.85 L2297.49 1544.91 Q2300.15 1542.16 2304.73 1537.53 Q2309.34 1532.88 2310.52 1531.53 Q2312.76 1529.01 2313.64 1527.27 Q2314.55 1525.51 2314.55 1523.82 Q2314.55 1521.07 2312.6 1519.33 Q2310.68 1517.6 2307.58 1517.6 Q2305.38 1517.6 2302.93 1518.36 Q2300.5 1519.13 2297.72 1520.68 L2297.72 1515.95 Q2300.54 1514.82 2303 1514.24 Q2305.45 1513.66 2307.49 1513.66 Q2312.86 1513.66 2316.05 1516.35 Q2319.25 1519.03 2319.25 1523.52 Q2319.25 1525.65 2318.44 1527.57 Q2317.65 1529.47 2315.54 1532.07 Q2314.96 1532.74 2311.86 1535.95 Q2308.76 1539.15 2303.11 1544.91 Z" fill="#f8f8f2" fill-rule="evenodd" fill-opacity="1" /><path clip-path="url(#clip290)" d="M2339.25 1517.37 Q2335.63 1517.37 2333.81 1520.93 Q2332 1524.47 2332 1531.6 Q2332 1538.71 2333.81 1542.27 Q2335.63 1545.82 2339.25 1545.82 Q2342.88 1545.82 2344.69 1542.27 Q2346.51 1538.71 2346.51 1531.6 Q2346.51 1524.47 2344.69 1520.93 Q2342.88 1517.37 2339.25 1517.37 M2339.25 1513.66 Q2345.06 1513.66 2348.11 1518.27 Q2351.19 1522.85 2351.19 1531.6 Q2351.19 1540.33 2348.11 1544.94 Q2345.06 1549.52 2339.25 1549.52 Q2333.44 1549.52 2330.36 1544.94 Q2327.3 1540.33 2327.3 1531.6 Q2327.3 1522.85 2330.36 1518.27 Q2333.44 1513.66 2339.25 1513.66 Z" fill="#f8f8f2" fill-rule="evenodd" fill-opacity="1" /><path clip-path="url(#clip290)" d="M2363.44 1544.91 L2379.75 1544.91 L2379.75 1548.85 L2357.81 1548.85 L2357.81 1544.91 Q2360.47 1542.16 2365.06 1537.53 Q2369.66 1532.88 2370.84 1531.53 Q2373.09 1529.01 2373.97 1527.27 Q2374.87 1525.51 2374.87 1523.82 Q2374.87 1521.07 2372.93 1519.33 Q2371 1517.6 2367.9 1517.6 Q2365.7 1517.6 2363.25 1518.36 Q2360.82 1519.13 2358.04 1520.68 L2358.04 1515.95 Q2360.87 1514.82 2363.32 1514.24 Q2365.77 1513.66 2367.81 1513.66 Q2373.18 1513.66 2376.37 1516.35 Q2379.57 1519.03 2379.57 1523.52 Q2379.57 1525.65 2378.76 1527.57 Q2377.97 1529.47 2375.87 1532.07 Q2375.29 1532.74 2372.19 1535.95 Q2369.08 1539.15 2363.44 1544.91 Z" fill="#f8f8f2" fill-rule="evenodd" fill-opacity="1" /><path clip-path="url(#clip290)" d="M2393.6 1544.91 L2409.92 1544.91 L2409.92 1548.85 L2387.97 1548.85 L2387.97 1544.91 Q2390.63 1542.16 2395.22 1537.53 Q2399.82 1532.88 2401 1531.53 Q2403.25 1529.01 2404.13 1527.27 Q2405.03 1525.51 2405.03 1523.82 Q2405.03 1521.07 2403.09 1519.33 Q2401.17 1517.6 2398.06 1517.6 Q2395.87 1517.6 2393.41 1518.36 Q2390.98 1519.13 2388.2 1520.68 L2388.2 1515.95 Q2391.03 1514.82 2393.48 1514.24 Q2395.94 1513.66 2397.97 1513.66 Q2403.34 1513.66 2406.54 1516.35 Q2409.73 1519.03 2409.73 1523.52 Q2409.73 1525.65 2408.92 1527.57 Q2408.13 1529.47 2406.03 1532.07 Q2405.45 1532.74 2402.35 1535.95 Q2399.25 1539.15 2393.6 1544.91 Z" fill="#f8f8f2" fill-rule="evenodd" fill-opacity="1" /><polyline clip-path="url(#clip293)" style="stroke:#f8f8f2; stroke-linecap:butt; stroke-linejoin:round; stroke-width:2; stroke-opacity:0.1; fill:none" points="
  1476.28,1336.97 2352.76,1336.97 
  "/>
<polyline clip-path="url(#clip293)" style="stroke:#f8f8f2; stroke-linecap:butt; stroke-linejoin:round; stroke-width:2; stroke-opacity:0.1; fill:none" points="
  1476.28,1039.92 2352.76,1039.92 
  "/>
<polyline clip-path="url(#clip293)" style="stroke:#f8f8f2; stroke-linecap:butt; stroke-linejoin:round; stroke-width:2; stroke-opacity:0.1; fill:none" points="
  1476.28,742.873 2352.76,742.873 
  "/>
<polyline clip-path="url(#clip293)" style="stroke:#f8f8f2; stroke-linecap:butt; stroke-linejoin:round; stroke-width:2; stroke-opacity:0.1; fill:none" points="
  1476.28,445.822 2352.76,445.822 
  "/>
<polyline clip-path="url(#clip293)" style="stroke:#f8f8f2; stroke-linecap:butt; stroke-linejoin:round; stroke-width:2; stroke-opacity:0.1; fill:none" points="
  1476.28,148.772 2352.76,148.772 
  "/>
<polyline clip-path="url(#clip290)" style="stroke:#f8f8f2; stroke-linecap:butt; stroke-linejoin:round; stroke-width:4; stroke-opacity:1; fill:none" points="
  1476.28,1486.45 1476.28,47.2441 
  "/>
<polyline clip-path="url(#clip290)" style="stroke:#f8f8f2; stroke-linecap:butt; stroke-linejoin:round; stroke-width:4; stroke-opacity:1; fill:none" points="
  1476.28,1336.97 1495.18,1336.97 
  "/>
<polyline clip-path="url(#clip290)" style="stroke:#f8f8f2; stroke-linecap:butt; stroke-linejoin:round; stroke-width:4; stroke-opacity:1; fill:none" points="
  1476.28,1039.92 1495.18,1039.92 
  "/>
<polyline clip-path="url(#clip290)" style="stroke:#f8f8f2; stroke-linecap:butt; stroke-linejoin:round; stroke-width:4; stroke-opacity:1; fill:none" points="
  1476.28,742.873 1495.18,742.873 
  "/>
<polyline clip-path="url(#clip290)" style="stroke:#f8f8f2; stroke-linecap:butt; stroke-linejoin:round; stroke-width:4; stroke-opacity:1; fill:none" points="
  1476.28,445.822 1495.18,445.822 
  "/>
<polyline clip-path="url(#clip290)" style="stroke:#f8f8f2; stroke-linecap:butt; stroke-linejoin:round; stroke-width:4; stroke-opacity:1; fill:none" points="
  1476.28,148.772 1495.18,148.772 
  "/>
<path clip-path="url(#clip290)" d="M1258.92 1356.77 L1275.24 1356.77 L1275.24 1360.7 L1253.3 1360.7 L1253.3 1356.77 Q1255.96 1354.01 1260.54 1349.38 Q1265.15 1344.73 1266.33 1343.39 Q1268.57 1340.86 1269.45 1339.13 Q1270.36 1337.37 1270.36 1335.68 Q1270.36 1332.92 1268.41 1331.19 Q1266.49 1329.45 1263.39 1329.45 Q1261.19 1329.45 1258.74 1330.21 Q1256.31 1330.98 1253.53 1332.53 L1253.53 1327.81 Q1256.35 1326.67 1258.81 1326.09 Q1261.26 1325.52 1263.3 1325.52 Q1268.67 1325.52 1271.86 1328.2 Q1275.06 1330.89 1275.06 1335.38 Q1275.06 1337.51 1274.25 1339.43 Q1273.46 1341.33 1271.35 1343.92 Q1270.77 1344.59 1267.67 1347.81 Q1264.57 1351 1258.92 1356.77 Z" fill="#f8f8f2" fill-rule="evenodd" fill-opacity="1" /><path clip-path="url(#clip290)" d="M1285.06 1354.82 L1289.94 1354.82 L1289.94 1360.7 L1285.06 1360.7 L1285.06 1354.82 Z" fill="#f8f8f2" fill-rule="evenodd" fill-opacity="1" /><path clip-path="url(#clip290)" d="M1310.13 1329.22 Q1306.51 1329.22 1304.69 1332.78 Q1302.88 1336.33 1302.88 1343.46 Q1302.88 1350.56 1304.69 1354.13 Q1306.51 1357.67 1310.13 1357.67 Q1313.76 1357.67 1315.56 1354.13 Q1317.39 1350.56 1317.39 1343.46 Q1317.39 1336.33 1315.56 1332.78 Q1313.76 1329.22 1310.13 1329.22 M1310.13 1325.52 Q1315.94 1325.52 1318.99 1330.12 Q1322.07 1334.71 1322.07 1343.46 Q1322.07 1352.18 1318.99 1356.79 Q1315.94 1361.37 1310.13 1361.37 Q1304.32 1361.37 1301.24 1356.79 Q1298.18 1352.18 1298.18 1343.46 Q1298.18 1334.71 1301.24 1330.12 Q1304.32 1325.52 1310.13 1325.52 Z" fill="#f8f8f2" fill-rule="evenodd" fill-opacity="1" /><path clip-path="url(#clip290)" d="M1358.46 1335.24 L1347.88 1345.86 L1358.46 1356.44 L1355.7 1359.24 L1345.08 1348.62 L1334.45 1359.24 L1331.72 1356.44 L1342.28 1345.86 L1331.72 1335.24 L1334.45 1332.44 L1345.08 1343.06 L1355.7 1332.44 L1358.46 1335.24 Z" fill="#f8f8f2" fill-rule="evenodd" fill-opacity="1" /><path clip-path="url(#clip290)" d="M1370.82 1356.77 L1378.46 1356.77 L1378.46 1330.4 L1370.15 1332.07 L1370.15 1327.81 L1378.41 1326.14 L1383.09 1326.14 L1383.09 1356.77 L1390.73 1356.77 L1390.73 1360.7 L1370.82 1360.7 L1370.82 1356.77 Z" fill="#f8f8f2" fill-rule="evenodd" fill-opacity="1" /><path clip-path="url(#clip290)" d="M1410.17 1329.22 Q1406.56 1329.22 1404.73 1332.78 Q1402.93 1336.33 1402.93 1343.46 Q1402.93 1350.56 1404.73 1354.13 Q1406.56 1357.67 1410.17 1357.67 Q1413.81 1357.67 1415.61 1354.13 Q1417.44 1350.56 1417.44 1343.46 Q1417.44 1336.33 1415.61 1332.78 Q1413.81 1329.22 1410.17 1329.22 M1410.17 1325.52 Q1415.98 1325.52 1419.04 1330.12 Q1422.12 1334.71 1422.12 1343.46 Q1422.12 1352.18 1419.04 1356.79 Q1415.98 1361.37 1410.17 1361.37 Q1404.36 1361.37 1401.28 1356.79 Q1398.23 1352.18 1398.23 1343.46 Q1398.23 1334.71 1401.28 1330.12 Q1404.36 1325.52 1410.17 1325.52 Z" fill="#f8f8f2" fill-rule="evenodd" fill-opacity="1" /><path clip-path="url(#clip290)" d="M1423.3 1305.21 L1438.21 1305.21 L1438.21 1308.41 L1426.78 1308.41 L1426.78 1315.29 Q1427.61 1315.01 1428.43 1314.88 Q1429.26 1314.73 1430.09 1314.73 Q1434.79 1314.73 1437.54 1317.3 Q1440.28 1319.88 1440.28 1324.28 Q1440.28 1328.81 1437.46 1331.33 Q1434.64 1333.84 1429.51 1333.84 Q1427.74 1333.84 1425.9 1333.53 Q1424.07 1333.23 1422.12 1332.63 L1422.12 1328.81 Q1423.81 1329.74 1425.61 1330.19 Q1427.42 1330.64 1429.43 1330.64 Q1432.69 1330.64 1434.58 1328.93 Q1436.48 1327.22 1436.48 1324.28 Q1436.48 1321.35 1434.58 1319.64 Q1432.69 1317.92 1429.43 1317.92 Q1427.91 1317.92 1426.38 1318.26 Q1424.88 1318.6 1423.3 1319.32 L1423.3 1305.21 Z" fill="#f8f8f2" fill-rule="evenodd" fill-opacity="1" /><path clip-path="url(#clip290)" d="M1267.74 1033.16 L1255.94 1051.61 L1267.74 1051.61 L1267.74 1033.16 M1266.51 1029.09 L1272.39 1029.09 L1272.39 1051.61 L1277.32 1051.61 L1277.32 1055.5 L1272.39 1055.5 L1272.39 1063.65 L1267.74 1063.65 L1267.74 1055.5 L1252.14 1055.5 L1252.14 1050.99 L1266.51 1029.09 Z" fill="#f8f8f2" fill-rule="evenodd" fill-opacity="1" /><path clip-path="url(#clip290)" d="M1285.06 1057.77 L1289.94 1057.77 L1289.94 1063.65 L1285.06 1063.65 L1285.06 1057.77 Z" fill="#f8f8f2" fill-rule="evenodd" fill-opacity="1" /><path clip-path="url(#clip290)" d="M1310.13 1032.17 Q1306.51 1032.17 1304.69 1035.73 Q1302.88 1039.28 1302.88 1046.41 Q1302.88 1053.51 1304.69 1057.08 Q1306.51 1060.62 1310.13 1060.62 Q1313.76 1060.62 1315.56 1057.08 Q1317.39 1053.51 1317.39 1046.41 Q1317.39 1039.28 1315.56 1035.73 Q1313.76 1032.17 1310.13 1032.17 M1310.13 1028.47 Q1315.94 1028.47 1318.99 1033.07 Q1322.07 1037.66 1322.07 1046.41 Q1322.07 1055.13 1318.99 1059.74 Q1315.94 1064.32 1310.13 1064.32 Q1304.32 1064.32 1301.24 1059.74 Q1298.18 1055.13 1298.18 1046.41 Q1298.18 1037.66 1301.24 1033.07 Q1304.32 1028.47 1310.13 1028.47 Z" fill="#f8f8f2" fill-rule="evenodd" fill-opacity="1" /><path clip-path="url(#clip290)" d="M1358.46 1038.19 L1347.88 1048.81 L1358.46 1059.39 L1355.7 1062.19 L1345.08 1051.57 L1334.45 1062.19 L1331.72 1059.39 L1342.28 1048.81 L1331.72 1038.19 L1334.45 1035.39 L1345.08 1046.01 L1355.7 1035.39 L1358.46 1038.19 Z" fill="#f8f8f2" fill-rule="evenodd" fill-opacity="1" /><path clip-path="url(#clip290)" d="M1370.82 1059.72 L1378.46 1059.72 L1378.46 1033.35 L1370.15 1035.02 L1370.15 1030.76 L1378.41 1029.09 L1383.09 1029.09 L1383.09 1059.72 L1390.73 1059.72 L1390.73 1063.65 L1370.82 1063.65 L1370.82 1059.72 Z" fill="#f8f8f2" fill-rule="evenodd" fill-opacity="1" /><path clip-path="url(#clip290)" d="M1410.17 1032.17 Q1406.56 1032.17 1404.73 1035.73 Q1402.93 1039.28 1402.93 1046.41 Q1402.93 1053.51 1404.73 1057.08 Q1406.56 1060.62 1410.17 1060.62 Q1413.81 1060.62 1415.61 1057.08 Q1417.44 1053.51 1417.44 1046.41 Q1417.44 1039.28 1415.61 1035.73 Q1413.81 1032.17 1410.17 1032.17 M1410.17 1028.47 Q1415.98 1028.47 1419.04 1033.07 Q1422.12 1037.66 1422.12 1046.41 Q1422.12 1055.13 1419.04 1059.74 Q1415.98 1064.32 1410.17 1064.32 Q1404.36 1064.32 1401.28 1059.74 Q1398.23 1055.13 1398.23 1046.41 Q1398.23 1037.66 1401.28 1033.07 Q1404.36 1028.47 1410.17 1028.47 Z" fill="#f8f8f2" fill-rule="evenodd" fill-opacity="1" /><path clip-path="url(#clip290)" d="M1423.3 1008.16 L1438.21 1008.16 L1438.21 1011.36 L1426.78 1011.36 L1426.78 1018.24 Q1427.61 1017.96 1428.43 1017.83 Q1429.26 1017.68 1430.09 1017.68 Q1434.79 1017.68 1437.54 1020.25 Q1440.28 1022.83 1440.28 1027.23 Q1440.28 1031.76 1437.46 1034.28 Q1434.64 1036.79 1429.51 1036.79 Q1427.74 1036.79 1425.9 1036.48 Q1424.07 1036.18 1422.12 1035.58 L1422.12 1031.76 Q1423.81 1032.69 1425.61 1033.14 Q1427.42 1033.59 1429.43 1033.59 Q1432.69 1033.59 1434.58 1031.88 Q1436.48 1030.17 1436.48 1027.23 Q1436.48 1024.3 1434.58 1022.59 Q1432.69 1020.87 1429.43 1020.87 Q1427.91 1020.87 1426.38 1021.21 Q1424.88 1021.55 1423.3 1022.27 L1423.3 1008.16 Z" fill="#f8f8f2" fill-rule="evenodd" fill-opacity="1" /><path clip-path="url(#clip290)" d="M1265.47 747.457 Q1262.32 747.457 1260.47 749.609 Q1258.64 751.762 1258.64 755.512 Q1258.64 759.239 1260.47 761.415 Q1262.32 763.568 1265.47 763.568 Q1268.62 763.568 1270.45 761.415 Q1272.3 759.239 1272.3 755.512 Q1272.3 751.762 1270.45 749.609 Q1268.62 747.457 1265.47 747.457 M1274.76 732.804 L1274.76 737.063 Q1273 736.23 1271.19 735.79 Q1269.41 735.35 1267.65 735.35 Q1263.02 735.35 1260.57 738.475 Q1258.13 741.6 1257.79 747.92 Q1259.15 745.906 1261.21 744.841 Q1263.27 743.753 1265.75 743.753 Q1270.96 743.753 1273.97 746.924 Q1277 750.072 1277 755.512 Q1277 760.836 1273.85 764.054 Q1270.7 767.271 1265.47 767.271 Q1259.48 767.271 1256.31 762.688 Q1253.13 758.082 1253.13 749.355 Q1253.13 741.16 1257.02 736.299 Q1260.91 731.415 1267.46 731.415 Q1269.22 731.415 1271.01 731.762 Q1272.81 732.11 1274.76 732.804 Z" fill="#f8f8f2" fill-rule="evenodd" fill-opacity="1" /><path clip-path="url(#clip290)" d="M1285.06 760.721 L1289.94 760.721 L1289.94 766.6 L1285.06 766.6 L1285.06 760.721 Z" fill="#f8f8f2" fill-rule="evenodd" fill-opacity="1" /><path clip-path="url(#clip290)" d="M1310.13 735.119 Q1306.51 735.119 1304.69 738.684 Q1302.88 742.225 1302.88 749.355 Q1302.88 756.461 1304.69 760.026 Q1306.51 763.568 1310.13 763.568 Q1313.76 763.568 1315.56 760.026 Q1317.39 756.461 1317.39 749.355 Q1317.39 742.225 1315.56 738.684 Q1313.76 735.119 1310.13 735.119 M1310.13 731.415 Q1315.94 731.415 1318.99 736.022 Q1322.07 740.605 1322.07 749.355 Q1322.07 758.082 1318.99 762.688 Q1315.94 767.271 1310.13 767.271 Q1304.32 767.271 1301.24 762.688 Q1298.18 758.082 1298.18 749.355 Q1298.18 740.605 1301.24 736.022 Q1304.32 731.415 1310.13 731.415 Z" fill="#f8f8f2" fill-rule="evenodd" fill-opacity="1" /><path clip-path="url(#clip290)" d="M1358.46 741.137 L1347.88 751.762 L1358.46 762.341 L1355.7 765.142 L1345.08 754.517 L1334.45 765.142 L1331.72 762.341 L1342.28 751.762 L1331.72 741.137 L1334.45 738.336 L1345.08 748.961 L1355.7 738.336 L1358.46 741.137 Z" fill="#f8f8f2" fill-rule="evenodd" fill-opacity="1" /><path clip-path="url(#clip290)" d="M1370.82 762.665 L1378.46 762.665 L1378.46 736.299 L1370.15 737.966 L1370.15 733.707 L1378.41 732.04 L1383.09 732.04 L1383.09 762.665 L1390.73 762.665 L1390.73 766.6 L1370.82 766.6 L1370.82 762.665 Z" fill="#f8f8f2" fill-rule="evenodd" fill-opacity="1" /><path clip-path="url(#clip290)" d="M1410.17 735.119 Q1406.56 735.119 1404.73 738.684 Q1402.93 742.225 1402.93 749.355 Q1402.93 756.461 1404.73 760.026 Q1406.56 763.568 1410.17 763.568 Q1413.81 763.568 1415.61 760.026 Q1417.44 756.461 1417.44 749.355 Q1417.44 742.225 1415.61 738.684 Q1413.81 735.119 1410.17 735.119 M1410.17 731.415 Q1415.98 731.415 1419.04 736.022 Q1422.12 740.605 1422.12 749.355 Q1422.12 758.082 1419.04 762.688 Q1415.98 767.271 1410.17 767.271 Q1404.36 767.271 1401.28 762.688 Q1398.23 758.082 1398.23 749.355 Q1398.23 740.605 1401.28 736.022 Q1404.36 731.415 1410.17 731.415 Z" fill="#f8f8f2" fill-rule="evenodd" fill-opacity="1" /><path clip-path="url(#clip290)" d="M1423.3 711.11 L1438.21 711.11 L1438.21 714.307 L1426.78 714.307 L1426.78 721.191 Q1427.61 720.909 1428.43 720.777 Q1429.26 720.626 1430.09 720.626 Q1434.79 720.626 1437.54 723.203 Q1440.28 725.78 1440.28 730.181 Q1440.28 734.713 1437.46 737.234 Q1434.64 739.735 1429.51 739.735 Q1427.74 739.735 1425.9 739.434 Q1424.07 739.133 1422.12 738.531 L1422.12 734.713 Q1423.81 735.635 1425.61 736.086 Q1427.42 736.538 1429.43 736.538 Q1432.69 736.538 1434.58 734.826 Q1436.48 733.115 1436.48 730.181 Q1436.48 727.247 1434.58 725.535 Q1432.69 723.824 1429.43 723.824 Q1427.91 723.824 1426.38 724.162 Q1424.88 724.501 1423.3 725.216 L1423.3 711.11 Z" fill="#f8f8f2" fill-rule="evenodd" fill-opacity="1" /><path clip-path="url(#clip290)" d="M1264.89 453.138 Q1261.56 453.138 1259.64 454.92 Q1257.74 456.703 1257.74 459.828 Q1257.74 462.953 1259.64 464.735 Q1261.56 466.518 1264.89 466.518 Q1268.23 466.518 1270.15 464.735 Q1272.07 462.93 1272.07 459.828 Q1272.07 456.703 1270.15 454.92 Q1268.25 453.138 1264.89 453.138 M1260.22 451.147 Q1257.21 450.406 1255.52 448.346 Q1253.85 446.286 1253.85 443.323 Q1253.85 439.18 1256.79 436.772 Q1259.76 434.365 1264.89 434.365 Q1270.06 434.365 1273 436.772 Q1275.94 439.18 1275.94 443.323 Q1275.94 446.286 1274.25 448.346 Q1272.58 450.406 1269.59 451.147 Q1272.97 451.934 1274.85 454.226 Q1276.75 456.518 1276.75 459.828 Q1276.75 464.851 1273.67 467.536 Q1270.61 470.221 1264.89 470.221 Q1259.18 470.221 1256.1 467.536 Q1253.04 464.851 1253.04 459.828 Q1253.04 456.518 1254.94 454.226 Q1256.84 451.934 1260.22 451.147 M1258.51 443.763 Q1258.51 446.448 1260.17 447.953 Q1261.86 449.457 1264.89 449.457 Q1267.9 449.457 1269.59 447.953 Q1271.31 446.448 1271.31 443.763 Q1271.31 441.078 1269.59 439.573 Q1267.9 438.069 1264.89 438.069 Q1261.86 438.069 1260.17 439.573 Q1258.51 441.078 1258.51 443.763 Z" fill="#f8f8f2" fill-rule="evenodd" fill-opacity="1" /><path clip-path="url(#clip290)" d="M1285.06 463.67 L1289.94 463.67 L1289.94 469.55 L1285.06 469.55 L1285.06 463.67 Z" fill="#f8f8f2" fill-rule="evenodd" fill-opacity="1" /><path clip-path="url(#clip290)" d="M1310.13 438.069 Q1306.51 438.069 1304.69 441.633 Q1302.88 445.175 1302.88 452.305 Q1302.88 459.411 1304.69 462.976 Q1306.51 466.518 1310.13 466.518 Q1313.76 466.518 1315.56 462.976 Q1317.39 459.411 1317.39 452.305 Q1317.39 445.175 1315.56 441.633 Q1313.76 438.069 1310.13 438.069 M1310.13 434.365 Q1315.94 434.365 1318.99 438.971 Q1322.07 443.555 1322.07 452.305 Q1322.07 461.031 1318.99 465.638 Q1315.94 470.221 1310.13 470.221 Q1304.32 470.221 1301.24 465.638 Q1298.18 461.031 1298.18 452.305 Q1298.18 443.555 1301.24 438.971 Q1304.32 434.365 1310.13 434.365 Z" fill="#f8f8f2" fill-rule="evenodd" fill-opacity="1" /><path clip-path="url(#clip290)" d="M1358.46 444.087 L1347.88 454.712 L1358.46 465.291 L1355.7 468.092 L1345.08 457.467 L1334.45 468.092 L1331.72 465.291 L1342.28 454.712 L1331.72 444.087 L1334.45 441.286 L1345.08 451.911 L1355.7 441.286 L1358.46 444.087 Z" fill="#f8f8f2" fill-rule="evenodd" fill-opacity="1" /><path clip-path="url(#clip290)" d="M1370.82 465.615 L1378.46 465.615 L1378.46 439.249 L1370.15 440.916 L1370.15 436.657 L1378.41 434.99 L1383.09 434.99 L1383.09 465.615 L1390.73 465.615 L1390.73 469.55 L1370.82 469.55 L1370.82 465.615 Z" fill="#f8f8f2" fill-rule="evenodd" fill-opacity="1" /><path clip-path="url(#clip290)" d="M1410.17 438.069 Q1406.56 438.069 1404.73 441.633 Q1402.93 445.175 1402.93 452.305 Q1402.93 459.411 1404.73 462.976 Q1406.56 466.518 1410.17 466.518 Q1413.81 466.518 1415.61 462.976 Q1417.44 459.411 1417.44 452.305 Q1417.44 445.175 1415.61 441.633 Q1413.81 438.069 1410.17 438.069 M1410.17 434.365 Q1415.98 434.365 1419.04 438.971 Q1422.12 443.555 1422.12 452.305 Q1422.12 461.031 1419.04 465.638 Q1415.98 470.221 1410.17 470.221 Q1404.36 470.221 1401.28 465.638 Q1398.23 461.031 1398.23 452.305 Q1398.23 443.555 1401.28 438.971 Q1404.36 434.365 1410.17 434.365 Z" fill="#f8f8f2" fill-rule="evenodd" fill-opacity="1" /><path clip-path="url(#clip290)" d="M1423.3 414.06 L1438.21 414.06 L1438.21 417.257 L1426.78 417.257 L1426.78 424.14 Q1427.61 423.858 1428.43 423.727 Q1429.26 423.576 1430.09 423.576 Q1434.79 423.576 1437.54 426.153 Q1440.28 428.73 1440.28 433.131 Q1440.28 437.663 1437.46 440.183 Q1434.64 442.685 1429.51 442.685 Q1427.74 442.685 1425.9 442.384 Q1424.07 442.083 1422.12 441.481 L1422.12 437.663 Q1423.81 438.585 1425.61 439.036 Q1427.42 439.488 1429.43 439.488 Q1432.69 439.488 1434.58 437.776 Q1436.48 436.065 1436.48 433.131 Q1436.48 430.197 1434.58 428.485 Q1432.69 426.774 1429.43 426.774 Q1427.91 426.774 1426.38 427.112 Q1424.88 427.451 1423.3 428.165 L1423.3 414.06 Z" fill="#f8f8f2" fill-rule="evenodd" fill-opacity="1" /><path clip-path="url(#clip290)" d="M1254.48 168.565 L1262.12 168.565 L1262.12 142.199 L1253.81 143.866 L1253.81 139.606 L1262.07 137.94 L1266.75 137.94 L1266.75 168.565 L1274.39 168.565 L1274.39 172.5 L1254.48 172.5 L1254.48 168.565 Z" fill="#f8f8f2" fill-rule="evenodd" fill-opacity="1" /><path clip-path="url(#clip290)" d="M1283.83 166.62 L1288.72 166.62 L1288.72 172.5 L1283.83 172.5 L1283.83 166.62 Z" fill="#f8f8f2" fill-rule="evenodd" fill-opacity="1" /><path clip-path="url(#clip290)" d="M1308.9 141.018 Q1305.29 141.018 1303.46 144.583 Q1301.66 148.125 1301.66 155.254 Q1301.66 162.361 1303.46 165.926 Q1305.29 169.467 1308.9 169.467 Q1312.54 169.467 1314.34 165.926 Q1316.17 162.361 1316.17 155.254 Q1316.17 148.125 1314.34 144.583 Q1312.54 141.018 1308.9 141.018 M1308.9 137.315 Q1314.71 137.315 1317.77 141.921 Q1320.85 146.504 1320.85 155.254 Q1320.85 163.981 1317.77 168.588 Q1314.71 173.171 1308.9 173.171 Q1303.09 173.171 1300.01 168.588 Q1296.96 163.981 1296.96 155.254 Q1296.96 146.504 1300.01 141.921 Q1303.09 137.315 1308.9 137.315 Z" fill="#f8f8f2" fill-rule="evenodd" fill-opacity="1" /><path clip-path="url(#clip290)" d="M1357.24 147.037 L1346.66 157.662 L1357.24 168.24 L1354.48 171.041 L1343.86 160.416 L1333.23 171.041 L1330.5 168.24 L1341.06 157.662 L1330.5 147.037 L1333.23 144.236 L1343.86 154.861 L1354.48 144.236 L1357.24 147.037 Z" fill="#f8f8f2" fill-rule="evenodd" fill-opacity="1" /><path clip-path="url(#clip290)" d="M1369.6 168.565 L1377.24 168.565 L1377.24 142.199 L1368.93 143.866 L1368.93 139.606 L1377.19 137.94 L1381.87 137.94 L1381.87 168.565 L1389.5 168.565 L1389.5 172.5 L1369.6 172.5 L1369.6 168.565 Z" fill="#f8f8f2" fill-rule="evenodd" fill-opacity="1" /><path clip-path="url(#clip290)" d="M1408.95 141.018 Q1405.34 141.018 1403.51 144.583 Q1401.7 148.125 1401.7 155.254 Q1401.7 162.361 1403.51 165.926 Q1405.34 169.467 1408.95 169.467 Q1412.58 169.467 1414.39 165.926 Q1416.22 162.361 1416.22 155.254 Q1416.22 148.125 1414.39 144.583 Q1412.58 141.018 1408.95 141.018 M1408.95 137.315 Q1414.76 137.315 1417.81 141.921 Q1420.89 146.504 1420.89 155.254 Q1420.89 163.981 1417.81 168.588 Q1414.76 173.171 1408.95 173.171 Q1403.14 173.171 1400.06 168.588 Q1397 163.981 1397 155.254 Q1397 146.504 1400.06 141.921 Q1403.14 137.315 1408.95 137.315 Z" fill="#f8f8f2" fill-rule="evenodd" fill-opacity="1" /><path clip-path="url(#clip290)" d="M1430.92 129.535 Q1428.36 129.535 1426.85 131.284 Q1425.37 133.033 1425.37 136.08 Q1425.37 139.108 1426.85 140.876 Q1428.36 142.625 1430.92 142.625 Q1433.48 142.625 1434.96 140.876 Q1436.47 139.108 1436.47 136.08 Q1436.47 133.033 1434.96 131.284 Q1433.48 129.535 1430.92 129.535 M1438.46 117.63 L1438.46 121.091 Q1437.03 120.413 1435.56 120.056 Q1434.11 119.699 1432.69 119.699 Q1428.92 119.699 1426.93 122.238 Q1424.96 124.777 1424.67 129.911 Q1425.78 128.275 1427.46 127.41 Q1429.13 126.526 1431.14 126.526 Q1435.37 126.526 1437.82 129.103 Q1440.28 131.661 1440.28 136.08 Q1440.28 140.406 1437.73 143.02 Q1435.17 145.635 1430.92 145.635 Q1426.05 145.635 1423.47 141.911 Q1420.89 138.168 1420.89 131.077 Q1420.89 124.42 1424.05 120.47 Q1427.21 116.501 1432.53 116.501 Q1433.96 116.501 1435.41 116.784 Q1436.88 117.066 1438.46 117.63 Z" fill="#f8f8f2" fill-rule="evenodd" fill-opacity="1" /><polyline clip-path="url(#clip293)" style="stroke:#8be9fd; stroke-linecap:butt; stroke-linejoin:round; stroke-width:4; stroke-opacity:1; fill:none" points="
  1501.09,1197.95 1507.55,1084.71 1514.01,1064.79 1520.47,1043.75 1526.93,748.222 1533.39,748.184 1539.85,948.549 1546.31,1108.81 1552.77,1158.25 1559.23,1042.79 
  1565.69,976.786 1572.15,1031.62 1578.61,1241.48 1585.07,1268.97 1591.53,1178.51 1597.99,1240.54 1604.45,886.496 1610.91,975.941 1617.37,911.444 1623.83,1099.76 
  1630.29,1036.62 1636.75,1229.17 1643.21,1235.72 1649.67,1117.14 1656.13,731.178 1662.59,943.353 1669.05,804.031 1675.51,887.249 1681.97,1103.46 1688.43,1173.26 
  1694.88,956.839 1701.34,925.377 1707.8,1070.06 1714.26,1111.13 1720.72,726.949 1727.18,1135.78 1733.64,1150.79 1740.1,1114.2 1746.56,954.65 1753.02,871.249 
  1759.48,1022.38 1765.94,899.547 1772.4,218.531 1778.86,869.209 1785.32,883.624 1791.78,1130.13 1798.24,1290.73 1804.7,1445.72 1811.16,1056.19 1817.62,1191.73 
  1824.08,1220.11 1830.54,1008.43 1837,1050.6 1843.46,1231.83 1849.92,1204.5 1856.38,1182.46 1862.84,1298.73 1869.3,1301.27 1875.76,1195.43 1882.22,1206.23 
  1888.68,1261.3 1895.14,1191.49 1901.6,1232.45 1908.06,1302.98 1914.52,1284.58 1920.98,1223.84 1927.44,1167.08 1933.9,1265.48 1940.36,1202.29 1946.82,1116.02 
  1953.28,1211.95 1959.74,1233.25 1966.2,1251.45 1972.66,1099.06 1979.12,812.733 1985.58,867.074 1992.04,876.772 1998.5,1149.51 2004.96,1115.02 2011.42,940.644 
  2017.88,889.115 2024.34,1012.71 2030.8,1038.83 2037.26,1016.8 2043.72,1128.71 2050.18,1166.88 2056.64,1133.92 2063.1,1148.53 2069.56,1023.61 2076.02,993.042 
  2082.48,87.9763 2088.94,618.221 2095.4,838.922 2101.86,484.936 2108.32,838.826 2114.78,724.952 2121.23,877.784 2127.69,666.167 2134.15,801.026 2140.61,927.935 
  2147.07,824.484 2153.53,894.316 2159.99,962.618 2166.45,1010.04 2172.91,760.691 2179.37,1052.42 2185.83,1201.39 2192.29,766.723 2198.75,693.779 2205.21,995.242 
  2211.67,804.395 2218.13,790.907 2224.59,1099.31 2231.05,1178.44 2237.51,949.967 2243.97,986.345 2250.43,1054.53 2256.89,924.222 2263.35,941.379 2269.81,1210.59 
  2276.27,1091.27 2282.73,818.15 2289.19,758.69 2295.65,982.409 2302.11,187.978 2308.57,775.143 2315.03,1095.87 2321.49,982.796 2327.95,669.47 
  "/>
<path clip-path="url(#clip290)" d="
M1948.05 198.898 L2323.54 198.898 L2323.54 95.2176 L1948.05 95.2176  Z
  " fill="#282a36" fill-rule="evenodd" fill-opacity="1"/>
<polyline clip-path="url(#clip290)" style="stroke:#f8f8f2; stroke-linecap:butt; stroke-linejoin:round; stroke-width:4; stroke-opacity:1; fill:none" points="
  1948.05,198.898 2323.54,198.898 2323.54,95.2176 1948.05,95.2176 1948.05,198.898 
  "/>
<polyline clip-path="url(#clip290)" style="stroke:#8be9fd; stroke-linecap:butt; stroke-linejoin:round; stroke-width:4; stroke-opacity:1; fill:none" points="
  1957.79,147.058 2016.22,147.058 
  "/>
<path clip-path="url(#clip290)" d="M2025.96 129.778 L2055.2 129.778 L2055.2 133.713 L2042.93 133.713 L2042.93 164.338 L2038.23 164.338 L2038.23 133.713 L2025.96 133.713 L2025.96 129.778 Z" fill="#f8f8f2" fill-rule="evenodd" fill-opacity="1" /><path clip-path="url(#clip290)" d="M2061.52 141.398 Q2058.09 141.398 2056.1 144.083 Q2054.11 146.745 2054.11 151.398 Q2054.11 156.051 2056.08 158.736 Q2058.07 161.398 2061.52 161.398 Q2064.92 161.398 2066.91 158.713 Q2068.9 156.027 2068.9 151.398 Q2068.9 146.791 2066.91 144.106 Q2064.92 141.398 2061.52 141.398 M2061.52 137.787 Q2067.07 137.787 2070.24 141.398 Q2073.42 145.009 2073.42 151.398 Q2073.42 157.764 2070.24 161.398 Q2067.07 165.009 2061.52 165.009 Q2055.94 165.009 2052.77 161.398 Q2049.62 157.764 2049.62 151.398 Q2049.62 145.009 2052.77 141.398 Q2055.94 137.787 2061.52 137.787 Z" fill="#f8f8f2" fill-rule="evenodd" fill-opacity="1" /><path clip-path="url(#clip290)" d="M2084.69 131.051 L2084.69 138.412 L2093.46 138.412 L2093.46 141.722 L2084.69 141.722 L2084.69 155.796 Q2084.69 158.967 2085.55 159.87 Q2086.43 160.773 2089.09 160.773 L2093.46 160.773 L2093.46 164.338 L2089.09 164.338 Q2084.16 164.338 2082.28 162.509 Q2080.41 160.657 2080.41 155.796 L2080.41 141.722 L2077.28 141.722 L2077.28 138.412 L2080.41 138.412 L2080.41 131.051 L2084.69 131.051 Z" fill="#f8f8f2" fill-rule="evenodd" fill-opacity="1" /><path clip-path="url(#clip290)" d="M2110.85 151.305 Q2105.68 151.305 2103.69 152.486 Q2101.7 153.666 2101.7 156.514 Q2101.7 158.782 2103.18 160.125 Q2104.69 161.444 2107.26 161.444 Q2110.8 161.444 2112.93 158.944 Q2115.08 156.421 2115.08 152.254 L2115.08 151.305 L2110.85 151.305 M2119.34 149.546 L2119.34 164.338 L2115.08 164.338 L2115.08 160.402 Q2113.62 162.763 2111.45 163.898 Q2109.27 165.009 2106.12 165.009 Q2102.14 165.009 2099.78 162.787 Q2097.44 160.541 2097.44 156.791 Q2097.44 152.416 2100.36 150.194 Q2103.3 147.972 2109.11 147.972 L2115.08 147.972 L2115.08 147.555 Q2115.08 144.615 2113.14 143.018 Q2111.22 141.398 2107.72 141.398 Q2105.5 141.398 2103.39 141.93 Q2101.29 142.463 2099.34 143.527 L2099.34 139.592 Q2101.68 138.69 2103.88 138.25 Q2106.08 137.787 2108.16 137.787 Q2113.79 137.787 2116.56 140.703 Q2119.34 143.62 2119.34 149.546 Z" fill="#f8f8f2" fill-rule="evenodd" fill-opacity="1" /><path clip-path="url(#clip290)" d="M2128.11 128.319 L2132.37 128.319 L2132.37 164.338 L2128.11 164.338 L2128.11 128.319 Z" fill="#f8f8f2" fill-rule="evenodd" fill-opacity="1" /><path clip-path="url(#clip290)" d="M2151.75 129.778 L2180.98 129.778 L2180.98 133.713 L2168.72 133.713 L2168.72 164.338 L2164.02 164.338 L2164.02 133.713 L2151.75 133.713 L2151.75 129.778 Z" fill="#f8f8f2" fill-rule="evenodd" fill-opacity="1" /><path clip-path="url(#clip290)" d="M2193.37 142.393 Q2192.65 141.977 2191.8 141.791 Q2190.96 141.583 2189.94 141.583 Q2186.33 141.583 2184.39 143.944 Q2182.47 146.282 2182.47 150.68 L2182.47 164.338 L2178.18 164.338 L2178.18 138.412 L2182.47 138.412 L2182.47 142.44 Q2183.81 140.078 2185.96 138.944 Q2188.11 137.787 2191.19 137.787 Q2191.63 137.787 2192.17 137.856 Q2192.7 137.903 2193.35 138.018 L2193.37 142.393 Z" fill="#f8f8f2" fill-rule="evenodd" fill-opacity="1" /><path clip-path="url(#clip290)" d="M2209.62 151.305 Q2204.46 151.305 2202.47 152.486 Q2200.48 153.666 2200.48 156.514 Q2200.48 158.782 2201.96 160.125 Q2203.46 161.444 2206.03 161.444 Q2209.57 161.444 2211.7 158.944 Q2213.86 156.421 2213.86 152.254 L2213.86 151.305 L2209.62 151.305 M2218.11 149.546 L2218.11 164.338 L2213.86 164.338 L2213.86 160.402 Q2212.4 162.763 2210.22 163.898 Q2208.04 165.009 2204.9 165.009 Q2200.92 165.009 2198.55 162.787 Q2196.22 160.541 2196.22 156.791 Q2196.22 152.416 2199.13 150.194 Q2202.07 147.972 2207.88 147.972 L2213.86 147.972 L2213.86 147.555 Q2213.86 144.615 2211.91 143.018 Q2209.99 141.398 2206.49 141.398 Q2204.27 141.398 2202.17 141.93 Q2200.06 142.463 2198.11 143.527 L2198.11 139.592 Q2200.45 138.69 2202.65 138.25 Q2204.85 137.787 2206.93 137.787 Q2212.56 137.787 2215.34 140.703 Q2218.11 143.62 2218.11 149.546 Z" fill="#f8f8f2" fill-rule="evenodd" fill-opacity="1" /><path clip-path="url(#clip290)" d="M2243.95 142.347 L2243.95 128.319 L2248.21 128.319 L2248.21 164.338 L2243.95 164.338 L2243.95 160.449 Q2242.6 162.763 2240.54 163.898 Q2238.51 165.009 2235.64 165.009 Q2230.94 165.009 2227.98 161.259 Q2225.04 157.509 2225.04 151.398 Q2225.04 145.287 2227.98 141.537 Q2230.94 137.787 2235.64 137.787 Q2238.51 137.787 2240.54 138.921 Q2242.6 140.032 2243.95 142.347 M2229.43 151.398 Q2229.43 156.097 2231.36 158.782 Q2233.3 161.444 2236.68 161.444 Q2240.06 161.444 2242 158.782 Q2243.95 156.097 2243.95 151.398 Q2243.95 146.699 2242 144.037 Q2240.06 141.352 2236.68 141.352 Q2233.3 141.352 2231.36 144.037 Q2229.43 146.699 2229.43 151.398 Z" fill="#f8f8f2" fill-rule="evenodd" fill-opacity="1" /><path clip-path="url(#clip290)" d="M2279.16 150.31 L2279.16 152.393 L2259.57 152.393 Q2259.85 156.791 2262.21 159.106 Q2264.6 161.398 2268.83 161.398 Q2271.29 161.398 2273.58 160.796 Q2275.89 160.194 2278.16 158.99 L2278.16 163.018 Q2275.87 163.99 2273.46 164.5 Q2271.05 165.009 2268.58 165.009 Q2262.37 165.009 2258.74 161.398 Q2255.13 157.787 2255.13 151.629 Q2255.13 145.264 2258.55 141.537 Q2262 137.787 2267.84 137.787 Q2273.07 137.787 2276.1 141.166 Q2279.16 144.523 2279.16 150.31 M2274.9 149.06 Q2274.85 145.565 2272.93 143.481 Q2271.03 141.398 2267.88 141.398 Q2264.32 141.398 2262.17 143.412 Q2260.04 145.426 2259.71 149.083 L2274.9 149.06 Z" fill="#f8f8f2" fill-rule="evenodd" fill-opacity="1" /><path clip-path="url(#clip290)" d="M2302.67 139.176 L2302.67 143.203 Q2300.87 142.277 2298.92 141.815 Q2296.98 141.352 2294.9 141.352 Q2291.73 141.352 2290.13 142.324 Q2288.55 143.296 2288.55 145.24 Q2288.55 146.722 2289.69 147.578 Q2290.82 148.412 2294.25 149.176 L2295.71 149.5 Q2300.24 150.472 2302.14 152.254 Q2304.06 154.014 2304.06 157.185 Q2304.06 160.796 2301.19 162.902 Q2298.35 165.009 2293.35 165.009 Q2291.26 165.009 2288.99 164.592 Q2286.75 164.199 2284.25 163.388 L2284.25 158.99 Q2286.61 160.217 2288.9 160.842 Q2291.19 161.444 2293.44 161.444 Q2296.45 161.444 2298.07 160.426 Q2299.69 159.384 2299.69 157.509 Q2299.69 155.773 2298.51 154.847 Q2297.35 153.921 2293.39 153.064 L2291.91 152.717 Q2287.95 151.884 2286.19 150.171 Q2284.43 148.435 2284.43 145.426 Q2284.43 141.768 2287.03 139.778 Q2289.62 137.787 2294.39 137.787 Q2296.75 137.787 2298.83 138.134 Q2300.91 138.481 2302.67 139.176 Z" fill="#f8f8f2" fill-rule="evenodd" fill-opacity="1" /></svg>
