<?xml version="1.0" encoding="utf-8"?>
<svg xmlns="http://www.w3.org/2000/svg" xmlns:xlink="http://www.w3.org/1999/xlink" width="600" height="400" viewBox="0 0 2400 1600">
<defs>
  <clipPath id="clip050">
    <rect x="0" y="0" width="2400" height="1600"/>
  </clipPath>
</defs>
<path clip-path="url(#clip050)" d="
M0 1600 L2400 1600 L2400 0 L0 0  Z
  " fill="#282a36" fill-rule="evenodd" fill-opacity="1"/>
<defs>
  <clipPath id="clip051">
    <rect x="480" y="0" width="1681" height="1600"/>
  </clipPath>
</defs>
<path clip-path="url(#clip050)" d="
M186.76 1486.45 L2352.76 1486.45 L2352.76 47.2441 L186.76 47.2441  Z
  " fill="#30343b" fill-rule="evenodd" fill-opacity="1"/>
<defs>
  <clipPath id="clip052">
    <rect x="186" y="47" width="2167" height="1440"/>
  </clipPath>
</defs>
<polyline clip-path="url(#clip052)" style="stroke:#f8f8f2; stroke-linecap:butt; stroke-linejoin:round; stroke-width:2; stroke-opacity:0.1; fill:none" points="
  391.738,1486.45 391.738,47.2441 
  "/>
<polyline clip-path="url(#clip052)" style="stroke:#f8f8f2; stroke-linecap:butt; stroke-linejoin:round; stroke-width:2; stroke-opacity:0.1; fill:none" points="
  870.658,1486.45 870.658,47.2441 
  "/>
<polyline clip-path="url(#clip052)" style="stroke:#f8f8f2; stroke-linecap:butt; stroke-linejoin:round; stroke-width:2; stroke-opacity:0.1; fill:none" points="
  1365.54,1486.45 1365.54,47.2441 
  "/>
<polyline clip-path="url(#clip052)" style="stroke:#f8f8f2; stroke-linecap:butt; stroke-linejoin:round; stroke-width:2; stroke-opacity:0.1; fill:none" points="
  1860.43,1486.45 1860.43,47.2441 
  "/>
<polyline clip-path="url(#clip052)" style="stroke:#f8f8f2; stroke-linecap:butt; stroke-linejoin:round; stroke-width:2; stroke-opacity:0.1; fill:none" points="
  2307.42,1486.45 2307.42,47.2441 
  "/>
<polyline clip-path="url(#clip050)" style="stroke:#f8f8f2; stroke-linecap:butt; stroke-linejoin:round; stroke-width:4; stroke-opacity:1; fill:none" points="
  186.76,1486.45 2352.76,1486.45 
  "/>
<polyline clip-path="url(#clip050)" style="stroke:#f8f8f2; stroke-linecap:butt; stroke-linejoin:round; stroke-width:4; stroke-opacity:1; fill:none" points="
  391.738,1486.45 391.738,1467.55 
  "/>
<polyline clip-path="url(#clip050)" style="stroke:#f8f8f2; stroke-linecap:butt; stroke-linejoin:round; stroke-width:4; stroke-opacity:1; fill:none" points="
  870.658,1486.45 870.658,1467.55 
  "/>
<polyline clip-path="url(#clip050)" style="stroke:#f8f8f2; stroke-linecap:butt; stroke-linejoin:round; stroke-width:4; stroke-opacity:1; fill:none" points="
  1365.54,1486.45 1365.54,1467.55 
  "/>
<polyline clip-path="url(#clip050)" style="stroke:#f8f8f2; stroke-linecap:butt; stroke-linejoin:round; stroke-width:4; stroke-opacity:1; fill:none" points="
  1860.43,1486.45 1860.43,1467.55 
  "/>
<polyline clip-path="url(#clip050)" style="stroke:#f8f8f2; stroke-linecap:butt; stroke-linejoin:round; stroke-width:4; stroke-opacity:1; fill:none" points="
  2307.42,1486.45 2307.42,1467.55 
  "/>
<path clip-path="url(#clip050)" d="M263.533 1544.91 L279.852 1544.91 L279.852 1548.85 L257.908 1548.85 L257.908 1544.91 Q260.57 1542.16 265.153 1537.53 Q269.759 1532.88 270.94 1531.53 Q273.185 1529.01 274.065 1527.27 Q274.968 1525.51 274.968 1523.82 Q274.968 1521.07 273.023 1519.33 Q271.102 1517.6 268 1517.6 Q265.801 1517.6 263.347 1518.36 Q260.917 1519.13 258.139 1520.68 L258.139 1515.95 Q260.963 1514.82 263.417 1514.24 Q265.87 1513.66 267.908 1513.66 Q273.278 1513.66 276.472 1516.35 Q279.667 1519.03 279.667 1523.52 Q279.667 1525.65 278.857 1527.57 Q278.07 1529.47 275.963 1532.07 Q275.384 1532.74 272.282 1535.95 Q269.181 1539.15 263.533 1544.91 Z" fill="#f8f8f2" fill-rule="evenodd" fill-opacity="1" /><path clip-path="url(#clip050)" d="M299.667 1517.37 Q296.056 1517.37 294.227 1520.93 Q292.421 1524.47 292.421 1531.6 Q292.421 1538.71 294.227 1542.27 Q296.056 1545.82 299.667 1545.82 Q303.301 1545.82 305.106 1542.27 Q306.935 1538.71 306.935 1531.6 Q306.935 1524.47 305.106 1520.93 Q303.301 1517.37 299.667 1517.37 M299.667 1513.66 Q305.477 1513.66 308.532 1518.27 Q311.611 1522.85 311.611 1531.6 Q311.611 1540.33 308.532 1544.94 Q305.477 1549.52 299.667 1549.52 Q293.856 1549.52 290.778 1544.94 Q287.722 1540.33 287.722 1531.6 Q287.722 1522.85 290.778 1518.27 Q293.856 1513.66 299.667 1513.66 Z" fill="#f8f8f2" fill-rule="evenodd" fill-opacity="1" /><path clip-path="url(#clip050)" d="M323.856 1544.91 L340.176 1544.91 L340.176 1548.85 L318.231 1548.85 L318.231 1544.91 Q320.893 1542.16 325.477 1537.53 Q330.083 1532.88 331.264 1531.53 Q333.509 1529.01 334.389 1527.27 Q335.291 1525.51 335.291 1523.82 Q335.291 1521.07 333.347 1519.33 Q331.426 1517.6 328.324 1517.6 Q326.125 1517.6 323.671 1518.36 Q321.241 1519.13 318.463 1520.68 L318.463 1515.95 Q321.287 1514.82 323.741 1514.24 Q326.194 1513.66 328.231 1513.66 Q333.602 1513.66 336.796 1516.35 Q339.99 1519.03 339.99 1523.52 Q339.99 1525.65 339.18 1527.57 Q338.393 1529.47 336.287 1532.07 Q335.708 1532.74 332.606 1535.95 Q329.504 1539.15 323.856 1544.91 Z" fill="#f8f8f2" fill-rule="evenodd" fill-opacity="1" /><path clip-path="url(#clip050)" d="M350.801 1544.91 L358.439 1544.91 L358.439 1518.55 L350.129 1520.21 L350.129 1515.95 L358.393 1514.29 L363.069 1514.29 L363.069 1544.91 L370.708 1544.91 L370.708 1548.85 L350.801 1548.85 L350.801 1544.91 Z" fill="#f8f8f2" fill-rule="evenodd" fill-opacity="1" /><path clip-path="url(#clip050)" d="M377.398 1533.96 L389.874 1533.96 L389.874 1537.76 L377.398 1537.76 L377.398 1533.96 Z" fill="#f8f8f2" fill-rule="evenodd" fill-opacity="1" /><path clip-path="url(#clip050)" d="M398.069 1544.91 L405.708 1544.91 L405.708 1518.55 L397.398 1520.21 L397.398 1515.95 L405.661 1514.29 L410.337 1514.29 L410.337 1544.91 L417.976 1544.91 L417.976 1548.85 L398.069 1548.85 L398.069 1544.91 Z" fill="#f8f8f2" fill-rule="evenodd" fill-opacity="1" /><path clip-path="url(#clip050)" d="M428.231 1544.91 L435.87 1544.91 L435.87 1518.55 L427.559 1520.21 L427.559 1515.95 L435.823 1514.29 L440.499 1514.29 L440.499 1544.91 L448.138 1544.91 L448.138 1548.85 L428.231 1548.85 L428.231 1544.91 Z" fill="#f8f8f2" fill-rule="evenodd" fill-opacity="1" /><path clip-path="url(#clip050)" d="M454.828 1533.96 L467.305 1533.96 L467.305 1537.76 L454.828 1537.76 L454.828 1533.96 Z" fill="#f8f8f2" fill-rule="evenodd" fill-opacity="1" /><path clip-path="url(#clip050)" d="M484.689 1517.37 Q481.078 1517.37 479.249 1520.93 Q477.443 1524.47 477.443 1531.6 Q477.443 1538.71 479.249 1542.27 Q481.078 1545.82 484.689 1545.82 Q488.323 1545.82 490.129 1542.27 Q491.957 1538.71 491.957 1531.6 Q491.957 1524.47 490.129 1520.93 Q488.323 1517.37 484.689 1517.37 M484.689 1513.66 Q490.499 1513.66 493.554 1518.27 Q496.633 1522.85 496.633 1531.6 Q496.633 1540.33 493.554 1544.94 Q490.499 1549.52 484.689 1549.52 Q478.879 1549.52 475.8 1544.94 Q472.744 1540.33 472.744 1531.6 Q472.744 1522.85 475.8 1518.27 Q478.879 1513.66 484.689 1513.66 Z" fill="#f8f8f2" fill-rule="evenodd" fill-opacity="1" /><path clip-path="url(#clip050)" d="M505.661 1544.91 L513.3 1544.91 L513.3 1518.55 L504.99 1520.21 L504.99 1515.95 L513.253 1514.29 L517.929 1514.29 L517.929 1544.91 L525.568 1544.91 L525.568 1548.85 L505.661 1548.85 L505.661 1544.91 Z" fill="#f8f8f2" fill-rule="evenodd" fill-opacity="1" /><path clip-path="url(#clip050)" d="M742.453 1544.91 L758.772 1544.91 L758.772 1548.85 L736.828 1548.85 L736.828 1544.91 Q739.49 1542.16 744.073 1537.53 Q748.679 1532.88 749.86 1531.53 Q752.105 1529.01 752.985 1527.27 Q753.888 1525.51 753.888 1523.82 Q753.888 1521.07 751.943 1519.33 Q750.022 1517.6 746.92 1517.6 Q744.721 1517.6 742.267 1518.36 Q739.837 1519.13 737.059 1520.68 L737.059 1515.95 Q739.883 1514.82 742.337 1514.24 Q744.791 1513.66 746.828 1513.66 Q752.198 1513.66 755.392 1516.35 Q758.587 1519.03 758.587 1523.52 Q758.587 1525.65 757.777 1527.57 Q756.99 1529.47 754.883 1532.07 Q754.304 1532.74 751.203 1535.95 Q748.101 1539.15 742.453 1544.91 Z" fill="#f8f8f2" fill-rule="evenodd" fill-opacity="1" /><path clip-path="url(#clip050)" d="M778.587 1517.37 Q774.976 1517.37 773.147 1520.93 Q771.341 1524.47 771.341 1531.6 Q771.341 1538.71 773.147 1542.27 Q774.976 1545.82 778.587 1545.82 Q782.221 1545.82 784.026 1542.27 Q785.855 1538.71 785.855 1531.6 Q785.855 1524.47 784.026 1520.93 Q782.221 1517.37 778.587 1517.37 M778.587 1513.66 Q784.397 1513.66 787.452 1518.27 Q790.531 1522.85 790.531 1531.6 Q790.531 1540.33 787.452 1544.94 Q784.397 1549.52 778.587 1549.52 Q772.777 1549.52 769.698 1544.94 Q766.642 1540.33 766.642 1531.6 Q766.642 1522.85 769.698 1518.27 Q772.777 1513.66 778.587 1513.66 Z" fill="#f8f8f2" fill-rule="evenodd" fill-opacity="1" /><path clip-path="url(#clip050)" d="M802.776 1544.91 L819.096 1544.91 L819.096 1548.85 L797.151 1548.85 L797.151 1544.91 Q799.813 1542.16 804.397 1537.53 Q809.003 1532.88 810.184 1531.53 Q812.429 1529.01 813.309 1527.27 Q814.211 1525.51 814.211 1523.82 Q814.211 1521.07 812.267 1519.33 Q810.346 1517.6 807.244 1517.6 Q805.045 1517.6 802.591 1518.36 Q800.161 1519.13 797.383 1520.68 L797.383 1515.95 Q800.207 1514.82 802.661 1514.24 Q805.114 1513.66 807.151 1513.66 Q812.522 1513.66 815.716 1516.35 Q818.911 1519.03 818.911 1523.52 Q818.911 1525.65 818.1 1527.57 Q817.313 1529.47 815.207 1532.07 Q814.628 1532.74 811.526 1535.95 Q808.424 1539.15 802.776 1544.91 Z" fill="#f8f8f2" fill-rule="evenodd" fill-opacity="1" /><path clip-path="url(#clip050)" d="M829.721 1544.91 L837.36 1544.91 L837.36 1518.55 L829.049 1520.21 L829.049 1515.95 L837.313 1514.29 L841.989 1514.29 L841.989 1544.91 L849.628 1544.91 L849.628 1548.85 L829.721 1548.85 L829.721 1544.91 Z" fill="#f8f8f2" fill-rule="evenodd" fill-opacity="1" /><path clip-path="url(#clip050)" d="M856.318 1533.96 L868.795 1533.96 L868.795 1537.76 L856.318 1537.76 L856.318 1533.96 Z" fill="#f8f8f2" fill-rule="evenodd" fill-opacity="1" /><path clip-path="url(#clip050)" d="M876.989 1544.91 L884.628 1544.91 L884.628 1518.55 L876.318 1520.21 L876.318 1515.95 L884.581 1514.29 L889.257 1514.29 L889.257 1544.91 L896.896 1544.91 L896.896 1548.85 L876.989 1548.85 L876.989 1544.91 Z" fill="#f8f8f2" fill-rule="evenodd" fill-opacity="1" /><path clip-path="url(#clip050)" d="M910.368 1544.91 L926.688 1544.91 L926.688 1548.85 L904.743 1548.85 L904.743 1544.91 Q907.405 1542.16 911.989 1537.53 Q916.595 1532.88 917.776 1531.53 Q920.021 1529.01 920.901 1527.27 Q921.803 1525.51 921.803 1523.82 Q921.803 1521.07 919.859 1519.33 Q917.938 1517.6 914.836 1517.6 Q912.637 1517.6 910.183 1518.36 Q907.753 1519.13 904.975 1520.68 L904.975 1515.95 Q907.799 1514.82 910.253 1514.24 Q912.706 1513.66 914.743 1513.66 Q920.114 1513.66 923.308 1516.35 Q926.503 1519.03 926.503 1523.52 Q926.503 1525.65 925.692 1527.57 Q924.905 1529.47 922.799 1532.07 Q922.22 1532.74 919.118 1535.95 Q916.016 1539.15 910.368 1544.91 Z" fill="#f8f8f2" fill-rule="evenodd" fill-opacity="1" /><path clip-path="url(#clip050)" d="M933.748 1533.96 L946.225 1533.96 L946.225 1537.76 L933.748 1537.76 L933.748 1533.96 Z" fill="#f8f8f2" fill-rule="evenodd" fill-opacity="1" /><path clip-path="url(#clip050)" d="M963.609 1517.37 Q959.998 1517.37 958.169 1520.93 Q956.363 1524.47 956.363 1531.6 Q956.363 1538.71 958.169 1542.27 Q959.998 1545.82 963.609 1545.82 Q967.243 1545.82 969.049 1542.27 Q970.877 1538.71 970.877 1531.6 Q970.877 1524.47 969.049 1520.93 Q967.243 1517.37 963.609 1517.37 M963.609 1513.66 Q969.419 1513.66 972.475 1518.27 Q975.553 1522.85 975.553 1531.6 Q975.553 1540.33 972.475 1544.94 Q969.419 1549.52 963.609 1549.52 Q957.799 1549.52 954.72 1544.94 Q951.664 1540.33 951.664 1531.6 Q951.664 1522.85 954.72 1518.27 Q957.799 1513.66 963.609 1513.66 Z" fill="#f8f8f2" fill-rule="evenodd" fill-opacity="1" /><path clip-path="url(#clip050)" d="M984.581 1544.91 L992.22 1544.91 L992.22 1518.55 L983.91 1520.21 L983.91 1515.95 L992.173 1514.29 L996.849 1514.29 L996.849 1544.91 L1004.49 1544.91 L1004.49 1548.85 L984.581 1548.85 L984.581 1544.91 Z" fill="#f8f8f2" fill-rule="evenodd" fill-opacity="1" /><path clip-path="url(#clip050)" d="M1237.34 1544.91 L1253.66 1544.91 L1253.66 1548.85 L1231.71 1548.85 L1231.71 1544.91 Q1234.37 1542.16 1238.96 1537.53 Q1243.56 1532.88 1244.74 1531.53 Q1246.99 1529.01 1247.87 1527.27 Q1248.77 1525.51 1248.77 1523.82 Q1248.77 1521.07 1246.83 1519.33 Q1244.91 1517.6 1241.8 1517.6 Q1239.61 1517.6 1237.15 1518.36 Q1234.72 1519.13 1231.94 1520.68 L1231.94 1515.95 Q1234.77 1514.82 1237.22 1514.24 Q1239.67 1513.66 1241.71 1513.66 Q1247.08 1513.66 1250.28 1516.35 Q1253.47 1519.03 1253.47 1523.52 Q1253.47 1525.65 1252.66 1527.57 Q1251.87 1529.47 1249.77 1532.07 Q1249.19 1532.74 1246.09 1535.95 Q1242.98 1539.15 1237.34 1544.91 Z" fill="#f8f8f2" fill-rule="evenodd" fill-opacity="1" /><path clip-path="url(#clip050)" d="M1273.47 1517.37 Q1269.86 1517.37 1268.03 1520.93 Q1266.23 1524.47 1266.23 1531.6 Q1266.23 1538.71 1268.03 1542.27 Q1269.86 1545.82 1273.47 1545.82 Q1277.1 1545.82 1278.91 1542.27 Q1280.74 1538.71 1280.74 1531.6 Q1280.74 1524.47 1278.91 1520.93 Q1277.1 1517.37 1273.47 1517.37 M1273.47 1513.66 Q1279.28 1513.66 1282.34 1518.27 Q1285.42 1522.85 1285.42 1531.6 Q1285.42 1540.33 1282.34 1544.94 Q1279.28 1549.52 1273.47 1549.52 Q1267.66 1549.52 1264.58 1544.94 Q1261.53 1540.33 1261.53 1531.6 Q1261.53 1522.85 1264.58 1518.27 Q1267.66 1513.66 1273.47 1513.66 Z" fill="#f8f8f2" fill-rule="evenodd" fill-opacity="1" /><path clip-path="url(#clip050)" d="M1297.66 1544.91 L1313.98 1544.91 L1313.98 1548.85 L1292.04 1548.85 L1292.04 1544.91 Q1294.7 1542.16 1299.28 1537.53 Q1303.89 1532.88 1305.07 1531.53 Q1307.31 1529.01 1308.19 1527.27 Q1309.1 1525.51 1309.1 1523.82 Q1309.1 1521.07 1307.15 1519.33 Q1305.23 1517.6 1302.13 1517.6 Q1299.93 1517.6 1297.48 1518.36 Q1295.04 1519.13 1292.27 1520.68 L1292.27 1515.95 Q1295.09 1514.82 1297.54 1514.24 Q1300 1513.66 1302.04 1513.66 Q1307.41 1513.66 1310.6 1516.35 Q1313.79 1519.03 1313.79 1523.52 Q1313.79 1525.65 1312.98 1527.57 Q1312.2 1529.47 1310.09 1532.07 Q1309.51 1532.74 1306.41 1535.95 Q1303.31 1539.15 1297.66 1544.91 Z" fill="#f8f8f2" fill-rule="evenodd" fill-opacity="1" /><path clip-path="url(#clip050)" d="M1327.82 1544.91 L1344.14 1544.91 L1344.14 1548.85 L1322.2 1548.85 L1322.2 1544.91 Q1324.86 1542.16 1329.44 1537.53 Q1334.05 1532.88 1335.23 1531.53 Q1337.48 1529.01 1338.35 1527.27 Q1339.26 1525.51 1339.26 1523.82 Q1339.26 1521.07 1337.31 1519.33 Q1335.39 1517.6 1332.29 1517.6 Q1330.09 1517.6 1327.64 1518.36 Q1325.21 1519.13 1322.43 1520.68 L1322.43 1515.95 Q1325.25 1514.82 1327.71 1514.24 Q1330.16 1513.66 1332.2 1513.66 Q1337.57 1513.66 1340.76 1516.35 Q1343.96 1519.03 1343.96 1523.52 Q1343.96 1525.65 1343.15 1527.57 Q1342.36 1529.47 1340.25 1532.07 Q1339.67 1532.74 1336.57 1535.95 Q1333.47 1539.15 1327.82 1544.91 Z" fill="#f8f8f2" fill-rule="evenodd" fill-opacity="1" /><path clip-path="url(#clip050)" d="M1351.2 1533.96 L1363.68 1533.96 L1363.68 1537.76 L1351.2 1537.76 L1351.2 1533.96 Z" fill="#f8f8f2" fill-rule="evenodd" fill-opacity="1" /><path clip-path="url(#clip050)" d="M1381.06 1517.37 Q1377.45 1517.37 1375.62 1520.93 Q1373.82 1524.47 1373.82 1531.6 Q1373.82 1538.71 1375.62 1542.27 Q1377.45 1545.82 1381.06 1545.82 Q1384.7 1545.82 1386.5 1542.27 Q1388.33 1538.71 1388.33 1531.6 Q1388.33 1524.47 1386.5 1520.93 Q1384.7 1517.37 1381.06 1517.37 M1381.06 1513.66 Q1386.87 1513.66 1389.93 1518.27 Q1393.01 1522.85 1393.01 1531.6 Q1393.01 1540.33 1389.93 1544.94 Q1386.87 1549.52 1381.06 1549.52 Q1375.25 1549.52 1372.17 1544.94 Q1369.12 1540.33 1369.12 1531.6 Q1369.12 1522.85 1372.17 1518.27 Q1375.25 1513.66 1381.06 1513.66 Z" fill="#f8f8f2" fill-rule="evenodd" fill-opacity="1" /><path clip-path="url(#clip050)" d="M1402.03 1544.91 L1409.67 1544.91 L1409.67 1518.55 L1401.36 1520.21 L1401.36 1515.95 L1409.63 1514.29 L1414.3 1514.29 L1414.3 1544.91 L1421.94 1544.91 L1421.94 1548.85 L1402.03 1548.85 L1402.03 1544.91 Z" fill="#f8f8f2" fill-rule="evenodd" fill-opacity="1" /><path clip-path="url(#clip050)" d="M1428.63 1533.96 L1441.11 1533.96 L1441.11 1537.76 L1428.63 1537.76 L1428.63 1533.96 Z" fill="#f8f8f2" fill-rule="evenodd" fill-opacity="1" /><path clip-path="url(#clip050)" d="M1458.49 1517.37 Q1454.88 1517.37 1453.05 1520.93 Q1451.25 1524.47 1451.25 1531.6 Q1451.25 1538.71 1453.05 1542.27 Q1454.88 1545.82 1458.49 1545.82 Q1462.13 1545.82 1463.93 1542.27 Q1465.76 1538.71 1465.76 1531.6 Q1465.76 1524.47 1463.93 1520.93 Q1462.13 1517.37 1458.49 1517.37 M1458.49 1513.66 Q1464.3 1513.66 1467.36 1518.27 Q1470.44 1522.85 1470.44 1531.6 Q1470.44 1540.33 1467.36 1544.94 Q1464.3 1549.52 1458.49 1549.52 Q1452.68 1549.52 1449.6 1544.94 Q1446.55 1540.33 1446.55 1531.6 Q1446.55 1522.85 1449.6 1518.27 Q1452.68 1513.66 1458.49 1513.66 Z" fill="#f8f8f2" fill-rule="evenodd" fill-opacity="1" /><path clip-path="url(#clip050)" d="M1479.47 1544.91 L1487.1 1544.91 L1487.1 1518.55 L1478.79 1520.21 L1478.79 1515.95 L1487.06 1514.29 L1491.73 1514.29 L1491.73 1544.91 L1499.37 1544.91 L1499.37 1548.85 L1479.47 1548.85 L1479.47 1544.91 Z" fill="#f8f8f2" fill-rule="evenodd" fill-opacity="1" /><path clip-path="url(#clip050)" d="M1732.22 1544.91 L1748.54 1544.91 L1748.54 1548.85 L1726.6 1548.85 L1726.6 1544.91 Q1729.26 1542.16 1733.84 1537.53 Q1738.45 1532.88 1739.63 1531.53 Q1741.87 1529.01 1742.75 1527.27 Q1743.66 1525.51 1743.66 1523.82 Q1743.66 1521.07 1741.71 1519.33 Q1739.79 1517.6 1736.69 1517.6 Q1734.49 1517.6 1732.04 1518.36 Q1729.61 1519.13 1726.83 1520.68 L1726.83 1515.95 Q1729.65 1514.82 1732.1 1514.24 Q1734.56 1513.66 1736.6 1513.66 Q1741.97 1513.66 1745.16 1516.35 Q1748.35 1519.03 1748.35 1523.52 Q1748.35 1525.65 1747.54 1527.57 Q1746.76 1529.47 1744.65 1532.07 Q1744.07 1532.74 1740.97 1535.95 Q1737.87 1539.15 1732.22 1544.91 Z" fill="#f8f8f2" fill-rule="evenodd" fill-opacity="1" /><path clip-path="url(#clip050)" d="M1768.35 1517.37 Q1764.74 1517.37 1762.92 1520.93 Q1761.11 1524.47 1761.11 1531.6 Q1761.11 1538.71 1762.92 1542.27 Q1764.74 1545.82 1768.35 1545.82 Q1771.99 1545.82 1773.79 1542.27 Q1775.62 1538.71 1775.62 1531.6 Q1775.62 1524.47 1773.79 1520.93 Q1771.99 1517.37 1768.35 1517.37 M1768.35 1513.66 Q1774.16 1513.66 1777.22 1518.27 Q1780.3 1522.85 1780.3 1531.6 Q1780.3 1540.33 1777.22 1544.94 Q1774.16 1549.52 1768.35 1549.52 Q1762.54 1549.52 1759.47 1544.94 Q1756.41 1540.33 1756.41 1531.6 Q1756.41 1522.85 1759.47 1518.27 Q1762.54 1513.66 1768.35 1513.66 Z" fill="#f8f8f2" fill-rule="evenodd" fill-opacity="1" /><path clip-path="url(#clip050)" d="M1792.54 1544.91 L1808.86 1544.91 L1808.86 1548.85 L1786.92 1548.85 L1786.92 1544.91 Q1789.58 1542.16 1794.16 1537.53 Q1798.77 1532.88 1799.95 1531.53 Q1802.2 1529.01 1803.08 1527.27 Q1803.98 1525.51 1803.98 1523.82 Q1803.98 1521.07 1802.04 1519.33 Q1800.11 1517.6 1797.01 1517.6 Q1794.81 1517.6 1792.36 1518.36 Q1789.93 1519.13 1787.15 1520.68 L1787.15 1515.95 Q1789.98 1514.82 1792.43 1514.24 Q1794.88 1513.66 1796.92 1513.66 Q1802.29 1513.66 1805.48 1516.35 Q1808.68 1519.03 1808.68 1523.52 Q1808.68 1525.65 1807.87 1527.57 Q1807.08 1529.47 1804.97 1532.07 Q1804.4 1532.74 1801.29 1535.95 Q1798.19 1539.15 1792.54 1544.91 Z" fill="#f8f8f2" fill-rule="evenodd" fill-opacity="1" /><path clip-path="url(#clip050)" d="M1822.71 1544.91 L1839.03 1544.91 L1839.03 1548.85 L1817.08 1548.85 L1817.08 1544.91 Q1819.74 1542.16 1824.33 1537.53 Q1828.93 1532.88 1830.11 1531.53 Q1832.36 1529.01 1833.24 1527.27 Q1834.14 1525.51 1834.14 1523.82 Q1834.14 1521.07 1832.2 1519.33 Q1830.28 1517.6 1827.17 1517.6 Q1824.97 1517.6 1822.52 1518.36 Q1820.09 1519.13 1817.31 1520.68 L1817.31 1515.95 Q1820.14 1514.82 1822.59 1514.24 Q1825.04 1513.66 1827.08 1513.66 Q1832.45 1513.66 1835.65 1516.35 Q1838.84 1519.03 1838.84 1523.52 Q1838.84 1525.65 1838.03 1527.57 Q1837.24 1529.47 1835.14 1532.07 Q1834.56 1532.74 1831.46 1535.95 Q1828.35 1539.15 1822.71 1544.91 Z" fill="#f8f8f2" fill-rule="evenodd" fill-opacity="1" /><path clip-path="url(#clip050)" d="M1846.09 1533.96 L1858.56 1533.96 L1858.56 1537.76 L1846.09 1537.76 L1846.09 1533.96 Z" fill="#f8f8f2" fill-rule="evenodd" fill-opacity="1" /><path clip-path="url(#clip050)" d="M1875.95 1517.37 Q1872.34 1517.37 1870.51 1520.93 Q1868.7 1524.47 1868.7 1531.6 Q1868.7 1538.71 1870.51 1542.27 Q1872.34 1545.82 1875.95 1545.82 Q1879.58 1545.82 1881.39 1542.27 Q1883.22 1538.71 1883.22 1531.6 Q1883.22 1524.47 1881.39 1520.93 Q1879.58 1517.37 1875.95 1517.37 M1875.95 1513.66 Q1881.76 1513.66 1884.81 1518.27 Q1887.89 1522.85 1887.89 1531.6 Q1887.89 1540.33 1884.81 1544.94 Q1881.76 1549.52 1875.95 1549.52 Q1870.14 1549.52 1867.06 1544.94 Q1864 1540.33 1864 1531.6 Q1864 1522.85 1867.06 1518.27 Q1870.14 1513.66 1875.95 1513.66 Z" fill="#f8f8f2" fill-rule="evenodd" fill-opacity="1" /><path clip-path="url(#clip050)" d="M1900.14 1544.91 L1916.46 1544.91 L1916.46 1548.85 L1894.51 1548.85 L1894.51 1544.91 Q1897.17 1542.16 1901.76 1537.53 Q1906.36 1532.88 1907.54 1531.53 Q1909.79 1529.01 1910.67 1527.27 Q1911.57 1525.51 1911.57 1523.82 Q1911.57 1521.07 1909.63 1519.33 Q1907.71 1517.6 1904.6 1517.6 Q1902.41 1517.6 1899.95 1518.36 Q1897.52 1519.13 1894.74 1520.68 L1894.74 1515.95 Q1897.57 1514.82 1900.02 1514.24 Q1902.47 1513.66 1904.51 1513.66 Q1909.88 1513.66 1913.08 1516.35 Q1916.27 1519.03 1916.27 1523.52 Q1916.27 1525.65 1915.46 1527.57 Q1914.67 1529.47 1912.57 1532.07 Q1911.99 1532.74 1908.89 1535.95 Q1905.78 1539.15 1900.14 1544.91 Z" fill="#f8f8f2" fill-rule="evenodd" fill-opacity="1" /><path clip-path="url(#clip050)" d="M1923.52 1533.96 L1935.99 1533.96 L1935.99 1537.76 L1923.52 1537.76 L1923.52 1533.96 Z" fill="#f8f8f2" fill-rule="evenodd" fill-opacity="1" /><path clip-path="url(#clip050)" d="M1953.38 1517.37 Q1949.77 1517.37 1947.94 1520.93 Q1946.13 1524.47 1946.13 1531.6 Q1946.13 1538.71 1947.94 1542.27 Q1949.77 1545.82 1953.38 1545.82 Q1957.01 1545.82 1958.82 1542.27 Q1960.65 1538.71 1960.65 1531.6 Q1960.65 1524.47 1958.82 1520.93 Q1957.01 1517.37 1953.38 1517.37 M1953.38 1513.66 Q1959.19 1513.66 1962.24 1518.27 Q1965.32 1522.85 1965.32 1531.6 Q1965.32 1540.33 1962.24 1544.94 Q1959.19 1549.52 1953.38 1549.52 Q1947.57 1549.52 1944.49 1544.94 Q1941.43 1540.33 1941.43 1531.6 Q1941.43 1522.85 1944.49 1518.27 Q1947.57 1513.66 1953.38 1513.66 Z" fill="#f8f8f2" fill-rule="evenodd" fill-opacity="1" /><path clip-path="url(#clip050)" d="M1974.35 1544.91 L1981.99 1544.91 L1981.99 1518.55 L1973.68 1520.21 L1973.68 1515.95 L1981.94 1514.29 L1986.62 1514.29 L1986.62 1544.91 L1994.26 1544.91 L1994.26 1548.85 L1974.35 1548.85 L1974.35 1544.91 Z" fill="#f8f8f2" fill-rule="evenodd" fill-opacity="1" /><path clip-path="url(#clip050)" d="M2179.21 1544.91 L2195.53 1544.91 L2195.53 1548.85 L2173.59 1548.85 L2173.59 1544.91 Q2176.25 1542.16 2180.83 1537.53 Q2185.44 1532.88 2186.62 1531.53 Q2188.87 1529.01 2189.75 1527.27 Q2190.65 1525.51 2190.65 1523.82 Q2190.65 1521.07 2188.7 1519.33 Q2186.78 1517.6 2183.68 1517.6 Q2181.48 1517.6 2179.03 1518.36 Q2176.6 1519.13 2173.82 1520.68 L2173.82 1515.95 Q2176.64 1514.82 2179.1 1514.24 Q2181.55 1513.66 2183.59 1513.66 Q2188.96 1513.66 2192.15 1516.35 Q2195.35 1519.03 2195.35 1523.52 Q2195.35 1525.65 2194.54 1527.57 Q2193.75 1529.47 2191.64 1532.07 Q2191.06 1532.74 2187.96 1535.95 Q2184.86 1539.15 2179.21 1544.91 Z" fill="#f8f8f2" fill-rule="evenodd" fill-opacity="1" /><path clip-path="url(#clip050)" d="M2215.35 1517.37 Q2211.74 1517.37 2209.91 1520.93 Q2208.1 1524.47 2208.1 1531.6 Q2208.1 1538.71 2209.91 1542.27 Q2211.74 1545.82 2215.35 1545.82 Q2218.98 1545.82 2220.79 1542.27 Q2222.62 1538.71 2222.62 1531.6 Q2222.62 1524.47 2220.79 1520.93 Q2218.98 1517.37 2215.35 1517.37 M2215.35 1513.66 Q2221.16 1513.66 2224.21 1518.27 Q2227.29 1522.85 2227.29 1531.6 Q2227.29 1540.33 2224.21 1544.94 Q2221.16 1549.52 2215.35 1549.52 Q2209.54 1549.52 2206.46 1544.94 Q2203.4 1540.33 2203.4 1531.6 Q2203.4 1522.85 2206.46 1518.27 Q2209.54 1513.66 2215.35 1513.66 Z" fill="#f8f8f2" fill-rule="evenodd" fill-opacity="1" /><path clip-path="url(#clip050)" d="M2239.54 1544.91 L2255.86 1544.91 L2255.86 1548.85 L2233.91 1548.85 L2233.91 1544.91 Q2236.57 1542.16 2241.16 1537.53 Q2245.76 1532.88 2246.94 1531.53 Q2249.19 1529.01 2250.07 1527.27 Q2250.97 1525.51 2250.97 1523.82 Q2250.97 1521.07 2249.03 1519.33 Q2247.11 1517.6 2244 1517.6 Q2241.81 1517.6 2239.35 1518.36 Q2236.92 1519.13 2234.14 1520.68 L2234.14 1515.95 Q2236.97 1514.82 2239.42 1514.24 Q2241.87 1513.66 2243.91 1513.66 Q2249.28 1513.66 2252.48 1516.35 Q2255.67 1519.03 2255.67 1523.52 Q2255.67 1525.65 2254.86 1527.57 Q2254.07 1529.47 2251.97 1532.07 Q2251.39 1532.74 2248.29 1535.95 Q2245.18 1539.15 2239.54 1544.91 Z" fill="#f8f8f2" fill-rule="evenodd" fill-opacity="1" /><path clip-path="url(#clip050)" d="M2269.7 1544.91 L2286.02 1544.91 L2286.02 1548.85 L2264.07 1548.85 L2264.07 1544.91 Q2266.74 1542.16 2271.32 1537.53 Q2275.93 1532.88 2277.11 1531.53 Q2279.35 1529.01 2280.23 1527.27 Q2281.13 1525.51 2281.13 1523.82 Q2281.13 1521.07 2279.19 1519.33 Q2277.27 1517.6 2274.17 1517.6 Q2271.97 1517.6 2269.51 1518.36 Q2267.08 1519.13 2264.3 1520.68 L2264.3 1515.95 Q2267.13 1514.82 2269.58 1514.24 Q2272.04 1513.66 2274.07 1513.66 Q2279.44 1513.66 2282.64 1516.35 Q2285.83 1519.03 2285.83 1523.52 Q2285.83 1525.65 2285.02 1527.57 Q2284.24 1529.47 2282.13 1532.07 Q2281.55 1532.74 2278.45 1535.95 Q2275.35 1539.15 2269.7 1544.91 Z" fill="#f8f8f2" fill-rule="evenodd" fill-opacity="1" /><path clip-path="url(#clip050)" d="M2293.08 1533.96 L2305.55 1533.96 L2305.55 1537.76 L2293.08 1537.76 L2293.08 1533.96 Z" fill="#f8f8f2" fill-rule="evenodd" fill-opacity="1" /><path clip-path="url(#clip050)" d="M2322.94 1517.37 Q2319.33 1517.37 2317.5 1520.93 Q2315.69 1524.47 2315.69 1531.6 Q2315.69 1538.71 2317.5 1542.27 Q2319.33 1545.82 2322.94 1545.82 Q2326.57 1545.82 2328.38 1542.27 Q2330.21 1538.71 2330.21 1531.6 Q2330.21 1524.47 2328.38 1520.93 Q2326.57 1517.37 2322.94 1517.37 M2322.94 1513.66 Q2328.75 1513.66 2331.8 1518.27 Q2334.88 1522.85 2334.88 1531.6 Q2334.88 1540.33 2331.8 1544.94 Q2328.75 1549.52 2322.94 1549.52 Q2317.13 1549.52 2314.05 1544.94 Q2310.99 1540.33 2310.99 1531.6 Q2310.99 1522.85 2314.05 1518.27 Q2317.13 1513.66 2322.94 1513.66 Z" fill="#f8f8f2" fill-rule="evenodd" fill-opacity="1" /><path clip-path="url(#clip050)" d="M2357.27 1530.21 Q2360.62 1530.93 2362.5 1533.2 Q2364.4 1535.47 2364.4 1538.8 Q2364.4 1543.92 2360.88 1546.72 Q2357.36 1549.52 2350.88 1549.52 Q2348.7 1549.52 2346.39 1549.08 Q2344.1 1548.66 2341.64 1547.81 L2341.64 1543.29 Q2343.59 1544.43 2345.9 1545.01 Q2348.22 1545.58 2350.74 1545.58 Q2355.14 1545.58 2357.43 1543.85 Q2359.74 1542.11 2359.74 1538.8 Q2359.74 1535.75 2357.59 1534.03 Q2355.46 1532.3 2351.64 1532.3 L2347.61 1532.3 L2347.61 1528.45 L2351.83 1528.45 Q2355.28 1528.45 2357.11 1527.09 Q2358.93 1525.7 2358.93 1523.11 Q2358.93 1520.45 2357.04 1519.03 Q2355.16 1517.6 2351.64 1517.6 Q2349.72 1517.6 2347.52 1518.01 Q2345.32 1518.43 2342.68 1519.31 L2342.68 1515.14 Q2345.35 1514.4 2347.66 1514.03 Q2350 1513.66 2352.06 1513.66 Q2357.38 1513.66 2360.48 1516.09 Q2363.59 1518.5 2363.59 1522.62 Q2363.59 1525.49 2361.94 1527.48 Q2360.3 1529.45 2357.27 1530.21 Z" fill="#f8f8f2" fill-rule="evenodd" fill-opacity="1" /><path clip-path="url(#clip050)" d="M2370.51 1533.96 L2382.98 1533.96 L2382.98 1537.76 L2370.51 1537.76 L2370.51 1533.96 Z" fill="#f8f8f2" fill-rule="evenodd" fill-opacity="1" /><path clip-path="url(#clip050)" d="M2400.37 1517.37 Q2396.76 1517.37 2394.93 1520.93 Q2393.12 1524.47 2393.12 1531.6 Q2393.12 1538.71 2394.93 1542.27 Q2396.76 1545.82 2400.37 1545.82 Q2404 1545.82 2405.81 1542.27 Q2407.64 1538.71 2407.64 1531.6 Q2407.64 1524.47 2405.81 1520.93 Q2404 1517.37 2400.37 1517.37 M2400.37 1513.66 Q2406.18 1513.66 2409.23 1518.27 Q2412.31 1522.85 2412.31 1531.6 Q2412.31 1540.33 2409.23 1544.94 Q2406.18 1549.52 2400.37 1549.52 Q2394.56 1549.52 2391.48 1544.94 Q2388.42 1540.33 2388.42 1531.6 Q2388.42 1522.85 2391.48 1518.27 Q2394.56 1513.66 2400.37 1513.66 Z" fill="#f8f8f2" fill-rule="evenodd" fill-opacity="1" /><path clip-path="url(#clip050)" d="M2421.34 1544.91 L2428.98 1544.91 L2428.98 1518.55 L2420.67 1520.21 L2420.67 1515.95 L2428.93 1514.29 L2433.61 1514.29 L2433.61 1544.91 L2441.25 1544.91 L2441.25 1548.85 L2421.34 1548.85 L2421.34 1544.91 Z" fill="#f8f8f2" fill-rule="evenodd" fill-opacity="1" /><polyline clip-path="url(#clip052)" style="stroke:#f8f8f2; stroke-linecap:butt; stroke-linejoin:round; stroke-width:2; stroke-opacity:0.1; fill:none" points="
  186.76,1375 2352.76,1375 
  "/>
<polyline clip-path="url(#clip052)" style="stroke:#f8f8f2; stroke-linecap:butt; stroke-linejoin:round; stroke-width:2; stroke-opacity:0.1; fill:none" points="
  186.76,1079.3 2352.76,1079.3 
  "/>
<polyline clip-path="url(#clip052)" style="stroke:#f8f8f2; stroke-linecap:butt; stroke-linejoin:round; stroke-width:2; stroke-opacity:0.1; fill:none" points="
  186.76,783.59 2352.76,783.59 
  "/>
<polyline clip-path="url(#clip052)" style="stroke:#f8f8f2; stroke-linecap:butt; stroke-linejoin:round; stroke-width:2; stroke-opacity:0.1; fill:none" points="
  186.76,487.883 2352.76,487.883 
  "/>
<polyline clip-path="url(#clip052)" style="stroke:#f8f8f2; stroke-linecap:butt; stroke-linejoin:round; stroke-width:2; stroke-opacity:0.1; fill:none" points="
  186.76,192.177 2352.76,192.177 
  "/>
<polyline clip-path="url(#clip050)" style="stroke:#f8f8f2; stroke-linecap:butt; stroke-linejoin:round; stroke-width:4; stroke-opacity:1; fill:none" points="
  186.76,1486.45 186.76,47.2441 
  "/>
<polyline clip-path="url(#clip050)" style="stroke:#f8f8f2; stroke-linecap:butt; stroke-linejoin:round; stroke-width:4; stroke-opacity:1; fill:none" points="
  186.76,1375 205.658,1375 
  "/>
<polyline clip-path="url(#clip050)" style="stroke:#f8f8f2; stroke-linecap:butt; stroke-linejoin:round; stroke-width:4; stroke-opacity:1; fill:none" points="
  186.76,1079.3 205.658,1079.3 
  "/>
<polyline clip-path="url(#clip050)" style="stroke:#f8f8f2; stroke-linecap:butt; stroke-linejoin:round; stroke-width:4; stroke-opacity:1; fill:none" points="
  186.76,783.59 205.658,783.59 
  "/>
<polyline clip-path="url(#clip050)" style="stroke:#f8f8f2; stroke-linecap:butt; stroke-linejoin:round; stroke-width:4; stroke-opacity:1; fill:none" points="
  186.76,487.883 205.658,487.883 
  "/>
<polyline clip-path="url(#clip050)" style="stroke:#f8f8f2; stroke-linecap:butt; stroke-linejoin:round; stroke-width:4; stroke-opacity:1; fill:none" points="
  186.76,192.177 205.658,192.177 
  "/>
<path clip-path="url(#clip050)" d="M65.0198 1360.8 Q61.4087 1360.8 59.58 1364.37 Q57.7745 1367.91 57.7745 1375.04 Q57.7745 1382.14 59.58 1385.71 Q61.4087 1389.25 65.0198 1389.25 Q68.6541 1389.25 70.4596 1385.71 Q72.2883 1382.14 72.2883 1375.04 Q72.2883 1367.91 70.4596 1364.37 Q68.6541 1360.8 65.0198 1360.8 M65.0198 1357.1 Q70.83 1357.1 73.8855 1361.7 Q76.9642 1366.29 76.9642 1375.04 Q76.9642 1383.76 73.8855 1388.37 Q70.83 1392.95 65.0198 1392.95 Q59.2097 1392.95 56.131 1388.37 Q53.0754 1383.76 53.0754 1375.04 Q53.0754 1366.29 56.131 1361.7 Q59.2097 1357.1 65.0198 1357.1 Z" fill="#f8f8f2" fill-rule="evenodd" fill-opacity="1" /><path clip-path="url(#clip050)" d="M85.1818 1386.4 L90.066 1386.4 L90.066 1392.28 L85.1818 1392.28 L85.1818 1386.4 Z" fill="#f8f8f2" fill-rule="evenodd" fill-opacity="1" /><path clip-path="url(#clip050)" d="M110.251 1360.8 Q106.64 1360.8 104.811 1364.37 Q103.006 1367.91 103.006 1375.04 Q103.006 1382.14 104.811 1385.71 Q106.64 1389.25 110.251 1389.25 Q113.885 1389.25 115.691 1385.71 Q117.52 1382.14 117.52 1375.04 Q117.52 1367.91 115.691 1364.37 Q113.885 1360.8 110.251 1360.8 M110.251 1357.1 Q116.061 1357.1 119.117 1361.7 Q122.195 1366.29 122.195 1375.04 Q122.195 1383.76 119.117 1388.37 Q116.061 1392.95 110.251 1392.95 Q104.441 1392.95 101.362 1388.37 Q98.3067 1383.76 98.3067 1375.04 Q98.3067 1366.29 101.362 1361.7 Q104.441 1357.1 110.251 1357.1 Z" fill="#f8f8f2" fill-rule="evenodd" fill-opacity="1" /><path clip-path="url(#clip050)" d="M134.441 1388.35 L150.76 1388.35 L150.76 1392.28 L128.816 1392.28 L128.816 1388.35 Q131.478 1385.59 136.061 1380.96 Q140.668 1376.31 141.848 1374.97 Q144.093 1372.44 144.973 1370.71 Q145.876 1368.95 145.876 1367.26 Q145.876 1364.5 143.931 1362.77 Q142.01 1361.03 138.908 1361.03 Q136.709 1361.03 134.256 1361.8 Q131.825 1362.56 129.047 1364.11 L129.047 1359.39 Q131.871 1358.26 134.325 1357.68 Q136.779 1357.1 138.816 1357.1 Q144.186 1357.1 147.38 1359.78 Q150.575 1362.47 150.575 1366.96 Q150.575 1369.09 149.765 1371.01 Q148.978 1372.91 146.871 1375.5 Q146.293 1376.17 143.191 1379.39 Q140.089 1382.58 134.441 1388.35 Z" fill="#f8f8f2" fill-rule="evenodd" fill-opacity="1" /><path clip-path="url(#clip050)" d="M64.0708 1065.09 Q60.4597 1065.09 58.631 1068.66 Q56.8254 1072.2 56.8254 1079.33 Q56.8254 1086.44 58.631 1090 Q60.4597 1093.54 64.0708 1093.54 Q67.705 1093.54 69.5105 1090 Q71.3392 1086.44 71.3392 1079.33 Q71.3392 1072.2 69.5105 1068.66 Q67.705 1065.09 64.0708 1065.09 M64.0708 1061.39 Q69.8809 1061.39 72.9365 1066 Q76.0151 1070.58 76.0151 1079.33 Q76.0151 1088.06 72.9365 1092.66 Q69.8809 1097.25 64.0708 1097.25 Q58.2606 1097.25 55.1819 1092.66 Q52.1264 1088.06 52.1264 1079.33 Q52.1264 1070.58 55.1819 1066 Q58.2606 1061.39 64.0708 1061.39 Z" fill="#f8f8f2" fill-rule="evenodd" fill-opacity="1" /><path clip-path="url(#clip050)" d="M84.2327 1090.7 L89.1169 1090.7 L89.1169 1096.58 L84.2327 1096.58 L84.2327 1090.7 Z" fill="#f8f8f2" fill-rule="evenodd" fill-opacity="1" /><path clip-path="url(#clip050)" d="M109.302 1065.09 Q105.691 1065.09 103.862 1068.66 Q102.057 1072.2 102.057 1079.33 Q102.057 1086.44 103.862 1090 Q105.691 1093.54 109.302 1093.54 Q112.936 1093.54 114.742 1090 Q116.57 1086.44 116.57 1079.33 Q116.57 1072.2 114.742 1068.66 Q112.936 1065.09 109.302 1065.09 M109.302 1061.39 Q115.112 1061.39 118.168 1066 Q121.246 1070.58 121.246 1079.33 Q121.246 1088.06 118.168 1092.66 Q115.112 1097.25 109.302 1097.25 Q103.492 1097.25 100.413 1092.66 Q97.3576 1088.06 97.3576 1079.33 Q97.3576 1070.58 100.413 1066 Q103.492 1061.39 109.302 1061.39 Z" fill="#f8f8f2" fill-rule="evenodd" fill-opacity="1" /><path clip-path="url(#clip050)" d="M143.631 1077.94 Q146.987 1078.66 148.862 1080.93 Q150.76 1083.2 150.76 1086.53 Q150.76 1091.65 147.242 1094.45 Q143.723 1097.25 137.242 1097.25 Q135.066 1097.25 132.751 1096.81 Q130.459 1096.39 128.006 1095.53 L128.006 1091.02 Q129.95 1092.15 132.265 1092.73 Q134.58 1093.31 137.103 1093.31 Q141.501 1093.31 143.793 1091.58 Q146.107 1089.84 146.107 1086.53 Q146.107 1083.47 143.955 1081.76 Q141.825 1080.03 138.006 1080.03 L133.978 1080.03 L133.978 1076.18 L138.191 1076.18 Q141.64 1076.18 143.468 1074.82 Q145.297 1073.43 145.297 1070.84 Q145.297 1068.17 143.399 1066.76 Q141.524 1065.33 138.006 1065.33 Q136.084 1065.33 133.885 1065.74 Q131.686 1066.16 129.047 1067.04 L129.047 1062.87 Q131.709 1062.13 134.024 1061.76 Q136.362 1061.39 138.422 1061.39 Q143.746 1061.39 146.848 1063.82 Q149.95 1066.23 149.95 1070.35 Q149.95 1073.22 148.306 1075.21 Q146.663 1077.18 143.631 1077.94 Z" fill="#f8f8f2" fill-rule="evenodd" fill-opacity="1" /><path clip-path="url(#clip050)" d="M62.9365 769.388 Q59.3254 769.388 57.4967 772.953 Q55.6912 776.495 55.6912 783.624 Q55.6912 790.731 57.4967 794.296 Q59.3254 797.837 62.9365 797.837 Q66.5707 797.837 68.3763 794.296 Q70.205 790.731 70.205 783.624 Q70.205 776.495 68.3763 772.953 Q66.5707 769.388 62.9365 769.388 M62.9365 765.685 Q68.7467 765.685 71.8022 770.291 Q74.8809 774.874 74.8809 783.624 Q74.8809 792.351 71.8022 796.958 Q68.7467 801.541 62.9365 801.541 Q57.1264 801.541 54.0477 796.958 Q50.9921 792.351 50.9921 783.624 Q50.9921 774.874 54.0477 770.291 Q57.1264 765.685 62.9365 765.685 Z" fill="#f8f8f2" fill-rule="evenodd" fill-opacity="1" /><path clip-path="url(#clip050)" d="M83.0984 794.99 L87.9827 794.99 L87.9827 800.87 L83.0984 800.87 L83.0984 794.99 Z" fill="#f8f8f2" fill-rule="evenodd" fill-opacity="1" /><path clip-path="url(#clip050)" d="M108.168 769.388 Q104.557 769.388 102.728 772.953 Q100.922 776.495 100.922 783.624 Q100.922 790.731 102.728 794.296 Q104.557 797.837 108.168 797.837 Q111.802 797.837 113.608 794.296 Q115.436 790.731 115.436 783.624 Q115.436 776.495 113.608 772.953 Q111.802 769.388 108.168 769.388 M108.168 765.685 Q113.978 765.685 117.033 770.291 Q120.112 774.874 120.112 783.624 Q120.112 792.351 117.033 796.958 Q113.978 801.541 108.168 801.541 Q102.358 801.541 99.2789 796.958 Q96.2234 792.351 96.2234 783.624 Q96.2234 774.874 99.2789 770.291 Q102.358 765.685 108.168 765.685 Z" fill="#f8f8f2" fill-rule="evenodd" fill-opacity="1" /><path clip-path="url(#clip050)" d="M141.177 770.384 L129.371 788.833 L141.177 788.833 L141.177 770.384 M139.95 766.31 L145.83 766.31 L145.83 788.833 L150.76 788.833 L150.76 792.721 L145.83 792.721 L145.83 800.87 L141.177 800.87 L141.177 792.721 L125.575 792.721 L125.575 788.208 L139.95 766.31 Z" fill="#f8f8f2" fill-rule="evenodd" fill-opacity="1" /><path clip-path="url(#clip050)" d="M64.418 473.682 Q60.8069 473.682 58.9782 477.247 Q57.1726 480.788 57.1726 487.918 Q57.1726 495.024 58.9782 498.589 Q60.8069 502.131 64.418 502.131 Q68.0522 502.131 69.8578 498.589 Q71.6865 495.024 71.6865 487.918 Q71.6865 480.788 69.8578 477.247 Q68.0522 473.682 64.418 473.682 M64.418 469.978 Q70.2281 469.978 73.2837 474.584 Q76.3624 479.168 76.3624 487.918 Q76.3624 496.645 73.2837 501.251 Q70.2281 505.834 64.418 505.834 Q58.6078 505.834 55.5291 501.251 Q52.4736 496.645 52.4736 487.918 Q52.4736 479.168 55.5291 474.584 Q58.6078 469.978 64.418 469.978 Z" fill="#f8f8f2" fill-rule="evenodd" fill-opacity="1" /><path clip-path="url(#clip050)" d="M84.5799 499.283 L89.4641 499.283 L89.4641 505.163 L84.5799 505.163 L84.5799 499.283 Z" fill="#f8f8f2" fill-rule="evenodd" fill-opacity="1" /><path clip-path="url(#clip050)" d="M109.649 473.682 Q106.038 473.682 104.209 477.247 Q102.404 480.788 102.404 487.918 Q102.404 495.024 104.209 498.589 Q106.038 502.131 109.649 502.131 Q113.283 502.131 115.089 498.589 Q116.918 495.024 116.918 487.918 Q116.918 480.788 115.089 477.247 Q113.283 473.682 109.649 473.682 M109.649 469.978 Q115.459 469.978 118.515 474.584 Q121.594 479.168 121.594 487.918 Q121.594 496.645 118.515 501.251 Q115.459 505.834 109.649 505.834 Q103.839 505.834 100.76 501.251 Q97.7048 496.645 97.7048 487.918 Q97.7048 479.168 100.76 474.584 Q103.839 469.978 109.649 469.978 Z" fill="#f8f8f2" fill-rule="evenodd" fill-opacity="1" /><path clip-path="url(#clip050)" d="M129.857 470.603 L148.214 470.603 L148.214 474.538 L134.14 474.538 L134.14 483.01 Q135.158 482.663 136.177 482.501 Q137.195 482.316 138.214 482.316 Q144.001 482.316 147.38 485.487 Q150.76 488.658 150.76 494.075 Q150.76 499.654 147.288 502.756 Q143.816 505.834 137.496 505.834 Q135.32 505.834 133.052 505.464 Q130.807 505.094 128.399 504.353 L128.399 499.654 Q130.482 500.788 132.705 501.344 Q134.927 501.899 137.404 501.899 Q141.408 501.899 143.746 499.793 Q146.084 497.686 146.084 494.075 Q146.084 490.464 143.746 488.358 Q141.408 486.251 137.404 486.251 Q135.529 486.251 133.654 486.668 Q131.802 487.084 129.857 487.964 L129.857 470.603 Z" fill="#f8f8f2" fill-rule="evenodd" fill-opacity="1" /><path clip-path="url(#clip050)" d="M63.2606 177.975 Q59.6495 177.975 57.8208 181.54 Q56.0152 185.082 56.0152 192.211 Q56.0152 199.318 57.8208 202.882 Q59.6495 206.424 63.2606 206.424 Q66.8948 206.424 68.7004 202.882 Q70.5291 199.318 70.5291 192.211 Q70.5291 185.082 68.7004 181.54 Q66.8948 177.975 63.2606 177.975 M63.2606 174.272 Q69.0707 174.272 72.1263 178.878 Q75.205 183.461 75.205 192.211 Q75.205 200.938 72.1263 205.544 Q69.0707 210.128 63.2606 210.128 Q57.4504 210.128 54.3717 205.544 Q51.3162 200.938 51.3162 192.211 Q51.3162 183.461 54.3717 178.878 Q57.4504 174.272 63.2606 174.272 Z" fill="#f8f8f2" fill-rule="evenodd" fill-opacity="1" /><path clip-path="url(#clip050)" d="M83.4225 203.577 L88.3067 203.577 L88.3067 209.457 L83.4225 209.457 L83.4225 203.577 Z" fill="#f8f8f2" fill-rule="evenodd" fill-opacity="1" /><path clip-path="url(#clip050)" d="M108.492 177.975 Q104.881 177.975 103.052 181.54 Q101.246 185.082 101.246 192.211 Q101.246 199.318 103.052 202.882 Q104.881 206.424 108.492 206.424 Q112.126 206.424 113.932 202.882 Q115.76 199.318 115.76 192.211 Q115.76 185.082 113.932 181.54 Q112.126 177.975 108.492 177.975 M108.492 174.272 Q114.302 174.272 117.358 178.878 Q120.436 183.461 120.436 192.211 Q120.436 200.938 117.358 205.544 Q114.302 210.128 108.492 210.128 Q102.682 210.128 99.603 205.544 Q96.5474 200.938 96.5474 192.211 Q96.5474 183.461 99.603 178.878 Q102.682 174.272 108.492 174.272 Z" fill="#f8f8f2" fill-rule="evenodd" fill-opacity="1" /><path clip-path="url(#clip050)" d="M139.232 190.313 Q136.084 190.313 134.232 192.466 Q132.404 194.619 132.404 198.369 Q132.404 202.095 134.232 204.271 Q136.084 206.424 139.232 206.424 Q142.381 206.424 144.209 204.271 Q146.061 202.095 146.061 198.369 Q146.061 194.619 144.209 192.466 Q142.381 190.313 139.232 190.313 M148.515 175.66 L148.515 179.92 Q146.756 179.086 144.95 178.646 Q143.168 178.207 141.408 178.207 Q136.779 178.207 134.325 181.332 Q131.894 184.457 131.547 190.776 Q132.913 188.762 134.973 187.697 Q137.033 186.609 139.51 186.609 Q144.718 186.609 147.728 189.781 Q150.76 192.929 150.76 198.369 Q150.76 203.693 147.612 206.91 Q144.464 210.128 139.232 210.128 Q133.237 210.128 130.066 205.544 Q126.894 200.938 126.894 192.211 Q126.894 184.017 130.783 179.156 Q134.672 174.272 141.223 174.272 Q142.982 174.272 144.765 174.619 Q146.57 174.966 148.515 175.66 Z" fill="#f8f8f2" fill-rule="evenodd" fill-opacity="1" /><polyline clip-path="url(#clip052)" style="stroke:#8be9fd; stroke-linecap:butt; stroke-linejoin:round; stroke-width:4; stroke-opacity:1; fill:none" points="
  248.062,1289.4 264.026,1293.14 279.99,1181.97 295.954,1213.28 311.918,1254.25 327.882,1177.66 343.846,1026.79 359.81,1431.49 375.774,1296.22 391.738,1187.67 
  407.702,1153.34 423.666,1209.58 439.63,1242.18 455.594,1104.94 471.558,1374.42 487.522,1362.71 503.486,992.451 519.45,986.803 535.414,905.926 551.378,1214.66 
  567.342,1005.1 583.306,1325.22 599.27,1283.34 615.234,1089.17 631.198,913.244 647.162,732.292 663.126,789.821 679.09,950.677 695.054,1350.66 711.018,1296.43 
  726.982,1075.93 742.946,1133.64 758.91,1003.74 774.874,1082.17 790.838,832.318 806.802,1272.53 822.766,1188.89 838.73,841.583 854.694,820.637 870.658,1041.69 
  886.622,1044.86 902.586,762.175 918.55,836.683 934.514,801.489 950.478,776.821 966.442,920.048 982.406,890.372 998.37,779.85 1014.33,1009.87 1030.3,1009.51 
  1046.26,963.642 1062.23,790.06 1078.19,865.191 1094.15,866.39 1110.12,939.755 1126.08,701.626 1142.05,1109.14 1158.01,1057.58 1173.97,786.895 1189.94,701.532 
  1205.9,941.342 1221.87,737.373 1237.83,930.136 1253.79,1375.52 1269.76,1302.79 1285.72,911.47 1301.69,552.034 1317.65,358.693 1333.61,87.9763 1349.58,920.138 
  1365.54,1200.28 1381.51,1381.52 1397.47,1036.8 1413.43,813.432 1429.4,658.862 1445.36,911.353 1461.33,498.537 1477.29,585.884 1493.25,1042.32 1509.22,709.894 
  1525.18,849.642 1541.15,875.872 1557.11,916.978 1573.07,1038.06 1589.04,1445.72 1605,1351.02 1620.97,1067.49 1636.93,776.936 1652.89,884.197 1668.86,721.731 
  1684.82,540.765 1700.79,651.478 1716.75,993.749 1732.71,480.096 1748.68,807.407 1764.64,642.078 1780.61,603.406 1796.57,928.727 1812.53,1294.86 1828.5,1306.52 
  1844.46,921.823 1860.43,983.372 1876.39,1037.83 1892.35,1042.17 1908.32,828.097 1924.28,1136.21 1940.25,1300.43 1956.21,951.598 1972.17,992.494 1988.14,1083.58 
  2004.1,871.752 2020.07,916.696 2036.03,1200.22 2051.99,1379.4 2067.96,1046.96 2083.92,1003.42 2099.89,1222.2 2115.85,776.793 2131.81,897.01 2147.78,1318.24 
  2163.74,1051.43 2179.71,814.346 2195.67,840.014 2211.63,913.2 2227.6,723.544 2243.56,890.562 2259.53,1279.74 2275.49,1000.56 2291.45,799.353 
  "/>
<path clip-path="url(#clip050)" d="
M1590.86 198.898 L2280.56 198.898 L2280.56 95.2176 L1590.86 95.2176  Z
  " fill="#282a36" fill-rule="evenodd" fill-opacity="1"/>
<polyline clip-path="url(#clip050)" style="stroke:#f8f8f2; stroke-linecap:butt; stroke-linejoin:round; stroke-width:4; stroke-opacity:1; fill:none" points="
  1590.86,198.898 2280.56,198.898 2280.56,95.2176 1590.86,95.2176 1590.86,198.898 
  "/>
<polyline clip-path="url(#clip050)" style="stroke:#8be9fd; stroke-linecap:butt; stroke-linejoin:round; stroke-width:4; stroke-opacity:1; fill:none" points="
  1614.93,147.058 1759.33,147.058 
  "/>
<path clip-path="url(#clip050)" d="M1799.23 134.384 L1792.89 151.583 L1805.6 151.583 L1799.23 134.384 M1796.59 129.778 L1801.89 129.778 L1815.06 164.338 L1810.2 164.338 L1807.05 155.472 L1791.48 155.472 L1788.33 164.338 L1783.4 164.338 L1796.59 129.778 Z" fill="#f8f8f2" fill-rule="evenodd" fill-opacity="1" /><path clip-path="url(#clip050)" d="M1814.09 138.412 L1818.61 138.412 L1826.71 160.171 L1834.81 138.412 L1839.32 138.412 L1829.6 164.338 L1823.81 164.338 L1814.09 138.412 Z" fill="#f8f8f2" fill-rule="evenodd" fill-opacity="1" /><path clip-path="url(#clip050)" d="M1867.38 150.31 L1867.38 152.393 L1847.8 152.393 Q1848.07 156.791 1850.43 159.106 Q1852.82 161.398 1857.05 161.398 Q1859.51 161.398 1861.8 160.796 Q1864.11 160.194 1866.38 158.99 L1866.38 163.018 Q1864.09 163.99 1861.68 164.5 Q1859.28 165.009 1856.8 165.009 Q1850.6 165.009 1846.96 161.398 Q1843.35 157.787 1843.35 151.629 Q1843.35 145.264 1846.78 141.537 Q1850.23 137.787 1856.06 137.787 Q1861.29 137.787 1864.32 141.166 Q1867.38 144.523 1867.38 150.31 M1863.12 149.06 Q1863.07 145.565 1861.15 143.481 Q1859.25 141.398 1856.11 141.398 Q1852.54 141.398 1850.39 143.412 Q1848.26 145.426 1847.93 149.083 L1863.12 149.06 Z" fill="#f8f8f2" fill-rule="evenodd" fill-opacity="1" /><path clip-path="url(#clip050)" d="M1889.39 142.393 Q1888.67 141.977 1887.82 141.791 Q1886.98 141.583 1885.97 141.583 Q1882.36 141.583 1880.41 143.944 Q1878.49 146.282 1878.49 150.68 L1878.49 164.338 L1874.21 164.338 L1874.21 138.412 L1878.49 138.412 L1878.49 142.44 Q1879.83 140.078 1881.98 138.944 Q1884.14 137.787 1887.22 137.787 Q1887.66 137.787 1888.19 137.856 Q1888.72 137.903 1889.37 138.018 L1889.39 142.393 Z" fill="#f8f8f2" fill-rule="evenodd" fill-opacity="1" /><path clip-path="url(#clip050)" d="M1905.64 151.305 Q1900.48 151.305 1898.49 152.486 Q1896.5 153.666 1896.5 156.514 Q1896.5 158.782 1897.98 160.125 Q1899.48 161.444 1902.05 161.444 Q1905.6 161.444 1907.73 158.944 Q1909.88 156.421 1909.88 152.254 L1909.88 151.305 L1905.64 151.305 M1914.14 149.546 L1914.14 164.338 L1909.88 164.338 L1909.88 160.402 Q1908.42 162.763 1906.24 163.898 Q1904.07 165.009 1900.92 165.009 Q1896.94 165.009 1894.58 162.787 Q1892.24 160.541 1892.24 156.791 Q1892.24 152.416 1895.16 150.194 Q1898.1 147.972 1903.91 147.972 L1909.88 147.972 L1909.88 147.555 Q1909.88 144.615 1907.93 143.018 Q1906.01 141.398 1902.52 141.398 Q1900.29 141.398 1898.19 141.93 Q1896.08 142.463 1894.14 143.527 L1894.14 139.592 Q1896.48 138.69 1898.67 138.25 Q1900.87 137.787 1902.96 137.787 Q1908.58 137.787 1911.36 140.703 Q1914.14 143.62 1914.14 149.546 Z" fill="#f8f8f2" fill-rule="evenodd" fill-opacity="1" /><path clip-path="url(#clip050)" d="M1939.97 151.074 Q1939.97 146.444 1938.05 143.898 Q1936.15 141.352 1932.7 141.352 Q1929.28 141.352 1927.35 143.898 Q1925.46 146.444 1925.46 151.074 Q1925.46 155.68 1927.35 158.226 Q1929.28 160.773 1932.7 160.773 Q1936.15 160.773 1938.05 158.226 Q1939.97 155.68 1939.97 151.074 M1944.23 161.12 Q1944.23 167.74 1941.29 170.958 Q1938.35 174.199 1932.29 174.199 Q1930.04 174.199 1928.05 173.851 Q1926.06 173.527 1924.18 172.833 L1924.18 168.689 Q1926.06 169.708 1927.89 170.194 Q1929.72 170.68 1931.61 170.68 Q1935.8 170.68 1937.89 168.481 Q1939.97 166.305 1939.97 161.884 L1939.97 159.777 Q1938.65 162.069 1936.59 163.203 Q1934.53 164.338 1931.66 164.338 Q1926.89 164.338 1923.98 160.703 Q1921.06 157.069 1921.06 151.074 Q1921.06 145.055 1923.98 141.421 Q1926.89 137.787 1931.66 137.787 Q1934.53 137.787 1936.59 138.921 Q1938.65 140.055 1939.97 142.347 L1939.97 138.412 L1944.23 138.412 L1944.23 161.12 Z" fill="#f8f8f2" fill-rule="evenodd" fill-opacity="1" /><path clip-path="url(#clip050)" d="M1975.18 150.31 L1975.18 152.393 L1955.6 152.393 Q1955.87 156.791 1958.23 159.106 Q1960.62 161.398 1964.85 161.398 Q1967.31 161.398 1969.6 160.796 Q1971.91 160.194 1974.18 158.99 L1974.18 163.018 Q1971.89 163.99 1969.48 164.5 Q1967.08 165.009 1964.6 165.009 Q1958.4 165.009 1954.76 161.398 Q1951.15 157.787 1951.15 151.629 Q1951.15 145.264 1954.58 141.537 Q1958.03 137.787 1963.86 137.787 Q1969.09 137.787 1972.12 141.166 Q1975.18 144.523 1975.18 150.31 M1970.92 149.06 Q1970.87 145.565 1968.95 143.481 Q1967.05 141.398 1963.91 141.398 Q1960.34 141.398 1958.19 143.412 Q1956.06 145.426 1955.73 149.083 L1970.92 149.06 Z" fill="#f8f8f2" fill-rule="evenodd" fill-opacity="1" /><path clip-path="url(#clip050)" d="M1992.63 129.778 L2021.87 129.778 L2021.87 133.713 L2009.6 133.713 L2009.6 164.338 L2004.9 164.338 L2004.9 133.713 L1992.63 133.713 L1992.63 129.778 Z" fill="#f8f8f2" fill-rule="evenodd" fill-opacity="1" /><path clip-path="url(#clip050)" d="M2034.25 142.393 Q2033.53 141.977 2032.68 141.791 Q2031.85 141.583 2030.83 141.583 Q2027.22 141.583 2025.27 143.944 Q2023.35 146.282 2023.35 150.68 L2023.35 164.338 L2019.07 164.338 L2019.07 138.412 L2023.35 138.412 L2023.35 142.44 Q2024.69 140.078 2026.85 138.944 Q2029 137.787 2032.08 137.787 Q2032.52 137.787 2033.05 137.856 Q2033.58 137.903 2034.23 138.018 L2034.25 142.393 Z" fill="#f8f8f2" fill-rule="evenodd" fill-opacity="1" /><path clip-path="url(#clip050)" d="M2050.5 151.305 Q2045.34 151.305 2043.35 152.486 Q2041.36 153.666 2041.36 156.514 Q2041.36 158.782 2042.84 160.125 Q2044.35 161.444 2046.91 161.444 Q2050.46 161.444 2052.59 158.944 Q2054.74 156.421 2054.74 152.254 L2054.74 151.305 L2050.5 151.305 M2059 149.546 L2059 164.338 L2054.74 164.338 L2054.74 160.402 Q2053.28 162.763 2051.1 163.898 Q2048.93 165.009 2045.78 165.009 Q2041.8 165.009 2039.44 162.787 Q2037.1 160.541 2037.1 156.791 Q2037.1 152.416 2040.02 150.194 Q2042.96 147.972 2048.77 147.972 L2054.74 147.972 L2054.74 147.555 Q2054.74 144.615 2052.79 143.018 Q2050.87 141.398 2047.38 141.398 Q2045.16 141.398 2043.05 141.93 Q2040.94 142.463 2039 143.527 L2039 139.592 Q2041.34 138.69 2043.53 138.25 Q2045.73 137.787 2047.82 137.787 Q2053.44 137.787 2056.22 140.703 Q2059 143.62 2059 149.546 Z" fill="#f8f8f2" fill-rule="evenodd" fill-opacity="1" /><path clip-path="url(#clip050)" d="M2084.83 142.347 L2084.83 128.319 L2089.09 128.319 L2089.09 164.338 L2084.83 164.338 L2084.83 160.449 Q2083.49 162.763 2081.43 163.898 Q2079.39 165.009 2076.52 165.009 Q2071.82 165.009 2068.86 161.259 Q2065.92 157.509 2065.92 151.398 Q2065.92 145.287 2068.86 141.537 Q2071.82 137.787 2076.52 137.787 Q2079.39 137.787 2081.43 138.921 Q2083.49 140.032 2084.83 142.347 M2070.32 151.398 Q2070.32 156.097 2072.24 158.782 Q2074.18 161.444 2077.56 161.444 Q2080.94 161.444 2082.89 158.782 Q2084.83 156.097 2084.83 151.398 Q2084.83 146.699 2082.89 144.037 Q2080.94 141.352 2077.56 141.352 Q2074.18 141.352 2072.24 144.037 Q2070.32 146.699 2070.32 151.398 Z" fill="#f8f8f2" fill-rule="evenodd" fill-opacity="1" /><path clip-path="url(#clip050)" d="M2120.04 150.31 L2120.04 152.393 L2100.46 152.393 Q2100.73 156.791 2103.09 159.106 Q2105.48 161.398 2109.72 161.398 Q2112.17 161.398 2114.46 160.796 Q2116.78 160.194 2119.04 158.99 L2119.04 163.018 Q2116.75 163.99 2114.34 164.5 Q2111.94 165.009 2109.46 165.009 Q2103.26 165.009 2099.62 161.398 Q2096.01 157.787 2096.01 151.629 Q2096.01 145.264 2099.44 141.537 Q2102.89 137.787 2108.72 137.787 Q2113.95 137.787 2116.98 141.166 Q2120.04 144.523 2120.04 150.31 M2115.78 149.06 Q2115.73 145.565 2113.81 143.481 Q2111.91 141.398 2108.77 141.398 Q2105.2 141.398 2103.05 143.412 Q2100.92 145.426 2100.59 149.083 L2115.78 149.06 Z" fill="#f8f8f2" fill-rule="evenodd" fill-opacity="1" /><path clip-path="url(#clip050)" d="M2163 130.912 L2163 135.472 Q2160.34 134.199 2157.98 133.574 Q2155.62 132.949 2153.42 132.949 Q2149.6 132.949 2147.52 134.43 Q2145.46 135.912 2145.46 138.643 Q2145.46 140.935 2146.82 142.115 Q2148.21 143.273 2152.05 143.99 L2154.88 144.569 Q2160.11 145.565 2162.59 148.088 Q2165.09 150.588 2165.09 154.801 Q2165.09 159.824 2161.71 162.416 Q2158.35 165.009 2151.84 165.009 Q2149.39 165.009 2146.61 164.453 Q2143.86 163.898 2140.9 162.81 L2140.9 157.995 Q2143.74 159.592 2146.47 160.402 Q2149.21 161.213 2151.84 161.213 Q2155.85 161.213 2158.03 159.639 Q2160.2 158.064 2160.2 155.148 Q2160.2 152.602 2158.63 151.166 Q2157.08 149.731 2153.51 149.014 L2150.66 148.458 Q2145.43 147.416 2143.09 145.194 Q2140.76 142.972 2140.76 139.014 Q2140.76 134.43 2143.97 131.791 Q2147.21 129.153 2152.89 129.153 Q2155.32 129.153 2157.84 129.592 Q2160.36 130.032 2163 130.912 Z" fill="#f8f8f2" fill-rule="evenodd" fill-opacity="1" /><path clip-path="url(#clip050)" d="M2172.19 138.412 L2176.45 138.412 L2176.45 164.338 L2172.19 164.338 L2172.19 138.412 M2172.19 128.319 L2176.45 128.319 L2176.45 133.713 L2172.19 133.713 L2172.19 128.319 Z" fill="#f8f8f2" fill-rule="evenodd" fill-opacity="1" /><path clip-path="url(#clip050)" d="M2183.51 138.412 L2203.74 138.412 L2203.74 142.301 L2187.72 160.935 L2203.74 160.935 L2203.74 164.338 L2182.93 164.338 L2182.93 160.449 L2198.95 141.815 L2183.51 141.815 L2183.51 138.412 Z" fill="#f8f8f2" fill-rule="evenodd" fill-opacity="1" /><path clip-path="url(#clip050)" d="M2232.42 150.31 L2232.42 152.393 L2212.84 152.393 Q2213.12 156.791 2215.48 159.106 Q2217.86 161.398 2222.1 161.398 Q2224.55 161.398 2226.84 160.796 Q2229.16 160.194 2231.43 158.99 L2231.43 163.018 Q2229.14 163.99 2226.73 164.5 Q2224.32 165.009 2221.84 165.009 Q2215.64 165.009 2212.01 161.398 Q2208.4 157.787 2208.4 151.629 Q2208.4 145.264 2211.82 141.537 Q2215.27 137.787 2221.1 137.787 Q2226.33 137.787 2229.37 141.166 Q2232.42 144.523 2232.42 150.31 M2228.16 149.06 Q2228.12 145.565 2226.2 143.481 Q2224.3 141.398 2221.15 141.398 Q2217.58 141.398 2215.43 143.412 Q2213.3 145.426 2212.98 149.083 L2228.16 149.06 Z" fill="#f8f8f2" fill-rule="evenodd" fill-opacity="1" /></svg>
