<svg width="35" height="35" viewBox="0 0 35 35" fill="none" xmlns="http://www.w3.org/2000/svg">
<g filter="url(#filter0_d_2374_1505)">
<circle cx="17.5" cy="15.5" r="10.5" fill="#53555E"/>
</g>
<path d="M18.4827 15.2493L22.2416 11.4986C22.4062 11.334 22.4987 11.1107 22.4987 10.8779C22.4987 10.645 22.4062 10.4218 22.2416 10.2571C22.077 10.0925 21.8537 10 21.621 10C21.3882 10 21.1649 10.0925 21.0003 10.2571L17.2502 14.0165L13.5 10.2571C13.3354 10.0925 13.1122 10 12.8794 10C12.6466 10 12.4234 10.0925 12.2587 10.2571C12.0941 10.4218 12.0017 10.645 12.0017 10.8779C12.0017 11.1107 12.0941 11.334 12.2587 11.4986L16.0176 15.2493L12.2587 18.9999C12.1768 19.0812 12.1118 19.1779 12.0674 19.2844C12.023 19.391 12.0002 19.5052 12.0002 19.6207C12.0002 19.7361 12.023 19.8503 12.0674 19.9569C12.1118 20.0634 12.1768 20.1601 12.2587 20.2414C12.34 20.3233 12.4367 20.3884 12.5432 20.4328C12.6497 20.4771 12.764 20.5 12.8794 20.5C12.9948 20.5 13.1091 20.4771 13.2156 20.4328C13.3221 20.3884 13.4188 20.3233 13.5 20.2414L17.2502 16.825L21.0003 20.2414C21.0816 20.3233 21.1782 20.3884 21.2848 20.4328C21.3913 20.4771 21.5056 20.5 21.621 20.5C21.7363 20.5 21.8506 20.4771 21.9571 20.4328C22.0637 20.3884 22.1603 20.3233 22.2416 20.2414C22.3235 20.1601 22.3886 20.0634 22.4329 19.9569C22.4773 19.8503 22.5002 19.7361 22.5002 19.6207C22.5002 19.5052 22.4773 19.391 22.4329 19.2844C22.3886 19.1779 22.3235 19.0812 22.2416 18.9999L18.4827 15.2493Z" fill="white"/>
<defs>
<filter id="filter0_d_2374_1505" x="0" y="0" width="35" height="35" filterUnits="userSpaceOnUse" color-interpolation-filters="sRGB">
<feFlood flood-opacity="0" result="BackgroundImageFix"/>
<feColorMatrix in="SourceAlpha" type="matrix" values="0 0 0 0 0 0 0 0 0 0 0 0 0 0 0 0 0 0 127 0" result="hardAlpha"/>
<feOffset dy="2"/>
<feGaussianBlur stdDeviation="3.5"/>
<feColorMatrix type="matrix" values="0 0 0 0 0.0967628 0 0 0 0 0.219546 0 0 0 0 0.167941 0 0 0 0.08 0"/>
<feBlend mode="normal" in2="BackgroundImageFix" result="effect1_dropShadow_2374_1505"/>
<feBlend mode="normal" in="SourceGraphic" in2="effect1_dropShadow_2374_1505" result="shape"/>
</filter>
</defs>
</svg>
