<svg version="1.1" id="Layer_1" xmlns="http://www.w3.org/2000/svg" xmlns:xlink="http://www.w3.org/1999/xlink" x="0px" y="0px"
	 width="100%" viewBox="0 0 200 200" enable-background="new 0 0 200 200" xml:space="preserve">
<path fill="#16B18E" opacity="1.000000" stroke="none" 
	d="
M147.000000,201.000000 
	C98.000000,201.000000 49.500008,201.000000 1.000006,201.000000 
	C1.000004,134.333344 1.000004,67.666679 1.000002,1.000015 
	C67.666656,1.000010 134.333313,1.000010 200.999969,1.000005 
	C200.999985,67.666649 200.999985,134.333298 201.000000,200.999969 
	C183.166672,201.000000 165.333328,201.000000 147.000000,201.000000 
M128.203644,88.049324 
	C125.239952,87.909950 122.276268,87.770576 118.870918,87.141838 
	C111.465698,79.365150 104.090172,71.559822 96.634567,63.831753 
	C94.749344,61.877636 92.770340,59.006878 89.345673,63.172676 
	C85.243797,67.528397 81.221443,71.963470 76.996902,76.196785 
	C75.518814,77.677948 73.667038,79.444832 71.774101,79.744850 
	C60.730503,81.495232 54.734425,88.256149 51.973190,98.573997 
	C51.803764,99.207069 51.367283,99.766174 51.176666,100.396477 
	C50.054688,104.106453 47.322239,105.540657 43.706482,105.911026 
	C41.229603,106.164734 38.667011,106.299316 36.340454,107.077934 
	C34.446297,107.711838 32.198936,108.824982 31.223566,110.411377 
	C26.269354,118.469162 21.678604,126.750427 16.146093,135.195312 
	C14.323071,135.305847 12.414101,135.121994 10.704544,135.621140 
	C9.365563,136.012100 8.273567,137.248978 7.071833,138.110016 
	C8.347311,139.070999 9.529678,140.218063 10.934338,140.920868 
	C11.734759,141.321350 12.898044,140.998184 13.897930,140.998184 
	C72.058334,140.998444 130.218750,140.998505 188.379150,140.997589 
	C189.545639,140.997574 190.858200,141.320755 191.840927,140.892578 
	C193.016098,140.380539 193.909317,139.221375 194.924652,138.342499 
	C193.959732,137.419342 193.125565,135.953232 192.003403,135.682999 
	C189.454285,135.069153 186.763580,135.043289 183.900024,134.150146 
	C177.236465,125.735611 170.572906,117.321075 163.669800,108.246399 
	C161.536011,107.164902 159.494339,105.490967 157.246735,105.141525 
	C153.921402,104.624535 150.449860,105.048012 146.509369,104.653938 
	C142.297073,100.190735 138.157471,95.655136 133.828308,91.308311 
	C132.525085,89.999786 130.694763,89.216240 128.203644,88.049324 
z"/>
<path fill="#E9F6FF" opacity="1.000000" stroke="none" 
	d="
M89.954849,62.879589 
	C92.770340,59.006878 94.749344,61.877636 96.634567,63.831753 
	C104.090172,71.559822 111.465698,79.365150 118.897095,87.705856 
	C116.605446,93.149193 112.695686,97.927017 112.376526,102.933731 
	C111.985832,109.062378 110.106895,112.926666 104.998276,115.641647 
	C102.051712,117.207611 100.548424,119.593987 101.019974,122.957161 
	C101.767921,128.291687 99.924911,132.338257 94.793449,135.077820 
	C80.947510,135.028809 67.587616,134.992081 54.213768,134.511093 
	C53.760353,124.584709 54.093578,124.753456 61.417995,122.413414 
	C64.590439,121.399872 65.480316,119.007538 64.996681,116.184166 
	C63.695675,108.589294 67.390732,104.577553 74.025337,101.863541 
	C76.560951,100.826294 79.698456,98.654861 80.454987,96.318214 
	C84.021805,85.301575 86.858032,74.048393 89.954849,62.879589 
z"/>
<path fill="#B2DAFD" opacity="1.000000" stroke="none" 
	d="
M89.650261,63.026131 
	C86.858032,74.048393 84.021805,85.301575 80.454987,96.318214 
	C79.698456,98.654861 76.560951,100.826294 74.025337,101.863541 
	C67.390732,104.577553 63.695675,108.589294 64.996681,116.184166 
	C65.480316,119.007538 64.590439,121.399872 61.417995,122.413414 
	C54.093578,124.753456 53.760353,124.584709 53.815285,134.687988 
	C44.692284,135.517944 35.954330,135.838974 27.215086,135.879379 
	C23.798405,135.895187 20.378811,135.280777 16.960543,134.953400 
	C21.678604,126.750427 26.269354,118.469162 31.223566,110.411377 
	C32.198936,108.824982 34.446297,107.711838 36.340454,107.077934 
	C38.667011,106.299316 41.229603,106.164734 43.706482,105.911026 
	C47.322239,105.540657 50.054688,104.106453 51.176666,100.396477 
	C51.367283,99.766174 51.803764,99.207069 51.973190,98.573997 
	C54.734425,88.256149 60.730503,81.495232 71.774101,79.744850 
	C73.667038,79.444832 75.518814,77.677948 76.996902,76.196785 
	C81.221443,71.963470 85.243797,67.528397 89.650261,63.026131 
z"/>
<path fill="#E9F6FE" opacity="1.000000" stroke="none" 
	d="
M163.909332,108.906540 
	C170.572906,117.321075 177.236465,125.735611 183.648621,134.678238 
	C181.115646,135.466141 178.834747,135.944092 176.552383,135.951309 
	C157.993835,136.009964 139.434998,135.980515 120.891068,135.556747 
	C120.236954,130.421387 122.316765,127.137177 126.249481,124.789772 
	C129.523163,122.835732 130.864624,119.807533 129.823456,116.272560 
	C127.074570,106.939583 127.631973,97.594437 129.105896,88.192207 
	C130.694763,89.216240 132.525085,89.999786 133.828308,91.308311 
	C138.157471,95.655136 142.297073,100.190735 146.948212,105.142540 
	C151.767410,111.719238 156.147751,117.807335 160.528107,123.895432 
	C161.089340,123.690552 161.650574,123.485680 162.211807,123.280800 
	C162.777649,118.489380 163.343491,113.697968 163.909332,108.906540 
z"/>
<path fill="#D9ECFE" opacity="1.000000" stroke="none" 
	d="
M120.876259,135.977875 
	C139.434998,135.980515 157.993835,136.009964 176.552383,135.951309 
	C178.834747,135.944092 181.115646,135.466141 183.763824,134.992371 
	C186.763580,135.043289 189.454285,135.069153 192.003403,135.682999 
	C193.125565,135.953232 193.959732,137.419342 194.924652,138.342499 
	C193.909317,139.221375 193.016098,140.380539 191.840927,140.892578 
	C190.858200,141.320755 189.545639,140.997574 188.379150,140.997589 
	C130.218750,140.998505 72.058334,140.998444 13.897930,140.998184 
	C12.898044,140.998184 11.734759,141.321350 10.934338,140.920868 
	C9.529678,140.218063 8.347311,139.070999 7.071836,138.110016 
	C8.273567,137.248978 9.365563,136.012100 10.704544,135.621140 
	C12.414101,135.121994 14.323071,135.305847 16.553318,135.074356 
	C20.378811,135.280777 23.798405,135.895187 27.215086,135.879379 
	C35.954330,135.838974 44.692284,135.517944 53.829231,135.132263 
	C67.587616,134.992081 80.947510,135.028809 95.133614,135.248291 
	C104.265297,135.613327 112.570778,135.795609 120.876259,135.977875 
z"/>
<path fill="#B4DBFE" opacity="1.000000" stroke="none" 
	d="
M120.891068,135.556747 
	C112.570778,135.795609 104.265297,135.613327 95.619652,135.260590 
	C99.924911,132.338257 101.767921,128.291687 101.019974,122.957161 
	C100.548424,119.593987 102.051712,117.207611 104.998276,115.641647 
	C110.106895,112.926666 111.985832,109.062378 112.376526,102.933731 
	C112.695686,97.927017 116.605446,93.149193 119.117928,87.950539 
	C122.276268,87.770576 125.239952,87.909950 128.654770,88.120766 
	C127.631973,97.594437 127.074570,106.939583 129.823456,116.272560 
	C130.864624,119.807533 129.523163,122.835732 126.249481,124.789772 
	C122.316765,127.137177 120.236954,130.421387 120.891068,135.556747 
z"/>
<path fill="#B4DAFE" opacity="1.000000" stroke="none" 
	d="
M163.789581,108.576477 
	C163.343491,113.697968 162.777649,118.489380 162.211807,123.280800 
	C161.650574,123.485680 161.089340,123.690552 160.528107,123.895432 
	C156.147751,117.807335 151.767410,111.719238 147.213806,105.351105 
	C150.449860,105.048012 153.921402,104.624535 157.246735,105.141525 
	C159.494339,105.490967 161.536011,107.164902 163.789581,108.576477 
z"/>
</svg>