<svg width="237" height="162" viewBox="0 0 237 162" fill="none" xmlns="http://www.w3.org/2000/svg">
<path d="M66.7216 19.9598H21.7645C20.4912 19.9598 19.459 20.992 19.459 22.2653V22.2653C19.459 23.5386 20.4912 24.5708 21.7645 24.5708H66.7216C67.9949 24.5708 69.0271 23.5386 69.0271 22.2653C69.0271 20.992 67.9949 19.9598 66.7216 19.9598Z" fill="black" fill-opacity="0.15"/>
<path d="M48.6619 26.7438H21.7645C20.4912 26.7438 19.459 27.776 19.459 29.0493V29.0493C19.459 30.3226 20.4912 31.3548 21.7645 31.3548H48.6619C49.9352 31.3548 50.9674 30.3226 50.9674 29.0493C50.9674 27.776 49.9352 26.7438 48.6619 26.7438Z" fill="black" fill-opacity="0.15"/>
<path d="M19.4609 157.239H211.672" stroke="#B1B5D3" stroke-width="5" stroke-linecap="square"/>
<path d="M19.4609 134.16H211.672" stroke="#3D3F4D" stroke-opacity="0.3" stroke-width="0.5" stroke-linecap="square"/>
<path d="M19.4609 111.081H211.672" stroke="#3D3F4D" stroke-opacity="0.3" stroke-width="0.5" stroke-linecap="square"/>
<path d="M19.4609 88.0023H211.672" stroke="#3D3F4D" stroke-opacity="0.3" stroke-width="0.5" stroke-linecap="square"/>
<path d="M19.4609 64.9234H211.672" stroke="#3D3F4D" stroke-opacity="0.3" stroke-width="0.5" stroke-linecap="square"/>
<path d="M22.5762 128.231C23.4505 126.912 27.1612 129.86 31.7008 128.188C35.2753 126.871 38.3847 122.643 42.961 121.366C51.6466 118.941 58.7354 116.449 62.7633 110.657C66.7912 104.865 72.8371 85.2277 80.0419 85.2277C87.2466 85.2277 90.914 95.442 93.632 102.171C96.235 108.615 101.249 124.095 109.357 125.801C118.306 127.685 125.665 139.172 136.343 141.103C142.034 142.132 146.593 140.129 151.68 137.017C156.767 133.905 155.771 132.561 167.211 130.162C176.652 128.182 179.121 121.366 188.372 120.545C197.623 119.725 201.902 145.391 211.669 143.249" stroke="#F35183" stroke-width="2" stroke-linecap="round" stroke-linejoin="round"/>
<path d="M209.834 129.795C205.032 122.93 205.249 131.424 200.709 129.752C197.135 128.435 194.025 124.207 189.449 122.93C180.848 140.911 173.684 120.322 169.647 112.221C165.619 106.429 159.763 143.989 152.558 143.989C115.29 116.146 101.665 125.963 96.0683 142.667C90.4703 159.371 87.153 122.142 82.0662 119.03C76.9794 115.918 76.6396 134.125 65.1994 131.726C55.7586 129.746 53.2891 122.93 44.0381 122.109C34.7871 121.289 30.5083 146.955 20.7412 144.812" stroke="#B1B5D3" stroke-width="2" stroke-linecap="round" stroke-linejoin="round"/>
<g filter="url(#filter0_i_333_127)">
<path d="M227.72 0H9.5C4.52944 0 0.5 4.02944 0.5 9V153C0.5 157.971 4.52944 162 9.5 162H227.72C232.691 162 236.72 157.971 236.72 153V9C236.72 4.02944 232.691 0 227.72 0Z" fill="#21222C"/>
<path d="M19.5 29.2426H23.1245V28.7426H19.5V29.2426ZM30.3736 29.2426H37.6226V28.7426H30.3736V29.2426ZM44.8717 29.2426H52.1207V28.7426H44.8717V29.2426ZM59.3697 29.2426H66.6188V28.7426H59.3697V29.2426ZM73.8678 29.2426H81.1169V28.7426H73.8678V29.2426ZM88.366 29.2426H95.615V28.7426H88.366V29.2426ZM102.864 29.2426H110.113V28.7426H102.864V29.2426ZM117.362 29.2426H124.611V28.7426H117.362V29.2426ZM131.86 29.2426H139.109V28.7426H131.86V29.2426ZM146.358 29.2426H153.607V28.7426H146.358V29.2426ZM160.856 29.2426H168.105V28.7426H160.856V29.2426ZM175.354 29.2426H178.979V28.7426H175.354V29.2426Z" fill="white" fill-opacity="0.4"/>
<path d="M19.5 56.0791H178.979" stroke="white" stroke-opacity="0.4" stroke-width="0.5" stroke-dasharray="7 7"/>
<path d="M19.5 83.1409H178.979" stroke="white" stroke-opacity="0.4" stroke-width="0.5" stroke-dasharray="7 7"/>
<path d="M19.5 110.203H178.979" stroke="white" stroke-opacity="0.4" stroke-width="0.5" stroke-dasharray="7 7"/>
<path d="M19.5 137.265H178.979" stroke="white" stroke-opacity="0.4" stroke-width="0.5" stroke-dasharray="7 7"/>
<path d="M100.213 39.1278H97.3203C96.2157 39.1278 95.3203 40.0232 95.3203 41.1278V76.3789C95.3203 77.4835 96.2157 78.3789 97.3203 78.3789H100.213C101.318 78.3789 102.213 77.4835 102.213 76.3789V41.1278C102.213 40.0232 101.318 39.1278 100.213 39.1278Z" fill="#3EB79C"/>
<path d="M99.4566 22.6893C99.4566 22.3086 99.1481 22 98.7674 22C98.3867 22 98.0781 22.3086 98.0781 22.6893V96.9583C98.0781 97.339 98.3867 97.6476 98.7674 97.6476C99.1481 97.6476 99.4566 97.339 99.4566 96.9583V22.6893Z" fill="#3EB79C"/>
<path d="M141.566 56.9691H138.674C137.569 56.9691 136.674 57.8645 136.674 58.9691V88.511C136.674 89.6156 137.569 90.511 138.674 90.511H141.566C142.671 90.511 143.566 89.6156 143.566 88.511V58.9691C143.566 57.8645 142.671 56.9691 141.566 56.9691Z" fill="#3EB79C"/>
<path d="M140.81 43.3853C140.81 43.0046 140.502 42.696 140.121 42.696C139.74 42.696 139.432 43.0046 139.432 43.3853V106.236C139.432 106.617 139.74 106.925 140.121 106.925C140.502 106.925 140.81 106.617 140.81 106.236V43.3853Z" fill="#3EB79C"/>
<path d="M155.354 70.5286H152.461C151.356 70.5286 150.461 71.424 150.461 72.5286V94.2202C150.461 95.3248 151.356 96.2202 152.461 96.2202H155.354C156.458 96.2202 157.354 95.3248 157.354 94.2202V72.5286C157.354 71.424 156.458 70.5286 155.354 70.5286Z" fill="#3EB79C"/>
<path d="M154.597 59.7994C154.597 59.4187 154.289 59.1101 153.908 59.1101C153.527 59.1101 153.219 59.4187 153.219 59.7994V108.377C153.219 108.757 153.527 109.066 153.908 109.066C154.289 109.066 154.597 108.757 154.597 108.377V59.7994Z" fill="#3EB79C"/>
<path d="M86.4278 63.3922H83.5352C82.4306 63.3922 81.5352 64.2876 81.5352 65.3922V100.643C81.5352 101.748 82.4306 102.643 83.5352 102.643H86.4278C87.5324 102.643 88.4278 101.748 88.4278 100.643V65.3922C88.4278 64.2876 87.5324 63.3922 86.4278 63.3922Z" fill="#3EB79C"/>
<path d="M85.6715 46.9537C85.6715 46.573 85.3629 46.2644 84.9822 46.2644C84.6016 46.2644 84.293 46.573 84.293 46.9537V121.223C84.293 121.603 84.6016 121.912 84.9822 121.912C85.3629 121.912 85.6715 121.603 85.6715 121.223V46.9537Z" fill="#3EB79C"/>
<path d="M72.6407 74.8105H69.748C68.6435 74.8105 67.748 75.7059 67.748 76.8105V112.062C67.748 113.166 68.6435 114.062 69.748 114.062H72.6407C73.7453 114.062 74.6407 113.166 74.6407 112.062V76.8105C74.6407 75.7059 73.7453 74.8105 72.6407 74.8105Z" fill="#ECBDCC"/>
<path d="M71.8844 58.372C71.8844 57.9913 71.5758 57.6827 71.1951 57.6827C70.8145 57.6827 70.5059 57.9913 70.5059 58.372V132.641C70.5059 133.022 70.8145 133.33 71.1951 133.33C71.5758 133.33 71.8844 133.022 71.8844 132.641V58.372Z" fill="#ECBDCC"/>
<path d="M31.2852 71.4846H28.3926C27.288 71.4846 26.3926 72.38 26.3926 73.4846V99.4784C26.3926 100.583 27.288 101.478 28.3926 101.478H31.2852C32.3898 101.478 33.2852 100.583 33.2852 99.4784V73.4846C33.2852 72.38 32.3898 71.4846 31.2852 71.4846Z" fill="#ECBDCC"/>
<path d="M30.5289 59.0858C30.5289 58.7051 30.2203 58.3965 29.8397 58.3965C29.459 58.3965 29.1504 58.7051 29.1504 59.0858V115.513C29.1504 115.894 29.459 116.203 29.8397 116.203C30.2203 116.203 30.5289 115.894 30.5289 115.513V59.0858Z" fill="#ECBDCC"/>
<path d="M58.8536 66.9603H55.9609C54.8564 66.9603 53.9609 67.8557 53.9609 68.9603V96.3612C53.9609 97.4658 54.8564 98.3612 55.9609 98.3612H58.8536C59.9582 98.3612 60.8536 97.4658 60.8536 96.3612V68.9603C60.8536 67.8557 59.9582 66.9603 58.8536 66.9603Z" fill="#3EB79C"/>
<path d="M58.0973 54.0902C58.0973 53.7095 57.7887 53.4009 57.408 53.4009C57.0273 53.4009 56.7188 53.7095 56.7188 54.0902V112.659C56.7188 113.039 57.0273 113.348 57.408 113.348C57.7887 113.348 58.0973 113.039 58.0973 112.659V54.0902Z" fill="#3EB79C"/>
<path d="M45.0724 65.5331H42.1797C41.0751 65.5331 40.1797 66.4285 40.1797 67.5331V79.9472C40.1797 81.0518 41.0751 81.9472 42.1797 81.9472H45.0724C46.1769 81.9472 47.0724 81.0518 47.0724 79.9472V67.5331C47.0724 66.4285 46.1769 65.5331 45.0724 65.5331Z" fill="#3EB79C"/>
<path d="M44.316 59.0858C44.316 58.7051 44.0074 58.3965 43.6268 58.3965C43.2461 58.3965 42.9375 58.7051 42.9375 59.0858V89.1081C42.9375 89.4888 43.2461 89.7974 43.6268 89.7974C44.0074 89.7974 44.316 89.4888 44.316 89.1081V59.0858Z" fill="#3EB79C"/>
<path d="M127.783 75.5242H124.891C123.786 75.5242 122.891 76.4196 122.891 77.5242V99.9295C122.891 101.034 123.786 101.929 124.891 101.929H127.783C128.888 101.929 129.783 101.034 129.783 99.9295V77.5242C129.783 76.4196 128.888 75.5242 127.783 75.5242Z" fill="#B1B5D3"/>
<path d="M127.027 67.6496C127.027 67.2689 126.718 66.9603 126.338 66.9603C125.957 66.9603 125.648 67.2689 125.648 67.6496V109.804C125.648 110.185 125.957 110.493 126.338 110.493C126.718 110.493 127.027 110.185 127.027 109.804V67.6496Z" fill="#B1B5D3"/>
<path d="M169.137 57.6829H166.244C165.14 57.6829 164.244 58.5783 164.244 59.6829V82.0882C164.244 83.1928 165.14 84.0882 166.244 84.0882H169.137C170.241 84.0882 171.137 83.1928 171.137 82.0882V59.6829C171.137 58.5783 170.241 57.6829 169.137 57.6829Z" fill="#B1B5D3"/>
<path d="M168.38 49.8083C168.38 49.4276 168.072 49.119 167.691 49.119C167.311 49.119 167.002 49.4276 167.002 49.8083V91.9627C167.002 92.3434 167.311 92.652 167.691 92.652C168.072 92.652 168.38 92.3434 168.38 91.9627V49.8083Z" fill="#B1B5D3"/>
<path d="M113.996 64.1057H111.104C109.999 64.1057 109.104 65.0011 109.104 66.1057V88.511C109.104 89.6156 109.999 90.511 111.104 90.511H113.996C115.101 90.511 115.996 89.6156 115.996 88.511V66.1057C115.996 65.0011 115.101 64.1057 113.996 64.1057Z" fill="#B1B5D3"/>
<path d="M113.24 56.2312C113.24 55.8505 112.931 55.5419 112.551 55.5419C112.17 55.5419 111.861 55.8505 111.861 56.2312V98.3856C111.861 98.7663 112.17 99.0749 112.551 99.0749C112.931 99.0749 113.24 98.7663 113.24 98.3856V56.2312Z" fill="#B1B5D3"/>
<path d="M191.477 85V84.048H189.153V83.376L191.197 80.114H192.226V83.432H192.912V84.048H192.226V85H191.477ZM189.818 83.432H191.477V80.835H191.435L189.818 83.432ZM196.718 80.793H194.499L194.373 82.529H194.429C194.541 82.3377 194.676 82.186 194.835 82.074C194.993 81.9573 195.21 81.899 195.486 81.899C195.696 81.899 195.889 81.934 196.067 82.004C196.249 82.074 196.405 82.1743 196.536 82.305C196.671 82.4357 196.776 82.5967 196.851 82.788C196.93 82.9747 196.97 83.187 196.97 83.425C196.97 83.6677 196.93 83.8917 196.851 84.097C196.771 84.2977 196.657 84.4727 196.508 84.622C196.358 84.7667 196.174 84.881 195.955 84.965C195.735 85.0443 195.486 85.084 195.206 85.084C194.986 85.084 194.79 85.0583 194.618 85.007C194.45 84.9603 194.298 84.8973 194.163 84.818C194.032 84.734 193.918 84.6407 193.82 84.538C193.722 84.4307 193.635 84.321 193.561 84.209L194.135 83.761C194.195 83.8543 194.258 83.943 194.324 84.027C194.394 84.1063 194.471 84.1763 194.555 84.237C194.639 84.2977 194.734 84.3443 194.842 84.377C194.954 84.4097 195.08 84.426 195.22 84.426C195.523 84.426 195.754 84.3443 195.913 84.181C196.071 84.013 196.151 83.7867 196.151 83.502V83.446C196.151 83.1613 196.069 82.9397 195.906 82.781C195.747 82.6223 195.518 82.543 195.22 82.543C195 82.543 194.828 82.5827 194.702 82.662C194.576 82.7413 194.466 82.83 194.373 82.928L193.722 82.837L193.904 80.114H196.718V80.793ZM199.438 85.07C199.214 85.07 199.055 85.0233 198.962 84.93C198.873 84.8367 198.829 84.7223 198.829 84.587V84.405C198.829 84.2697 198.873 84.1553 198.962 84.062C199.055 83.9687 199.214 83.922 199.438 83.922C199.662 83.922 199.818 83.9687 199.907 84.062C200 84.1553 200.047 84.2697 200.047 84.405V84.587C200.047 84.7223 200 84.8367 199.907 84.93C199.818 85.0233 199.662 85.07 199.438 85.07ZM203.635 85.084C203.327 85.084 203.059 85.028 202.83 84.916C202.606 84.7993 202.419 84.6337 202.27 84.419C202.125 84.2043 202.018 83.9407 201.948 83.628C201.878 83.3153 201.843 82.9583 201.843 82.557C201.843 82.1603 201.878 81.8057 201.948 81.493C202.018 81.1757 202.125 80.9097 202.27 80.695C202.419 80.4803 202.606 80.317 202.83 80.205C203.059 80.0883 203.327 80.03 203.635 80.03C203.943 80.03 204.209 80.0883 204.433 80.205C204.662 80.317 204.848 80.4803 204.993 80.695C205.142 80.9097 205.252 81.1757 205.322 81.493C205.392 81.8057 205.427 82.1603 205.427 82.557C205.427 82.9583 205.392 83.3153 205.322 83.628C205.252 83.9407 205.142 84.2043 204.993 84.419C204.848 84.6337 204.662 84.7993 204.433 84.916C204.209 85.028 203.943 85.084 203.635 85.084ZM203.635 84.44C203.99 84.44 204.242 84.3093 204.391 84.048C204.545 83.782 204.622 83.425 204.622 82.977V82.137C204.622 81.689 204.545 81.3343 204.391 81.073C204.242 80.807 203.99 80.674 203.635 80.674C203.458 80.674 203.306 80.709 203.18 80.779C203.054 80.8443 202.951 80.9423 202.872 81.073C202.793 81.199 202.734 81.353 202.697 81.535C202.664 81.7123 202.648 81.913 202.648 82.137V82.977C202.648 83.201 202.664 83.404 202.697 83.586C202.734 83.7633 202.793 83.9173 202.872 84.048C202.951 84.174 203.054 84.272 203.18 84.342C203.306 84.4073 203.458 84.44 203.635 84.44ZM203.635 82.97C203.472 82.97 203.357 82.9373 203.292 82.872C203.231 82.8067 203.201 82.7273 203.201 82.634V82.48C203.201 82.3867 203.231 82.3073 203.292 82.242C203.357 82.1767 203.472 82.144 203.635 82.144C203.798 82.144 203.91 82.1767 203.971 82.242C204.036 82.3073 204.069 82.3867 204.069 82.48V82.634C204.069 82.7273 204.036 82.8067 203.971 82.872C203.91 82.9373 203.798 82.97 203.635 82.97ZM207.832 85.084C207.524 85.084 207.256 85.028 207.027 84.916C206.803 84.7993 206.617 84.6337 206.467 84.419C206.323 84.2043 206.215 83.9407 206.145 83.628C206.075 83.3153 206.04 82.9583 206.04 82.557C206.04 82.1603 206.075 81.8057 206.145 81.493C206.215 81.1757 206.323 80.9097 206.467 80.695C206.617 80.4803 206.803 80.317 207.027 80.205C207.256 80.0883 207.524 80.03 207.832 80.03C208.14 80.03 208.406 80.0883 208.63 80.205C208.859 80.317 209.046 80.4803 209.19 80.695C209.34 80.9097 209.449 81.1757 209.519 81.493C209.589 81.8057 209.624 82.1603 209.624 82.557C209.624 82.9583 209.589 83.3153 209.519 83.628C209.449 83.9407 209.34 84.2043 209.19 84.419C209.046 84.6337 208.859 84.7993 208.63 84.916C208.406 85.028 208.14 85.084 207.832 85.084ZM207.832 84.44C208.187 84.44 208.439 84.3093 208.588 84.048C208.742 83.782 208.819 83.425 208.819 82.977V82.137C208.819 81.689 208.742 81.3343 208.588 81.073C208.439 80.807 208.187 80.674 207.832 80.674C207.655 80.674 207.503 80.709 207.377 80.779C207.251 80.8443 207.149 80.9423 207.069 81.073C206.99 81.199 206.932 81.353 206.894 81.535C206.862 81.7123 206.845 81.913 206.845 82.137V82.977C206.845 83.201 206.862 83.404 206.894 83.586C206.932 83.7633 206.99 83.9173 207.069 84.048C207.149 84.174 207.251 84.272 207.377 84.342C207.503 84.4073 207.655 84.44 207.832 84.44ZM207.832 82.97C207.669 82.97 207.555 82.9373 207.489 82.872C207.429 82.8067 207.398 82.7273 207.398 82.634V82.48C207.398 82.3867 207.429 82.3073 207.489 82.242C207.555 82.1767 207.669 82.144 207.832 82.144C207.996 82.144 208.108 82.1767 208.168 82.242C208.234 82.3073 208.266 82.3867 208.266 82.48V82.634C208.266 82.7273 208.234 82.8067 208.168 82.872C208.108 82.9373 207.996 82.97 207.832 82.97ZM212.03 85.084C211.722 85.084 211.453 85.028 211.225 84.916C211.001 84.7993 210.814 84.6337 210.665 84.419C210.52 84.2043 210.413 83.9407 210.343 83.628C210.273 83.3153 210.238 82.9583 210.238 82.557C210.238 82.1603 210.273 81.8057 210.343 81.493C210.413 81.1757 210.52 80.9097 210.665 80.695C210.814 80.4803 211.001 80.317 211.225 80.205C211.453 80.0883 211.722 80.03 212.03 80.03C212.338 80.03 212.604 80.0883 212.828 80.205C213.056 80.317 213.243 80.4803 213.388 80.695C213.537 80.9097 213.647 81.1757 213.717 81.493C213.787 81.8057 213.822 82.1603 213.822 82.557C213.822 82.9583 213.787 83.3153 213.717 83.628C213.647 83.9407 213.537 84.2043 213.388 84.419C213.243 84.6337 213.056 84.7993 212.828 84.916C212.604 85.028 212.338 85.084 212.03 85.084ZM212.03 84.44C212.384 84.44 212.636 84.3093 212.786 84.048C212.94 83.782 213.017 83.425 213.017 82.977V82.137C213.017 81.689 212.94 81.3343 212.786 81.073C212.636 80.807 212.384 80.674 212.03 80.674C211.852 80.674 211.701 80.709 211.575 80.779C211.449 80.8443 211.346 80.9423 211.267 81.073C211.187 81.199 211.129 81.353 211.092 81.535C211.059 81.7123 211.043 81.913 211.043 82.137V82.977C211.043 83.201 211.059 83.404 211.092 83.586C211.129 83.7633 211.187 83.9173 211.267 84.048C211.346 84.174 211.449 84.272 211.575 84.342C211.701 84.4073 211.852 84.44 212.03 84.44ZM212.03 82.97C211.866 82.97 211.752 82.9373 211.687 82.872C211.626 82.8067 211.596 82.7273 211.596 82.634V82.48C211.596 82.3867 211.626 82.3073 211.687 82.242C211.752 82.1767 211.866 82.144 212.03 82.144C212.193 82.144 212.305 82.1767 212.366 82.242C212.431 82.3073 212.464 82.3867 212.464 82.48V82.634C212.464 82.7273 212.431 82.8067 212.366 82.872C212.305 82.9373 212.193 82.97 212.03 82.97Z" fill="white"/>
<path d="M191.477 58V57.048H189.153V56.376L191.197 53.114H192.226V56.432H192.912V57.048H192.226V58H191.477ZM189.818 56.432H191.477V53.835H191.435L189.818 56.432ZM194.324 58L196.137 53.765H194.233V54.668H193.554V53.114H196.921V53.8L195.157 58H194.324ZM199.438 58.07C199.214 58.07 199.055 58.0233 198.962 57.93C198.873 57.8367 198.829 57.7223 198.829 57.587V57.405C198.829 57.2697 198.873 57.1553 198.962 57.062C199.055 56.9687 199.214 56.922 199.438 56.922C199.662 56.922 199.818 56.9687 199.907 57.062C200 57.1553 200.047 57.2697 200.047 57.405V57.587C200.047 57.7223 200 57.8367 199.907 57.93C199.818 58.0233 199.662 58.07 199.438 58.07ZM203.635 58.084C203.327 58.084 203.059 58.028 202.83 57.916C202.606 57.7993 202.419 57.6337 202.27 57.419C202.125 57.2043 202.018 56.9407 201.948 56.628C201.878 56.3153 201.843 55.9583 201.843 55.557C201.843 55.1603 201.878 54.8057 201.948 54.493C202.018 54.1757 202.125 53.9097 202.27 53.695C202.419 53.4803 202.606 53.317 202.83 53.205C203.059 53.0883 203.327 53.03 203.635 53.03C203.943 53.03 204.209 53.0883 204.433 53.205C204.662 53.317 204.848 53.4803 204.993 53.695C205.142 53.9097 205.252 54.1757 205.322 54.493C205.392 54.8057 205.427 55.1603 205.427 55.557C205.427 55.9583 205.392 56.3153 205.322 56.628C205.252 56.9407 205.142 57.2043 204.993 57.419C204.848 57.6337 204.662 57.7993 204.433 57.916C204.209 58.028 203.943 58.084 203.635 58.084ZM203.635 57.44C203.99 57.44 204.242 57.3093 204.391 57.048C204.545 56.782 204.622 56.425 204.622 55.977V55.137C204.622 54.689 204.545 54.3343 204.391 54.073C204.242 53.807 203.99 53.674 203.635 53.674C203.458 53.674 203.306 53.709 203.18 53.779C203.054 53.8443 202.951 53.9423 202.872 54.073C202.793 54.199 202.734 54.353 202.697 54.535C202.664 54.7123 202.648 54.913 202.648 55.137V55.977C202.648 56.201 202.664 56.404 202.697 56.586C202.734 56.7633 202.793 56.9173 202.872 57.048C202.951 57.174 203.054 57.272 203.18 57.342C203.306 57.4073 203.458 57.44 203.635 57.44ZM203.635 55.97C203.472 55.97 203.357 55.9373 203.292 55.872C203.231 55.8067 203.201 55.7273 203.201 55.634V55.48C203.201 55.3867 203.231 55.3073 203.292 55.242C203.357 55.1767 203.472 55.144 203.635 55.144C203.798 55.144 203.91 55.1767 203.971 55.242C204.036 55.3073 204.069 55.3867 204.069 55.48V55.634C204.069 55.7273 204.036 55.8067 203.971 55.872C203.91 55.9373 203.798 55.97 203.635 55.97ZM207.832 58.084C207.524 58.084 207.256 58.028 207.027 57.916C206.803 57.7993 206.617 57.6337 206.467 57.419C206.323 57.2043 206.215 56.9407 206.145 56.628C206.075 56.3153 206.04 55.9583 206.04 55.557C206.04 55.1603 206.075 54.8057 206.145 54.493C206.215 54.1757 206.323 53.9097 206.467 53.695C206.617 53.4803 206.803 53.317 207.027 53.205C207.256 53.0883 207.524 53.03 207.832 53.03C208.14 53.03 208.406 53.0883 208.63 53.205C208.859 53.317 209.046 53.4803 209.19 53.695C209.34 53.9097 209.449 54.1757 209.519 54.493C209.589 54.8057 209.624 55.1603 209.624 55.557C209.624 55.9583 209.589 56.3153 209.519 56.628C209.449 56.9407 209.34 57.2043 209.19 57.419C209.046 57.6337 208.859 57.7993 208.63 57.916C208.406 58.028 208.14 58.084 207.832 58.084ZM207.832 57.44C208.187 57.44 208.439 57.3093 208.588 57.048C208.742 56.782 208.819 56.425 208.819 55.977V55.137C208.819 54.689 208.742 54.3343 208.588 54.073C208.439 53.807 208.187 53.674 207.832 53.674C207.655 53.674 207.503 53.709 207.377 53.779C207.251 53.8443 207.149 53.9423 207.069 54.073C206.99 54.199 206.932 54.353 206.894 54.535C206.862 54.7123 206.845 54.913 206.845 55.137V55.977C206.845 56.201 206.862 56.404 206.894 56.586C206.932 56.7633 206.99 56.9173 207.069 57.048C207.149 57.174 207.251 57.272 207.377 57.342C207.503 57.4073 207.655 57.44 207.832 57.44ZM207.832 55.97C207.669 55.97 207.555 55.9373 207.489 55.872C207.429 55.8067 207.398 55.7273 207.398 55.634V55.48C207.398 55.3867 207.429 55.3073 207.489 55.242C207.555 55.1767 207.669 55.144 207.832 55.144C207.996 55.144 208.108 55.1767 208.168 55.242C208.234 55.3073 208.266 55.3867 208.266 55.48V55.634C208.266 55.7273 208.234 55.8067 208.168 55.872C208.108 55.9373 207.996 55.97 207.832 55.97ZM212.03 58.084C211.722 58.084 211.453 58.028 211.225 57.916C211.001 57.7993 210.814 57.6337 210.665 57.419C210.52 57.2043 210.413 56.9407 210.343 56.628C210.273 56.3153 210.238 55.9583 210.238 55.557C210.238 55.1603 210.273 54.8057 210.343 54.493C210.413 54.1757 210.52 53.9097 210.665 53.695C210.814 53.4803 211.001 53.317 211.225 53.205C211.453 53.0883 211.722 53.03 212.03 53.03C212.338 53.03 212.604 53.0883 212.828 53.205C213.056 53.317 213.243 53.4803 213.388 53.695C213.537 53.9097 213.647 54.1757 213.717 54.493C213.787 54.8057 213.822 55.1603 213.822 55.557C213.822 55.9583 213.787 56.3153 213.717 56.628C213.647 56.9407 213.537 57.2043 213.388 57.419C213.243 57.6337 213.056 57.7993 212.828 57.916C212.604 58.028 212.338 58.084 212.03 58.084ZM212.03 57.44C212.384 57.44 212.636 57.3093 212.786 57.048C212.94 56.782 213.017 56.425 213.017 55.977V55.137C213.017 54.689 212.94 54.3343 212.786 54.073C212.636 53.807 212.384 53.674 212.03 53.674C211.852 53.674 211.701 53.709 211.575 53.779C211.449 53.8443 211.346 53.9423 211.267 54.073C211.187 54.199 211.129 54.353 211.092 54.535C211.059 54.7123 211.043 54.913 211.043 55.137V55.977C211.043 56.201 211.059 56.404 211.092 56.586C211.129 56.7633 211.187 56.9173 211.267 57.048C211.346 57.174 211.449 57.272 211.575 57.342C211.701 57.4073 211.852 57.44 212.03 57.44ZM212.03 55.97C211.866 55.97 211.752 55.9373 211.687 55.872C211.626 55.8067 211.596 55.7273 211.596 55.634V55.48C211.596 55.3867 211.626 55.3073 211.687 55.242C211.752 55.1767 211.866 55.144 212.03 55.144C212.193 55.144 212.305 55.1767 212.366 55.242C212.431 55.3073 212.464 55.3867 212.464 55.48V55.634C212.464 55.7273 212.431 55.8067 212.366 55.872C212.305 55.9373 212.193 55.97 212.03 55.97Z" fill="white"/>
<path d="M191.477 32V31.048H189.153V30.376L191.197 27.114H192.226V30.432H192.912V31.048H192.226V32H191.477ZM189.818 30.432H191.477V27.835H191.435L189.818 30.432ZM196.97 28.934C196.97 29.2887 196.916 29.6223 196.809 29.935C196.701 30.2477 196.561 30.5347 196.389 30.796C196.216 31.0573 196.025 31.2907 195.815 31.496C195.605 31.7013 195.397 31.8693 195.192 32H194.142C194.422 31.7993 194.674 31.6057 194.898 31.419C195.122 31.2323 195.315 31.041 195.479 30.845C195.647 30.649 195.787 30.4437 195.899 30.229C196.011 30.0097 196.097 29.767 196.158 29.501L196.109 29.487C196.057 29.585 195.997 29.6783 195.927 29.767C195.857 29.851 195.775 29.9257 195.682 29.991C195.588 30.0563 195.481 30.1077 195.36 30.145C195.238 30.1823 195.101 30.201 194.947 30.201C194.737 30.201 194.543 30.166 194.366 30.096C194.188 30.026 194.034 29.9257 193.904 29.795C193.773 29.6597 193.67 29.4987 193.596 29.312C193.526 29.1253 193.491 28.9153 193.491 28.682C193.491 28.4393 193.53 28.2177 193.61 28.017C193.694 27.8117 193.81 27.6367 193.96 27.492C194.114 27.3473 194.298 27.2353 194.513 27.156C194.727 27.072 194.965 27.03 195.227 27.03C195.497 27.03 195.74 27.0743 195.955 27.163C196.174 27.2517 196.358 27.38 196.508 27.548C196.657 27.7113 196.771 27.9097 196.851 28.143C196.93 28.3763 196.97 28.64 196.97 28.934ZM195.234 29.578C195.528 29.578 195.756 29.4987 195.92 29.34C196.083 29.1767 196.165 28.948 196.165 28.654V28.584C196.165 28.29 196.083 28.0637 195.92 27.905C195.756 27.7417 195.528 27.66 195.234 27.66C194.935 27.66 194.704 27.7417 194.541 27.905C194.377 28.0637 194.296 28.29 194.296 28.584V28.654C194.296 28.948 194.377 29.1767 194.541 29.34C194.704 29.4987 194.935 29.578 195.234 29.578ZM199.438 32.07C199.214 32.07 199.055 32.0233 198.962 31.93C198.873 31.8367 198.829 31.7223 198.829 31.587V31.405C198.829 31.2697 198.873 31.1553 198.962 31.062C199.055 30.9687 199.214 30.922 199.438 30.922C199.662 30.922 199.818 30.9687 199.907 31.062C200 31.1553 200.047 31.2697 200.047 31.405V31.587C200.047 31.7223 200 31.8367 199.907 31.93C199.818 32.0233 199.662 32.07 199.438 32.07ZM203.635 32.084C203.327 32.084 203.059 32.028 202.83 31.916C202.606 31.7993 202.419 31.6337 202.27 31.419C202.125 31.2043 202.018 30.9407 201.948 30.628C201.878 30.3153 201.843 29.9583 201.843 29.557C201.843 29.1603 201.878 28.8057 201.948 28.493C202.018 28.1757 202.125 27.9097 202.27 27.695C202.419 27.4803 202.606 27.317 202.83 27.205C203.059 27.0883 203.327 27.03 203.635 27.03C203.943 27.03 204.209 27.0883 204.433 27.205C204.662 27.317 204.848 27.4803 204.993 27.695C205.142 27.9097 205.252 28.1757 205.322 28.493C205.392 28.8057 205.427 29.1603 205.427 29.557C205.427 29.9583 205.392 30.3153 205.322 30.628C205.252 30.9407 205.142 31.2043 204.993 31.419C204.848 31.6337 204.662 31.7993 204.433 31.916C204.209 32.028 203.943 32.084 203.635 32.084ZM203.635 31.44C203.99 31.44 204.242 31.3093 204.391 31.048C204.545 30.782 204.622 30.425 204.622 29.977V29.137C204.622 28.689 204.545 28.3343 204.391 28.073C204.242 27.807 203.99 27.674 203.635 27.674C203.458 27.674 203.306 27.709 203.18 27.779C203.054 27.8443 202.951 27.9423 202.872 28.073C202.793 28.199 202.734 28.353 202.697 28.535C202.664 28.7123 202.648 28.913 202.648 29.137V29.977C202.648 30.201 202.664 30.404 202.697 30.586C202.734 30.7633 202.793 30.9173 202.872 31.048C202.951 31.174 203.054 31.272 203.18 31.342C203.306 31.4073 203.458 31.44 203.635 31.44ZM203.635 29.97C203.472 29.97 203.357 29.9373 203.292 29.872C203.231 29.8067 203.201 29.7273 203.201 29.634V29.48C203.201 29.3867 203.231 29.3073 203.292 29.242C203.357 29.1767 203.472 29.144 203.635 29.144C203.798 29.144 203.91 29.1767 203.971 29.242C204.036 29.3073 204.069 29.3867 204.069 29.48V29.634C204.069 29.7273 204.036 29.8067 203.971 29.872C203.91 29.9373 203.798 29.97 203.635 29.97ZM207.832 32.084C207.524 32.084 207.256 32.028 207.027 31.916C206.803 31.7993 206.617 31.6337 206.467 31.419C206.323 31.2043 206.215 30.9407 206.145 30.628C206.075 30.3153 206.04 29.9583 206.04 29.557C206.04 29.1603 206.075 28.8057 206.145 28.493C206.215 28.1757 206.323 27.9097 206.467 27.695C206.617 27.4803 206.803 27.317 207.027 27.205C207.256 27.0883 207.524 27.03 207.832 27.03C208.14 27.03 208.406 27.0883 208.63 27.205C208.859 27.317 209.046 27.4803 209.19 27.695C209.34 27.9097 209.449 28.1757 209.519 28.493C209.589 28.8057 209.624 29.1603 209.624 29.557C209.624 29.9583 209.589 30.3153 209.519 30.628C209.449 30.9407 209.34 31.2043 209.19 31.419C209.046 31.6337 208.859 31.7993 208.63 31.916C208.406 32.028 208.14 32.084 207.832 32.084ZM207.832 31.44C208.187 31.44 208.439 31.3093 208.588 31.048C208.742 30.782 208.819 30.425 208.819 29.977V29.137C208.819 28.689 208.742 28.3343 208.588 28.073C208.439 27.807 208.187 27.674 207.832 27.674C207.655 27.674 207.503 27.709 207.377 27.779C207.251 27.8443 207.149 27.9423 207.069 28.073C206.99 28.199 206.932 28.353 206.894 28.535C206.862 28.7123 206.845 28.913 206.845 29.137V29.977C206.845 30.201 206.862 30.404 206.894 30.586C206.932 30.7633 206.99 30.9173 207.069 31.048C207.149 31.174 207.251 31.272 207.377 31.342C207.503 31.4073 207.655 31.44 207.832 31.44ZM207.832 29.97C207.669 29.97 207.555 29.9373 207.489 29.872C207.429 29.8067 207.398 29.7273 207.398 29.634V29.48C207.398 29.3867 207.429 29.3073 207.489 29.242C207.555 29.1767 207.669 29.144 207.832 29.144C207.996 29.144 208.108 29.1767 208.168 29.242C208.234 29.3073 208.266 29.3867 208.266 29.48V29.634C208.266 29.7273 208.234 29.8067 208.168 29.872C208.108 29.9373 207.996 29.97 207.832 29.97ZM212.03 32.084C211.722 32.084 211.453 32.028 211.225 31.916C211.001 31.7993 210.814 31.6337 210.665 31.419C210.52 31.2043 210.413 30.9407 210.343 30.628C210.273 30.3153 210.238 29.9583 210.238 29.557C210.238 29.1603 210.273 28.8057 210.343 28.493C210.413 28.1757 210.52 27.9097 210.665 27.695C210.814 27.4803 211.001 27.317 211.225 27.205C211.453 27.0883 211.722 27.03 212.03 27.03C212.338 27.03 212.604 27.0883 212.828 27.205C213.056 27.317 213.243 27.4803 213.388 27.695C213.537 27.9097 213.647 28.1757 213.717 28.493C213.787 28.8057 213.822 29.1603 213.822 29.557C213.822 29.9583 213.787 30.3153 213.717 30.628C213.647 30.9407 213.537 31.2043 213.388 31.419C213.243 31.6337 213.056 31.7993 212.828 31.916C212.604 32.028 212.338 32.084 212.03 32.084ZM212.03 31.44C212.384 31.44 212.636 31.3093 212.786 31.048C212.94 30.782 213.017 30.425 213.017 29.977V29.137C213.017 28.689 212.94 28.3343 212.786 28.073C212.636 27.807 212.384 27.674 212.03 27.674C211.852 27.674 211.701 27.709 211.575 27.779C211.449 27.8443 211.346 27.9423 211.267 28.073C211.187 28.199 211.129 28.353 211.092 28.535C211.059 28.7123 211.043 28.913 211.043 29.137V29.977C211.043 30.201 211.059 30.404 211.092 30.586C211.129 30.7633 211.187 30.9173 211.267 31.048C211.346 31.174 211.449 31.272 211.575 31.342C211.701 31.4073 211.852 31.44 212.03 31.44ZM212.03 29.97C211.866 29.97 211.752 29.9373 211.687 29.872C211.626 29.8067 211.596 29.7273 211.596 29.634V29.48C211.596 29.3867 211.626 29.3073 211.687 29.242C211.752 29.1767 211.866 29.144 212.03 29.144C212.193 29.144 212.305 29.1767 212.366 29.242C212.431 29.3073 212.464 29.3867 212.464 29.48V29.634C212.464 29.7273 212.431 29.8067 212.366 29.872C212.305 29.9373 212.193 29.97 212.03 29.97Z" fill="white"/>
<path d="M191.477 112V111.048H189.153V110.376L191.197 107.114H192.226V110.432H192.912V111.048H192.226V112H191.477ZM189.818 110.432H191.477V107.835H191.435L189.818 110.432ZM195.038 109.13C195.35 109.13 195.581 109.065 195.731 108.934C195.885 108.799 195.962 108.631 195.962 108.43V108.381C195.962 108.157 195.887 107.987 195.738 107.87C195.593 107.749 195.397 107.688 195.15 107.688C194.912 107.688 194.709 107.742 194.541 107.849C194.377 107.956 194.24 108.103 194.128 108.29L193.596 107.835C193.67 107.728 193.757 107.625 193.855 107.527C193.953 107.429 194.065 107.345 194.191 107.275C194.317 107.2 194.461 107.142 194.625 107.1C194.788 107.053 194.972 107.03 195.178 107.03C195.406 107.03 195.619 107.058 195.815 107.114C196.011 107.17 196.181 107.254 196.326 107.366C196.47 107.473 196.582 107.606 196.662 107.765C196.741 107.919 196.781 108.094 196.781 108.29C196.781 108.444 196.755 108.584 196.704 108.71C196.657 108.836 196.589 108.948 196.501 109.046C196.417 109.139 196.316 109.216 196.2 109.277C196.083 109.338 195.959 109.382 195.829 109.41V109.445C195.969 109.473 196.102 109.52 196.228 109.585C196.354 109.646 196.466 109.727 196.564 109.83C196.662 109.928 196.739 110.047 196.795 110.187C196.851 110.322 196.879 110.479 196.879 110.656C196.879 110.871 196.837 111.067 196.753 111.244C196.669 111.417 196.547 111.566 196.389 111.692C196.235 111.818 196.048 111.916 195.829 111.986C195.609 112.051 195.364 112.084 195.094 112.084C194.865 112.084 194.662 112.058 194.485 112.007C194.312 111.96 194.158 111.897 194.023 111.818C193.887 111.734 193.768 111.641 193.666 111.538C193.568 111.431 193.481 111.321 193.407 111.209L193.988 110.761C194.109 110.957 194.251 111.118 194.415 111.244C194.583 111.365 194.811 111.426 195.101 111.426C195.409 111.426 195.644 111.356 195.808 111.216C195.971 111.071 196.053 110.873 196.053 110.621V110.565C196.053 110.313 195.966 110.122 195.794 109.991C195.626 109.856 195.381 109.788 195.059 109.788H194.534V109.13H195.038ZM199.438 112.07C199.214 112.07 199.055 112.023 198.962 111.93C198.873 111.837 198.829 111.722 198.829 111.587V111.405C198.829 111.27 198.873 111.155 198.962 111.062C199.055 110.969 199.214 110.922 199.438 110.922C199.662 110.922 199.818 110.969 199.907 111.062C200 111.155 200.047 111.27 200.047 111.405V111.587C200.047 111.722 200 111.837 199.907 111.93C199.818 112.023 199.662 112.07 199.438 112.07ZM203.635 112.084C203.327 112.084 203.059 112.028 202.83 111.916C202.606 111.799 202.419 111.634 202.27 111.419C202.125 111.204 202.018 110.941 201.948 110.628C201.878 110.315 201.843 109.958 201.843 109.557C201.843 109.16 201.878 108.806 201.948 108.493C202.018 108.176 202.125 107.91 202.27 107.695C202.419 107.48 202.606 107.317 202.83 107.205C203.059 107.088 203.327 107.03 203.635 107.03C203.943 107.03 204.209 107.088 204.433 107.205C204.662 107.317 204.848 107.48 204.993 107.695C205.142 107.91 205.252 108.176 205.322 108.493C205.392 108.806 205.427 109.16 205.427 109.557C205.427 109.958 205.392 110.315 205.322 110.628C205.252 110.941 205.142 111.204 204.993 111.419C204.848 111.634 204.662 111.799 204.433 111.916C204.209 112.028 203.943 112.084 203.635 112.084ZM203.635 111.44C203.99 111.44 204.242 111.309 204.391 111.048C204.545 110.782 204.622 110.425 204.622 109.977V109.137C204.622 108.689 204.545 108.334 204.391 108.073C204.242 107.807 203.99 107.674 203.635 107.674C203.458 107.674 203.306 107.709 203.18 107.779C203.054 107.844 202.951 107.942 202.872 108.073C202.793 108.199 202.734 108.353 202.697 108.535C202.664 108.712 202.648 108.913 202.648 109.137V109.977C202.648 110.201 202.664 110.404 202.697 110.586C202.734 110.763 202.793 110.917 202.872 111.048C202.951 111.174 203.054 111.272 203.18 111.342C203.306 111.407 203.458 111.44 203.635 111.44ZM203.635 109.97C203.472 109.97 203.357 109.937 203.292 109.872C203.231 109.807 203.201 109.727 203.201 109.634V109.48C203.201 109.387 203.231 109.307 203.292 109.242C203.357 109.177 203.472 109.144 203.635 109.144C203.798 109.144 203.91 109.177 203.971 109.242C204.036 109.307 204.069 109.387 204.069 109.48V109.634C204.069 109.727 204.036 109.807 203.971 109.872C203.91 109.937 203.798 109.97 203.635 109.97ZM207.832 112.084C207.524 112.084 207.256 112.028 207.027 111.916C206.803 111.799 206.617 111.634 206.467 111.419C206.323 111.204 206.215 110.941 206.145 110.628C206.075 110.315 206.04 109.958 206.04 109.557C206.04 109.16 206.075 108.806 206.145 108.493C206.215 108.176 206.323 107.91 206.467 107.695C206.617 107.48 206.803 107.317 207.027 107.205C207.256 107.088 207.524 107.03 207.832 107.03C208.14 107.03 208.406 107.088 208.63 107.205C208.859 107.317 209.046 107.48 209.19 107.695C209.34 107.91 209.449 108.176 209.519 108.493C209.589 108.806 209.624 109.16 209.624 109.557C209.624 109.958 209.589 110.315 209.519 110.628C209.449 110.941 209.34 111.204 209.19 111.419C209.046 111.634 208.859 111.799 208.63 111.916C208.406 112.028 208.14 112.084 207.832 112.084ZM207.832 111.44C208.187 111.44 208.439 111.309 208.588 111.048C208.742 110.782 208.819 110.425 208.819 109.977V109.137C208.819 108.689 208.742 108.334 208.588 108.073C208.439 107.807 208.187 107.674 207.832 107.674C207.655 107.674 207.503 107.709 207.377 107.779C207.251 107.844 207.149 107.942 207.069 108.073C206.99 108.199 206.932 108.353 206.894 108.535C206.862 108.712 206.845 108.913 206.845 109.137V109.977C206.845 110.201 206.862 110.404 206.894 110.586C206.932 110.763 206.99 110.917 207.069 111.048C207.149 111.174 207.251 111.272 207.377 111.342C207.503 111.407 207.655 111.44 207.832 111.44ZM207.832 109.97C207.669 109.97 207.555 109.937 207.489 109.872C207.429 109.807 207.398 109.727 207.398 109.634V109.48C207.398 109.387 207.429 109.307 207.489 109.242C207.555 109.177 207.669 109.144 207.832 109.144C207.996 109.144 208.108 109.177 208.168 109.242C208.234 109.307 208.266 109.387 208.266 109.48V109.634C208.266 109.727 208.234 109.807 208.168 109.872C208.108 109.937 207.996 109.97 207.832 109.97ZM212.03 112.084C211.722 112.084 211.453 112.028 211.225 111.916C211.001 111.799 210.814 111.634 210.665 111.419C210.52 111.204 210.413 110.941 210.343 110.628C210.273 110.315 210.238 109.958 210.238 109.557C210.238 109.16 210.273 108.806 210.343 108.493C210.413 108.176 210.52 107.91 210.665 107.695C210.814 107.48 211.001 107.317 211.225 107.205C211.453 107.088 211.722 107.03 212.03 107.03C212.338 107.03 212.604 107.088 212.828 107.205C213.056 107.317 213.243 107.48 213.388 107.695C213.537 107.91 213.647 108.176 213.717 108.493C213.787 108.806 213.822 109.16 213.822 109.557C213.822 109.958 213.787 110.315 213.717 110.628C213.647 110.941 213.537 111.204 213.388 111.419C213.243 111.634 213.056 111.799 212.828 111.916C212.604 112.028 212.338 112.084 212.03 112.084ZM212.03 111.44C212.384 111.44 212.636 111.309 212.786 111.048C212.94 110.782 213.017 110.425 213.017 109.977V109.137C213.017 108.689 212.94 108.334 212.786 108.073C212.636 107.807 212.384 107.674 212.03 107.674C211.852 107.674 211.701 107.709 211.575 107.779C211.449 107.844 211.346 107.942 211.267 108.073C211.187 108.199 211.129 108.353 211.092 108.535C211.059 108.712 211.043 108.913 211.043 109.137V109.977C211.043 110.201 211.059 110.404 211.092 110.586C211.129 110.763 211.187 110.917 211.267 111.048C211.346 111.174 211.449 111.272 211.575 111.342C211.701 111.407 211.852 111.44 212.03 111.44ZM212.03 109.97C211.866 109.97 211.752 109.937 211.687 109.872C211.626 109.807 211.596 109.727 211.596 109.634V109.48C211.596 109.387 211.626 109.307 211.687 109.242C211.752 109.177 211.866 109.144 212.03 109.144C212.193 109.144 212.305 109.177 212.366 109.242C212.431 109.307 212.464 109.387 212.464 109.48V109.634C212.464 109.727 212.431 109.807 212.366 109.872C212.305 109.937 212.193 109.97 212.03 109.97Z" fill="white"/>
<path d="M191.477 138V137.048H189.153V136.376L191.197 133.114H192.226V136.432H192.912V137.048H192.226V138H191.477ZM189.818 136.432H191.477V133.835H191.435L189.818 136.432ZM193.757 138V137.349H195.129V133.688H195.073L193.939 134.899L193.456 134.465L194.702 133.114H195.913V137.349H197.096V138H193.757ZM199.438 138.07C199.214 138.07 199.055 138.023 198.962 137.93C198.873 137.837 198.829 137.722 198.829 137.587V137.405C198.829 137.27 198.873 137.155 198.962 137.062C199.055 136.969 199.214 136.922 199.438 136.922C199.662 136.922 199.818 136.969 199.907 137.062C200 137.155 200.047 137.27 200.047 137.405V137.587C200.047 137.722 200 137.837 199.907 137.93C199.818 138.023 199.662 138.07 199.438 138.07ZM203.635 138.084C203.327 138.084 203.059 138.028 202.83 137.916C202.606 137.799 202.419 137.634 202.27 137.419C202.125 137.204 202.018 136.941 201.948 136.628C201.878 136.315 201.843 135.958 201.843 135.557C201.843 135.16 201.878 134.806 201.948 134.493C202.018 134.176 202.125 133.91 202.27 133.695C202.419 133.48 202.606 133.317 202.83 133.205C203.059 133.088 203.327 133.03 203.635 133.03C203.943 133.03 204.209 133.088 204.433 133.205C204.662 133.317 204.848 133.48 204.993 133.695C205.142 133.91 205.252 134.176 205.322 134.493C205.392 134.806 205.427 135.16 205.427 135.557C205.427 135.958 205.392 136.315 205.322 136.628C205.252 136.941 205.142 137.204 204.993 137.419C204.848 137.634 204.662 137.799 204.433 137.916C204.209 138.028 203.943 138.084 203.635 138.084ZM203.635 137.44C203.99 137.44 204.242 137.309 204.391 137.048C204.545 136.782 204.622 136.425 204.622 135.977V135.137C204.622 134.689 204.545 134.334 204.391 134.073C204.242 133.807 203.99 133.674 203.635 133.674C203.458 133.674 203.306 133.709 203.18 133.779C203.054 133.844 202.951 133.942 202.872 134.073C202.793 134.199 202.734 134.353 202.697 134.535C202.664 134.712 202.648 134.913 202.648 135.137V135.977C202.648 136.201 202.664 136.404 202.697 136.586C202.734 136.763 202.793 136.917 202.872 137.048C202.951 137.174 203.054 137.272 203.18 137.342C203.306 137.407 203.458 137.44 203.635 137.44ZM203.635 135.97C203.472 135.97 203.357 135.937 203.292 135.872C203.231 135.807 203.201 135.727 203.201 135.634V135.48C203.201 135.387 203.231 135.307 203.292 135.242C203.357 135.177 203.472 135.144 203.635 135.144C203.798 135.144 203.91 135.177 203.971 135.242C204.036 135.307 204.069 135.387 204.069 135.48V135.634C204.069 135.727 204.036 135.807 203.971 135.872C203.91 135.937 203.798 135.97 203.635 135.97ZM207.832 138.084C207.524 138.084 207.256 138.028 207.027 137.916C206.803 137.799 206.617 137.634 206.467 137.419C206.323 137.204 206.215 136.941 206.145 136.628C206.075 136.315 206.04 135.958 206.04 135.557C206.04 135.16 206.075 134.806 206.145 134.493C206.215 134.176 206.323 133.91 206.467 133.695C206.617 133.48 206.803 133.317 207.027 133.205C207.256 133.088 207.524 133.03 207.832 133.03C208.14 133.03 208.406 133.088 208.63 133.205C208.859 133.317 209.046 133.48 209.19 133.695C209.34 133.91 209.449 134.176 209.519 134.493C209.589 134.806 209.624 135.16 209.624 135.557C209.624 135.958 209.589 136.315 209.519 136.628C209.449 136.941 209.34 137.204 209.19 137.419C209.046 137.634 208.859 137.799 208.63 137.916C208.406 138.028 208.14 138.084 207.832 138.084ZM207.832 137.44C208.187 137.44 208.439 137.309 208.588 137.048C208.742 136.782 208.819 136.425 208.819 135.977V135.137C208.819 134.689 208.742 134.334 208.588 134.073C208.439 133.807 208.187 133.674 207.832 133.674C207.655 133.674 207.503 133.709 207.377 133.779C207.251 133.844 207.149 133.942 207.069 134.073C206.99 134.199 206.932 134.353 206.894 134.535C206.862 134.712 206.845 134.913 206.845 135.137V135.977C206.845 136.201 206.862 136.404 206.894 136.586C206.932 136.763 206.99 136.917 207.069 137.048C207.149 137.174 207.251 137.272 207.377 137.342C207.503 137.407 207.655 137.44 207.832 137.44ZM207.832 135.97C207.669 135.97 207.555 135.937 207.489 135.872C207.429 135.807 207.398 135.727 207.398 135.634V135.48C207.398 135.387 207.429 135.307 207.489 135.242C207.555 135.177 207.669 135.144 207.832 135.144C207.996 135.144 208.108 135.177 208.168 135.242C208.234 135.307 208.266 135.387 208.266 135.48V135.634C208.266 135.727 208.234 135.807 208.168 135.872C208.108 135.937 207.996 135.97 207.832 135.97ZM212.03 138.084C211.722 138.084 211.453 138.028 211.225 137.916C211.001 137.799 210.814 137.634 210.665 137.419C210.52 137.204 210.413 136.941 210.343 136.628C210.273 136.315 210.238 135.958 210.238 135.557C210.238 135.16 210.273 134.806 210.343 134.493C210.413 134.176 210.52 133.91 210.665 133.695C210.814 133.48 211.001 133.317 211.225 133.205C211.453 133.088 211.722 133.03 212.03 133.03C212.338 133.03 212.604 133.088 212.828 133.205C213.056 133.317 213.243 133.48 213.388 133.695C213.537 133.91 213.647 134.176 213.717 134.493C213.787 134.806 213.822 135.16 213.822 135.557C213.822 135.958 213.787 136.315 213.717 136.628C213.647 136.941 213.537 137.204 213.388 137.419C213.243 137.634 213.056 137.799 212.828 137.916C212.604 138.028 212.338 138.084 212.03 138.084ZM212.03 137.44C212.384 137.44 212.636 137.309 212.786 137.048C212.94 136.782 213.017 136.425 213.017 135.977V135.137C213.017 134.689 212.94 134.334 212.786 134.073C212.636 133.807 212.384 133.674 212.03 133.674C211.852 133.674 211.701 133.709 211.575 133.779C211.449 133.844 211.346 133.942 211.267 134.073C211.187 134.199 211.129 134.353 211.092 134.535C211.059 134.712 211.043 134.913 211.043 135.137V135.977C211.043 136.201 211.059 136.404 211.092 136.586C211.129 136.763 211.187 136.917 211.267 137.048C211.346 137.174 211.449 137.272 211.575 137.342C211.701 137.407 211.852 137.44 212.03 137.44ZM212.03 135.97C211.866 135.97 211.752 135.937 211.687 135.872C211.626 135.807 211.596 135.727 211.596 135.634V135.48C211.596 135.387 211.626 135.307 211.687 135.242C211.752 135.177 211.866 135.144 212.03 135.144C212.193 135.144 212.305 135.177 212.366 135.242C212.431 135.307 212.464 135.387 212.464 135.48V135.634C212.464 135.727 212.431 135.807 212.366 135.872C212.305 135.937 212.193 135.97 212.03 135.97Z" fill="white"/>
</g>
<defs>
<filter id="filter0_i_333_127" x="0.5" y="0" width="236.22" height="166" filterUnits="userSpaceOnUse" color-interpolation-filters="sRGB">
<feFlood flood-opacity="0" result="BackgroundImageFix"/>
<feBlend mode="normal" in="SourceGraphic" in2="BackgroundImageFix" result="shape"/>
<feColorMatrix in="SourceAlpha" type="matrix" values="0 0 0 0 0 0 0 0 0 0 0 0 0 0 0 0 0 0 127 0" result="hardAlpha"/>
<feOffset dy="4"/>
<feGaussianBlur stdDeviation="6"/>
<feComposite in2="hardAlpha" operator="arithmetic" k2="-1" k3="1"/>
<feColorMatrix type="matrix" values="0 0 0 0 0.209236 0 0 0 0 0.257983 0 0 0 0 0.383333 0 0 0 0.12 0"/>
<feBlend mode="normal" in2="shape" result="effect1_innerShadow_333_127"/>
</filter>
</defs>
</svg>
