<svg width="622" height="540" viewBox="0 0 622 540" fill="none" xmlns="http://www.w3.org/2000/svg">
<rect x="0.337891" width="523.265" height="367" rx="8" fill="#262833"/>
<mask id="mask0_86_127" style="mask-type:alpha" maskUnits="userSpaceOnUse" x="0" y="0" width="524" height="367">
<rect x="0.337891" width="523.265" height="367" rx="8" fill="#3D3F4D"/>
</mask>
<g mask="url(#mask0_86_127)">
<path d="M0 6.19287C0 2.87916 2.68629 0.192871 6 0.192871H517.265C520.579 0.192871 523.265 2.87916 523.265 6.19287V28.7671H0V6.19287Z" fill="#2F313C"/>
<circle cx="18.0181" cy="14.6086" r="4.80525" fill="#6422F1"/>
<circle cx="31.4713" cy="14.6086" r="4.80525" fill="#F46591"/>
<circle cx="44.9283" cy="14.6086" r="4.80525" fill="#2BD38D"/>
<mask id="mask1_86_127" style="mask-type:alpha" maskUnits="userSpaceOnUse" x="-62" y="-1" width="586" height="413">
<rect width="586" height="412" rx="8" transform="matrix(-1 0 0 1 524 -0.277344)" fill="#3D3F4D"/>
</mask>
<g mask="url(#mask1_86_127)">
<path d="M462.611 189.173L524 160.428V311.922H0.734802V106.822L8.04297 104.492L47.5071 151.882L63.5851 147.221L113.281 191.504L119.127 195.388L169.554 143.336L184.901 151.882L212.672 104.492L219.06 101.937L249.943 143.336H253.598L275.522 172.858L301.101 207.818L307.678 212.48L322.294 194.611L348.983 102.938L360.297 96.7227L371.99 102.938L393.184 153.436L401.223 160.428L417.301 149.551L431.917 153.436L462.611 189.173Z" fill="url(#paint0_linear_86_127)"/>
<path d="M357.406 97.4926L356.953 95.5447L357.406 97.4926ZM329.519 172.844L327.638 172.163L329.519 172.844ZM3.08618 106.491L4.28729 108.09L3.08618 106.491ZM66.1617 148.02L64.7939 149.479L66.1617 148.02ZM59.3797 147.028L60.2726 148.818L59.3797 147.028ZM122.98 192.776L121.475 191.459L122.98 192.776ZM114.361 193.202L112.993 194.662L114.361 193.202ZM171.547 144.38L172.502 142.623L171.547 144.38ZM164.167 145.702L165.672 147.019L164.167 145.702ZM189.968 147.452L188.196 146.525L189.968 147.452ZM181.787 149.943L182.742 148.186L181.787 149.943ZM222.155 104.838L223.795 103.694L222.155 104.838ZM211.915 105.488L210.143 104.561L211.915 105.488ZM256.2 144.286L254.561 145.433L256.2 144.286ZM301.307 208.73L299.668 209.877L301.307 208.73ZM306.212 211.031L306.559 213.001L306.212 211.031ZM248.721 142.959L247.08 144.102L248.721 142.959ZM52.0356 150.692L51.1428 148.902L52.0356 150.692ZM44.6758 149.076L46.2362 147.825L44.6758 149.076ZM465.355 188.085L466.205 189.896L465.355 188.085ZM457.319 185.531L455.6 186.553L457.319 185.531ZM524.85 162.352L466.205 189.896L464.504 186.275L523.15 158.732L524.85 162.352ZM455.6 186.553C451.674 179.951 444.11 168.359 435.331 160.528C430.935 156.607 426.407 153.787 422.032 152.872C417.793 151.985 413.546 152.846 409.393 156.636L406.697 153.682C411.797 149.028 417.35 147.806 422.851 148.957C428.216 150.079 433.37 153.419 437.994 157.543C447.252 165.802 455.072 177.84 459.038 184.509L455.6 186.553ZM299.668 209.877L254.561 145.433L257.838 143.14L302.945 207.583L299.668 209.877ZM247.08 144.102L220.514 105.981L223.795 103.694L250.362 141.815L247.08 144.102ZM213.687 106.414L191.741 148.379L188.196 146.525L210.143 104.561L213.687 106.414ZM180.833 151.701L170.592 146.138L172.502 142.623L182.742 148.186L180.833 151.701ZM165.672 147.019L124.485 194.093L121.475 191.459L162.662 144.385L165.672 147.019ZM112.993 194.662L64.7939 149.479L67.5295 146.56L115.729 191.743L112.993 194.662ZM60.2726 148.818L52.9285 152.482L51.1428 148.902L58.4868 145.238L60.2726 148.818ZM43.1154 150.327L9.8103 108.787L12.9311 106.284L46.2362 147.825L43.1154 150.327ZM4.28729 108.09L1.93591 109.856L-0.466309 106.658L1.88507 104.892L4.28729 108.09ZM357.86 99.4405C355.484 99.9936 353.192 102.295 350.94 106.83C348.731 111.277 346.815 117.35 344.901 124.51C341.113 138.684 337.384 156.982 331.399 173.524L327.638 172.163C333.547 155.831 337.158 137.991 341.037 123.477C342.957 116.293 344.957 109.884 347.357 105.051C349.714 100.306 352.724 96.5291 356.953 95.5447L357.86 99.4405ZM331.399 173.524C327.103 185.397 323.904 194.663 320.416 201.148C316.888 207.708 312.813 211.9 306.559 213.001L305.866 209.062C310.374 208.268 313.624 205.332 316.893 199.253C320.203 193.1 323.276 184.219 327.638 172.163L331.399 173.524ZM409.393 156.636C406.325 159.436 403.244 160.798 400.152 160.369C397.116 159.947 394.676 157.876 392.678 155.248C388.713 150.035 385.481 141.252 382.276 132.478C379.002 123.513 375.708 114.395 371.629 107.875C369.597 104.626 367.467 102.186 365.196 100.73C362.994 99.3187 360.616 98.7989 357.86 99.4405L356.953 95.5447C360.837 94.6406 364.312 95.4123 367.355 97.363C370.329 99.27 372.838 102.264 375.021 105.753C379.372 112.709 382.812 122.287 386.033 131.106C389.324 140.117 392.349 148.208 395.862 152.827C397.602 155.115 399.206 156.199 400.702 156.407C402.14 156.607 404.077 156.072 406.697 153.682L409.393 156.636ZM9.8103 108.787C8.45923 107.101 6.01434 106.793 4.28729 108.09L1.88507 104.892C5.33917 102.298 10.2289 102.914 12.9311 106.284L9.8103 108.787ZM64.7939 149.479C63.5733 148.334 61.7696 148.071 60.2726 148.818L58.4868 145.238C61.4809 143.745 65.0883 144.272 67.5295 146.56L64.7939 149.479ZM124.485 194.093C121.505 197.499 116.295 197.757 112.993 194.662L115.729 191.743C117.38 193.291 119.985 193.162 121.475 191.459L124.485 194.093ZM170.592 146.138C168.948 145.245 166.904 145.61 165.672 147.019L162.662 144.385C165.126 141.568 169.213 140.837 172.502 142.623L170.592 146.138ZM191.741 148.379C189.67 152.338 184.758 153.834 180.833 151.701L182.742 148.186C184.705 149.252 187.161 148.504 188.196 146.525L191.741 148.379ZM220.514 105.981C218.797 103.518 215.079 103.754 213.687 106.414L210.143 104.561C212.926 99.2392 220.362 98.7672 223.795 103.694L220.514 105.981ZM254.561 145.433C254.344 145.123 253.917 145.048 253.607 145.264L251.317 141.985C253.437 140.504 256.356 141.021 257.838 143.14L254.561 145.433ZM302.945 207.583C303.748 208.729 304.897 209.232 305.866 209.062L306.559 213.001C303.671 213.509 301.112 211.938 299.668 209.877L302.945 207.583ZM253.607 145.264C251.484 146.747 248.561 146.227 247.08 144.102L250.362 141.815C250.579 142.126 251.006 142.202 251.317 141.985L253.607 145.264ZM52.9285 152.482C49.5582 154.163 45.4715 153.266 43.1154 150.327L46.2362 147.825C47.4142 149.295 49.4576 149.743 51.1428 148.902L52.9285 152.482ZM466.205 189.896C462.318 191.721 457.743 190.156 455.6 186.553L459.038 184.509C460.181 186.431 462.573 187.182 464.504 186.275L466.205 189.896Z" fill="#8481FF"/>
<rect x="40.7344" y="61" width="129" height="12" rx="6" fill="white" fill-opacity="0.32"/>
<rect x="40.7344" y="80" width="82" height="12" rx="6" fill="white" fill-opacity="0.32"/>
</g>
<mask id="mask2_86_127" style="mask-type:alpha" maskUnits="userSpaceOnUse" x="0" y="0" width="524" height="367">
<rect width="523.265" height="367" rx="8" fill="#3D3F4D"/>
</mask>
<g mask="url(#mask2_86_127)">
<path d="M61.0508 250.998L-0.337891 224.042V366.107H522.927V173.773L513.551 169.659L476.155 216.028L460.077 211.657L410.381 253.183L404.535 256.826L356.393 206.716L338.761 216.028L309.96 168.32H303.263L273.719 208.014H270.065L248.14 235.698L222.561 268.483L213.522 274.134L201.368 256.098L173.34 170.13L163.964 163.409L151.672 170.13L130.478 217.485L122.442 222.343L106.361 213.842L91.7451 217.485L61.0508 250.998Z" fill="url(#paint1_linear_86_127)"/>
<path d="M166.256 164.134L166.684 162.18L166.256 164.134ZM194.144 235.108L196.011 234.391L194.144 235.108ZM510.337 171.913L508.757 170.688L510.337 171.913ZM518.891 170.954L520.161 169.409L518.891 170.954ZM457.591 211.645L456.268 210.146L457.591 211.645ZM400.789 253.997L399.324 255.359L400.789 253.997ZM409.156 254.412L407.833 252.912L409.156 254.412ZM352.293 208.207L351.382 206.426L352.293 208.207ZM359.423 209.465L360.888 208.103L359.423 209.465ZM333.703 211.208L335.452 210.237L333.703 211.208ZM301.619 170.902L303.227 172.091L301.619 170.902ZM311.688 171.558L309.939 172.529L311.688 171.558ZM267.43 208.252L265.825 207.059L267.43 208.252ZM222.363 268.899L223.968 270.092L222.363 268.899ZM217.554 271.094L217.239 273.069L217.554 271.094ZM274.973 206.915L273.365 205.726L274.973 206.915ZM471.608 214.234L472.459 212.424L471.608 214.234ZM478.902 212.479L477.322 211.254L478.902 212.479ZM58.4984 249.548L59.3075 247.719L58.4984 249.548ZM66.3334 247.073L64.6421 246.006L66.3334 247.073ZM-1.147 225.35L57.6893 251.377L59.3075 247.719L0.471223 221.692L-1.147 225.35ZM68.0247 248.141C71.943 241.933 79.5014 231.018 88.2759 223.642C92.6662 219.952 97.2021 217.284 101.602 216.415C105.887 215.57 110.162 216.399 114.313 219.967L116.921 216.934C111.815 212.545 106.287 211.414 100.827 212.491C95.4829 213.546 90.3332 216.687 85.702 220.58C76.4339 228.371 68.6071 239.724 64.6421 246.006L68.0247 248.141ZM223.968 270.092L269.036 209.445L265.825 207.059L220.758 267.706L223.968 270.092ZM276.581 208.105L303.227 172.091L300.011 169.712L273.365 205.726L276.581 208.105ZM309.939 172.529L331.955 212.179L335.452 210.237L313.436 170.587L309.939 172.529ZM342.593 215.417L353.204 209.987L351.382 206.426L340.771 211.856L342.593 215.417ZM357.957 210.826L399.324 255.359L402.254 252.636L360.888 208.103L357.957 210.826ZM410.48 255.911L458.915 213.145L456.268 210.146L407.833 252.912L410.48 255.911ZM463.264 212.523L470.757 216.044L472.459 212.424L464.965 208.903L463.264 212.523ZM480.483 213.704L511.918 173.138L508.757 170.688L477.322 211.254L480.483 213.704ZM517.621 172.499L521.657 175.818L524.198 172.728L520.161 169.409L517.621 172.499ZM165.827 166.087C168.233 166.615 170.511 168.788 172.744 173.024C174.944 177.196 176.856 182.9 178.769 189.641C182.552 202.975 186.287 220.234 192.277 235.825L196.011 234.391C190.105 219.017 186.501 202.237 182.617 188.549C180.696 181.78 178.692 175.727 176.283 171.158C173.907 166.653 170.883 163.101 166.684 162.18L165.827 166.087ZM192.277 235.825C196.583 247.036 199.795 255.801 203.305 261.927C206.871 268.152 210.981 272.073 217.239 273.069L217.868 269.119C213.285 268.389 210.032 265.623 206.775 259.939C203.462 254.156 200.39 245.791 196.011 234.391L192.277 235.825ZM114.313 219.967C117.394 222.615 120.454 223.873 123.495 223.475C126.493 223.083 128.933 221.147 130.948 218.65C134.928 213.721 138.17 205.422 141.372 197.164C144.648 188.715 147.935 180.146 152.003 174.02C156.077 167.885 160.434 164.905 165.827 166.087L166.684 162.18C158.796 160.451 153.027 165.248 148.671 171.807C144.309 178.375 140.862 187.416 137.643 195.718C134.349 204.212 131.333 211.806 127.836 216.137C126.113 218.272 124.509 219.308 122.976 219.509C121.486 219.704 119.528 219.175 116.921 216.934L114.313 219.967ZM511.918 173.138C513.299 171.356 515.879 171.067 517.621 172.499L520.161 169.409C516.679 166.545 511.518 167.124 508.757 170.688L511.918 173.138ZM458.915 213.145C460.111 212.089 461.82 211.844 463.264 212.523L464.965 208.903C462.077 207.546 458.659 208.034 456.268 210.146L458.915 213.145ZM399.324 255.359C402.277 258.538 407.227 258.783 410.48 255.911L407.833 252.912C406.206 254.348 403.731 254.226 402.254 252.636L399.324 255.359ZM353.204 209.987C354.798 209.172 356.739 209.514 357.957 210.826L360.888 208.103C358.452 205.481 354.569 204.796 351.382 206.426L353.204 209.987ZM331.955 212.179C334.048 215.949 338.754 217.381 342.593 215.417L340.771 211.856C338.851 212.838 336.499 212.122 335.452 210.237L331.955 212.179ZM303.227 172.091C304.957 169.752 308.527 169.985 309.939 172.529L313.436 170.587C310.611 165.499 303.472 165.034 300.011 169.712L303.227 172.091ZM269.036 209.445C269.285 209.11 269.752 209.028 270.101 209.257L272.299 205.915C270.179 204.521 267.339 205.022 265.825 207.059L269.036 209.445ZM220.758 267.706C219.954 268.788 218.832 269.272 217.868 269.119L217.239 273.069C220.024 273.513 222.508 272.056 223.968 270.092L220.758 267.706ZM270.101 209.257C272.224 210.654 275.069 210.148 276.581 208.105L273.365 205.726C273.117 206.062 272.649 206.145 272.299 205.915L270.101 209.257ZM470.757 216.044C474.147 217.637 478.189 216.665 480.483 213.704L477.322 211.254C476.174 212.734 474.154 213.221 472.459 212.424L470.757 216.044ZM57.6893 251.377C61.4812 253.055 65.8661 251.561 68.0247 248.141L64.6421 246.006C63.4872 247.835 61.1927 248.553 59.3075 247.719L57.6893 251.377Z" fill="url(#paint2_linear_86_127)"/>
</g>
<rect x="448.674" y="44.3262" width="43" height="43" rx="7" fill="#2F313B"/>
<path d="M462.574 62.0262H462.845C463.89 62.0262 464.745 62.8812 464.745 63.9262V73.4262C464.745 74.4712 463.89 75.3262 462.845 75.3262H462.574C461.529 75.3262 460.674 74.4712 460.674 73.4262V63.9262C460.674 62.8812 461.529 62.0262 462.574 62.0262ZM470.174 56.3262C471.219 56.3262 472.074 57.1812 472.074 58.2262V73.4262C472.074 74.4712 471.219 75.3262 470.174 75.3262C469.129 75.3262 468.274 74.4712 468.274 73.4262V58.2262C468.274 57.1812 469.129 56.3262 470.174 56.3262ZM477.774 67.1833C478.819 67.1833 479.674 68.0383 479.674 69.0833V73.4262C479.674 74.4712 478.819 75.3262 477.774 75.3262C476.729 75.3262 475.874 74.4712 475.874 73.4262V69.0833C475.874 68.0383 476.729 67.1833 477.774 67.1833Z" fill="#3EB79C"/>
</g>
<g filter="url(#filter0_d_86_127)">
<path d="M235 262C235 257.029 239.029 253 244 253H557C561.971 253 566 257.029 566 262V471C566 475.971 561.971 480 557 480H244C239.029 480 235 475.971 235 471V262Z" fill="#262833"/>
</g>
<rect x="235" y="253" width="331" height="227" rx="9" fill="#262833"/>
<path d="M261 297.185H264.403V296.185H261V297.185ZM271.208 297.185H278.013V296.185H271.208V297.185ZM284.818 297.185H291.623V296.185H284.818V297.185ZM298.428 297.185H305.233V296.185H298.428V297.185ZM312.039 297.185H318.844V296.185H312.039V297.185ZM325.649 297.185H332.454V296.185H325.649V297.185ZM339.259 297.185H346.064V296.185H339.259V297.185ZM352.869 297.185H359.674V296.185H352.869V297.185ZM366.48 297.185H373.285V296.185H366.48V297.185ZM380.09 297.185H386.895V296.185H380.09V297.185ZM393.7 297.185H400.505V296.185H393.7V297.185ZM407.31 297.185H414.116V296.185H407.31V297.185ZM420.921 297.185H427.726V296.185H420.921V297.185ZM434.531 297.185H441.336V296.185H434.531V297.185ZM448.141 297.185H454.946V296.185H448.141V297.185ZM461.751 297.185H468.557V296.185H461.751V297.185ZM475.362 297.185H482.167V296.185H475.362V297.185ZM488.972 297.185H492.375V296.185H488.972V297.185Z" fill="white" fill-opacity="0.4"/>
<line x1="261" y1="334.049" x2="492.375" y2="334.049" stroke="white" stroke-opacity="0.4" stroke-dasharray="7 7"/>
<line x1="261" y1="371.533" x2="492.375" y2="371.533" stroke="white" stroke-opacity="0.4" stroke-dasharray="7 7"/>
<line x1="261" y1="409.016" x2="492.375" y2="409.016" stroke="white" stroke-opacity="0.4" stroke-dasharray="7 7"/>
<line x1="261" y1="446.5" x2="492.375" y2="446.5" stroke="white" stroke-opacity="0.4" stroke-dasharray="7 7"/>
<rect x="371" y="310.724" width="10" height="54.367" rx="2" fill="#3EB79C"/>
<rect x="375" y="287" width="2" height="104.78" rx="1" fill="#3EB79C"/>
<rect x="431" y="335.436" width="10" height="46.4591" rx="2" fill="#3EB79C"/>
<rect x="435" y="315.666" width="2" height="88.9642" rx="1" fill="#3EB79C"/>
<rect x="451" y="354.218" width="10" height="35.5857" rx="2" fill="#3EB79C"/>
<rect x="455" y="338.402" width="2" height="69.1944" rx="1" fill="#3EB79C"/>
<rect x="351" y="344.333" width="10" height="54.367" rx="2" fill="#3EB79C"/>
<rect x="355" y="320.609" width="2" height="104.78" rx="1" fill="#3EB79C"/>
<rect x="331" y="360.148" width="10" height="54.367" rx="2" fill="#ECBDCC"/>
<rect x="335" y="336.425" width="2" height="104.78" rx="1" fill="#ECBDCC"/>
<rect x="271" y="355.542" width="10" height="41.5446" rx="2" fill="#ECBDCC"/>
<rect x="275" y="337.413" width="2" height="80.0678" rx="1" fill="#ECBDCC"/>
<rect x="311" y="349.275" width="10" height="43.4936" rx="2" fill="#3EB79C"/>
<rect x="315" y="330.494" width="2" height="83.0332" rx="1" fill="#3EB79C"/>
<rect x="291" y="347.298" width="10" height="22.7353" rx="2" fill="#3EB79C"/>
<rect x="295" y="337.413" width="2" height="43.4936" rx="1" fill="#3EB79C"/>
<rect x="411" y="361.137" width="10" height="36.5742" rx="2" fill="#B1B5D3"/>
<rect x="415" y="349.275" width="2" height="60.2979" rx="1" fill="#B1B5D3"/>
<rect x="471" y="336.425" width="10" height="36.5742" rx="2" fill="#B1B5D3"/>
<rect x="475" y="324.563" width="2" height="60.2979" rx="1" fill="#B1B5D3"/>
<rect x="391" y="345.321" width="10" height="36.5742" rx="2" fill="#B1B5D3"/>
<rect x="395" y="333.459" width="2" height="60.2979" rx="1" fill="#B1B5D3"/>
<path d="M508.095 374.366V373.569L511.61 368.007H512.188V369.241H511.798L509.142 373.444V373.507H513.876V374.366H508.095ZM511.86 376.007V374.124V373.753V368.007H512.782V376.007H511.86ZM517.84 376.116C517.382 376.116 516.969 376.025 516.602 375.843C516.234 375.66 515.94 375.41 515.719 375.093C515.497 374.775 515.376 374.413 515.355 374.007H516.293C516.329 374.369 516.493 374.668 516.785 374.905C517.079 375.14 517.431 375.257 517.84 375.257C518.168 375.257 518.46 375.18 518.715 375.026C518.973 374.873 519.174 374.662 519.32 374.394C519.469 374.123 519.543 373.817 519.543 373.476C519.543 373.127 519.466 372.815 519.313 372.542C519.161 372.266 518.953 372.049 518.688 371.89C518.422 371.731 518.118 371.65 517.777 371.647C517.533 371.645 517.281 371.683 517.023 371.761C516.766 371.836 516.553 371.934 516.387 372.054L515.48 371.944L515.965 368.007H520.121V368.866H516.777L516.496 371.226H516.543C516.707 371.095 516.913 370.987 517.16 370.901C517.408 370.815 517.665 370.772 517.934 370.772C518.423 370.772 518.859 370.89 519.242 371.124C519.628 371.356 519.93 371.674 520.148 372.077C520.37 372.481 520.48 372.942 520.48 373.46C520.48 373.97 520.366 374.426 520.137 374.827C519.91 375.226 519.598 375.541 519.199 375.772C518.801 376.002 518.348 376.116 517.84 376.116ZM522.419 376.069C522.226 376.069 522.061 376 521.923 375.862C521.785 375.724 521.716 375.559 521.716 375.366C521.716 375.174 521.785 375.008 521.923 374.87C522.061 374.732 522.226 374.663 522.419 374.663C522.612 374.663 522.777 374.732 522.915 374.87C523.053 375.008 523.122 375.174 523.122 375.366C523.122 375.494 523.09 375.611 523.024 375.718C522.962 375.825 522.877 375.91 522.771 375.976C522.666 376.038 522.549 376.069 522.419 376.069ZM527.091 376.116C526.502 376.116 526.001 375.956 525.587 375.636C525.173 375.313 524.856 374.845 524.638 374.233C524.419 373.619 524.31 372.877 524.31 372.007C524.31 371.142 524.419 370.404 524.638 369.792C524.859 369.177 525.177 368.709 525.591 368.386C526.007 368.06 526.507 367.897 527.091 367.897C527.674 367.897 528.173 368.06 528.587 368.386C529.004 368.709 529.321 369.177 529.54 369.792C529.761 370.404 529.872 371.142 529.872 372.007C529.872 372.877 529.763 373.619 529.544 374.233C529.325 374.845 529.009 375.313 528.595 375.636C528.181 375.956 527.679 376.116 527.091 376.116ZM527.091 375.257C527.674 375.257 528.127 374.976 528.45 374.413C528.773 373.851 528.935 373.049 528.935 372.007C528.935 371.314 528.86 370.724 528.712 370.237C528.566 369.75 528.355 369.379 528.079 369.124C527.806 368.869 527.476 368.741 527.091 368.741C526.513 368.741 526.061 369.026 525.735 369.597C525.41 370.164 525.247 370.968 525.247 372.007C525.247 372.7 525.32 373.288 525.466 373.772C525.612 374.257 525.821 374.625 526.095 374.878C526.371 375.131 526.703 375.257 527.091 375.257ZM533.966 376.116C533.377 376.116 532.876 375.956 532.462 375.636C532.048 375.313 531.731 374.845 531.513 374.233C531.294 373.619 531.185 372.877 531.185 372.007C531.185 371.142 531.294 370.404 531.513 369.792C531.734 369.177 532.052 368.709 532.466 368.386C532.882 368.06 533.382 367.897 533.966 367.897C534.549 367.897 535.048 368.06 535.462 368.386C535.879 368.709 536.196 369.177 536.415 369.792C536.636 370.404 536.747 371.142 536.747 372.007C536.747 372.877 536.638 373.619 536.419 374.233C536.2 374.845 535.884 375.313 535.47 375.636C535.056 375.956 534.554 376.116 533.966 376.116ZM533.966 375.257C534.549 375.257 535.002 374.976 535.325 374.413C535.648 373.851 535.81 373.049 535.81 372.007C535.81 371.314 535.735 370.724 535.587 370.237C535.441 369.75 535.23 369.379 534.954 369.124C534.681 368.869 534.351 368.741 533.966 368.741C533.388 368.741 532.936 369.026 532.61 369.597C532.285 370.164 532.122 370.968 532.122 372.007C532.122 372.7 532.195 373.288 532.341 373.772C532.487 374.257 532.696 374.625 532.97 374.878C533.246 375.131 533.578 375.257 533.966 375.257ZM540.841 376.116C540.252 376.116 539.751 375.956 539.337 375.636C538.923 375.313 538.606 374.845 538.388 374.233C538.169 373.619 538.06 372.877 538.06 372.007C538.06 371.142 538.169 370.404 538.388 369.792C538.609 369.177 538.927 368.709 539.341 368.386C539.757 368.06 540.257 367.897 540.841 367.897C541.424 367.897 541.923 368.06 542.337 368.386C542.754 368.709 543.071 369.177 543.29 369.792C543.511 370.404 543.622 371.142 543.622 372.007C543.622 372.877 543.513 373.619 543.294 374.233C543.075 374.845 542.759 375.313 542.345 375.636C541.931 375.956 541.429 376.116 540.841 376.116ZM540.841 375.257C541.424 375.257 541.877 374.976 542.2 374.413C542.523 373.851 542.685 373.049 542.685 372.007C542.685 371.314 542.61 370.724 542.462 370.237C542.316 369.75 542.105 369.379 541.829 369.124C541.556 368.869 541.226 368.741 540.841 368.741C540.263 368.741 539.811 369.026 539.485 369.597C539.16 370.164 538.997 370.968 538.997 372.007C538.997 372.7 539.07 373.288 539.216 373.772C539.362 374.257 539.571 374.625 539.845 374.878C540.121 375.131 540.453 375.257 540.841 375.257Z" fill="white"/>
<path d="M508.095 336.863V336.066L511.61 330.503H512.188V331.738H511.798L509.142 335.941V336.003H513.876V336.863H508.095ZM511.86 338.503V336.621V336.25V330.503H512.782V338.503H511.86ZM515.59 338.503L519.168 331.425V331.363H515.043V330.503H520.168V331.41L516.605 338.503H515.59ZM520.937 338.566C520.744 338.566 520.578 338.497 520.44 338.359C520.302 338.221 520.233 338.056 520.233 337.863C520.233 337.67 520.302 337.505 520.44 337.367C520.578 337.229 520.744 337.16 520.937 337.16C521.129 337.16 521.295 337.229 521.433 337.367C521.571 337.505 521.64 337.67 521.64 337.863C521.64 337.99 521.607 338.108 521.542 338.214C521.479 338.321 521.395 338.407 521.288 338.472C521.184 338.535 521.067 338.566 520.937 338.566ZM525.608 338.613C525.02 338.613 524.519 338.453 524.104 338.132C523.69 337.809 523.374 337.342 523.155 336.73C522.937 336.115 522.827 335.373 522.827 334.503C522.827 333.639 522.937 332.901 523.155 332.289C523.377 331.674 523.694 331.205 524.108 330.882C524.525 330.557 525.025 330.394 525.608 330.394C526.192 330.394 526.69 330.557 527.104 330.882C527.521 331.205 527.839 331.674 528.058 332.289C528.279 332.901 528.39 333.639 528.39 334.503C528.39 335.373 528.28 336.115 528.062 336.73C527.843 337.342 527.526 337.809 527.112 338.132C526.698 338.453 526.197 338.613 525.608 338.613ZM525.608 337.753C526.192 337.753 526.645 337.472 526.968 336.91C527.291 336.347 527.452 335.545 527.452 334.503C527.452 333.811 527.378 333.221 527.229 332.734C527.084 332.247 526.873 331.876 526.597 331.621C526.323 331.365 525.994 331.238 525.608 331.238C525.03 331.238 524.578 331.523 524.253 332.093C523.927 332.661 523.765 333.464 523.765 334.503C523.765 335.196 523.838 335.785 523.983 336.269C524.129 336.753 524.339 337.122 524.612 337.375C524.888 337.627 525.22 337.753 525.608 337.753ZM532.483 338.613C531.895 338.613 531.394 338.453 530.979 338.132C530.565 337.809 530.249 337.342 530.03 336.73C529.812 336.115 529.702 335.373 529.702 334.503C529.702 333.639 529.812 332.901 530.03 332.289C530.252 331.674 530.569 331.205 530.983 330.882C531.4 330.557 531.9 330.394 532.483 330.394C533.067 330.394 533.565 330.557 533.979 330.882C534.396 331.205 534.714 331.674 534.933 332.289C535.154 332.901 535.265 333.639 535.265 334.503C535.265 335.373 535.155 336.115 534.937 336.73C534.718 337.342 534.401 337.809 533.987 338.132C533.573 338.453 533.072 338.613 532.483 338.613ZM532.483 337.753C533.067 337.753 533.52 337.472 533.843 336.91C534.166 336.347 534.327 335.545 534.327 334.503C534.327 333.811 534.253 333.221 534.104 332.734C533.959 332.247 533.748 331.876 533.472 331.621C533.198 331.365 532.869 331.238 532.483 331.238C531.905 331.238 531.453 331.523 531.128 332.093C530.802 332.661 530.64 333.464 530.64 334.503C530.64 335.196 530.713 335.785 530.858 336.269C531.004 336.753 531.214 337.122 531.487 337.375C531.763 337.627 532.095 337.753 532.483 337.753ZM539.358 338.613C538.77 338.613 538.269 338.453 537.854 338.132C537.44 337.809 537.124 337.342 536.905 336.73C536.687 336.115 536.577 335.373 536.577 334.503C536.577 333.639 536.687 332.901 536.905 332.289C537.127 331.674 537.444 331.205 537.858 330.882C538.275 330.557 538.775 330.394 539.358 330.394C539.942 330.394 540.44 330.557 540.854 330.882C541.271 331.205 541.589 331.674 541.808 332.289C542.029 332.901 542.14 333.639 542.14 334.503C542.14 335.373 542.03 336.115 541.812 336.73C541.593 337.342 541.276 337.809 540.862 338.132C540.448 338.453 539.947 338.613 539.358 338.613ZM539.358 337.753C539.942 337.753 540.395 337.472 540.718 336.91C541.041 336.347 541.202 335.545 541.202 334.503C541.202 333.811 541.128 333.221 540.979 332.734C540.834 332.247 540.623 331.876 540.347 331.621C540.073 331.365 539.744 331.238 539.358 331.238C538.78 331.238 538.328 331.523 538.003 332.093C537.677 332.661 537.515 333.464 537.515 334.503C537.515 335.196 537.588 335.785 537.733 336.269C537.879 336.753 538.089 337.122 538.362 337.375C538.638 337.627 538.97 337.753 539.358 337.753Z" fill="white"/>
<path d="M508.095 299.359V298.562L511.61 293H512.188V294.234H511.798L509.142 298.437V298.5H513.876V299.359H508.095ZM511.86 301V299.117V298.746V293H512.782V301H511.86ZM517.887 292.891C518.215 292.893 518.543 292.956 518.871 293.078C519.199 293.201 519.499 293.404 519.77 293.687C520.04 293.969 520.258 294.353 520.422 294.84C520.586 295.327 520.668 295.937 520.668 296.672C520.668 297.383 520.6 298.014 520.465 298.566C520.332 299.116 520.139 299.579 519.887 299.957C519.637 300.335 519.332 300.621 518.973 300.816C518.616 301.012 518.212 301.109 517.762 301.109C517.314 301.109 516.914 301.021 516.563 300.844C516.214 300.664 515.927 300.415 515.703 300.098C515.482 299.777 515.34 299.406 515.277 298.984H516.23C516.316 299.352 516.487 299.655 516.742 299.895C517 300.132 517.34 300.25 517.762 300.25C518.379 300.25 518.866 299.98 519.223 299.441C519.582 298.902 519.762 298.141 519.762 297.156H519.699C519.553 297.375 519.38 297.564 519.18 297.723C518.979 297.882 518.757 298.004 518.512 298.09C518.267 298.176 518.007 298.219 517.73 298.219C517.272 298.219 516.852 298.105 516.469 297.879C516.089 297.65 515.784 297.336 515.555 296.937C515.328 296.536 515.215 296.078 515.215 295.562C515.215 295.073 515.324 294.625 515.543 294.219C515.764 293.81 516.074 293.484 516.473 293.242C516.874 293 517.345 292.883 517.887 292.891ZM517.887 293.75C517.559 293.75 517.263 293.832 517 293.996C516.74 294.158 516.533 294.376 516.379 294.652C516.228 294.926 516.152 295.229 516.152 295.562C516.152 295.896 516.225 296.199 516.371 296.473C516.52 296.743 516.721 296.96 516.977 297.121C517.234 297.28 517.527 297.359 517.855 297.359C518.103 297.359 518.333 297.311 518.547 297.215C518.76 297.116 518.947 296.982 519.105 296.812C519.267 296.641 519.393 296.447 519.484 296.23C519.576 296.012 519.621 295.784 519.621 295.547C519.621 295.234 519.546 294.941 519.395 294.668C519.246 294.395 519.04 294.173 518.777 294.004C518.517 293.835 518.22 293.75 517.887 293.75ZM522.612 301.063C522.42 301.063 522.254 300.993 522.116 300.855C521.978 300.717 521.909 300.552 521.909 300.359C521.909 300.167 521.978 300.001 522.116 299.863C522.254 299.725 522.42 299.656 522.612 299.656C522.805 299.656 522.97 299.725 523.108 299.863C523.246 300.001 523.315 300.167 523.315 300.359C523.315 300.487 523.283 300.604 523.218 300.711C523.155 300.818 523.071 300.904 522.964 300.969C522.86 301.031 522.743 301.063 522.612 301.063ZM527.284 301.109C526.696 301.109 526.194 300.949 525.78 300.629C525.366 300.306 525.05 299.839 524.831 299.227C524.612 298.612 524.503 297.87 524.503 297C524.503 296.135 524.612 295.397 524.831 294.785C525.052 294.171 525.37 293.702 525.784 293.379C526.201 293.053 526.701 292.891 527.284 292.891C527.868 292.891 528.366 293.053 528.78 293.379C529.197 293.702 529.515 294.171 529.733 294.785C529.955 295.397 530.065 296.135 530.065 297C530.065 297.87 529.956 298.612 529.737 299.227C529.519 299.839 529.202 300.306 528.788 300.629C528.374 300.949 527.873 301.109 527.284 301.109ZM527.284 300.25C527.868 300.25 528.321 299.969 528.644 299.406C528.966 298.844 529.128 298.042 529.128 297C529.128 296.307 529.054 295.717 528.905 295.23C528.759 294.743 528.549 294.372 528.272 294.117C527.999 293.862 527.67 293.734 527.284 293.734C526.706 293.734 526.254 294.02 525.929 294.59C525.603 295.158 525.44 295.961 525.44 297C525.44 297.693 525.513 298.281 525.659 298.766C525.805 299.25 526.015 299.618 526.288 299.871C526.564 300.124 526.896 300.25 527.284 300.25ZM534.159 301.109C533.571 301.109 533.069 300.949 532.655 300.629C532.241 300.306 531.925 299.839 531.706 299.227C531.487 298.612 531.378 297.87 531.378 297C531.378 296.135 531.487 295.397 531.706 294.785C531.927 294.171 532.245 293.702 532.659 293.379C533.076 293.053 533.576 292.891 534.159 292.891C534.743 292.891 535.241 293.053 535.655 293.379C536.072 293.702 536.39 294.171 536.608 294.785C536.83 295.397 536.94 296.135 536.94 297C536.94 297.87 536.831 298.612 536.612 299.227C536.394 299.839 536.077 300.306 535.663 300.629C535.249 300.949 534.748 301.109 534.159 301.109ZM534.159 300.25C534.743 300.25 535.196 299.969 535.519 299.406C535.841 298.844 536.003 298.042 536.003 297C536.003 296.307 535.929 295.717 535.78 295.23C535.634 294.743 535.424 294.372 535.147 294.117C534.874 293.862 534.545 293.734 534.159 293.734C533.581 293.734 533.129 294.02 532.804 294.59C532.478 295.158 532.315 295.961 532.315 297C532.315 297.693 532.388 298.281 532.534 298.766C532.68 299.25 532.89 299.618 533.163 299.871C533.439 300.124 533.771 300.25 534.159 300.25ZM541.034 301.109C540.446 301.109 539.944 300.949 539.53 300.629C539.116 300.306 538.8 299.839 538.581 299.227C538.362 298.612 538.253 297.87 538.253 297C538.253 296.135 538.362 295.397 538.581 294.785C538.802 294.171 539.12 293.702 539.534 293.379C539.951 293.053 540.451 292.891 541.034 292.891C541.618 292.891 542.116 293.053 542.53 293.379C542.947 293.702 543.265 294.171 543.483 294.785C543.705 295.397 543.815 296.135 543.815 297C543.815 297.87 543.706 298.612 543.487 299.227C543.269 299.839 542.952 300.306 542.538 300.629C542.124 300.949 541.623 301.109 541.034 301.109ZM541.034 300.25C541.618 300.25 542.071 299.969 542.394 299.406C542.716 298.844 542.878 298.042 542.878 297C542.878 296.307 542.804 295.717 542.655 295.23C542.509 294.743 542.299 294.372 542.022 294.117C541.749 293.862 541.42 293.734 541.034 293.734C540.456 293.734 540.004 294.02 539.679 294.59C539.353 295.158 539.19 295.961 539.19 297C539.19 297.693 539.263 298.281 539.409 298.766C539.555 299.25 539.765 299.618 540.038 299.871C540.314 300.124 540.646 300.25 541.034 300.25Z" fill="white"/>
<path d="M508.095 411.326V410.529L511.61 404.967H512.188V406.201H511.798L509.142 410.404V410.467H513.876V411.326H508.095ZM511.86 412.967V411.084V410.713V404.967H512.782V412.967H511.86ZM518.043 413.076C517.527 413.076 517.068 412.988 516.664 412.811C516.263 412.633 515.944 412.387 515.707 412.072C515.473 411.755 515.345 411.386 515.324 410.967H516.309C516.329 411.225 516.418 411.447 516.574 411.635C516.73 411.82 516.935 411.963 517.188 412.064C517.44 412.166 517.72 412.217 518.027 412.217C518.371 412.217 518.676 412.157 518.941 412.037C519.207 411.917 519.415 411.751 519.566 411.537C519.717 411.324 519.793 411.076 519.793 410.795C519.793 410.501 519.72 410.242 519.574 410.018C519.428 409.791 519.215 409.614 518.934 409.486C518.652 409.359 518.309 409.295 517.902 409.295H517.262V408.436H517.902C518.22 408.436 518.499 408.378 518.738 408.264C518.98 408.149 519.169 407.988 519.305 407.779C519.443 407.571 519.512 407.326 519.512 407.045C519.512 406.774 519.452 406.538 519.332 406.338C519.212 406.137 519.043 405.981 518.824 405.869C518.608 405.757 518.353 405.701 518.059 405.701C517.783 405.701 517.522 405.752 517.277 405.854C517.035 405.952 516.837 406.097 516.684 406.287C516.53 406.475 516.447 406.701 516.434 406.967H515.496C515.512 406.548 515.638 406.18 515.875 405.865C516.112 405.548 516.422 405.3 516.805 405.123C517.19 404.946 517.613 404.857 518.074 404.857C518.569 404.857 518.993 404.958 519.348 405.158C519.702 405.356 519.974 405.618 520.164 405.943C520.354 406.269 520.449 406.62 520.449 406.998C520.449 407.449 520.331 407.833 520.094 408.15C519.859 408.468 519.54 408.688 519.137 408.811V408.873C519.642 408.956 520.036 409.171 520.32 409.518C520.604 409.861 520.746 410.287 520.746 410.795C520.746 411.23 520.628 411.62 520.391 411.967C520.156 412.311 519.836 412.581 519.43 412.779C519.023 412.977 518.561 413.076 518.043 413.076ZM522.784 413.029C522.591 413.029 522.426 412.96 522.288 412.822C522.15 412.684 522.081 412.519 522.081 412.326C522.081 412.133 522.15 411.968 522.288 411.83C522.426 411.692 522.591 411.623 522.784 411.623C522.977 411.623 523.142 411.692 523.28 411.83C523.418 411.968 523.487 412.133 523.487 412.326C523.487 412.454 523.455 412.571 523.39 412.678C523.327 412.785 523.243 412.87 523.136 412.936C523.032 412.998 522.914 413.029 522.784 413.029ZM527.456 413.076C526.868 413.076 526.366 412.916 525.952 412.596C525.538 412.273 525.222 411.805 525.003 411.193C524.784 410.579 524.675 409.837 524.675 408.967C524.675 408.102 524.784 407.364 525.003 406.752C525.224 406.137 525.542 405.669 525.956 405.346C526.373 405.02 526.873 404.857 527.456 404.857C528.039 404.857 528.538 405.02 528.952 405.346C529.369 405.669 529.687 406.137 529.905 406.752C530.127 407.364 530.237 408.102 530.237 408.967C530.237 409.837 530.128 410.579 529.909 411.193C529.69 411.805 529.374 412.273 528.96 412.596C528.546 412.916 528.045 413.076 527.456 413.076ZM527.456 412.217C528.039 412.217 528.493 411.936 528.815 411.373C529.138 410.811 529.3 410.008 529.3 408.967C529.3 408.274 529.226 407.684 529.077 407.197C528.931 406.71 528.72 406.339 528.444 406.084C528.171 405.829 527.841 405.701 527.456 405.701C526.878 405.701 526.426 405.986 526.101 406.557C525.775 407.124 525.612 407.928 525.612 408.967C525.612 409.66 525.685 410.248 525.831 410.732C525.977 411.217 526.187 411.585 526.46 411.838C526.736 412.09 527.068 412.217 527.456 412.217ZM534.331 413.076C533.743 413.076 533.241 412.916 532.827 412.596C532.413 412.273 532.097 411.805 531.878 411.193C531.659 410.579 531.55 409.837 531.55 408.967C531.55 408.102 531.659 407.364 531.878 406.752C532.099 406.137 532.417 405.669 532.831 405.346C533.248 405.02 533.748 404.857 534.331 404.857C534.914 404.857 535.413 405.02 535.827 405.346C536.244 405.669 536.562 406.137 536.78 406.752C537.002 407.364 537.112 408.102 537.112 408.967C537.112 409.837 537.003 410.579 536.784 411.193C536.565 411.805 536.249 412.273 535.835 412.596C535.421 412.916 534.92 413.076 534.331 413.076ZM534.331 412.217C534.914 412.217 535.368 411.936 535.69 411.373C536.013 410.811 536.175 410.008 536.175 408.967C536.175 408.274 536.101 407.684 535.952 407.197C535.806 406.71 535.595 406.339 535.319 406.084C535.046 405.829 534.716 405.701 534.331 405.701C533.753 405.701 533.301 405.986 532.976 406.557C532.65 407.124 532.487 407.928 532.487 408.967C532.487 409.66 532.56 410.248 532.706 410.732C532.852 411.217 533.062 411.585 533.335 411.838C533.611 412.09 533.943 412.217 534.331 412.217ZM541.206 413.076C540.618 413.076 540.116 412.916 539.702 412.596C539.288 412.273 538.972 411.805 538.753 411.193C538.534 410.579 538.425 409.837 538.425 408.967C538.425 408.102 538.534 407.364 538.753 406.752C538.974 406.137 539.292 405.669 539.706 405.346C540.123 405.02 540.623 404.857 541.206 404.857C541.789 404.857 542.288 405.02 542.702 405.346C543.119 405.669 543.437 406.137 543.655 406.752C543.877 407.364 543.987 408.102 543.987 408.967C543.987 409.837 543.878 410.579 543.659 411.193C543.44 411.805 543.124 412.273 542.71 412.596C542.296 412.916 541.795 413.076 541.206 413.076ZM541.206 412.217C541.789 412.217 542.243 411.936 542.565 411.373C542.888 410.811 543.05 410.008 543.05 408.967C543.05 408.274 542.976 407.684 542.827 407.197C542.681 406.71 542.47 406.339 542.194 406.084C541.921 405.829 541.591 405.701 541.206 405.701C540.628 405.701 540.176 405.986 539.851 406.557C539.525 407.124 539.362 407.928 539.362 408.967C539.362 409.66 539.435 410.248 539.581 410.732C539.727 411.217 539.937 411.585 540.21 411.838C540.486 412.09 540.818 412.217 541.206 412.217Z" fill="white"/>
<path d="M508.095 448.83V448.033L511.61 442.47H512.188V443.705H511.798L509.142 447.908V447.97H513.876V448.83H508.095ZM511.86 450.47V448.587V448.216V442.47H512.782V450.47H511.86ZM518.045 442.47V450.47H517.076V443.486H517.029L515.076 444.783V443.798L517.076 442.47H518.045ZM520.561 450.533C520.368 450.533 520.202 450.464 520.064 450.326C519.926 450.188 519.857 450.022 519.857 449.83C519.857 449.637 519.926 449.472 520.064 449.333C520.202 449.195 520.368 449.126 520.561 449.126C520.753 449.126 520.919 449.195 521.057 449.333C521.195 449.472 521.264 449.637 521.264 449.83C521.264 449.957 521.231 450.074 521.166 450.181C521.104 450.288 521.019 450.374 520.912 450.439C520.808 450.501 520.691 450.533 520.561 450.533ZM525.232 450.58C524.644 450.58 524.143 450.419 523.729 450.099C523.314 449.776 522.998 449.309 522.779 448.697C522.561 448.082 522.451 447.34 522.451 446.47C522.451 445.606 522.561 444.867 522.779 444.255C523.001 443.641 523.318 443.172 523.732 442.849C524.149 442.524 524.649 442.361 525.232 442.361C525.816 442.361 526.314 442.524 526.729 442.849C527.145 443.172 527.463 443.641 527.682 444.255C527.903 444.867 528.014 445.606 528.014 446.47C528.014 447.34 527.904 448.082 527.686 448.697C527.467 449.309 527.15 449.776 526.736 450.099C526.322 450.419 525.821 450.58 525.232 450.58ZM525.232 449.72C525.816 449.72 526.269 449.439 526.592 448.876C526.915 448.314 527.076 447.512 527.076 446.47C527.076 445.778 527.002 445.188 526.854 444.701C526.708 444.214 526.497 443.843 526.221 443.587C525.947 443.332 525.618 443.205 525.232 443.205C524.654 443.205 524.202 443.49 523.877 444.06C523.551 444.628 523.389 445.431 523.389 446.47C523.389 447.163 523.462 447.751 523.607 448.236C523.753 448.72 523.963 449.089 524.236 449.341C524.512 449.594 524.844 449.72 525.232 449.72ZM532.107 450.58C531.519 450.58 531.018 450.419 530.604 450.099C530.189 449.776 529.873 449.309 529.654 448.697C529.436 448.082 529.326 447.34 529.326 446.47C529.326 445.606 529.436 444.867 529.654 444.255C529.876 443.641 530.193 443.172 530.607 442.849C531.024 442.524 531.524 442.361 532.107 442.361C532.691 442.361 533.189 442.524 533.604 442.849C534.02 443.172 534.338 443.641 534.557 444.255C534.778 444.867 534.889 445.606 534.889 446.47C534.889 447.34 534.779 448.082 534.561 448.697C534.342 449.309 534.025 449.776 533.611 450.099C533.197 450.419 532.696 450.58 532.107 450.58ZM532.107 449.72C532.691 449.72 533.144 449.439 533.467 448.876C533.79 448.314 533.951 447.512 533.951 446.47C533.951 445.778 533.877 445.188 533.729 444.701C533.583 444.214 533.372 443.843 533.096 443.587C532.822 443.332 532.493 443.205 532.107 443.205C531.529 443.205 531.077 443.49 530.752 444.06C530.426 444.628 530.264 445.431 530.264 446.47C530.264 447.163 530.337 447.751 530.482 448.236C530.628 448.72 530.838 449.089 531.111 449.341C531.387 449.594 531.719 449.72 532.107 449.72ZM538.982 450.58C538.394 450.58 537.893 450.419 537.479 450.099C537.064 449.776 536.748 449.309 536.529 448.697C536.311 448.082 536.201 447.34 536.201 446.47C536.201 445.606 536.311 444.867 536.529 444.255C536.751 443.641 537.068 443.172 537.482 442.849C537.899 442.524 538.399 442.361 538.982 442.361C539.566 442.361 540.064 442.524 540.479 442.849C540.895 443.172 541.213 443.641 541.432 444.255C541.653 444.867 541.764 445.606 541.764 446.47C541.764 447.34 541.654 448.082 541.436 448.697C541.217 449.309 540.9 449.776 540.486 450.099C540.072 450.419 539.571 450.58 538.982 450.58ZM538.982 449.72C539.566 449.72 540.019 449.439 540.342 448.876C540.665 448.314 540.826 447.512 540.826 446.47C540.826 445.778 540.752 445.188 540.604 444.701C540.458 444.214 540.247 443.843 539.971 443.587C539.697 443.332 539.368 443.205 538.982 443.205C538.404 443.205 537.952 443.49 537.627 444.06C537.301 444.628 537.139 445.431 537.139 446.47C537.139 447.163 537.212 447.751 537.357 448.236C537.503 448.72 537.713 449.089 537.986 449.341C538.262 449.594 538.594 449.72 538.982 449.72Z" fill="white"/>
<defs>
<filter id="filter0_d_86_127" x="179" y="201" width="443" height="339" filterUnits="userSpaceOnUse" color-interpolation-filters="sRGB">
<feFlood flood-opacity="0" result="BackgroundImageFix"/>
<feColorMatrix in="SourceAlpha" type="matrix" values="0 0 0 0 0 0 0 0 0 0 0 0 0 0 0 0 0 0 127 0" result="hardAlpha"/>
<feOffset dy="4"/>
<feGaussianBlur stdDeviation="28"/>
<feComposite in2="hardAlpha" operator="out"/>
<feColorMatrix type="matrix" values="0 0 0 0 0 0 0 0 0 0 0 0 0 0 0 0 0 0 0.17 0"/>
<feBlend mode="normal" in2="BackgroundImageFix" result="effect1_dropShadow_86_127"/>
<feBlend mode="normal" in="SourceGraphic" in2="effect1_dropShadow_86_127" result="shape"/>
</filter>
<linearGradient id="paint0_linear_86_127" x1="262.367" y1="96.7227" x2="261.384" y2="305.429" gradientUnits="userSpaceOnUse">
<stop stop-color="#8481FF" stop-opacity="0.35"/>
<stop offset="1" stop-color="#8481FF" stop-opacity="0"/>
</linearGradient>
<linearGradient id="paint1_linear_86_127" x1="261.295" y1="164.302" x2="262.159" y2="360.018" gradientUnits="userSpaceOnUse">
<stop stop-color="#EC779B" stop-opacity="0.32"/>
<stop offset="1" stop-color="#EC779B" stop-opacity="0"/>
</linearGradient>
<linearGradient id="paint2_linear_86_127" x1="261.295" y1="163.409" x2="261.295" y2="271.32" gradientUnits="userSpaceOnUse">
<stop stop-color="#3EB79C"/>
<stop offset="1" stop-color="#3EB79C"/>
</linearGradient>
</defs>
</svg>
