<svg width="225" height="162" viewBox="0 0 225 162" fill="none" xmlns="http://www.w3.org/2000/svg">
<rect width="225" height="162" rx="9" fill="#21222C"/>
<path d="M52.5138 94.2163C52.4494 94.4848 52.615 94.7547 52.8835 94.819C53.1521 94.8833 53.4219 94.7178 53.4862 94.4492L52.5138 94.2163ZM55.9774 81.9034L56.3128 81.5326L55.6876 80.9671L55.4912 81.787L55.9774 81.9034ZM67.8872 92.6755L67.5518 93.0463L68.2594 93.6864L68.383 92.7403L67.8872 92.6755ZM72.9979 53.5429L73.4879 53.4435L72.5021 53.4782L72.9979 53.5429ZM80.5414 90.7421L80.0513 90.8414L80.4262 92.69L81.0163 90.8985L80.5414 90.7421ZM84.6353 78.3128L85.128 78.2276L84.1604 78.1563L84.6353 78.3128ZM87 92L86.5073 92.0851L86.7664 93.5851L87.4472 92.2236L87 92ZM95.0226 74.7431L95.5056 74.6138L95.1383 73.2414L94.5651 74.5414L95.0226 74.7431ZM103 93.5L102.567 93.7505L102.575 93.7642L102.584 93.7774L103 93.5ZM108 101L107.584 101.277L108.194 102.193L108.483 101.131L108 101ZM113.18 81.9034L113.337 81.4287L112.836 81.263L112.698 81.7725L113.18 81.9034ZM125.113 85.848L125.601 85.7388L125.539 85.4622L125.27 85.3733L125.113 85.848ZM128.5 100.991L128.012 101.1L128.045 101.249L128.156 101.354L128.5 100.991ZM138 110L137.656 110.363L138.323 110.996L138.492 110.091L138 110ZM141.579 90.7421L141.1 90.5983L141.092 90.6241L141.087 90.6507L141.579 90.7421ZM146.383 74.7431L146.864 74.6053L146.395 72.9677L145.905 74.5993L146.383 74.7431ZM152 94.3328L151.519 94.4706L151.924 95.8817L152.465 94.517L152 94.3328ZM157.583 80.2462L158.069 80.1297L157.701 78.5918L157.118 80.062L157.583 80.2462ZM160.56 92.6755L160.074 92.792L161.053 92.7607L160.56 92.6755ZM165.579 63.6382L166.075 63.5719L165.086 63.5531L165.579 63.6382ZM170.981 104L170.486 104.066L170.576 104.741L171.193 104.453L170.981 104ZM184.008 97.9235L184.219 98.3766L184.464 98.2621L184.503 97.9942L184.008 97.9235ZM191.495 49.0707C191.534 48.7974 191.344 48.5441 191.071 48.505C190.797 48.466 190.544 48.6559 190.505 48.9293L191.495 49.0707ZM90.5 85L90.9472 85.2236L90.9526 85.2128L90.9575 85.2017L90.5 85ZM97.5 84L97.017 84.1293L97.0341 84.1932L97.0673 84.2505L97.5 84ZM53.4862 94.4492L56.4637 82.0199L55.4912 81.787L52.5138 94.2163L53.4862 94.4492ZM55.642 82.2743L67.5518 93.0463L68.2226 92.3047L56.3128 81.5326L55.642 82.2743ZM68.383 92.7403L73.4937 53.6077L72.5021 53.4782L67.3914 92.6108L68.383 92.7403ZM72.5079 53.6423L80.0513 90.8414L81.0314 90.6427L73.4879 53.4435L72.5079 53.6423ZM81.0163 90.8985L85.1102 78.4692L84.1604 78.1563L80.0665 90.5856L81.0163 90.8985ZM84.1426 78.3979L86.5073 92.0851L87.4927 91.9149L85.128 78.2276L84.1426 78.3979ZM102.584 93.7774L107.584 101.277L108.416 100.723L103.416 93.2226L102.584 93.7774ZM108.483 101.131L113.663 82.0343L112.698 81.7725L107.517 100.869L108.483 101.131ZM113.024 82.3782L124.956 86.3227L125.27 85.3733L113.337 81.4287L113.024 82.3782ZM124.625 85.9571L128.012 101.1L128.988 100.882L125.601 85.7388L124.625 85.9571ZM128.156 101.354L137.656 110.363L138.344 109.637L128.844 100.628L128.156 101.354ZM138.492 110.091L142.071 90.8334L141.087 90.6507L137.508 109.909L138.492 110.091ZM142.058 90.8859L146.862 74.8869L145.905 74.5993L141.1 90.5983L142.058 90.8859ZM145.903 74.8809L151.519 94.4706L152.481 94.195L146.864 74.6053L145.903 74.8809ZM152.465 94.517L158.048 80.4304L157.118 80.062L151.535 94.1485L152.465 94.517ZM157.096 80.3627L160.074 92.792L161.046 92.559L158.069 80.1297L157.096 80.3627ZM161.053 92.7607L166.072 63.7234L165.086 63.5531L160.067 92.5904L161.053 92.7607ZM165.083 63.7046L170.486 104.066L171.477 103.934L166.075 63.5719L165.083 63.7046ZM171.193 104.453L184.219 98.3766L183.796 97.4703L170.77 103.547L171.193 104.453ZM184.503 97.9942L191.495 49.0707L190.505 48.9293L183.513 97.8527L184.503 97.9942ZM87.4472 92.2236L90.9472 85.2236L90.0528 84.7764L86.5528 91.7764L87.4472 92.2236ZM90.9575 85.2017L95.4801 74.9448L94.5651 74.5414L90.0425 84.7983L90.9575 85.2017ZM94.5396 74.8724L97.017 84.1293L97.983 83.8707L95.5056 74.6138L94.5396 74.8724ZM97.0673 84.2505L102.567 93.7505L103.433 93.2495L97.9327 83.7495L97.0673 84.2505Z" fill="url(#paint0_linear_119_112)"/>
<path d="M46.6743 142.481V143H43.417V142.545L45.0474 140.731C45.2479 140.507 45.4028 140.318 45.5122 140.163C45.6239 140.006 45.7013 139.866 45.7446 139.743C45.7902 139.617 45.813 139.49 45.813 139.36C45.813 139.196 45.7788 139.048 45.7104 138.916C45.6444 138.781 45.5464 138.674 45.4165 138.594C45.2866 138.515 45.1294 138.475 44.9448 138.475C44.7238 138.475 44.5392 138.518 44.3911 138.605C44.2453 138.689 44.1359 138.807 44.063 138.96C43.9901 139.113 43.9536 139.288 43.9536 139.486H43.3213C43.3213 139.206 43.3828 138.95 43.5059 138.717C43.6289 138.485 43.8112 138.3 44.0527 138.164C44.2943 138.025 44.5916 137.955 44.9448 137.955C45.2593 137.955 45.5282 138.011 45.7515 138.123C45.9748 138.232 46.1457 138.387 46.2642 138.587C46.3849 138.786 46.4453 139.018 46.4453 139.285C46.4453 139.431 46.4202 139.579 46.3701 139.729C46.3223 139.877 46.255 140.025 46.1685 140.173C46.0841 140.322 45.985 140.467 45.8711 140.611C45.7594 140.754 45.6398 140.896 45.5122 141.035L44.1792 142.481H46.6743ZM48.7739 140.201H49.2251C49.4461 140.201 49.6284 140.164 49.772 140.091C49.9178 140.016 50.026 139.915 50.0967 139.787C50.1696 139.657 50.2061 139.511 50.2061 139.35C50.2061 139.158 50.1742 138.998 50.1104 138.868C50.0465 138.738 49.9508 138.64 49.8232 138.574C49.6956 138.508 49.5339 138.475 49.3379 138.475C49.1602 138.475 49.0029 138.51 48.8662 138.581C48.7318 138.649 48.6258 138.747 48.5483 138.875C48.4731 139.002 48.4355 139.153 48.4355 139.326H47.8032C47.8032 139.073 47.867 138.843 47.9946 138.635C48.1222 138.428 48.3011 138.263 48.5312 138.14C48.7637 138.017 49.0326 137.955 49.3379 137.955C49.6387 137.955 49.9019 138.009 50.1274 138.116C50.353 138.221 50.5285 138.378 50.6538 138.587C50.7791 138.795 50.8418 139.053 50.8418 139.363C50.8418 139.489 50.8122 139.623 50.7529 139.767C50.696 139.908 50.606 140.04 50.4829 140.163C50.3621 140.286 50.2049 140.388 50.0112 140.467C49.8175 140.545 49.5851 140.584 49.314 140.584H48.7739V140.201ZM48.7739 140.72V140.341H49.314C49.6307 140.341 49.8927 140.378 50.1001 140.454C50.3075 140.529 50.4704 140.629 50.5889 140.754C50.7096 140.88 50.7939 141.018 50.8418 141.168C50.8919 141.316 50.917 141.464 50.917 141.612C50.917 141.845 50.8771 142.051 50.7974 142.231C50.7199 142.411 50.6094 142.564 50.4658 142.689C50.3245 142.814 50.1582 142.909 49.9668 142.973C49.7754 143.037 49.5669 143.068 49.3413 143.068C49.1248 143.068 48.9209 143.038 48.7295 142.976C48.5404 142.915 48.3729 142.826 48.2271 142.71C48.0812 142.591 47.9673 142.446 47.8853 142.275C47.8032 142.102 47.7622 141.905 47.7622 141.684H48.3945C48.3945 141.857 48.4321 142.009 48.5073 142.139C48.5848 142.269 48.6942 142.37 48.8354 142.443C48.979 142.514 49.1476 142.549 49.3413 142.549C49.535 142.549 49.7013 142.516 49.8403 142.45C49.9816 142.381 50.0898 142.279 50.165 142.142C50.2425 142.005 50.2812 141.833 50.2812 141.626C50.2812 141.419 50.238 141.249 50.1514 141.117C50.0648 140.982 49.9417 140.883 49.7822 140.819C49.625 140.753 49.4393 140.72 49.2251 140.72H48.7739ZM52.3296 142.665C52.3296 142.558 52.3626 142.468 52.4287 142.395C52.4971 142.32 52.5951 142.282 52.7227 142.282C52.8503 142.282 52.9471 142.32 53.0132 142.395C53.0815 142.468 53.1157 142.558 53.1157 142.665C53.1157 142.77 53.0815 142.859 53.0132 142.932C52.9471 143.005 52.8503 143.041 52.7227 143.041C52.5951 143.041 52.4971 143.005 52.4287 142.932C52.3626 142.859 52.3296 142.77 52.3296 142.665ZM52.333 139.647C52.333 139.54 52.366 139.45 52.4321 139.377C52.5005 139.302 52.5985 139.264 52.7261 139.264C52.8537 139.264 52.9505 139.302 53.0166 139.377C53.085 139.45 53.1191 139.54 53.1191 139.647C53.1191 139.752 53.085 139.841 53.0166 139.914C52.9505 139.987 52.8537 140.023 52.7261 140.023C52.5985 140.023 52.5005 139.987 52.4321 139.914C52.366 139.841 52.333 139.752 52.333 139.647ZM55.4067 140.201H55.8579C56.0789 140.201 56.2612 140.164 56.4048 140.091C56.5506 140.016 56.6589 139.915 56.7295 139.787C56.8024 139.657 56.8389 139.511 56.8389 139.35C56.8389 139.158 56.807 138.998 56.7432 138.868C56.6794 138.738 56.5837 138.64 56.4561 138.574C56.3285 138.508 56.1667 138.475 55.9707 138.475C55.793 138.475 55.6357 138.51 55.499 138.581C55.3646 138.649 55.2586 138.747 55.1812 138.875C55.106 139.002 55.0684 139.153 55.0684 139.326H54.436C54.436 139.073 54.4998 138.843 54.6274 138.635C54.755 138.428 54.9339 138.263 55.1641 138.14C55.3965 138.017 55.6654 137.955 55.9707 137.955C56.2715 137.955 56.5347 138.009 56.7603 138.116C56.9858 138.221 57.1613 138.378 57.2866 138.587C57.4119 138.795 57.4746 139.053 57.4746 139.363C57.4746 139.489 57.445 139.623 57.3857 139.767C57.3288 139.908 57.2388 140.04 57.1157 140.163C56.995 140.286 56.8377 140.388 56.644 140.467C56.4504 140.545 56.2179 140.584 55.9468 140.584H55.4067V140.201ZM55.4067 140.72V140.341H55.9468C56.2635 140.341 56.5256 140.378 56.7329 140.454C56.9403 140.529 57.1032 140.629 57.2217 140.754C57.3424 140.88 57.4268 141.018 57.4746 141.168C57.5247 141.316 57.5498 141.464 57.5498 141.612C57.5498 141.845 57.5099 142.051 57.4302 142.231C57.3527 142.411 57.2422 142.564 57.0986 142.689C56.9574 142.814 56.791 142.909 56.5996 142.973C56.4082 143.037 56.1997 143.068 55.9741 143.068C55.7576 143.068 55.5537 143.038 55.3623 142.976C55.1732 142.915 55.0057 142.826 54.8599 142.71C54.714 142.591 54.6001 142.446 54.5181 142.275C54.436 142.102 54.395 141.905 54.395 141.684H55.0273C55.0273 141.857 55.0649 142.009 55.1401 142.139C55.2176 142.269 55.327 142.37 55.4683 142.443C55.6118 142.514 55.7804 142.549 55.9741 142.549C56.1678 142.549 56.3341 142.516 56.4731 142.45C56.6144 142.381 56.7227 142.279 56.7979 142.142C56.8753 142.005 56.9141 141.833 56.9141 141.626C56.9141 141.419 56.8708 141.249 56.7842 141.117C56.6976 140.982 56.5745 140.883 56.415 140.819C56.2578 140.753 56.0721 140.72 55.8579 140.72H55.4067ZM62.0454 140.115V140.874C62.0454 141.282 62.009 141.626 61.936 141.906C61.8631 142.187 61.7583 142.412 61.6216 142.583C61.4849 142.754 61.3197 142.878 61.126 142.956C60.9346 143.031 60.7181 143.068 60.4766 143.068C60.2852 143.068 60.1086 143.044 59.9468 142.997C59.785 142.949 59.6392 142.872 59.5093 142.768C59.3817 142.661 59.2723 142.522 59.1812 142.351C59.09 142.18 59.0205 141.972 58.9727 141.729C58.9248 141.485 58.9009 141.2 58.9009 140.874V140.115C58.9009 139.707 58.9373 139.366 59.0103 139.09C59.0854 138.814 59.1914 138.593 59.3281 138.427C59.4648 138.258 59.6289 138.137 59.8203 138.065C60.014 137.992 60.2305 137.955 60.4697 137.955C60.6634 137.955 60.8411 137.979 61.0029 138.027C61.167 138.072 61.3128 138.147 61.4404 138.249C61.568 138.349 61.6763 138.484 61.7651 138.652C61.8563 138.819 61.9258 139.023 61.9736 139.264C62.0215 139.506 62.0454 139.789 62.0454 140.115ZM61.4097 140.977V140.009C61.4097 139.786 61.396 139.59 61.3687 139.421C61.3436 139.251 61.306 139.105 61.2559 138.984C61.2057 138.863 61.1419 138.765 61.0645 138.69C60.9893 138.615 60.9015 138.56 60.8013 138.526C60.7033 138.489 60.5928 138.471 60.4697 138.471C60.3193 138.471 60.186 138.5 60.0698 138.557C59.9536 138.611 59.8556 138.699 59.7759 138.82C59.6984 138.941 59.6392 139.099 59.5981 139.295C59.5571 139.491 59.5366 139.729 59.5366 140.009V140.977C59.5366 141.2 59.5492 141.397 59.5742 141.568C59.6016 141.739 59.6414 141.887 59.6938 142.012C59.7463 142.135 59.8101 142.237 59.8853 142.316C59.9604 142.396 60.047 142.455 60.145 142.494C60.2453 142.531 60.3558 142.549 60.4766 142.549C60.6315 142.549 60.7671 142.519 60.8833 142.46C60.9995 142.401 61.0964 142.308 61.1738 142.183C61.2536 142.056 61.3128 141.893 61.3516 141.694C61.3903 141.494 61.4097 141.255 61.4097 140.977Z" fill="white"/>
<path d="M92.6743 142.481V143H89.417V142.545L91.0474 140.731C91.2479 140.507 91.4028 140.318 91.5122 140.163C91.6239 140.006 91.7013 139.866 91.7446 139.743C91.7902 139.617 91.813 139.49 91.813 139.36C91.813 139.196 91.7788 139.048 91.7104 138.916C91.6444 138.781 91.5464 138.674 91.4165 138.594C91.2866 138.515 91.1294 138.475 90.9448 138.475C90.7238 138.475 90.5392 138.518 90.3911 138.605C90.2453 138.689 90.1359 138.807 90.063 138.96C89.9901 139.113 89.9536 139.288 89.9536 139.486H89.3213C89.3213 139.206 89.3828 138.95 89.5059 138.717C89.6289 138.485 89.8112 138.3 90.0527 138.164C90.2943 138.025 90.5916 137.955 90.9448 137.955C91.2593 137.955 91.5282 138.011 91.7515 138.123C91.9748 138.232 92.1457 138.387 92.2642 138.587C92.3849 138.786 92.4453 139.018 92.4453 139.285C92.4453 139.431 92.4202 139.579 92.3701 139.729C92.3223 139.877 92.255 140.025 92.1685 140.173C92.0841 140.322 91.985 140.467 91.8711 140.611C91.7594 140.754 91.6398 140.896 91.5122 141.035L90.1792 142.481H92.6743ZM94.7739 140.201H95.2251C95.4461 140.201 95.6284 140.164 95.772 140.091C95.9178 140.016 96.026 139.915 96.0967 139.787C96.1696 139.657 96.2061 139.511 96.2061 139.35C96.2061 139.158 96.1742 138.998 96.1104 138.868C96.0465 138.738 95.9508 138.64 95.8232 138.574C95.6956 138.508 95.5339 138.475 95.3379 138.475C95.1602 138.475 95.0029 138.51 94.8662 138.581C94.7318 138.649 94.6258 138.747 94.5483 138.875C94.4731 139.002 94.4355 139.153 94.4355 139.326H93.8032C93.8032 139.073 93.867 138.843 93.9946 138.635C94.1222 138.428 94.3011 138.263 94.5312 138.14C94.7637 138.017 95.0326 137.955 95.3379 137.955C95.6387 137.955 95.9019 138.009 96.1274 138.116C96.353 138.221 96.5285 138.378 96.6538 138.587C96.7791 138.795 96.8418 139.053 96.8418 139.363C96.8418 139.489 96.8122 139.623 96.7529 139.767C96.696 139.908 96.606 140.04 96.4829 140.163C96.3621 140.286 96.2049 140.388 96.0112 140.467C95.8175 140.545 95.5851 140.584 95.314 140.584H94.7739V140.201ZM94.7739 140.72V140.341H95.314C95.6307 140.341 95.8927 140.378 96.1001 140.454C96.3075 140.529 96.4704 140.629 96.5889 140.754C96.7096 140.88 96.7939 141.018 96.8418 141.168C96.8919 141.316 96.917 141.464 96.917 141.612C96.917 141.845 96.8771 142.051 96.7974 142.231C96.7199 142.411 96.6094 142.564 96.4658 142.689C96.3245 142.814 96.1582 142.909 95.9668 142.973C95.7754 143.037 95.5669 143.068 95.3413 143.068C95.1248 143.068 94.9209 143.038 94.7295 142.976C94.5404 142.915 94.3729 142.826 94.2271 142.71C94.0812 142.591 93.9673 142.446 93.8853 142.275C93.8032 142.102 93.7622 141.905 93.7622 141.684H94.3945C94.3945 141.857 94.4321 142.009 94.5073 142.139C94.5848 142.269 94.6942 142.37 94.8354 142.443C94.979 142.514 95.1476 142.549 95.3413 142.549C95.535 142.549 95.7013 142.516 95.8403 142.45C95.9816 142.381 96.0898 142.279 96.165 142.142C96.2425 142.005 96.2812 141.833 96.2812 141.626C96.2812 141.419 96.238 141.249 96.1514 141.117C96.0648 140.982 95.9417 140.883 95.7822 140.819C95.625 140.753 95.4393 140.72 95.2251 140.72H94.7739ZM98.3296 142.665C98.3296 142.558 98.3626 142.468 98.4287 142.395C98.4971 142.32 98.5951 142.282 98.7227 142.282C98.8503 142.282 98.9471 142.32 99.0132 142.395C99.0815 142.468 99.1157 142.558 99.1157 142.665C99.1157 142.77 99.0815 142.859 99.0132 142.932C98.9471 143.005 98.8503 143.041 98.7227 143.041C98.5951 143.041 98.4971 143.005 98.4287 142.932C98.3626 142.859 98.3296 142.77 98.3296 142.665ZM98.333 139.647C98.333 139.54 98.366 139.45 98.4321 139.377C98.5005 139.302 98.5985 139.264 98.7261 139.264C98.8537 139.264 98.9505 139.302 99.0166 139.377C99.085 139.45 99.1191 139.54 99.1191 139.647C99.1191 139.752 99.085 139.841 99.0166 139.914C98.9505 139.987 98.8537 140.023 98.7261 140.023C98.5985 140.023 98.5005 139.987 98.4321 139.914C98.366 139.841 98.333 139.752 98.333 139.647ZM103.847 141.325V141.845H100.251V141.472L102.48 138.023H102.996L102.442 139.022L100.969 141.325H103.847ZM103.153 138.023V143H102.521V138.023H103.153ZM105.721 140.631L105.215 140.502L105.465 138.023H108.018V138.608H106.001L105.851 139.961C105.942 139.909 106.057 139.86 106.196 139.815C106.338 139.769 106.499 139.746 106.682 139.746C106.912 139.746 107.118 139.786 107.3 139.866C107.483 139.943 107.638 140.055 107.765 140.201C107.895 140.347 107.994 140.522 108.062 140.727C108.131 140.932 108.165 141.161 108.165 141.414C108.165 141.653 108.132 141.873 108.066 142.074C108.002 142.274 107.905 142.45 107.775 142.6C107.646 142.748 107.481 142.863 107.283 142.945C107.087 143.027 106.856 143.068 106.589 143.068C106.389 143.068 106.199 143.041 106.019 142.986C105.841 142.929 105.681 142.844 105.54 142.73C105.401 142.614 105.287 142.47 105.198 142.299C105.112 142.126 105.057 141.923 105.034 141.691H105.636C105.663 141.878 105.718 142.035 105.8 142.163C105.882 142.29 105.989 142.387 106.121 142.453C106.256 142.517 106.412 142.549 106.589 142.549C106.74 142.549 106.873 142.523 106.989 142.47C107.105 142.418 107.203 142.343 107.283 142.245C107.363 142.147 107.423 142.028 107.464 141.889C107.508 141.75 107.529 141.594 107.529 141.421C107.529 141.264 107.508 141.118 107.464 140.983C107.421 140.849 107.356 140.732 107.27 140.631C107.185 140.531 107.082 140.454 106.958 140.399C106.835 140.342 106.694 140.314 106.535 140.314C106.323 140.314 106.162 140.342 106.053 140.399C105.946 140.456 105.835 140.533 105.721 140.631Z" fill="white"/>
<path d="M138.538 140.115V140.874C138.538 141.282 138.501 141.626 138.428 141.906C138.355 142.187 138.25 142.412 138.114 142.583C137.977 142.754 137.812 142.878 137.618 142.956C137.427 143.031 137.21 143.068 136.969 143.068C136.777 143.068 136.601 143.044 136.439 142.997C136.277 142.949 136.131 142.872 136.001 142.768C135.874 142.661 135.764 142.522 135.673 142.351C135.582 142.18 135.513 141.972 135.465 141.729C135.417 141.485 135.393 141.2 135.393 140.874V140.115C135.393 139.707 135.43 139.366 135.502 139.09C135.578 138.814 135.684 138.593 135.82 138.427C135.957 138.258 136.121 138.137 136.312 138.065C136.506 137.992 136.723 137.955 136.962 137.955C137.156 137.955 137.333 137.979 137.495 138.027C137.659 138.072 137.805 138.147 137.933 138.249C138.06 138.349 138.168 138.484 138.257 138.652C138.348 138.819 138.418 139.023 138.466 139.264C138.514 139.506 138.538 139.789 138.538 140.115ZM137.902 140.977V140.009C137.902 139.786 137.888 139.59 137.861 139.421C137.836 139.251 137.798 139.105 137.748 138.984C137.698 138.863 137.634 138.765 137.557 138.69C137.481 138.615 137.394 138.56 137.293 138.526C137.195 138.489 137.085 138.471 136.962 138.471C136.812 138.471 136.678 138.5 136.562 138.557C136.446 138.611 136.348 138.699 136.268 138.82C136.191 138.941 136.131 139.099 136.09 139.295C136.049 139.491 136.029 139.729 136.029 140.009V140.977C136.029 141.2 136.041 141.397 136.066 141.568C136.094 141.739 136.134 141.887 136.186 142.012C136.238 142.135 136.302 142.237 136.377 142.316C136.453 142.396 136.539 142.455 136.637 142.494C136.737 142.531 136.848 142.549 136.969 142.549C137.124 142.549 137.259 142.519 137.375 142.46C137.492 142.401 137.589 142.308 137.666 142.183C137.746 142.056 137.805 141.893 137.844 141.694C137.882 141.494 137.902 141.255 137.902 140.977ZM142.975 140.115V140.874C142.975 141.282 142.939 141.626 142.866 141.906C142.793 142.187 142.688 142.412 142.551 142.583C142.415 142.754 142.249 142.878 142.056 142.956C141.864 143.031 141.648 143.068 141.406 143.068C141.215 143.068 141.038 143.044 140.876 142.997C140.715 142.949 140.569 142.872 140.439 142.768C140.311 142.661 140.202 142.522 140.111 142.351C140.02 142.18 139.95 141.972 139.902 141.729C139.854 141.485 139.831 141.2 139.831 140.874V140.115C139.831 139.707 139.867 139.366 139.94 139.09C140.015 138.814 140.121 138.593 140.258 138.427C140.395 138.258 140.559 138.137 140.75 138.065C140.944 137.992 141.16 137.955 141.399 137.955C141.593 137.955 141.771 137.979 141.933 138.027C142.097 138.072 142.243 138.147 142.37 138.249C142.498 138.349 142.606 138.484 142.695 138.652C142.786 138.819 142.855 139.023 142.903 139.264C142.951 139.506 142.975 139.789 142.975 140.115ZM142.339 140.977V140.009C142.339 139.786 142.326 139.59 142.298 139.421C142.273 139.251 142.236 139.105 142.186 138.984C142.135 138.863 142.072 138.765 141.994 138.69C141.919 138.615 141.831 138.56 141.731 138.526C141.633 138.489 141.522 138.471 141.399 138.471C141.249 138.471 141.116 138.5 141 138.557C140.883 138.611 140.785 138.699 140.706 138.82C140.628 138.941 140.569 139.099 140.528 139.295C140.487 139.491 140.466 139.729 140.466 140.009V140.977C140.466 141.2 140.479 141.397 140.504 141.568C140.531 141.739 140.571 141.887 140.624 142.012C140.676 142.135 140.74 142.237 140.815 142.316C140.89 142.396 140.977 142.455 141.075 142.494C141.175 142.531 141.285 142.549 141.406 142.549C141.561 142.549 141.697 142.519 141.813 142.46C141.929 142.401 142.026 142.308 142.104 142.183C142.183 142.056 142.243 141.893 142.281 141.694C142.32 141.494 142.339 141.255 142.339 140.977ZM144.33 142.665C144.33 142.558 144.363 142.468 144.429 142.395C144.497 142.32 144.595 142.282 144.723 142.282C144.85 142.282 144.947 142.32 145.013 142.395C145.082 142.468 145.116 142.558 145.116 142.665C145.116 142.77 145.082 142.859 145.013 142.932C144.947 143.005 144.85 143.041 144.723 143.041C144.595 143.041 144.497 143.005 144.429 142.932C144.363 142.859 144.33 142.77 144.33 142.665ZM144.333 139.647C144.333 139.54 144.366 139.45 144.432 139.377C144.5 139.302 144.598 139.264 144.726 139.264C144.854 139.264 144.951 139.302 145.017 139.377C145.085 139.45 145.119 139.54 145.119 139.647C145.119 139.752 145.085 139.841 145.017 139.914C144.951 139.987 144.854 140.023 144.726 140.023C144.598 140.023 144.5 139.987 144.432 139.914C144.366 139.841 144.333 139.752 144.333 139.647ZM149.608 140.115V140.874C149.608 141.282 149.571 141.626 149.499 141.906C149.426 142.187 149.321 142.412 149.184 142.583C149.047 142.754 148.882 142.878 148.688 142.956C148.497 143.031 148.281 143.068 148.039 143.068C147.848 143.068 147.671 143.044 147.509 142.997C147.347 142.949 147.202 142.872 147.072 142.768C146.944 142.661 146.835 142.522 146.744 142.351C146.653 142.18 146.583 141.972 146.535 141.729C146.487 141.485 146.463 141.2 146.463 140.874V140.115C146.463 139.707 146.5 139.366 146.573 139.09C146.648 138.814 146.754 138.593 146.891 138.427C147.027 138.258 147.191 138.137 147.383 138.065C147.576 137.992 147.793 137.955 148.032 137.955C148.226 137.955 148.404 137.979 148.565 138.027C148.729 138.072 148.875 138.147 149.003 138.249C149.131 138.349 149.239 138.484 149.328 138.652C149.419 138.819 149.488 139.023 149.536 139.264C149.584 139.506 149.608 139.789 149.608 140.115ZM148.972 140.977V140.009C148.972 139.786 148.958 139.59 148.931 139.421C148.906 139.251 148.868 139.105 148.818 138.984C148.768 138.863 148.704 138.765 148.627 138.69C148.552 138.615 148.464 138.56 148.364 138.526C148.266 138.489 148.155 138.471 148.032 138.471C147.882 138.471 147.749 138.5 147.632 138.557C147.516 138.611 147.418 138.699 147.338 138.82C147.261 138.941 147.202 139.099 147.161 139.295C147.12 139.491 147.099 139.729 147.099 140.009V140.977C147.099 141.2 147.112 141.397 147.137 141.568C147.164 141.739 147.204 141.887 147.256 142.012C147.309 142.135 147.373 142.237 147.448 142.316C147.523 142.396 147.61 142.455 147.708 142.494C147.808 142.531 147.918 142.549 148.039 142.549C148.194 142.549 148.33 142.519 148.446 142.46C148.562 142.401 148.659 142.308 148.736 142.183C148.816 142.056 148.875 141.893 148.914 141.694C148.953 141.494 148.972 141.255 148.972 140.977ZM154.045 140.115V140.874C154.045 141.282 154.009 141.626 153.936 141.906C153.863 142.187 153.758 142.412 153.622 142.583C153.485 142.754 153.32 142.878 153.126 142.956C152.935 143.031 152.718 143.068 152.477 143.068C152.285 143.068 152.109 143.044 151.947 142.997C151.785 142.949 151.639 142.872 151.509 142.768C151.382 142.661 151.272 142.522 151.181 142.351C151.09 142.18 151.021 141.972 150.973 141.729C150.925 141.485 150.901 141.2 150.901 140.874V140.115C150.901 139.707 150.937 139.366 151.01 139.09C151.085 138.814 151.191 138.593 151.328 138.427C151.465 138.258 151.629 138.137 151.82 138.065C152.014 137.992 152.23 137.955 152.47 137.955C152.663 137.955 152.841 137.979 153.003 138.027C153.167 138.072 153.313 138.147 153.44 138.249C153.568 138.349 153.676 138.484 153.765 138.652C153.856 138.819 153.926 139.023 153.974 139.264C154.021 139.506 154.045 139.789 154.045 140.115ZM153.41 140.977V140.009C153.41 139.786 153.396 139.59 153.369 139.421C153.344 139.251 153.306 139.105 153.256 138.984C153.206 138.863 153.142 138.765 153.064 138.69C152.989 138.615 152.902 138.56 152.801 138.526C152.703 138.489 152.593 138.471 152.47 138.471C152.319 138.471 152.186 138.5 152.07 138.557C151.954 138.611 151.856 138.699 151.776 138.82C151.698 138.941 151.639 139.099 151.598 139.295C151.557 139.491 151.537 139.729 151.537 140.009V140.977C151.537 141.2 151.549 141.397 151.574 141.568C151.602 141.739 151.641 141.887 151.694 142.012C151.746 142.135 151.81 142.237 151.885 142.316C151.96 142.396 152.047 142.455 152.145 142.494C152.245 142.531 152.356 142.549 152.477 142.549C152.632 142.549 152.767 142.519 152.883 142.46C153 142.401 153.096 142.308 153.174 142.183C153.254 142.056 153.313 141.893 153.352 141.694C153.39 141.494 153.41 141.255 153.41 140.977Z" fill="white"/>
<path d="M184.538 140.115V140.874C184.538 141.282 184.501 141.626 184.428 141.906C184.355 142.187 184.25 142.412 184.114 142.583C183.977 142.754 183.812 142.878 183.618 142.956C183.427 143.031 183.21 143.068 182.969 143.068C182.777 143.068 182.601 143.044 182.439 142.997C182.277 142.949 182.131 142.872 182.001 142.768C181.874 142.661 181.764 142.522 181.673 142.351C181.582 142.18 181.513 141.972 181.465 141.729C181.417 141.485 181.393 141.2 181.393 140.874V140.115C181.393 139.707 181.43 139.366 181.502 139.09C181.578 138.814 181.684 138.593 181.82 138.427C181.957 138.258 182.121 138.137 182.312 138.065C182.506 137.992 182.723 137.955 182.962 137.955C183.156 137.955 183.333 137.979 183.495 138.027C183.659 138.072 183.805 138.147 183.933 138.249C184.06 138.349 184.168 138.484 184.257 138.652C184.348 138.819 184.418 139.023 184.466 139.264C184.514 139.506 184.538 139.789 184.538 140.115ZM183.902 140.977V140.009C183.902 139.786 183.888 139.59 183.861 139.421C183.836 139.251 183.798 139.105 183.748 138.984C183.698 138.863 183.634 138.765 183.557 138.69C183.481 138.615 183.394 138.56 183.293 138.526C183.195 138.489 183.085 138.471 182.962 138.471C182.812 138.471 182.678 138.5 182.562 138.557C182.446 138.611 182.348 138.699 182.268 138.82C182.191 138.941 182.131 139.099 182.09 139.295C182.049 139.491 182.029 139.729 182.029 140.009V140.977C182.029 141.2 182.041 141.397 182.066 141.568C182.094 141.739 182.134 141.887 182.186 142.012C182.238 142.135 182.302 142.237 182.377 142.316C182.453 142.396 182.539 142.455 182.637 142.494C182.737 142.531 182.848 142.549 182.969 142.549C183.124 142.549 183.259 142.519 183.375 142.46C183.492 142.401 183.589 142.308 183.666 142.183C183.746 142.056 183.805 141.893 183.844 141.694C183.882 141.494 183.902 141.255 183.902 140.977ZM188.975 140.115V140.874C188.975 141.282 188.939 141.626 188.866 141.906C188.793 142.187 188.688 142.412 188.551 142.583C188.415 142.754 188.249 142.878 188.056 142.956C187.864 143.031 187.648 143.068 187.406 143.068C187.215 143.068 187.038 143.044 186.876 142.997C186.715 142.949 186.569 142.872 186.439 142.768C186.311 142.661 186.202 142.522 186.111 142.351C186.02 142.18 185.95 141.972 185.902 141.729C185.854 141.485 185.831 141.2 185.831 140.874V140.115C185.831 139.707 185.867 139.366 185.94 139.09C186.015 138.814 186.121 138.593 186.258 138.427C186.395 138.258 186.559 138.137 186.75 138.065C186.944 137.992 187.16 137.955 187.399 137.955C187.593 137.955 187.771 137.979 187.933 138.027C188.097 138.072 188.243 138.147 188.37 138.249C188.498 138.349 188.606 138.484 188.695 138.652C188.786 138.819 188.855 139.023 188.903 139.264C188.951 139.506 188.975 139.789 188.975 140.115ZM188.339 140.977V140.009C188.339 139.786 188.326 139.59 188.298 139.421C188.273 139.251 188.236 139.105 188.186 138.984C188.135 138.863 188.072 138.765 187.994 138.69C187.919 138.615 187.831 138.56 187.731 138.526C187.633 138.489 187.522 138.471 187.399 138.471C187.249 138.471 187.116 138.5 187 138.557C186.883 138.611 186.785 138.699 186.706 138.82C186.628 138.941 186.569 139.099 186.528 139.295C186.487 139.491 186.466 139.729 186.466 140.009V140.977C186.466 141.2 186.479 141.397 186.504 141.568C186.531 141.739 186.571 141.887 186.624 142.012C186.676 142.135 186.74 142.237 186.815 142.316C186.89 142.396 186.977 142.455 187.075 142.494C187.175 142.531 187.285 142.549 187.406 142.549C187.561 142.549 187.697 142.519 187.813 142.46C187.929 142.401 188.026 142.308 188.104 142.183C188.183 142.056 188.243 141.893 188.281 141.694C188.32 141.494 188.339 141.255 188.339 140.977ZM190.33 142.665C190.33 142.558 190.363 142.468 190.429 142.395C190.497 142.32 190.595 142.282 190.723 142.282C190.85 142.282 190.947 142.32 191.013 142.395C191.082 142.468 191.116 142.558 191.116 142.665C191.116 142.77 191.082 142.859 191.013 142.932C190.947 143.005 190.85 143.041 190.723 143.041C190.595 143.041 190.497 143.005 190.429 142.932C190.363 142.859 190.33 142.77 190.33 142.665ZM190.333 139.647C190.333 139.54 190.366 139.45 190.432 139.377C190.5 139.302 190.598 139.264 190.726 139.264C190.854 139.264 190.951 139.302 191.017 139.377C191.085 139.45 191.119 139.54 191.119 139.647C191.119 139.752 191.085 139.841 191.017 139.914C190.951 139.987 190.854 140.023 190.726 140.023C190.598 140.023 190.5 139.987 190.432 139.914C190.366 139.841 190.333 139.752 190.333 139.647ZM194.562 137.996V143H193.93V138.786L192.655 139.251V138.68L194.463 137.996H194.562ZM197.721 140.631L197.215 140.502L197.465 138.023H200.018V138.608H198.001L197.851 139.961C197.942 139.909 198.057 139.86 198.196 139.815C198.338 139.769 198.499 139.746 198.682 139.746C198.912 139.746 199.118 139.786 199.3 139.866C199.483 139.943 199.638 140.055 199.765 140.201C199.895 140.347 199.994 140.522 200.062 140.727C200.131 140.932 200.165 141.161 200.165 141.414C200.165 141.653 200.132 141.873 200.066 142.074C200.002 142.274 199.905 142.45 199.775 142.6C199.646 142.748 199.481 142.863 199.283 142.945C199.087 143.027 198.856 143.068 198.589 143.068C198.389 143.068 198.199 143.041 198.019 142.986C197.841 142.929 197.681 142.844 197.54 142.73C197.401 142.614 197.287 142.47 197.198 142.299C197.112 142.126 197.057 141.923 197.034 141.691H197.636C197.663 141.878 197.718 142.035 197.8 142.163C197.882 142.29 197.989 142.387 198.121 142.453C198.256 142.517 198.412 142.549 198.589 142.549C198.74 142.549 198.873 142.523 198.989 142.47C199.105 142.418 199.203 142.343 199.283 142.245C199.363 142.147 199.423 142.028 199.464 141.889C199.508 141.75 199.529 141.594 199.529 141.421C199.529 141.264 199.508 141.118 199.464 140.983C199.421 140.849 199.356 140.732 199.27 140.631C199.185 140.531 199.082 140.454 198.958 140.399C198.835 140.342 198.694 140.314 198.535 140.314C198.323 140.314 198.162 140.342 198.053 140.399C197.946 140.456 197.835 140.533 197.721 140.631Z" fill="white"/>
<path d="M22.1494 24.5547V25.0001H19.3574V24.6104L20.7549 23.0547C20.9268 22.8633 21.0596 22.7012 21.1533 22.5684C21.249 22.4337 21.3154 22.3135 21.3525 22.2081C21.3916 22.1006 21.4111 21.9913 21.4111 21.8799C21.4111 21.7393 21.3818 21.6124 21.3232 21.4991C21.2666 21.3839 21.1826 21.2921 21.0713 21.2237C20.96 21.1553 20.8252 21.1212 20.667 21.1212C20.4775 21.1212 20.3193 21.1583 20.1924 21.2325C20.0674 21.3047 19.9736 21.4063 19.9111 21.5372C19.8486 21.668 19.8174 21.8184 19.8174 21.9883H19.2754C19.2754 21.7481 19.3281 21.5284 19.4336 21.3292C19.5391 21.1299 19.6953 20.9717 19.9023 20.8546C20.1094 20.7354 20.3643 20.6758 20.667 20.6758C20.9365 20.6758 21.167 20.7237 21.3584 20.8194C21.5498 20.9131 21.6963 21.046 21.7979 21.2178C21.9014 21.3878 21.9531 21.587 21.9531 21.8155C21.9531 21.9405 21.9316 22.0674 21.8887 22.1964C21.8477 22.3233 21.79 22.4503 21.7158 22.5772C21.6436 22.7042 21.5586 22.8292 21.4609 22.9522C21.3652 23.0753 21.2627 23.1964 21.1533 23.3155L20.0107 24.5547H22.1494ZM23.915 22.9698L23.4814 22.8585L23.6953 20.7344H25.8838V21.2354H24.1553L24.0264 22.3956C24.1045 22.3506 24.2031 22.3087 24.3223 22.2696C24.4434 22.2305 24.582 22.211 24.7383 22.211C24.9355 22.211 25.1123 22.2452 25.2686 22.3135C25.4248 22.3799 25.5576 22.4756 25.667 22.6006C25.7783 22.7256 25.8633 22.876 25.9219 23.0518C25.9805 23.2276 26.0098 23.4239 26.0098 23.6407C26.0098 23.8458 25.9814 24.0342 25.9248 24.2061C25.8701 24.378 25.7871 24.5284 25.6758 24.6573C25.5645 24.7842 25.4238 24.8829 25.2539 24.9532C25.0859 25.0235 24.8877 25.0587 24.6592 25.0587C24.4873 25.0587 24.3242 25.0352 24.1699 24.9883C24.0176 24.9395 23.8809 24.8663 23.7598 24.7686C23.6406 24.669 23.543 24.546 23.4668 24.3995C23.3926 24.251 23.3457 24.0772 23.3262 23.878H23.8418C23.8652 24.0381 23.9121 24.1729 23.9824 24.2823C24.0527 24.3917 24.1445 24.4747 24.2578 24.5313C24.373 24.586 24.5068 24.6133 24.6592 24.6133C24.7881 24.6133 24.9023 24.5909 25.002 24.546C25.1016 24.501 25.1855 24.4366 25.2539 24.3526C25.3223 24.2686 25.374 24.1671 25.4092 24.0479C25.4463 23.9288 25.4648 23.795 25.4648 23.6465C25.4648 23.5118 25.4463 23.3868 25.4092 23.2715C25.3721 23.1563 25.3164 23.0557 25.2422 22.9698C25.1699 22.8839 25.0811 22.8174 24.9756 22.7706C24.8701 22.7217 24.749 22.6973 24.6123 22.6973C24.4307 22.6973 24.293 22.7217 24.1992 22.7706C24.1074 22.8194 24.0127 22.8858 23.915 22.9698ZM27.1719 24.713C27.1719 24.6212 27.2002 24.544 27.2568 24.4815C27.3154 24.4171 27.3994 24.3848 27.5088 24.3848C27.6182 24.3848 27.7012 24.4171 27.7578 24.4815C27.8164 24.544 27.8457 24.6212 27.8457 24.713C27.8457 24.8028 27.8164 24.879 27.7578 24.9415C27.7012 25.004 27.6182 25.0352 27.5088 25.0352C27.3994 25.0352 27.3154 25.004 27.2568 24.9415C27.2002 24.879 27.1719 24.8028 27.1719 24.713ZM29.9775 22.6006H30.3643C30.5537 22.6006 30.71 22.5694 30.833 22.5069C30.958 22.4424 31.0508 22.3555 31.1113 22.2462C31.1738 22.1348 31.2051 22.0098 31.2051 21.8712C31.2051 21.7071 31.1777 21.5694 31.123 21.4581C31.0684 21.3467 30.9863 21.2628 30.877 21.2061C30.7676 21.1495 30.6289 21.1212 30.4609 21.1212C30.3086 21.1212 30.1738 21.1514 30.0566 21.212C29.9414 21.2706 29.8506 21.3546 29.7842 21.4639C29.7197 21.5733 29.6875 21.7022 29.6875 21.8506H29.1455C29.1455 21.6339 29.2002 21.4366 29.3096 21.2589C29.4189 21.0811 29.5723 20.9395 29.7695 20.834C29.9688 20.7286 30.1992 20.6758 30.4609 20.6758C30.7188 20.6758 30.9443 20.7217 31.1377 20.8135C31.3311 20.9034 31.4814 21.0381 31.5889 21.2178C31.6963 21.3956 31.75 21.6172 31.75 21.8829C31.75 21.9903 31.7246 22.1055 31.6738 22.2286C31.625 22.3497 31.5479 22.463 31.4424 22.5684C31.3389 22.6739 31.2041 22.7608 31.0381 22.8292C30.8721 22.8956 30.6729 22.9288 30.4404 22.9288H29.9775V22.6006ZM29.9775 23.046V22.7208H30.4404C30.7119 22.7208 30.9365 22.753 31.1143 22.8174C31.292 22.8819 31.4316 22.9678 31.5332 23.0753C31.6367 23.1827 31.709 23.3008 31.75 23.4297C31.793 23.5567 31.8145 23.6837 31.8145 23.8106C31.8145 24.0098 31.7803 24.1866 31.7119 24.3409C31.6455 24.4952 31.5508 24.626 31.4277 24.7335C31.3066 24.8409 31.1641 24.9219 31 24.9766C30.8359 25.0313 30.6572 25.0587 30.4639 25.0587C30.2783 25.0587 30.1035 25.0323 29.9395 24.9796C29.7773 24.9268 29.6338 24.8506 29.5088 24.751C29.3838 24.6495 29.2861 24.5255 29.2158 24.379C29.1455 24.2305 29.1104 24.0616 29.1104 23.8721H29.6523C29.6523 24.0206 29.6846 24.1505 29.749 24.2618C29.8154 24.3731 29.9092 24.46 30.0303 24.5225C30.1533 24.5831 30.2979 24.6133 30.4639 24.6133C30.6299 24.6133 30.7725 24.585 30.8916 24.5284C31.0127 24.4698 31.1055 24.3819 31.1699 24.2647C31.2363 24.1475 31.2695 24.0001 31.2695 23.8223C31.2695 23.6446 31.2324 23.4991 31.1582 23.3858C31.084 23.2706 30.9785 23.1856 30.8418 23.1309C30.707 23.0743 30.5479 23.046 30.3643 23.046H29.9775Z" fill="white"/>
<path d="M22.1494 59.783V60.2283H19.3574V59.8387L20.7549 58.283C20.9268 58.0916 21.0596 57.9295 21.1533 57.7967C21.249 57.6619 21.3154 57.5418 21.3525 57.4363C21.3916 57.3289 21.4111 57.2195 21.4111 57.1082C21.4111 56.9676 21.3818 56.8406 21.3232 56.7273C21.2666 56.6121 21.1826 56.5203 21.0713 56.4519C20.96 56.3836 20.8252 56.3494 20.667 56.3494C20.4775 56.3494 20.3193 56.3865 20.1924 56.4607C20.0674 56.533 19.9736 56.6346 19.9111 56.7654C19.8486 56.8963 19.8174 57.0467 19.8174 57.2166H19.2754C19.2754 56.9763 19.3281 56.7566 19.4336 56.5574C19.5391 56.3582 19.6953 56.2 19.9023 56.0828C20.1094 55.9637 20.3643 55.9041 20.667 55.9041C20.9365 55.9041 21.167 55.9519 21.3584 56.0476C21.5498 56.1414 21.6963 56.2742 21.7979 56.4461C21.9014 56.616 21.9531 56.8152 21.9531 57.0437C21.9531 57.1687 21.9316 57.2957 21.8887 57.4246C21.8477 57.5515 21.79 57.6785 21.7158 57.8055C21.6436 57.9324 21.5586 58.0574 21.4609 58.1805C21.3652 58.3035 21.2627 58.4246 21.1533 58.5437L20.0107 59.783H22.1494ZM23.915 58.198L23.4814 58.0867L23.6953 55.9627H25.8838V56.4637H24.1553L24.0264 57.6238C24.1045 57.5789 24.2031 57.5369 24.3223 57.4978C24.4434 57.4588 24.582 57.4392 24.7383 57.4392C24.9355 57.4392 25.1123 57.4734 25.2686 57.5418C25.4248 57.6082 25.5576 57.7039 25.667 57.8289C25.7783 57.9539 25.8633 58.1043 25.9219 58.2801C25.9805 58.4558 26.0098 58.6521 26.0098 58.8689C26.0098 59.074 25.9814 59.2625 25.9248 59.4344C25.8701 59.6062 25.7871 59.7566 25.6758 59.8855C25.5645 60.0125 25.4238 60.1111 25.2539 60.1814C25.0859 60.2517 24.8877 60.2869 24.6592 60.2869C24.4873 60.2869 24.3242 60.2635 24.1699 60.2166C24.0176 60.1678 23.8809 60.0945 23.7598 59.9969C23.6406 59.8972 23.543 59.7742 23.4668 59.6277C23.3926 59.4793 23.3457 59.3055 23.3262 59.1062H23.8418C23.8652 59.2664 23.9121 59.4012 23.9824 59.5105C24.0527 59.6199 24.1445 59.7029 24.2578 59.7596C24.373 59.8142 24.5068 59.8416 24.6592 59.8416C24.7881 59.8416 24.9023 59.8191 25.002 59.7742C25.1016 59.7293 25.1855 59.6648 25.2539 59.5808C25.3223 59.4969 25.374 59.3953 25.4092 59.2762C25.4463 59.157 25.4648 59.0232 25.4648 58.8748C25.4648 58.74 25.4463 58.615 25.4092 58.4998C25.3721 58.3846 25.3164 58.284 25.2422 58.198C25.1699 58.1121 25.0811 58.0457 24.9756 57.9988C24.8701 57.95 24.749 57.9256 24.6123 57.9256C24.4307 57.9256 24.293 57.95 24.1992 57.9988C24.1074 58.0476 24.0127 58.114 23.915 58.198ZM27.1719 59.9412C27.1719 59.8494 27.2002 59.7722 27.2568 59.7097C27.3154 59.6453 27.3994 59.6131 27.5088 59.6131C27.6182 59.6131 27.7012 59.6453 27.7578 59.7097C27.8164 59.7722 27.8457 59.8494 27.8457 59.9412C27.8457 60.031 27.8164 60.1072 27.7578 60.1697C27.7012 60.2322 27.6182 60.2635 27.5088 60.2635C27.3994 60.2635 27.3154 60.2322 27.2568 60.1697C27.2002 60.1072 27.1719 60.031 27.1719 59.9412ZM31.9814 59.783V60.2283H29.1895V59.8387L30.5869 58.283C30.7588 58.0916 30.8916 57.9295 30.9854 57.7967C31.0811 57.6619 31.1475 57.5418 31.1846 57.4363C31.2236 57.3289 31.2432 57.2195 31.2432 57.1082C31.2432 56.9676 31.2139 56.8406 31.1553 56.7273C31.0986 56.6121 31.0146 56.5203 30.9033 56.4519C30.792 56.3836 30.6572 56.3494 30.499 56.3494C30.3096 56.3494 30.1514 56.3865 30.0244 56.4607C29.8994 56.533 29.8057 56.6346 29.7432 56.7654C29.6807 56.8963 29.6494 57.0467 29.6494 57.2166H29.1074C29.1074 56.9763 29.1602 56.7566 29.2656 56.5574C29.3711 56.3582 29.5273 56.2 29.7344 56.0828C29.9414 55.9637 30.1963 55.9041 30.499 55.9041C30.7686 55.9041 30.999 55.9519 31.1904 56.0476C31.3818 56.1414 31.5283 56.2742 31.6299 56.4461C31.7334 56.616 31.7852 56.8152 31.7852 57.0437C31.7852 57.1687 31.7637 57.2957 31.7207 57.4246C31.6797 57.5515 31.6221 57.6785 31.5479 57.8055C31.4756 57.9324 31.3906 58.0574 31.293 58.1805C31.1973 58.3035 31.0947 58.4246 30.9854 58.5437L29.8428 59.783H31.9814Z" fill="white"/>
<path d="M22.1494 95.0112V95.4565H19.3574V95.0669L20.7549 93.5112C20.9268 93.3198 21.0596 93.1577 21.1533 93.0249C21.249 92.8901 21.3154 92.77 21.3525 92.6646C21.3916 92.5571 21.4111 92.4478 21.4111 92.3364C21.4111 92.1958 21.3818 92.0688 21.3232 91.9556C21.2666 91.8403 21.1826 91.7485 21.0713 91.6802C20.96 91.6118 20.8252 91.5776 20.667 91.5776C20.4775 91.5776 20.3193 91.6147 20.1924 91.689C20.0674 91.7612 19.9736 91.8628 19.9111 91.9937C19.8486 92.1245 19.8174 92.2749 19.8174 92.4448H19.2754C19.2754 92.2046 19.3281 91.9849 19.4336 91.7856C19.5391 91.5864 19.6953 91.4282 19.9023 91.311C20.1094 91.1919 20.3643 91.1323 20.667 91.1323C20.9365 91.1323 21.167 91.1802 21.3584 91.2759C21.5498 91.3696 21.6963 91.5024 21.7979 91.6743C21.9014 91.8442 21.9531 92.0435 21.9531 92.272C21.9531 92.397 21.9316 92.5239 21.8887 92.6528C21.8477 92.7798 21.79 92.9067 21.7158 93.0337C21.6436 93.1606 21.5586 93.2856 21.4609 93.4087C21.3652 93.5317 21.2627 93.6528 21.1533 93.772L20.0107 95.0112H22.1494ZM23.915 93.4263L23.4814 93.3149L23.6953 91.1909H25.8838V91.6919H24.1553L24.0264 92.8521C24.1045 92.8071 24.2031 92.7651 24.3223 92.7261C24.4434 92.687 24.582 92.6675 24.7383 92.6675C24.9355 92.6675 25.1123 92.7017 25.2686 92.77C25.4248 92.8364 25.5576 92.9321 25.667 93.0571C25.7783 93.1821 25.8633 93.3325 25.9219 93.5083C25.9805 93.6841 26.0098 93.8804 26.0098 94.0972C26.0098 94.3022 25.9814 94.4907 25.9248 94.6626C25.8701 94.8345 25.7871 94.9849 25.6758 95.1138C25.5645 95.2407 25.4238 95.3394 25.2539 95.4097C25.0859 95.48 24.8877 95.5151 24.6592 95.5151C24.4873 95.5151 24.3242 95.4917 24.1699 95.4448C24.0176 95.396 23.8809 95.3228 23.7598 95.2251C23.6406 95.1255 23.543 95.0024 23.4668 94.856C23.3926 94.7075 23.3457 94.5337 23.3262 94.3345H23.8418C23.8652 94.4946 23.9121 94.6294 23.9824 94.7388C24.0527 94.8481 24.1445 94.9312 24.2578 94.9878C24.373 95.0425 24.5068 95.0698 24.6592 95.0698C24.7881 95.0698 24.9023 95.0474 25.002 95.0024C25.1016 94.9575 25.1855 94.8931 25.2539 94.8091C25.3223 94.7251 25.374 94.6235 25.4092 94.5044C25.4463 94.3853 25.4648 94.2515 25.4648 94.103C25.4648 93.9683 25.4463 93.8433 25.4092 93.728C25.3721 93.6128 25.3164 93.5122 25.2422 93.4263C25.1699 93.3403 25.0811 93.2739 24.9756 93.2271C24.8701 93.1782 24.749 93.1538 24.6123 93.1538C24.4307 93.1538 24.293 93.1782 24.1992 93.2271C24.1074 93.2759 24.0127 93.3423 23.915 93.4263ZM27.1719 95.1694C27.1719 95.0776 27.2002 95.0005 27.2568 94.938C27.3154 94.8735 27.3994 94.8413 27.5088 94.8413C27.6182 94.8413 27.7012 94.8735 27.7578 94.938C27.8164 95.0005 27.8457 95.0776 27.8457 95.1694C27.8457 95.2593 27.8164 95.3354 27.7578 95.3979C27.7012 95.4604 27.6182 95.4917 27.5088 95.4917C27.3994 95.4917 27.3154 95.4604 27.2568 95.3979C27.2002 95.3354 27.1719 95.2593 27.1719 95.1694ZM30.9678 91.1675V95.4565H30.4258V91.8442L29.333 92.2427V91.7534L30.8828 91.1675H30.9678Z" fill="white"/>
<path d="M22.1494 130.239V130.685H19.3574V130.295L20.7549 128.739C20.9268 128.548 21.0596 128.386 21.1533 128.253C21.249 128.118 21.3154 127.998 21.3525 127.893C21.3916 127.785 21.4111 127.676 21.4111 127.565C21.4111 127.424 21.3818 127.297 21.3232 127.184C21.2666 127.069 21.1826 126.977 21.0713 126.908C20.96 126.84 20.8252 126.806 20.667 126.806C20.4775 126.806 20.3193 126.843 20.1924 126.917C20.0674 126.989 19.9736 127.091 19.9111 127.222C19.8486 127.353 19.8174 127.503 19.8174 127.673H19.2754C19.2754 127.433 19.3281 127.213 19.4336 127.014C19.5391 126.815 19.6953 126.656 19.9023 126.539C20.1094 126.42 20.3643 126.361 20.667 126.361C20.9365 126.361 21.167 126.408 21.3584 126.504C21.5498 126.598 21.6963 126.731 21.7979 126.903C21.9014 127.072 21.9531 127.272 21.9531 127.5C21.9531 127.625 21.9316 127.752 21.8887 127.881C21.8477 128.008 21.79 128.135 21.7158 128.262C21.6436 128.389 21.5586 128.514 21.4609 128.637C21.3652 128.76 21.2627 128.881 21.1533 129L20.0107 130.239H22.1494ZM23.915 128.655L23.4814 128.543L23.6953 126.419H25.8838V126.92H24.1553L24.0264 128.08C24.1045 128.035 24.2031 127.993 24.3223 127.954C24.4434 127.915 24.582 127.896 24.7383 127.896C24.9355 127.896 25.1123 127.93 25.2686 127.998C25.4248 128.065 25.5576 128.16 25.667 128.285C25.7783 128.41 25.8633 128.561 25.9219 128.737C25.9805 128.912 26.0098 129.109 26.0098 129.325C26.0098 129.53 25.9814 129.719 25.9248 129.891C25.8701 130.063 25.7871 130.213 25.6758 130.342C25.5645 130.469 25.4238 130.568 25.2539 130.638C25.0859 130.708 24.8877 130.743 24.6592 130.743C24.4873 130.743 24.3242 130.72 24.1699 130.673C24.0176 130.624 23.8809 130.551 23.7598 130.453C23.6406 130.354 23.543 130.231 23.4668 130.084C23.3926 129.936 23.3457 129.762 23.3262 129.563H23.8418C23.8652 129.723 23.9121 129.858 23.9824 129.967C24.0527 130.076 24.1445 130.159 24.2578 130.216C24.373 130.271 24.5068 130.298 24.6592 130.298C24.7881 130.298 24.9023 130.276 25.002 130.231C25.1016 130.186 25.1855 130.121 25.2539 130.037C25.3223 129.953 25.374 129.852 25.4092 129.733C25.4463 129.613 25.4648 129.48 25.4648 129.331C25.4648 129.197 25.4463 129.072 25.4092 128.956C25.3721 128.841 25.3164 128.74 25.2422 128.655C25.1699 128.569 25.0811 128.502 24.9756 128.455C24.8701 128.406 24.749 128.382 24.6123 128.382C24.4307 128.382 24.293 128.406 24.1992 128.455C24.1074 128.504 24.0127 128.571 23.915 128.655ZM27.1719 130.398C27.1719 130.306 27.2002 130.229 27.2568 130.166C27.3154 130.102 27.3994 130.07 27.5088 130.07C27.6182 130.07 27.7012 130.102 27.7578 130.166C27.8164 130.229 27.8457 130.306 27.8457 130.398C27.8457 130.488 27.8164 130.564 27.7578 130.626C27.7012 130.689 27.6182 130.72 27.5088 130.72C27.3994 130.72 27.3154 130.689 27.2568 130.626C27.2002 130.564 27.1719 130.488 27.1719 130.398ZM31.8643 128.212V128.863C31.8643 129.212 31.833 129.507 31.7705 129.747C31.708 129.988 31.6182 130.181 31.501 130.327C31.3838 130.474 31.2422 130.58 31.0762 130.647C30.9121 130.711 30.7266 130.743 30.5195 130.743C30.3555 130.743 30.2041 130.723 30.0654 130.682C29.9268 130.641 29.8018 130.575 29.6904 130.486C29.5811 130.394 29.4873 130.275 29.4092 130.128C29.3311 129.982 29.2715 129.804 29.2305 129.595C29.1895 129.386 29.1689 129.142 29.1689 128.863V128.212C29.1689 127.863 29.2002 127.57 29.2627 127.333C29.3271 127.097 29.418 126.907 29.5352 126.765C29.6523 126.62 29.793 126.517 29.957 126.454C30.123 126.392 30.3086 126.361 30.5137 126.361C30.6797 126.361 30.832 126.381 30.9707 126.422C31.1113 126.461 31.2363 126.525 31.3457 126.613C31.4551 126.698 31.5479 126.814 31.624 126.958C31.7021 127.101 31.7617 127.276 31.8027 127.483C31.8438 127.69 31.8643 127.933 31.8643 128.212ZM31.3193 128.95V128.121C31.3193 127.93 31.3076 127.762 31.2842 127.617C31.2627 127.471 31.2305 127.346 31.1875 127.242C31.1445 127.139 31.0898 127.055 31.0234 126.99C30.959 126.926 30.8838 126.879 30.7979 126.85C30.7139 126.819 30.6191 126.803 30.5137 126.803C30.3848 126.803 30.2705 126.827 30.1709 126.876C30.0713 126.923 29.9873 126.998 29.9189 127.102C29.8525 127.205 29.8018 127.341 29.7666 127.509C29.7314 127.677 29.7139 127.881 29.7139 128.121V128.95C29.7139 129.142 29.7246 129.311 29.7461 129.457C29.7695 129.604 29.8037 129.731 29.8486 129.838C29.8936 129.944 29.9482 130.03 30.0127 130.099C30.0771 130.167 30.1514 130.218 30.2354 130.251C30.3213 130.282 30.416 130.298 30.5195 130.298C30.6523 130.298 30.7686 130.273 30.8682 130.222C30.9678 130.171 31.0508 130.092 31.1172 129.985C31.1855 129.875 31.2363 129.736 31.2695 129.566C31.3027 129.394 31.3193 129.189 31.3193 128.95Z" fill="white"/>
<rect x="53" y="27" width="0.5" height="102" fill="#373841"/>
<rect x="99" y="27" width="0.5" height="102" fill="#373841"/>
<rect x="203" y="36" width="0.5" height="161" transform="rotate(90 203 36)" fill="#373841"/>
<rect x="203" y="129" width="0.5" height="161" transform="rotate(90 203 129)" fill="#373841"/>
<rect x="203" y="98" width="0.5" height="161" transform="rotate(90 203 98)" fill="#373841"/>
<rect x="203" y="67" width="0.5" height="161" transform="rotate(90 203 67)" fill="#373841"/>
<rect x="202.75" y="75.25" width="0.5" height="160.5" transform="rotate(90 202.75 75.25)" stroke="#4F505C" stroke-width="0.5" stroke-dasharray="4 4"/>
<rect x="94.75" y="128.75" width="0.500003" height="101.5" transform="rotate(-180 94.75 128.75)" stroke="#4F505C" stroke-width="0.500003" stroke-dasharray="4 4"/>
<rect x="145" y="27" width="0.5" height="102" fill="#373841"/>
<rect x="191" y="27" width="0.5" height="102" fill="#373841"/>
<circle cx="94.5" cy="75.5" r="4.5" fill="url(#paint1_linear_119_112)"/>
<circle cx="94.5" cy="75.5" r="2.5" fill="white"/>
<defs>
<linearGradient id="paint0_linear_119_112" x1="181.645" y1="107.334" x2="69.0048" y2="-48.4908" gradientUnits="userSpaceOnUse">
<stop stop-color="#882B6B"/>
<stop offset="1" stop-color="#CF4671"/>
</linearGradient>
<linearGradient id="paint1_linear_119_112" x1="98.3899" y1="79.6067" x2="82.8106" y2="70.08" gradientUnits="userSpaceOnUse">
<stop stop-color="#882B6B"/>
<stop offset="1" stop-color="#CF4671"/>
</linearGradient>
</defs>
</svg>
