<svg width="225" height="164" viewBox="0 0 225 164" fill="none" xmlns="http://www.w3.org/2000/svg">
<rect width="225" height="164" rx="5" fill="#21222C"/>
<path d="M24.8161 142.869V142.422L26.4964 140.582C26.6937 140.367 26.8561 140.18 26.9837 140.021C27.1113 139.86 27.2057 139.709 27.267 139.568C27.33 139.426 27.3615 139.277 27.3615 139.121C27.3615 138.942 27.3184 138.787 27.2322 138.656C27.1477 138.525 27.0317 138.424 26.8842 138.353C26.7367 138.281 26.571 138.246 26.3871 138.246C26.1915 138.246 26.0208 138.286 25.875 138.368C25.7308 138.447 25.619 138.559 25.5394 138.703C25.4615 138.847 25.4226 139.016 25.4226 139.21H24.8359C24.8359 138.912 24.9047 138.65 25.0423 138.425C25.1798 138.199 25.3671 138.024 25.604 137.898C25.8427 137.772 26.1103 137.709 26.407 137.709C26.7053 137.709 26.9696 137.772 27.1999 137.898C27.4303 138.024 27.6109 138.194 27.7418 138.407C27.8728 138.621 27.9382 138.859 27.9382 139.121C27.9382 139.308 27.9042 139.491 27.8363 139.67C27.77 139.847 27.654 140.046 27.4883 140.264C27.3242 140.481 27.0964 140.747 26.8047 141.06L25.6612 142.283V142.323H28.0277V142.869H24.8161ZM30.7148 142.939C30.3403 142.939 30.0213 142.837 29.7578 142.633C29.4943 142.428 29.293 142.13 29.1538 141.741C29.0146 141.35 28.945 140.877 28.945 140.324C28.945 139.774 29.0146 139.304 29.1538 138.914C29.2946 138.523 29.4968 138.225 29.7603 138.02C30.0254 137.812 30.3436 137.709 30.7148 137.709C31.0861 137.709 31.4034 137.812 31.6669 138.02C31.9321 138.225 32.1342 138.523 32.2734 138.914C32.4143 139.304 32.4847 139.774 32.4847 140.324C32.4847 140.877 32.4151 141.35 32.2759 141.741C32.1367 142.13 31.9354 142.428 31.6719 142.633C31.4084 142.837 31.0894 142.939 30.7148 142.939ZM30.7148 142.392C31.0861 142.392 31.3744 142.213 31.5799 141.855C31.7854 141.497 31.8881 140.987 31.8881 140.324C31.8881 139.883 31.8409 139.508 31.7464 139.198C31.6536 138.888 31.5194 138.652 31.3438 138.489C31.1697 138.327 30.9601 138.246 30.7148 138.246C30.3469 138.246 30.0594 138.427 29.8523 138.79C29.6451 139.151 29.5415 139.663 29.5415 140.324C29.5415 140.765 29.5879 141.139 29.6808 141.448C29.7736 141.756 29.907 141.99 30.081 142.151C30.2566 142.312 30.4679 142.392 30.7148 142.392ZM37.4364 137.778H38.0529V141.418C38.0529 141.742 37.9933 142.018 37.8739 142.245C37.7546 142.472 37.5864 142.645 37.3693 142.762C37.1522 142.88 36.8962 142.939 36.6012 142.939C36.3228 142.939 36.075 142.888 35.858 142.787C35.6409 142.685 35.4702 142.539 35.3459 142.35C35.2216 142.161 35.1594 141.936 35.1594 141.676H35.766C35.766 141.82 35.8016 141.946 35.8729 142.054C35.9458 142.16 36.0452 142.243 36.1712 142.303C36.2971 142.362 36.4405 142.392 36.6012 142.392C36.7785 142.392 36.9293 142.355 37.0536 142.28C37.1779 142.206 37.2724 142.096 37.337 141.952C37.4033 141.806 37.4364 141.628 37.4364 141.418V137.778ZM40.3324 142.959C40.0904 142.959 39.8709 142.913 39.6737 142.822C39.4764 142.729 39.3198 142.596 39.2038 142.422C39.0878 142.246 39.0298 142.034 39.0298 141.786C39.0298 141.567 39.0729 141.39 39.1591 141.254C39.2453 141.116 39.3604 141.008 39.5046 140.93C39.6488 140.853 39.8079 140.795 39.9819 140.756C40.1576 140.717 40.334 140.685 40.5114 140.662C40.7434 140.632 40.9315 140.61 41.0756 140.595C41.2215 140.578 41.3275 140.551 41.3938 140.513C41.4618 140.475 41.4957 140.408 41.4957 140.314V140.294C41.4957 140.049 41.4286 139.858 41.2944 139.722C41.1618 139.586 40.9605 139.519 40.6903 139.519C40.4103 139.519 40.1907 139.58 40.0316 139.702C39.8725 139.825 39.7607 139.956 39.696 140.095L39.1392 139.896C39.2386 139.664 39.3712 139.484 39.5369 139.354C39.7043 139.224 39.8866 139.132 40.0838 139.081C40.2827 139.028 40.4782 139.001 40.6705 139.001C40.7931 139.001 40.9339 139.016 41.093 139.046C41.2538 139.074 41.4087 139.133 41.5579 139.223C41.7087 139.312 41.8338 139.447 41.9332 139.628C42.0327 139.809 42.0824 140.05 42.0824 140.354V142.869H41.4957V142.352H41.4659C41.4261 142.435 41.3598 142.524 41.267 142.618C41.1742 142.713 41.0508 142.793 40.8967 142.859C40.7425 142.926 40.5545 142.959 40.3324 142.959ZM40.4219 142.432C40.6539 142.432 40.8494 142.386 41.0085 142.295C41.1693 142.204 41.2902 142.086 41.3714 141.942C41.4543 141.798 41.4957 141.646 41.4957 141.487V140.95C41.4709 140.98 41.4162 141.008 41.3317 141.032C41.2488 141.056 41.1527 141.076 41.0433 141.095C40.9356 141.111 40.8304 141.126 40.7276 141.139C40.6265 141.151 40.5445 141.161 40.4815 141.169C40.3291 141.189 40.1866 141.221 40.054 141.266C39.9231 141.309 39.817 141.375 39.7358 141.462C39.6563 141.549 39.6165 141.666 39.6165 141.815C39.6165 142.019 39.6919 142.173 39.8427 142.278C39.9951 142.381 40.1882 142.432 40.4219 142.432ZM43.7398 140.573V142.869H43.1531V139.051H43.7199V139.648H43.7696C43.8591 139.454 43.995 139.298 44.1773 139.18C44.3596 139.061 44.5949 139.001 44.8833 139.001C45.1418 139.001 45.368 139.055 45.5619 139.161C45.7558 139.265 45.9066 139.424 46.0143 139.638C46.122 139.85 46.1759 140.118 46.1759 140.443V142.869H45.5892V140.483C45.5892 140.183 45.5113 139.949 45.3556 139.782C45.1998 139.613 44.986 139.528 44.7142 139.528C44.527 139.528 44.3596 139.569 44.2121 139.65C44.0663 139.731 43.9511 139.85 43.8666 140.006C43.782 140.162 43.7398 140.35 43.7398 140.573Z" fill="white"/>
<path d="M102.877 142.869V142.422L104.557 140.582C104.754 140.367 104.917 140.18 105.044 140.021C105.172 139.86 105.266 139.709 105.328 139.568C105.391 139.426 105.422 139.277 105.422 139.121C105.422 138.942 105.379 138.787 105.293 138.656C105.208 138.525 105.092 138.424 104.945 138.353C104.797 138.281 104.632 138.246 104.448 138.246C104.252 138.246 104.081 138.286 103.936 138.368C103.791 138.447 103.68 138.559 103.6 138.703C103.522 138.847 103.483 139.016 103.483 139.21H102.896C102.896 138.912 102.965 138.65 103.103 138.425C103.24 138.199 103.428 138.024 103.665 137.898C103.903 137.772 104.171 137.709 104.468 137.709C104.766 137.709 105.03 137.772 105.26 137.898C105.491 138.024 105.671 138.194 105.802 138.407C105.933 138.621 105.999 138.859 105.999 139.121C105.999 139.308 105.965 139.491 105.897 139.67C105.831 139.847 105.715 140.046 105.549 140.264C105.385 140.481 105.157 140.747 104.865 141.06L103.722 142.283V142.323H106.088V142.869H102.877ZM108.905 137.778V142.869H108.288V138.425H108.258L107.015 139.25V138.624L108.288 137.778H108.905ZM114.376 137.778H114.992V141.418C114.992 141.742 114.933 142.018 114.813 142.245C114.694 142.472 114.526 142.645 114.309 142.762C114.092 142.88 113.836 142.939 113.541 142.939C113.262 142.939 113.015 142.888 112.797 142.787C112.58 142.685 112.41 142.539 112.285 142.35C112.161 142.161 112.099 141.936 112.099 141.676H112.705C112.705 141.82 112.741 141.946 112.812 142.054C112.885 142.16 112.985 142.243 113.111 142.303C113.237 142.362 113.38 142.392 113.541 142.392C113.718 142.392 113.869 142.355 113.993 142.28C114.117 142.206 114.212 142.096 114.276 141.952C114.343 141.806 114.376 141.628 114.376 141.418V137.778ZM117.272 142.959C117.03 142.959 116.81 142.913 116.613 142.822C116.416 142.729 116.259 142.596 116.143 142.422C116.027 142.246 115.969 142.034 115.969 141.786C115.969 141.567 116.012 141.39 116.099 141.254C116.185 141.116 116.3 141.008 116.444 140.93C116.588 140.853 116.747 140.795 116.921 140.756C117.097 140.717 117.273 140.685 117.451 140.662C117.683 140.632 117.871 140.61 118.015 140.595C118.161 140.578 118.267 140.551 118.333 140.513C118.401 140.475 118.435 140.408 118.435 140.314V140.294C118.435 140.049 118.368 139.858 118.234 139.722C118.101 139.586 117.9 139.519 117.63 139.519C117.35 139.519 117.13 139.58 116.971 139.702C116.812 139.825 116.7 139.956 116.635 140.095L116.079 139.896C116.178 139.664 116.311 139.484 116.476 139.354C116.644 139.224 116.826 139.132 117.023 139.081C117.222 139.028 117.418 139.001 117.61 139.001C117.733 139.001 117.873 139.016 118.032 139.046C118.193 139.074 118.348 139.133 118.497 139.223C118.648 139.312 118.773 139.447 118.873 139.628C118.972 139.809 119.022 140.05 119.022 140.354V142.869H118.435V142.352H118.405C118.366 142.435 118.299 142.524 118.206 142.618C118.114 142.713 117.99 142.793 117.836 142.859C117.682 142.926 117.494 142.959 117.272 142.959ZM117.361 142.432C117.593 142.432 117.789 142.386 117.948 142.295C118.109 142.204 118.23 142.086 118.311 141.942C118.394 141.798 118.435 141.646 118.435 141.487V140.95C118.41 140.98 118.356 141.008 118.271 141.032C118.188 141.056 118.092 141.076 117.983 141.095C117.875 141.111 117.77 141.126 117.667 141.139C117.566 141.151 117.484 141.161 117.421 141.169C117.269 141.189 117.126 141.221 116.993 141.266C116.863 141.309 116.756 141.375 116.675 141.462C116.596 141.549 116.556 141.666 116.556 141.815C116.556 142.019 116.631 142.173 116.782 142.278C116.935 142.381 117.128 142.432 117.361 142.432ZM120.679 140.573V142.869H120.093V139.051H120.659V139.648H120.709C120.799 139.454 120.934 139.298 121.117 139.18C121.299 139.061 121.534 139.001 121.823 139.001C122.081 139.001 122.307 139.055 122.501 139.161C122.695 139.265 122.846 139.424 122.954 139.638C123.061 139.85 123.115 140.118 123.115 140.443V142.869H122.529V140.483C122.529 140.183 122.451 139.949 122.295 139.782C122.139 139.613 121.925 139.528 121.654 139.528C121.466 139.528 121.299 139.569 121.152 139.65C121.006 139.731 120.891 139.85 120.806 140.006C120.722 140.162 120.679 140.35 120.679 140.573Z" fill="white"/>
<path d="M178.884 142.869V142.422L180.565 140.582C180.762 140.367 180.924 140.18 181.052 140.021C181.18 139.86 181.274 139.709 181.335 139.568C181.398 139.426 181.43 139.277 181.43 139.121C181.43 138.942 181.387 138.787 181.301 138.656C181.216 138.525 181.1 138.424 180.953 138.353C180.805 138.281 180.639 138.246 180.455 138.246C180.26 138.246 180.089 138.286 179.943 138.368C179.799 138.447 179.687 138.559 179.608 138.703C179.53 138.847 179.491 139.016 179.491 139.21H178.904C178.904 138.912 178.973 138.65 179.111 138.425C179.248 138.199 179.435 138.024 179.672 137.898C179.911 137.772 180.179 137.709 180.475 137.709C180.774 137.709 181.038 137.772 181.268 137.898C181.499 138.024 181.679 138.194 181.81 138.407C181.941 138.621 182.007 138.859 182.007 139.121C182.007 139.308 181.973 139.491 181.905 139.67C181.838 139.847 181.722 140.046 181.557 140.264C181.393 140.481 181.165 140.747 180.873 141.06L179.73 142.283V142.323H182.096V142.869H178.884ZM183.123 142.869V142.422L184.803 140.582C185 140.367 185.163 140.18 185.29 140.021C185.418 139.86 185.512 139.709 185.574 139.568C185.637 139.426 185.668 139.277 185.668 139.121C185.668 138.942 185.625 138.787 185.539 138.656C185.454 138.525 185.338 138.424 185.191 138.353C185.043 138.281 184.878 138.246 184.694 138.246C184.498 138.246 184.327 138.286 184.182 138.368C184.037 138.447 183.926 138.559 183.846 138.703C183.768 138.847 183.729 139.016 183.729 139.21H183.143C183.143 138.912 183.211 138.65 183.349 138.425C183.486 138.199 183.674 138.024 183.911 137.898C184.149 137.772 184.417 137.709 184.714 137.709C185.012 137.709 185.276 137.772 185.507 137.898C185.737 138.024 185.918 138.194 186.048 138.407C186.179 138.621 186.245 138.859 186.245 139.121C186.245 139.308 186.211 139.491 186.143 139.67C186.077 139.847 185.961 140.046 185.795 140.264C185.631 140.481 185.403 140.747 185.111 141.06L183.968 142.283V142.323H186.334V142.869H183.123ZM191.368 137.778H191.985V141.418C191.985 141.742 191.925 142.018 191.806 142.245C191.686 142.472 191.518 142.645 191.301 142.762C191.084 142.88 190.828 142.939 190.533 142.939C190.254 142.939 190.007 142.888 189.79 142.787C189.573 142.685 189.402 142.539 189.278 142.35C189.153 142.161 189.091 141.936 189.091 141.676H189.698C189.698 141.82 189.733 141.946 189.805 142.054C189.877 142.16 189.977 142.243 190.103 142.303C190.229 142.362 190.372 142.392 190.533 142.392C190.71 142.392 190.861 142.355 190.985 142.28C191.11 142.206 191.204 142.096 191.269 141.952C191.335 141.806 191.368 141.628 191.368 141.418V137.778ZM194.264 142.959C194.022 142.959 193.802 142.913 193.605 142.822C193.408 142.729 193.251 142.596 193.135 142.422C193.019 142.246 192.961 142.034 192.961 141.786C192.961 141.567 193.005 141.39 193.091 141.254C193.177 141.116 193.292 141.008 193.436 140.93C193.58 140.853 193.74 140.795 193.914 140.756C194.089 140.717 194.266 140.685 194.443 140.662C194.675 140.632 194.863 140.61 195.007 140.595C195.153 140.578 195.259 140.551 195.325 140.513C195.393 140.475 195.427 140.408 195.427 140.314V140.294C195.427 140.049 195.36 139.858 195.226 139.722C195.093 139.586 194.892 139.519 194.622 139.519C194.342 139.519 194.122 139.58 193.963 139.702C193.804 139.825 193.692 139.956 193.628 140.095L193.071 139.896C193.17 139.664 193.303 139.484 193.469 139.354C193.636 139.224 193.818 139.132 194.015 139.081C194.214 139.028 194.41 139.001 194.602 139.001C194.725 139.001 194.866 139.016 195.025 139.046C195.185 139.074 195.34 139.133 195.49 139.223C195.64 139.312 195.765 139.447 195.865 139.628C195.964 139.809 196.014 140.05 196.014 140.354V142.869H195.427V142.352H195.398C195.358 142.435 195.291 142.524 195.199 142.618C195.106 142.713 194.982 142.793 194.828 142.859C194.674 142.926 194.486 142.959 194.264 142.959ZM194.354 142.432C194.586 142.432 194.781 142.386 194.94 142.295C195.101 142.204 195.222 142.086 195.303 141.942C195.386 141.798 195.427 141.646 195.427 141.487V140.95C195.403 140.98 195.348 141.008 195.263 141.032C195.18 141.056 195.084 141.076 194.975 141.095C194.867 141.111 194.762 141.126 194.659 141.139C194.558 141.151 194.476 141.161 194.413 141.169C194.261 141.189 194.118 141.221 193.986 141.266C193.855 141.309 193.749 141.375 193.667 141.462C193.588 141.549 193.548 141.666 193.548 141.815C193.548 142.019 193.624 142.173 193.774 142.278C193.927 142.381 194.12 142.432 194.354 142.432ZM197.671 140.573V142.869H197.085V139.051H197.652V139.648H197.701C197.791 139.454 197.927 139.298 198.109 139.18C198.291 139.061 198.527 139.001 198.815 139.001C199.073 139.001 199.3 139.055 199.494 139.161C199.687 139.265 199.838 139.424 199.946 139.638C200.054 139.85 200.108 140.118 200.108 140.443V142.869H199.521V140.483C199.521 140.183 199.443 139.949 199.287 139.782C199.131 139.613 198.918 139.528 198.646 139.528C198.459 139.528 198.291 139.569 198.144 139.65C197.998 139.731 197.883 139.85 197.798 140.006C197.714 140.162 197.671 140.35 197.671 140.573Z" fill="white"/>
<path d="M25.7002 108.872C26.5106 107.554 29.95 110.501 34.1578 108.829C37.471 107.513 40.3531 103.285 44.5949 102.007C52.6456 99.5824 59.2162 97.0903 62.9497 91.2987C66.6831 85.5071 72.2871 65.8694 78.9651 65.8694C85.6432 65.8694 89.0423 76.0838 91.5616 82.8123C93.9746 89.257 98.6224 104.736 106.137 106.443C114.432 108.327 121.253 119.814 131.15 121.745C136.425 122.774 140.651 120.771 145.366 117.659C150.081 114.547 149.158 113.203 159.762 110.803C168.513 108.823 170.802 102.007 179.377 101.187C187.952 100.367 191.918 126.033 200.971 123.89" stroke="#F35183" stroke-width="2" stroke-linecap="round" stroke-linejoin="round"/>
<path d="M199.271 110.436C194.82 103.571 195.021 112.065 190.813 110.393C187.5 109.077 184.618 104.849 180.376 103.571C172.403 121.553 165.764 100.963 162.021 92.8626C158.288 87.071 152.86 124.63 146.181 124.63C111.637 96.788 99.0083 106.605 93.8204 123.309C88.6324 140.013 85.5573 102.784 80.8423 99.6716C76.1273 96.5594 75.8124 114.767 65.2084 112.367C56.4578 110.387 54.1688 103.571 45.594 102.751C37.0192 101.931 33.0532 127.597 24.0001 125.454" stroke="#B1B5D3" stroke-width="2" stroke-linecap="round" stroke-linejoin="round"/>
<line x1="24" y1="51.75" x2="201" y2="51.75" stroke="white" stroke-opacity="0.4" stroke-width="0.5" stroke-dasharray="7 7"/>
<line x1="24" y1="76.75" x2="201" y2="76.75" stroke="white" stroke-opacity="0.4" stroke-width="0.5" stroke-dasharray="7 7"/>
<line x1="24" y1="101.75" x2="201" y2="101.75" stroke="white" stroke-opacity="0.4" stroke-width="0.5" stroke-dasharray="7 7"/>
<line x1="24" y1="127.75" x2="201" y2="127.75" stroke="white" stroke-opacity="0.4" stroke-width="0.5" stroke-dasharray="7 7"/>
<rect x="24" y="20" width="81" height="6" rx="3" fill="white" fill-opacity="0.15"/>
<rect x="24" y="30" width="44" height="6" rx="3" fill="white" fill-opacity="0.15"/>
</svg>
