<svg version="1.1" viewBox="0 0 456 456" xmlns="http://www.w3.org/2000/svg">
  <rect width="456" height="456" fill="#512BD4"/>
  <g fill="#fff">
    <path d="m81.274 291.33c-3.2242 0-5.9648-1.074-8.2218-3.223-2.257-2.204-3.3855-4.821-3.3855-7.851 0-3.086 1.1285-5.73 3.3855-7.934s4.9976-3.306 8.2218-3.306c3.278 0 6.0455 1.102 8.3025 3.306 2.3107 2.204 3.4661 4.848 3.4661 7.934 0 3.03-1.1554 5.647-3.4661 7.851-2.257 2.149-5.0245 3.223-8.3025 3.223z"/>
    <path d="m210.17 289.52h-20.958l-55.215-87.109c-1.397-2.204-2.553-4.491-3.466-6.86h-0.484c0.43 2.535 0.645 7.962 0.645 16.281v77.688h-18.54v-118.52h22.328l53.362 85.043c2.257 3.527 3.708 5.951 4.353 7.273h0.322c-0.537-3.14-0.806-8.457-0.806-15.951v-76.365h18.459v118.52z"/>
    <path d="m300.45 289.52h-64.888v-118.52h62.309v16.695h-43.124v33.554h39.739v16.612h-39.739v35.042h45.703v16.612z"/>
    <path d="m392.67 187.7h-33.21v101.82h-19.185v-101.82h-33.129v-16.695h85.524v16.695z"/>
  </g>
</svg>
