<svg version="1.1" viewBox="0 0 800 800" xml:space="preserve" xmlns="http://www.w3.org/2000/svg"><defs><clipPath id="clipPath18"><path d="m0 600h600v-600h-600z"/></clipPath><linearGradient id="linearGradient66" x2="1" gradientTransform="matrix(-38.065 -77.652 -77.652 38.065 258.7 355.29)" gradientUnits="userSpaceOnUse"><stop stop-color="#687e67" offset="0"/><stop stop-color="#687e67" offset=".5288"/><stop stop-color="#83a178" offset="1"/></linearGradient><linearGradient id="linearGradient92" x2="1" gradientTransform="matrix(106.81 78.915 78.915 -106.81 235.16 314.65)" gradientUnits="userSpaceOnUse"><stop stop-color="#687e67" offset="0"/><stop stop-color="#687e67" offset=".13756"/><stop stop-color="#9bb48f" offset=".69737"/><stop stop-color="#9bb48f" offset=".90808"/><stop stop-color="#9bb48f" offset="1"/></linearGradient><clipPath id="clipPath102"><path d="m239.03 373.39-42.134-24.315c-1.575-0.909-2.545-2.588-2.545-4.407v-48.666c0-1.818 0.97-3.497 2.544-4.408l42.133-24.334c1.576-0.909 3.516-0.909 5.091 0l42.124 24.334c1.574 0.911 2.543 2.59 2.543 4.408v48.668c0 1.817-0.969 3.496-2.545 4.405l-42.123 24.315c-0.787 0.454-1.666 0.682-2.544 0.682-0.879 0-1.757-0.228-2.544-0.682"/></clipPath><linearGradient id="linearGradient126" x2="1" gradientTransform="matrix(97.417 0 0 -97.417 192.86 382.17)" gradientUnits="userSpaceOnUse"><stop stop-color="#9bb48f" offset="0"/><stop stop-color="#9bb48f" offset=".091916"/><stop stop-color="#9bb48f" offset=".30263"/><stop stop-color="#687e67" offset=".86244"/><stop stop-color="#687e67" offset="1"/></linearGradient><linearGradient id="linearGradient152" x2="1" gradientTransform="matrix(97.417 0 0 -97.417 192.86 320.35)" gradientUnits="userSpaceOnUse"><stop stop-color="#9bb48f" offset="0"/><stop stop-color="#9bb48f" offset=".091916"/><stop stop-color="#9bb48f" offset=".30263"/><stop stop-color="#687e67" offset=".86244"/><stop stop-color="#687e67" offset="1"/></linearGradient><clipPath id="clipPath162"><path d="m239.03 373.39-42.134-24.315c-1.575-0.909-2.545-2.588-2.545-4.407v-48.666c0-1.818 0.97-3.497 2.544-4.408l42.133-24.334c1.576-0.909 3.516-0.909 5.091 0l42.124 24.334c1.574 0.911 2.543 2.59 2.543 4.408v48.668c0 1.817-0.969 3.496-2.545 4.405l-42.123 24.315c-0.787 0.454-1.666 0.682-2.544 0.682-0.879 0-1.757-0.228-2.544-0.682"/></clipPath><linearGradient id="linearGradient186" x2="1" gradientTransform="matrix(97.417 0 0 -97.417 192.86 292.54)" gradientUnits="userSpaceOnUse"><stop stop-color="#9bb48f" offset="0"/><stop stop-color="#9bb48f" offset=".091916"/><stop stop-color="#9bb48f" offset=".30263"/><stop stop-color="#687e67" offset=".86244"/><stop stop-color="#687e67" offset="1"/></linearGradient><clipPath id="clipPath196"><path d="m239.03 373.39-42.134-24.315c-1.575-0.909-2.545-2.588-2.545-4.407v-48.666c0-1.818 0.97-3.497 2.544-4.408l42.133-24.334c1.576-0.909 3.516-0.909 5.091 0l42.124 24.334c1.574 0.911 2.543 2.59 2.543 4.408v48.668c0 1.817-0.969 3.496-2.545 4.405l-42.123 24.315c-0.787 0.454-1.666 0.682-2.544 0.682-0.879 0-1.757-0.228-2.544-0.682"/></clipPath><linearGradient id="linearGradient220" x2="1" gradientTransform="matrix(97.417 0 0 -97.417 192.86 279.97)" gradientUnits="userSpaceOnUse"><stop stop-color="#9bb48f" offset="0"/><stop stop-color="#9bb48f" offset=".091916"/><stop stop-color="#9bb48f" offset=".30263"/><stop stop-color="#687e67" offset=".86244"/><stop stop-color="#687e67" offset="1"/></linearGradient><clipPath id="clipPath230"><path d="m239.03 373.39-42.134-24.315c-1.575-0.909-2.545-2.588-2.545-4.407v-48.666c0-1.818 0.97-3.497 2.544-4.408l42.133-24.334c1.576-0.909 3.516-0.909 5.091 0l42.124 24.334c1.574 0.911 2.543 2.59 2.543 4.408v48.668c0 1.817-0.969 3.496-2.545 4.405l-42.123 24.315c-0.787 0.454-1.666 0.682-2.544 0.682-0.879 0-1.757-0.228-2.544-0.682"/></clipPath><linearGradient id="linearGradient250" x2="1" gradientTransform="matrix(-60.081 -122.56 -122.56 60.081 304.47 357.59)" gradientUnits="userSpaceOnUse"><stop stop-color="#687e67" offset="0"/><stop stop-color="#687e67" offset=".5288"/><stop stop-color="#83a178" offset="1"/></linearGradient></defs><g transform="matrix(1.3333 0 0 -1.3333 0 800)"><g transform="matrix(1.3276 0 0 1.3276 -98.099 -98.436)"><g clip-path="url(#clipPath18)"><g transform="translate(296.95 165.06)"><path d="m0 0c-1.46 0-2.912 0.381-4.19 1.121l-13.338 7.892c-1.991 1.114-1.019 1.509-0.362 1.738 2.657 0.922 3.195 1.135 6.031 2.743 0.295 0.167 0.687 0.103 0.992-0.076l10.247-6.083c0.371-0.206 0.895-0.206 1.237 0l39.95 23.058c0.372 0.212 0.61 0.64 0.61 1.081v46.104c0 0.451-0.238 0.872-0.62 1.101l-39.933 23.038c-0.369 0.216-0.859 0.216-1.231 0l-39.923-23.045c-0.388-0.222-0.634-0.657-0.634-1.094v-46.104c0-0.441 0.246-0.859 0.63-1.068l10.944-6.323c5.938-2.969 9.574 0.528 9.574 4.041v45.519c0 0.644 0.517 1.151 1.161 1.151h5.065c0.634 0 1.158-0.507 1.158-1.151v-45.519c0-7.925-4.316-12.47-11.829-12.47-2.309 0-4.127 0-9.202 2.501l-10.476 6.031c-2.588 1.496-4.19 4.293-4.19 7.288v46.104c0 2.995 1.602 5.792 4.19 7.281l39.949 23.085c2.528 1.429 5.888 1.429 8.396 0l39.947-23.085c2.587-1.496 4.196-4.286 4.196-7.281v-46.104c0-2.995-1.609-5.782-4.196-7.288l-39.947-23.065c-1.277-0.74-2.726-1.121-4.206-1.121" fill="#689f63"/></g><g transform="translate(309.29 196.82)"><path d="m0 0c-17.482 0-21.144 8.024-21.144 14.755 0 0.64 0.514 1.151 1.154 1.151h5.165c0.577 0 1.058-0.415 1.148-0.978 0.78-5.258 3.105-7.912 13.677-7.912 8.416 0 11.999 1.904 11.999 6.369 0 2.574-1.016 4.485-14.095 5.766-10.931 1.081-17.692 3.496-17.692 12.24 0 8.061 6.794 12.868 18.186 12.868 12.798 0 19.131-4.442 19.933-13.972 0.03-0.329-0.086-0.644-0.305-0.889-0.219-0.229-0.524-0.369-0.846-0.369h-5.185c-0.537 0-1.012 0.382-1.121 0.903-1.244 5.533-4.269 7.301-12.476 7.301-9.189 0-10.257-3.201-10.257-5.6 0-2.906 1.26-3.751 13.667-5.393 12.277-1.623 18.109-3.921 18.109-12.55 0-8.704-7.258-13.69-19.917-13.69" fill="#689f63"/></g><g transform="translate(357.94 245.7)"><path d="m0 0h1.343c1.098 0 1.304 0.773 1.304 1.221 0 1.183-0.816 1.183-1.264 1.183h-1.383zm-1.632 3.789h2.975c1.019 0 3.016 0 3.016-2.283 0-1.589-1.019-1.914-1.632-2.118 1.184-0.081 1.264-0.856 1.426-1.955 0.083-0.692 0.206-1.875 0.448-2.281h-1.831c-0.043 0.406-0.329 2.607-0.329 2.728-0.119 0.49-0.285 0.733-0.895 0.733h-1.506v-3.461h-1.672zm-3.563-4.298c0-3.586 2.893-6.479 6.436-6.479 3.586 0 6.478 2.954 6.478 6.479 0 3.584-2.932 6.436-6.478 6.436-3.503 0-6.436-2.81-6.436-6.436m14.155-0.022c0-4.236-3.464-7.699-7.699-7.699-4.197 0-7.7 3.422-7.7 7.699 0 4.359 3.586 7.701 7.7 7.701 4.156 0 7.699-3.342 7.699-7.701" fill="#689f63"/></g><g transform="translate(173.24 345.43)"><path d="m0 0c0 1.841-0.969 3.533-2.558 4.445l-42.355 24.375c-0.716 0.422-1.519 0.641-2.331 0.674h-0.438c-0.81-0.033-1.612-0.252-2.339-0.674l-42.355-24.375c-1.579-0.912-2.561-2.604-2.561-4.445l0.093-65.635c0-0.913 0.474-1.762 1.277-2.21 0.786-0.471 1.758-0.471 2.541 0l25.172 14.414c1.592 0.945 2.561 2.614 2.561 4.439v30.664c0 1.828 0.968 3.52 2.554 4.429l10.718 6.173c0.799 0.461 1.672 0.687 2.564 0.687 0.873 0 1.768-0.226 2.544-0.687l10.715-6.173c1.586-0.909 2.558-2.601 2.558-4.429v-30.664c0-1.825 0.982-3.504 2.564-4.439l25.165-14.414c0.789-0.471 1.775-0.471 2.557 0 0.78 0.448 1.271 1.297 1.271 2.21z" fill="#fff" fill-rule="evenodd"/></g><g transform="translate(373.11 311.26)"><path d="m0 0c0-0.456-0.244-0.879-0.64-1.106l-14.548-8.386c-0.395-0.227-0.882-0.227-1.277 0l-14.548 8.386c-0.397 0.227-0.64 0.65-0.64 1.106v16.799c0 0.456 0.243 0.879 0.639 1.108l14.547 8.402c0.397 0.229 0.884 0.229 1.281 0l14.547-8.402c0.395-0.229 0.639-0.652 0.639-1.108zm3.931 124.4c-0.793 0.44-1.76 0.431-2.543-0.029-0.781-0.459-1.262-1.299-1.262-2.206v-65c0-0.639-0.342-1.231-0.894-1.551-0.554-0.32-1.237-0.32-1.791 0l-10.609 6.112c-1.582 0.913-3.529 0.911-5.112-1e-3l-42.371-24.453c-1.584-0.914-2.559-2.603-2.559-4.431v-48.916c0-1.828 0.975-3.516 2.557-4.432l42.37-24.471c1.584-0.914 3.534-0.914 5.118 0l42.377 24.471c1.582 0.916 2.558 2.604 2.558 4.432v121.94c0 1.854-1.004 3.564-2.624 4.468z" fill="#fff" fill-rule="evenodd"/></g><g transform="translate(518.13 328.5)"><path d="m0 0c1.576 0.915 2.546 2.601 2.546 4.424v11.854c0 1.823-0.97 3.51-2.548 4.425l-42.099 24.443c-1.584 0.921-3.539 0.922-5.127 7e-3l-42.356-24.453c-1.583-0.914-2.558-2.602-2.558-4.43v-48.903c0-1.84 0.987-3.537 2.584-4.446l42.093-23.985c1.552-0.886 3.455-0.896 5.017-0.028l25.46 14.151c0.808 0.45 1.311 1.297 1.316 2.219 6e-3 0.923-0.485 1.777-1.284 2.236l-42.625 24.465c-0.796 0.456-1.286 1.304-1.286 2.219v15.326c0 0.914 0.488 1.76 1.281 2.216l13.266 7.648c0.789 0.456 1.764 0.456 2.554 0l13.272-7.648c0.793-0.456 1.28-1.302 1.28-2.216v-12.058c0-0.916 0.49-1.762 1.283-2.218 0.793-0.458 1.77-0.454 2.561 5e-3z" fill="#fff" fill-rule="evenodd"/></g><g transform="translate(472.84 330.79)"><path d="m0 0c0.304 0.176 0.678 0.176 0.982 0l8.13-4.69c0.304-0.176 0.491-0.5 0.491-0.851v-9.388c0-0.352-0.187-0.675-0.491-0.851l-8.13-4.691c-0.304-0.176-0.678-0.176-0.982 0l-8.124 4.691c-0.304 0.176-0.491 0.499-0.491 0.851v9.388c0 0.351 0.187 0.675 0.491 0.851z" fill="#689f63" fill-rule="evenodd"/></g></g><path d="m239.03 373.39-42.134-24.315c-1.576-0.909-2.545-2.588-2.545-4.407v-48.666c0-1.818 0.969-3.497 2.544-4.408l42.133-24.334c1.576-0.909 3.516-0.909 5.091 0l42.124 24.334c1.574 0.911 2.543 2.59 2.543 4.408v48.668c0 1.817-0.969 3.496-2.545 4.405l-42.123 24.315c-0.787 0.454-1.666 0.682-2.544 0.682-0.879 0-1.757-0.228-2.544-0.682" fill="url(#linearGradient66)"/><path d="m195.4 292.91c0.401-0.525 0.906-0.975 1.497-1.317l36.143-20.874 6.017-3.46c0.9-0.519 1.927-0.739 2.936-0.665 0.337 0.028 0.673 0.09 1.001 0.185l44.43 81.357c-0.34 0.365-0.736 0.682-1.181 0.938l-27.588 15.925-14.579 8.39c-0.417 0.24-0.864 0.413-1.323 0.526z" fill="url(#linearGradient92)"/><g clip-path="url(#clipPath102)"><path d="m237.63 382.33-0.58-0.331h0.774z" fill="url(#linearGradient126)"/></g><path d="m241.06 374.05c-0.705-0.07-1.398-0.289-2.033-0.655l-42.014-24.245 45.293-82.513c0.628 0.091 1.243 0.301 1.81 0.628l42.124 24.334c1.301 0.753 2.189 2.031 2.458 3.477l-46.178 78.89c-0.341 0.068-0.688 0.102-1.035 0.102-0.142 0-0.284-6e-3 -0.425-0.018" fill="url(#linearGradient152)"/><g clip-path="url(#clipPath162)"><path d="m290.28 292.38-0.279 0.477v-0.639z" fill="url(#linearGradient186)"/></g><g clip-path="url(#clipPath196)"><path d="m286.35 291.6-42.177-24.333c-0.58-0.335-1.213-0.545-1.861-0.633l0.84-1.53 46.847 27.117v0.639l-1.158 1.979c-0.347-1.348-1.263-2.528-2.491-3.239" fill="url(#linearGradient220)"/></g><g clip-path="url(#clipPath230)"><path d="m286.35 291.6-42.177-24.333c-0.58-0.335-1.213-0.545-1.861-0.633l0.84-1.53 46.847 27.117v0.639l-1.158 1.979c-0.347-1.348-1.263-2.528-2.491-3.239" fill="url(#linearGradient250)"/></g></g></g></svg>
