<?xml version="1.0" encoding="UTF-8"?>
<svg width="100" height="100" version="1.1" viewBox="0 0 100 100" xmlns="http://www.w3.org/2000/svg">
  <path d="m8.375 4.3848c-2.785 0-5.0273 2.2423-5.0273 5.0273v81.182c3e-7 2.785 2.2423 5.0273 5.0273 5.0273h83.256c2.785 0 5.0273-2.2423 5.0273-5.0273v-81.182c0-2.785-2.2423-5.0273-5.0273-5.0273h-83.256zm34.543 17.855c0.45849-0.044277 0.98308 0.1741 1.4668 0.49414a4.6179 4.6179 0 0 1 1.3867 1.4375c0.02572 0.02104 0.050839 0.043026 0.074219 0.066406a0.79499 0.79499 0 0 1 0.23438 0.55469 4.4426 4.4426 0 0 1-0.56055 4.6211c-0.74122 0.8932-1.6727 1.1742-2.5215 1.0176a0.93528 0.93528 0 0 1-0.37305 0.14648c-1.5923 0.49568-3.4338-0.8384-3.8594-2.543-0.25019-1.0031-0.34068-2.5939 0.29297-3.4941a1.3772 1.3772 0 0 1 0.32031-0.32617 3.4441 3.4441 0 0 1 0.1875-1.0176c0.30168-0.82304 0.99998-0.81736 1.6523-0.5625a2.1044 2.1044 0 0 1 0.35156-0.027344c0.18473 0.00234 0.39506 0.01254 0.61719 0.03125 0.20521-0.25078 0.45537-0.37187 0.73047-0.39844zm32.738 0c0.45869-0.044277 0.98358 0.1741 1.4688 0.49414a4.6366 4.6366 0 0 1 1.3887 1.4375l0.076172 0.066406a0.80668 0.80668 0 0 1 0.24609 0.55469 4.4426 4.4426 0 0 1-0.58008 4.6211c-0.74122 0.8932-1.6684 1.1742-2.5195 1.0176a0.93528 0.93528 0 0 1-0.37305 0.14648c-1.5947 0.49568-3.4338-0.8384-3.8594-2.543-0.25019-1.0031-0.34263-2.5939 0.29102-3.4941a1.4216 1.4216 0 0 1 0.32031-0.32617 3.4441 3.4441 0 0 1 0.18945-1.0176c0.30156-0.82304 0.99998-0.81736 1.6523-0.5625a2.1254 2.1254 0 0 1 0.35156-0.027344c0.18238 0.00234 0.39311 0.01254 0.61523 0.03125 0.20516-0.25078 0.45721-0.37187 0.73242-0.39844zm-50.842 0.62695c0.87068-0.050857 1.7904 0.23209 2.5176 0.75a4.1432 4.1432 0 0 1 0.89453 0.86523l0.23242 0.14844c1.3304 0.93993 1.2212 2.6083 0.29297 3.8125l-0.021484 0.023438c-0.53781 1.251-1.7389 2.1933-3.4785 2.1465-1.1738-0.030397-2.3758-0.3228-3.1895-1.043a2.8058 2.8058 0 0 1-1.2891-2.4023 0.50271 0.50271 0 0 1 0.35352-0.48633 3.9749 3.9749 0 0 1 1.3203-2.3066c0.046763-0.08652 0.095044-0.17051 0.14648-0.25 0.5296-0.82187 1.35-1.207 2.2207-1.2578zm33.729 0c0.87068-0.050857 1.7904 0.23404 2.5176 0.75195a4.1432 4.1432 0 0 1 0.89258 0.86523l0.23438 0.14648c1.3281 0.93993 1.22 2.6083 0.28711 3.8125l-0.021484 0.023438c-0.53781 1.251-1.7389 2.1933-3.4785 2.1465-1.1762-0.030397-2.3781-0.32085-3.1895-1.041a2.8058 2.8058 0 0 1-1.291-2.4043 0.50739 0.50739 0 0 1 0.36133-0.48633 3.9867 3.9867 0 0 1 1.3184-2.3066c0.046754-0.08652 0.095045-0.17051 0.14648-0.25 0.5296-0.82187 1.352-1.207 2.2227-1.2578zm1.5703 1.918c0.044413 0.051438 0.09111 0.10599 0.13086 0.16211h0.044921a0.50739 0.50739 0 0 1 0.3457 0.29688 2.3382 2.3382 0 0 1 0.87695 0.48633 3.0864 3.0864 0 0 0-0.23438-0.40234c-0.02806-0.039745-0.055538-0.079778-0.085938-0.11719h-0.003906a4.6109 4.6109 0 0 0-1.0742-0.42578zm-33.73 0.001953a1.7163 1.7163 0 0 1 0.13086 0.16016h0.044922a0.50739 0.50739 0 0 1 0.34375 0.29492 2.3078 2.3078 0 0 1 0.87695 0.48633 3.0864 3.0864 0 0 0-0.23438-0.40234c-0.02806-0.039745-0.055538-0.077825-0.085938-0.11523a4.6109 4.6109 0 0 0-1.0762-0.42383zm16.023 0.46289a7.0146 7.0146 0 0 0-0.017578 1.1289c0.29228-0.1707 0.31234-0.65785 0.24219-1.0039a0.6734 0.6734 0 0 0-0.078125-0.054688 1.1691 1.1691 0 0 0-0.14648-0.070312zm32.754 0a7.2928 7.2928 0 0 0-0.019531 1.1289c0.29228-0.1707 0.3139-0.65785 0.24609-1.0039-0.02805-0.01871-0.052028-0.038318-0.080078-0.054688a1.1925 1.1925 0 0 0-0.14648-0.070312zm-15.926 0.83984-0.33008 0.099609c0.00935 0.053781 0.025032 0.10872 0.039062 0.16016a0.52843 0.52843 0 0 1 0.68359 0.10547 1.6367 1.6367 0 0 0-0.013672-0.21484 1.1948 1.1948 0 0 1-0.29102-0.09375 0.43725 0.43725 0 0 1-0.087891-0.05664zm-33.727 0.007812-0.33203 0.10156c0.00935 0.053781 0.026986 0.10676 0.041016 0.1582a0.52843 0.52843 0 0 1 0.68164 0.095703 1.6367 1.6367 0 0 0-0.013672-0.21484 1.2276 1.2276 0 0 1-0.28906-0.09375 0.3671 0.3671 0 0 1-0.087891-0.046875zm19.994 0.43359c-0.01168 0.02104-0.026988 0.043026-0.041015 0.066406a1.459 1.459 0 0 1-0.50391 0.91211 0.067807 0.067807 0 0 0 0 0.019531 0.44893 0.44893 0 0 1-0.1543 0.45508c-0.035856 0.087289-0.072361 0.17089-0.11133 0.25195a7.3677 7.3677 0 0 1-0.57617 1.0957 2.2025 2.2025 0 0 0 0.8457-0.78906l0.003906-0.011719a3.5073 3.5073 0 0 0 0.53711-2zm32.754 0c-0.01168 0.02104-0.026985 0.043026-0.041015 0.066406a1.459 1.459 0 0 1-0.50391 0.91211v0.019531a0.44426 0.44426 0 0 1-0.1543 0.45508c-0.035856 0.087289-0.072362 0.17089-0.11133 0.25195a7.1525 7.1525 0 0 1-0.57422 1.0957 2.1979 2.1979 0 0 0 0.8418-0.78906l0.005859-0.011719a3.5073 3.5073 0 0 0 0.53711-2zm-38.691 0.14453c-0.00234 0.17069 0.003548 0.34494 0.017578 0.51562 0.069292 0.71204 0.30702 1.4611 0.85352 1.9727a2.3872 2.3872 0 0 0 0.33203 0.25195 3.9211 3.9211 0 0 1-0.55469-1.0625 9.4603 9.4603 0 0 1-0.64844-1.6777zm32.75 0c0 0.16681 6e-3 0.33699 0.021485 0.50391 0.067796 0.71551 0.30676 1.47 0.85156 1.9844a2.2774 2.2774 0 0 0 0.33398 0.25195 3.9912 3.9912 0 0 1-0.55664-1.0625 9.645 9.645 0 0 1-0.65039-1.6777zm-45.336 0.56836a1.6554 1.6554 0 0 1-0.11133 0.23438c0.044439 0.08885 0.091901 0.17716 0.13867 0.26367a0.93528 0.93528 0 0 0-0.027343-0.49805zm33.729 0a1.9337 1.9337 0 0 1-0.11133 0.23438l0.13477 0.26367a0.90955 0.90955 0 0 0-0.023438-0.49805zm-35.318 1.5645a2.3849 2.3849 0 0 1-0.70117 0.14258l-0.046875 0.0625a1.4637 1.4637 0 0 0 0.26758 0.021484 2.1044 2.1044 0 0 0 0.61914-0.074218c-0.049109-0.04911-0.096592-0.1009-0.13867-0.15234zm33.73 0a2.3849 2.3849 0 0 1-0.70117 0.14258l-0.046875 0.064453a1.4637 1.4637 0 0 0 0.26758 0.019531 2.0717 2.0717 0 0 0 0.61719-0.074218c-0.046767-0.049109-0.094638-0.1009-0.13672-0.15234zm-16.752 8.8359a4.1082 4.1082 0 0 1 4.0879 4.1211v32.969a4.0965 4.0965 0 1 1-8.1836 0v-32.969a4.1082 4.1082 0 0 1 4.0957-4.1211zm32.762 0a4.1082 4.1082 0 0 1 4.0977 4.1211v32.969a4.0965 4.0965 0 1 1-8.1836 0v-32.969a4.1082 4.1082 0 0 1 4.0859-4.1211zm-50.314 0.40039c0.87068-0.051149 1.7904 0.23209 2.5176 0.75a4.1432 4.1432 0 0 1 0.89453 0.86523c0.084179 0.049097 0.15994 0.098951 0.23242 0.15039 1.3304 0.93763 1.2212 2.6064 0.29297 3.8105l-0.021484 0.023437c-0.53781 1.2509-1.7389 2.1933-3.4785 2.1465-1.1738-0.030397-2.3758-0.32047-3.1895-1.043a2.8058 2.8058 0 0 1-1.2891-2.4043 0.50271 0.50271 0 0 1 0.35352-0.48633 3.9749 3.9749 0 0 1 1.3203-2.3047c0.046763-0.086508 0.095044-0.17051 0.14648-0.25 0.5296-0.8207 1.35-1.2067 2.2207-1.2578zm33.729 0c0.87068-0.051149 1.7904 0.23209 2.5176 0.75a4.1432 4.1432 0 0 1 0.89258 0.86523c0.084178 0.049097 0.1619 0.098951 0.23438 0.15039 1.3281 0.93763 1.22 2.6064 0.28711 3.8105l-0.019531 0.023437c-0.53781 1.2509-1.7409 2.1933-3.4805 2.1465-1.1762-0.030398-2.3781-0.32047-3.1895-1.043a2.8058 2.8058 0 0 1-1.291-2.4043 0.50739 0.50739 0 0 1 0.36133-0.48633 3.9867 3.9867 0 0 1 1.3184-2.3047c0.046755-0.086508 0.095045-0.17051 0.14648-0.25 0.5296-0.8207 1.352-1.2067 2.2227-1.2578zm1.5684 1.9277c0.044422 0.053769 0.091109 0.10833 0.13086 0.16211h0.044921a0.50739 0.50739 0 0 1 0.34375 0.29492 2.3756 2.3756 0 0 1 0.87695 0.48633 3.0864 3.0864 0 0 0-0.23437-0.40234c-0.028062-0.039745-0.055538-0.079778-0.085938-0.11719v-0.011718a4.6109 4.6109 0 0 0-1.0762-0.41211zm-33.729 0.011719c0.046753 0.053769 0.09111 0.10833 0.13086 0.16211h0.044922a0.50739 0.50739 0 0 1 0.34375 0.29492 2.3382 2.3382 0 0 1 0.87695 0.48633 3.0864 3.0864 0 0 0-0.23438-0.40234c-0.02806-0.039745-0.055538-0.079778-0.085938-0.11719v-0.023437a4.6109 4.6109 0 0 0-1.0762-0.40039zm32.852 1.291-0.33008 0.10156c0.00935 0.05378 0.025032 0.10676 0.039062 0.1582a0.52843 0.52843 0 0 1 0.68359 0.10742 1.6694 1.6694 0 0 0-0.013672-0.2168 1.1948 1.1948 0 0 1-0.29102-0.09375v0.011719a0.43725 0.43725 0 0 1-0.087891-0.068359zm-33.727 0.011718-0.33203 0.10156c0.00935 0.053781 0.026986 0.10676 0.041016 0.1582a0.52843 0.52843 0 0 1 0.68164 0.10742 1.6694 1.6694 0 0 0-0.013672-0.2168 1.2276 1.2276 0 0 1-0.28906-0.09375 0.3671 0.3671 0 0 1-0.087891-0.056641zm1.4707 1.1348a1.7443 1.7443 0 0 1-0.11133 0.23242c0.044439 0.08885 0.091901 0.17873 0.13867 0.26758a0.93528 0.93528 0 0 0-0.027343-0.5zm33.729 0a2.0647 2.0647 0 0 1-0.11133 0.23438l0.13477 0.26562a0.90722 0.90722 0 0 0-0.023438-0.5zm-1.5918 1.5703a2.3897 2.3897 0 0 1-0.70117 0.14648l-0.046874 0.060547a1.7093 1.7093 0 0 0 0.26562 0.023437 2.1581 2.1581 0 0 0 0.61719-0.078125c-0.046767-0.049109-0.092686-0.098563-0.13477-0.15234zm-33.727 0.011718a2.3897 2.3897 0 0 1-0.70117 0.14453l-0.046875 0.0625a1.7093 1.7093 0 0 0 0.26758 0.023437 2.1838 2.1838 0 0 0 0.61914-0.078125 1.6859 1.6859 0 0 1-0.13867-0.15234zm0.5957 10.123a4.1082 4.1082 0 0 1 4.0898 4.1191v16.484a4.0965 4.0965 0 1 1-8.1836 0v-16.484a4.1082 4.1082 0 0 1 4.0938-4.1191zm32.766 0a4.1082 4.1082 0 0 1 4.0859 4.1191v16.484a4.0965 4.0965 0 1 1-8.1836 0v-16.484a4.1082 4.1082 0 0 1 4.0977-4.1191z" fill="#fff" stroke-width=".23382"/>
</svg>
