<svg fill="none" version="1.1" viewBox="0 0 155 36" xmlns="http://www.w3.org/2000/svg">
  <g clip-path="url(#clip0_6142_49959)" fill="#fff">
    <path d="m31.935 11.422c-1.1454-0.0251-2.2824 0.2003-3.3322 0.6606-1.0497 0.4602-1.9869 1.1442-2.7464 2.0045-1.5994 1.7643-2.4122 4.0944-2.4122 6.9419 0 2.8474 0.8387 5.0398 2.4938 6.6999s3.8112 2.5311 6.4126 2.5311c1.5876 0.0373 3.16-0.3168 4.5793-1.0311 1.2915-0.6849 2.1821-1.3921 2.6534-2.103l0.0185-0.0224-2.0596-3.8748v-0.0223h-0.2968v0.0223c-0.4983 0.7959-1.1839 1.4567-1.9965 1.9244-0.8645 0.5474-1.8649 0.8402-2.8872 0.845-1.0549 0.0222-2.0765-0.3706-2.8463-1.0944-0.3727-0.3415-0.6694-0.7581-0.8709-1.2224-0.2014-0.4644-0.303-0.9661-0.2981-1.4724h12.12l0.0334-1.3288c0-2.7805-0.8238-5.0734-2.4455-6.8191-0.7732-0.8524-1.7193-1.529-2.7748-1.9842s-2.1959-0.6785-3.3446-0.6548zm3.7852 7.4741h-7.3107c0.1911-0.8183 0.5915-1.5726 1.1616-2.1886 0.3157-0.3422 0.7021-0.6111 1.1322-0.7879s0.8935-0.2573 1.3578-0.2357c0.477-0.0167 0.9521 0.0693 1.3931 0.2523 0.4411 0.183 0.8379 0.4587 1.1638 0.8085 0.5839 0.583 0.9696 1.3358 1.1022 2.1514z"/>
    <path d="m55.028 13.659c-0.5107-0.7085-1.1997-1.2685-1.9965-1.6229-0.8513-0.405-1.7817-0.6147-2.7239-0.6141-1.1301-0.0317-2.2525 0.1959-3.2815 0.6655s-1.9375 1.1688-2.6561 2.0442c-1.4843 1.7978-2.2488 4.0944-2.2488 6.8005 0 2.706 0.7236 4.9691 2.1524 6.6999 1.4287 1.7308 3.4252 2.6055 5.9375 2.6055 1.1287 0.0292 2.2466-0.2268 3.2508-0.7444 0.8723-0.4622 1.6034-1.153 2.1153-1.9988h0.0334l0.4379 2.3338v0.0409h3.5699v-23.896h-4.5904v7.6863zm-1.028 3.5175c0.8157 1.0771 1.2352 2.4039 1.1875 3.7557 0.0536 1.3196-0.3738 2.6137-1.2023 3.6402-0.3869 0.4602-0.8727 0.8266-1.421 1.0715-0.5482 0.245-1.1446 0.3622-1.7445 0.343-0.5892 0.0284-1.1765-0.0879-1.7107-0.339-0.5342-0.251-0.9992-0.6292-1.3545-1.1015-0.7439-1.0539-1.122-2.3238-1.0762-3.6142-0.0108-1.2971 0.378-2.5658 1.1133-3.6329 0.3246-0.5076 0.7741-0.9228 1.3051-1.2058 0.531-0.2829 1.1256-0.424 1.7267-0.4096 0.6092-0.0191 1.2143 0.1061 1.7662 0.3654 0.5519 0.2594 1.0351 0.6455 1.4104 1.1272z"/>
    <path d="m71.705 11.422c-1.1892-0.038-2.3672 0.2407-3.4141 0.8077-0.8296 0.4525-1.517 1.1279-1.9854 1.9504h-0.0297l-0.2857-2.3748h-3.7333v23.993h4.5682v-7.9245h0.0557c0.5068 0.7276 1.1918 1.3122 1.9891 1.6973 0.8663 0.4477 1.8272 0.68 2.8018 0.6774 1.0672 0.0389 2.1284-0.177 3.0962-0.63s1.8144-1.1301 2.4702-1.9755c1.3657-1.7308 2.0559-3.9864 2.0559-6.6999s-0.7051-5.0026-2.1041-6.7967c-0.6316-0.8597-1.4589-1.5556-2.413-2.0295-0.9541-0.474-2.0073-0.7123-3.0718-0.6951zm3.0207 9.5101c0.0466 1.3009-0.3456 2.5795-1.1133 3.6291-0.3309 0.4509-0.7647 0.8157-1.2651 1.0637s-1.0528 0.3722-1.6109 0.3619c-0.5648 0.0193-1.1264-0.0922-1.6413-0.3259-0.5148-0.2337-0.9691-0.5832-1.3275-1.0215-0.7422-0.897-1.1133-2.144-1.1133-3.7222s0.3711-2.8996 1.1133-3.8375c0.3472-0.4553 0.7977-0.8208 1.314-1.0661 0.5164-0.2454 1.0837-0.3636 1.6548-0.3447 0.5731-0.0128 1.1401 0.12 1.6482 0.3862 0.508 0.2662 0.9407 0.6571 1.2575 1.1362 0.746 1.1009 1.1254 2.4104 1.0836 3.7408z"/>
    <path d="m93.652 13.246c-1.3657-1.2097-3.147-1.8239-5.2919-1.8239-1.4815-0.0193-2.9465 0.3136-4.275 0.9715-1.2719 0.6406-2.3639 1.59-3.1766 2.7618v0.0261l2.2266 3.7222v0.0223h0.2894v-0.026c0.4877-0.981 1.2092-1.8261 2.1004-2.4604 0.8056-0.5822 1.7718-0.8983 2.7647-0.9045 0.731-0.0478 1.4594 0.1273 2.0893 0.5025 0.2164 0.1414 0.3937 0.3352 0.5157 0.5636 0.1219 0.2283 0.1845 0.4838 0.1819 0.7429 0 0.4764-0.282 0.8337-0.8646 1.0943-1.292 0.4611-2.6185 0.8183-3.967 1.0683-1.9966 0.4243-3.4475 1.1166-4.3159 2.0769-0.8867 0.9952-1.356 2.2953-1.31 3.6292 0 1.567 0.4787 2.8102 1.4287 3.7035 0.95 0.8934 2.3602 1.3437 4.2083 1.3437 2.4604 0 4.2268-0.9268 5.2547-2.7581h0.0334l0.4602 2.3747h3.6739v-11.479c0.0185-2.2073-0.6754-3.9381-2.0262-5.1515zm-3.711 12.045c-0.8422 0.5818-1.8463 0.8815-2.8686 0.8561-1.2543 0-1.8555-0.4466-1.8555-1.3623-7e-4 -0.2134 0.0459-0.4242 0.1364-0.6174 0.0905-0.1931 0.2226-0.3636 0.3869-0.4992 0.5767-0.3957 1.2328-0.66 1.9222-0.7743 2.0485-0.4615 3.1841-0.9342 3.4735-1.4479v1.8611c-0.0111 0.7444-0.4082 1.4219-1.1949 1.9839z"/>
    <path d="m107.54 11.422c-1.063-0.0108-2.112 0.2383-3.058 0.7258-0.909 0.4672-1.677 1.1687-2.226 2.0323h-0.03l-0.289-2.3747h-3.7188v18.06h4.5718v-9.1268c-0.055-1.2986 0.318-2.5793 1.061-3.644 0.345-0.4585 0.795-0.8263 1.312-1.0721 0.517-0.2457 1.086-0.3619 1.657-0.3386 1.986 0 2.991 1.1725 2.991 3.484v10.698h4.569v-12.142c0.026-0.8349-0.117-1.6664-0.422-2.4439-0.304-0.7775-0.763-1.4847-1.349-2.0786-1.146-1.1799-2.872-1.7792-5.069-1.7792z"/>
    <path d="m129 13.659c-0.511-0.7085-1.199-1.2685-1.996-1.6229-0.852-0.4046-1.782-0.6144-2.724-0.6141-1.131-0.0337-2.254 0.193-3.283 0.6628s-1.937 1.17-2.655 2.0469c-1.484 1.7978-2.249 4.0944-2.249 6.8005 0 2.706 0.743 4.9691 2.153 6.6999s3.425 2.6055 5.937 2.6055c1.129 0.0292 2.247-0.2268 3.251-0.7444 0.872-0.4633 1.602-1.1538 2.115-1.9988h0.03l0.442 2.3338v0.0409h3.57v-23.896h-4.591v7.6863zm-1.031 3.5175c0.818 1.0759 1.239 2.4032 1.191 3.7557 0.054 1.3203-0.375 2.6149-1.206 3.6402-0.387 0.4601-0.872 0.8265-1.419 1.0715-0.548 0.2449-1.144 0.3622-1.743 0.343-0.589 0.0284-1.177-0.0879-1.711-0.339-0.534-0.251-0.999-0.6292-1.354-1.1015-0.746-1.0535-1.125-2.3233-1.08-3.6142-0.011-1.2971 0.378-2.5657 1.113-3.6329 0.324-0.5079 0.774-0.9233 1.305-1.2063 0.531-0.2829 1.126-0.4238 1.727-0.4091 0.609-0.0197 1.214 0.1052 1.766 0.3646s1.036 0.6459 1.411 1.128z"/>
    <path d="m148.57 13.246c-1.369-1.2098-3.147-1.8239-5.292-1.8239-1.476-0.0174-2.936 0.3155-4.26 0.9715-1.273 0.6388-2.365 1.5886-3.177 2.7618l-0.018 0.0261 2.226 3.7222v0.0223h0.286v-0.0261c0.487-0.9806 1.207-1.8258 2.097-2.4603 0.807-0.5823 1.774-0.8984 2.768-0.9045 0.731-0.0474 1.46 0.1278 2.09 0.5025 0.215 0.1421 0.392 0.3361 0.513 0.5644s0.183 0.4834 0.181 0.7421c0 0.4764-0.282 0.8337-0.861 1.0943-1.292 0.4611-2.619 0.8183-3.967 1.0683-1.997 0.4243-3.452 1.1166-4.32 2.0769-0.884 0.997-1.353 2.2959-1.31 3.6292 0 1.567 0.482 2.8102 1.429 3.7035 0.946 0.8934 2.364 1.3437 4.208 1.3437 2.464 0 4.231-0.9268 5.258-2.7581h0.034l0.46 2.3747h3.674v-11.479c0.041-2.2073-0.653-3.9381-2.019-5.1515zm-3.711 12.045c-0.842 0.5813-1.846 0.8809-2.868 0.8561-1.255 0-1.856-0.4466-1.856-1.3623-2e-3 -0.2135 0.044-0.4248 0.135-0.618 0.091-0.1933 0.223-0.3637 0.388-0.4986 0.576-0.397 1.233-0.6614 1.923-0.7743 2.044-0.4615 3.184-0.9342 3.473-1.4479v1.8611c4e-3 0.7444-0.397 1.4219-1.195 1.9839z"/>
    <path d="m18.438 22.745c-0.3462-0.6304-0.6584-1.279-0.9352-1.943 1.0286-0.4498 1.9553-1.1045 2.7239-1.9244 1.2024-1.1787 1.8035-2.8437 1.8035-4.9951 0-2.4939-0.8139-4.4319-2.4418-5.8141-1.6384-1.3852-3.7248-2.1224-5.867-2.0732h-10.446v23.822h5.084v-8.561h1.9334l1.1801-0.0298c0.4379 1.0683 1.4139 3.417 1.9817 4.6676l4.9838-3.1489zm-10.079-11.997h4.6795c2.3503 0 3.5255 0.9516 3.5255 2.8549 0 2.0447-1.3112 3.0658-3.9337 3.0634h-4.2713v-5.9183z"/>
    <path d="m23.692 28.105-1.3322-0.9454-5.5108 3.5807 1.9297 0.7519 3.3621-0.0074 2.4381-1.742-0.8869-1.6378z"/>
    <path d="m19.284 24.126-5.11 3.2271 1.4362 2.2557 5.4366-3.4356-1.7628-2.0472z"/>
  </g>
  <defs>
    <clipPath id="clip0_6142_49959">
      <rect transform="translate(3.2747 5.9688)" width="147.36" height="29.83" fill="#fff"/>
    </clipPath>
  </defs>
</svg>
