<svg xmlns="http://www.w3.org/2000/svg" viewBox="0 0 144 56" clip-rule="evenodd" stroke-linecap="round" stroke-linejoin="round">
  <g fill-rule="evenodd" fill="#00205b">
    <path d="M67.812 24.856c0-3.623-2.376-6.376-7.274-6.376h-9.854v19.04h4.637V22.595h5.246c1.942 0 2.637 1.102 2.637 2.376 0 1.305-.725 2.377-2.666 2.377h-4.492L62.42 37.52h5.275s-4.347-6.84-4.318-6.84c2.695-.637 4.434-2.52 4.434-5.824M42.917 18.48h4.638v19.04h-4.638V18.48ZM31.064 30.333h-3.902l2.888-5.854h.058L36.6 37.52h5.332l-9.709-19.04H28.11l-9.71 19.04h5.217l1.573-3.188h7.817l-1.942-4ZM84.738 27.638c1.478-.812 2.26-2.116 2.26-4.029 0-3.072-2.289-5.13-6.143-5.13h-10.84V37.52h11.274c3.942 0 6.521-2.116 6.521-5.332 0-2.232-1.246-3.913-3.072-4.55m-10.085-5.13h6.202c.927 0 1.651.725 1.651 1.681 0 .956-.724 1.68-1.68 1.68h-6.174v-3.36Zm6.317 11.013h-6.318v-3.884h6.318c1.13 0 2 .812 2 1.913 0 1.13-.87 1.97-2 1.97M102.445 29.116c0 2.89-1.333 4.492-3.97 4.492-2.608 0-3.942-1.602-3.942-4.492V18.48h-4.752v10.288c0 5.883 3.1 9.158 8.694 9.158 5.593 0 8.723-3.275 8.723-9.158V18.48h-4.753v10.636ZM119.573 26.044c-4.402-1.072-5.362-1.174-5.362-2.435 0-.975 1.101-1.449 2.956-1.449 2.464 0 5.087.618 6.579 1.536l1.478-3.883c-1.913-1.014-4.724-1.74-7.999-1.74-4.898 0-7.651 2.436-7.651 5.71 0 3.524 2.057 4.955 6.782 5.97 3.678.811 4.462 1.317 4.462 2.347 0 1.12-1.014 1.623-3.013 1.623-2.899 0-5.522-.703-7.622-1.854l-1.42 4.057c2.289 1.217 5.709 2 9.157 2 4.811 0 7.68-2.232 7.68-5.97.001-3-1.94-4.927-6.027-5.912"/>
  </g>
</svg>
