<svg version="1.1" viewBox="1984.9 330.72 120 60" xmlns="http://www.w3.org/2000/svg">
  <g transform="matrix(1.3012 0 0 1.3012 -621.06 -108.63)">
    <g transform="translate(0 -1.9679)">
      <g transform="matrix(.42404 0 0 .42404 2003.9 348.15)" fill="#728e9b">
        <path transform="translate(-2.037,-14.896)" d="m14.683 32.525v6.036h0.192a13.416 13.416 0 0 1 5.461-5.6 16.158 16.158 0 0 1 7.664-1.778q6.323 0 9.724 3.449t3.4 11.209v38.227h-13.224v-35.544q0-4.024-1.341-5.6a5.361 5.361 0 0 0-4.312-1.581q-6.995 0-6.994 8.527v34.2h-13.216v-51.545z"/>
        <rect transform="translate(47.972)" width="13.222" height="11.305"/>
        <rect transform="translate(47.972,17.629)" width="13.222" height="51.544"/>
      </g>
      <g transform="matrix(.42404 0 0 .42404 2003.4 348.59)" fill="#b9c6cd">
        <path transform="translate(0,-7.394)" d="m4.626 7.57 2.382 9h-1.891l-0.416-1.9h-2.4l-0.416 1.9h-1.885l2.382-9zm-0.239 5.609-0.87-4.046h-0.025l-0.87 4.046z"/>
        <path transform="translate(-4.577,-7.394)" d="m15.808 7.57a2.617 2.617 0 0 1 1.166 0.233 2.125 2.125 0 0 1 0.763 0.612 2.382 2.382 0 0 1 0.416 0.863 3.914 3.914 0 0 1 0.126 0.99 3.237 3.237 0 0 1-0.208 1.21 2.19 2.19 0 0 1-0.58 0.844 2.425 2.425 0 0 1-0.9 0.492 3.964 3.964 0 0 1-1.173 0.163h-0.971v3.593h-1.816v-9zm-0.555 4.071a1.2 1.2 0 0 0 0.876-0.328 1.377 1.377 0 0 0 0.334-1.021 1.6 1.6 0 0 0-0.289-1.034 1.189 1.189 0 0 0-0.97-0.353h-0.756v2.735z"/>
        <path transform="translate(-7.708,-7.394)" d="m25.9 7.57 2.382 9h-1.893l-0.416-1.9h-2.4l-0.416 1.9h-1.885l2.382-9zm-0.239 5.609-0.87-4.046h-0.025l-0.87 4.046z"/>
        <path transform="translate(-12.078,-7.294)" d="m37.132 9.078a0.872 0.872 0 0 0-0.851-0.448 0.851 0.851 0 0 0-0.561 0.183 1.212 1.212 0 0 0-0.347 0.592 5.052 5.052 0 0 0-0.177 1.071q-0.051 0.662-0.05 1.62a15.647 15.647 0 0 0 0.069 1.652 3.643 3.643 0 0 0 0.214 0.977 0.9 0.9 0 0 0 0.365 0.466 1.053 1.053 0 0 0 0.511 0.12 1.221 1.221 0 0 0 0.448-0.082 0.76 0.76 0 0 0 0.359-0.328 2.143 2.143 0 0 0 0.24-0.693 6.334 6.334 0 0 0 0.089-1.178h1.815a8.1 8.1 0 0 1-0.114 1.386 3.144 3.144 0 0 1-0.422 1.147 2.1 2.1 0 0 1-0.87 0.769 3.294 3.294 0 0 1-1.456 0.277 3.424 3.424 0 0 1-1.626-0.328 2.21 2.21 0 0 1-0.927-0.946 4.163 4.163 0 0 1-0.416-1.475 17.308 17.308 0 0 1-0.094-1.891 17.362 17.362 0 0 1 0.094-1.884 4.18 4.18 0 0 1 0.416-1.481 2.324 2.324 0 0 1 0.927-0.964 3.272 3.272 0 0 1 1.626-0.347 3.143 3.143 0 0 1 1.532 0.315 2.145 2.145 0 0 1 0.839 0.8 2.776 2.776 0 0 1 0.347 1.046 8.668 8.668 0 0 1 0.07 1.052h-1.816a3.279 3.279 0 0 0-0.234-1.428z"/>
        <path transform="translate(-16.267,-7.394)" d="m46.709 7.57v3.441h2.118v-3.441h1.815v9h-1.815v-4h-2.118v4h-1.815v-9z"/>
        <path transform="translate(-20.486,-7.394)" d="m61.567 9.058h-3.215v2.118h3.025v1.487h-3.025v2.42h3.34v1.487h-5.155v-9h5.029v1.488z"/>
      </g>
      <g transform="matrix(.42404 0 0 .42404 2032.6 347.9)" fill="#b9c6cd">
        <path transform="translate(-108.07 -4.74)" d="m108.07 31.949v-9.006h6.706v-5.843a15.765 15.765 0 0 1 0.958-5.844 9.221 9.221 0 0 1 2.73-3.832 10.847 10.847 0 0 1 4.359-2.06 24.587 24.587 0 0 1 5.748-0.622q3.543 0 7.089 0.287v9.389a7.3 7.3 0 0 0-1.341-0.1h-1.246a6.212 6.212 0 0 0-3.928 0.958 3.9 3.9 0 0 0-1.15 3.161v4.5h7.665v9.007h-7.665v42.542h-13.22v-42.537z"/>
        <rect transform="translate(35.451 .575)" width="13.221" height="11.305"/>
        <rect transform="translate(35.451,18.203)" width="13.221" height="51.544"/>
      </g>
    </g>
    <g transform="matrix(1.3267 0 0 1.3267 -664.77 -120.43)">
      <g transform="matrix(.42404 0 0 .42404 2057 346.62)" fill="#728e9b">
        <path transform="translate(-198.34)" d="m224.22 73.517a25.882 25.882 0 0 1-25.882-25.883c0-12.3 9.641-24.1 16.236-32.707a96.88 96.88 0 0 0 9.378-14.759 0.3 0.3 0 0 1 0.538 0 96.853 96.853 0 0 0 9.379 14.76c6.593 8.607 16.237 20.4 16.237 32.707h-15.795a0.608 0.608 0 0 0-0.608 0.608v8.876h-8.874a0.608 0.608 0 0 0-0.608 0.608v15.79z"/>
        <path transform="translate(-213.99 -33.403)" d="m249.99 100.64v-8.451h-7.846a0.608 0.608 0 0 0-0.608 0.608v7.844z"/>
        <path transform="translate(-213.99 -39.661)" d="m241.54 115.34a25.24 25.24 0 0 0 8.453-1.625v-4.257h-7.846a0.608 0.608 0 0 0-0.608 0.608z"/>
        <path transform="translate(-219.38 -28.013)" d="m264.86 85.762v-8.451h-7.844a0.608 0.608 0 0 0-0.608 0.608v7.843h8.451z"/>
        <path transform="translate(-220.25 -34.271)" d="m266.74 102.52 0.01-0.01a1.774 1.774 0 0 0 0.508-1.254v-6.679h-8.453v8.453h6.678a1.774 1.774 0 0 0 1.257-0.51z"/>
        <path transform="translate(-220.58 -40.856)" d="m259.71 116.6a25.274 25.274 0 0 0 6.249-3.841h-6.249z"/>
        <path transform="translate(-225.64 -28.013)" d="m277.93 85.762a25.17 25.17 0 0 0 1.627-8.451h-5.88v8.451z"/>
        <path transform="translate(-226.84 -34.597)" d="m276.98 101.73a25.244 25.244 0 0 0 3.839-6.25h-3.839z"/>
        <path transform="translate(-226.84 -34.597)" d="m276.98 101.73a25.244 25.244 0 0 0 3.839-6.25h-3.839z"/>
      </g>
      <g transform="matrix(.42404 0 0 .42404 2057.8 351.8)" fill="#b9c6cd">
        <path transform="translate(-208.17 -19.146)" d="m226.53 19.472c-0.478 0.667-0.948 1.339-1.428 2-1.516 2.092-3.113 4.123-4.676 6.18q0.918 0.127 1.843 0.282c1.3-2.183 2.632-4.352 3.881-6.567 0.35-0.62 0.693-1.246 1.039-1.87 0.274-0.489-0.362-0.44-0.659-0.025z"/>
        <path transform="translate(-201.2,-25.096)" d="m213.39 37.147c0.23-0.4 0.468-0.8 0.7-1.207-0.7-0.136-1.4-0.262-2.1-0.374h-7e-3a86.66 86.66 0 0 0-6.06 9.3c-3.254 5.9-5.511 12.495-4.474 19.3a24.215 24.215 0 0 0 8.069 14.569 23.849 23.849 0 0 0 2.93 2.165 0.311 0.311 0 0 0 0.381-0.487 25.957 25.957 0 0 1-7-11.805c-1.937-7.144-0.327-14.465 2.431-21.165a91.737 91.737 0 0 1 5.13-10.296z"/>
      </g>
    </g>
  </g>
</svg>
