<svg class="logo" viewBox="0 0 201 60" fill="none" xmlns="http://www.w3.org/2000/svg"><path fill-rule="evenodd" clip-rule="evenodd" d="M25.734 2.884a.97.97 0 1 1 0-1.938.97.97 0 0 1 0 1.938zm-.968 57.148a.97.97 0 1 0 1.938 0 .97.97 0 0 0-1.938 0zM26.704 5.14a.97.97 0 1 0-1.94 0 .97.97 0 0 0 1.94 0zM11.333 9.503a.969.969 0 1 0-1.568 1.14.969.969 0 0 0 1.568-1.14z" fill="currentColor"></path><mask id="a" style="mask-type:alpha" maskUnits="userSpaceOnUse" x="0" y="22" width="3" height="2"><path fill-rule="evenodd" clip-rule="evenodd" d="M.193 22.02h1.94v1.939H.193v-1.94z" fill="currentColor"></path></mask><g mask="url(#a)"><path fill-rule="evenodd" clip-rule="evenodd" d="M1.463 22.067a.97.97 0 1 0-.599 1.846.97.97 0 0 0 .599-1.846z" fill="currentColor"></path></g><mask id="b" style="mask-type:alpha" maskUnits="userSpaceOnUse" x="0" y="37" width="3" height="3"><path fill-rule="evenodd" clip-rule="evenodd" d="M.193 37.988h1.94v1.94H.193v-1.94z" fill="currentColor"></path></mask><g mask="url(#b)"><path fill-rule="evenodd" clip-rule="evenodd" d="M.864 38.036a.97.97 0 1 0 .599 1.845.97.97 0 0 0-.6-1.845z" fill="currentColor"></path></g><path fill-rule="evenodd" clip-rule="evenodd" d="M9.764 51.306a.97.97 0 1 0 1.568 1.139.97.97 0 0 0-1.568-1.14zm15.002 5.503a.97.97 0 1 0 1.938.001.97.97 0 0 0-1.938-.001zm15.37-4.363a.97.97 0 1 0 1.567-1.14.97.97 0 0 0-1.568 1.14zm9.87-12.566a.969.969 0 1 0 .6-1.842.969.969 0 0 0-.6 1.842zm.6-15.967a.968.968 0 1 0-.6-1.844.97.97 0 0 0 .6 1.844zm-8.901-13.27a.97.97 0 1 0-1.568-1.14.97.97 0 0 0 1.568 1.14zm-15.001-2.28a.97.97 0 1 0-1.94-.001.97.97 0 0 0 1.94 0zm-7.792 1.031a.97.97 0 1 0-1.824.665.97.97 0 0 0 1.824-.665zm-6.97 3.634a.969.969 0 1 0-1.485 1.245.969.969 0 0 0 1.485-1.245zm-5.306 5.8a.968.968 0 0 0-1.324.355.968.968 0 1 0 1.68.968.969.969 0 0 0-.356-1.323zm-3.002 7.265a.97.97 0 1 0-.336 1.91.97.97 0 0 0 .336-1.91zm-.337 7.852a.97.97 0 1 0 .337 1.909.97.97 0 0 0-.337-1.91zm2.37 7.496a.97.97 0 1 0 .97 1.679.97.97 0 0 0-.97-1.68zm4.79 6.232a.97.97 0 1 0 1.487 1.246.97.97 0 0 0-1.487-1.246zm6.632 4.218a.97.97 0 1 0 1.824.663.97.97 0 0 0-1.824-.663zm7.677 1.695a.97.97 0 1 0 1.938.001.97.97 0 0 0-1.938 0zm7.791-1.032a.97.97 0 1 0 1.822-.662.97.97 0 0 0-1.822.662zm6.97-3.635a.97.97 0 1 0 1.485-1.245.97.97 0 0 0-1.486 1.245zm5.306-5.8a.97.97 0 1 0 .97-1.677.97.97 0 0 0-.97 1.678zm3.001-7.265a.97.97 0 1 0 .337-1.91.97.97 0 0 0-.337 1.91zm.337-7.851a.97.97 0 1 0-.337-1.91.97.97 0 0 0 .337 1.91zm-2.37-7.497a.969.969 0 1 0-.967-1.678.969.969 0 0 0 .967 1.678zm-4.789-6.231a.97.97 0 1 0-1.487-1.246.97.97 0 0 0 1.487 1.246zm-6.633-4.217a.97.97 0 1 0-1.822-.664.97.97 0 0 0 1.822.664zm-7.675 1.527a.97.97 0 1 0-1.94 0 .97.97 0 0 0 1.94 0zm-3.802.184a.97.97 0 1 0-1.903.38.97.97 0 0 0 1.903-.38zm-3.692.921a.97.97 0 1 0-1.79.742.97.97 0 0 0 1.79-.742zm-3.441 1.624a.97.97 0 1 0 0 0zm-3.058 2.265a.969.969 0 1 0-1.371 1.37.969.969 0 0 0 1.37-1.37zm-2.559 2.817a.97.97 0 1 0-1.077 1.613.97.97 0 0 0 1.077-1.613zm-1.96 3.262a.97.97 0 1 0-.742 1.791.97.97 0 0 0 .743-1.79zM6.909 26.24a.97.97 0 1 0-.378 1.9.97.97 0 0 0 .378-1.9zm-.563 3.765a.97.97 0 1 0 0 1.938.97.97 0 0 0 0-1.938zm.184 3.802a.97.97 0 1 0 .379 1.902.97.97 0 0 0-.38-1.902zm.922 3.692a.97.97 0 1 0 .742 1.79.97.97 0 0 0-.742-1.79zm1.624 3.441a.97.97 0 1 0 1.078 1.614.97.97 0 0 0-1.078-1.614zm2.264 3.058a.969.969 0 1 0 1.369 1.371.969.969 0 0 0-1.37-1.37zm2.818 2.56a.969.969 0 1 0 1.61 1.077.969.969 0 0 0-1.61-1.078zm3.261 1.957a.97.97 0 1 0 1.794.742.97.97 0 0 0-1.794-.742zM21 49.8a.97.97 0 1 0 1.903.378A.97.97 0 0 0 21 49.8zm3.766.563a.97.97 0 1 0 1.938 0 .97.97 0 0 0-1.938 0zm3.8-.184a.97.97 0 1 0 1.902-.38.97.97 0 0 0-1.902.38zm3.693-.922a.97.97 0 1 0 1.792-.743.97.97 0 0 0-1.792.743zm3.44-1.624a.97.97 0 1 0 1.614-1.079.97.97 0 0 0-1.614 1.08zm3.059-2.263a.97.97 0 1 0 1.37-1.374.97.97 0 0 0-1.37 1.374zm2.559-2.819a.97.97 0 1 0 1.077-1.612.97.97 0 0 0-1.077 1.612zm1.959-3.262a.97.97 0 1 0 .742-1.791.97.97 0 0 0-.742 1.791zm1.285-3.581a.97.97 0 0 0 .379-1.902.97.97 0 0 0-.379 1.902zm.561-3.765a.97.97 0 1 0 .001-1.94.97.97 0 0 0 0 1.94zm-.182-3.802a.97.97 0 1 0-.38-1.903.97.97 0 0 0 .38 1.903zm-.922-3.691a.97.97 0 1 0-.742-1.791.97.97 0 0 0 .742 1.79zm-1.624-3.442a.97.97 0 1 0 0 0zM40.13 17.95a.969.969 0 1 0-1.369-1.37.969.969 0 0 0 1.369 1.37zm-2.818-2.559a.969.969 0 1 0-1.61-1.077.969.969 0 0 0 1.61 1.077zm-3.262-1.958a.97.97 0 1 0-1.79-.744.97.97 0 0 0 1.79.744zm-3.582-1.286a.97.97 0 1 0-1.901-.378.97.97 0 0 0 1.9.378zm-3.764 2.662a.97.97 0 1 0-1.94 0 .97.97 0 0 0 1.94 0zm-5.588.644a.97.97 0 1 0-1.823.664.97.97 0 0 0 1.823-.664zm-5.03 2.514a.97.97 0 1 0-1.485 1.248.97.97 0 0 0 1.485-1.248zm-3.867 4.085a.969.969 0 1 0-.97 1.677.969.969 0 0 0 .97-1.677zm-2.236 5.16a.97.97 0 1 0-.337 1.91.97.97 0 0 0 .337-1.91zm-.337 5.613a.97.97 0 1 0 .337 1.91.97.97 0 0 0-.337-1.91zm1.605 5.391a.969.969 0 1 0 .967 1.679.969.969 0 0 0-.967-1.679zm3.35 4.517a.969.969 0 1 0 1.484 1.247.969.969 0 0 0-1.484-1.247zm4.693 3.1a.97.97 0 1 0 1.821.665.97.97 0 0 0-1.82-.665zm5.472 1.305a.97.97 0 1 0 1.938.001.97.97 0 0 0-1.938-.001zm5.586-.643a.969.969 0 1 0 1.82-.663.969.969 0 0 0-1.82.663zm5.03-2.515a.97.97 0 1 0 1.487-1.248.97.97 0 0 0-1.486 1.248zm3.866-4.085a.97.97 0 1 0 .97-1.68.97.97 0 0 0-.97 1.68zm2.238-5.159a.97.97 0 1 0 .335-1.91.97.97 0 0 0-.335 1.91zm.336-5.614a.97.97 0 1 0-.338-1.91.97.97 0 0 0 .337 1.91zm-1.604-5.39a.969.969 0 1 0-.968-1.68.969.969 0 0 0 .968 1.68zm-3.35-4.518a.97.97 0 1 0-1.487-1.247.97.97 0 0 0 1.487 1.247zm-4.694-3.098a.97.97 0 1 0-1.822-.663.97.97 0 0 0 1.822.663zm-5.47 1.916a.97.97 0 1 0-1.94 0 .97.97 0 0 0 1.94 0zm-9.434 3.105a.97.97 0 1 0-1.371 1.374.97.97 0 0 0 1.37-1.374zm-4.478 8.867a.97.97 0 1 0 0 1.94.97.97 0 0 0 0-1.94zm3.106 9.436a.969.969 0 1 0 1.369 1.37.969.969 0 0 0-1.37-1.37zm8.868 4.474a.97.97 0 1 0 1.938.001.97.97 0 0 0-1.938 0zm9.433-3.105a.969.969 0 1 0 1.371-1.368.969.969 0 0 0-1.37 1.368zm4.477-8.866a.97.97 0 1 0 0-1.939.97.97 0 0 0 0 1.939zm-3.105-9.434a.969.969 0 1 0-1.369-1.371.969.969 0 0 0 1.37 1.37zm-8.867-1.254a.97.97 0 1 0-1.94 0 .97.97 0 0 0 1.94 0zm-1.938 19.438a.97.97 0 1 0 1.938 0 .97.97 0 0 0-1.938 0zm42.849-14.239c-1.176 0-2.231-.269-3.166-.807a5.797 5.797 0 0 1-2.211-2.26c-.538-.968-.807-2.098-.807-3.389 0-1.292.269-2.421.807-3.39a5.81 5.81 0 0 1 2.21-2.26c.936-.538 1.99-.807 3.167-.807 1.456 0 2.686.381 3.688 1.142 1 .762 1.634 1.78 1.899 3.055h-2.136a2.736 2.736 0 0 0-1.217-1.776c-.645-.422-1.398-.633-2.26-.633-.695 0-1.35.174-1.961.521-.613.348-1.11.87-1.49 1.565-.38.695-.571 1.556-.571 2.583 0 1.026.19 1.887.57 2.582.38.695.878 1.221 1.49 1.577a3.839 3.839 0 0 0 1.963.534c.86 0 1.614-.211 2.259-.633.646-.422 1.052-1.022 1.217-1.801h2.136c-.248 1.242-.878 2.252-1.887 3.03-1.011.778-2.244 1.167-3.7 1.167zm13.732-1.788c.71 0 1.373-.174 1.986-.521.613-.348 1.109-.87 1.49-1.565.38-.696.57-1.556.57-2.582 0-1.027-.185-1.888-.558-2.583-.372-.696-.865-1.217-1.477-1.565a3.91 3.91 0 0 0-1.962-.521 3.95 3.95 0 0 0-1.986.521c-.613.348-1.11.869-1.491 1.565-.381.695-.57 1.556-.57 2.583 0 1.026.189 1.886.57 2.582.38.695.873 1.217 1.478 1.565a3.85 3.85 0 0 0 1.95.521zm0 1.788c-1.16 0-2.202-.265-3.13-.795a5.743 5.743 0 0 1-2.197-2.247c-.538-.969-.807-2.107-.807-3.414 0-1.309.273-2.447.82-3.415a5.793 5.793 0 0 1 2.222-2.248c.935-.529 1.983-.794 3.14-.794 1.16 0 2.203.265 3.13.794a5.741 5.741 0 0 1 2.198 2.248c.537.968.807 2.106.807 3.415 0 1.307-.274 2.445-.82 3.414a5.804 5.804 0 0 1-2.222 2.247c-.936.53-1.983.795-3.141.795zm15.073-1.813c.828 0 1.556-.194 2.186-.584a4.109 4.109 0 0 0 1.489-1.626c.364-.696.546-1.506.546-2.434 0-.927-.182-1.738-.546-2.434a4.116 4.116 0 0 0-1.49-1.626c-.629-.389-1.358-.584-2.186-.584-.826 0-1.555.195-2.184.584a4.113 4.113 0 0 0-1.49 1.626c-.365.696-.547 1.507-.547 2.434 0 .928.183 1.738.547 2.434a4.106 4.106 0 0 0 1.49 1.626c.629.39 1.358.584 2.184.584zm-6.356 6.978v-17.78h1.886l.198 2.036c.398-.596.965-1.134 1.703-1.614.736-.48 1.674-.72 2.817-.72 1.225 0 2.293.282 3.203.844a5.788 5.788 0 0 1 2.123 2.309c.505.977.758 2.086.758 3.328s-.253 2.347-.758 3.315a5.676 5.676 0 0 1-2.135 2.284c-.918.555-1.99.832-3.215.832-1.01 0-1.91-.207-2.696-.62a4.302 4.302 0 0 1-1.8-1.738v7.524h-2.084zm20.759-16.315c-.993 0-1.875.302-2.645.906-.77.605-1.212 1.486-1.329 2.645h7.748c-.049-1.109-.43-1.978-1.142-2.608-.712-.629-1.589-.943-2.632-.943zm0 11.149c-1.176 0-2.219-.269-3.129-.807a5.71 5.71 0 0 1-2.148-2.247c-.522-.96-.783-2.094-.783-3.402 0-1.291.257-2.421.771-3.39a5.602 5.602 0 0 1 2.147-2.26c.919-.537 1.983-.806 3.192-.806 1.191 0 2.222.269 3.092.806a5.484 5.484 0 0 1 1.999 2.124c.463.877.695 1.821.695 2.831 0 .182-.005.364-.013.546-.009.183-.012.389-.012.621h-9.809c.05.943.269 1.726.658 2.347.389.62.877 1.088 1.465 1.403a3.923 3.923 0 0 0 1.875.471c.86 0 1.581-.198 2.16-.595a3.419 3.419 0 0 0 1.267-1.615h2.061a5.57 5.57 0 0 1-1.9 2.844c-.936.753-2.132 1.129-3.588 1.129zm8.219-.297V13.839h1.888l.124 2.21a4.459 4.459 0 0 1 1.714-1.837c.744-.448 1.588-.671 2.532-.671 1.457 0 2.62.443 3.489 1.328.869.887 1.304 2.248 1.304 4.085v7.202h-2.086v-6.978c0-2.566-1.06-3.849-3.179-3.849-1.059 0-1.941.385-2.644 1.155-.704.77-1.056 1.866-1.056 3.29v6.382h-2.086zm13.832 0V8.277h2.086v7.673a4.382 4.382 0 0 1 1.763-1.776 5.037 5.037 0 0 1 2.483-.633c1.424 0 2.566.443 3.427 1.328.86.887 1.291 2.248 1.291 4.085v7.202h-2.061v-6.978c0-2.566-1.035-3.849-3.104-3.849-1.076 0-1.979.385-2.706 1.155-.73.77-1.093 1.866-1.093 3.29v6.382h-2.086zm18.251-1.464c.794 0 1.478-.207 2.048-.621a3.953 3.953 0 0 0 1.304-1.614 5.021 5.021 0 0 0 .447-2.086v-.025h-3.153c-1.226 0-2.091.212-2.596.634-.505.422-.757.947-.757 1.577 0 .645.235 1.163.708 1.552.472.389 1.138.583 1.999.583zm-.323 1.763c-1.027 0-1.879-.174-2.558-.521-.679-.348-1.183-.811-1.515-1.391a3.728 3.728 0 0 1-.497-1.887c0-1.258.481-2.227 1.441-2.905.96-.679 2.267-1.018 3.924-1.018h3.327v-.149c0-1.077-.281-1.892-.844-2.447-.563-.554-1.316-.831-2.26-.831-.811 0-1.511.202-2.098.608-.588.406-.956.998-1.106 1.776h-2.136c.083-.894.386-1.648.908-2.26a5.06 5.06 0 0 1 1.949-1.404 6.422 6.422 0 0 1 2.483-.483c1.722 0 3.017.459 3.886 1.378.869.918 1.304 2.14 1.304 3.663v7.573h-1.863l-.124-2.21a4.874 4.874 0 0 1-1.527 1.776c-.671.488-1.568.732-2.694.732zm14.974-1.864c.845 0 1.593-.199 2.247-.596a4.381 4.381 0 0 0 1.565-1.639c.388-.695.584-1.498.584-2.409 0-.91-.196-1.713-.584-2.409a4.197 4.197 0 0 0-1.565-1.614c-.654-.38-1.402-.571-2.247-.571-.828 0-1.573.191-2.235.571a4.17 4.17 0 0 0-1.577 1.614c-.389.696-.584 1.499-.584 2.409 0 .911.195 1.714.584 2.409a4.35 4.35 0 0 0 1.577 1.639c.662.397 1.407.596 2.235.596zm.198 7.326c-1.076 0-2.06-.187-2.955-.559a5.753 5.753 0 0 1-2.222-1.602c-.587-.695-.973-1.54-1.155-2.533h2.062a3.88 3.88 0 0 0 1.527 2.086c.753.53 1.659.795 2.719.795 1.208 0 2.226-.389 3.055-1.167.827-.779 1.241-1.937 1.241-3.477v-1.788c-.398.695-.993 1.325-1.788 1.887-.795.563-1.796.844-3.005.844-1.158 0-2.206-.281-3.141-.844a6.226 6.226 0 0 1-2.235-2.309c-.555-.976-.832-2.077-.832-3.303 0-1.225.277-2.321.832-3.29a6.137 6.137 0 0 1 2.247-2.285c.944-.554 1.995-.831 3.154-.831 1.093 0 2.053.244 2.881.732.827.488 1.456 1.08 1.887 1.776l.198-2.21h1.888v11.596c0 1.341-.274 2.496-.82 3.465a5.64 5.64 0 0 1-2.259 2.234c-.96.522-2.053.783-3.279.783zm14.949-16.613c-.993 0-1.875.302-2.645.906-.769.605-1.212 1.486-1.328 2.645h7.747c-.048-1.109-.43-1.978-1.141-2.608-.712-.629-1.59-.943-2.633-.943zm0 11.149c-1.176 0-2.219-.269-3.129-.807a5.715 5.715 0 0 1-2.147-2.247c-.522-.96-.783-2.094-.783-3.402 0-1.291.256-2.421.77-3.39a5.604 5.604 0 0 1 2.148-2.26c.918-.537 1.983-.806 3.191-.806 1.192 0 2.222.269 3.092.806a5.484 5.484 0 0 1 1.999 2.124c.463.877.695 1.821.695 2.831 0 .182-.004.364-.013.546-.008.183-.011.389-.011.621h-9.81c.05.943.269 1.726.658 2.347.389.62.877 1.088 1.465 1.403a3.923 3.923 0 0 0 1.875.471c.86 0 1.581-.198 2.161-.595a3.417 3.417 0 0 0 1.266-1.615h2.061a5.568 5.568 0 0 1-1.899 2.844c-.936.753-2.132 1.129-3.589 1.129zm8.22-.297V13.839h1.887l.124 2.21a4.459 4.459 0 0 1 1.714-1.837c.745-.448 1.588-.671 2.533-.671 1.456 0 2.619.443 3.488 1.328.869.887 1.304 2.248 1.304 4.085v7.202h-2.086v-6.978c0-2.566-1.06-3.849-3.178-3.849-1.06 0-1.941.385-2.645 1.155-.703.77-1.055 1.866-1.055 3.29v6.382h-2.086zM66.373 46.644c.794 0 1.477-.207 2.048-.62a3.96 3.96 0 0 0 1.304-1.615 5.04 5.04 0 0 0 .448-2.086v-.025h-3.154c-1.226 0-2.09.211-2.596.634-.505.422-.757.947-.757 1.576 0 .646.236 1.164.708 1.553.472.39 1.139.583 1.999.583zm-.323 1.763c-1.028 0-1.88-.174-2.557-.52-.68-.349-1.184-.812-1.517-1.392a3.74 3.74 0 0 1-.495-1.887c0-1.258.48-2.227 1.44-2.906.96-.678 2.268-1.018 3.923-1.018h3.329v-.149c0-1.076-.282-1.89-.846-2.446-.561-.554-1.314-.832-2.26-.832-.81 0-1.51.203-2.096.61-.589.404-.957.996-1.107 1.774h-2.136c.084-.894.386-1.647.907-2.26a5.068 5.068 0 0 1 1.95-1.403 6.43 6.43 0 0 1 2.483-.484c1.722 0 3.017.46 3.886 1.38.87.917 1.305 2.138 1.305 3.661v7.574h-1.864l-.123-2.21a4.892 4.892 0 0 1-1.528 1.776c-.67.488-1.569.732-2.694.732zm13.484-.3c-1.127 0-2.012-.272-2.658-.82-.645-.545-.968-1.53-.968-2.954v-6.78h-2.136v-1.762h2.136l.272-2.955h1.814v2.955h3.626v1.763h-3.626v6.779c0 .778.157 1.304.472 1.577.315.273.87.41 1.665.41h1.29v1.788h-1.888zm9.635-1.488c.711 0 1.373-.174 1.986-.52.613-.349 1.11-.87 1.491-1.566.38-.695.57-1.556.57-2.582 0-1.027-.186-1.888-.559-2.583-.372-.695-.865-1.217-1.477-1.564a3.911 3.911 0 0 0-1.962-.522 3.95 3.95 0 0 0-1.986.522c-.613.347-1.11.87-1.49 1.564-.382.695-.57 1.556-.57 2.583 0 1.026.188 1.887.57 2.582.38.695.872 1.217 1.477 1.565a3.85 3.85 0 0 0 1.95.521zm0 1.788c-1.159 0-2.202-.265-3.129-.795-.928-.529-1.66-1.279-2.198-2.247s-.807-2.106-.807-3.414c0-1.308.273-2.446.82-3.415a5.797 5.797 0 0 1 2.222-2.247c.935-.53 1.983-.795 3.141-.795 1.16 0 2.202.265 3.13.795a5.745 5.745 0 0 1 2.197 2.247c.537.97.807 2.107.807 3.415 0 1.308-.273 2.446-.82 3.414a5.797 5.797 0 0 1-2.222 2.247c-.936.53-1.983.795-3.14.795zm8.717-.298V35.792h1.887l.149 1.788a4.181 4.181 0 0 1 1.589-1.54c.662-.364 1.407-.546 2.235-.546.977 0 1.817.198 2.521.596.703.397 1.245 1.001 1.627 1.813a4.702 4.702 0 0 1 1.775-1.763 4.842 4.842 0 0 1 2.446-.646c1.473 0 2.648.443 3.526 1.328.878.886 1.316 2.248 1.316 4.085v7.202h-2.061v-6.978c0-1.275-.257-2.235-.77-2.88-.513-.646-1.25-.969-2.21-.969-.993 0-1.817.385-2.47 1.155-.655.77-.982 1.866-.982 3.29v6.382h-2.086v-6.978c0-1.275-.257-2.235-.769-2.88-.514-.646-1.25-.969-2.21-.969-.978 0-1.792.385-2.447 1.155-.654.77-.98 1.866-.98 3.29v6.382h-2.086zm22.075-.002h2.086V35.791h-2.086v12.317zm1.043-15.048c-.414 0-.758-.136-1.031-.41-.273-.273-.409-.617-.409-1.03 0-.398.136-.729.409-.994.273-.265.617-.396 1.031-.396.397 0 .736.131 1.018.396.281.265.422.596.422.994 0 .413-.141.758-.422 1.03a1.41 1.41 0 0 1-1.018.41zm9.957 15.348c-1.175 0-2.23-.27-3.166-.807a5.794 5.794 0 0 1-2.21-2.26c-.538-.968-.807-2.098-.807-3.39 0-1.29.269-2.42.807-3.389a5.8 5.8 0 0 1 2.21-2.26c.936-.538 1.991-.807 3.166-.807 1.457 0 2.687.381 3.688 1.142 1.001.762 1.634 1.78 1.9 3.055h-2.136a2.737 2.737 0 0 0-1.217-1.776c-.645-.422-1.399-.633-2.259-.633-.696 0-1.35.174-1.962.521-.613.348-1.11.87-1.491 1.565-.38.695-.57 1.556-.57 2.582 0 1.027.19 1.888.57 2.583.381.695.878 1.221 1.491 1.577a3.839 3.839 0 0 0 1.962.534c.86 0 1.614-.21 2.259-.633.646-.422 1.051-1.022 1.217-1.8h2.136c-.249 1.241-.878 2.251-1.888 3.03-1.01.777-2.243 1.166-3.7 1.166zm12.839 0c-1.474 0-2.699-.373-3.676-1.118-.976-.744-1.548-1.754-1.713-3.029h2.136c.132.646.476 1.204 1.03 1.676.555.472 1.304.708 2.247.708.878 0 1.524-.186 1.938-.559.413-.372.62-.815.62-1.328 0-.746-.269-1.242-.807-1.49-.538-.249-1.296-.472-2.272-.67a12.787 12.787 0 0 1-1.986-.572 4.506 4.506 0 0 1-1.664-1.055c-.448-.456-.67-1.056-.67-1.8 0-1.076.4-1.958 1.204-2.645.802-.687 1.89-1.03 3.265-1.03 1.308 0 2.379.326 3.216.98.835.654 1.319 1.585 1.452 2.794h-2.06c-.083-.63-.353-1.122-.808-1.478-.455-.356-1.063-.534-1.825-.534-.745 0-1.32.158-1.726.472a1.495 1.495 0 0 0-.608 1.241c0 .497.261.886.782 1.167.522.282 1.23.522 2.123.721.762.166 1.487.368 2.173.608.687.24 1.25.596 1.689 1.068.438.472.658 1.155.658 2.05.016 1.108-.402 2.023-1.254 2.743-.853.72-2.008 1.08-3.464 1.08z" fill="currentColor"></path></svg>