<svg xmlns="http://www.w3.org/2000/svg" xmlns:xlink="http://www.w3.org/1999/xlink" viewBox="0 0 400 190.3305107894018">
  <g fill-rule="evenodd">
    <path d="M88.034.336c-1.637.999-3.266 3.52-4.569 7.074-.844 2.301-1.691 4.925-1.968 6.09-.076.321-.284 1.183-.463 1.917a80.37 80.37 0 00-.532 2.333c-.114.55-.265 1.225-.335 1.5-.41 1.594-1.338 6.575-1.834 9.833-.083.55-.232 1.488-.331 2.084-.098.595-.291 1.983-.43 3.083-.353 2.811-.52 4.12-.734 5.75-.102.779-.257 2.073-.345 2.875l-.328 3c-.307 2.809-.672 6.841-1.013 11.208-.29 3.709-.381 11.53-.147 12.667.113.55.2 1.188.194 1.417-.029 1.066.959 3.649 1.977 5.166.594.885 3.011 3.334 3.291 3.334.075 0 .282.131.46.291.353.32 2.037 1.375 2.192 1.375.053 0 .479.252.947.561.77.507 4.936 2.606 5.173 2.606.054 0 .453.157.888.35.911.404 1.052.46 2.627 1.047 1.523.568 1.51.569 2.981-.355 1.408-.885 1.56-1.126 1.206-1.913-.135-.3-.514-1.134-.843-1.852-.329-.719-.598-1.378-.598-1.465 0-.164-6.46-4.482-7.23-4.833-.24-.11-.437-.257-.437-.328 0-.071-.149-.176-.332-.234a1.582 1.582 0 01-.542-.314c-.115-.114-.584-.426-1.042-.693a16.18 16.18 0 01-1-.614 36.178 36.178 0 00-1.25-.824c-.596-.382-1.29-.883-1.542-1.114l-.458-.42V56.056l-.409-.219c-1.257-.672-1.175-3.014.135-3.821 2.412-1.487 4.993 1.587 3.002 3.577l-.562.563v14.018l.792.49c.435.27.871.558.969.641.097.082.355.245.573.362.217.116.475.277.573.356.097.08.627.43 1.177.777.55.348 1.993 1.285 3.207 2.083 2.774 1.823 2.686 1.84 1.687-.341-.786-1.716-1.461-3.18-2.043-4.437-.303-.654-.668-1.451-.813-1.772a250.333 250.333 0 00-1.883-4.067c-.202-.41-.239-3.001-.239-16.886V30.978l-.569-.537c-1.805-1.703-.286-4.493 2.193-4.028 1.841.346 2.383 3.144.809 4.175l-.433.284v16.149c0 15.54.012 16.176.319 16.856.175.388.596 1.306.936 2.04.339.733.727 1.587.86 1.898.307.716.414.614 1.472-1.398.434-.825.855-1.572.935-1.659.08-.087.145-4.154.145-9.037v-8.88l-.425-.279c-1.274-.834-1.234-2.952.073-3.882 2.404-1.712 5.17 1.971 2.852 3.797l-.5.394v18.161l-.475.859c-.262.472-.637 1.14-.834 1.484-.552.964-.924 1.632-1.423 2.556l-.458.848.78 1.736a222.55 222.55 0 001.44 3.131c.957 2.024 1.637 3.519 1.637 3.598 0 .061.832 1.888 1.623 3.563.349.741.556.791 1.587.392a26.66 26.66 0 011.873-.627c1.472-.426 1.489-.454 1.27-2.097-.183-1.375-.402-4.456-.696-9.808-.238-4.328-.481-12.77-.662-23-.272-15.434-.658-21.787-1.636-26.917l-.35-1.833c-.216-1.136-.764-3.546-1.004-4.417-.808-2.932-1.535-5.137-2.169-6.583a12.185 12.185 0 01-.418-1.084C95.217 2.28 90.599-1.228 88.034.336m46.299 1.521c-.909.25-1.998.713-1.999.851 0 .069-.088.125-.194.125-.171 0-1.241.753-2.469 1.739-1.294 1.037-4.204 4.145-5.551 5.928a96.217 96.217 0 01-1.083 1.417c-.076.091-.54.766-1.032 1.5-.492.733-.94 1.37-.996 1.416-.092.076-1.413 2.275-2.353 3.917-1.303 2.276-2.808 5.229-3.992 7.833-.292.642-.673 1.462-.847 1.823-.175.361-.317.722-.317.803 0 .08-.187.556-.417 1.057-.229.501-.416 1.006-.416 1.122a.638.638 0 01-.144.37c-.079.087-.459 1.021-.843 2.075-.385 1.054-.767 2.067-.85 2.25-.083.184-.275.746-.427 1.25-.152.504-.493 1.592-.758 2.417-.75 2.334-.782 2.438-1.07 3.5l-.409 1.5c-.563 2.039-.994 3.853-1.169 4.917a94.888 94.888 0 01-.347 2c-1.335 7.036-1.514 14.339-.694 28.317.08 1.371.315 1.778.915 1.587.205-.065 1.119-.163 2.031-.219l1.658-.102.136-.5c.074-.275.213-1.25.308-2.167.455-4.383.556-5.338 1-9.416.182-1.668.449-4.153.672-6.25.088-.825.272-2.625.409-4 .136-1.375.326-3.213.42-4.084.168-1.546.325-3.043.641-6.083.196-1.891.338-2.744.528-3.167.082-.183.632-1.496 1.222-2.916 1.586-3.819 2.173-5.2 2.911-6.847.188-.42.5-1.17.692-1.667.192-.497.459-1.147.592-1.445.225-.503.356-.805.974-2.25l.734-1.708c.276-.642.853-2.029 1.283-3.083.429-1.054.883-2.127 1.008-2.385.201-.414.19-.528-.097-1-1.582-2.594 2.45-4.837 4.132-2.299.836 1.262-.168 3.517-1.567 3.517-.226 0-.422.22-.634.708a618.296 618.296 0 00-3.271 7.709c-.382.916-.843 2.004-1.025 2.416-.181.413-.426.975-.543 1.25a98.93 98.93 0 01-.566 1.29c-.194.435-.352.836-.352.892 0 .097-.185.536-.834 1.985-.792 1.769-2.333 5.417-2.333 5.524 0 .051-.104.329-.23.617-.26.593-.508 2.586-1.358 10.901-.097.948-.175 1 2.202-1.451 2.018-2.081 2.121-2.222 2.826-3.875.991-2.324.973-2.283 1.355-3.133.71-1.578.999-2.264 1.123-2.666.07-.229.297-.792.503-1.25a151.105 151.105 0 001.323-3c.61-1.459.601-1.39.254-1.96-1.2-1.967 1.302-4.34 3.295-3.125 1.839 1.122 1.514 3.604-.572 4.366-.562.205-.615.284-1.314 1.969a115.759 115.759 0 01-1.24 2.916c-.203.459-.473 1.077-.601 1.375l-.465 1.084c-.128.298-.4.954-.604 1.458-.533 1.321-.783 1.902-1.789 4.167-.231.52-1.326 1.765-3.582 4.07l-3.249 3.321-.107 1.263c-.124 1.471-.274 2.9-.943 9.012-.085.779-.271 2.617-.412 4.084a1769.29 1769.29 0 01-.399 4.083c-.178 1.793-.21 1.735 1.116 1.99.615.119 1.53.329 2.035.467 1.917.524 1.869.537 2.399-.651.616-1.384.813-1.841 1.352-3.139.247-.596.582-1.384.744-1.75.163-.367.501-1.155.752-1.75.252-.596.591-1.384.754-1.75.73-1.638.832-1.898.832-2.117a.68.68 0 01.142-.392c.078-.087.497-1.058.931-2.158.434-1.1.885-2.225 1.002-2.5.253-.591.805-2.006 1.725-4.417.367-.962.871-2.275 1.121-2.916.524-1.35 1.999-5.542 2.844-8.084.319-.962.651-1.9.737-2.083.086-.183.423-1.196.75-2.25 1.311-4.225 1.641-5.281 1.876-6 .135-.413.311-.994.392-1.292.081-.298.217-.785.304-1.083l.322-1.125c.563-1.996 2.612-10.009 2.856-11.167.087-.412.312-1.462.5-2.333.431-1.997.723-3.492 1.073-5.5.151-.871.341-1.921.421-2.333.08-.413.232-1.35.338-2.084a58.83 58.83 0 01.346-2.133c1.134-5.908-1.934-10.304-6.347-9.093m156 93.143v13.167h6.167v-9.5h9.667v-5.334H296.5v-6h13v-2.647c0-2.604-.006-2.649-.375-2.748-.206-.055-4.519-.101-9.583-.102l-9.209-.003V95m22.033-.875c.037 8.994.104 12.403.248 12.708.108.23.24.623.294.875l.098.459h6.699l-.243-.375c-.134-.207-.424-.825-.645-1.375l-.4-1-.049-11.792-.049-11.792h-6.005l.052 12.292m15.384-5.61c-4.572 1.017-6.426 3.888-6.414 9.934.015 7.254 2.87 10.373 9.497 10.373 4.072 0 8.526-2.118 8.134-3.867-.028-.124.128-.596.346-1.049.594-1.234.642-1.389.839-2.688.792-5.232-.564-10.075-3.263-11.659-1.81-1.062-6.598-1.609-9.139-1.044m13.583.56c0 .134.07.415.155.625.085.211.505 1.508.932 2.883.613 1.977 2.121 6.713 3.579 11.25l.76 2.375.625 1.959h7.245l.088-.459c.049-.252.163-.721.254-1.041.091-.321.319-1.146.505-1.834a419.43 419.43 0 011.029-3.75c.078-.275.293-1.044.478-1.709.49-1.769.608-1.917.82-1.027.097.405.337 1.299.535 1.986.798 2.779.935 3.272 1.309 4.694.184.702.457 1.695.606 2.208l.271.932h7.104l.341-.875c.187-.482.417-1.138.51-1.459.317-1.094 2.704-8.637 4.51-14.25.354-1.1.693-2.168.755-2.375l.112-.375h-6.166l-.365 1.209c-.201.664-.497 1.62-.659 2.125a82.526 82.526 0 00-.579 1.916 88.731 88.731 0 01-.896 3c-.174.55-.559 1.773-.855 2.718-.571 1.82-.62 1.878-.836 1.004a69.518 69.518 0 00-.495-1.805 70.476 70.476 0 01-.521-1.917 50.384 50.384 0 00-.508-1.833 235.226 235.226 0 01-1.57-5.462l-.265-.963-2.606.046-2.606.046-.558 1.916c-.6 2.06-.886 3.083-1.375 4.917a91.48 91.48 0 01-.663 2.333 98.938 98.938 0 00-.66 2.304c-.328 1.211-.506 1.557-.506.982 0-.194-.071-.526-.158-.736-.184-.449-.873-2.679-2.254-7.3-.953-3.188-1.131-3.766-1.27-4.125-.184-.477-6.152-.606-6.152-.133m-8.808 4.161c1.417.592 1.979 3.064 1.61 7.086-.238 2.604-.704 3.338-2.333 3.67-3.497.715-4.932-1.697-4.321-7.264.259-2.361.57-3.038 1.602-3.494.668-.295 2.734-.294 3.442.002M92.75 104.241c-.55.203-1.225.458-1.5.568-.275.11-.725.283-1 .384-1.113.41-1.75.711-1.75.826 0 .067-.231.172-.513.234-1.067.234-6.775 3.411-7.32 4.073-.046.056-.475.385-.954.732a9.303 9.303 0 00-2.693 3.06c-.294.531-.668 1.19-.832 1.465-.301.506-.359.671-.76 2.167-.641 2.388-.762 9.185-.273 15.333.613 7.706 1.252 13.936 2.001 19.5.087.642.237 1.879.334 2.75.097.871.247 1.996.333 2.5.086.504.238 1.442.339 2.084.1.641.289 1.804.419 2.583l.334 2c.162.964 1.162 6.007 1.422 7.167.072.32.22 1.033.328 1.583.109.55.303 1.394.433 1.875l.492 1.833c.141.527.328 1.184.415 1.459.669 2.115 1.208 3.731 1.36 4.083.099.229.239.567.312.75 2.359 5.926 4.797 7.932 7.906 6.507.746-.342 3.25-2.789 3.25-3.175 0-.137.062-.249.136-.249.642 0 3.422-7.431 4.521-12.083.108-.458.263-1.096.345-1.417.082-.321.227-1.033.323-1.583s.248-1.338.339-1.75c.948-4.31 1.39-11.494 1.668-27.083.301-16.906.813-28.858 1.443-33.685l.089-.684-2.1-.691c-2.604-.856-2.459-.865-2.929.185-.215.481-.612 1.362-.884 1.958a371.748 371.748 0 00-1.496 3.333c-.142.321-.64 1.392-1.106 2.379-.467.988-.849 1.828-.849 1.868 0 .039-.227.548-.505 1.129l-.505 1.057.565 1.076a96.802 96.802 0 002.051 3.709l.561.967v18.184l.402.316c1.401 1.102 1.285 3.032-.238 3.96-2.415 1.472-4.787-1.948-2.671-3.851l.507-.456v-17.467l-.666-1.227a121.34 121.34 0 01-1.03-1.935c-.2-.39-.42-.709-.489-.709-.125 0-1.181 2.136-1.855 3.75-.191.459-.411.905-.487.992-.201.228-.18 32.758.021 32.758.088 0 .318.169.513.375a2.377 2.377 0 01-2.629 3.874c-1.585-.634-1.838-3.301-.387-4.077.342-.183.342-.211.342-16.662 0-15.873.012-16.502.318-17.119.175-.352.448-.941.608-1.307.159-.367.568-1.267.907-2a389.534 389.534 0 001.789-3.917c.228-.504.623-1.367.879-1.917 1.354-2.912 1.337-2.838.583-2.492-.467.215-8.417 5.363-8.875 5.747-.161.135-.209 1.779-.209 7.171v6.996l.509.456c1.186 1.062.862 3.088-.604 3.783-2.419 1.149-4.552-1.897-2.656-3.793l.585-.584v-7.318c0-5.602.049-7.381.208-7.585.195-.25 9.382-6.315 10.292-6.794.229-.121.454-.265.5-.32.185-.222 1.164-.85 1.326-.85.096 0 .174-.066.174-.146 0-.081.234-.244.521-.363.508-.21.826-.759 2.065-3.574.562-1.277.539-1.331-.982-2.252-.516-.313-.938-.628-.938-.7 0-.239-1.067-.097-2.083.276m23.333 3.924a46.38 46.38 0 01-2.122.498c-1.189.24-1.139.134-.947 2.013.088.866.27 2.699.404 4.074s.322 3.212.418 4.083c.096.871.245 2.259.331 3.084.086.825.236 2.212.334 3.083.097.871.233 2.167.303 2.879l.126 1.296 2.41 2.444c4.532 4.594 4.068 4.046 4.708 5.548.137.32.445 1.016.684 1.546.239.53.435 1 .435 1.043 0 .088.728 1.826 2.601 6.202l.465 1.084.604 1.416c.23.544.473.876.642.876 1.771.004 2.641 2.748 1.291 4.07-1.906 1.867-5.129-.47-3.756-2.722.273-.447.309-.644.171-.917a70.654 70.654 0 01-.945-2.182 630.81 630.81 0 00-.985-2.333 96.063 96.063 0 01-.586-1.417 96.57 96.57 0 00-.603-1.458l-1-2.333c-.147-.344-.402-.925-.566-1.292-.164-.367-.431-.967-.592-1.333-.271-.616-4.127-4.75-4.43-4.75-.131 0-.094.608.194 3.208l.321 2.917.351 3.208c.106.962.297 1.986.424 2.275.128.289.232.571.232.627 0 .056.159.457.353.891.194.435.448 1.015.565 1.29.118.275.379.875.582 1.334.465 1.051.697 1.602 1.828 4.333.167.403.462 1.097 1.172 2.75l.749 1.75c.117.275.371.855.565 1.29.194.434.353.833.353.886 0 .052.187.505.416 1.006.23.501.417.944.417.985 0 .04.196.507.435 1.036.239.53.53 1.189.647 1.464.117.275.371.855.565 1.29.194.434.353.866.353.96 0 .094.408.351.906.571 1.476.653 2.031 2.226 1.216 3.446-1.664 2.49-5.677.239-4.122-2.312.37-.607.439-.315-.647-2.745-.194-.435-.353-.833-.353-.886 0-.053-.187-.506-.417-1.007-.229-.501-.416-.944-.416-.984 0-.04-.196-.507-.435-1.037-.239-.53-.53-1.188-.646-1.463-.418-.988-1.423-3.377-2.421-5.75a265.818 265.818 0 00-1.239-2.917l-.635-1.416c-.226-.505-.47-1.104-.541-1.334-.071-.229-.315-.829-.541-1.333a89.419 89.419 0 01-1.047-2.417c-.176-.424-.282-1.091-.504-3.166l-.34-3.167a758.62 758.62 0 01-.735-7.083 791.004 791.004 0 00-.745-7.209 831.751 831.751 0 00-.677-6.166 570.012 570.012 0 01-.658-6.269c-.209-2.062-.398-2.774-.688-2.595-.102.063-.997-.021-1.989-.187-2.212-.369-2.326-.315-2.326 1.101 0 .532-.069 1.516-.154 2.188-1.228 9.705-.044 25.85 2.489 33.97.072.229.295.979.496 1.667.588 2.011.7 2.371 1.012 3.25.163.458.447 1.32.63 1.916.337 1.096 1.101 3.304 1.356 3.917.076.183.295.689.488 1.123.192.435.35.888.35 1.009 0 .12.063.289.14.376.077.087.238.421.358.742.595 1.589 1.347 3.238 3.04 6.667 1.018 2.062 1.895 3.787 1.948 3.833.106.091.813 1.36 1.09 1.957.096.206.23.374.299.375.068.001.125.114.125.251 0 .138.066.25.147.25.081 0 .184.142.229.315.083.315 2.679 4.243 3.078 4.656.117.121.213.271.213.333.001.062.207.34.458.618.252.277.718.84 1.036 1.25 1.839 2.372 4.49 4.918 6.567 6.305 5.957 3.98 10.632.124 9.282-7.657-.086-.497-.243-1.465-.348-2.153a78.463 78.463 0 00-.331-2c-.077-.412-.218-1.2-.314-1.75-.386-2.207-1.053-5.696-1.179-6.167a34.8 34.8 0 01-.337-1.5 19.63 19.63 0 00-.335-1.416 20.814 20.814 0 01-.34-1.417 46.072 46.072 0 00-.451-1.917 84.678 84.678 0 01-.38-1.5 41.284 41.284 0 00-.328-1.25 25.795 25.795 0 01-.347-1.416 29.673 29.673 0 00-.508-1.917 306.64 306.64 0 01-.688-2.333c-.502-1.732-.953-3.22-1.287-4.25a83.411 83.411 0 01-.588-1.917c-.347-1.194-2.293-7.089-2.646-8.015a124.26 124.26 0 01-.853-2.402c-.591-1.709-1.147-3.247-1.417-3.916-.074-.184-.375-.971-.669-1.75a59.39 59.39 0 00-.754-1.917 19.635 19.635 0 01-.498-1.333 21.506 21.506 0 00-.494-1.334 36.101 36.101 0 01-.497-1.25c-.292-.776-.469-1.196-1.069-2.54-.194-.434-.352-.888-.352-1.008a.66.66 0 00-.14-.377c-.077-.087-.238-.421-.357-.741-.2-.536-.479-1.223-1.272-3.125-.163-.39-.369-.709-.458-.709-.089 0-.113-.049-.053-.109.061-.061.025-.212-.078-.337a1.087 1.087 0 01-.211-.515c-.012-.159-.152-.57-.31-.914a54.126 54.126 0 01-.519-1.166l-1.122-2.625c-1.132-2.65-.977-2.549-3.064-2.002" fill="#64bc44"/>
    <path d="M397.22 75.865c-.753.364-.708 2.688.057 2.979 1.621.616 2.723.014 2.723-1.489 0-1.547-1.263-2.224-2.78-1.49M128.917 81.18c-3.582.789-6.546 3.195-5.357 4.35.5.485 1.22 1.08 1.773 1.465.321.223.621.447.667.497.208.229 1.67 1.166 2.5 1.605.504.266.954.525 1 .576.189.209 4.406 2.16 4.668 2.16.087 0 .704.177 1.37.392 2.324.75 2.627.826 3.368.842 2.252.049 1.583-5.57-1.034-8.694-2.062-2.461-5.962-3.852-8.955-3.193m31.583.169c-6.489.335-9.274 2.867-10.25 9.318-.439 2.906-.247 8.057.392 10.5 1.592 6.08 6.368 8.414 15.191 7.421 4.108-.462 4.399-.551 4.251-1.312-.652-3.354-1.09-5.125-1.244-5.03-1.617.999-8.332.822-9.923-.262-2.831-1.928-3.212-11.094-.568-13.661 1.505-1.461 5.553-1.748 10.181-.721.486.108.497.085.972-2.019.103-.458.26-1.133.348-1.5.383-1.595.306-1.972-.433-2.116-3.152-.613-5.653-.787-8.917-.618m221.417.198c-2.345.388-3.17.686-3.127 1.129.1 1.023.578 2.18.854 2.067 3.192-1.302 8.316-1.149 9.631.288.817.893 1.504 4.141.874 4.132-.128-.001-.982-.111-1.899-.244-7.437-1.078-10.754.846-10.748 6.234.003 2.958.872 4.839 2.581 5.589 1.496.656 1.642.675 5.167.669 3.634-.006 4.827-.179 7.042-1.02l.708-.27v-6.783c0-7.248-.051-7.757-.944-9.421-1.13-2.106-5.526-3.133-10.139-2.37M397 91.417V101h2.667V81.833H397v9.584m-153.167-7.434c-.412.157-1.04.413-1.395.568-.355.156-.675.282-.71.282-.036 0-.383.143-.771.318a86.52 86.52 0 01-1.415.615l-.709.298v2.769h-3V94h3l.001 4.375c0 4.804.162 6.227.889 7.791 1.156 2.484 5.038 3.266 10.36 2.085 1.554-.345 1.527-.29 1.083-2.251a52.972 52.972 0 01-.362-1.806c-.185-1.02-.206-1.052-.623-.95-4.767 1.172-5.348.592-5.348-5.348V94h6v-5.167h-6V86.25c0-1.421-.056-2.577-.125-2.569-.068.008-.462.144-.875.302m-137.25.041c-2.069.377-2.767.541-4.25.998-.871.268-1.733.558-1.916.644-.184.086-.757.338-1.274.561-7.569 3.261-9.422 11.146-3.613 15.373.488.355 1.019.765 1.181.912.162.148.5.374.75.503.251.129.493.273.539.32.197.203 2.728 1.332 2.986 1.332.102 0 .315.067.475.15.159.083.626.242 1.039.353.412.111.938.263 1.167.337.229.074.941.221 1.583.326.642.105 1.573.261 2.069.346 4.962.849 10.3-.589 13.207-3.559 1.504-1.537 1.5-1.522.809-3.37-.789-2.108-1.036-4.38-.658-6.051.407-1.799.558-2.314.849-2.901.497-.999.407-1.315-.724-2.542-.94-1.02-2.568-2.256-2.972-2.256a.165.165 0 01-.163-.167c0-.091-.135-.166-.3-.166-.165 0-.372-.068-.459-.151-.973-.924-7.339-1.535-10.325-.992m-24.666 4.244c-.55.031-1.657.145-2.461.252l-1.46.196.044 6.341.043 6.342 1.5.222c2.761.41 9.79.111 11.292-.481.571-.225.57-.269-.042-1.307-.275-.466-.5-.889-.5-.94 0-.051-.101-.329-.224-.618-1.051-2.459-.726-5.908.761-8.076.578-.842.528-1.113-.23-1.255-.306-.058-1.082-.211-1.723-.34-1.203-.242-5.235-.436-7-.336m95.787.407c-3.983 1.029-5.428 3.361-5.657 9.132-.306 7.683 2.531 11.02 9.37 11.02 6.633 0 9.583-3.2 9.583-10.396 0-6.085-1.83-8.864-6.532-9.922-1.312-.295-5.365-.195-6.764.166m43.796-.084c-2.73.462-3.437.597-3.917.749l-1.25.392-.75.234-.043 9.1-.043 9.101h6.003V94.04l.74-.187c1.03-.259 2.941-.233 3.618.05 1.516.633 1.638 1.262 1.64 8.472l.002 5.792h6l-.006-6.042c-.006-5.717-.151-8.046-.575-9.208-.421-1.154-1.073-2.241-1.742-2.903-.746-.74-.952-.837-3.244-1.534-.695-.211-4.963-.138-6.433.111m37.818-.01c-3.745.82-5.464 3.179-5.976 8.2-.97 9.515 4.563 13.759 14.825 11.373.412-.096.963-.217 1.224-.269.522-.104.531-.373.087-2.468-.501-2.362-.465-2.291-1.129-2.185-6.53 1.042-8.849.433-8.849-2.323v-.576h11.881l-.102-3.041c-.195-5.865-1.461-7.898-5.433-8.729-1.338-.28-5.216-.27-6.528.018m23.765-.085c-.183.077-.587.235-.897.351-.31.117-.779.393-1.041.614l-.478.402v-1.03h-6v19.334h6V95.25l.377-.417c.967-1.069 3.511-1.464 5.831-.905l.458.111v-5.706l-1.958.012c-1.077.006-2.108.074-2.292.151m-88.916 6.962c0 7.294.076 8.069.979 9.941 1.533 3.179 5.116 4.068 11.771 2.92 1.003-.173 1.595-.306 2.833-.636.367-.098.985-.257 1.375-.353l.708-.176V88.833H206.004l-.044 7.125-.043 7.125-1.306.228c-1.535.269-2.97.056-3.635-.538-.86-.766-.877-.907-.943-7.648l-.061-6.292h-5.805v6.625M74.482 89.241c-.048.047-.831.241-1.742.431-.911.191-1.957.416-2.323.5-.367.085-1.182.266-1.811.403-1.714.373-1.606.071-1.606 4.508 0 4.345-.082 4.075 1.333 4.394l1.667.376c3.095.702 4.463.98 4.827.98.467 0 .466-11.538-.002-11.628-.142-.028-.296-.011-.343.036m-69.065.834C1.371 91.28-.832 94.023.352 96.382c1.187 2.363 4.313 3.932 7.856 3.945l1.625.006v-10.5l-1.875.022c-1.031.012-2.175.111-2.541.22m7.289 4.941l.044 5.234 1-.039c3.408-.133 6.736-.349 6.896-.448.282-.174.262-9.163-.021-9.387-.115-.09-1.146-.211-2.292-.268a366.49 366.49 0 01-3.877-.214l-1.794-.111.044 5.233m10.919-4.423c-.069.071-.125 2.058-.125 4.414 0 4.762.006 4.789 1.051 4.593.305-.057 1.674-.176 3.043-.264 1.369-.088 2.846-.21 3.281-.271l.792-.11v-3.883c0-3.615-.021-3.89-.305-3.98-.168-.053-1.387-.167-2.708-.254A242.954 242.954 0 0125 90.572c-.687-.06-1.306-.051-1.375.021m366.167.83l.708.112v6.785l-.625.15-1.542.368c-1.332.318-5.399.272-6.198-.071-1.346-.576-2.036-2.617-1.645-4.861.303-1.741.528-2.013 2.177-2.632.322-.121 6.194.002 7.125.149m-355.25.021c-.158.063-.209.933-.209 3.549 0 2.571.054 3.51.209 3.636.204.167 3.65.051 6.666-.224l1.292-.118v-3.223c0-3.208-.002-3.225-.375-3.309-.847-.191-7.231-.453-7.583-.311m28.091.145c-.049.049-1.393.163-2.986.254-1.593.09-3.03.205-3.192.256-.271.085-.292.341-.25 3.038l.045 2.946 3.417.223c1.879.123 3.679.236 4 .25l.583.027.045-3.541.045-3.542h-.809c-.445 0-.849.04-.898.089m-17.205.371c-.052.053-.095 1.471-.095 3.151v3.056h3.884c2.798 0 3.939-.056 4.083-.2.357-.357.274-5.584-.092-5.773-.322-.166-7.627-.386-7.78-.234m219.158 1.307c.56.367.789.809.916 1.775l.105.791h-3.054c-1.956 0-3.053-.061-3.053-.169 0-1.109.985-2.481 1.922-2.675.959-.199 2.664-.049 3.164.278m-81.569-.072c1.443.496 1.713 1.33 1.72 5.305.008 4.372-.289 5.044-2.42 5.486-1.002.208-2.41.012-3.083-.429-1.556-1.019-1.681-8.467-.168-9.98.543-.543 2.837-.765 3.951-.382M137.5 97.268c-2.665.714-6.141 2.088-8.083 3.197-1.403.801-4.187 2.603-4.417 2.859-.046.051-.44.379-.875.729-1.096.881-1.123 1.617-.091 2.521 5.094 4.465 13.503 2.441 15.539-3.741.166-.504.368-1.089.448-1.299.08-.211.146-1.153.146-2.094 0-2.467-.388-2.783-2.667-2.172" fill="#233343"/>
    <path d="M109.542 108.948c.16.042.423.042.583 0 .16-.042.029-.076-.292-.076-.32 0-.452.034-.291.076m-33.151 5.97c-.106.229-.126.374-.043.323.22-.136.52-.741.366-.74-.072.001-.217.189-.323.417" fill="#70ad5a"/>
  </g>
</svg>
