<?xml version="1.0" encoding="UTF-8" standalone="no"?> <!-- Created with Vectornator for iOS (http://vectornator.io/) --><!DOCTYPE svg PUBLIC "-//W3C//DTD SVG 1.1//EN" "http://www.w3.org/Graphics/SVG/1.1/DTD/svg11.dtd">
<svg height="100%" style="fill-rule:nonzero;clip-rule:evenodd;stroke-linecap:round;stroke-linejoin:round;" xmlns:xlink="http://www.w3.org/1999/xlink" xmlns="http://www.w3.org/2000/svg" xml:space="preserve" width="100%" xmlns:vectornator="http://vectornator.io" version="1.1" viewBox="0 0 144 56">
<metadata>
<vectornator:setting key="DimensionsVisible" value="1"/>
<vectornator:setting key="PencilOnly" value="0"/>
<vectornator:setting key="SnapToPoints" value="0"/>
<vectornator:setting key="OutlineMode" value="0"/>
<vectornator:setting key="CMYKEnabledKey" value="0"/>
<vectornator:setting key="RulersVisible" value="1"/>
<vectornator:setting key="SnapToEdges" value="0"/>
<vectornator:setting key="GuidesVisible" value="1"/>
<vectornator:setting key="DisplayWhiteBackground" value="0"/>
<vectornator:setting key="doHistoryDisabled" value="0"/>
<vectornator:setting key="SnapToGuides" value="1"/>
<vectornator:setting key="TimeLapseWatermarkDisabled" value="0"/>
<vectornator:setting key="Units" value="Points"/>
<vectornator:setting key="DynamicGuides" value="1"/>
<vectornator:setting key="IsolateActiveLayer" value="0"/>
<vectornator:setting key="SnapToGrid" value="0"/>
</metadata>
<defs/>
<g id="Untitled" vectornator:layerName="Untitled">
<g opacity="1">
<path d="M43.9336+4.25474C43.5233+4.50512+43.115+5.13697+42.7884+6.02772C42.5769+6.60442+42.3646+7.26208+42.2952+7.55407C42.2761+7.63452+42.224+7.85057+42.1791+8.03453C42.1318+8.22877+42.0873+8.4237+42.0458+8.61926C42.0172+8.7571+41.9794+8.92628+41.9618+8.99521C41.8591+9.39471+41.6265+10.6431+41.5022+11.4597C41.4814+11.5975+41.444+11.8326+41.4192+11.982C41.3946+12.1311+41.3463+12.479+41.3114+12.7547C41.223+13.4592+41.1811+13.7873+41.1275+14.1958C41.1019+14.3911+41.0631+14.7154+41.041+14.9164L40.9588+15.6683C40.8819+16.3723+40.7904+17.3829+40.7049+18.4774C40.6322+19.407+40.6094+21.3672+40.6681+21.6522C40.6964+21.79+40.7182+21.9499+40.7167+22.0073C40.7094+22.2745+40.957+22.9219+41.2122+23.3021C41.3611+23.5239+41.9668+24.1377+42.037+24.1377C42.0558+24.1377+42.1077+24.1705+42.1523+24.2106C42.2408+24.2908+42.6628+24.5552+42.7017+24.5552C42.715+24.5552+42.8218+24.6184+42.939+24.6958C43.132+24.8229+44.1762+25.349+44.2356+25.349C44.2491+25.349+44.3491+25.3883+44.4581+25.4367C44.6865+25.538+44.7218+25.552+45.1165+25.6991C45.4983+25.8415+45.495+25.8417+45.8637+25.6101C46.2166+25.3883+46.2547+25.3279+46.1659+25.1307C46.1321+25.0555+46.0371+24.8465+45.9547+24.6665C45.8722+24.4863+45.8048+24.3211+45.8048+24.2993C45.8048+24.2582+44.1857+23.176+43.9927+23.088C43.9326+23.0605+43.8832+23.0236+43.8832+23.0058C43.8832+22.988+43.8458+22.9617+43.8+22.9472C43.7499+22.9303+43.7037+22.9035+43.6641+22.8685C43.6353+22.8399+43.5178+22.7617+43.403+22.6948C43.3176+22.6465+43.234+22.5952+43.1523+22.5409C43.0493+22.4699+42.9449+22.401+42.839+22.3344C42.6897+22.2386+42.5157+22.1131+42.4526+22.0552L42.3378+21.9499L42.3378+18.22L42.2353+18.1651C41.9202+17.9967+41.9408+17.4097+42.2691+17.2074C42.8736+16.8347+43.5205+17.6052+43.0215+18.1039L42.8806+18.2451L42.8806+21.7584L43.0792+21.8812C43.1882+21.9489+43.2975+22.0211+43.322+22.0419C43.3463+22.0624+43.411+22.1033+43.4656+22.1326C43.52+22.1617+43.5847+22.202+43.6092+22.2218C43.6335+22.2419+43.7664+22.3296+43.9042+22.4166C44.0421+22.5038+44.4037+22.7386+44.708+22.9387C45.4033+23.3956+45.3812+23.3998+45.1308+22.8532C44.9338+22.4231+44.7647+22.0562+44.6188+21.7411C44.5428+21.5772+44.4514+21.3775+44.415+21.297C44.2608+20.9558+44.1034+20.616+43.9431+20.2777C43.8925+20.1749+43.8832+19.5255+43.8832+16.0455L43.8832+11.9346L43.7406+11.8C43.2882+11.3732+43.6689+10.6739+44.2902+10.7905C44.7516+10.8772+44.8875+11.5785+44.493+11.8369L44.3844+11.9081L44.3844+15.9555C44.3844+19.8504+44.3875+20.0098+44.4644+20.1802C44.5083+20.2774+44.6138+20.5075+44.699+20.6915C44.784+20.8752+44.8812+21.0892+44.9145+21.1672C44.9915+21.3466+45.0183+21.3211+45.2835+20.8168C45.3922+20.61+45.4978+20.4228+45.5178+20.401C45.5379+20.3792+45.5541+19.3599+45.5541+18.136L45.5541+15.9104L45.4476+15.8405C45.1283+15.6315+45.1383+15.1006+45.4659+14.8675C46.0684+14.4384+46.7617+15.3615+46.1807+15.8192L46.0554+15.9179L46.0554+20.4697L45.9364+20.685C45.8707+20.8033+45.7767+20.9707+45.7273+21.0569C45.589+21.2985+45.4957+21.4659+45.3707+21.6975L45.2559+21.9101L45.4514+22.3452C45.5697+22.6077+45.69+22.8692+45.8123+23.1299C46.0521+23.6372+46.2226+24.0119+46.2226+24.0317C46.2226+24.0469+46.4311+24.5049+46.6294+24.9247C46.7168+25.1104+46.7687+25.1229+47.0271+25.0229C47.1816+24.9647+47.3382+24.9123+47.4965+24.8658C47.8655+24.759+47.8697+24.752+47.8148+24.3402C47.769+23.9956+47.7141+23.2234+47.6404+21.882C47.5808+20.7972+47.5199+18.6814+47.4745+16.1174C47.4063+12.2492+47.3096+10.6569+47.0645+9.37115L46.9767+8.91174C46.9226+8.62703+46.7852+8.023+46.7251+7.8047C46.5226+7.06985+46.3404+6.5172+46.1815+6.15479C46.1423+6.06594+46.1073+5.97528+46.0767+5.8831C45.7339+4.74197+44.5764+3.86275+43.9336+4.25474M55.5376+4.63595C55.3098+4.69861+55.0368+4.81466+55.0366+4.84924C55.0366+4.86654+55.0145+4.88057+54.988+4.88057C54.9451+4.88057+54.6769+5.0693+54.3691+5.31642C54.0448+5.57633+53.3155+6.35529+52.9779+6.80217C52.8885+6.92139+52.798+7.03978+52.7065+7.15732C52.6874+7.18013+52.5711+7.3493+52.4478+7.53327C52.3245+7.71698+52.2122+7.87664+52.1982+7.88816C52.1751+7.90721+51.844+8.45835+51.6084+8.86989C51.2819+9.44033+50.9047+10.1805+50.6079+10.8331C50.5347+10.994+50.4392+11.1995+50.3956+11.29C50.3518+11.3805+50.3162+11.471+50.3162+11.4913C50.3162+11.5113+50.2693+11.6306+50.2117+11.7562C50.1543+11.8817+50.1074+12.0083+50.1074+12.0374C50.1055+12.0714+50.0929+12.1038+50.0713+12.1301C50.0515+12.1519+49.9563+12.386+49.86+12.6502C49.7635+12.9144+49.6678+13.1682+49.647+13.2141C49.6262+13.2602+49.5781+13.4011+49.54+13.5274C49.5019+13.6537+49.4164+13.9264+49.35+14.1332C49.162+14.7182+49.154+14.7442+49.0818+15.0104L48.9793+15.3863C48.8382+15.8974+48.7302+16.352+48.6863+16.6187C48.6591+16.7861+48.6301+16.9532+48.5993+17.12C48.2647+18.8834+48.2199+20.7138+48.4254+24.2171C48.4454+24.5607+48.5043+24.6628+48.6547+24.6149C48.7061+24.5986+48.9352+24.574+49.1638+24.56L49.5793+24.5344L49.6134+24.4091C49.6319+24.3402+49.6668+24.0958+49.6906+23.866C49.8046+22.7675+49.8299+22.5281+49.9412+21.506C49.9868+21.088+50.0538+20.4652+50.1096+19.9396C50.1317+19.7328+50.1778+19.2817+50.2122+18.9371C50.2462+18.5924+50.2939+18.1318+50.3174+17.9135C50.3595+17.526+50.3989+17.1508+50.4781+16.3889C50.5272+15.9149+50.5628+15.7011+50.6104+15.5951C50.631+15.5493+50.7688+15.2202+50.9167+14.8643C51.3142+13.9071+51.4613+13.561+51.6463+13.1482C51.6934+13.0429+51.7716+12.855+51.8197+12.7304C51.8678+12.6058+51.9348+12.4429+51.9681+12.3682C52.0245+12.2422+52.0573+12.1665+52.2122+11.8043L52.3962+11.3762C52.4653+11.2153+52.61+10.8677+52.7177+10.6035C52.8252+10.3394+52.939+10.0704+52.9704+10.0058C53.0207+9.902+53.018+9.87343+52.9461+9.75513C52.5496+9.10499+53.5601+8.54282+53.9817+9.17892C54.1912+9.49522+53.9396+10.0604+53.5889+10.0604C53.5323+10.0604+53.4832+10.1155+53.43+10.2378C53.1524+10.88+52.8791+11.5241+52.6102+12.17C52.5145+12.3996+52.3989+12.6722+52.3533+12.7755C52.3079+12.879+52.2465+13.0199+52.2172+13.0888C52.1707+13.1969+52.1234+13.3047+52.0754+13.4121C52.0267+13.5211+51.9871+13.6216+51.9871+13.6357C51.9871+13.66+51.9408+13.77+51.7781+14.1332C51.5796+14.5765+51.1934+15.4909+51.1934+15.5177C51.1934+15.5305+51.1673+15.6001+51.1357+15.6723C51.0706+15.8209+51.0084+16.3205+50.7954+18.4045C50.7711+18.6421+50.7515+18.6551+51.3473+18.0408C51.853+17.5192+51.8789+17.4839+52.0556+17.0696C52.3039+16.4871+52.2994+16.4974+52.3952+16.2844C52.5731+15.8889+52.6455+15.7169+52.6766+15.6162C52.6942+15.5588+52.7511+15.4177+52.8027+15.3029C52.9159+15.0535+53.0265+14.8028+53.1343+14.551C53.2872+14.1853+53.2849+14.2026+53.1979+14.0597C52.8972+13.5668+53.5243+12.972+54.0238+13.2765C54.4847+13.5577+54.4032+14.1798+53.8804+14.3708C53.7396+14.4222+53.7263+14.442+53.5511+14.8643C53.4508+15.1093+53.3472+15.3529+53.2403+15.5951C53.1894+15.7102+53.1217+15.8651+53.0897+15.9397L52.9731+16.2114C52.941+16.2861+52.8729+16.4505+52.8217+16.5768C52.6882+16.9079+52.6255+17.0536+52.3734+17.6212C52.3155+17.7516+52.041+18.0636+51.4756+18.6413L50.6613+19.4737L50.6345+19.7902C50.6034+20.1589+50.5658+20.517+50.3981+22.0489C50.3768+22.2442+50.3302+22.7048+50.2949+23.0725C50.2619+23.4136+50.2286+23.7548+50.1949+24.0958C50.1502+24.5452+50.1422+24.5307+50.4746+24.5946C50.6287+24.6244+50.858+24.677+50.9846+24.7116C51.4651+24.843+51.453+24.8462+51.5859+24.5485C51.7403+24.2016+51.7896+24.0871+51.9247+23.7617C51.9866+23.6124+52.0706+23.4149+52.1112+23.3231C52.1521+23.2311+52.2368+23.0336+52.2997+22.8845C52.3628+22.7351+52.4478+22.5376+52.4887+22.4459C52.6716+22.0354+52.6972+21.9702+52.6972+21.9153C52.6985+21.8797+52.7109+21.8453+52.7328+21.8171C52.7523+21.7953+52.8573+21.5519+52.9661+21.2762C53.0749+21.0005+53.1879+20.7186+53.2172+20.6496C53.2807+20.5015+53.419+20.1469+53.6496+19.5426C53.7416+19.3015+53.8679+18.9724+53.9305+18.8117C54.0619+18.4734+54.4316+17.4227+54.6433+16.7856C54.7233+16.5445+54.8065+16.3094+54.8281+16.2636C54.8496+16.2177+54.9341+15.9638+55.016+15.6996C55.3446+14.6407+55.4273+14.376+55.4862+14.1958C55.5201+14.0923+55.5642+13.9467+55.5845+13.872C55.6048+13.7973+55.6389+13.6753+55.6607+13.6006L55.7414+13.3186C55.8825+12.8184+56.396+10.81+56.4572+10.5198C56.479+10.4165+56.5354+10.1534+56.5825+9.93508C56.6905+9.43457+56.7637+9.05988+56.8514+8.55661C56.8893+8.3383+56.9369+8.07514+56.9569+7.97188C56.977+7.86837+57.0151+7.63353+57.0416+7.44956C57.0673+7.27084+57.0962+7.09262+57.1284+6.91496C57.4126+5.43422+56.6436+4.33244+55.5376+4.63596M94.6363+27.9806L94.6363+31.2807L96.1819+31.2807L96.1819+28.8997L98.6048+28.8997L98.6048+27.5628L96.1819+27.5628L96.1819+26.059L99.4402+26.059L99.4402+25.3956C99.4402+24.743+99.4387+24.7317+99.3462+24.7069C99.2945+24.6931+98.2136+24.6816+96.9444+24.6813L94.6363+24.6806L94.6363+27.9806M100.158+27.7613C100.168+30.0155+100.185+30.8699+100.221+30.9464C100.248+31.004+100.281+31.1025+100.294+31.1657L100.319+31.2807L101.998+31.2807L101.937+31.1867C101.903+31.1348+101.831+30.9799+101.775+30.8421L101.675+30.5915L101.663+27.636L101.65+24.6805L100.145+24.6805L100.158+27.7613M104.014+26.3553C102.868+26.6102+102.404+27.3297+102.407+28.8451C102.41+30.6631+103.126+31.4449+104.787+31.4449C105.807+31.4449+106.924+30.914+106.826+30.4757C106.819+30.4446+106.858+30.3263+106.912+30.2128C107.061+29.9035+107.073+29.8646+107.123+29.5391C107.321+28.2278+106.981+27.0139+106.305+26.6169C105.851+26.3508+104.651+26.2137+104.014+26.3553M107.419+26.4956C107.419+26.5292+107.436+26.5996+107.457+26.6523C107.479+26.7052+107.584+27.0302+107.691+27.3748C107.845+27.8703+108.223+29.0573+108.588+30.1945L108.778+30.7897L108.935+31.2807L110.751+31.2807L110.773+31.1657C110.785+31.1025+110.814+30.985+110.837+30.9048C110.859+30.8243+110.917+30.6175+110.963+30.4451C111.048+30.1314+111.134+29.8181+111.221+29.5052C111.241+29.4363+111.295+29.2436+111.341+29.0769C111.464+28.6335+111.493+28.5964+111.546+28.8195C111.571+28.921+111.631+29.1451+111.681+29.3173C111.881+30.0138+111.915+30.1373+112.009+30.4937C112.055+30.6697+112.123+30.9185+112.161+31.0471L112.228+31.2807L114.009+31.2807L114.094+31.0614C114.141+30.9406+114.199+30.7762+114.222+30.6957C114.302+30.4215+114.9+28.531+115.353+27.1242C115.441+26.8485+115.526+26.5808+115.542+26.529L115.57+26.435L114.024+26.435L113.933+26.738C113.883+26.9044+113.808+27.144+113.768+27.2706C113.718+27.4301+113.669+27.5901+113.623+27.7508C113.552+28.0027+113.477+28.2534+113.398+28.5027C113.355+28.6405+113.258+28.9471+113.184+29.1839C113.041+29.6401+113.028+29.6546+112.974+29.4356C112.935+29.2842+112.894+29.1334+112.85+28.9832C112.804+28.8236+112.761+28.6635+112.72+28.5027C112.68+28.3488+112.638+28.1956+112.592+28.0433C112.456+27.5886+112.325+27.1322+112.199+26.6743L112.132+26.433L111.479+26.4445L110.826+26.456L110.686+26.9362C110.536+27.4525+110.464+27.7089+110.342+28.1686C110.289+28.3642+110.233+28.5592+110.176+28.7533C110.118+28.9451+110.063+29.1376+110.01+29.3308C109.928+29.6343+109.883+29.721+109.883+29.5769C109.883+29.5283+109.865+29.4451+109.844+29.3924C109.798+29.2799+109.625+28.721+109.279+27.5628C109.04+26.7638+108.995+26.6189+108.96+26.529C108.914+26.4094+107.419+26.3771+107.419+26.4956M105.211+27.5385C105.566+27.6869+105.707+28.3064+105.614+29.3145C105.555+29.9671+105.438+30.1511+105.03+30.2343C104.153+30.4135+103.794+29.809+103.947+28.4137C104.012+27.822+104.09+27.6523+104.348+27.538C104.516+27.4641+105.034+27.4643+105.211+27.5385M45.1155+30.2967C44.9777+30.3476+44.8085+30.4115+44.7396+30.4391C44.6707+30.4667+44.5579+30.51+44.489+30.5353C44.21+30.6381+44.0504+30.7135+44.0504+30.7423C44.0504+30.7591+43.9925+30.7855+43.9218+30.801C43.6544+30.8596+42.2237+31.6559+42.0871+31.8218C42.0756+31.8359+41.9681+31.9183+41.848+32.0053C41.5691+32.2079+41.3386+32.4698+41.1731+32.7722C41.0994+32.9053+41.0057+33.0705+40.9646+33.1394C40.8891+33.2662+40.8746+33.3076+40.7741+33.6825C40.6134+34.281+40.5831+35.9846+40.7057+37.5255C40.8593+39.4568+41.0195+41.0183+41.2072+42.4128C41.229+42.5737+41.2666+42.8837+41.2909+43.102C41.3152+43.3203+41.3528+43.6023+41.3743+43.7286C41.3959+43.8549+41.434+44.09+41.4593+44.2509C41.4844+44.4116+41.5317+44.7031+41.5643+44.8983L41.648+45.3996C41.6886+45.6412+41.9393+46.9051+42.0044+47.1959C42.0225+47.2761+42.0596+47.4548+42.0866+47.5926C42.114+47.7305+42.1626+47.942+42.1952+48.0626L42.3185+48.522C42.3538+48.6541+42.4007+48.8187+42.4225+48.8876C42.5902+49.4177+42.7253+49.8228+42.7634+49.911C42.7882+49.9684+42.8233+50.0531+42.8416+50.099C43.4328+51.5842+44.0438+52.087+44.8231+51.7298C45.01+51.6441+45.6376+51.0308+45.6376+50.9341C45.6376+50.8997+45.6531+50.8717+45.6717+50.8717C45.8326+50.8717+46.5294+49.0092+46.8048+47.8433C46.8319+47.7285+46.8707+47.5686+46.8913+47.4881C46.9118+47.4077+46.9482+47.2292+46.9722+47.0914C46.9963+46.9535+47.0344+46.756+47.0572+46.6528C47.2948+45.5725+47.4056+43.772+47.4752+39.8649C47.5507+35.6277+47.679+32.6321+47.8369+31.4223L47.8592+31.2509L47.3329+31.0777C46.6802+30.8632+46.7166+30.8609+46.5988+31.1241C46.5449+31.2446+46.4454+31.4654+46.3772+31.6148C46.2509+31.8926+46.1259+32.1711+46.0023+32.4502C45.9667+32.5306+45.8419+32.799+45.7251+33.0464C45.608+33.294+45.5123+33.5046+45.5123+33.5146C45.5123+33.5244+45.4554+33.6519+45.3857+33.7976L45.2592+34.0625L45.4008+34.3322C45.5653+34.6457+45.7367+34.9557+45.9148+35.2618L46.0554+35.5041L46.0554+40.0616L46.1562+40.1408C46.5073+40.417+46.4782+40.9007+46.0965+41.1333C45.4912+41.5023+44.8967+40.6451+45.4271+40.1681L45.5542+40.0538L45.5542+35.676L45.3872+35.3685C45.2997+35.2076+45.2137+35.046+45.1291+34.8835C45.079+34.7858+45.0238+34.7058+45.0065+34.7058C44.9752+34.7058+44.7105+35.2412+44.5416+35.6457C44.4937+35.7608+44.4386+35.8725+44.4195+35.8943C44.3692+35.9515+44.3744+44.1046+44.4248+44.1046C44.4469+44.1046+44.5045+44.1469+44.5534+44.1986C44.7608+44.4+44.7937+44.7213+44.6313+44.9605C44.469+45.1997+44.1583+45.2879+43.8945+45.1695C43.4972+45.0106+43.4338+44.3422+43.7975+44.1477C43.8832+44.1018+43.8832+44.0948+43.8832+39.9716C43.8832+35.9933+43.8862+35.8357+43.9629+35.6811C44.0067+35.5928+44.0752+35.4452+44.1153+35.3535C44.1551+35.2615+44.2576+35.0359+44.3426+34.8522C44.4939+34.5258+44.6433+34.1986+44.791+33.8705C44.8481+33.7442+44.9471+33.5279+45.0113+33.39C45.3506+32.6602+45.3464+32.6787+45.1574+32.7655C45.0404+32.8193+43.0478+34.1096+42.933+34.2058C42.8927+34.2397+42.8807+34.6517+42.8807+36.0031L42.8807+37.7565L43.0082+37.8708C43.3055+38.137+43.2243+38.6448+42.8568+38.819C42.2506+39.107+41.716+38.3435+42.1912+37.8683L42.3378+37.722L42.3378+35.8878C42.3378+34.4838+42.3501+34.0379+42.3899+33.9868C42.4388+33.9241+44.7413+32.404+44.9694+32.284C45.0268+32.2537+45.0832+32.2176+45.0947+32.2038C45.1411+32.1481+45.3865+31.9907+45.4271+31.9907C45.4511+31.9907+45.4707+31.9742+45.4707+31.9542C45.4707+31.9339+45.5293+31.893+45.6013+31.8632C45.7286+31.8105+45.8083+31.6729+46.1188+30.9674C46.2597+30.6474+46.2539+30.6338+45.8727+30.403C45.7434+30.3245+45.6376+30.2456+45.6376+30.2275C45.6376+30.1676+45.3702+30.2032+45.1155+30.2967M50.9636+31.2802C50.7873+31.326+50.6099+31.3676+50.4317+31.405C50.1337+31.4652+50.1462+31.4386+50.1944+31.9095C50.2164+32.1266+50.262+32.586+50.2956+32.9306C50.3292+33.2752+50.3763+33.7357+50.4004+33.954C50.4244+34.1723+50.4618+34.5201+50.4833+34.7269C50.5049+34.9337+50.5425+35.2813+50.5671+35.4996C50.5914+35.7179+50.6255+36.0427+50.643+36.2212L50.6746+36.546L51.2786+37.1585C52.4145+38.3099+52.2982+38.1726+52.4586+38.549C52.4929+38.6293+52.5701+38.8037+52.63+38.9365C52.6899+39.0694+52.739+39.1872+52.739+39.1979C52.739+39.22+52.9215+39.6556+53.3909+40.7524L53.5075+41.024L53.6589+41.3789C53.7165+41.5153+53.7774+41.5985+53.8198+41.5985C54.2636+41.5995+54.4817+42.2872+54.1433+42.6186C53.6656+43.0865+52.8578+42.5008+53.202+41.9363C53.2704+41.8243+53.2794+41.7749+53.2448+41.7065C53.1628+41.5256+53.0838+41.3432+53.008+41.1596C52.9261+40.9646+52.8438+40.7697+52.7611+40.5749C52.7112+40.4569+52.6622+40.3385+52.6142+40.2198C52.5648+40.0975+52.5145+39.9757+52.4631+39.8543L52.2125+39.2696C52.1756+39.1834+52.1117+39.0378+52.0706+38.9458C52.0295+38.8538+51.9626+38.7034+51.9222+38.6117C51.8543+38.4573+50.8879+37.4212+50.8119+37.4212C50.7791+37.4212+50.7884+37.5736+50.8606+38.2252L50.941+38.9563L51.029+39.7604C51.0555+40.0015+51.1034+40.2581+51.1352+40.3305C51.1673+40.403+51.1934+40.4737+51.1934+40.4877C51.1934+40.5017+51.2332+40.6022+51.2819+40.711C51.3305+40.82+51.3942+40.9654+51.4235+41.0343C51.4531+41.1032+51.5185+41.2536+51.5693+41.3687C51.6859+41.6321+51.744+41.7702+52.0275+42.4547C52.0694+42.5557+52.1433+42.7296+52.3212+43.1439L52.509+43.5825C52.5383+43.6514+52.602+43.7968+52.6506+43.9058C52.6992+44.0146+52.739+44.1146+52.739+44.1279C52.739+44.1409+52.7859+44.2545+52.8433+44.38C52.901+44.5056+52.9478+44.6166+52.9478+44.6269C52.9478+44.6369+52.9969+44.754+53.0568+44.8865C53.1167+45.0194+53.1897+45.1845+53.219+45.2535C53.2483+45.3224+53.312+45.4678+53.3606+45.5768C53.4092+45.6856+53.4491+45.7938+53.4491+45.8174C53.4491+45.841+53.5513+45.9054+53.6762+45.9605C54.0461+46.1242+54.1852+46.5184+53.9809+46.8242C53.5639+47.4483+52.5581+46.8841+52.9478+46.2447C53.0406+46.0926+53.0579+46.1658+52.7857+45.5567C52.737+45.4477+52.6972+45.348+52.6972+45.3347C52.6972+45.3214+52.6503+45.2079+52.5927+45.0823C52.5353+44.9567+52.4884+44.8457+52.4884+44.8357C52.4884+44.8256+52.4393+44.7086+52.3794+44.5758C52.3195+44.4429+52.2466+44.278+52.2175+44.2091C52.1127+43.9615+51.8608+43.3627+51.6107+42.7679C51.5086+42.5236+51.4051+42.2799+51.3002+42.0369L51.141+41.682C51.0844+41.5554+51.0232+41.4053+51.0054+41.3476C50.9876+41.2902+50.9265+41.1398+50.8698+41.0135C50.7794+40.8129+50.6919+40.6109+50.6074+40.4077C50.5633+40.3015+50.5367+40.1343+50.4811+39.6142L50.3959+38.8205C50.3317+38.229+50.2703+37.6373+50.2117+37.0453C50.1522+36.4427+50.09+35.8404+50.025+35.2385C49.9703+34.7231+49.9138+34.208+49.8553+33.6931C49.7974+33.1696+49.7424+32.6459+49.6904+32.1218C49.638+31.605+49.5906+31.4266+49.5179+31.4715C49.4924+31.4872+49.268+31.4662+49.0194+31.4246C48.465+31.3321+48.4364+31.3456+48.4364+31.7005C48.4364+31.8339+48.4192+32.0805+48.3979+32.2489C48.0901+34.6813+48.3868+38.7278+49.0217+40.7629C49.0397+40.8203+49.0956+41.0083+49.146+41.1807C49.2934+41.6847+49.3214+41.775+49.3996+41.9953C49.4405+42.1101+49.5117+42.3261+49.5575+42.4755C49.642+42.7502+49.8335+43.3036+49.8974+43.4572C49.9164+43.5031+49.9713+43.6299+50.0197+43.7387C50.0678+43.8477+50.1074+43.9612+50.1074+43.9916C50.1074+44.0216+50.1232+44.064+50.1425+44.0858C50.1618+44.1076+50.2022+44.1913+50.2322+44.2718C50.3814+44.67+50.5698+45.0833+50.9942+45.9427C51.2493+46.4595+51.4691+46.8919+51.4824+46.9034C51.509+46.9262+51.6862+47.2443+51.7556+47.3939C51.7796+47.4455+51.8132+47.4876+51.8305+47.4879C51.8476+47.4881+51.8618+47.5165+51.8618+47.5508C51.8618+47.5854+51.8784+47.6134+51.8987+47.6134C51.919+47.6134+51.9448+47.649+51.9561+47.6924C51.9769+47.7713+52.6275+48.7558+52.7275+48.8593C52.7569+48.8897+52.7809+48.9273+52.7809+48.9428C52.7812+48.9583+52.8328+49.028+52.8957+49.0977C52.9589+49.1671+53.0757+49.3082+53.1554+49.411C53.6163+50.0055+54.2807+50.6436+54.8013+50.9912C56.2943+51.9887+57.466+51.0223+57.1276+49.0721C57.1061+48.9476+57.0667+48.705+57.0404+48.5325C57.0149+48.3651+56.9873+48.198+56.9575+48.0312C56.9382+47.928+56.9028+47.7305+56.8788+47.5926C56.782+47.0395+56.6148+46.165+56.5833+46.047C56.5523+45.9223+56.5242+45.797+56.4988+45.671C56.4752+45.5517+56.4472+45.4334+56.4148+45.3161C56.3823+45.1988+56.3539+45.0803+56.3296+44.961C56.2954+44.8001+56.2577+44.6399+56.2166+44.4805C56.1837+44.3555+56.1519+44.2302+56.1213+44.1046C56.0956+43.9997+56.0682+43.8953+56.0391+43.7913C56.0068+43.6738+55.9778+43.5555+55.9522+43.4364C55.9151+43.2749+55.8726+43.1146+55.8248+42.9559C55.7666+42.7613+55.7091+42.5663+55.6524+42.3712C55.5266+41.9371+55.4136+41.5642+55.3299+41.306C55.2788+41.1465+55.2297+40.9863+55.1825+40.8256C55.0955+40.5263+54.6078+39.0488+54.5193+38.8167C54.446+38.6168+54.3747+38.4161+54.3055+38.2147C54.1574+37.7864+54.018+37.4009+53.9504+37.2332C53.9318+37.1871+53.8564+36.9899+53.7827+36.7946C53.7225+36.6334+53.6595+36.4732+53.5937+36.3142C53.5481+36.2044+53.5065+36.0929+53.4689+35.9801C53.4313+35.8673+53.39+35.7558+53.3451+35.6457C53.3016+35.5421+53.2601+35.4376+53.2205+35.3324C53.1473+35.138+53.103+35.0327+52.9526+34.6958C52.904+34.5871+52.8644+34.4733+52.8644+34.4432C52.8628+34.4088+52.8505+34.3758+52.8293+34.3487C52.81+34.3269+52.7696+34.2432+52.7398+34.163C52.6897+34.0287+52.6198+33.8565+52.421+33.3798C52.3802+33.282+52.3285+33.2021+52.3062+33.2021C52.2839+33.2021+52.2779+33.1898+52.2929+33.1747C52.3082+33.1595+52.2992+33.1216+52.2734+33.0903C52.2449+33.0526+52.2266+33.0081+52.2205+32.9612C52.2175+32.9214+52.1824+32.8183+52.1428+32.7321C52.0983+32.6352+52.0549+32.5378+52.0127+32.4399L51.7315+31.782C51.4478+31.1178+51.4866+31.1431+50.9636+31.2802" fill-rule="evenodd" fill="#64bc44" opacity="1"/>
<path d="M121.426+23.1848C121.237+23.276+121.248+23.8585+121.44+23.9314C121.846+24.0858+122.122+23.9349+122.122+23.5582C122.122+23.1705+121.806+23.0008+121.426+23.1848M54.1802+24.5169C53.2824+24.7146+52.5395+25.3177+52.8375+25.6071C52.9629+25.7287+53.1433+25.8778+53.2819+25.9743C53.3624+26.0302+53.4375+26.0863+53.4491+26.0989C53.5012+26.1563+53.8676+26.3911+54.0757+26.5011C54.202+26.5678+54.3148+26.6327+54.3263+26.6455C54.3737+26.6979+55.4306+27.1869+55.4962+27.1869C55.5181+27.1869+55.6727+27.2312+55.8396+27.2851C56.4221+27.4731+56.498+27.4921+56.6837+27.4962C57.2482+27.5084+57.0805+26.1001+56.4246+25.3172C55.9078+24.7003+54.9303+24.3517+54.1802+24.5169M62.0959+24.5592C60.4695+24.6432+59.7715+25.2778+59.5269+26.8946C59.4169+27.623+59.465+28.914+59.6252+29.5263C60.0242+31.0501+61.2212+31.6351+63.4325+31.3862C64.4621+31.2704+64.5351+31.2481+64.498+31.0574C64.3346+30.2168+64.2248+29.7729+64.1862+29.7967C63.7809+30.0471+62.0979+30.0027+61.6992+29.731C60.9896+29.2478+60.8941+26.9505+61.5568+26.3072C61.934+25.941+62.9486+25.869+64.1085+26.1264C64.2303+26.1535+64.233+26.1478+64.3521+25.6204C64.3779+25.5056+64.4173+25.3365+64.4393+25.2445C64.5353+24.8447+64.516+24.7502+64.3308+24.7141C63.5408+24.5605+62.914+24.5169+62.0959+24.5592M117.59+24.6089C117.002+24.7061+116.796+24.7808+116.806+24.8918C116.832+25.1482+116.951+25.4382+117.021+25.4099C117.821+25.0836+119.105+25.1219+119.434+25.4821C119.639+25.7059+119.811+26.5199+119.653+26.5177C119.621+26.5174+119.407+26.4899+119.177+26.4565C117.314+26.1863+116.482+26.6686+116.484+28.019C116.484+28.7603+116.702+29.2318+117.131+29.4198C117.506+29.5842+117.542+29.5889+118.426+29.5874C119.336+29.5859+119.635+29.5426+120.191+29.3318L120.368+29.2641L120.368+27.5641C120.368+25.7475+120.355+25.6199+120.131+25.2029C119.848+24.675+118.746+24.4176+117.59+24.6089M121.371+27.0826L121.371+29.4844L122.039+29.4844L122.039+24.6805L121.371+24.6805L121.371+27.0826M82.9819+25.2194C82.8786+25.2588+82.7212+25.3229+82.6322+25.3618C82.5433+25.4009+82.4631+25.4324+82.4543+25.4324C82.4453+25.4324+82.3583+25.4683+82.261+25.5121C82.1433+25.5646+82.0251+25.616+81.9064+25.6663L81.7287+25.741L81.7287+26.435L80.9768+26.435L80.9768+27.73L81.7287+27.73L81.729+28.8265C81.729+30.0306+81.7696+30.3872+81.9518+30.7792C82.2415+31.4018+83.2145+31.5978+84.5483+31.3018C84.9378+31.2153+84.931+31.2291+84.8198+30.7376C84.7869+30.5872+84.7566+30.4363+84.729+30.2849C84.6827+30.0293+84.6774+30.0213+84.5729+30.0468C83.3781+30.3406+83.2325+30.1952+83.2325+28.7065L83.2325+27.73L84.7363+27.73L84.7363+26.435L83.2325+26.435L83.2325+25.7876C83.2325+25.4314+83.2185+25.1417+83.2012+25.1437C83.1841+25.1457+83.0854+25.1798+82.9819+25.2194M48.5825+25.2297C48.064+25.3242+47.889+25.3653+47.5174+25.4798C47.2991+25.547+47.083+25.6197+47.0371+25.6412C46.991+25.6628+46.8474+25.7259+46.7178+25.7818C44.8208+26.5991+44.3564+28.5754+45.8123+29.6348C45.9346+29.7238+46.0677+29.8265+46.1083+29.8634C46.1489+29.9005+46.2336+29.9571+46.2963+29.9894C46.3592+30.0218+46.4198+30.0579+46.4314+30.0697C46.4807+30.1205+47.1151+30.4035+47.1798+30.4035C47.2053+30.4035+47.2587+30.4203+47.2988+30.4411C47.3387+30.4619+47.4557+30.5017+47.5592+30.5296C47.6625+30.5574+47.7943+30.5955+47.8517+30.614C47.9091+30.6326+48.0875+30.6694+48.2484+30.6957C48.4094+30.722+48.6427+30.7611+48.767+30.7825C50.0106+30.9952+51.3485+30.6348+52.0771+29.8904C52.4541+29.5052+52.4531+29.509+52.2799+29.0458C52.0821+28.5175+52.0202+27.948+52.115+27.5292C52.217+27.0784+52.2548+26.9493+52.3277+26.8022C52.4523+26.5518+52.4298+26.4726+52.1463+26.165C51.9107+25.9094+51.5027+25.5996+51.4014+25.5996C51.3786+25.5993+51.3603+25.5806+51.3606+25.5578C51.3606+25.535+51.3267+25.5162+51.2854+25.5162C51.244+25.5162+51.1921+25.4991+51.1703+25.4783C50.9265+25.2467+49.3309+25.0936+48.5825+25.2297M42.4004+26.2934C42.2626+26.3011+41.9851+26.3297+41.7836+26.3565L41.4177+26.4057L41.4287+27.9949L41.4395+29.5844L41.8155+29.6401C42.5075+29.7428+44.2692+29.6679+44.6456+29.5195C44.7887+29.4631+44.7885+29.4521+44.6351+29.1919C44.5662+29.0751+44.5098+28.9691+44.5098+28.9563C44.5098+28.9436+44.4844+28.8739+44.4536+28.8015C44.1902+28.1851+44.2717+27.3207+44.6444+26.7773C44.7892+26.5663+44.7767+26.4984+44.5867+26.4628C44.51+26.4483+44.3155+26.4099+44.1549+26.3776C43.8534+26.3169+42.8428+26.2683+42.4004+26.2934M66.4078+26.3954C65.4095+26.6533+65.0474+27.2378+64.99+28.6842C64.9133+30.6098+65.6243+31.4461+67.3384+31.4461C69.0008+31.4461+69.7402+30.6441+69.7402+28.8405C69.7402+27.3154+69.2815+26.6189+68.1031+26.3538C67.7742+26.2798+66.7584+26.3049+66.4078+26.3954M77.3845+26.3743C76.7003+26.4901+76.5231+26.524+76.4028+26.562L76.0895+26.6603L75.9015+26.7189L75.8907+28.9997L75.8799+31.2807L77.3845+31.2807L77.3845+27.74L77.57+27.6932C77.8281+27.6282+78.3071+27.6348+78.4767+27.7057C78.8567+27.8643+78.8873+28.022+78.8878+29.829L78.8883+31.2807L80.3921+31.2807L80.3906+29.7664C80.3891+28.3335+80.3527+27.7498+80.2465+27.4586C80.1409+27.1693+79.9775+26.8969+79.8099+26.731C79.6229+26.5455+79.5713+26.5212+78.9968+26.3465C78.8226+26.2936+77.7529+26.3119+77.3845+26.3743M86.8629+26.3718C85.9243+26.5773+85.4935+27.1686+85.3651+28.427C85.122+30.8118+86.5088+31.8755+89.0808+31.2774C89.184+31.2534+89.3221+31.2231+89.3875+31.21C89.5184+31.184+89.5206+31.1165+89.4093+30.5915C89.2838+29.9995+89.2928+30.0173+89.1264+30.0438C87.4897+30.305+86.9085+30.1524+86.9085+29.4616L86.9085+29.3173L89.8863+29.3173L89.8607+28.5551C89.8119+27.0851+89.4946+26.5756+88.499+26.3673C88.1637+26.2971+87.1917+26.2996+86.8629+26.3718M92.8192+26.3505C92.7733+26.3698+92.6721+26.4094+92.5944+26.4385C92.5167+26.4678+92.3991+26.537+92.3335+26.5924L92.2137+26.6931L92.2137+26.435L90.7099+26.435L90.7099+31.2807L92.2137+31.2807L92.2137+28.0433L92.3082+27.9388C92.5505+27.6708+93.1881+27.5718+93.7696+27.712L93.8844+27.7398L93.8844+26.3097L93.3936+26.3127C93.1237+26.3142+92.8653+26.3312+92.8192+26.3505M70.5339+28.0954C70.5339+29.9235+70.553+30.1178+70.7793+30.587C71.1635+31.3837+72.0616+31.6065+73.7295+31.3188C73.9809+31.2754+74.1293+31.2421+74.4396+31.1594C74.5315+31.1348+74.6864+31.095+74.7842+31.0709L74.9616+31.0268L74.9616+26.435L73.5007+26.435L73.4897+28.2207L73.4789+30.0065L73.1516+30.0636C72.7668+30.1311+72.4072+30.0777+72.2405+29.9288C72.025+29.7368+72.0207+29.7015+72.0042+28.012L71.9889+26.435L70.5339+26.435L70.5339+28.0954M40.537+26.5372C40.525+26.549+40.3287+26.5976+40.1004+26.6453C39.8721+26.6931+39.6099+26.7495+39.5182+26.7706C39.4262+26.7919+39.2219+26.8372+39.0643+26.8716C38.6347+26.9651+38.6618+26.8894+38.6618+28.0014C38.6618+29.0904+38.6412+29.0228+38.9958+29.1027L39.4137+29.1969C40.1894+29.3729+40.5322+29.4426+40.6235+29.4426C40.7405+29.4426+40.7402+26.5508+40.623+26.5282C40.5874+26.5212+40.5488+26.5255+40.537+26.5372M23.227+26.7463C22.213+27.0483+21.6608+27.7358+21.9576+28.327C22.2551+28.9192+23.0386+29.3125+23.9266+29.3157L24.3338+29.3173L24.3338+26.6856L23.8639+26.6911C23.6055+26.6941+23.3188+26.7189+23.227+26.7463M25.0539+27.9846L25.0649+29.2965L25.3156+29.2867C26.1697+29.2533+27.0038+29.1992+27.0439+29.1744C27.1146+29.1308+27.1096+26.8778+27.0387+26.8217C27.0098+26.7991+26.7514+26.7688+26.4642+26.7545C26.1402+26.7384+25.8163+26.7205+25.4925+26.7009L25.0429+26.6731L25.0539+27.9846M27.7906+26.8761C27.7733+26.8939+27.7592+27.3919+27.7592+27.9824C27.7592+29.1759+27.7607+29.1827+28.0226+29.1335C28.0991+29.1193+28.4422+29.0894+28.7853+29.0674C29.1284+29.0453+29.4986+29.0147+29.6076+28.9995L29.8062+28.9719L29.8062+27.9987C29.8062+27.0926+29.8009+27.0237+29.7297+27.0012C29.6876+26.9879+29.3821+26.9593+29.051+26.9375C28.7456+26.9176+28.4403+26.8954+28.1352+26.8708C27.963+26.8558+27.8079+26.858+27.7906+26.8761M119.564+27.0841L119.741+27.1122L119.741+28.8127L119.585+28.8503L119.198+28.9426C118.864+29.0223+117.845+29.0107+117.645+28.9248C117.308+28.7804+117.135+28.2689+117.233+27.7064C117.309+27.2701+117.365+27.2019+117.778+27.0468C117.859+27.0164+119.331+27.0473+119.564+27.0841M30.5267+27.0894C30.4871+27.1052+30.4743+27.3232+30.4743+27.9789C30.4743+28.6233+30.4879+28.8586+30.5267+28.8902C30.5778+28.932+31.4415+28.903+32.1974+28.834L32.5212+28.8045L32.5212+27.9967C32.5212+27.1926+32.5207+27.1884+32.4273+27.1673C32.215+27.1195+30.6149+27.0538+30.5267+27.0894M37.5672+27.1257C37.555+27.138+37.2181+27.1666+36.8188+27.1894C36.4196+27.2119+36.0594+27.2408+36.0188+27.2535C35.9509+27.2748+35.9456+27.339+35.9562+28.015L35.9674+28.7533L36.8239+28.8092C37.2948+28.8401+37.7459+28.8684+37.8264+28.8719L37.9725+28.8786L37.9838+27.9912L37.9951+27.1034L37.7923+27.1034C37.6808+27.1034+37.5795+27.1134+37.5672+27.1257M33.2551+27.2187C33.2421+27.232+33.2313+27.5874+33.2313+28.0085L33.2313+28.7744L34.2047+28.7744C34.906+28.7744+35.192+28.7603+35.2281+28.7243C35.3176+28.6348+35.2968+27.3247+35.205+27.2774C35.1243+27.2358+33.2934+27.1806+33.2551+27.2187M88.1832+27.5463C88.3236+27.6383+88.381+27.749+88.4128+27.9912L88.4391+28.1894L87.6737+28.1894C87.1835+28.1894+86.9085+28.1741+86.9085+28.1471C86.9085+27.8691+87.1554+27.5252+87.3902+27.4766C87.6306+27.4267+88.0579+27.4643+88.1832+27.5463M67.7394+27.5282C68.1011+27.6526+68.1687+27.8616+68.1705+28.8578C68.1725+29.9536+68.098+30.122+67.564+30.2328C67.3128+30.2849+66.9599+30.2358+66.7913+30.1253C66.4013+29.8699+66.3699+28.0032+66.7491+27.624C66.8852+27.4879+67.4602+27.4322+67.7394+27.5282M56.3314+28.5491C55.6634+28.728+54.7922+29.0724+54.3055+29.3503C53.9539+29.5511+53.2561+30.0027+53.1984+30.0669C53.1869+30.0797+53.0882+30.1619+52.9791+30.2496C52.7044+30.4704+52.6977+30.6549+52.9563+30.8814C54.2331+32.0005+56.3406+31.4932+56.8509+29.9438C56.8925+29.8175+56.9431+29.6709+56.9632+29.6183C56.9832+29.5654+56.9998+29.3293+56.9998+29.0934C56.9998+28.4751+56.9025+28.3959+56.3314+28.5491" fill-rule="evenodd" fill="#233343" opacity="1"/>
<path d="M49.3242+31.4765C49.3643+31.487+49.4302+31.487+49.4703+31.4765C49.5104+31.4659+49.4776+31.4574+49.3971+31.4574C49.3169+31.4574+49.2838+31.4659+49.3242+31.4765M41.0154+32.9727C40.9889+33.0301+40.9839+33.0665+41.0047+33.0537C41.0598+33.0196+41.135+32.868+41.0964+32.8682C41.0784+32.8685+41.042+32.9156+41.0154+32.9727" fill-rule="evenodd" fill="#70ad5a" opacity="1"/>
</g>
</g>
</svg>
