<svg xmlns:xlink="http://www.w3.org/1999/xlink" xmlns="http://www.w3.org/2000/svg" xml:space="preserve" xmlns:vectornator="http://vectornator.io" viewBox="0 0 144 56" clip-rule="evenodd" stroke-linecap="round" stroke-linejoin="round">
  <path d="M17.26 17.625v2.24h109.48v-2.24H17.26Zm80.68 3.815c-2.608-.008-4.847 0-4.979.014-1.767.24-2.98.92-3.505 1.977-.462.919-.51 1.337-.51 4.5 0 2.518.016 2.928.147 3.476.287 1.235.788 1.908 1.83 2.424 1.165.587 1.167.587 6.825.587 4.949 0 5.024-.007 5.62-.17 1.698-.486 2.478-1.22 2.888-2.725.123-.44.14-.873.14-3.591 0-3.38-.017-3.55-.48-4.492-.433-.872-1.282-1.467-2.594-1.815-.611-.161-.778-.17-5.38-.185h-.002Zm0 3.243c2.704.015 2.834.024 3.251.186.51.2.772.454 1.011.98.154.346.178.54.201 1.782.037 1.552-.047 2.293-.316 2.765-.44.78-.758.833-4.633.794-3.413-.03-3.513-.037-3.969-.493-.425-.432-.522-.911-.522-2.65 0-1.682.066-2.13.437-2.631.255-.355.672-.572 1.306-.681.23-.038 1.683-.068 3.236-.052h-.002Zm-80.68-3.127v12.745H23.5c3.699 0 6.518-.03 6.927-.076 1.892-.216 2.965-.812 3.505-1.955.4-.857.432-1.142.432-4.376 0-2.61-.017-3.035-.14-3.474-.409-1.499-1.258-2.272-2.941-2.65-.671-.146-.99-.16-7.36-.182l-6.66-.032h-.002Zm3.939 3.242 3.997.022 4 .024.38.194c.324.161.425.27.617.656l.23.462v1.738c0 1.605-.014 1.76-.16 2.091-.093.195-.262.45-.386.565-.448.417-.643.432-4.836.432H21.2v-6.184Zm49.18-3.242v12.745h3.938v-3.327l3.418.022c3.266.025 3.43.032 3.683.18.472.277.579.6.602 1.944l.032 1.181h3.937l-.032-1.605c-.039-1.714-.097-2.022-.492-2.54-.231-.308-.757-.626-1.252-.757l-.361-.091.309-.088c.17-.046.5-.198.733-.336.51-.31.857-.843.996-1.5.1-.532.115-2.64.015-3.164-.263-1.367-.912-2.092-2.225-2.479-.4-.116-1.12-.134-6.871-.164l-6.43-.02Zm7.047 3.235c3.373-.023 3.899 0 4.285.2.386.201.494.54.463 1.443-.024.71-.037.773-.24.982a1.372 1.372 0 0 1-.553.317c-.224.053-1.522.085-3.7.085h-3.365v-3.013l3.11-.014Zm-34.898-3.229-3.425 6.3a1430.83 1430.83 0 0 0-3.452 6.37c-.016.04.926.07 2.161.07h2.186l.562-1.119.557-1.12 3.984.014 3.99.024.589 1.096.587 1.106h4.368l-.238-.45c-.131-.24-1.708-3.095-3.498-6.345L47.634 21.6l-2.548-.024-2.558-.015Zm2.526 3.011c.025 0 .586 1.036 1.258 2.31.664 1.267 1.214 2.324 1.214 2.355 0 .024-1.096.046-2.44.046-1.574 0-2.425-.032-2.41-.078.061-.192 2.348-4.631 2.38-4.631l-.002-.002Zm7.798-3.01v3.088h5.483v9.652h4.015l.014-4.811.025-4.802 2.722-.024 2.72-.015v-3.087H52.855l-.003-.002Zm56.592.058.016 6.345.023 6.355 1.953.024 1.947.015v-4.608c0-4.316.006-4.604.13-4.488.069.078 1.715 2.14 3.653 4.595l3.519 4.462 3.027.024 3.028.015V21.62h-3.861v4.602c0 2.64-.032 4.587-.07 4.571-.039-.014-1.69-2.085-3.675-4.603l-3.614-4.57h-6.076ZM17.26 36.136v2.239h109.48v-2.24H17.26Z" fill-rule="evenodd" fill="#ffffff" vectornator:layerName="Layer 1"/>
</svg>
