<?xml version="1.0" encoding="UTF-8" standalone="no"?> <!-- Created with Vectornator for iOS (http://vectornator.io/) --><!DOCTYPE svg PUBLIC "-//W3C//DTD SVG 1.1//EN" "http://www.w3.org/Graphics/SVG/1.1/DTD/svg11.dtd">
<svg height="100%" style="fill-rule:nonzero;clip-rule:evenodd;stroke-linecap:round;stroke-linejoin:round;" xmlns:xlink="http://www.w3.org/1999/xlink" xmlns="http://www.w3.org/2000/svg" xml:space="preserve" width="100%" xmlns:vectornator="http://vectornator.io" version="1.1" viewBox="0 0 1428 300">
<metadata>
<vectornator:setting key="DimensionsVisible" value="1"/>
<vectornator:setting key="PencilOnly" value="0"/>
<vectornator:setting key="SnapToPoints" value="0"/>
<vectornator:setting key="OutlineMode" value="0"/>
<vectornator:setting key="CMYKEnabledKey" value="0"/>
<vectornator:setting key="RulersVisible" value="1"/>
<vectornator:setting key="SnapToEdges" value="0"/>
<vectornator:setting key="GuidesVisible" value="1"/>
<vectornator:setting key="DisplayWhiteBackground" value="0"/>
<vectornator:setting key="doHistoryDisabled" value="0"/>
<vectornator:setting key="SnapToGuides" value="1"/>
<vectornator:setting key="TimeLapseWatermarkDisabled" value="0"/>
<vectornator:setting key="Units" value="Pixels"/>
<vectornator:setting key="DynamicGuides" value="0"/>
<vectornator:setting key="IsolateActiveLayer" value="0"/>
<vectornator:setting key="SnapToGrid" value="1"/>
</metadata>
<defs/>
<g id="Layer 1" vectornator:layerName="Layer 1">
<path d="M5.06976+14.9434L5.06976+29.4434L5.06976+43.9434L1423.07+43.9434L1423.07+14.9434L5.06976+14.9434Z" opacity="1" fill="#ffffff"/>
<path d="M1050.07+64.3497C1016.27+64.2497+987.27+64.3372+985.57+64.5372C962.67+67.6372+946.964+76.4309+940.164+90.1309C934.164+102.031+933.57+107.443+933.57+148.443C933.57+181.043+933.776+186.343+935.476+193.443C939.176+209.443+945.663+218.15+959.164+224.85C974.264+232.45+974.27+232.443+1047.57+232.443C1111.67+232.443+1112.65+232.356+1120.35+230.256C1142.35+223.956+1152.46+214.443+1157.76+194.943C1159.36+189.243+1159.57+183.643+1159.57+148.443C1159.57+104.643+1159.35+102.456+1153.35+90.2559C1147.75+78.9559+1136.76+71.256+1119.76+66.7559C1111.86+64.6559+1109.67+64.5497+1050.07+64.3497ZM1050.07+106.35C1085.07+106.55+1086.76+106.656+1092.16+108.756C1098.76+111.356+1102.16+114.643+1105.26+121.443C1107.26+125.943+1107.55+128.437+1107.85+144.537C1108.35+164.637+1107.26+174.25+1103.76+180.35C1098.06+190.45+1093.96+191.131+1043.76+190.631C999.557+190.231+998.251+190.156+992.351+184.256C986.851+178.656+985.57+172.443+985.57+149.943C985.57+128.143+986.457+122.35+991.257+115.85C994.557+111.25+999.964+108.437+1008.16+107.037C1011.16+106.537+1029.97+106.15+1050.07+106.35Z" opacity="1" fill="#ffffff"/>
<path d="M5.06976+65.8497C5.06976+65.8497+5.06976+148.35+5.06976+148.35L5.06976+230.943L85.851+230.943C133.751+230.943+170.27+230.543+175.57+229.943C200.07+227.143+213.976+219.431+220.976+204.631C226.176+193.531+226.57+189.843+226.57+147.943C226.57+114.143+226.357+108.643+224.757+102.943C219.457+83.5434+208.464+73.5309+186.664+68.6309C177.964+66.7309+173.851+66.556+91.351+66.2559L5.06976+65.8497ZM56.0698+107.85L107.851+108.131L159.664+108.443C159.664+108.443+164.57+110.943+164.57+110.943C168.77+113.043+170.07+114.443+172.57+119.443L175.57+125.443L175.57+147.943C175.57+168.743+175.376+170.737+173.476+175.037C172.276+177.537+170.076+180.85+168.476+182.35C162.676+187.75+160.151+187.943+105.851+187.943L56.0698+187.943L56.0698+107.85Z" opacity="1" fill="#ffffff"/>
<path d="M693.07+65.8497C693.07+65.8497+693.07+148.35+693.07+148.35L693.07+230.943L744.07+230.943L744.07+187.85L788.351+188.131C830.651+188.431+832.77+188.543+836.07+190.443C842.17+194.043+843.551+198.231+843.851+215.631L844.257+230.943L895.257+230.943L894.851+210.131C894.351+187.931+893.576+183.956+888.476+177.256C885.476+173.256+878.657+169.143+872.257+167.443L867.57+166.256L871.57+165.131C873.77+164.531+878.07+162.556+881.07+160.756C887.67+156.756+892.176+149.85+893.976+141.35C895.276+134.45+895.464+107.15+894.164+100.35C890.764+82.6497+882.351+73.2559+865.351+68.2559C860.151+66.7559+850.851+66.5309+776.351+66.1309L693.07+65.8497ZM784.351+107.756C828.051+107.456+834.851+107.75+839.851+110.35C844.851+112.95+846.251+117.337+845.851+129.037C845.551+138.237+845.357+139.056+842.757+141.756C841.057+143.456+837.97+145.25+835.57+145.85C832.67+146.55+815.863+146.943+787.664+146.943L744.07+146.943L744.07+107.943L784.351+107.756Z" opacity="1" fill="#ffffff"/>
<path d="M332.351+65.9434C332.351+65.9434+287.976+147.537+287.976+147.537C263.576+192.437+243.457+229.537+243.257+230.037C243.057+230.537+255.257+230.943+271.257+230.943L299.57+230.943L306.851+216.443L314.07+201.943L365.664+202.131L417.351+202.443L424.976+216.631L432.57+230.943L489.164+230.943L486.07+225.131C484.37+222.031+463.957+185.043+440.757+142.943L398.476+66.4434L365.476+66.1309L332.351+65.9434ZM365.07+104.943C365.37+104.943+372.651+118.35+381.351+134.85C389.951+151.25+397.07+164.95+397.07+165.35C397.07+165.65+382.876+165.943+365.476+165.943C345.076+165.943+334.057+165.543+334.257+164.943C335.057+162.443+364.67+104.943+365.07+104.943Z" opacity="1" fill="#ffffff"/>
<path d="M466.07+65.9434L466.07+85.9434L466.07+105.943L537.07+105.943L537.07+230.943L589.07+230.943L589.257+168.631L589.57+106.443L624.851+106.131L660.07+105.943L660.07+65.9434L466.07+65.9434Z" opacity="1" fill="#ffffff"/>
<path d="M1199.07+66.6934C1199.07+66.6934+1199.26+148.881+1199.26+148.881L1199.57+231.193L1224.85+231.506L1250.07+231.693L1250.07+172.006C1250.07+116.106+1250.16+112.381+1251.76+113.881C1252.66+114.881+1273.97+141.581+1299.07+173.381L1344.66+231.193L1383.85+231.506L1423.07+231.693L1423.07+66.6934L1373.07+66.6934L1373.07+126.287C1373.07+160.487+1372.66+185.706+1372.16+185.506C1371.66+185.306+1350.27+158.481+1324.57+125.881L1277.76+66.6934L1199.07+66.6934Z" opacity="1" fill="#ffffff"/>
<path d="M5.06976+254.693L5.06976+269.193L5.06976+283.693L1423.07+283.693L1423.07+254.693L5.06976+254.693Z" opacity="1" fill="#ffffff"/>
</g>
</svg>
