<?xml version="1.0" encoding="UTF-8" standalone="no"?> <!-- Created with Vectornator for iOS (http://vectornator.io/) --><!DOCTYPE svg PUBLIC "-//W3C//DTD SVG 1.1//EN" "http://www.w3.org/Graphics/SVG/1.1/DTD/svg11.dtd">
<svg height="100%" style="fill-rule:nonzero;clip-rule:evenodd;stroke-linecap:round;stroke-linejoin:round;" xmlns:xlink="http://www.w3.org/1999/xlink" xmlns="http://www.w3.org/2000/svg" xml:space="preserve" width="100%" xmlns:vectornator="http://vectornator.io" version="1.1" viewBox="0 0 400 77.8302">
<metadata>
<vectornator:setting key="DimensionsVisible" value="0"/>
<vectornator:setting key="PencilOnly" value="0"/>
<vectornator:setting key="SnapToPoints" value="0"/>
<vectornator:setting key="OutlineMode" value="0"/>
<vectornator:setting key="CMYKEnabledKey" value="0"/>
<vectornator:setting key="RulersVisible" value="1"/>
<vectornator:setting key="SnapToEdges" value="0"/>
<vectornator:setting key="GuidesVisible" value="0"/>
<vectornator:setting key="DisplayWhiteBackground" value="0"/>
<vectornator:setting key="doHistoryDisabled" value="0"/>
<vectornator:setting key="SnapToGuides" value="1"/>
<vectornator:setting key="TimeLapseWatermarkDisabled" value="0"/>
<vectornator:setting key="Units" value="Points"/>
<vectornator:setting key="DynamicGuides" value="1"/>
<vectornator:setting key="IsolateActiveLayer" value="0"/>
<vectornator:setting key="SnapToGrid" value="0"/>
</metadata>
<defs/>
<g id="svgg" vectornator:layerName="svgg">
<path d="M28.302+2.783C14.592+7.253+5.012+17.715+1.912+31.604C1.297+34.357+1.282+39.013+1.887+39.387C2.146+39.547+2.358+39.347+2.358+38.943C2.358+38.538+2.596+38.208+2.885+38.208C3.176+38.208+3.304+38.622+3.17+39.134C3.037+39.643+3.224+40.306+3.586+40.606C4.367+41.254+4.479+42.181+3.721+41.713C3.432+41.534+3.011+41.681+2.785+42.039C2.477+42.524+2.371+42.427+2.366+41.655C2.362+41.087+2.146+40.491+1.887+40.33C-0.61+38.787+3.631+55.033+6.813+59.206C7.476+60.075+8.019+60.977+8.019+61.211C8.019+61.445+9.452+63.134+11.203+64.965C22.844+77.135+38.733+80.45+52.815+73.646C53.959+73.093+55.083+72.642+55.314+72.642C56.614+72.642+65.109+65.527+65.079+64.462C65.071+64.161+64.782+64.287+64.438+64.741C63.646+65.784+63.258+65.794+63.408+64.766C63.473+64.326+63.826+63.867+64.192+63.746C64.559+63.625+65.141+63.189+65.487+62.777C66.053+62.102+66.089+62.11+65.855+62.854C65.316+64.568+66.446+63.574+68.267+60.731C82.709+38.19+71.343+8.159+46.286+2.651C41.408+1.579+31.779+1.65+28.302+2.783M44.824+8.491C45.107+8.491+45.205+8.706+45.042+8.97C44.879+9.234+44.525+9.313+44.254+9.145C43.984+8.978+43.627+9.039+43.461+9.282C43.296+9.524+42.773+9.323+42.3+8.835C41.466+7.976+41.47+7.941+42.418+7.693C42.956+7.552+43.41+7.197+43.426+6.903C43.443+6.608+43.648+6.846+43.883+7.429C44.117+8.013+44.541+8.491+44.824+8.491M28.106+8.785C27.992+9.854+27.722+10.045+26.133+10.186C24.816+10.303+24.494+10.219+25+9.891C25.587+9.512+25.598+9.363+25.068+9.021C24.265+8.504+25.097+7.905+26.089+8.285C26.475+8.434+26.931+8.328+27.103+8.051C27.676+7.123+28.239+7.535+28.106+8.785M59.082+13.679C59.553+13.679+59.782+14.08+59.738+14.825C59.678+15.837+59.583+15.892+58.925+15.296C58.516+14.926+57.954+14.623+57.678+14.623C57.401+14.623+57.206+14.089+57.243+13.436C57.3+12.446+57.398+12.367+57.835+12.964C58.123+13.357+58.684+13.679+59.082+13.679M44.372+15.094C44.873+15.094+45.283+15.307+45.283+15.566C45.283+15.825+44.752+16.038+44.104+16.038C43.228+16.038+42.925+16.287+42.925+17.009C42.925+17.543+42.732+17.861+42.497+17.716C42.262+17.571+42.18+17.03+42.315+16.514C42.492+15.838+42.248+15.45+41.445+15.129C40.335+14.685+40.336+14.682+41.627+14.653C42.511+14.632+42.945+14.359+42.989+13.797C43.031+13.249+43.122+13.329+43.257+14.033C43.385+14.697+43.803+15.094+44.372+15.094M36.609+15.707C37.715+16.344+37.359+17.107+36.104+16.792C35.236+16.574+34.815+16.74+34.436+17.449C33.705+18.814+32.854+18.646+33.215+17.207C33.424+16.373+33.299+15.934+32.795+15.741C31.528+15.255+32.025+14.604+33.573+14.722C34.546+14.796+35.158+14.592+35.32+14.14C35.505+13.62+35.617+13.683+35.761+14.387C35.867+14.906+36.249+15.5+36.609+15.707M24.057+18.302C24.057+18.509+23.829+18.907+23.55+19.185C23.19+19.546+23.403+19.782+24.291+20.005C24.987+20.179+25.446+20.571+25.328+20.89C25.103+21.502+24.885+21.515+23.231+21.013C22.457+20.778+22.17+20.884+22.17+21.403C22.17+22.187+21.32+22.893+20.892+22.464C20.743+22.315+20.905+21.849+21.254+21.429C21.799+20.773+21.725+20.535+20.731+19.731L19.575+18.796L20.87+19.002C21.616+19.12+22.389+18.936+22.696+18.566C23.282+17.86+24.057+17.71+24.057+18.302M57.075+19.115C57.075+19.511+57.606+20.036+58.255+20.283C59.659+20.817+59.876+21.902+58.491+21.462C57.708+21.214+57.535+21.39+57.476+22.492L57.406+23.821L57.214+22.577C57.071+21.644+56.677+21.265+55.634+21.056C53.916+20.712+53.801+19.811+55.475+19.811C56.374+19.811+56.632+19.621+56.433+19.104C56.284+18.715+56.367+18.396+56.619+18.396C56.87+18.396+57.075+18.72+57.075+19.115M207.822+19.296C207.156+20.033+197.17+52.828+197.17+54.281C197.17+54.521+198.304+54.717+199.689+54.717C202.494+54.717+202.212+55.102+203.758+49.175L204.282+47.17L210.109+47.17L215.935+47.17L216.252+48.467C216.427+49.18+216.889+50.879+217.28+52.241L217.991+54.717L220.552+54.717C221.961+54.717+223.113+54.6+223.113+54.456C223.113+52.607+212.968+19.881+212.19+19.222C210.909+18.136+208.84+18.171+207.822+19.296M97.524+19.377C96.761+19.822+96.698+21.187+96.698+37.312L96.698+54.766L99.175+54.624L101.651+54.481L101.78+46.829L101.91+39.177L108.384+39.046L114.858+38.915L114.858+36.792L114.858+34.67L108.373+34.539L101.887+34.407L101.887+29.008L101.887+23.609L109.08+23.479L116.274+23.349L116.417+21.108L116.561+18.868L107.455+18.882C102.152+18.891+98.004+19.097+97.524+19.377M120.848+21.344L120.991+23.821L123.113+23.821L125.236+23.821L125.378+21.344L125.521+18.868L123.113+18.868L120.705+18.868L120.848+21.344M239.959+19.161C239.774+19.346+239.623+21.819+239.623+24.657C239.623+29.172+239.529+29.782+238.876+29.531C234.416+27.82+228.38+29.324+226.77+32.547C225.556+34.977+225.556+49.001+226.77+51.382C228.535+54.843+233.56+56.218+238.409+54.566C239.669+54.137+240.661+54.018+240.821+54.277C240.971+54.519+241.932+54.717+242.958+54.717L244.823+54.717L244.699+36.91L244.575+19.104L242.435+18.964C241.258+18.887+240.144+18.976+239.959+19.161M68.697+21.96C68.757+22.939+68.71+22.955+67.972+22.218C67.538+21.784+67.183+20.969+67.183+20.408C67.183+18.985+68.603+20.441+68.697+21.96M49.057+21.698C49.057+22.81+49.264+23.113+50.023+23.113C51.104+23.113+52.973+25.035+53.809+27.005C54.112+27.718+54.716+28.302+55.152+28.302C56.476+28.302+57.076+29.328+57.069+31.58C57.058+35.189+56.696+35.929+55.008+35.787C53.969+35.7+53.159+36.016+52.248+36.865C50.941+38.082+50.964+38.673+52.319+38.686C53.95+38.702+54.513+39.489+53.608+40.489C52.508+41.704+48.579+42.735+48.086+41.938C47.569+41.101+46.226+41.802+46.226+42.91C46.226+43.44+45.916+43.868+45.531+43.868C45.017+43.868+44.905+43.515+45.104+42.521C45.346+41.311+45.225+41.144+43.913+40.882C41.761+40.451+41.941+39.127+44.104+39.478C45.74+39.744+46.451+39.047+45.081+38.522C44.711+38.38+44.339+37.676+44.256+36.958C44.03+35.018+39.898+34.689+39.425+36.574C39.256+37.246+38.905+37.64+38.627+37.468C38.354+37.299+38.261+36.645+38.419+36.014C38.662+35.048+38.481+34.788+37.278+34.368C35.209+33.647+35.37+32.539+37.475+33.013C39+33.357+39.119+33.296+39.4+32.016C39.565+31.266+39.894+30.773+40.133+30.92C40.371+31.067+40.566+30.673+40.566+30.044C40.566+28.427+42.285+26.415+43.666+26.415C44.296+26.415+44.811+26.179+44.811+25.89C44.811+25.575+45.377+25.448+46.226+25.572C47.442+25.751+47.642+25.63+47.642+24.715C47.642+23.97+47.323+23.605+46.58+23.5C45.153+23.297+45.499+22.382+46.96+22.494C47.892+22.566+48.113+22.363+48.113+21.433C48.113+20.801+48.325+20.283+48.585+20.283C48.844+20.283+49.057+20.92+49.057+21.698M9.931+22.594C9.568+23.273+9.621+23.556+10.15+23.759C10.535+23.906+10.849+24.253+10.849+24.53C10.849+24.882+10.574+24.886+9.931+24.542C9.209+24.156+8.909+24.228+8.53+24.879C8.095+25.625+8.046+25.63+8.033+24.921C8.025+24.488+7.876+23.761+7.701+23.306C7.454+22.662+7.563+22.547+8.191+22.788C8.693+22.98+9.099+22.833+9.266+22.398C9.414+22.013+9.732+21.698+9.973+21.698C10.227+21.698+10.21+22.073+9.931+22.594M172.013+22.484C171.84+22.657+171.698+24.235+171.698+25.991C171.698+29.122+171.674+29.185+170.401+29.332C168.295+29.574+168.158+33.019+170.255+33.019L171.698+33.019L171.698+41.525C171.698+52.904+172.502+54.695+177.69+54.875L179.953+54.953L179.953+52.837C179.953+51.093+179.787+50.69+179.009+50.545C176.977+50.168+176.887+49.771+176.887+41.216L176.887+33.019L179.481+33.019L182.075+33.019L182.075+31.132L182.075+29.245L179.481+29.245L176.887+29.245L176.887+26.274C176.887+22.688+174.03+20.467+172.013+22.484M320.597+22.484C320.425+22.657+320.283+24.235+320.283+25.991C320.283+29.122+320.258+29.185+318.986+29.332C316.88+29.574+316.743+33.019+318.839+33.019L320.283+33.019L320.283+41.911C320.283+53.059+321.723+55.748+327.343+55.092C328.965+54.903+329.189+50.841+327.594+50.545C325.562+50.168+325.472+49.771+325.472+41.216L325.472+33.019L328.066+33.019L330.66+33.019L330.66+31.132L330.66+29.245L328.066+29.245L325.472+29.245L325.472+26.274C325.472+22.688+322.615+20.467+320.597+22.484M49.057+25.472C49.057+26.635+49.986+27.673+50.006+26.533C50.01+26.338+50.141+25.702+50.297+25.118C50.506+24.338+50.38+24.057+49.819+24.057C49.286+24.057+49.057+24.483+49.057+25.472M34.188+26.46C33.917+27.696+34.006+27.83+35.104+27.83C35.887+27.83+36.321+28.09+36.321+28.559C36.321+29.134+35.979+29.224+34.706+28.985C33.196+28.702+33.08+28.77+32.937+30.025C32.852+30.764+32.571+31.262+32.311+31.132C32.052+31.002+31.868+30.79+31.903+30.66C31.938+30.531+32.103+29.975+32.269+29.425C32.521+28.592+32.333+28.377+31.144+28.139C30.359+27.982+29.717+27.613+29.717+27.318C29.717+26.965+30.259+26.884+31.307+27.08C32.794+27.359+32.916+27.284+33.188+25.922C33.361+25.056+33.684+24.592+33.984+24.778C34.276+24.958+34.362+25.667+34.188+26.46M38.37+27.948C37.968+29.31+37.524+30.531+37.384+30.66C37.032+30.985+37.558+28.351+38.162+26.769C39.002+24.563+39.139+25.339+38.37+27.948M214.316+41.627L214.641+42.925L210.15+42.925C207.681+42.925+205.66+42.787+205.66+42.619C205.66+42.451+206.616+38.84+207.783+34.594C208.95+30.347+209.922+26.717+209.941+26.526C209.973+26.212+213.537+38.513+214.316+41.627M64.065+28.066C64.361+28.715+64.925+29.245+65.32+29.245C65.715+29.245+66.038+29.458+66.038+29.717C66.038+29.976+65.59+30.189+65.043+30.189C64.218+30.189+64.099+30.389+64.345+31.368C64.507+32.017+64.439+32.547+64.193+32.547C63.946+32.547+63.677+32.078+63.594+31.505C63.503+30.874+63.014+30.363+62.354+30.208C60.905+29.868+60.806+29.049+62.191+28.853C63.019+28.736+63.238+28.468+63.061+27.791C62.719+26.484+63.433+26.679+64.065+28.066M139.586+29.407C138.657+29.745+137.389+30.378+136.768+30.813C135.285+31.852+135.001+31.812+134.821+30.542C134.699+29.69+134.322+29.452+132.901+29.335L131.132+29.188L131.132+41.953L131.132+54.717L133.491+54.717L135.849+54.717L135.849+45.797L135.849+36.876L137.286+35.668C138.647+34.522+140.767+33.737+143.396+33.404C144.457+33.27+144.575+33.042+144.575+31.132C144.575+28.693+143.021+28.156+139.586+29.407M153.066+29.188C149.347+30.153+147.909+32.485+148.202+37.081C148.505+41.848+150.233+43.134+157.688+44.146C160.406+44.515+161.323+45.319+161.314+47.321C161.298+50.534+159.494+51.247+153.404+50.448C148.492+49.805+148.641+49.76+148.282+51.971C147.954+53.993+149.509+54.637+155.704+55.045C163.109+55.531+165.692+53.683+165.963+47.703C166.214+42.178+164.865+40.88+157.547+39.607C154.129+39.011+152.83+38.143+152.83+36.452C152.83+33.456+154.552+32.731+159.881+33.487C163.71+34.03+163.994+33.921+164.43+31.739C164.712+30.33+164.634+30.229+162.906+29.777C160.289+29.091+154.721+28.758+153.066+29.188M278.066+29.085C273.279+29.82+272.652+30.329+273.566+32.734L274.019+33.925L278.688+33.641C284.224+33.303+285.377+33.919+285.377+37.209L285.377+39.041L280.778+39.24C273.491+39.556+271.535+41.23+271.515+47.17C271.493+53.821+276.885+56.978+283.988+54.472C285.368+53.985+286.174+53.909+286.5+54.236C286.765+54.501+287.788+54.717+288.774+54.717L290.566+54.717L290.545+45.873C290.509+30.247+288.458+27.489+278.066+29.085M302.026+29.896C299.654+31.03+299.562+31.038+299.282+30.157C299.07+29.489+298.56+29.245+297.374+29.245L295.755+29.245L295.755+41.981L295.755+54.717L298.104+54.717L300.453+54.717L300.58+44.98L300.708+35.242L301.968+34.302C303.716+32.997+306.831+33.037+308.177+34.382C309.147+35.35+309.205+35.886+309.343+45.059L309.488+54.717L311.819+54.717L314.151+54.717L314.151+44.724C314.151+35.732+314.058+34.539+313.218+32.804C311.397+29.044+306.484+27.768+302.026+29.896M338.576+29.387C335.279+30.078+334.816+30.495+335.31+32.323L335.689+33.726L340.504+33.551C346.281+33.341+347.17+33.808+347.17+37.047L347.17+39.041L342.571+39.24C335.248+39.558+333.491+41.121+333.491+47.321C333.491+53.837+338.869+56.875+346.074+54.428C347.633+53.899+348.367+53.828+348.489+54.193C348.585+54.481+349.509+54.717+350.543+54.717L352.423+54.717L352.273+44.137C352.109+32.563+352.061+32.361+348.953+30.04C347.419+28.895+342.42+28.581+338.576+29.387M361.979+29.284C357.877+30.474+356.937+33.195+357.15+43.258C357.33+51.765+357.636+52.677+360.883+54.392C362.558+55.277+368.413+55.319+370.476+54.461C371.897+53.87+371.145+58.316+369.555+59.902C368.453+61+368.045+61.085+363.839+61.085C359.13+61.085+357.85+61.802+358.683+63.973C359.366+65.752+368.273+66.167+371.565+64.573C375.554+62.642+375.686+62.024+375.85+44.458L375.992+29.245L374.12+29.245C373.091+29.245+372.17+29.479+372.075+29.765C371.955+30.127+371.125+30.055+369.356+29.53C366.574+28.704+364.246+28.626+361.979+29.284M386.85+29.217C381.959+30.462+381.055+32.605+381.23+42.537C381.381+51.124+381.548+51.689+384.615+53.98C387.503+56.137+398.204+55.25+398.487+52.83C398.766+50.439+397.81+49.942+393.886+50.436C387.85+51.197+386.308+50.335+385.948+45.996L385.734+43.422L392.749+43.291L399.764+43.16L399.675+38.811C399.507+30.616+394.898+27.167+386.85+29.217M121.069+29.56C120.896+29.733+120.755+35.464+120.755+42.296L120.755+54.717L123.113+54.717L125.472+54.717L125.472+41.981L125.472+29.245L123.428+29.245C122.303+29.245+121.242+29.387+121.069+29.56M248.585+30.1C248.585+30.896+250.971+39.264+254.3+50.139L255.714+54.759L258.867+54.62L262.02+54.481L265.632+42.217C269.676+28.49+269.623+29.245+266.546+29.245L264.28+29.245L262.596+35.024C261.669+38.202+260.433+42.472+259.848+44.513L258.785+48.224L257.049+42.155C256.094+38.816+254.851+34.546+254.287+32.665L253.262+29.245L250.923+29.245C248.98+29.245+248.585+29.39+248.585+30.1M40.094+33.019C40.094+33.553+40.409+33.962+40.818+33.962C41.396+33.962+41.441+33.772+41.038+33.019C40.76+32.5+40.434+32.075+40.314+32.075C40.193+32.075+40.094+32.5+40.094+33.019M368.845+33.53L371.226+34.04L371.226+42.21L371.226+50.379L368.376+50.71C362.596+51.381+361.576+49.851+361.858+40.945C362.097+33.423+363.148+32.308+368.845+33.53M16.305+35.142C16.018+36.669+16.083+36.792+17.168+36.792C18.411+36.792+19.181+37.487+18.444+37.942C18.202+38.092+17.46+38.007+16.794+37.755C15.687+37.334+15.548+37.423+15.146+38.812L14.708+40.33L14.665+38.616C14.633+37.32+14.393+36.842+13.679+36.656C13.16+36.52+12.736+36.173+12.736+35.884C12.736+35.567+13.18+35.471+13.855+35.64C14.773+35.871+15.029+35.703+15.279+34.706C15.755+32.809+16.669+33.197+16.305+35.142M239.623+41.717C239.623+50.912+239.806+50.459+235.935+50.809C231.407+51.219+230.932+50.52+230.739+43.157C230.498+33.992+230.777+33.491+236.119+33.491L239.623+33.491L239.623+41.717M393.568+34.468C394.577+35.261+394.811+35.84+394.811+37.534L394.811+39.623L390.33+39.623L385.849+39.623L385.849+37.714C385.849+33.91+390.417+31.989+393.568+34.468M47.17+39.336C47.17+39.698+47.488+40.116+47.877+40.265C48.359+40.45+48.585+40.239+48.585+39.608C48.585+39.097+48.267+38.679+47.877+38.679C47.488+38.679+47.17+38.975+47.17+39.336M62.884+42.369C64.529+42.558+64.286+43.664+62.624+43.551C61.674+43.486+61.339+43.77+60.955+44.966L60.474+46.462L60.426+44.988C60.385+43.743+60.158+43.47+58.962+43.231C57.016+42.842+57.179+41.981+59.198+41.981C60.671+41.981+60.855+41.841+60.905+40.684L60.961+39.387L61.261+40.802C61.496+41.911+61.847+42.25+62.884+42.369M285.377+46.416L285.377+49.908L283.892+50.426C279.817+51.846+276.969+50.808+276.559+47.753C276.072+44.122+277.364+43.114+282.665+42.989L285.377+42.925L285.377+46.416M347.17+46.416L347.17+49.908L345.684+50.426C341.664+51.827+338.866+50.734+338.407+47.582C337.923+44.259+339.5+43.057+344.458+42.972L347.17+42.925L347.17+46.416M36.967+46.177C36.73+47.365+36.856+47.536+38.162+47.798C40.228+48.211+40.077+49.254+38+48.917C36.611+48.691+36.356+48.796+36.231+49.644C36.151+50.188+35.855+50.709+35.575+50.801C35.259+50.905+35.142+50.444+35.268+49.589C35.447+48.366+35.304+48.172+34.009+47.888C33.205+47.711+32.547+47.28+32.547+46.929C32.547+46.435+32.89+46.391+34.077+46.731C34.919+46.972+35.645+47.17+35.691+47.17C35.736+47.17+35.914+46.531+36.086+45.751C36.478+43.963+37.328+44.374+36.967+46.177M20.985+46.251C20.7+47.547+20.815+47.746+22.127+48.241C24.011+48.952+24.018+49.698+22.137+49.285C20.922+49.018+20.648+49.126+20.431+49.955C20.289+50.499+19.981+50.943+19.747+50.943C19.513+50.943+19.453+50.418+19.615+49.776C19.852+48.831+19.674+48.502+18.68+48.049C17.072+47.317+17.11+46.627+18.75+46.798C19.787+46.907+20.077+46.721+20.198+45.873C20.281+45.289+20.563+44.811+20.825+44.811C21.111+44.811+21.175+45.388+20.985+46.251M72.88+47.638C72.499+48.254+70.755+48.257+70.755+47.642C70.755+47.382+70.967+47.17+71.226+47.17C71.486+47.17+71.698+46.836+71.698+46.429C71.698+45.756+71.767+45.756+72.436+46.425C72.841+46.831+73.041+47.376+72.88+47.638M52.975+49.292C52.725+50.829+52.793+50.943+53.948+50.943C54.63+50.943+55.189+51.156+55.189+51.415C55.189+51.675+54.463+51.887+53.575+51.887C52.166+51.887+51.922+52.066+51.651+53.302C51.207+55.321+50.292+55.118+50.673+53.084C50.961+51.547+50.889+51.425+49.428+51.004L47.877+50.557L49.661+50.514C50.806+50.487+51.524+50.218+51.666+49.764C51.787+49.375+51.986+48.738+52.108+48.349C52.552+46.928+53.237+47.674+52.975+49.292M27.507+52.571C27.27+54.03+27.371+54.23+28.48+54.509C30.182+54.936+30.043+55.545+28.302+55.289C27.038+55.104+26.887+55.213+26.887+56.314C26.887+56.992+26.675+57.547+26.415+57.547C26.156+57.547+25.943+56.914+25.943+56.141C25.943+55.035+25.692+54.672+24.764+54.439C23.11+54.024+23.273+53.158+24.936+53.524C26.156+53.792+26.316+53.68+26.575+52.382C26.975+50.384+27.833+50.558+27.507+52.571M9.434+54.949C9.434+55.305+9.858+55.732+10.377+55.896C10.896+56.061+11.321+56.416+11.321+56.686C11.321+56.956+11+57.053+10.607+56.903C10.041+56.685+9.958+56.883+10.204+57.866C10.423+58.735+10.354+59.004+9.974+58.769C9.677+58.585+9.434+58.127+9.434+57.751C9.434+57.374+9.009+56.703+8.491+56.258C7.528+55.435+7.163+54.424+8.019+54.953C8.278+55.113+8.491+54.901+8.491+54.481C8.491+54.061+8.703+53.849+8.962+54.009C9.222+54.17+9.434+54.593+9.434+54.949M46.61+57.193C46.478+58.561+46.603+58.743+47.767+58.876C48.485+58.959+48.955+59.217+48.81+59.451C48.666+59.684+47.939+59.753+47.195+59.604C46.136+59.392+45.726+59.55+45.31+60.327C45.017+60.874+44.566+61.321+44.306+61.321C43.992+61.321+43.992+61.027+44.306+60.439C44.878+59.371+44.54+58.962+43.082+58.962C42.476+58.962+41.981+58.722+41.981+58.429C41.981+58.085+42.555+57.989+43.598+58.158C45.061+58.395+45.261+58.288+45.696+57.04C46.334+55.21+46.795+55.287+46.61+57.193M57.269+58.726C57.045+59.618+57.158+59.906+57.732+59.906C58.149+59.906+58.491+60.118+58.491+60.377C58.491+60.637+58.021+60.849+57.447+60.849C56.873+60.849+55.901+61.433+55.286+62.146C54.236+63.366+54.168+63.17+54.958+61.203C55.226+60.535+55.039+60.377+53.981+60.377C53.262+60.377+52.822+60.228+53.005+60.045C53.188+59.862+53.913+59.703+54.617+59.691C55.479+59.677+56.048+59.323+56.362+58.608C56.991+57.174+57.638+57.259+57.269+58.726M17.639+61.053C17.797+61.685+18.351+62.336+18.869+62.5C20.063+62.879+20.118+63.869+18.928+63.558C18.229+63.376+18.088+63.537+18.255+64.329C18.462+65.311+18.452+65.312+17.724+64.415C17.315+63.911+16.981+63.327+16.981+63.117C16.981+62.908+16.689+62.736+16.331+62.736C15.974+62.736+15.39+62.382+15.034+61.95C14.452+61.243+14.513+61.196+15.639+61.476C16.725+61.746+16.859+61.662+16.646+60.847C16.51+60.329+16.613+59.906+16.875+59.906C17.137+59.906+17.48+60.422+17.639+61.053M40.237+63.658C40.054+64.354+40.296+64.655+41.224+64.888C42.969+65.326+42.785+66.222+41.023+65.87C39.805+65.626+39.527+65.757+39.148+66.754C38.518+68.411+37.698+68.229+38.042+66.509C38.284+65.302+38.182+65.094+37.351+65.094C36.815+65.094+36.245+64.882+36.085+64.623C35.911+64.342+36.478+64.151+37.487+64.151C38.557+64.151+39.28+63.891+39.452+63.443C39.852+62.4+40.518+62.582+40.237+63.658M29.964+68.952C30.805+69.319+30.793+69.339+29.835+69.158C29.035+69.006+28.774+69.178+28.774+69.855C28.774+70.35+28.546+70.755+28.267+70.755C27.989+70.755+27.836+70.383+27.927+69.929C28.031+69.411+27.648+68.891+26.9+68.534L25.708+67.963L27.005+68.231C28.121+68.461+28.308+68.343+28.349+67.386L28.396+66.274L28.714+67.409C28.888+68.034+29.451+68.728+29.964+68.952M52.892+71.859C52.603+72.208+52.482+72.608+52.623+72.748C52.763+72.889+52.133+73.091+51.222+73.198C49.397+73.411+49.401+73.342+51.294+72.129C52.866+71.121+53.609+70.996+52.892+71.859" opacity="1" fill="#2537a5"/>
</g>
</svg>
