<?xml version="1.0" encoding="UTF-8" standalone="no"?> <!-- Created with Vectornator for iOS (http://vectornator.io/) --><!DOCTYPE svg PUBLIC "-//W3C//DTD SVG 1.1//EN" "http://www.w3.org/Graphics/SVG/1.1/DTD/svg11.dtd">
<svg height="100%" style="fill-rule:nonzero;clip-rule:evenodd;stroke-linecap:round;stroke-linejoin:round;" xmlns:xlink="http://www.w3.org/1999/xlink" xmlns="http://www.w3.org/2000/svg" xml:space="preserve" width="100%" xmlns:vectornator="http://vectornator.io" version="1.1" viewBox="0 0 2420 720">
<metadata>
<vectornator:setting key="DimensionsVisible" value="1"/>
<vectornator:setting key="PencilOnly" value="0"/>
<vectornator:setting key="SnapToPoints" value="0"/>
<vectornator:setting key="OutlineMode" value="0"/>
<vectornator:setting key="CMYKEnabledKey" value="0"/>
<vectornator:setting key="RulersVisible" value="1"/>
<vectornator:setting key="SnapToEdges" value="0"/>
<vectornator:setting key="GuidesVisible" value="1"/>
<vectornator:setting key="DisplayWhiteBackground" value="0"/>
<vectornator:setting key="doHistoryDisabled" value="0"/>
<vectornator:setting key="SnapToGuides" value="1"/>
<vectornator:setting key="TimeLapseWatermarkDisabled" value="0"/>
<vectornator:setting key="Units" value="Pixels"/>
<vectornator:setting key="DynamicGuides" value="0"/>
<vectornator:setting key="IsolateActiveLayer" value="0"/>
<vectornator:setting key="SnapToGrid" value="1"/>
</metadata>
<defs/>
<g id="Layer 1" vectornator:layerName="Layer 1">
<path d="M8.66393+366.78L8.66393+724.78L721.664+724.78L721.664+8.78021L8.66393+8.78021L8.66393+366.78ZM293.664+188.78L293.664+224.78L222.664+224.78L222.664+152.78L293.664+152.78L293.664+188.78ZM436.664+188.78L436.664+224.78L364.664+224.78L364.664+189.48C364.664+169.98+364.964+153.78+365.364+153.48C365.664+153.08+381.864+152.78+401.364+152.78L436.664+152.78C436.664+152.78+436.664+188.78+436.664+188.78ZM579.464+188.98L579.664+224.78L507.664+224.78L507.664+152.78L543.464+152.98L579.164+153.28C579.164+153.28+579.464+188.98+579.464+188.98ZM293.664+403.28L293.664+510.78L222.664+510.78L222.664+295.78L293.664+295.78L293.664+403.28ZM436.464+403.48L436.664+510.78L364.664+510.78L364.664+403.98C364.664+345.18+364.964+296.78+365.364+296.48C365.764+296.08+381.764+295.88+401.064+295.98L436.164+296.28C436.164+296.28+436.464+403.48+436.464+403.48ZM579.464+403.48L579.664+510.78L507.664+510.78L507.664+295.88L543.464+296.08L579.164+296.28C579.164+296.28+579.464+403.48+579.464+403.48ZM1148.46+78.2802C1135.36+80.9802+1122.46+89.3802+1115.76+99.4802C1109.06+109.48+1106.86+124.58+1110.26+137.28C1114.76+154.68+1126.96+164.58+1155.16+173.78C1176.16+180.58+1181.66+184.78+1181.66+194.18C1181.66+205.58+1172.06+213.78+1157.66+214.58C1145.26+215.28+1134.96+210.58+1128.36+201.18L1125.36+196.88L1114.06+206.58C1107.86+211.88+1102.76+216.58+1102.76+216.98C1102.66+217.38+1105.36+220.58+1108.66+224.08C1119.46+235.68+1131.96+240.68+1152.16+241.48C1163.46+241.98+1166.16+241.78+1173.36+239.78C1200.26+232.48+1215.76+208.58+1210.66+181.98C1209.26+174.38+1205.96+168.38+1200.16+162.48C1193.06+155.38+1187.96+152.78+1168.46+146.38C1151.06+140.68+1145.66+137.98+1141.46+132.98C1134.26+124.38+1138.96+110.48+1150.46+106.08C1156.16+103.88+1166.26+103.78+1173.06+105.68C1177.86+107.08+1185.06+112.88+1187.46+117.28C1188.46+119.08+1188.66+118.98+1192.86+115.48C1195.16+113.48+1200.46+108.78+1204.56+104.98L1212.06+98.1802L1205.96+92.0802C1195.96+82.0802+1184.86+77.9802+1166.16+77.2802C1158.96+76.9802+1152.86+77.2802+1148.46+78.2802ZM1938.16+77.7802C1910.06+82.2802+1887.46+99.9802+1877.06+125.58C1872.06+137.98+1871.16+143.38+1871.16+159.78C1871.26+177.78+1872.36+183.38+1879.16+197.28C1888.66+216.88+1905.06+231.18+1926.16+238.38C1932.96+240.68+1936.26+241.18+1948.16+241.58C1965.46+242.08+1972.06+240.78+1986.56+233.68C1995.26+229.38+1998.26+227.28+2004.86+220.68C2009.26+216.28+2012.66+212.18+2012.46+211.48C2012.06+210.18+1990.96+193.78+1989.66+193.78C1989.26+193.78+1987.66+195.58+1986.16+197.78C1982.46+203.08+1975.96+208.28+1969.06+211.48C1962.16+214.58+1948.46+215.68+1939.46+213.88C1921.96+210.18+1907.76+196.28+1902.06+177.28C1899.66+169.28+1899.66+152.68+1902.06+143.78C1909.16+117.48+1933.06+100.58+1957.46+104.58C1967.06+106.18+1977.66+111.68+1982.76+117.78L1986.86+122.68L1998.26+113.98C2004.56+109.18+2009.66+104.88+2009.66+104.38C2009.66+103.98+2006.36+100.28+2002.46+96.2802C1994.26+88.1802+1983.26+82.0802+1971.66+79.2802C1963.56+77.3802+1946.16+76.5802+1938.16+77.7802ZM867.164+81.9802C866.864+82.6802+866.764+118.18+866.864+160.78L867.164+238.28L895.164+238.28L895.464+159.48L895.664+80.7802L881.664+80.7802C871.364+80.7802+867.464+81.0802+867.164+81.9802ZM936.664+159.78L936.664+238.78L964.664+238.78L964.864+181.88L965.164+124.88L1003.56+181.88L1042.06+238.78L1073.66+238.78L1073.66+80.7802L1045.66+80.7802L1045.66+137.38C1045.66+168.48+1045.36+193.68+1044.96+193.48C1044.46+193.18+1027.26+167.78+1006.66+136.88L969.164+80.8802L952.964+80.7802L936.664+80.7802C936.664+80.7802+936.664+159.78+936.664+159.78ZM1241.86+137.48L1242.16+194.28L1244.86+201.58C1251.96+221.18+1267.36+235.28+1287.16+240.28C1294.86+242.28+1311.46+242.18+1319.16+240.28C1337.16+235.58+1350.26+224.88+1358.56+208.08C1364.46+196.18+1364.66+194.58+1364.66+134.98L1364.66+80.7802L1336.66+80.7802L1336.66+130.68C1336.66+159.78+1336.26+182.78+1335.66+185.88C1333.26+198.98+1324.36+210.28+1314.36+213.28C1307.86+215.18+1298.46+215.18+1291.96+213.28C1281.66+210.18+1273.26+199.28+1270.66+185.78C1270.06+182.68+1269.66+159.58+1269.66+130.68L1269.66+80.7802L1241.56+80.7802C1241.56+80.7802+1241.86+137.48+1241.86+137.48ZM1395.86+159.48L1396.16+238.28L1424.16+238.28L1424.46+205.48L1424.66+172.68L1432.76+172.98L1440.76+173.28L1459.56+205.78L1478.26+238.28L1495.56+238.58C1509.56+238.78+1512.76+238.58+1512.36+237.48C1512.06+236.78+1502.56+221.18+1491.16+202.88C1479.86+184.58+1470.66+169.48+1470.86+169.38C1471.06+169.28+1473.56+168.18+1476.46+166.98C1495.46+159.28+1506.56+140.28+1503.76+120.38C1503.16+116.48+1502.26+111.78+1501.76+109.98C1499.06+100.88+1490.66+91.3802+1481.16+86.6802C1470.56+81.4802+1464.56+80.7802+1428.36+80.7802L1395.66+80.7802C1395.66+80.7802+1395.86+159.48+1395.86+159.48ZM1465.06+109.88C1468.76+111.68+1470.66+113.48+1472.36+116.78C1476.26+124.08+1475.06+135.08+1469.86+140.08C1464.96+144.78+1459.66+145.98+1441.46+146.58L1424.66+147.08L1424.66+106.58L1442.46+106.98C1459.06+107.28+1460.46+107.48+1465.06+109.88ZM1595.56+87.0802C1594.06+90.4802+1578.66+125.68+1561.26+165.18C1543.86+204.68+1529.66+237.48+1529.66+237.98C1529.66+238.38+1536.86+238.78+1545.56+238.78L1561.46+238.78L1568.86+220.28L1576.16+201.78L1642.16+201.78L1649.56+220.28L1657.06+238.78L1672.86+238.78C1683.36+238.78+1688.66+238.38+1688.66+237.68C1688.66+237.18+1675.66+206.18+1659.76+168.98C1643.86+131.78+1628.96+96.6802+1626.56+90.9802L1622.26+80.7802L1598.16+80.7802C1598.16+80.7802+1595.56+87.0802+1595.56+87.0802ZM1620.56+149.18C1626.16+162.88+1630.66+174.48+1630.66+174.88C1630.66+175.38+1620.96+175.78+1609.16+175.78C1595.36+175.78+1587.66+175.38+1587.66+174.78C1587.66+172.08+1609.06+121.78+1609.76+122.98C1610.16+123.68+1615.06+135.48+1620.56+149.18ZM1709.66+159.78L1709.66+238.78L1737.66+238.78L1737.86+181.48L1738.16+124.28L1776.66+181.28L1815.16+238.28L1830.96+238.58L1846.66+238.88L1846.66+80.7802L1818.66+80.7802L1818.46+137.38L1818.16+193.98L1780.36+137.38L1742.56+80.7802L1709.66+80.7802L1709.66+159.78ZM2037.66+159.78L2037.66+238.78L2145.66+238.78L2145.66+210.78L2065.66+210.78L2065.66+171.78L2136.66+171.78L2136.66+143.78L2065.66+143.78L2065.66+107.78L2141.66+107.78L2141.66+80.7802L2037.66+80.7802L2037.66+159.78ZM1305.36+299.78C1263.66+304.88+1234.66+338.58+1234.66+381.78C1234.66+421.58+1259.06+453.48+1296.46+462.38C1304.76+464.48+1325.76+464.68+1334.16+462.88C1360.46+457.18+1382.26+438.78+1391.76+414.28C1396.16+403.08+1397.66+394.88+1397.66+382.58C1397.66+348.38+1381.66+321.38+1353.16+307.68C1338.96+300.78+1321.06+297.88+1305.36+299.78ZM1330.26+328.18C1359.36+335.88+1375.56+370.08+1365.06+401.68C1355.16+431.48+1322.06+445.68+1293.86+432.28C1275.16+423.38+1264.36+404.88+1264.36+381.78C1264.36+356.18+1277.46+336.58+1299.66+329.08C1307.36+326.38+1322.16+325.98+1330.26+328.18ZM2161.06+299.78C2146.46+301.68+2130.16+308.58+2119.36+317.68C2105.96+329.08+2096.16+345.68+2092.46+363.38C2089.86+375.98+2090.36+394.28+2093.66+405.58C2102.86+437.98+2128.56+459.78+2162.46+463.88C2205.66+469.08+2243.66+441.98+2252.26+399.78C2253.56+393.38+2253.76+388.38+2253.36+377.88C2252.76+361.98+2251.26+355.68+2245.06+343.28C2236.06+325.08+2222.96+312.78+2204.46+305.28C2192.36+300.38+2174.66+298.18+2161.06+299.78ZM2186.16+328.18C2202.76+332.58+2215.16+344.68+2221.36+362.48C2226.56+377.58+2224.66+398.38+2216.86+411.78C2207.86+427.28+2191.66+436.88+2173.66+437.08C2158.06+437.18+2146.66+432.78+2136.06+422.28C2125.76+412.08+2120.26+397.98+2120.36+381.58C2120.46+370.98+2121.86+364.38+2126.26+355.28C2132.26+342.58+2142.36+333.58+2155.46+329.08C2163.36+326.38+2177.96+325.98+2186.16+328.18ZM867.364+303.48C866.964+303.78+866.664+339.38+866.664+382.48L866.664+460.78L895.664+460.78L895.664+302.78L881.864+302.78C874.264+302.78+867.664+303.08+867.364+303.48ZM936.664+381.78L936.664+460.78L964.664+460.78L964.664+346.38L976.964+364.58C983.664+374.58+1000.96+400.38+1015.46+421.78L1041.86+460.78L1073.66+460.78L1073.66+302.78L1045.66+302.78L1045.46+359.88L1045.16+417.08L1007.16+359.98L969.164+302.88L952.964+302.78L936.664+302.78C936.664+302.78+936.664+381.78+936.664+381.78ZM1114.66+381.78L1114.66+460.78L1142.66+460.78L1142.66+395.78L1211.66+395.78L1211.66+368.78L1142.66+368.78L1142.66+329.78L1216.66+329.78L1216.66+302.78L1114.66+302.78L1114.66+381.78ZM1421.66+381.78L1421.66+460.78L1449.66+460.78L1449.66+394.68L1457.86+394.98L1466.06+395.28L1483.36+425.28C1492.76+441.78+1501.26+456.48+1502.16+457.98L1503.76+460.78L1538.66+460.78L1532.06+449.98C1528.36+444.08+1518.96+428.88+1511.06+416.18C1503.16+403.48+1496.66+392.58+1496.66+391.98C1496.66+391.28+1497.26+390.78+1497.96+390.78C1498.76+390.78+1502.06+389.38+1505.36+387.78C1518.36+381.28+1528.16+367.18+1529.36+353.18C1530.96+333.28+1522.36+316.68+1506.36+308.78C1496.06+303.78+1488.16+302.88+1452.96+302.78L1421.66+302.78C1421.66+302.78+1421.66+381.78+1421.66+381.78ZM1490.16+332.28C1498.06+336.28+1499.86+339.68+1499.46+349.78C1499.06+358.88+1496.96+362.48+1489.86+365.98C1485.56+368.08+1483.56+368.28+1467.46+368.58L1449.66+368.98L1449.66+328.58L1466.96+328.88C1483.76+329.28+1484.36+329.38+1490.16+332.28ZM1563.66+381.78L1563.66+460.78L1591.66+460.78L1591.66+407.48C1591.76+362.28+1591.96+354.68+1593.06+356.78C1593.86+358.18+1603.76+382.18+1615.16+410.08L1635.96+460.88L1645.46+460.58L1655.06+460.28L1676.56+407.68L1698.16+354.98L1698.46+407.88L1698.66+460.78L1727.66+460.78L1727.46+381.98L1727.16+303.28L1690.26+303.28L1668.96+354.28C1657.26+382.28+1647.36+406.28+1647.06+407.48C1646.76+408.78+1646.16+409.78+1645.76+409.78C1645.46+409.78+1640.76+399.28+1635.46+386.48C1630.16+373.78+1620.06+349.68+1613.06+332.98L1600.36+302.78L1563.66+302.78C1563.66+302.78+1563.66+381.78+1563.66+381.78ZM1809.06+310.48C1807.06+314.78+1791.76+349.58+1774.96+387.78C1758.16+425.98+1744.06+458.08+1743.46+458.98C1742.66+460.68+1743.66+460.78+1759.06+460.78L1775.46+460.78L1782.86+442.28L1790.16+423.78L1823.06+423.98L1856.06+424.28L1863.26+442.28L1870.46+460.28L1886.66+460.58C1901.86+460.78+1902.86+460.68+1902.36+459.08C1901.96+457.68+1846.76+327.98+1837.66+306.98L1835.76+302.78L1812.56+302.78C1812.56+302.78+1809.06+310.48+1809.06+310.48ZM1835.26+373.68C1840.46+386.48+1844.56+397.18+1844.36+397.38C1844.16+397.68+1834.26+397.68+1822.46+397.58L1800.96+397.28L1811.96+370.48L1822.96+343.68L1824.36+346.98C1825.16+348.78+1830.06+360.78+1835.26+373.68ZM1891.66+315.28C1891.66+322.18+1891.56+328.08+1891.46+328.48C1891.26+328.98+1901.96+329.48+1915.16+329.78C1933.36+330.18+1939.16+330.58+1939.26+331.48C1939.36+332.18+1939.46+361.58+1939.56+396.78L1939.66+460.78L1967.66+460.78L1967.66+329.78L2015.66+329.78L2015.66+302.78L1891.66+302.78C1891.66+302.78+1891.66+315.28+1891.66+315.28ZM2039.66+381.78L2039.66+460.78L2067.66+460.78L2067.66+302.78L2039.66+302.78L2039.66+381.78ZM2276.66+381.78L2276.66+460.78L2304.66+460.78L2304.86+403.78L2305.16+346.68L2317.66+365.28C2324.56+375.48+2341.86+401.08+2356.16+422.28L2382.06+460.78L2413.66+460.78L2413.66+302.78L2385.66+302.78L2385.46+359.58L2385.16+416.48L2347.16+359.58L2309.16+302.78L2276.66+302.78L2276.66+381.78ZM1086.26+525.28C1069.26+531.28+1060.26+546.58+1063.46+563.88C1065.96+577.68+1073.76+584.48+1095.16+591.68C1118.06+599.38+1123.56+603.28+1125.76+613.28C1131.56+639.18+1092.96+652.48+1074.46+630.78L1071.06+626.88L1066.06+630.38C1063.36+632.28+1061.06+634.18+1060.86+634.68C1060.36+636.08+1069.16+643.98+1074.06+646.48C1097.96+658.68+1126.36+651.38+1136.66+630.28C1138.66+626.18+1139.16+623.78+1139.16+616.78C1139.16+609.48+1138.76+607.48+1136.36+602.58C1133.36+596.38+1125.66+589.08+1123.56+590.38C1122.86+590.78+1122.66+590.68+1122.96+590.08C1123.76+588.78+1116.56+585.38+1103.86+581.28C1091.46+577.28+1083.56+572.88+1079.26+567.48C1076.46+563.98+1076.16+562.98+1076.16+556.48C1076.26+545.68+1079.46+540.68+1089.56+535.98C1097.26+532.38+1108.06+532.48+1115.86+536.18C1119.06+537.68+1122.76+540.28+1124.16+541.98C1126.96+545.28+1127.06+545.28+1134.16+539.48C1137.16+536.98+1137.16+536.98+1135.26+534.88C1131.86+531.18+1123.36+526.08+1117.76+524.38C1109.16+521.88+1094.76+522.28+1086.26+525.28ZM867.664+587.78L867.664+649.78L879.664+649.78L879.664+525.78L867.664+525.78L867.664+587.78ZM922.664+587.78L922.664+649.78L934.664+649.78L934.664+596.28C934.664+566.88+935.064+542.78+935.464+542.78C935.864+542.78+936.964+543.98+937.864+545.48C938.764+547.08+946.964+559.08+956.164+572.28C965.364+585.48+975.864+600.58+979.464+605.78C983.064+610.98+991.364+623.08+997.964+632.48L1010.06+649.78L1024.66+649.78L1024.66+525.68L1018.96+525.98L1013.16+526.28L1012.96+577.78C1012.76+606.08+1012.56+629.68+1012.36+630.18C1012.06+631.08+1009.26+627.28+999.664+613.38C991.964+602.18+986.064+594.08+984.864+592.98C983.964+592.38+983.564+591.78+983.964+591.78C984.364+591.78+980.864+586.48+976.264+579.98C971.664+573.58+965.264+564.38+962.064+559.68C948.364+539.88+943.164+532.98+942.264+533.48C941.764+533.78+941.664+533.58+942.064+532.98C942.464+532.38+941.764+530.48+940.564+528.78C938.364+525.88+937.964+525.78+930.464+525.78L922.664+525.78C922.664+525.78+922.664+587.78+922.664+587.78ZM1160.66+531.28L1160.66+536.78L1201.66+536.78L1201.66+649.78L1213.66+649.78L1213.46+593.28L1213.16+536.78L1255.66+536.78L1255.66+525.78L1160.66+525.78C1160.66+525.78+1160.66+531.28+1160.66+531.28ZM1284.46+586.78C1284.26+620.38+1284.36+648.28+1284.46+648.78C1284.66+649.38+1287.26+649.78+1290.26+649.78L1295.66+649.78L1295.66+525.78L1284.66+525.78C1284.66+525.78+1284.46+586.78+1284.46+586.78ZM1324.66+531.28L1324.66+536.78L1366.66+536.78L1366.66+649.78L1378.66+649.78L1378.66+536.78L1419.66+536.78L1419.66+525.78L1324.66+525.78L1324.66+531.28ZM1446.96+570.98C1447.36+620.18+1447.46+621.08+1453.16+631.68C1461.66+647.18+1479.56+654.98+1499.86+651.98C1518.76+649.28+1531.26+637.48+1535.26+618.88C1536.26+613.78+1536.66+602.28+1536.66+568.98L1536.66+525.78L1524.76+525.78L1524.46+570.98C1524.16+616.08+1524.16+616.28+1521.76+622.18C1518.96+629.18+1513.16+635.38+1506.16+638.78C1499.16+642.18+1485.46+642.28+1478.16+638.98C1472.26+636.28+1466.26+630.78+1463.56+625.58C1459.16+616.98+1458.66+611.58+1458.66+567.48L1458.66+525.78L1446.56+525.78C1446.56+525.78+1446.96+570.98+1446.96+570.98ZM1563.66+531.28L1563.66+536.78L1605.66+536.78L1605.66+649.78L1617.66+649.78L1617.66+536.78L1658.66+536.78L1658.66+525.78L1563.66+525.78L1563.66+531.28ZM1687.66+587.78L1687.66+649.78L1726.66+649.78C1757.16+649.78+1765.66+649.48+1765.76+648.48C1765.86+647.88+1765.86+645.48+1765.96+643.28L1765.96+639.28L1732.76+638.98L1699.66+638.78L1699.66+590.78L1759.66+590.78L1759.66+579.78L1699.66+579.78L1699.66+536.78L1763.66+536.78L1763.66+525.78L1687.66+525.78C1687.66+525.78+1687.66+587.78+1687.66+587.78Z" opacity="1" fill="#0a2c45"/>
</g>
</svg>
