<?xml version="1.0" encoding="UTF-8" standalone="no"?> <!-- Created with Vectornator for iOS (http://vectornator.io/) --><!DOCTYPE svg PUBLIC "-//W3C//DTD SVG 1.1//EN" "http://www.w3.org/Graphics/SVG/1.1/DTD/svg11.dtd">
<svg height="100%" style="fill-rule:nonzero;clip-rule:evenodd;stroke-linecap:round;stroke-linejoin:round;" xmlns:xlink="http://www.w3.org/1999/xlink" xmlns="http://www.w3.org/2000/svg" xml:space="preserve" width="100%" xmlns:vectornator="http://vectornator.io" version="1.1" viewBox="0 0 144 56">
<metadata>
<vectornator:setting key="DimensionsVisible" value="1"/>
<vectornator:setting key="PencilOnly" value="0"/>
<vectornator:setting key="SnapToPoints" value="0"/>
<vectornator:setting key="OutlineMode" value="0"/>
<vectornator:setting key="CMYKEnabledKey" value="0"/>
<vectornator:setting key="RulersVisible" value="1"/>
<vectornator:setting key="SnapToEdges" value="0"/>
<vectornator:setting key="GuidesVisible" value="1"/>
<vectornator:setting key="DisplayWhiteBackground" value="0"/>
<vectornator:setting key="doHistoryDisabled" value="0"/>
<vectornator:setting key="SnapToGuides" value="1"/>
<vectornator:setting key="TimeLapseWatermarkDisabled" value="0"/>
<vectornator:setting key="Units" value="Points"/>
<vectornator:setting key="DynamicGuides" value="0"/>
<vectornator:setting key="IsolateActiveLayer" value="0"/>
<vectornator:setting key="SnapToGrid" value="0"/>
</metadata>
<defs/>
<g id="Layer 1" vectornator:layerName="Layer 1">
<g opacity="1">
<path d="M23.2348+19.0206C22.0241+19.6779+22.1879+22.5256+23.4678+23.0607C24.089+23.3204+26.7411+23.3261+27.3574+23.0684C28.6958+22.5093+28.854+19.6715+27.5812+19.0143C27.027+18.7277+23.7664+18.7319+23.2355+19.0206M32.8975+18.9889C31.7546+19.4371+30.9929+20.1226+30.551+21.0996C30.2856+21.6862+30.2764+21.9531+30.2736+29.4839L30.2708+37.2618L36.3319+37.2618L36.3319+30.6557C36.3319+22.1324+36.082+22.7155+39.733+22.7155L42.0202+22.7155L42.5433+23.2386L43.0657+23.7609L43.0657+37.2618L49.1282+37.2618L49.1282+29.5672C49.1282+20.7763+49.1677+21.1314+48.0552+20.0118C46.8325+18.7813+47.021+18.8082+39.6419+18.8202C35.1233+18.8272+33.1855+18.8759+32.8982+18.9889M53.3475+19.0919C52.4954+19.4195+51.6236+20.2398+51.2361+21.0784C50.9516+21.694+50.9452+21.8486+50.9064+29.4839L50.8669+37.2618L57.0741+37.2618L57.079+30.5611C57.0854+22.0978+56.8249+22.7183+60.3743+22.7169C64.0338+22.7169+63.8086+22.1917+63.8086+30.7256L63.8086+37.2625L69.8768+37.2625L69.8394+29.3491L69.8019+21.4356L69.4342+20.8109C68.9894+20.0534+68.4099+19.5466+67.5119+19.1272L66.8385+18.8124L60.4406+18.818C54.3866+18.8237+54.0061+18.8378+53.3468+19.0919M73.8342+19.1936C71.7122+20.2045+71.6197+20.573+71.6197+28.036C71.6197+35.5181+71.727+35.9353+73.8956+36.9081L74.706+37.2717L81.2782+37.2328C87.4197+37.1975+87.8807+37.1778+88.3212+36.9406C89.2255+36.4535+89.7895+35.9001+90.1658+35.1348L90.5435+34.3661L90.5435+21.7053L90.1658+20.9372C89.7902+20.1713+89.2255+19.6193+88.3212+19.1315C87.8807+18.8936+87.4219+18.8745+81.2499+18.8413L74.6502+18.8046L73.8342+19.1929M92.3634+26.5882L92.3648+34.3661L92.6803+35.0445C93.4512+36.6999+94.6534+37.2632+97.403+37.259C100.715+37.254+100.334+37.6267+104.889+29.9216C105.458+28.9587+106.509+27.1854+107.225+25.9825L109.812+21.6213C110.52+20.4269+111.193+19.3058+111.309+19.1294L111.519+18.8096L106.572+18.8096L105.835+20.0555C105.429+20.7403+104.124+22.9378+102.935+24.9384C101.832+26.7912+100.731+28.6441+99.6308+30.4982L98.49+32.4218L98.4547+25.616L98.4201+18.8094L92.3619+18.8094L92.3634+26.5882M114.265+19.0072C113.044+19.4428+113.183+19.2423+107.649+28.5747C106.43+30.6318+105.209+32.6878+103.986+34.7428C103.29+35.9132+102.685+36.9587+102.644+37.0667C102.58+37.2326+102.93+37.2616+104.992+37.2616L107.414+37.2616L108.151+36.0156C109.088+34.4343+113.393+27.1802+114.606+25.1401L115.527+23.5913L115.527+25.9816L115.528+28.3725L116.004+28.3725C116.987+28.3725+118.197+29.2055+118.644+30.1896C119.53+32.1401+117.999+34.5678+115.883+34.5678L115.528+34.5678L115.528+37.2616L121.589+37.2616L121.586+29.4166C121.582+20.5572+121.631+20.9893+120.513+19.9042C119.446+18.8694+116.029+18.3787+114.265+19.0077M83.6655+22.9779C84.3961+23.4593+84.4046+23.5221+84.4103+28.009C84.4173+33.5922+84.5634+33.3564+81.0882+33.3557C77.6164+33.3543+77.6807+33.4552+77.6807+28.0358C77.6807+22.6094+77.6115+22.716+81.115+22.7167C83.0189+22.7167+83.3161+22.7477+83.6655+22.9779M22.4583+30.864L22.4583+37.2618L28.5194+37.2618L28.5194+24.4669L22.4583+24.4669L22.4583+30.864" fill-rule="evenodd" fill="#0c5c9c" opacity="1"/>
<path d="M116.995+29.1939C119.275+30.3978+118.61+33.8218+116.045+34.0867C114.361+34.2606+113.059+33.1363+113.059+31.509C113.059+29.5132+115.207+28.2497+116.995+29.1939" fill-rule="evenodd" fill="#ec1c2c" opacity="1"/>
</g>
</g>
</svg>
