<?xml version="1.0" encoding="UTF-8" standalone="no"?> <!-- Created with Vectornator for iOS (http://vectornator.io/) --><!DOCTYPE svg PUBLIC "-//W3C//DTD SVG 1.1//EN" "http://www.w3.org/Graphics/SVG/1.1/DTD/svg11.dtd">
<svg height="100%" style="fill-rule:nonzero;clip-rule:evenodd;stroke-linecap:round;stroke-linejoin:round;" xmlns:xlink="http://www.w3.org/1999/xlink" xmlns="http://www.w3.org/2000/svg" xml:space="preserve" width="100%" xmlns:vectornator="http://vectornator.io" version="1.1" viewBox="0 0 300 60">
<metadata>
<vectornator:setting key="DimensionsVisible" value="1"/>
<vectornator:setting key="PencilOnly" value="0"/>
<vectornator:setting key="SnapToPoints" value="0"/>
<vectornator:setting key="OutlineMode" value="0"/>
<vectornator:setting key="CMYKEnabledKey" value="0"/>
<vectornator:setting key="RulersVisible" value="1"/>
<vectornator:setting key="SnapToEdges" value="0"/>
<vectornator:setting key="GuidesVisible" value="1"/>
<vectornator:setting key="DisplayWhiteBackground" value="0"/>
<vectornator:setting key="doHistoryDisabled" value="0"/>
<vectornator:setting key="SnapToGuides" value="1"/>
<vectornator:setting key="TimeLapseWatermarkDisabled" value="0"/>
<vectornator:setting key="Units" value="Pixels"/>
<vectornator:setting key="DynamicGuides" value="0"/>
<vectornator:setting key="IsolateActiveLayer" value="0"/>
<vectornator:setting key="SnapToGrid" value="1"/>
</metadata>
<defs/>
<g id="Layer 1" vectornator:layerName="Layer 1">
<path d="M5.13508+2.93701C1.53808+4.88902+2.02508+13.347+5.82609+14.935C7.67208+15.707+15.5481+15.723+17.3761+14.959C21.3531+13.298+21.8201+4.87102+18.0431+2.91801C16.3971+2.06701+6.71308+2.08102+5.13508+2.93701M33.8301+2.84201C30.4371+4.17302+28.1741+6.20901+26.8611+9.11102C26.0731+10.854+26.0471+11.646+26.0391+34.011L26.0301+57.111L35.0301+57.111L44.0301+57.111L44.0301+37.491C44.0301+12.178+43.2881+13.911+54.1311+13.911L60.9241+13.911L62.4771+15.464L64.0301+17.017L64.0301+37.064L64.0301+57.111L73.0301+57.111L82.0301+57.111L82.0301+34.257C82.0301+8.15202+82.1481+9.20502+78.8461+5.88101C75.2141+2.22702+75.7731+2.30601+53.8591+2.34102C40.4381+2.36302+34.6851+2.50702+33.8301+2.84201M94.5621+3.14801C92.0321+4.12102+89.4421+6.55702+88.2911+9.04802C87.4461+10.877+87.4281+11.336+87.3121+34.011L87.1941+57.111L96.4121+57.111L105.63+57.111L105.644+37.211C105.662+12.076+104.889+13.917+115.43+13.915C126.299+13.913+125.63+12.354+125.63+37.698L125.63+57.111L134.642+57.111L143.654+57.111L143.542+33.611L143.43+10.111L142.338+8.25302C141.016+6.00502+139.296+4.49801+136.63+3.25302L134.63+2.31901L115.63+2.33601C97.6501+2.35202+96.5191+2.39502+94.5621+3.14801M155.407+3.45001C149.104+6.45201+148.83+7.54701+148.83+29.711C148.83+51.931+149.148+53.17+155.589+56.06L157.995+57.14L177.512+57.025C195.754+56.918+197.122+56.862+198.43+56.156C201.116+54.708+202.792+53.067+203.909+50.794L205.03+48.511L205.03+29.711L205.03+10.911L203.909+8.62802C202.792+6.35501+201.116+4.71402+198.43+3.26602C197.121+2.56001+195.76+2.50401+177.43+2.40402L157.83+2.29602L155.407+3.45001M210.434+25.411L210.438+48.511L211.376+50.526C213.665+55.441+217.235+57.115+225.401+57.102C235.238+57.087+234.107+58.195+247.635+35.311C249.325+32.451+252.446+27.186+254.569+23.611C256.693+20.036+260.151+14.208+262.254+10.661C264.357+7.11302+266.357+3.78302+266.7+3.26102L267.322+2.31102L259.976+2.31102L252.63+2.31201L250.441+6.01102C249.238+8.04602+245.362+14.571+241.829+20.511C238.295+26.451+233.88+33.882+232.017+37.024L228.63+42.737L228.526+22.524L228.423+2.31102L219.426+2.31102L210.43+2.31102L210.434+25.411M275.481+2.89801C271.854+4.19101+272.265+3.59602+255.833+31.311C251.92+37.911+247.025+46.155+244.954+49.631C242.884+53.106+241.09+56.211+240.967+56.531C240.778+57.025+241.816+57.111+247.938+57.111L255.131+57.111L257.322+53.411C260.105+48.712+272.889+27.171+276.492+21.111L279.227+16.511L279.229+23.611L279.23+30.711L280.643+30.711C283.562+30.711+287.156+33.184+288.484+36.108C291.115+41.9+286.568+49.111+280.284+49.111L279.23+49.111L279.23+53.111L279.23+57.111L288.23+57.111L297.23+57.111L297.221+33.811C297.211+7.50102+297.356+8.78502+294.034+5.56102C290.867+2.48802+280.718+1.03102+275.481+2.89801M184.603+14.69C186.773+16.12+186.8+16.307+186.816+29.631C186.835+46.212+187.27+45.512+176.95+45.51C166.638+45.507+166.83+45.807+166.83+29.711C166.83+13.596+166.625+13.913+177.03+13.915C182.684+13.916+183.567+14.006+184.603+14.69M2.83008+38.111L2.83008+57.111L11.8301+57.111L20.8301+57.111L20.8301+38.111L20.8301+19.111L11.8301+19.111L2.83008+19.111L2.83008+38.111" opacity="1" fill="#0c5c9c"/>
<path d="M275.993+32.842C269.03+36.518+271.06+46.973+278.894+47.782C284.036+48.313+288.012+44.88+288.012+39.911C288.012+33.817+281.453+29.959+275.993+32.842" opacity="1" fill="#ec1c2c"/>
</g>
</svg>
