<svg xmlns="http://www.w3.org/2000/svg" viewBox="0 0 144 56" clip-rule="evenodd" stroke-linecap="round" stroke-linejoin="round">
  <g fill-rule="evenodd">
    <path d="M89.398 34.42c.772.017 1.545.012 2.317.002.174-.002.209.048.208.213-.005 3.239-.004 6.478 0 9.717 0 .145-.021.208-.192.205a64.642 64.642 0 0 0-2.003 0c-.155.002-.192-.048-.182-.19.012-.169.003-.338.003-.558a6.556 6.556 0 0 1-1.585.818c-1.038.36-2.068.31-3.053-.161-.866-.414-1.407-1.127-1.685-2.043a5.251 5.251 0 0 1-.237-1.518c-.004-2.082 0-4.163-.005-6.244-.001-.181.034-.243.23-.24.79.013 1.578.01 2.367.001.168-.002.211.04.211.21-.005 1.92-.013 3.842.01 5.762.005.453.009.923.2 1.355.18.408.521.62.944.673.766.096 1.456-.149 2.104-.536.108-.064.068-.17.068-.26.002-2.307.005-4.614-.005-6.92 0-.232.05-.291.285-.286Zm28.09.089c.84.344 1.456.94 1.892 1.722.421.755.618 1.577.694 2.436.047.534.059 1.064.006 1.599-.018.175-.109.14-.206.14h-3.137c-1.046 0-2.091.005-3.137-.005-.185-.002-.213.063-.193.22.137 1.087 1.035 1.861 2.021 2.006.976.142 1.889-.034 2.765-.47.418-.207.416-.198.639.211.222.41.447.818.693 1.213.085.138.05.182-.062.256-.623.407-1.322.62-2.031.815-.741.204-1.501.245-2.254.181-1.848-.156-3.408-1.186-4.097-3.053a6.33 6.33 0 0 1-.373-2.69c.106-1.415.58-2.692 1.618-3.698.732-.71 1.624-1.099 2.645-1.215.872-.099 1.707 0 2.517.332Zm3.935-.087c.781.012 1.561.01 2.341 0 .183-.003.224.046.223.225-.007 1.815-.016 3.631.004 5.447.005.472.021.952.13 1.42.128.542.541.86 1.057.912.703.07 1.35-.122 1.958-.473.134-.077.178-.166.177-.321-.005-2.298-.004-4.596-.004-6.894v-.026c.001-.286.009-.286.319-.286.764 0 1.529.005 2.293-.004.161-.001.197.047.197.201-.004 3.246-.005 6.492.001 9.738 0 .164-.051.197-.203.195a75.905 75.905 0 0 0-1.979 0c-.16.003-.209-.043-.196-.2.013-.159.003-.32.003-.52-.217.124-.413.236-.608.35-.835.49-1.73.748-2.702.653-1.6-.158-2.79-1.183-3.114-2.823a8.758 8.758 0 0 1-.144-1.733 751.05 751.05 0 0 0-.004-5.617c-.001-.205.055-.248.251-.244Zm-41.318.561c.8.601 1.262 1.423 1.53 2.367.234.825.31 1.668.289 2.522-.004.15-.03.3-.048.45-.017.152-.136.08-.206.08-1.046.005-2.092.004-3.138.004h-3.065c-.271 0-.298.028-.248.304.138.752.556 1.3 1.225 1.66.623.335 1.29.327 1.974.272.633-.051 1.185-.316 1.746-.563.187-.083.27-.087.374.12.224.443.486.867.74 1.294.107.178.121.278-.1.405-.685.396-1.42.64-2.187.8-1.155.242-2.3.232-3.423-.185-.992-.368-1.75-1.012-2.296-1.913-.412-.679-.626-1.42-.719-2.203-.147-1.25-.005-2.457.553-3.59.708-1.443 1.852-2.36 3.453-2.609 1.267-.197 2.484-.013 3.546.785Zm-22.489-4.357c1.476.116 2.799.633 3.897 1.655.258.24.263.25 0 .474-.565.48-1.141.946-1.703 1.428-.108.092-.153.08-.235-.02-.536-.644-1.23-.98-2.06-1.092-.73-.099-1.427-.007-2.08.316-1.06.524-1.64 1.425-1.95 2.537-.233.838-.232 1.693-.177 2.541.064.979.318 1.914.953 2.706.429.534.984.865 1.637 1.032.81.206 1.621.196 2.42-.062a3.161 3.161 0 0 0 1.471-1.012l2.064 1.746c-.423.417-.858.792-1.363 1.074a6.854 6.854 0 0 1-2.86.857c-1.403.107-2.73-.113-3.976-.775-1.286-.683-2.164-1.736-2.721-3.061-.375-.89-.542-1.824-.597-2.791-.082-1.477.154-2.89.843-4.193.917-1.736 2.365-2.806 4.293-3.231a7.27 7.27 0 0 1 2.144-.129Zm53.33 3.744c.144.067.136.132.094.248-.213.584-.422 1.17-.63 1.756-.043.12-.121.137-.24.129-.71-.051-1.395.032-2.031.385-.423.235-.793.528-1.08.92-.07.097-.077.202-.077.316.002 2.049-.002 4.098.006 6.147 0 .214-.043.292-.277.288a69.766 69.766 0 0 0-2.269-.003c-.162.002-.216-.03-.215-.205.006-3.222.006-6.444-.001-9.666 0-.186.052-.223.227-.22.668.01 1.336.01 2.003 0 .161-.002.204.046.198.201-.012.305-.004.61-.004.985.431-.46.879-.797 1.396-1.034.528-.242 1.069-.42 1.661-.444.433-.018.841.012 1.239.197ZM70.477 18.673c.897.835 1.494 1.868 1.68 3.07.237 1.54.019 3.043-.813 4.39-.603.978-1.529 1.562-2.626 1.882-.892.259-1.774.297-2.643-.094-.206-.093-.387-.23-.602-.357v7.3a5.284 5.284 0 0 1 1.271-.551c1.2-.33 2.332-.218 3.384.487.606.407.878 1.007 1.033 1.689.19.842.248 1.695.246 2.556-.005 1.76-.005 3.52.003 5.279.001.194-.055.236-.24.233a68.339 68.339 0 0 0-2.123 0c-.2.003-.26-.055-.258-.257.007-1.823.004-3.647.004-5.471 0-.532-.01-1.065-.196-1.572-.153-.418-.483-.631-.908-.708-.76-.138-1.43.118-2.077.48-.138.078-.152.18-.152.315.002 2.306-.002 4.612.007 6.918 0 .232-.06.3-.295.296a66.576 66.576 0 0 0-2.148-.002c-.17.002-.224-.052-.221-.22.009-.54.003-1.077.003-1.616V18.07c0-.28.014-.28.308-.28.627 0 1.255.01 1.882-.004.194-.005.257.054.231.238-.011.084-.002.17-.002.288.437-.244.854-.457 1.314-.58 1.487-.398 2.809-.11 3.938.941Zm63.815 15.75c.167-.001.236.089.314.206a727.66 727.66 0 0 0 1.801 2.678c.026.039.065.07.111.119.374-.547.747-1.087 1.115-1.629.28-.411.555-.826.83-1.24.063-.095.139-.134.258-.133.86.005 1.721.002 2.582.003.046 0 .108-.005.134.02.046.048-.02.082-.044.118l-1.763 2.588c-.477.7-.95 1.4-1.431 2.096-.092.134-.088.222.014.36.848 1.146 1.684 2.301 2.523 3.453l.965 1.326c.031.043.057.09.104.165h-1.468c-.482 0-.965-.008-1.447.004a.343.343 0 0 1-.32-.165l-2.156-3.122c-.314.447-.622.881-.924 1.319-.415.599-.823 1.202-1.24 1.8-.055.079-.113.167-.244.166-.94-.005-1.88-.002-2.857-.002.134-.291.331-.507.499-.739.885-1.226 1.776-2.448 2.667-3.67.144-.2.284-.403.445-.588.081-.093.074-.16.014-.245-.65-.908-1.3-1.816-1.948-2.725-.488-.683-.974-1.366-1.46-2.05-.017-.024-.02-.057-.038-.11 1.002 0 1.983.004 2.964-.003Zm-38.311.18c.719 2.215 1.445 4.428 2.17 6.642.02.06.04.12.074.216.158-.442.307-.857.453-1.272.658-1.87 1.318-3.74 1.967-5.612.046-.134.107-.152.221-.152.837.003 1.673.002 2.542.002-.268.705-.527 1.388-.789 2.07-.604 1.572-1.212 3.142-1.815 4.714-.406 1.055-.808 2.112-1.211 3.169-.048.124-.12.179-.269.177-.756-.01-1.512-.007-2.268-.002-.151 0-.216-.053-.271-.2-.936-2.48-1.883-4.956-2.824-7.434-.312-.822-.617-1.646-.934-2.495h1.162c.515 0 1.03.005 1.545-.003.141-.002.201.039.247.18Zm-19.682 1.858c-.652.38-.89 1.03-1.088 1.706-.064.219.035.218.198.216.602-.006 1.205-.003 1.807-.003.611 0 1.222-.001 1.832.002.165 0 .265.034.236-.237-.089-.844-.7-1.817-1.7-1.91-.458-.043-.89-.004-1.285.226Zm37.838.271c-.429.449-.666 1.01-.753 1.648h3.824c.292 0 .292-.013.252-.327-.11-.872-.662-1.699-1.699-1.828-.608-.076-1.19.054-1.624.507ZM59.843 18.265c.842.582 1.317 1.416 1.61 2.37.274.886.319 1.796.293 2.715-.014.48.056.418-.427.42h-2.945c-1.03 0-2.059.003-3.088-.003-.2-.001-.273.015-.225.26.086.44.235.83.542 1.165.4.435.887.703 1.467.794.974.155 1.892-.033 2.768-.473l.04-.02c.353-.175.372-.155.587.209.236.4.454.811.688 1.213.08.136.068.21-.074.299-.692.432-1.456.663-2.24.848-.62.147-1.25.179-1.88.139-1.046-.067-2.007-.382-2.832-1.061-1.005-.828-1.507-1.916-1.706-3.176-.22-1.388-.04-2.713.612-3.961.668-1.278 1.701-2.115 3.125-2.397 1.303-.258 2.558-.121 3.685.659Zm24.09-.462c.897.334 1.57.942 2.027 1.777.423.771.633 1.605.704 2.482a8.2 8.2 0 0 1 .005 1.526c-.017.169-.077.185-.216.184-1.046-.004-2.091-.002-3.137-.002-1.038 0-2.075.007-3.113-.006-.2-.002-.23.069-.207.233.153 1.105 1.032 1.837 2.035 1.992 1.01.156 1.946-.075 2.847-.516.318-.155.317-.15.493.166.245.44.487.884.749 1.316.077.127.046.166-.058.235-.525.348-1.112.546-1.708.728a6.929 6.929 0 0 1-2.403.286c-1.834-.093-3.483-1.064-4.234-2.93a6.29 6.29 0 0 1-.417-2.892c.113-1.393.591-2.65 1.624-3.641.712-.682 1.565-1.072 2.548-1.197.845-.107 1.667-.038 2.462.259Zm-38.885-3.361c-.007 2.097-.004 4.194-.004 6.292l.046.027c.24-.348.48-.696.718-1.046 1.212-1.777 2.422-3.555 3.637-5.33.05-.073.102-.163.221-.163 1.028.002 2.055 0 3.13 0-.251.351-.476.67-.706.985-.755 1.037-1.512 2.073-2.268 3.11-.588.806-1.173 1.614-1.768 2.416-.093.127-.1.206 0 .339 1.018 1.376 2.028 2.759 3.04 4.14.613.838 1.227 1.675 1.838 2.514.034.047.082.099.06.19H51.82c-.7 0-1.4-.001-2.1.003-.12 0-.192-.025-.268-.139-1.031-1.528-2.072-3.05-3.11-4.573-.396-.582-.789-1.165-1.185-1.746-.02-.03-.053-.051-.113-.107v.292c0 2.01-.003 4.018.005 6.027 0 .201-.048.252-.25.25-.82-.013-1.64-.01-2.461-.002-.156 0-.2-.038-.2-.197.005-4.436.005-8.872 0-13.308 0-.158.043-.199.2-.197.828.008 1.657.01 2.485-.001.18-.002.226.043.225.224Zm31.039-1.506c-.005 2.459-.004 4.918-.004 7.377 0 2.443-.003 4.886.006 7.328 0 .227-.063.285-.284.281a71.796 71.796 0 0 0-2.27 0c-.172.002-.208-.048-.207-.214.004-4.797.004-9.595 0-14.392 0-.141.022-.19.187-.213.79-.11 1.578-.245 2.365-.375.179-.03.207.046.207.208Zm17.48 4.568c.343 0 .668.106.98.245.064.029.085.073.055.155-.23.62-.449 1.243-.676 1.864-.069.19-.238.097-.352.09-1.133-.079-2.069.297-2.832 1.143-.188.208-.226.416-.226.671.006 2.002 0 4.003.008 6.004.001.203-.05.25-.25.246a71.213 71.213 0 0 0-2.268 0c-.197.002-.243-.06-.243-.248.006-3.215.006-6.43 0-9.644 0-.195.057-.247.247-.243.668.01 1.336.009 2.004 0 .172-.002.225.056.219.223-.011.302-.003.604-.003.965.447-.495.948-.819 1.5-1.072a4.368 4.368 0 0 1 1.837-.399Zm-27.97 2.627c-.107.053-.137.095-.137.202.002 1.637.003 3.275-.001 4.912 0 .123.045.184.15.236.347.174.709.295 1.09.374.847.175 1.817-.244 2.261-.972.38-.621.55-1.288.504-2.032a3.44 3.44 0 0 0-.092-1.069c-.208-.853-.682-1.495-1.522-1.806-.766-.284-1.52-.21-2.253.155Zm-9.67-.166c-.52.412-.738 1.006-.89 1.627-.034.135.037.156.156.155.627-.005 1.254-.002 1.881-.002.62 0 1.239-.01 1.857.006.204.005.23-.079.202-.236-.062-.343-.147-.676-.32-.987-.616-1.11-2.071-1.209-2.886-.563Zm25.972-.387c-.479.04-.922.192-1.238.575a3.025 3.025 0 0 0-.688 1.592h3.846c.26 0 .263-.014.23-.3-.125-1.074-.884-1.977-2.15-1.867Z" fill="#003369"/>
    <path d="M35.766 27.852c-.013.083-.074.116-.118.16-.397.399-.795.796-1.194 1.194-2.076 2.073-4.155 4.146-6.226 6.225-.151.153-.222.146-.37-.002a2810.202 2810.202 0 0 0-7.39-7.381c-.136-.135-.159-.205-.009-.354 2.474-2.46 4.943-4.927 7.408-7.397.143-.144.213-.139.354.002 2.464 2.471 4.935 4.936 7.404 7.402.05.05.097.104.141.15" fill="#259be1"/>
    <path d="M18.958 44.656c-1.265-1.26-2.515-2.51-3.77-3.753-.091-.09-.083-.182-.083-.283v-6.822c0-6.211 0-12.422-.004-18.634a.53.53 0 0 1 .169-.419 489.012 489.012 0 0 0 3.515-3.511c.136-.137.199-.122.325.005a1963.87 1963.87 0 0 0 6.145 6.136c.143.142.14.21-.002.35-3.315 3.303-6.623 6.612-9.94 9.914-.164.164-.164.25.001.412.76.74 1.497 1.506 2.259 2.244 2.603 2.523 5.132 5.12 7.714 7.663.153.15.147.22-.001.368-2.065 2.052-4.123 4.11-6.182 6.167-.05.051-.097.107-.146.163M10.9 19.128v17.446l-.054.045c-.039-.057-.07-.123-.118-.171a7786.69 7786.69 0 0 0-8.43-8.416c-.117-.117-.151-.177-.012-.315 2.831-2.818 5.656-5.642 8.483-8.465.033-.034.068-.065.13-.124" fill="#003369"/>
  </g>
</svg>
