<?xml version="1.0" encoding="UTF-8"?>
<svg width="2891px" height="699px" viewBox="0 0 2891 699" version="1.1" xmlns="http://www.w3.org/2000/svg" xmlns:xlink="http://www.w3.org/1999/xlink">
    <!-- Generator: Sketch 64 (93537) - https://sketch.com -->
    <title>LOGO</title>
    <desc>Created with Sketch.</desc>
    <g id="Symbols" stroke="none" stroke-width="1" fill="none" fill-rule="evenodd">
        <g id="LOGO">
            <g>
                <path d="M1805.4143,482.0394 C1821.3993,482.3934 1837.3993,482.2934 1853.3903,482.0804 C1856.9803,482.03322 1857.7033,483.0784 1857.69833,486.4964 C1857.5923,553.5504 1857.6013,620.6044 1857.6763,687.6584 C1857.6793,690.6694 1857.2563,691.9724 1853.7273,691.9134 C1839.9033,691.6834 1826.0723,691.7074 1812.2473,691.9034 C1809.0283,691.9494 1808.2653,690.9234 1808.4753,687.9604 C1808.7213,684.4854 1808.5333,680.9794 1808.5333,676.4294 C1797.8583,683.7724 1787.1903,689.4034 1775.7333,693.3664 C1754.2413,700.8044 1732.9163,699.7684 1712.5203,690.0204 C1694.5963,681.4544 1683.3913,666.7054 1677.6383,647.7334 C1674.5253,637.4664 1672.7553,626.9934 1672.7323,616.3004 C1672.6413,573.2064 1672.7413,530.1134 1672.61218,487.0194 C1672.6013,483.2734 1673.3293,481.9974 1677.4013,482.0644 C1693.7223,482.3284 1710.0543,482.2834 1726.3783,482.0854 C1729.8673,482.0434 1730.7663,482.9094 1730.7583,486.4334 C1730.6553,526.1984 1730.4853,565.9664 1730.9643,605.7264 C1731.0773,615.0984 1731.1493,624.8254 1735.1033,633.7694 C1738.8453,642.2344 1745.8923,646.6274 1754.6463,647.7184 C1770.5023,649.6954 1784.7873,644.6314 1798.2083,636.6174 C1800.4363,635.2864 1799.6123,633.0794 1799.6133,631.2114 C1799.6503,583.4584 1799.7233,535.7054 1799.5183,487.9534 C1799.4973,483.1624 1800.5673,481.9334 1805.4143,482.0394 Z M2386.9759,483.8789 C2404.3829,491.0119 2417.1229,503.3399 2426.1439,519.5259 C2434.8589,535.1649 2438.9479,552.1909 2440.5209,569.9699 C2441.4989,581.0309 2441.7389,591.9999 2440.6419,603.0679 C2440.2829,606.6949 2438.3819,605.9519 2436.3819,605.9539 C2414.7329,605.9709 2393.0839,605.9649 2371.4349,605.9649 C2349.7859,605.9649 2328.1359,606.0689 2306.4899,605.8659 C2302.6599,605.8299 2302.0759,607.1719 2302.4879,610.4339 C2305.3229,632.9309 2323.9209,648.9599 2344.3299,651.9459 C2364.5349,654.9019 2383.4499,651.2439 2401.5759,642.2339 C2410.2409,637.9269 2410.1969,638.1329 2414.7979,646.5959 C2419.4049,655.0669 2424.0579,663.5299 2429.1459,671.7159 C2430.9149,674.5609 2430.1989,675.4759 2427.8679,676.9989 C2414.9649,685.4279 2400.4999,689.8379 2385.8239,693.8739 C2370.4709,698.0969 2354.7479,698.9459 2339.1489,697.6289 C2300.8949,694.3989 2268.5929,673.0689 2254.3239,634.4149 C2247.6509,616.3379 2245.1929,597.6729 2246.6129,578.7059 C2248.8029,549.4399 2258.6259,522.9879 2280.1169,502.1559 C2295.2549,487.4819 2313.7419,479.4169 2334.8719,477.0129 C2352.9179,474.9589 2370.2019,477.0059 2386.9759,483.8789 Z M2468.4577,482.0702 C2484.6107,482.3212 2500.7707,482.3072 2516.9237,482.0742 C2520.7067,482.0192 2521.5567,483.0292 2521.5427,486.7282 C2521.3957,524.3232 2521.2087,561.9212 2521.6197,599.5122 C2521.7267,609.2932 2522.0427,619.2162 2524.3167,628.9042 C2526.9547,640.1342 2535.5177,646.7292 2546.1897,647.7862 C2560.7547,649.2282 2574.1507,645.2712 2586.7267,638.0082 C2589.5087,636.4012 2590.4107,634.5662 2590.4017,631.3492 C2590.2817,583.7732 2590.3187,536.1962 2590.3187,488.6202 L2590.31886,488.083238 C2590.32414,482.1732 2590.50819,482.1732 2596.9167,482.1732 C2612.7407,482.1732 2628.5647,482.2742 2644.3857,482.0912 C2647.7157,482.0532 2648.4727,483.0422 2648.4687,486.2432 C2648.3777,553.4492 2648.3737,620.6552 2648.48073,687.8612 C2648.4867,691.2512 2647.4257,691.9242 2644.2917,691.8882 C2630.6337,691.7282 2616.9737,691.7062 2603.3177,691.9012 C2600.0037,691.9492 2598.9827,691.0012 2599.2537,687.7672 C2599.5307,684.4642 2599.3147,681.1202 2599.3147,676.9802 C2594.8357,679.5582 2590.7637,681.8652 2586.7277,684.2312 C2569.4447,694.3652 2550.9057,699.7232 2530.7987,697.7432 C2497.6737,694.4802 2473.0277,673.2582 2466.3217,639.2952 C2463.9777,627.4262 2463.2997,615.4802 2463.3327,603.4162 C2463.4347,564.6572 2463.4497,525.8962 2463.25845,487.1372 C2463.2387,482.8822 2464.3947,482.0062 2468.4577,482.0702 Z M1613.0225,493.7029 C1629.5755,506.1459 1639.1505,523.1569 1644.7005,542.7039 C1649.5465,559.7739 1651.1305,577.2419 1650.6675,594.9199 C1650.5865,598.0239 1650.0415,601.1179 1649.6935,604.2149 C1649.3375,607.3809 1646.8575,605.8859 1645.4185,605.8919 C1623.7635,605.9959 1602.1075,605.9649 1580.4515,605.9649 L1516.9835,605.9649 L1516.9835,605.9649 C1511.3795,605.9659 1510.8295,606.5579 1511.8685,612.2639 C1514.7045,627.8309 1523.3755,639.1749 1537.2235,646.6249 C1550.1285,653.5679 1563.9135,653.4039 1578.0805,652.2629 C1591.1925,651.2069 1602.6185,645.7309 1614.2295,640.6009 C1618.1145,638.8839 1619.8275,638.8119 1621.9895,643.0949 C1626.6205,652.2639 1632.0465,661.0429 1637.3195,669.8789 C1639.5265,673.5769 1639.8065,675.6389 1635.2395,678.2759 C1621.0545,686.4649 1605.8255,691.5249 1589.9595,694.8429 C1566.0305,699.8459 1542.3205,699.6359 1519.0815,691.0029 C1498.5555,683.3779 1482.8465,670.0499 1471.5385,651.3989 C1463.0165,637.3419 1458.5795,622.0079 1456.6645,605.7749 C1453.6145,579.9149 1456.5645,554.9199 1468.1015,531.4459 C1482.7785,501.5839 1506.4615,482.5829 1539.5955,477.4419 C1565.8395,473.3709 1591.0355,477.1759 1613.0225,493.7029 Z M1147.414,403.4971 C1177.972,405.8961 1205.357,416.5881 1228.091,437.7611 C1233.425,442.7291 1233.538,442.9251 1228.074,447.5681 C1216.39,457.4951 1204.469,467.1441 1192.831,477.1241 C1190.594,479.0431 1189.672,478.7871 1187.961,476.7291 C1176.865,463.3861 1162.495,456.4141 1145.333,454.1011 C1130.188,452.0611 1115.772,453.9561 1102.244,460.6551 C1080.33,471.5091 1068.29,490.1451 1061.888,513.1751 C1057.066,530.5211 1057.077,548.2321 1058.223,565.7891 C1059.546,586.0451 1064.798,605.4081 1077.954,621.8061 C1086.831,632.8721 1098.315,639.7231 1111.853,643.1711 C1128.622,647.4411 1145.403,647.2391 1161.952,641.8951 C1174.119,637.9661 1184.144,630.8001 1192.401,620.9431 C1206.545,632.9051 1220.653,644.8361 1235.133,657.0821 C1226.384,665.7321 1217.367,673.4841 1206.907,679.3241 C1188.515,689.5891 1168.88,695.4471 1147.71,697.0651 C1118.655,699.2851 1091.184,694.7341 1065.383,681.0241 C1038.752,666.8731 1020.584,645.0831 1009.041,617.6421 C1001.292,599.2211 997.818,579.8791 996.696,559.8601 C994.984,529.2761 999.88,500.0431 1014.148,473.0451 C1033.135,437.1181 1063.109,414.9641 1103.014,406.1611 C1117.745,402.9121 1132.633,402.3361 1147.414,403.4971 Z M2251.5369,481.0071 C2254.5109,482.3871 2254.3539,483.7331 2253.4809,486.1331 C2249.0799,498.2331 2244.7429,510.3551 2240.4319,522.4881 C2239.5509,524.9651 2237.9389,525.3401 2235.4819,525.1641 C2220.7789,524.1071 2206.5819,525.8381 2193.4259,533.1371 C2184.6699,537.9961 2177.0059,544.0601 2171.0679,552.1961 C2169.6109,554.1921 2169.4599,556.3731 2169.4629,558.7311 C2169.5019,601.1481 2169.4289,643.5661 2169.5839,685.9831 C2169.5999,690.4191 2168.6969,692.0451 2163.8539,691.9431 C2148.2039,691.6131 2132.5429,691.7191 2116.8889,691.8991 C2113.5319,691.9381 2112.4189,691.2841 2112.4259,687.6431 C2112.5469,620.9391 2112.5529,554.2361 2112.41586,487.5321 C2112.4079,483.6771 2113.4939,482.9191 2117.1169,482.9761 C2130.9369,483.1961 2144.7639,483.1761 2158.5859,482.9841 C2161.9139,482.9381 2162.7969,483.9281 2162.6719,487.1431 C2162.4269,493.4441 2162.5999,499.7611 2162.5999,507.5261 C2171.5259,497.9891 2180.7869,491.0201 2191.5019,486.1111 C2202.4319,481.1031 2213.6209,477.4171 2225.8849,476.9171 C2234.8479,476.5501 2243.2909,477.1831 2251.5369,481.0071 Z M1413.6901,156.0251 C1432.2431,173.2971 1444.6111,194.6871 1448.4511,219.5751 C1453.3721,251.4661 1448.8521,282.5711 1431.6271,310.4831 C1419.1381,330.7201 1399.9771,342.8141 1377.2531,349.4231 C1358.7861,354.7941 1340.5361,355.5901 1322.5491,347.4821 C1318.2751,345.5551 1314.5271,342.7331 1310.0871,340.0851 L1310.0871,491.2341 C1318.4861,486.3131 1327.1381,482.3681 1336.3981,479.8181 C1361.2461,472.9761 1384.6831,475.3161 1406.4561,489.9171 C1419.0101,498.3371 1424.6391,510.7521 1427.8391,524.8671 C1431.7931,542.3111 1432.9811,559.9651 1432.9301,577.7891 C1432.8261,614.2191 1432.8281,650.6511 1433.0001,687.0811 C1433.0191,691.1041 1431.8531,691.9671 1428.0401,691.9101 C1413.3851,691.6881 1398.7241,691.6771 1384.0701,691.9101 C1379.9211,691.9761 1378.7091,690.7831 1378.7261,686.6001 C1378.8781,648.8391 1378.8211,611.0781 1378.8111,573.3161 C1378.8081,562.3031 1378.6021,551.2721 1374.7641,540.7751 C1371.5971,532.1151 1364.7521,527.7091 1355.9681,526.1201 C1340.2221,523.2711 1326.3561,528.5631 1312.9551,536.0711 C1310.1001,537.6711 1309.8041,539.7861 1309.8071,542.5851 C1309.8581,590.3271 1309.7741,638.0701 1309.9501,685.8121 C1309.9671,690.6141 1308.6941,692.0351 1303.8441,691.938156 C1289.0261,691.6211 1274.1971,691.7271 1259.3751,691.8871 C1255.8711,691.9251 1254.7401,690.8231 1254.7981,687.3191 C1254.9821,676.1761 1254.8661,665.0301 1254.8661,653.8841 L1254.86663,143.529361 C1254.8783,137.755015 1255.14488,137.7541 1261.2341,137.7541 C1274.2261,137.7531 1287.2221,137.9301 1300.2081,137.6481 C1304.2291,137.5601 1305.5151,138.7721 1304.9921,142.5871 C1304.7541,144.3231 1304.9521,146.1191 1304.9521,148.5421 C1313.9821,143.4991 1322.6151,139.0921 1332.1501,136.5401 C1362.9301,128.3001 1390.3021,134.2511 1413.6901,156.0251 Z M2734.8938,482.098332 C2738.3348,482.0726 2739.7728,483.9416 2741.3958,486.3706 C2753.7658,504.8856 2766.2188,523.3456 2778.6718,541.8056 C2779.2208,542.6186 2780.0188,543.2656 2780.9628,544.2686 C2788.7158,532.9556 2796.4278,521.7806 2804.0558,510.5496 C2809.8448,502.0276 2815.5438,493.4436 2821.2458,484.8616 C2822.5388,482.9156 2824.1208,482.1006 2826.5738,482.1146 C2844.3938,482.2236 2862.2148,482.1676 2880.0358,482.1896 C2880.9848,482.1906 2882.2808,482.0806 2882.8078,482.6176 C2883.7658,483.5916 2882.4078,484.2916 2881.8948,485.0456 C2869.7328,502.9046 2857.5638,520.7606 2845.3988,538.6186 C2835.5368,553.0966 2825.7268,567.6106 2815.7748,582.0256 C2813.8668,584.7896 2813.9518,586.6106 2816.0668,589.4686 C2833.6218,613.1956 2850.9248,637.1096 2868.3048,660.9666 C2874.9678,670.1126 2881.6358,679.2566 2888.2868,688.4136 C2888.9308,689.3006 2889.4578,690.2716 2890.4258,691.8196 L2860.0488,691.8196 C2850.0558,691.8196 2840.0598,691.6666 2830.0728,691.9106 C2826.9608,691.9866 2825.0278,690.7826 2823.4468,688.4946 C2808.6478,667.0826 2793.8668,645.6586 2778.8138,623.8516 C2772.3198,633.1136 2765.9468,642.1036 2759.6798,651.1646 C2751.1038,663.5666 2742.6508,676.0516 2734.0248,688.4176 C2732.8728,690.0696 2731.6698,691.8856 2728.9618,691.8716 C2709.4998,691.7736 2690.0378,691.8196 2669.8188,691.8196 C2672.5858,685.8016 2676.6738,681.3406 2680.1398,676.5366 C2698.4618,651.1436 2716.9218,625.8496 2735.3528,600.5336 C2738.3488,596.4196 2741.2458,592.2056 2744.5728,588.3686 C2746.2428,586.4426 2746.1118,585.0596 2744.8558,583.3016 C2731.4138,564.4936 2717.9608,545.6946 2704.5278,526.8796 C2694.4368,512.7456 2684.3668,498.5986 2674.3118,484.4386 C2673.9638,483.9476 2673.8888,483.2646 2673.5168,482.1736 C2694.2578,482.1736 2714.5778,482.2496 2734.8938,482.098332 Z M1941.7086,485.8316 C1956.5826,531.6966 1971.6206,577.5106 1986.6246,623.3346 C1987.0316,624.5776 1987.4766,625.8086 1988.1746,627.8226 C1991.4346,618.6556 1994.5156,610.0746 1997.5416,601.4736 C2011.1656,562.7606 2024.8286,524.0606 2038.2676,485.2826 C2039.2246,482.5196 2040.4836,482.1426 2042.8466,482.1486 C2060.1646,482.1946 2077.4816,482.1736 2095.4836,482.1736 C2089.9206,496.7736 2084.5686,510.9216 2079.1396,525.0406 C2066.6286,557.5776 2054.0556,590.0926 2041.5516,622.6326 C2033.1546,644.4866 2024.8276,666.3676 2016.4816,688.2426 C2015.4966,690.8236 2013.9926,691.9496 2010.9266,691.911578 C1995.2756,691.7126 1979.6196,691.7656 1963.9656,691.8646 C1960.8326,691.8856 1959.4966,690.7626 1958.3456,687.7146 C1938.9636,636.3756 1919.3756,585.1146 1899.8866,533.8176 C1893.4266,516.8116 1887.1186,499.7486 1880.5396,482.1736 L1904.6106,482.1736 C1915.2676,482.1736 1925.9276,482.2746 1936.5826,482.105831 C1939.5216,482.0616 1940.7586,482.9026 1941.7086,485.8316 Z M1534.2105,524.3039 C1520.7295,532.1579 1515.7755,545.6049 1511.6835,559.6129 C1510.3575,564.1499 1512.4195,564.1239 1515.7905,564.0879 C1528.2625,563.9559 1540.7385,564.0349 1553.2125,564.0349 C1565.8535,564.0349 1578.4945,563.9989 1591.1345,564.0589 C1594.5555,564.0759 1596.6155,564.7649 1596.0235,559.1659 C1594.1765,541.6969 1581.5165,521.5489 1560.8215,519.6059 C1551.3475,518.7169 1542.3905,519.5379 1534.2105,524.3039 Z M2317.6109,529.9149 C2308.7269,539.1919 2303.8129,550.8349 2302.0139,564.0349 L2381.17843,564.034439 C2387.23417,564.023598 2387.22032,563.758035 2386.4019,557.2529 C2384.1279,539.1999 2372.6919,522.0859 2351.2249,519.4049 C2338.6469,517.8349 2326.5929,520.5349 2317.6109,529.9149 Z M1193.5249,147.5679 C1210.9539,159.6269 1220.7819,176.8809 1226.8679,196.6389 C1232.5169,214.9799 1233.4559,233.8199 1232.9089,252.8419 C1232.6229,262.7739 1234.0759,261.5099 1224.0679,261.5309 C1203.7509,261.5749 1183.4329,261.5449 1163.1159,261.5449 C1141.7989,261.5449 1120.4819,261.6179 1099.1659,261.4799 C1095.0139,261.4539 1093.5209,261.7979 1094.5099,266.8779 C1096.2829,275.9899 1099.3839,284.0579 1105.7369,290.9789 C1114.0179,300.0009 1124.0909,305.5359 1136.1039,307.4339 C1156.2829,310.6249 1175.2689,306.7329 1193.4139,297.6359 L1194.25445,297.215971 C1201.55845,293.585225 1201.95119,294.004793 1206.3869,301.5349 C1211.2739,309.8289 1215.7929,318.3399 1220.6499,326.6519 C1222.2989,329.4739 1222.0499,331.0129 1219.1079,332.8489 C1204.7889,341.7839 1188.9549,346.5729 1172.7259,350.4119 C1159.9039,353.4439 1146.8459,354.1099 1133.8229,353.2769 C1112.1539,351.8889 1092.2519,345.3749 1075.1789,331.3109 C1054.3759,314.1749 1043.9709,291.6549 1039.8519,265.5659 C1035.3129,236.8209 1039.0309,209.3819 1052.5319,183.5469 C1066.3559,157.0939 1087.7499,139.7579 1117.2189,133.9249 C1144.1909,128.5859 1170.1849,131.4199 1193.5249,147.5679 Z M1692.2875,138.0039 C1710.8385,144.9239 1724.7565,157.5159 1734.2335,174.7949 C1742.9935,190.7649 1747.3495,208.0279 1748.8145,226.1749 C1749.6685,236.7409 1750.0355,247.2019 1748.9255,257.7739 C1748.5595,261.2679 1747.3195,261.6069 1744.4365,261.5939 C1722.7895,261.5019 1701.1415,261.5439 1679.4935,261.5439 C1658.0125,261.5449 1636.5295,261.6829 1615.0515,261.4239 C1610.9155,261.3729 1610.2885,262.8449 1610.7565,266.2359 C1613.9175,289.1189 1632.1315,304.2819 1652.8815,307.4899 C1673.7985,310.7229 1693.1895,305.9399 1711.8385,296.8069 C1718.4175,293.5859 1718.3965,293.6949 1722.0345,300.2309 C1727.1185,309.3659 1732.1235,318.5529 1737.5475,327.4849 C1739.1505,330.1229 1738.5015,330.9269 1736.3545,332.3509 C1725.4865,339.5669 1713.3175,343.6509 1700.9895,347.4329 C1684.7565,352.4139 1668.1305,354.2119 1651.2445,353.3529 C1613.2535,351.4239 1579.1145,331.3079 1563.5745,292.6759 C1555.7925,273.3269 1553.2795,253.2159 1554.9395,232.8069 C1557.2845,203.9659 1567.1845,177.9419 1588.5745,157.4259 C1603.3005,143.3009 1620.9685,135.2209 1641.3225,132.6449 C1658.8045,130.4319 1675.8355,131.8669 1692.2875,138.0039 Z M887.2149,68.4127 C887.0709,111.8347 887.1229,155.2577 887.1229,198.6807 C887.4389,198.8707 887.7549,199.0617 888.0709,199.2517 C893.0329,192.0347 898.0179,184.8327 902.9529,177.5967 C928.0389,140.8077 953.0969,103.9987 978.2389,67.2477 C979.2829,65.7217 980.3589,63.8557 982.8189,63.8607 C1004.0939,63.8977 1025.3679,63.8817 1047.6149,63.8817 C1042.4199,71.1397 1037.7629,77.7377 1033.0099,84.2667 C1017.3769,105.7367 1001.7079,127.1807 986.0539,148.6367 C973.8739,165.3307 961.7569,182.0727 949.4539,198.6777 C947.5079,201.3057 947.3809,202.9267 949.4239,205.6867 C970.5139,234.1797 991.4209,262.8087 1012.3739,291.4027 C1025.0779,308.7407 1037.7889,326.0757 1050.4359,343.4567 C1051.1369,344.4207 1052.1299,345.4967 1051.6619,347.3987 L1027.4089,347.3987 L1027.4089,347.3987 C1012.9159,347.3987 998.4229,347.3597 983.9299,347.4377 C981.4469,347.4507 979.9649,346.9187 978.3789,344.5677 C957.0379,312.9257 935.4809,281.4277 913.9979,249.8807 C905.8029,237.8477 897.6639,225.7757 889.4709,213.7407 C889.0479,213.1187 888.3629,212.6747 887.1229,211.5147 L887.1229,217.5777 C887.1229,259.1717 887.0559,300.7657 887.2259,342.3577 C887.2429,346.5137 886.2329,347.5717 882.0659,347.510394 C865.0779,347.2477 848.0829,347.3137 831.0929,347.4747 C827.8679,347.5047 826.9629,346.6967 826.966887,343.3987 C827.0599,251.5617 827.0599,159.7237 826.966887,67.8867 C826.9639,64.6027 827.8459,63.7717 831.0849,63.8017 C848.2419,63.9637 865.4029,63.9997 882.5579,63.7799628 C886.2929,63.7337 887.2269,64.6657 887.2149,68.4127 Z M1529.8265,37.2375 C1529.7205,88.1475 1529.7535,139.0565 1529.7535,189.9655 C1529.7535,240.5425 1529.6875,291.1195 1529.86166,341.6955 C1529.8785,346.3785 1528.5745,347.5885 1523.9825,347.5065 C1508.3295,347.2265 1492.6655,347.2775 1477.0095,347.4915 C1473.4255,347.5405 1472.6945,346.5055 1472.69848,343.0805 C1472.7955,243.7575 1472.7875,144.4345 1472.7265,45.1115 C1472.7245,42.1895 1473.1545,41.1795 1476.5775,40.7055 C1492.9475,38.4395 1509.2455,35.6375 1525.5545,32.9405 C1529.2475,32.3295 1529.8335,33.8835 1529.8265,37.2375 Z M1891.7199,131.820059 C1898.8359,131.8091 1905.5489,134.0071 1912.0059,136.8921 C1913.3439,137.4891 1913.7749,138.3951 1913.1469,140.0941 C1908.4049,152.9311 1903.8619,165.8411 1899.1649,178.6961 C1897.7359,182.6081 1894.2429,180.7051 1891.8739,180.5411 C1868.4259,178.9181 1849.0429,186.6961 1833.2439,204.2121 C1829.3559,208.5231 1828.5569,212.8221 1828.5699,218.1181 C1828.6799,259.5471 1828.5599,300.9781 1828.7389,342.4071 C1828.7569,346.6121 1827.6849,347.5761 1823.5709,347.5061 C1807.9149,347.2421 1792.2499,347.2611 1776.5939,347.4941 C1772.5219,347.5541 1771.56786,346.2581 1771.5749,342.3631 C1771.6859,275.8091 1771.6899,209.2551 1771.56786,142.7021 C1771.5599,138.6681 1772.7469,137.6031 1776.6819,137.6671 C1790.5059,137.8891 1804.3369,137.8551 1818.1619,137.6831 C1821.7199,137.6381 1822.8199,138.8371 1822.6959,142.2951 C1822.4729,148.5381 1822.6329,154.7941 1822.6329,162.2741 C1831.8919,152.0221 1842.2719,145.3201 1853.6819,140.0801 C1865.7669,134.5301 1878.4809,131.8391 1891.7199,131.820059 Z M1312.6471,186.1941 C1310.4341,187.2961 1309.8061,188.1711 1309.8101,190.3861 C1309.8581,224.2841 1309.8721,258.1821 1309.78607,292.0801 C1309.7801,294.6291 1310.7171,295.8831 1312.9021,296.9751 C1320.0891,300.5701 1327.5651,303.0861 1335.4651,304.7131 C1352.9981,308.3291 1373.0811,299.6581 1382.2791,284.5931 C1390.1381,271.7221 1393.6681,257.9231 1392.7101,242.5251 C1393.2541,235.3221 1392.6021,227.8021 1390.7971,220.3931 C1386.4931,202.7291 1376.6841,189.4391 1359.3021,182.9981 C1343.4411,177.1201 1327.8261,178.6431 1312.6471,186.1941 Z M1112.4499,182.7629 C1101.6739,191.3029 1097.1719,203.5939 1093.9989,216.4499 C1093.3109,219.2379 1094.7829,219.6829 1097.2479,219.6639 C1110.2299,219.5599 1123.2129,219.6149 1136.1949,219.6149 C1149.0109,219.6149 1161.8319,219.3999 1174.6389,219.7369 C1178.8689,219.8479 1179.4049,218.1149 1178.8169,214.8599 C1177.5349,207.7579 1175.7749,200.8649 1172.2049,194.4309 C1159.4459,171.4389 1129.3149,169.4009 1112.4499,182.7629 Z M1650.1515,174.7439 C1640.2405,175.5999 1631.0705,178.7229 1624.5255,186.6509 C1616.6975,196.1339 1611.7975,207.0499 1610.2755,219.6149 L1689.91547,219.614304 C1695.30637,219.601856 1695.36351,219.329753 1694.6705,213.3899 C1692.0805,191.1799 1676.3605,172.4779 1650.1515,174.7439 Z" id="Combined-Shape" fill="#003369"></path>
                <path d="M695.045,346.0544 C694.768,347.7714 693.504,348.4554 692.601,349.3644 C684.382,357.6254 676.125,365.8474 667.879,374.0824 C624.887,417.0194 581.855,459.9184 538.982,502.9754 C535.843,506.1274 534.368,505.9984 531.309,502.9314 C480.411,451.8914 429.402,400.9594 378.316,350.1084 C375.504,347.3104 375.022,345.8794 378.127,342.7914 C429.357,291.8474 480.472,240.7874 531.494,189.6354 C534.456,186.6664 535.911,186.7744 538.818,189.6884 C589.844,240.8414 640.993,291.8714 692.11,342.9334 C693.152,343.9734 694.129,345.0774 695.045,346.0544" id="Fill-5" fill="#259BE1"></path>
                <path d="M347.0431,693.9587 C320.8631,667.8617 294.9781,642.0037 268.9791,616.2587 C267.1071,614.4047 267.2771,612.4977 267.2771,610.3997 C267.2691,563.3207 267.2711,516.2407 267.2711,469.1617 C267.2711,340.5667 267.2841,211.9717 267.205092,83.3767 C267.2021,79.8247 268.0721,77.2837 270.6851,74.6987 C295.0631,50.5817 319.3381,26.3607 343.4691,1.9987 C346.2801,-0.8393 347.5871,-0.5193 350.2021,2.1027 C392.5181,44.5347 434.9101,86.8937 477.4151,129.1387 C480.3711,132.0757 480.3161,133.4917 477.3891,136.4067 C408.7501,204.7797 340.2481,273.2907 271.5981,341.6517 C268.1951,345.0407 268.1921,346.8387 271.6111,350.1737 C287.3381,365.5177 302.5891,381.3487 318.3671,396.6397 C372.2591,448.8707 424.6331,502.6227 478.0841,555.2937 C481.2431,558.4067 481.1341,559.8557 478.0591,562.9107 C435.3111,605.3827 392.7081,648.0007 350.0791,690.5927 C349.0221,691.6487 348.0711,692.8127 347.0431,693.9587" id="Fill-1" fill="#003369"></path>
                <path d="M180.2062,165.446 L180.2062,526.628 C179.8372,526.939 179.4672,527.251 179.0982,527.562 C178.2922,526.375 177.6542,525.019 176.6572,524.022 C118.5182,465.905 60.3622,407.803 2.1342,349.775 C-0.2868,347.363 -1.0038,346.116 1.8722,343.254 C60.4932,284.912 118.9842,226.442 177.5052,168 C178.1932,167.313 178.9172,166.662 180.2062,165.446" id="Fill-9" fill="#003369"></path>
            </g>
        </g>
    </g>
</svg>