<svg width="128" height="19" viewBox="0 0 128 19" fill="none" xmlns="http://www.w3.org/2000/svg">
<path fill-rule="evenodd" clip-rule="evenodd" d="M21.7951 0.206439C21.736 0.222189 21.6796 0.314939 21.6576 0.433239C21.6205 0.630289 21.6152 0.633439 21.3202 0.634139C20.8592 0.635189 20.7661 0.676839 20.7245 0.899089C20.6916 1.07269 20.665 1.09544 20.4749 1.11154C20.2754 1.12799 20.2611 1.14269 20.2443 1.34464C20.2275 1.54694 20.2131 1.56094 20.0108 1.57809C19.8085 1.59489 19.7945 1.60889 19.7777 1.81119C19.7606 2.01349 19.7466 2.02784 19.5443 2.04464L19.3287 2.06249L19.3119 2.51119L19.2947 2.95989L19.0784 2.97774L18.8621 2.99594L18.845 3.44464L18.8282 3.89334L18.6119 3.91119L18.3956 3.92904L18.3791 4.70219L18.363 5.47499H18.5699C18.6987 5.47499 18.8677 5.41444 19.0168 5.31469C19.1491 5.22649 19.3255 5.10819 19.4095 5.05254C19.7858 4.80124 20.6296 4.94544 20.988 5.32204C21.142 5.48409 21.2355 5.53344 21.3874 5.53344C21.5396 5.53344 21.5928 5.56179 21.6177 5.65559C21.6439 5.75709 21.68 5.77179 21.8266 5.74239C22.0657 5.69479 22.0639 5.69829 22.0895 5.24399L22.1122 4.84394L22.3079 4.80719C22.4731 4.77639 22.5091 4.73999 22.5403 4.57409C22.5714 4.40784 22.6075 4.37179 22.7737 4.34064C22.9403 4.30949 22.9757 4.27379 23.0075 4.10509C23.0408 3.92659 23.0667 3.90454 23.2578 3.88844C23.4576 3.87199 23.4716 3.85764 23.4884 3.65219L23.5066 3.43344H24.4299H25.3532L25.3903 3.63119C25.433 3.85764 25.524 3.89789 25.9934 3.89929L26.2996 3.89999V4.13344V4.36654H26.5331H26.7662V4.76344C26.7662 5.20199 26.8215 5.29999 27.0696 5.29999H27.2331V6.23344V7.16654H27.0696C26.8215 7.16654 26.7662 7.26454 26.7662 7.70344V8.09999H26.5331H26.2996V8.33344V8.56654H25.9031C25.4642 8.56654 25.3662 8.62184 25.3662 8.86999V9.03344H24.4366H23.5066L23.4884 8.81469C23.4716 8.60889 23.4576 8.59489 23.2578 8.57809C23.0667 8.56199 23.0408 8.53994 23.0075 8.36144C22.9757 8.19274 22.9403 8.15704 22.7737 8.12589C22.6075 8.09474 22.5714 8.05869 22.5403 7.89244C22.5088 7.72514 22.4738 7.69049 22.3016 7.65829L22.0996 7.62049V7.23024C22.0996 6.80184 22.0429 6.69999 21.8049 6.69999C21.6509 6.69999 21.6506 6.70174 21.6128 7.26874C21.5645 7.99849 21.5641 11.1257 21.6124 11.5272L21.6492 11.8334H21.8707C22.0849 11.8334 22.0933 11.8408 22.1108 12.0522L22.1287 12.2709L24.4621 12.2877C27.1914 12.3073 27.1564 12.3105 27.2082 12.0354C27.2453 11.8362 27.2502 11.8334 27.5456 11.8324C28.0066 11.8313 28.1 11.7897 28.1417 11.5674C28.1742 11.3938 28.2008 11.3711 28.3909 11.3553C28.5904 11.3385 28.6051 11.3238 28.6215 11.1219C28.6387 10.9196 28.6527 10.9056 28.855 10.8888C29.0573 10.872 29.0716 10.8576 29.0884 10.6553C29.1052 10.453 29.1192 10.439 29.3215 10.4219C29.5249 10.4051 29.5382 10.3914 29.5553 10.1853C29.5714 9.99034 29.5907 9.96654 29.7331 9.96654C29.9774 9.96654 30.0331 9.86714 30.0331 9.42999V9.03344H30.2007C30.5056 9.03344 30.5021 9.07159 30.4856 6.16834L30.4706 3.46249L30.2518 3.44429L30.0331 3.42644V3.03304C30.0331 2.59939 29.9771 2.49999 29.7331 2.49999C29.5907 2.49999 29.5714 2.47654 29.5553 2.28124C29.5382 2.07509 29.5249 2.06144 29.3215 2.04464C29.1192 2.02784 29.1052 2.01349 29.0884 1.81119C29.0716 1.60889 29.0573 1.59489 28.855 1.57809C28.6527 1.56094 28.6387 1.54694 28.6215 1.34464C28.6047 1.14164 28.5911 1.12799 28.3849 1.11119C28.19 1.09474 28.1662 1.07584 28.1662 0.933039C28.1662 0.688739 28.0668 0.633439 27.6296 0.633439C27.2341 0.633439 27.2331 0.632739 27.2331 0.469989C27.2331 0.160239 27.2866 0.166189 24.4943 0.173539C23.0649 0.177039 21.8504 0.192089 21.7951 0.206439ZM4.06201 3.00644C4.00321 3.02184 3.94651 3.11459 3.92446 3.23079L3.88736 3.42854L3.44146 3.44569L2.99556 3.46249L2.97736 3.68124L2.95916 3.89999L2.65641 3.90069C2.19371 3.90209 2.09921 3.94339 2.05791 4.16354C2.02781 4.32419 1.99036 4.36164 1.82971 4.39174C1.60956 4.43304 1.56826 4.52754 1.56721 4.99024L1.56616 5.29299L1.34741 5.31119L1.12866 5.32904L1.11186 5.77774L1.09471 6.22644L0.878409 6.24464L0.662109 6.26249V10.6179C0.662109 13.0136 0.683109 14.9946 0.709009 15.0205C0.734909 15.0464 0.936859 15.0776 1.15806 15.0902L1.55986 15.1129L1.57771 15.325L1.59556 15.5375H2.26616H2.93711L2.95531 15.3187L2.97316 15.1H3.36656C3.94651 15.1 3.89961 15.4132 3.89961 11.5335V8.10699L4.11836 8.08879L4.33711 8.07094L4.35426 7.62224L4.37106 7.17354L4.58736 7.15534C4.79141 7.13854 4.80471 7.12524 4.82186 6.91874L4.84006 6.69999H5.24151C5.59011 6.69999 5.65486 6.68284 5.73396 6.57049C5.80221 6.47249 5.82461 6.46374 5.82461 6.53444C5.82461 6.64924 5.99261 6.69824 6.38986 6.69929L6.69261 6.69999L6.71081 6.91874C6.72796 7.12559 6.74056 7.13854 6.94741 7.15569L7.16616 7.17354L7.16721 7.47629C7.16826 7.94144 7.20921 8.03349 7.43391 8.07549L7.63026 8.11259L7.64601 11.5429C7.65511 13.4298 7.68311 14.9946 7.70901 15.0205C7.73491 15.0464 7.93826 15.0776 8.16121 15.0902C8.55916 15.1126 8.56616 15.1161 8.56616 15.2743C8.56616 15.535 8.66906 15.5725 9.33301 15.5543L9.93711 15.5375L9.95496 15.3212L9.97316 15.1049L10.4219 15.0877L10.8706 15.0709L10.8856 11.8187L10.9007 8.56654H11.0634C11.3326 8.56654 11.3662 8.48114 11.3662 7.80004V7.17354L11.5849 7.15569C11.7918 7.13854 11.8047 7.12559 11.8219 6.91874L11.8401 6.69999H12.2758C12.6734 6.69999 12.7165 6.68844 12.7644 6.56874C12.8005 6.47949 12.8183 6.46794 12.8208 6.53269C12.8253 6.64924 12.9919 6.69824 13.3867 6.69929C13.6825 6.69999 13.687 6.70279 13.7245 6.90194C13.757 7.07484 13.791 7.10914 13.9611 7.14099C14.1396 7.17459 14.1616 7.20014 14.1777 7.39124C14.1945 7.59144 14.2085 7.60509 14.4133 7.62224L14.6313 7.64044L14.6467 9.54724L14.6621 11.454L14.9068 11.4719C15.1119 11.4869 15.1661 11.467 15.2442 11.348C15.5536 10.8758 17.1979 10.8436 17.3449 11.3067C17.3753 11.4022 17.4327 11.425 17.6417 11.425H17.9007L17.8856 8.61029L17.8706 5.79594L17.6518 5.77774L17.4331 5.75954V5.36649C17.4331 4.93284 17.3771 4.83344 17.1331 4.83344C16.9907 4.83344 16.9714 4.80964 16.9553 4.61469C16.9382 4.40854 16.9249 4.39489 16.7215 4.37809C16.5192 4.36094 16.5052 4.34694 16.4884 4.14464L16.4706 3.92904L16.0219 3.91224L15.5732 3.89509L15.555 3.67879L15.5371 3.46249L15.0849 3.44534C14.6345 3.42854 14.6331 3.42784 14.6331 3.26754C14.6331 2.96969 14.6138 2.96654 12.8568 2.96759C10.9693 2.96829 10.9738 2.96759 10.9241 3.23324L10.8874 3.42854L10.4415 3.44569L9.99556 3.46249L9.97736 3.68124C9.95986 3.89404 9.95286 3.89999 9.72956 3.89999C9.58956 3.89999 9.49961 3.92729 9.49961 3.96999C9.49961 4.02459 9.48421 4.02459 9.42961 3.96999C9.38901 3.92939 9.19441 3.89999 8.96656 3.89999H8.57316L8.55531 3.68124L8.53711 3.46249L8.08491 3.44534C7.63446 3.42854 7.63306 3.42784 7.63306 3.26754C7.63306 2.96864 7.61731 2.96619 5.82741 2.97354C4.91146 2.97704 4.11696 2.99209 4.06201 3.00644ZM87.1286 3.93989C87.0712 3.95494 87.0141 4.04489 86.9949 4.15199C86.9424 4.44424 86.9896 14.5011 87.0439 14.5554C87.0708 14.5823 87.6875 14.604 88.4148 14.604H89.7371L89.755 14.3888C89.7718 14.1865 89.7861 14.1721 89.9884 14.1553L90.2037 14.1375L90.2198 12.9853L90.2355 11.8334L91.2404 11.8324C92.4535 11.8317 92.4937 11.8233 92.542 11.5643L92.5791 11.3665H93.2028C93.8794 11.3665 93.9662 11.3326 93.9662 11.0669C93.9662 10.9241 93.99 10.9052 94.1849 10.8888C94.3911 10.872 94.4047 10.8583 94.4215 10.6553C94.4387 10.453 94.4527 10.439 94.655 10.4219C94.858 10.4051 94.8716 10.3914 94.8884 10.1853C94.9049 9.99034 94.9238 9.96654 95.0666 9.96654C95.3665 9.96654 95.3662 9.96899 95.3662 7.86654C95.3662 5.76409 95.3665 5.76654 95.0666 5.76654C94.9238 5.76654 94.9049 5.74309 94.8884 5.54779C94.8716 5.34164 94.858 5.32799 94.655 5.31119C94.4527 5.29439 94.4387 5.28039 94.4215 5.07809C94.4047 4.87544 94.3907 4.86144 94.1884 4.84464C93.9861 4.82784 93.9718 4.81349 93.955 4.61119L93.9371 4.39594L93.2518 4.37949L92.5662 4.36304V4.20134C92.5662 3.89404 92.618 3.89964 89.8274 3.90664C88.3984 3.91049 87.1839 3.92519 87.1286 3.93989ZM96.3647 3.97909C96.3168 4.03719 96.3031 5.48409 96.314 9.33129L96.3287 14.604H97.6996H99.0706L99.0853 9.33129C99.0961 5.48409 99.0825 4.03719 99.0345 3.97909C98.9383 3.86359 96.461 3.86359 96.3647 3.97909ZM100.54 3.93779C100.491 3.98679 100.487 5.86139 100.536 6.04234C100.56 6.13194 100.631 6.18339 100.765 6.20859C100.939 6.24114 100.962 6.26774 100.978 6.45814C100.995 6.65799 101.009 6.67199 101.214 6.68879L101.433 6.70699L101.434 7.00974C101.435 7.47384 101.476 7.56694 101.699 7.60859C101.872 7.64114 101.895 7.66774 101.911 7.85814C101.928 8.05729 101.942 8.07199 102.144 8.08879C102.347 8.10559 102.361 8.11959 102.378 8.32189C102.395 8.52524 102.408 8.53854 102.614 8.55569L102.833 8.57354V9.03029V9.48704L102.635 9.52414C102.409 9.56649 102.368 9.65784 102.367 10.1237L102.366 10.4264L102.147 10.4443C101.941 10.4614 101.928 10.4744 101.911 10.6812C101.894 10.8765 101.875 10.9 101.733 10.9C101.489 10.9 101.433 10.9994 101.433 11.433V11.8264L101.214 11.8443C101.008 11.8614 100.995 11.8747 100.978 12.0781C100.961 12.2804 100.947 12.2944 100.744 12.3112L100.529 12.329L100.512 12.7777L100.495 13.2264L100.278 13.2446L100.062 13.2625V13.8848C100.062 14.2271 100.084 14.5291 100.111 14.5557C100.192 14.6366 103.121 14.6506 103.217 14.5708C103.263 14.533 103.3 14.4297 103.3 14.3408C103.3 14.2036 103.329 14.1742 103.497 14.1424C103.723 14.1 103.764 14.0087 103.765 13.5432L103.766 13.2404L103.985 13.2222C104.191 13.2051 104.205 13.1914 104.222 12.9912C104.237 12.8012 104.26 12.7746 104.434 12.742C104.657 12.7 104.698 12.6073 104.699 12.1397L104.7 11.8334H104.931H105.161L105.178 12.2853L105.196 12.7375L105.414 12.7557L105.633 12.7735L105.634 13.0763C105.635 13.5404 105.676 13.6335 105.899 13.6751C106.072 13.708 106.095 13.7346 106.111 13.9247C106.128 14.1242 106.142 14.1385 106.344 14.1553C106.547 14.1721 106.561 14.1865 106.578 14.3888L106.596 14.604H107.966H109.337L109.355 14.3888C109.372 14.1865 109.386 14.1721 109.588 14.1553L109.804 14.1375V13.7V13.2625L109.585 13.2443L109.366 13.2264L109.365 12.9237C109.364 12.4596 109.323 12.3665 109.101 12.3248C108.927 12.2919 108.904 12.2653 108.888 12.0753C108.872 11.8751 108.857 11.8614 108.652 11.8443L108.433 11.8264L108.432 11.5237C108.431 11.0596 108.39 10.9665 108.167 10.9248C107.993 10.8919 107.971 10.8653 107.955 10.6753C107.938 10.4751 107.924 10.4614 107.718 10.4443L107.5 10.4264L107.499 10.1237C107.498 9.65784 107.457 9.56649 107.231 9.52414L107.033 9.48704V9.03029V8.57354L107.252 8.55569C107.459 8.53854 107.471 8.52559 107.488 8.31874C107.505 8.12344 107.524 8.09999 107.667 8.09999C107.91 8.09999 107.966 8.00059 107.966 7.56694V7.17354L108.185 7.15569C108.391 7.13854 108.405 7.12524 108.422 6.92189C108.439 6.71959 108.453 6.70559 108.655 6.68879L108.871 6.67094L108.887 6.22224L108.905 5.77354L109.121 5.75534L109.337 5.73749L109.353 4.88559C109.374 3.80164 109.512 3.89404 107.901 3.91329L106.596 3.92904L106.578 4.14464C106.561 4.34694 106.547 4.36094 106.344 4.37809C106.142 4.39454 106.128 4.40924 106.111 4.60874C106.095 4.79879 106.072 4.82539 105.899 4.85794C105.676 4.89994 105.635 4.99269 105.634 5.45679L105.633 5.75954L105.414 5.77774C105.207 5.79489 105.195 5.80784 105.177 6.01469C105.16 6.22679 105.152 6.23344 104.933 6.23344C104.714 6.23344 104.706 6.22679 104.688 6.01469C104.671 5.80784 104.659 5.79489 104.452 5.77774L104.233 5.75954L104.232 5.45679C104.231 4.99269 104.19 4.89994 103.967 4.85794C103.793 4.82539 103.771 4.79879 103.755 4.60874C103.738 4.40924 103.723 4.39454 103.522 4.37809C103.319 4.36094 103.305 4.34694 103.288 4.14464L103.271 3.92904L101.925 3.91364C101.185 3.90489 100.562 3.91574 100.54 3.93779ZM110.806 3.93849C110.784 3.96019 110.766 4.06379 110.766 4.16879C110.766 4.34729 110.752 4.36094 110.547 4.37774L110.329 4.39594V9.26654V14.1375L110.544 14.1553C110.747 14.1721 110.761 14.1865 110.778 14.3888L110.796 14.604H114.684C116.823 14.604 118.595 14.5823 118.622 14.5557C118.649 14.5288 118.671 13.9121 118.671 13.1848V11.8625L116.118 11.8474L113.566 11.832V11.1327V10.4334H115.666H117.766V9.26654V8.09999H115.906H114.046L114.008 7.89804C113.976 7.72444 113.942 7.69084 113.768 7.65829L113.566 7.62049V7.16094V6.70139L116.118 6.68599L118.671 6.67094V5.53344V4.39594L118.455 4.37809C118.253 4.36094 118.239 4.34694 118.222 4.14464L118.204 3.92904L114.524 3.91399C112.501 3.90594 110.827 3.91679 110.806 3.93849ZM119.704 3.96894C119.593 4.07954 119.602 14.4763 119.713 14.5683C119.77 14.6159 120.792 14.6299 123.431 14.6191L127.071 14.604L127.086 13.2187L127.102 11.8334H125.007H122.913L122.875 11.6315C122.842 11.4579 122.808 11.4239 122.635 11.3917L122.434 11.3539L122.419 7.64149L122.404 3.92904L121.089 3.91364C120.116 3.90209 119.757 3.91644 119.704 3.96894ZM35.1935 4.43864C35.1781 4.47924 35.1721 6.78294 35.1805 9.55844L35.1956 14.604L36.7342 14.6198C37.8206 14.6306 38.2962 14.6156 38.3529 14.5687C38.4177 14.5151 38.4341 14.1305 38.4397 12.5698C38.4436 11.5072 38.4583 10.6826 38.473 10.7376C38.4884 10.7964 38.5808 10.8531 38.6963 10.8748C38.8727 10.908 38.8951 10.9339 38.9112 11.1247C38.9276 11.3249 38.942 11.3385 39.1474 11.3557L39.3662 11.3735L39.3672 11.6763C39.3683 12.1421 39.4092 12.2335 39.6353 12.2758C39.8019 12.307 39.8331 12.3378 39.8331 12.4697C39.8331 12.7014 39.9356 12.7665 40.2996 12.7665C40.6647 12.7665 40.7662 12.7014 40.7662 12.4669C40.7662 12.3241 40.79 12.3052 40.9849 12.2888C41.1911 12.272 41.2047 12.2583 41.2215 12.0553C41.2387 11.853 41.2527 11.839 41.455 11.8219L41.6706 11.804L41.6874 11.3553L41.7045 10.9066L41.9208 10.8888C42.1249 10.872 42.1382 10.8583 42.1553 10.6522C42.1718 10.4541 42.1893 10.4334 42.3415 10.4334C42.4339 10.4334 42.5305 10.4005 42.5564 10.3603C42.5827 10.3204 42.617 11.2587 42.6331 12.4459L42.6621 14.604L44.0474 14.6198L45.4331 14.6355V9.50104V4.36654H43.8696C42.0738 4.36654 42.1662 4.33749 42.1662 4.89994V5.29299L41.9474 5.31119C41.742 5.32799 41.7276 5.34199 41.7112 5.54184C41.6951 5.73224 41.6723 5.75884 41.4987 5.79139C41.2761 5.83304 41.2348 5.92614 41.2338 6.39024L41.2331 6.69299L41.0143 6.71119L40.7956 6.72904L40.7784 7.18124L40.7613 7.63344H40.5341C40.3133 7.63344 40.3063 7.62679 40.2884 7.41469C40.2716 7.20819 40.2583 7.19489 40.0543 7.17774L39.8376 7.15989L39.8208 6.71119L39.8037 6.26249L39.5849 6.24429L39.3662 6.22644L39.3655 5.92369C39.3644 5.45959 39.3231 5.36649 39.1005 5.32484C38.9269 5.29194 38.9042 5.26534 38.8881 5.07529C38.8716 4.87579 38.8569 4.86144 38.655 4.84464C38.4527 4.82784 38.4387 4.81349 38.4215 4.61119L38.4037 4.39594L36.8126 4.38019C35.5715 4.36829 35.2155 4.38089 35.1935 4.43864ZM50.1385 4.40539C50.1171 4.42709 50.0996 4.63534 50.0996 4.86879V5.29299L49.8809 5.31119L49.6621 5.32904L49.645 5.77774L49.6282 6.22644L49.4119 6.24464L49.1956 6.26249L49.1784 6.70839L49.1616 7.15464L48.9663 7.19104C48.7259 7.23619 48.7014 7.31249 48.7003 8.02369L48.6996 8.55954L48.4809 8.57774L48.2621 8.59594L48.245 9.04779C48.2282 9.49824 48.2275 9.49999 48.0672 9.49999C47.8225 9.49999 47.7662 9.59939 47.7662 10.0302V10.4205L47.5684 10.4576C47.3255 10.5031 47.3014 10.5776 47.3003 11.2902L47.2996 11.8264L47.0809 11.8443L46.8621 11.8625L46.845 12.3147L46.8282 12.7665H46.6626C46.3861 12.7665 46.3616 12.853 46.3791 13.7661L46.3956 14.604L47.7809 14.6198L49.1662 14.6355V14.4045C49.1662 14.1798 49.1721 14.1732 49.3849 14.1557L49.6037 14.1375L49.6208 13.6853C49.638 13.2348 49.6383 13.2334 49.7986 13.2334C50.0037 13.2334 50.0996 13.1365 50.0996 12.93V12.7665H51.7331H53.3662V13.1634C53.3662 13.6009 53.4218 13.7 53.6672 13.7C53.8275 13.7 53.8282 13.7017 53.845 14.1522L53.8621 14.604H55.4662H57.0706V13.9334V13.2625L56.8518 13.2443L56.6331 13.2264L56.632 12.6902C56.631 11.9776 56.6072 11.9031 56.3639 11.8576L56.1662 11.8205V11.4302C56.1662 10.9994 56.1098 10.9 55.8655 10.9C55.7052 10.9 55.7045 10.8982 55.6874 10.4478L55.6706 9.99594L55.4518 9.97774L55.2331 9.95954L55.232 9.42369C55.231 8.71109 55.2072 8.63654 54.9639 8.59069L54.7662 8.55359V8.16334C54.7662 7.73249 54.7098 7.63344 54.4655 7.63344C54.3052 7.63344 54.3045 7.63169 54.2874 7.18124L54.2706 6.72904L54.0518 6.71119L53.8331 6.69299L53.832 6.15679C53.831 5.44419 53.8072 5.36964 53.5639 5.32414L53.3662 5.28704V4.89679C53.3662 4.67104 53.3368 4.47714 53.2962 4.43654C53.2206 4.36094 50.213 4.33119 50.1385 4.40539ZM60.405 4.40539C60.3837 4.42709 60.3662 4.53069 60.3662 4.63639V4.82854L59.9143 4.84534L59.4621 4.86249L59.4439 5.08124C59.4264 5.29404 59.4194 5.29999 59.1961 5.29999C58.9669 5.29999 58.9662 5.30069 58.9662 5.53344V5.76654H58.7331C58.5003 5.76654 58.4996 5.76724 58.4996 5.99649C58.4996 6.21979 58.4937 6.22679 58.2809 6.24429C58.074 6.26144 58.0611 6.27439 58.0439 6.48124C58.0278 6.67654 58.0086 6.69999 57.8661 6.69999C57.6001 6.69999 57.5662 6.78679 57.5662 7.46999V8.09999H57.3985C57.1066 8.09999 57.0961 8.15494 57.1129 9.56579L57.1287 10.8709L57.3457 10.8888L57.5627 10.907L57.5791 11.5888L57.5956 12.2709L57.8143 12.2888L58.0331 12.307L58.0338 12.6097C58.0348 13.0738 58.0761 13.1669 58.2987 13.2086C58.4723 13.2411 58.4951 13.2677 58.5112 13.4581C58.5276 13.6569 58.5427 13.672 58.7415 13.6884C58.9319 13.7045 58.9585 13.7273 58.991 13.9009C59.0327 14.1235 59.1258 14.1648 59.5899 14.1658L59.8926 14.1665L59.9108 14.3853L59.9287 14.604L60.608 14.6205L61.2874 14.6369L61.3241 14.8329C61.3724 15.0912 61.4088 15.0982 62.6996 15.0982C63.9904 15.0982 64.0268 15.0912 64.0751 14.8329L64.1119 14.6369L64.7912 14.6205L65.4706 14.604L65.4884 14.3877L65.5063 14.1714L65.955 14.1546L66.4037 14.1375L66.4219 13.9187C66.4394 13.7059 66.4464 13.7 66.6697 13.7C66.8986 13.7 66.8996 13.6989 66.8996 13.47C66.8996 13.2467 66.9056 13.2397 67.1184 13.2222L67.3371 13.204V10.9V8.59594L64.7849 8.58054L62.2331 8.56549V9.73274V10.9H63.1662H64.0996V11.3665V11.8334H63.4696C63.0937 11.8334 62.8141 11.859 62.7763 11.8968C62.7304 11.9423 62.7017 11.9423 62.6737 11.8968C62.651 11.8604 62.4518 11.8334 62.2068 11.8334H61.7791L61.7413 11.6315C61.7091 11.4593 61.6745 11.4239 61.5072 11.3924C61.3409 11.3613 61.3049 11.3256 61.2737 11.1593C61.2426 10.9924 61.2069 10.957 61.0382 10.9255C60.8597 10.8919 60.8376 10.8664 60.8215 10.6753C60.8047 10.4751 60.7907 10.4614 60.5849 10.4443L60.3662 10.4264V9.49999V8.57354L60.5849 8.55569C60.7911 8.53854 60.8047 8.52524 60.8215 8.32189C60.8387 8.11959 60.8527 8.10559 61.055 8.08879C61.2573 8.07199 61.2716 8.05764 61.2884 7.85534C61.3052 7.65304 61.3192 7.63904 61.5215 7.62189C61.7249 7.60509 61.7382 7.59144 61.7553 7.38529L61.7732 7.16654H62.6968H63.6201L63.6572 7.36429C63.6996 7.59074 63.7906 7.63134 64.2599 7.63239C64.5564 7.63344 64.5662 7.63869 64.5662 7.79654C64.5662 8.03489 64.6666 8.09999 65.0331 8.09999C65.3981 8.09999 65.4996 8.03454 65.4996 7.80004C65.4996 7.65759 65.5231 7.63834 65.7184 7.62224C65.9245 7.60509 65.9382 7.59179 65.955 7.38879C65.9718 7.18649 65.9861 7.17214 66.1884 7.15534C66.3914 7.13854 66.4047 7.12489 66.4219 6.91874C66.438 6.72344 66.4572 6.69999 66.5997 6.69999C66.8608 6.69999 66.8996 6.60934 66.8996 5.99999C66.8996 5.38889 66.8611 5.29999 66.5962 5.29999C66.4562 5.29999 66.4331 5.27654 66.4331 5.13654C66.4331 4.88874 66.3351 4.83344 65.8962 4.83344C65.5007 4.83344 65.4996 4.83274 65.4996 4.66999C65.4996 4.58004 65.4681 4.47504 65.4296 4.43654C65.3533 4.36059 60.4803 4.33049 60.405 4.40539ZM68.3266 4.43969C68.3112 4.47959 68.3056 6.78294 68.3136 9.55844L68.3287 14.604L69.8676 14.6198C70.9537 14.6306 71.4297 14.6156 71.4864 14.5687C71.5966 14.477 71.6068 4.54714 71.4962 4.43654C71.3936 4.33399 68.3658 4.33679 68.3266 4.43969ZM75.3392 4.40504C75.3175 4.42674 75.2996 4.53209 75.2996 4.63884V4.83344H74.9031C74.4656 4.83344 74.3662 4.88874 74.3662 5.13304C74.3662 5.27584 74.3427 5.29474 74.1474 5.31119C73.9413 5.32799 73.9276 5.34164 73.9108 5.54464C73.894 5.74694 73.88 5.76094 73.6777 5.77809C73.4758 5.79454 73.4611 5.80924 73.4443 6.00874C73.4285 6.19879 73.4058 6.22539 73.2322 6.25794C73.0092 6.29994 72.9683 6.39269 72.9672 6.86029C72.9662 7.15884 72.962 7.16654 72.7985 7.16654C72.4961 7.16654 72.4972 7.15954 72.5136 9.56509L72.5287 11.804L72.745 11.8222L72.9616 11.8401L72.9784 12.2888L72.9956 12.7375L73.2108 12.7553C73.4131 12.7721 73.4275 12.7865 73.4443 12.9888C73.4611 13.1918 73.4747 13.2051 73.6809 13.2222C73.8937 13.2397 73.8996 13.2467 73.8996 13.47C73.8996 13.6989 73.9007 13.7 74.1296 13.7C74.3529 13.7 74.3599 13.7059 74.3774 13.9187C74.3945 14.1245 74.4082 14.1385 74.6084 14.1553C74.7984 14.1711 74.825 14.1938 74.8576 14.3674C74.9045 14.6166 74.9643 14.6317 75.9233 14.6324L76.6926 14.6334L76.7108 14.8522L76.7287 15.0709L77.8004 15.0867C78.9617 15.1038 79.0331 15.0877 79.0331 14.8032V14.6369L79.7184 14.6205L80.4037 14.604L80.4219 14.3877L80.4397 14.1714L80.8884 14.1546L81.3371 14.1375L81.355 13.9219C81.3718 13.7196 81.3861 13.7056 81.5884 13.6888L81.8037 13.6709V12.7665V11.8625L81.5884 11.8446C81.3861 11.8278 81.3718 11.8135 81.355 11.6112C81.3382 11.4082 81.3245 11.3949 81.1184 11.3777C80.9231 11.3616 80.8996 11.3424 80.8996 11.1999C80.8996 10.9388 80.809 10.9 80.1996 10.9C79.5903 10.9 79.4996 10.9388 79.4996 11.1999C79.4996 11.3424 79.4762 11.3616 79.2809 11.3777C79.074 11.3949 79.0611 11.4078 79.0439 11.6147L79.0261 11.8334H77.8662H76.7066L76.6884 11.6147C76.6716 11.4085 76.658 11.3949 76.455 11.3781C76.2527 11.3609 76.2387 11.3469 76.2215 11.1446C76.2047 10.9423 76.1907 10.928 75.9884 10.9112L75.7732 10.8933L75.755 10.1968C75.7452 9.81359 75.7452 9.18639 75.755 8.80314L75.7732 8.10664L75.9884 8.08879C76.1907 8.07199 76.2047 8.05764 76.2215 7.85534C76.2387 7.65304 76.2527 7.63904 76.455 7.62189C76.658 7.60509 76.6716 7.59144 76.6884 7.38529L76.7066 7.16654H77.6299H78.5532L78.5903 7.36429C78.6327 7.59039 78.724 7.63134 79.1899 7.63239L79.4926 7.63344L79.5108 7.85219L79.5287 8.07094L80.1328 8.08739C80.7985 8.10594 80.8996 8.06849 80.8996 7.80459C80.8996 7.65689 80.9217 7.63869 81.1184 7.62224C81.3242 7.60509 81.3382 7.59144 81.355 7.39124C81.3707 7.20014 81.3931 7.17459 81.5713 7.14099C81.8212 7.09444 81.845 6.98804 81.8212 6.02904L81.8037 5.32904L81.5884 5.31119C81.3861 5.29439 81.3718 5.28039 81.355 5.07809L81.3371 4.86249L80.8884 4.84534L80.4397 4.82854L80.4219 4.61224L80.4037 4.39594L77.8914 4.38054C76.5092 4.37214 75.3609 4.38334 75.3392 4.40504ZM91.1774 6.91874L91.1956 7.13749L91.6443 7.15464L92.093 7.17144L92.1108 7.38774C92.1276 7.59179 92.1413 7.60509 92.3474 7.62224C92.5595 7.63974 92.5662 7.64744 92.5662 7.86654C92.5662 8.08599 92.5595 8.09334 92.3474 8.11119C92.1406 8.12834 92.128 8.14094 92.1108 8.34779L92.0926 8.56654L91.7899 8.56759C91.324 8.56864 91.2327 8.60959 91.1903 8.83569L91.1532 9.03344H90.693H90.2331V7.86654V6.69999H90.6961H91.1592L91.1774 6.91874ZM51.9662 9.50629V9.96654L51.6018 9.95989C51.4013 9.95604 51.2805 9.94169 51.3334 9.92769C51.4538 9.89549 51.4979 9.73449 51.4989 9.32359L51.4996 9.00124L51.7331 9.02329L51.9662 9.04569V9.50629Z" fill="#FCFCFC"/>
<path fill-rule="evenodd" clip-rule="evenodd" d="M19.3873 5.44764C19.1948 5.55649 18.9935 5.69929 18.9403 5.76439C18.8717 5.84874 18.7744 5.88339 18.605 5.88339H18.3663L18.3597 8.98964C18.3558 10.698 18.3411 12.0507 18.3264 11.9954C18.311 11.9363 18.2183 11.8799 18.1 11.8579C17.9897 11.8372 17.8998 11.797 17.8998 11.7683C17.8998 11.7399 17.7878 11.7165 17.6509 11.7165C17.4465 11.7165 17.3513 11.6748 17.1217 11.4851C16.6923 11.1302 16.1508 11.0914 15.7959 11.3903C15.6969 11.4736 15.5793 11.5415 15.5348 11.5415C15.4904 11.5415 15.3609 11.623 15.2471 11.7228C15.0805 11.8694 15.0014 11.8995 14.8362 11.8803L14.6318 11.8565L14.6472 14.3971L14.6623 16.9374L14.8786 16.9553L15.0949 16.9735L15.112 17.4222L15.1288 17.8709L15.3444 17.8887C15.5467 17.9055 15.5607 17.9195 15.5779 18.1218C15.5943 18.3238 15.609 18.3385 15.8085 18.3553C15.9986 18.371 16.0252 18.3938 16.0577 18.5674C16.1078 18.8341 16.0868 18.8316 18.2235 18.8323C20.2294 18.8334 20.2332 18.8327 20.2332 18.5334C20.2332 18.391 20.2567 18.3717 20.452 18.3556C20.6581 18.3385 20.6718 18.3252 20.6886 18.1218C20.7054 17.9195 20.7194 17.9055 20.9217 17.8887C21.125 17.8719 21.1383 17.8583 21.1555 17.6521C21.1716 17.4568 21.1908 17.4334 21.3333 17.4334C21.6388 17.4334 21.6332 17.488 21.6332 14.5949V11.8967L21.4799 11.363C21.2804 10.6668 21.2997 8.25079 21.5121 7.31244C21.5776 7.02369 21.6315 6.59704 21.6322 6.36464L21.6332 5.94149H21.4113C21.2335 5.94149 21.1492 5.90019 20.9885 5.73429C20.4726 5.20194 19.977 5.11339 19.3873 5.44764Z" fill="#F44424"/>
</svg>
