<svg width="145" height="45" viewBox="0 0 145 45" fill="none" xmlns="http://www.w3.org/2000/svg">
<g clip-path="url(#clip0_307_115)">
<path d="M6.02565 19.7703H12.5466C13.8672 19.7703 14.8577 19.4526 15.5181 18.817C16.1785 18.1815 16.5086 17.3111 16.5086 16.2059C16.5086 15.1006 16.1785 14.2302 15.5181 13.5947C14.8577 12.9316 13.8672 12.6 12.5466 12.6H6.02565V19.7703ZM6.02565 25.3242V36.4733H0V7.04614H12.5466C15.9033 7.04614 18.4071 7.88889 20.058 9.57438C21.7088 11.2599 22.5343 13.4704 22.5343 16.2059C22.5343 18.9137 21.6813 21.1104 19.9754 22.7959C18.2971 24.4814 15.8208 25.3242 12.5466 25.3242H6.02565Z" fill="#120B46"/>
<path d="M37.8804 14.5895V20.1019C37.4677 20.0191 37.0825 19.9776 36.7248 19.9776C34.9914 19.9776 33.6845 20.4335 32.8041 21.3453C31.9511 22.2572 31.5246 23.694 31.5246 25.6558V36.4734H25.6641V14.7553H31.0706V17.5737C32.3088 15.5566 34.3449 14.5481 37.1789 14.5481L37.8804 14.5895Z" fill="#120B46"/>
<path d="M60.274 27.3135H44.5908C44.7834 28.8056 45.3337 29.9523 46.2417 30.7536C47.1496 31.5273 48.3465 31.9142 49.8321 31.9142C50.7675 31.9142 51.607 31.7207 52.3499 31.3339C53.12 30.9194 53.6704 30.3254 54.0007 29.5517H59.9025C59.2697 31.7622 58.018 33.5582 56.1466 34.9398C54.3033 36.2937 52.1433 36.9706 49.6672 36.9706C46.4755 36.9706 43.8617 35.9068 41.8256 33.7792C39.7895 31.6517 38.7715 28.9161 38.7715 25.5728C38.7715 22.3399 39.7895 19.6459 41.8256 17.4907C43.8617 15.3354 46.4618 14.2578 49.626 14.2578C52.7903 14.2578 55.3624 15.3354 57.3435 17.4907C59.3521 19.6183 60.3565 22.3123 60.3565 25.5728L60.274 27.3135ZM49.5847 18.9827C48.2639 18.9827 47.1771 19.3558 46.3242 20.1018C45.4713 20.8202 44.9209 21.8149 44.6733 23.086H54.4958C54.2757 21.8426 53.7393 20.8478 52.8863 20.1018C52.0333 19.3558 50.9329 18.9827 49.5847 18.9827Z" fill="#120B46"/>
<path d="M79.2979 17.0764V5.38843H85.1585V36.4735H79.7518V33.8209C78.3212 35.9209 76.0376 36.9708 72.9009 36.9708C69.8467 36.9708 67.4253 35.8932 65.6368 33.738C63.8483 31.5827 62.9541 28.8749 62.9541 25.6144C62.9541 22.354 63.8483 19.6461 65.6368 17.4909C67.4253 15.3356 69.8467 14.258 72.9009 14.258C74.3315 14.258 75.5972 14.5343 76.6976 15.0869C77.8256 15.6119 78.6927 16.2751 79.2979 17.0764ZM77.9774 30.0492C78.9676 28.8887 79.4628 27.4105 79.4628 25.6144C79.4628 23.8184 78.9676 22.3401 77.9774 21.1796C77.0143 20.0191 75.735 19.4389 74.139 19.4389C72.543 19.4389 71.2497 20.0191 70.2594 21.1796C69.2963 22.3401 68.8147 23.8184 68.8147 25.6144C68.8147 27.4105 69.2963 28.8887 70.2594 30.0492C71.2497 31.2097 72.543 31.79 74.139 31.79C75.735 31.79 77.0143 31.2097 77.9774 30.0492Z" fill="#120B46"/>
<path d="M96.0025 10.9423C95.3425 11.6054 94.4894 11.937 93.4439 11.937C92.3983 11.937 91.5453 11.6054 90.8848 10.9423C90.2248 10.2792 89.8945 9.43636 89.8945 8.41404C89.8945 7.39167 90.2248 6.54892 90.8848 5.8858C91.5453 5.19499 92.3983 4.84961 93.4439 4.84961C94.4894 4.84961 95.3425 5.19499 96.0025 5.8858C96.663 6.54892 96.9932 7.39167 96.9932 8.41404C96.9932 9.43636 96.663 10.2792 96.0025 10.9423ZM90.5133 36.4735V14.7554H96.3739V36.4735H90.5133Z" fill="#120B46"/>
<path d="M141.746 33.9301C139.657 36.1265 136.922 37.2246 133.542 37.2246C130.162 37.2246 127.427 36.1265 125.338 33.9301C123.25 31.706 122.205 28.9953 122.205 25.7981C122.205 22.6009 123.25 19.9041 125.338 17.7078C127.427 15.4836 130.162 14.3716 133.542 14.3716C136.922 14.3716 139.657 15.4836 141.746 17.7078C143.834 19.9041 144.879 22.6009 144.879 25.7981C144.879 28.9953 143.834 31.706 141.746 33.9301ZM129.585 21.2525C128.568 22.3646 128.059 23.8797 128.059 25.7981C128.059 27.7164 128.568 29.2316 129.585 30.3437C130.629 31.4558 131.948 32.0118 133.542 32.0118C135.136 32.0118 136.441 31.4558 137.458 30.3437C138.503 29.2316 139.025 27.7164 139.025 25.7981C139.025 23.8797 138.503 22.3646 137.458 21.2525C136.441 20.1404 135.136 19.5844 133.542 19.5844C131.948 19.5844 130.629 20.1404 129.585 21.2525Z" fill="#120B46"/>
<g filter="url(#filter0_d_307_115)">
<path fill-rule="evenodd" clip-rule="evenodd" d="M115.491 26.3881C115.249 26.0395 114.739 26.0241 114.477 26.3576L111.814 29.7497C111.648 29.9618 111.635 30.2565 111.782 30.4826L115.98 36.9234C116.073 37.0661 116.232 37.1521 116.403 37.1521H121.98C122.386 37.1521 122.625 36.6956 122.394 36.3615L115.491 26.3881ZM108.152 31.1992C108.024 31.3623 107.803 31.4722 107.645 31.3381C107.543 31.2515 107.474 31.1227 107.471 30.9642L107.428 28.329C107.42 27.8633 106.838 27.6565 106.538 28.0127L102.543 32.755C102.24 33.1143 101.653 32.9002 101.653 32.4303V7.00386C101.653 6.7256 101.879 6.5 102.157 6.5H106.907C107.186 6.5 107.411 6.7256 107.411 7.00386V24.0217C107.411 24.4986 108.012 24.7087 108.309 24.3356L115.005 15.9265C115.1 15.8064 115.245 15.7365 115.399 15.7365H118.176C118.856 15.7365 119.053 16.6646 118.433 16.9416L116.103 17.9806C115.761 18.1333 115.826 18.6418 116.196 18.7021L116.711 18.786C117.184 18.8631 117.401 19.4195 117.105 19.7966L108.152 31.1992Z" fill="url(#paint0_linear_307_115)"/>
</g>
</g>
<defs>
<filter id="filter0_d_307_115" x="87.6269" y="-6.48746" width="48.884" height="58.705" filterUnits="userSpaceOnUse" color-interpolation-filters="sRGB">
<feFlood flood-opacity="0" result="BackgroundImageFix"/>
<feColorMatrix in="SourceAlpha" type="matrix" values="0 0 0 0 0 0 0 0 0 0 0 0 0 0 0 0 0 0 127 0" result="hardAlpha"/>
<feOffset dy="1.039"/>
<feGaussianBlur stdDeviation="7.01323"/>
<feColorMatrix type="matrix" values="0 0 0 0 0.94902 0 0 0 0 0.180392 0 0 0 0 0.490196 0 0 0 0.2 0"/>
<feBlend mode="normal" in2="BackgroundImageFix" result="effect1_dropShadow_307_115"/>
<feBlend mode="normal" in="SourceGraphic" in2="effect1_dropShadow_307_115" result="shape"/>
</filter>
<linearGradient id="paint0_linear_307_115" x1="92.0232" y1="6.51358" x2="129.932" y2="45.7081" gradientUnits="userSpaceOnUse">
<stop offset="0.0250927" stop-color="#A126C5"/>
<stop offset="0.333333" stop-color="#E22C8D"/>
<stop offset="0.652678" stop-color="#FF2F6F"/>
<stop offset="1" stop-color="#FF6335"/>
</linearGradient>
<clipPath id="clip0_307_115">
<rect width="145" height="44.6154" fill="white"/>
</clipPath>
</defs>
</svg>
