<svg xmlns="http://www.w3.org/2000/svg" xmlns:xlink="http://www.w3.org/1999/xlink" viewBox="0 0 400 130.96716947648625">
  <g fill-rule="evenodd">
    <path d="M237.912 5.707c-.043.115-.097 3.172-.12 6.793l-.042 6.583-7.417.084-7.416.083v16.167l7.455.043 7.455.043.051 36.374c.048 34.379.067 36.442.351 37.623 1.192 4.955 3.62 8.23 7.628 10.287l1.226.63 12.542.045c10.072.037 12.543.004 12.547-.166.099-4.26-.056-14.892-.219-14.997-.111-.072-3.384-.128-7.272-.125-5.6.005-7.098-.038-7.206-.209-.175-.276-.18-69.146-.005-69.422.1-.158 1.85-.216 7.455-.25l7.325-.043.043-8.042.044-8.041h-14.831l-.103-.411c-.056-.226-.077-3.282-.045-6.791l.059-6.382-9.713-.043c-7.683-.034-9.73.001-9.792.167M1.033 19.2c-.151.151-.19 2.136-.16 8.125l.039 7.925.086-8 .085-8 107.877-.042 107.877-.042-.044 8.042-.043 8.042-107.75.084-107.75.083 107.788.042 107.789.041.091-.375c.05-.206.07-3.9.045-8.208l-.046-7.834-107.842-.041c-83.739-.033-107.886.002-108.042.158m337.55-.075l59.917.042v16.166h-59.986c-40.8 0-60.013-.054-60.071-.17-.047-.094-.065-.076-.042.041.035.172 11.563.213 60.113.213h60.069V19.083H278.667l59.916.042M278.41 27c0 4.354.022 6.135.048 3.958a386.82 386.82 0 000-7.916c-.026-2.177-.048-.396-.048 3.958M9.677 43.424c-4.438 1.081-7.367 3.813-8.409 7.842-.69 2.668-.849 16.44-.216 18.651.833 2.909 2.496 5.032 4.812 6.147 2.365 1.137 1.566 1.097 21.894 1.1 14.041.002 18.389.05 18.542.203.141.14.2 1.092.2 3.216s-.059 3.076-.2 3.217c-.154.154-5.434.2-22.752.2H.996l.044 7.086.043 7.087 27.86-.005c16.515-.002 28.188-.067 28.667-.16 4.473-.861 7.448-4.466 8.218-9.958.346-2.467.227-14.31-.163-16.223-.745-3.655-2.458-6.12-5.161-7.424-1.9-.917-1.471-.898-20.596-.901-13.522-.001-17.722-.049-17.875-.202-.211-.211-.299-6.015-.099-6.536.092-.239 2.191-.264 22.042-.267 12.067-.001 22.035-.062 22.151-.136.165-.104.201-1.542.167-6.622l-.044-6.489-27.833-.023c-22.598-.02-28.004.018-28.74.197m146.24.077c-6.141 1.256-9.567 4.105-11.018 9.166-.335 1.171-.593 45.039-.266 45.366.076.076 4.297.139 9.378.139l9.239.001.083-20.795.084-20.795 7.541-.043 7.542-.043v41.664l9.138.045c5.026.024 9.263.02 9.416-.01.258-.05.281-1.578.32-20.833l.043-20.78h14.5l.042 20.651c.025 12.103.105 20.726.194 20.833.108.13 2.889.17 9.583.139l9.431-.045v-44.79l-.425-1.466c-1.37-4.727-4.572-7.508-9.755-8.472-2.155-.401-25.58-.399-27.371.002-2.306.517-5.283 2.426-5.283 3.388 0 .378-.439.125-.916-.528-.989-1.352-2.854-2.361-5.3-2.866-2.051-.424-24.072-.363-26.2.072m188.185-.062c-5.138.795-8.343 4.008-9.625 9.644-.184.809-.227 4.218-.227 17.834V87.75l.403 1.417c1.339 4.71 3.981 7.406 8.43 8.603 1.802.484 44.511.488 46.334.003 4.172-1.108 7.21-3.815 8.484-7.561.68-1.998.787-3.696.733-11.629l-.051-7.333-9.375-.043-9.375-.043-.002 6.21c-.002 3.415-.063 6.304-.136 6.419-.105.165-2.658.2-12.206.166l-12.072-.042-.043-13.71-.043-13.709 12.21.043 12.209.042.044 4.825c.033 3.606.097 4.859.25 4.956.36.229 18.192.167 18.423-.064.313-.313.278-12.64-.041-14.305-.658-3.44-2.486-5.961-5.303-7.313-2.6-1.248-2.504-1.237-10.79-1.295-21.193-.151-37.064-.129-38.231.052m-270.668.158c-.055.145-.101 2.951-.101 6.236 0 3.285.046 6.092.101 6.237.092.238 2.191.264 22.042.266 12.067.001 22.036.063 22.152.137.163.103.202.976.167 3.789l-.045 3.655-17.833.095c-19.17.102-18.481.068-20.536.995-2.587 1.166-4.673 4.049-5.363 7.41a21.26 21.26 0 01-.361 1.511c-.209.684-.199 12.862.011 14.239.815 5.321 3.292 8.366 7.747 9.524 1.107.287 2.608.303 28.452.306l27.284.003.049-21.958c.035-15.505-.005-22.351-.136-23.292-.688-4.933-3.657-8.17-8.413-9.17-1.841-.387-55.068-.371-55.217.017m199.899-.149c-4.791.8-8.012 4.019-9.016 9.009-.437 2.171-.493 33.36-.065 35.626 1.011 5.344 3.681 8.457 8.224 9.588 1.3.323 1.888.329 28.134.288l26.807-.042V84.083l-22-.085c-12.1-.046-22.019-.102-22.042-.125-.221-.213-.007-6.517.225-6.606.147-.057 10.023-.101 21.948-.099 11.924.002 21.744-.06 21.822-.138.315-.315.064-24.68-.267-25.863-1.152-4.124-3.81-6.804-7.52-7.583-1.105-.232-44.903-.361-46.25-.136m34.403 12.986c.398.153.398 6.812 0 6.965-.611.235-24.021.11-24.219-.129-.133-.159-.177-1.218-.146-3.458l.046-3.229 8.916-.085c4.904-.047 10.317-.103 12.028-.125 1.712-.022 3.23.006 3.375.061M117.833 81.399c0 2.945-.035 3.412-.263 3.5-.345.132-23.629.132-23.973 0-.229-.088-.264-.555-.264-3.5V78h24.5v3.399m-1.136 23.893l115.781.042.109.345c.061.191.147.309.192.265.045-.045-.002-.239-.105-.43l-.186-.347-115.786.041-115.785.042 115.78.042m161.713.083c-.044.114-.06 3.433-.035 7.375l.045 7.167.04-7.292.04-7.292h120V120.5l-59.917.042-59.916.042h59.958l59.958-.001V105.25l-60.046-.042c-47.95-.033-60.063 0-60.127.167M.91 112.917c0 4.125.022 5.788.048 3.697a347.22 347.22 0 000-7.5c-.026-2.034-.048-.322-.048 3.803m231.673.417c0 3.924.054 7.048.119 6.943.161-.261.17-13.9.009-13.999-.07-.044-.128 3.132-.128 7.056m-173.611 7.291c31.839.023 83.889.023 115.667 0 31.778-.023 5.728-.042-57.889-.042-63.617 0-89.617.019-57.778.042" fill="#f3731b"/>
    <path d="M1.076 19.375c-.044.115-.06 3.752-.036 8.084l.043 7.875h107.725c59.249-.001 107.792-.043 107.875-.094.086-.053.15-3.515.15-8.083v-7.99H108.995c-86.117 0-107.855.042-107.919.208m277.386 7.709c-.025 4.354-.02 7.992.01 8.083.037.11 20.303.166 60.042.166H398.5V19.167H278.506l-.044 7.917M1 112.917v7.583h115.732c101.697 0 115.744-.03 115.826-.245.127-.329.131-14.335.005-14.664-.089-.232-11.519-.258-115.831-.258H1v7.584m277.462-.209c-.025 4.057-.019 7.469.014 7.584.048.166 12.199.208 60.042.208H398.5v-15.167H278.507l-.045 7.375" fill="#060606"/>
  </g>
</svg>
