<svg xmlns:xlink="http://www.w3.org/1999/xlink" xmlns="http://www.w3.org/2000/svg" xml:space="preserve" xmlns:vectornator="http://vectornator.io" viewBox="0 0 144 56" clip-rule="evenodd" stroke-linecap="round" stroke-linejoin="round">
  <g vectornator:layerName="Untitled" fill-rule="evenodd">
    <path d="M25.936 22.94h4.862v-2.439H18.36v2.44h4.862v12.54h2.714v-12.54m99.596-2.44h-11.087v14.98h11.195v-2.375h-8.584v-4.002h7.514v-2.375h-7.514v-3.852h8.476V20.5m-24.457 14.98h10.572v-2.375h-7.94V20.501h-2.632v14.98m-3.732-2.036v-6.337h-2.6v5.143c-.5.366-1.057.649-1.648.839a6.496 6.496 0 0 1-2.043.312c-.787 0-1.495-.137-2.13-.41a4.94 4.94 0 0 1-1.636-1.135 4.97 4.97 0 0 1-1.06-1.717 6.12 6.12 0 0 1-.37-2.16c-.01-1.393.5-2.74 1.43-3.779a4.91 4.91 0 0 1 1.571-1.157 4.587 4.587 0 0 1 1.957-.419c.48 0 .92.039 1.32.117a5.575 5.575 0 0 1 2.064.83c.305.202.604.425.894.669l1.704-2.005a9.667 9.667 0 0 0-1.212-.873 7.716 7.716 0 0 0-1.322-.635 8.47 8.47 0 0 0-1.517-.398 10.84 10.84 0 0 0-1.823-.14c-1.15 0-2.209.208-3.177.623a7.597 7.597 0 0 0-4.127 4.181 7.932 7.932 0 0 0-.58 3.019c0 1.107.19 2.134.568 3.082a7.297 7.297 0 0 0 1.606 2.468 7.376 7.376 0 0 0 2.5 1.64c.975.394 2.06.59 3.254.59.67 0 1.31-.06 1.921-.182a9.45 9.45 0 0 0 3.2-1.261c.458-.287.877-.59 1.256-.905m-17.414 0v-6.337h-2.597v5.143c-.501.366-1.058.649-1.648.839a6.496 6.496 0 0 1-2.043.312c-.786 0-1.496-.137-2.129-.41a4.938 4.938 0 0 1-1.638-1.135 4.972 4.972 0 0 1-1.06-1.717 6.119 6.119 0 0 1-.37-2.16c-.01-1.393.5-2.74 1.43-3.779.441-.487.976-.88 1.572-1.157a4.586 4.586 0 0 1 1.955-.419c.48 0 .92.039 1.322.117.399.079.766.188 1.102.324.335.137.655.305.96.507.306.201.606.424.896.668l1.704-2.005a9.752 9.752 0 0 0-1.213-.873 7.704 7.704 0 0 0-1.322-.635 8.47 8.47 0 0 0-1.515-.398 10.852 10.852 0 0 0-1.825-.14c-1.15 0-2.209.208-3.177.623a7.76 7.76 0 0 0-2.5 1.694 7.59 7.59 0 0 0-1.628 2.488 7.93 7.93 0 0 0-.578 3.018c0 1.107.189 2.134.567 3.082a7.312 7.312 0 0 0 1.605 2.468 7.368 7.368 0 0 0 2.501 1.64c.975.394 2.06.59 3.253.59.671 0 1.31-.06 1.922-.182a9.456 9.456 0 0 0 3.2-1.261 11.25 11.25 0 0 0 1.255-.905M42.04 22.704c2.908 0 5.287 2.386 5.287 5.305 0 2.918-2.379 5.306-5.287 5.306-2.906 0-5.285-2.388-5.285-5.306s2.379-5.305 5.285-5.305Zm0-2.497c-4.275 0-7.772 3.51-7.772 7.802 0 4.29 3.497 7.803 7.772 7.803 4.276 0 7.774-3.512 7.774-7.803 0-4.292-3.498-7.802-7.774-7.802Z" fill="#ffffff"/>
    <path d="M55.454 20.19h-5.998a10.853 10.853 0 0 1 3.295 7.801 10.857 10.857 0 0 1-3.296 7.802h5.998c4.227 0 7.685-3.51 7.685-7.802 0-4.29-3.458-7.802-7.684-7.802" fill="#ffa852"/>
  </g>
</svg>
