<svg xmlns="http://www.w3.org/2000/svg" viewBox="0 0 144 56" clip-rule="evenodd" stroke-linecap="round" stroke-linejoin="round">
  <g fill-rule="evenodd">
    <path d="M110.082 14.243c0 5.573.008 6.112.094 6.112.093 0 .466-.2 1.53-.826.921-.54.999-.585 1.19-.676.102-.049.222-.123.265-.164.044-.041.173-.123.287-.18.113-.057.339-.184.502-.28.162-.098.521-.302.797-.454.276-.152.511-.298.522-.325.011-.026.057-.047.103-.047.205 0 .005-.172-.625-.534-.492-.283-.985-.568-1.476-.853l-1.329-.77c-1.145-.659-1.597-.926-1.644-.971-.039-.037.991-.663 2.559-1.553 2.398-1.36 2.673-1.553 2.407-1.687a8.496 8.496 0 0 1-.428-.244 9.985 9.985 0 0 0-.502-.283 1.773 1.773 0 0 1-.321-.207c-.063-.057-.148-.104-.188-.104-.04 0-.108-.034-.151-.076a1.5 1.5 0 0 0-.285-.18 20.509 20.509 0 0 1-.738-.416c-1.25-.733-2.003-1.159-2.048-1.159a.05.05 0 0 1-.049-.05c0-.058-.265-.186-.387-.186-.074 0-.085.807-.085 6.113m10.666-6.07c-.1.1-.036 9.065.064 9.027.055-.021.341-.18.635-.353.786-.464 1.575-.923 2.366-1.377.227-.13.806-.463 1.285-.743l.871-.508v6.087c0 5.772-.006 6.084-.104 6.047-.099-.037-.855-.47-3.351-1.922-1.746-1.015-1.727-1.004-1.827-1.004-.11 0-.145 9.056-.035 9.124.031.019.157-.016.28-.077.355-.178.808-.443.883-.516.037-.037.157-.103.265-.147a.96.96 0 0 0 .227-.116c.029-.036.985-.58 1.329-.756a.847.847 0 0 0 .209-.138c.017-.025.128-.087.247-.136.118-.05.231-.116.251-.148.02-.032.148-.112.284-.178.166-.081.328-.17.485-.268a9.07 9.07 0 0 1 .473-.274c.13-.069.249-.143.266-.164.016-.02.142-.087.28-.148.138-.061.251-.13.251-.152 0-.023.12-.09.266-.151.146-.06.266-.127.266-.148 0-.02.106-.085.236-.144.13-.059.236-.124.236-.145 0-.02.12-.087.266-.147.146-.06.266-.128.266-.151 0-.023.119-.09.265-.15.146-.061.266-.128.266-.15 0-.022.082-.074.182-.116.101-.041.214-.105.252-.142.037-.037.188-.126.334-.198.146-.072.505-.276.797-.453.293-.177.651-.377.796-.444.145-.068.277-.144.295-.17.017-.025.244-.162.504-.303.26-.142.486-.274.502-.295a.924.924 0 0 1 .227-.116c.108-.044.228-.11.267-.145.079-.071.271-.185.717-.424.162-.087.308-.174.325-.195.031-.038.36-.223.708-.399.114-.057.22-.121.236-.143.017-.022.163-.111.325-.199.163-.087.402-.223.532-.302.13-.078.329-.19.443-.247.114-.058.22-.119.236-.137.033-.035.517-.317 1.299-.756.147-.082.28-.164.296-.182.016-.019.122-.08.236-.137.17-.088.337-.181.502-.28.175-.104.353-.204.532-.302.13-.07.249-.146.265-.168a.886.886 0 0 1 .227-.119c.108-.043.23-.113.272-.154.041-.041.169-.123.284-.183.115-.06.44-.24.722-.403.282-.163.637-.363.789-.446.381-.208.365-.325-.079-.566-.728-.395-.827-.452-.856-.49a.88.88 0 0 0-.227-.12 1.076 1.076 0 0 1-.266-.148c-.038-.037-.281-.184-.541-.326a5.898 5.898 0 0 1-.502-.293 1.713 1.713 0 0 0-.266-.151 2.076 2.076 0 0 1-.265-.148 2.204 2.204 0 0 0-.266-.148 1.761 1.761 0 0 1-.266-.15c-.033-.037-.387-.238-1.063-.604-.243-.132-.473-.271-.511-.31a1.068 1.068 0 0 0-.267-.15 1.267 1.267 0 0 1-.311-.186c-.063-.058-.147-.105-.188-.105-.04 0-.111-.038-.157-.084a1.111 1.111 0 0 0-.285-.168 4.83 4.83 0 0 1-.555-.314 8.566 8.566 0 0 0-.561-.336 11.42 11.42 0 0 1-.443-.245c-.343-.201-.688-.4-1.034-.596a31.947 31.947 0 0 1-.501-.293c-.13-.077-.33-.19-.443-.252-.365-.194-.797-.452-.827-.492a1.675 1.675 0 0 0-.296-.168 7.564 7.564 0 0 1-.483-.259 66.845 66.845 0 0 0-1.542-.88 1.836 1.836 0 0 1-.26-.162 1.76 1.76 0 0 0-.295-.165 1.25 1.25 0 0 1-.254-.142 2.832 2.832 0 0 0-.355-.213 15.943 15.943 0 0 1-.531-.302 7.611 7.611 0 0 0-.414-.23 1.258 1.258 0 0 1-.236-.14 1.732 1.732 0 0 0-.266-.163 26.2 26.2 0 0 1-.59-.332 13.373 13.373 0 0 0-.503-.278.866.866 0 0 1-.177-.11 6.131 6.131 0 0 0-.531-.312 37.598 37.598 0 0 1-.798-.451 62.056 62.056 0 0 0-1.003-.571c-.39-.218-.723-.414-.739-.436a1.659 1.659 0 0 0-.295-.174 1.621 1.621 0 0 1-.295-.175c-.047-.065-.221-.116-.26-.077M96.793 44.57c0 5.63.01 6.378.089 6.378.048 0 .088-.024.088-.053 0-.029.1-.097.222-.151.121-.054.487-.255.812-.446.701-.412 1.349-.786 2.867-1.653.332-.19.662-.38.991-.574.119-.073.323-.188.453-.258.13-.069.358-.196.507-.282.149-.086.388-.22.532-.297.143-.078.274-.162.29-.187.017-.025.143-.09.281-.146.137-.055.25-.122.25-.148 0-.026.093-.079.207-.116.113-.038.226-.101.251-.141.024-.04.133-.109.242-.153.108-.044.228-.108.267-.144.085-.078.442-.28.805-.455.146-.07.279-.148.295-.17.017-.024.123-.09.237-.148.114-.058.22-.122.236-.143.016-.02.143-.087.28-.148.139-.061.252-.131.252-.157 0-.025.089-.075.199-.11.497-.165.482-.332-.052-.606a1.321 1.321 0 0 1-.266-.165c-.016-.024-.149-.104-.295-.177a1.7 1.7 0 0 1-.295-.174 1.184 1.184 0 0 0-.236-.143c-.349-.175-.678-.36-.709-.399a2.683 2.683 0 0 0-.346-.207 24.02 24.02 0 0 1-.59-.33 17.747 17.747 0 0 0-.452-.254c-.17-.094-.337-.192-.502-.295a6.505 6.505 0 0 0-.529-.294.918.918 0 0 1-.237-.14c-.017-.026-.244-.162-.504-.304a6.12 6.12 0 0 1-.502-.291 1.777 1.777 0 0 0-.266-.151 1.671 1.671 0 0 1-.265-.152 1.194 1.194 0 0 0-.207-.126c-.417-.214-1.305-.728-1.374-.794a.99.99 0 0 0-.28-.148c-.114-.04-.207-.092-.207-.113 0-.02-.106-.086-.236-.144-.13-.059-.236-.127-.236-.152 0-.025-.12-.091-.266-.147-.146-.056-.265-.124-.265-.152 0-.028-.027-.051-.06-.051-.034 0-.173-.073-.31-.161a6.9 6.9 0 0 0-.457-.268 25.959 25.959 0 0 1-.414-.22 1.33 1.33 0 0 0-.25-.116c-.025-.002-.045 2.867-.045 6.376" fill="#04bbcb"/>
    <path d="M120.387 8.251a3.65 3.65 0 0 1-.354.21c-.097.049-.31.166-.472.26l-.562.325-.561.321a8.178 8.178 0 0 1-.5.266.872.872 0 0 0-.236.146c-.017.027-.13.1-.25.16-.383.194-1.788.986-1.819 1.026a.413.413 0 0 1-.141.08c-.062.022-.102.05-.089.061.065.057 1.144.69 2.829 1.658l2.377 1.371c.024.015.044-1.33.044-2.99 0-1.658-.02-3.015-.044-3.015a.873.873 0 0 0-.222.121m-.369 6.403c-.323.192-.647.38-.973.566-.236.134-.788.451-1.227.706-.438.255-1.01.585-1.269.734-.927.53-1.005.578-1.06.63-.063.06.074.187.351.326.097.049.323.178.502.288.178.11.431.255.561.323.13.067.369.203.532.3.546.325.512.32.862.143.175-.089.452-.246.614-.349a28.81 28.81 0 0 1 1.019-.589l.723-.402v-1.5c0-.824-.02-1.499-.046-1.499-.025 0-.29.146-.589.323" fill="#d5990d"/>
    <path d="M114.186 11.946c-.682.403-1.306.769-1.388.812-.805.43-2.537 1.48-2.5 1.517.047.045.499.312 1.644.972l1.329.768c2.322 1.347 2.178 1.28 2.403 1.122.069-.048.36-.224.648-.391.546-.32 1.094-.637 1.644-.952 1.256-.72 2.29-1.32 2.498-1.446l.195-.12-.224-.134c-.297-.179-1.46-.855-2.38-1.385-1.715-.986-2.34-1.35-2.45-1.427-.15-.104-.003-.173-1.419.664m10.897 2.783c-.54.318-1.082.634-1.624.948l-1.329.768c-.309.18-.753.435-.988.568l-.426.242-.017 3.069-.016 3.068.325.173c.178.096.856.484 1.506.863 2.177 1.272 3.247 1.886 3.351 1.925.098.037.104-.275.104-6.05 0-3.35-.007-6.088-.015-6.085-.008.003-.4.233-.871.51" fill="#0484cb"/>
    <path d="M120.653 11.148v3.018l-.266-.156c-.146-.086-.265-.143-.265-.127 0 .017.122.102.272.19l.273.16-.155.08c-.084.045-.154.095-.154.111 0 .017.051.002.114-.031a.58.58 0 0 1 .147-.062c.018 0 .04.671.049 1.492.009.82.029-.575.045-3.1.016-2.526.009-4.593-.015-4.593-.025 0-.045 1.358-.045 3.018m-4.99.155c.032.031.165.116.295.19.13.072.183.088.118.034-.132-.11-.506-.312-.413-.224m.561.338c0 .016.079.07.177.121.097.05.177.079.177.063 0-.017-.08-.071-.177-.122-.098-.05-.177-.078-.177-.062m.413.236c0 .017.08.071.177.122.098.05.178.078.178.062 0-.017-.08-.07-.178-.122-.097-.05-.177-.078-.177-.062m.62.359c.065.053.172.122.236.154l.119.058-.119-.096a1.456 1.456 0 0 0-.236-.154l-.118-.058.118.096m.502.29c0 .017.08.072.177.122.098.05.178.078.178.063 0-.017-.08-.071-.178-.122-.097-.05-.177-.078-.177-.062m.414.236c0 .017.079.071.177.121.097.05.177.079.177.063 0-.017-.08-.071-.177-.122-.098-.05-.177-.078-.177-.062m.62.359c.065.053.171.122.236.154l.118.058-.118-.096a1.548 1.548 0 0 0-.236-.154l-.118-.059.118.097m.502.29c0 .017.08.072.177.122.098.05.177.078.177.062s-.079-.07-.177-.12c-.097-.052-.177-.08-.177-.063m.413.236c0 .017.08.071.177.121.098.05.178.079.178.062 0-.016-.08-.07-.178-.12-.097-.051-.177-.08-.177-.063m-.31 1.307c-.221.12-.207.17.015.055.097-.05.177-.104.177-.12 0-.038-.006-.036-.192.065m-.413.236c-.221.12-.207.17.014.055.098-.05.178-.104.178-.12 0-.038-.007-.036-.192.065m-.591.354c-.221.12-.207.17.015.055.098-.05.177-.104.177-.12 0-.037-.006-.035-.192.066m-.531.295c-.221.12-.208.17.015.055.097-.05.177-.105.177-.12 0-.038-.007-.036-.192.065m-.414.236c-.221.12-.207.17.015.055.097-.05.177-.104.177-.12 0-.038-.006-.036-.192.065m-.635.384-.147.121.192-.094c.105-.051.191-.106.191-.122 0-.058-.093-.02-.236.095m-.915.527c-.098.065-.151.117-.118.117.059-.001.38-.231.325-.233a.959.959 0 0 0-.207.116" fill="#63ca69"/>
    <path d="M102.226 17.255c0 3.498-.039 3.248.468 2.932.149-.093.523-.312.832-.487.308-.175.604-.346.656-.378.052-.032.225-.132.384-.222.127-.071.252-.144.377-.218l.473-.28c.211-.123.397-.238.413-.255.016-.018.143-.082.281-.143.138-.06.251-.127.251-.148 0-.02.073-.069.162-.107.179-.078.75-.404.967-.553.167-.115.117-.2-.224-.377a1.718 1.718 0 0 1-.256-.152 1.125 1.125 0 0 0-.206-.125c-.098-.05-.337-.183-.532-.297a32.751 32.751 0 0 0-.558-.319 1.927 1.927 0 0 1-.276-.176 1.205 1.205 0 0 0-.268-.145 1.306 1.306 0 0 1-.256-.132c-.095-.082-.514-.327-.739-.432a.93.93 0 0 1-.236-.14 1.512 1.512 0 0 0-.29-.186 30.642 30.642 0 0 1-1.045-.598c-.151-.09-.298-.163-.326-.163-.029 0-.052 1.371-.052 3.1m17.984.364c-.259.15-.552.32-.649.38-.098.06-.423.243-.722.409-.3.166-.561.327-.58.357-.019.03-.113.056-.209.056-.164 0-.829.325-.872.426-.01.026-.038.046-.062.046-.036 0-.916.495-1.528.86-.285.17-.152.34.518.657.09.043 1.197.683 1.358.785a42.85 42.85 0 0 0 1.329.758c.097.05.19.109.206.13.017.022.264.17.55.33.286.16.618.348.738.418.46.27.425.502.425-2.875 0-1.656-.006-3.01-.014-3.01-.009.001-.228.124-.488.273m-89.063 2.385c-.097.06-.416.245-.708.41-.293.164-.638.365-.768.445-.13.08-.323.191-.428.246l-.192.1v5.625c0 3.093.016 5.666.035 5.718.047.12 2.314.142 2.433.022.05-.05.071-.387.071-1.137v-1.066l.272-.295a5.46 5.46 0 0 0 .36-.428c.107-.157.185-.17.236-.037.02.054.14.246.267.429.127.182.285.418.351.523.066.106.144.192.174.192.029 0 .053.027.053.06 0 .034.107.214.237.4.13.185.36.524.512.75.495.746.32.68 1.803.68 1.538 0 1.494.03.98-.676a10.052 10.052 0 0 1-.451-.66c-.044-.081-.117-.162-.163-.18-.046-.017-.083-.06-.083-.094s-.073-.157-.163-.273a4.483 4.483 0 0 1-.221-.31 15.57 15.57 0 0 0-.413-.582c-.16-.215-.314-.433-.464-.655-.06-.095-.133-.173-.162-.173-.03 0-.054-.03-.054-.068 0-.037-.081-.177-.18-.31-.629-.843-.686-.945-.59-1.05.05-.055.161-.188.247-.295.166-.209.789-.954.937-1.122.049-.055.161-.188.25-.296l.288-.343.34-.411c.117-.145.254-.306.303-.359.049-.052.168-.195.266-.318.097-.123.217-.265.265-.316.21-.22.472-.58.472-.649 0-.057-.326-.073-1.441-.073h-1.442l-.17.221c-.093.122-.209.279-.256.348-.047.07-.246.332-.44.583-.19.245-.377.491-.561.74-.183.25-.741.99-.869 1.15-.026.032-.153.2-.283.372l-.236.314-.016-3.636c-.016-4.041.014-3.774-.398-3.516m32.043-.026c-.113.049-.22.111-.237.138-.017.028-.124.095-.238.149-.17.085-.338.175-.502.271-.162.096-.389.222-.502.28-.114.057-.322.179-.462.27l-.255.163.023 4.884c.024 5.222.026 5.254.32 5.727.144.23.53.59.685.638.072.022.146.063.164.09.113.176 2.268.167 2.445-.01a.264.264 0 0 1 .163-.055c.098 0 .106-.075.106-.953v-.953l-.369.037c-.463.047-.781-.037-.916-.243-.095-.145-.104-.53-.119-5.342-.009-2.851-.035-5.184-.06-5.182a1.524 1.524 0 0 0-.246.09M78.573 20c-.13.064-.343.182-.473.263-.13.081-.356.205-.502.276a1.71 1.71 0 0 0-.295.164c-.016.02-.136.09-.265.155-.13.065-.269.15-.31.188a.607.607 0 0 1-.194.107c-.117.037-.118.084-.102 5.748l.014 5.71h2.422l.016-1.102.016-1.101.407-.433.406-.433.125.146c.069.08.165.22.214.31.049.089.115.162.146.162a.06.06 0 0 1 .058.06c0 .034.107.213.237.399.13.186.362.524.514.752.151.227.417.606.59.841l.314.428h1.3c1.568 0 1.59-.022.858-.841-.05-.057-.093-.124-.093-.148 0-.024-.086-.156-.192-.293a12.83 12.83 0 0 1-.339-.464 4.624 4.624 0 0 0-.236-.317 2.084 2.084 0 0 1-.148-.195c-.276-.43-.47-.695-.512-.695-.027 0-.049-.028-.049-.062 0-.035-.086-.18-.192-.323a20.894 20.894 0 0 1-.34-.475 4.77 4.77 0 0 0-.235-.317 1.962 1.962 0 0 1-.148-.198 9.016 9.016 0 0 0-.226-.33c-.19-.265-.181-.301.156-.687.113-.13.52-.608.905-1.062.262-.31.525-.618.789-.926a83.417 83.417 0 0 0 1.434-1.712l.106-.139-1.433-.015c-1.683-.02-1.496-.063-1.871.439-.166.222-.343.456-.394.521-.051.065-.25.33-.444.591-.192.26-.391.525-.441.59l-.444.575c-.194.25-.352.47-.352.487a.43.43 0 0 1-.09.134c-.05.057-.155.184-.235.281l-.144.177-.002-3.676c0-2.022-.022-3.676-.046-3.675-.024 0-.15.052-.28.115m-76.355.277c-.022.021-.04.513-.04 1.092v1.054H5.25v10.1h2.54v-10.1h1.53c1.34 0 1.533-.012 1.564-.094.047-.121.047-1.876 0-1.998-.037-.097-8.569-.15-8.665-.054M42.81 21.33v1.093h3.013v10.1h2.599v-10.1h3.07v-2.185h-8.681v1.092m-30.476 1.004v.975h2.48v-1.95h-2.48v.975m3.84 0v.975h2.48v-1.95h-2.48v.975m73.588.443c-.048.032-.2.058-.335.058-.285.001-1.072.157-1.166.231-.035.028-.17.083-.3.124-.13.041-.276.107-.325.146-.048.039-.188.117-.31.172-.121.056-.221.125-.221.154 0 .028-.051.069-.114.088-.59.187-1.766 1.867-1.955 2.79-.038.188-.1.405-.136.481-.089.187-.09 1.66-.001 1.845.037.078.1.297.138.485.088.432.503 1.327.77 1.661.238.3 1.123 1.148 1.233 1.183.068.022.124.062.124.09 0 .026.12.097.265.158.147.06.266.126.266.148 0 .022.14.085.31.141.171.056.337.121.37.146.346.263 3.278.262 3.278 0 0-.026.082-.062.182-.082 1.07-.214 2.775-1.907 3.04-3.02a.838.838 0 0 1 .091-.24c.269-.345.262-3.156-.007-3.156-.025 0-.064-.098-.086-.218-.167-.892-1.318-2.212-2.423-2.78-.68-.349-.89-.42-1.417-.488a8.706 8.706 0 0 1-.746-.122c-.27-.069-.413-.067-.525.005m-35.397.474c-.256.024-.522.07-.591.104-.07.032-.293.106-.496.163-.203.058-.37.124-.37.148 0 .024-.059.058-.132.077-1.242.317-2.518 2.49-2.518 4.29 0 2.098 1.41 4.004 3.275 4.43.16.037.337.091.392.12.326.175 2.852.18 3.085.007.035-.026.249-.08.476-.122.228-.042.507-.121.62-.177.114-.055.32-.136.457-.18.146-.047.264-.126.285-.192.035-.11-.141-.696-.21-.696-.019 0-.084-.147-.145-.325-.061-.179-.129-.325-.15-.325-.023 0-.076-.106-.119-.236-.075-.228-.237-.32-.322-.181-.019.03-.187.098-.373.15-.186.052-.391.12-.456.15-.35.161-1.557.262-2.133.177-.996-.147-1.775-.802-1.995-1.68l-.038-.152h6.378l.038-.152c.061-.243-.005-2.155-.076-2.2-.035-.022-.082-.16-.105-.305-.023-.147-.133-.46-.244-.697-.207-.442-.233-.482-.511-.793-.09-.1-.163-.198-.163-.217 0-.16-1.074-.838-1.506-.951a1.618 1.618 0 0 1-.36-.128c-.068-.051-1.109-.17-1.382-.158-.204.014-.408.031-.611.051m15.414.002c-.254.028-.494.075-.531.104-.037.029-.19.082-.34.119-.26.063-.995.397-1.057.479a1.611 1.611 0 0 1-.245.17c-.507.308-1.333 1.4-1.478 1.952a3 3 0 0 1-.136.391c-.286.639-.245 2.619.068 3.218a.693.693 0 0 1 .078.23c0 .118.339.702.586 1.012.325.407.802.847 1.03.952.086.039.156.087.156.107 0 .02.133.088.296.151.162.063.295.133.295.156 0 .022.206.089.458.147.251.058.47.125.488.148.124.175 2.86.167 3.035-.008.032-.033.12-.059.197-.059.183 0 .922-.184.96-.24.016-.023.136-.072.266-.107.496-.134.582-.276.386-.645-.096-.189-.186-.38-.271-.573-.374-.853-.47-.987-.583-.804-.018.029-.213.1-.432.159-.22.058-.413.124-.429.147-.034.046-.67.152-1.24.206-1.468.14-2.839-.736-2.893-1.848 0-.008 1.427-.022 3.173-.03l3.175-.015.017-.945c.016-.907-.082-1.772-.221-1.949a1.411 1.411 0 0 1-.12-.286c-.175-.543-1.008-1.524-1.513-1.782a1.696 1.696 0 0 1-.26-.152c-.045-.054-.597-.231-.719-.231-.06 0-.108-.024-.108-.054 0-.114-1.41-.196-2.088-.12m31.151.004c-.176.03-.349.077-.384.106a1.21 1.21 0 0 1-.306.117 1.135 1.135 0 0 0-.378.183c-.075.065-.162.118-.194.118s-.199.147-.372.327l-.314.327-.068-.253a1.372 1.372 0 0 0-.114-.312.855.855 0 0 1-.088-.251l-.04-.192h-1.881v9.036h2.476l.017-3.027.017-3.027.157-.298c.522-.994 1.991-1.195 2.454-.337.057.106.12.192.142.192.104 0 .131.567.164 3.485l.036 3.16 1.173.016c.816.01 1.199-.005 1.256-.052.067-.056.081-.576.081-2.973 0-3.101.022-3.367.301-3.669.062-.067.113-.147.114-.177.005-.102.54-.397.817-.45.673-.13 1.34.16 1.525.66.054.146.12.295.147.33.026.036.055 1.471.063 3.19l.015 3.125h2.422l.016-3.13c.015-2.945-.018-3.823-.154-4.014a2.822 2.822 0 0 1-.155-.401c-.06-.187-.131-.34-.155-.34-.026 0-.063-.054-.084-.12-.063-.197-.633-.801-.812-.859-.056-.018-.103-.054-.103-.08 0-.026-.126-.092-.28-.147a3.71 3.71 0 0 1-.389-.16c-.327-.178-2.012-.177-2.253.001a1.528 1.528 0 0 1-.312.117c-.419.12-.933.509-1.279.968-.187.248-.247.27-.298.112-.079-.25-.981-1.066-1.183-1.071a.863.863 0 0 1-.228-.09c-.344-.179-.987-.236-1.569-.14m-74.657.107c-.05.027-.262.081-.473.12-.55.1-1.05.433-1.346.894l-.128.2-.001-.575-.001-.576h-2.363v4.513c0 2.482.017 4.555.036 4.607.047.12 2.313.142 2.433.022.053-.053.071-.677.072-2.436.002-2.489.02-2.708.274-3.192.39-.744.976-1.076 2.021-1.144l.568-.038v-2.42l-.502-.013c-.276-.007-.542.01-.59.038m-14.765 3.89c0 2.474.037 3.225.172 3.408.024.032.09.185.147.34.057.153.128.28.158.28s.054.037.054.082c0 .11.66.78.82.83.069.023.125.062.125.088 0 .025.153.094.34.152.186.057.367.126.401.153.222.173 1.947.177 2.176.005.036-.027.193-.096.348-.154.17-.063.422-.237.633-.438.396-.377.39-.38.538.197.116.453.104.448 1.128.43l.903-.016.015-4.002.015-4.001h-2.422v2.33c0 1.366-.023 2.386-.057 2.466a3.407 3.407 0 0 0-.12.382c-.313 1.247-2.132 1.484-2.716.354l-.178-.345v-5.187h-2.48v2.647m79.436-1.934c1.578.547 2.338 2.441 1.58 3.934-.169.333-.729 1.023-.83 1.023-.02 0-.163.08-.317.177-.153.097-.32.177-.371.177a.793.793 0 0 0-.269.098c-.2.109-1.307.145-1.377.045-.022-.032-.193-.105-.38-.162-.187-.058-.34-.128-.34-.157 0-.029-.056-.07-.126-.092-.331-.105-.964-.876-1.114-1.356a1.331 1.331 0 0 0-.138-.316c-.084-.106-.088-1.265-.004-1.373.036-.046.11-.223.165-.395.107-.338.141-.386.63-.896.697-.727 1.95-1.034 2.891-.707m-35.333-.007c.67.127 1.227.752 1.34 1.505l.04.27h-2.04c-2.325 0-2.151.05-1.87-.553.44-.937 1.453-1.426 2.53-1.222m15.534.005c.59.136 1.094.641 1.235 1.238.138.589.348.531-1.937.531h-2.016l.038-.19c.219-1.092 1.505-1.85 2.68-1.58m10.704 12.874c0 2.168.013 2.599.081 2.599.113 0 .421-.147.805-.385.178-.11.424-.245.546-.299.121-.053.221-.117.221-.14 0-.025.1-.09.222-.144a7.08 7.08 0 0 0 .517-.273l.56-.325c.147-.083.4-.229.562-.322.137-.08.276-.157.417-.23.067-.03.22-.123.342-.205.12-.083.251-.16.29-.173.135-.045-.062-.19-.803-.587a1.952 1.952 0 0 1-.253-.157 2.74 2.74 0 0 0-.32-.195c-.17-.094-.34-.189-.508-.286-.14-.081-.461-.266-.714-.41a4.79 4.79 0 0 1-.489-.3 1.293 1.293 0 0 0-.266-.15 2.217 2.217 0 0 1-.295-.16c-.15-.121-.761-.457-.834-.457-.068 0-.081.43-.081 2.599" fill="#042454"/>
    <path d="M136.422 8.185c0 3.361-.01 3.255.296 3.016.081-.063.179-.116.217-.117.038 0 .105-.035.148-.077.042-.042.184-.125.314-.186.13-.06.249-.127.266-.149.028-.037.962-.57 1.329-.758.097-.05.19-.11.206-.133.016-.023.126-.092.243-.153.217-.112.552-.3 1.086-.611.156-.091.314-.18.473-.267 1.091-.585 1.095-.536-.08-1.181a1.666 1.666 0 0 1-.245-.152 1.181 1.181 0 0 0-.207-.124 21.173 21.173 0 0 1-.703-.394c-.288-.167-.547-.304-.575-.304a.05.05 0 0 1-.051-.05c0-.028-.113-.1-.251-.161a1.584 1.584 0 0 1-.28-.146 2.932 2.932 0 0 0-.325-.2 95.41 95.41 0 0 0-.975-.542 1.499 1.499 0 0 1-.236-.148c-.041-.05-.357-.207-.517-.256l-.133-.041v3.134m-16.197 9.37c-.221.12-.207.169.015.054.097-.05.177-.104.177-.12 0-.038-.006-.035-.192.066m-.546.32c-.098.064-.151.117-.118.117.059-.002.38-.232.324-.233a.988.988 0 0 0-.206.116m-.487.27c-.139.083-.251.163-.251.178 0 .043.46-.204.501-.27.052-.085.031-.077-.25.092m-1.019.587c-.102.058-.118.085-.052.086a.253.253 0 0 0 .17-.087c.09-.108.071-.108-.118 0" fill="#0c344c"/>
  </g>
</svg>
