<svg xmlns:xlink="http://www.w3.org/1999/xlink" xmlns="http://www.w3.org/2000/svg" xml:space="preserve" xmlns:vectornator="http://vectornator.io" viewBox="0 0 144 56" clip-rule="evenodd" stroke-linecap="round" stroke-linejoin="round">
  <g fill-rule="evenodd" fill="#5f01d1" vectornator:layerName="Untitled">
    <path d="M15.925 20.02h6.672l3.885 9.94 3.936-9.94h6.496l-9.782 23.531h-6.538l2.678-6.235-7.347-17.296Zm27.757-.395c-5.013 0-8.183 4.496-8.183 8.973 0 5.038 3.475 9.033 8.088 9.033 3.44 0 4.738-2.097 4.738-2.097v1.633h5.82V20.02h-5.82v1.559s-1.447-1.955-4.643-1.955Zm1.238 5.51c2.313 0 3.506 1.83 3.506 3.482 0 1.778-1.278 3.523-3.506 3.523-1.847 0-3.516-1.509-3.516-3.447 0-1.967 1.342-3.558 3.516-3.558Zm11.229 12.032V12.45h6.086v9.19s1.446-2.012 4.474-2.012c3.704 0 5.874 2.76 5.874 6.703v10.837H66.54v-9.353c0-1.334-.636-2.623-2.076-2.623-1.466 0-2.23 1.309-2.23 2.623v9.353H56.15Zm26.812-17.54c-5.742 0-9.16 4.365-9.16 9.042 0 5.323 4.139 8.962 9.18 8.962 4.888 0 9.165-3.474 9.165-8.872 0-5.907-4.478-9.132-9.185-9.132Zm.054 5.559c2.028 0 3.431 1.689 3.431 3.49 0 1.536-1.307 3.43-3.43 3.43-1.946 0-3.407-1.56-3.407-3.447 0-1.818 1.214-3.473 3.406-3.473Zm19.271-5.56c-5.74 0-9.16 4.366-9.16 9.043 0 5.323 4.14 8.962 9.182 8.962 4.887 0 9.163-3.474 9.163-8.872 0-5.907-4.477-9.132-9.185-9.132Zm.055 5.56c2.028 0 3.431 1.689 3.431 3.49 0 1.536-1.308 3.43-3.431 3.43-1.946 0-3.406-1.56-3.406-3.447 0-1.818 1.214-3.473 3.406-3.473ZM112.232 33.49a4.042 4.042 0 1 1 8.084 0 4.042 4.042 0 0 1-8.084 0ZM121.644 27.963h-7.276l6.458-15.514h7.249l-6.431 15.514Z"/>
  </g>
</svg>
