<?xml version="1.0" encoding="UTF-8"?>
<svg width="100" height="100" version="1.1" viewBox="0 0 100 100" xmlns="http://www.w3.org/2000/svg">
  <g transform="matrix(1.6669 0 0 1.5949 .8441 23.3)" fill="#fff">
    <path d="m41.896 16.916c0.682 5.439 1.315 10.547 1.972 15.652 0.079 0.611-0.047 0.827-0.72 0.861-4.056 0.2-4.053 0.221-5.519-3.532-0.61-1.562-1.205-3.13-1.855-4.676a1.29 1.29 0 0 1 0.254-1.586c1.921-2.134 3.782-4.321 5.868-6.719z"/>
    <path d="m18.06 21.475c0.58 2.995 1.154 5.809 1.658 8.636 0.156 0.875 0.859 1.987 0.257 2.578-0.517 0.508-1.665-0.211-2.547-0.178-2.343 0.089-3.434-1.012-3.815-3.324-0.223-1.357-0.323-2.3 0.8-3.35a45.777 45.777 0 0 0 3.647-4.362z"/>
    <path d="m24.676 26.938c0-1.681-0.026-3.363 0.013-5.044 0.015-0.66-0.169-0.883-0.87-0.906q-7.178-0.238-14.354-0.576c-0.751-0.035-1.048 0.178-1.207 0.921-0.738 3.44-1.576 6.859-2.3 10.3-0.2 0.967-0.571 1.326-1.583 1.214a21.076 21.076 0 0 0-3.378-0.075c-0.849 0.043-1.01-0.31-1-1.051 0.073-5.165 0.181-10.33 0.131-15.494a7.013 7.013 0 0 1 1.505-4.382c2.645-3.678 5.2-7.423 7.762-11.159a1.341 1.341 0 0 1 1.465-0.673q14.343 1.535 28.7 2.974a3.658 3.658 0 0 1 1.663 0.636c5.694 3.7 11.379 7.414 17.1 11.069 0.854 0.546 0.88 0.857 0.056 1.349a1.659 1.659 0 0 0-0.469 0.375c-1.649 2.13-3.578 2.033-5.913 1.093-2.823-1.137-5.8-1.892-8.7-2.859a1.815 1.815 0 0 0-1.7 0.177q-3.994 2.481-8.025 4.9a1.687 1.687 0 0 0-0.88 1.307c-0.59 3.55-1.264 7.087-1.806 10.644-0.156 1.02-0.519 1.343-1.533 1.272a33.639 33.639 0 0 0-3.866-6e-3c-0.764 0.034-0.959-0.236-0.938-0.962 0.05-1.681 0.016-3.364 0.016-5.046z"/>
  </g>
</svg>
